<svg width="113" height="147" viewBox="0 0 113 147" fill="none" xmlns="http://www.w3.org/2000/svg">
<path d="M96.4538 116.801L110.345 134.213L94.4974 146.343L84.5194 133.822C75.3893 142.169 64.4331 146.343 51.6509 146.343C42.1295 146.343 33.3906 144.191 25.4344 139.887C17.6085 135.583 11.4131 129.713 6.84802 122.279C2.28295 114.714 0.000415416 106.301 0.000415416 97.0405C0.000415416 89.0842 2.0873 81.454 6.26108 74.1499C10.4349 66.8458 16.1086 60.7808 23.2823 55.9548C17.0216 47.8682 13.8913 40.3684 13.8913 33.4556C13.8913 27.3253 15.3912 21.7168 18.3911 16.63C21.5215 11.4128 25.7604 7.36946 31.1081 4.49999C36.4558 1.50009 42.3903 0.000133993 48.9119 0.000133993C57.2594 0.000133993 64.2375 2.21746 69.846 6.6521C75.4545 10.9563 79.4326 16.5648 81.7804 23.4776L63.9766 32.8686C60.7158 23.9994 55.7595 19.5647 49.1075 19.5647C45.0642 19.5647 41.673 20.8038 38.9339 23.282C36.3253 25.7602 35.021 29.0861 35.021 33.2599C35.021 37.3033 36.5862 41.2814 39.7165 45.1943L84.1281 101.345L96.2582 81.5844L112.301 91.5624L96.4538 116.801ZM52.2379 126.779C60.3245 126.779 67.1069 124.04 72.585 118.562L35.021 70.8239C30.456 73.6934 26.8691 77.4759 24.2605 82.1714C21.6519 86.7365 20.3476 91.5624 20.3476 96.6492C20.3476 102.388 21.7823 107.605 24.6518 112.301C27.5213 116.866 31.369 120.453 36.1949 123.061C41.1513 125.54 46.4989 126.779 52.2379 126.779Z" fill="#272727"/>
</svg>
