<svg width="27" height="27" viewBox="0 0 27 27" fill="none" xmlns="http://www.w3.org/2000/svg">
<circle cx="13.4875" cy="13.4875" r="13.4875" fill="#C1A968"/>
<circle cx="13.4875" cy="13.4875" r="13.4875" fill="white"/>
<path d="M18.6767 8.7821C17.7041 8.33723 16.6711 8.013 15.5928 7.83203C15.4571 8.06578 15.3063 8.38246 15.2007 8.63129C14.0538 8.4654 12.9153 8.4654 11.7842 8.63129C11.6787 8.38246 11.5203 8.06578 11.3921 7.83203C10.3064 8.013 9.27336 8.33722 8.30746 8.7821C6.35456 11.6624 5.82674 14.4749 6.09065 17.2497C7.38756 18.1922 8.63925 18.7653 9.86905 19.1423C10.1707 18.7352 10.4421 18.2978 10.6759 17.8379C10.231 17.672 9.80873 17.4684 9.40156 17.2271C9.50712 17.1517 9.61269 17.0688 9.71071 16.9858C12.1688 18.1093 14.8313 18.1093 17.2592 16.9858C17.3647 17.0688 17.4628 17.1517 17.5683 17.2271C17.1611 17.4684 16.7389 17.672 16.294 17.8379C16.5278 18.2978 16.7992 18.7351 17.1008 19.1423C18.3299 18.7653 19.5891 18.1922 20.8792 17.2497C21.2034 14.0376 20.3657 11.2478 18.6767 8.7821ZM11.0151 15.5381C10.2762 15.5381 9.67298 14.867 9.67298 14.0452C9.67298 13.2233 10.2611 12.5522 11.0151 12.5522C11.7616 12.5522 12.3724 13.2233 12.3573 14.0452C12.3573 14.867 11.7616 15.5381 11.0151 15.5381ZM15.9698 15.5381C15.2309 15.5381 14.6269 14.867 14.6269 14.0452C14.6269 13.2233 15.2158 12.5522 15.9698 12.5522C16.7163 12.5522 17.327 13.2233 17.3119 14.0452C17.3119 14.867 16.7238 15.5381 15.9698 15.5381Z" fill="#0D0D0D"/>
<path d="M18.6767 8.7821C17.7041 8.33723 16.6711 8.013 15.5928 7.83203C15.4571 8.06578 15.3063 8.38246 15.2007 8.63129C14.0538 8.4654 12.9153 8.4654 11.7842 8.63129C11.6787 8.38246 11.5203 8.06578 11.3921 7.83203C10.3064 8.013 9.27336 8.33722 8.30746 8.7821C6.35456 11.6624 5.82674 14.4749 6.09065 17.2497C7.38756 18.1922 8.63925 18.7653 9.86905 19.1423C10.1707 18.7352 10.4421 18.2978 10.6759 17.8379C10.231 17.672 9.80873 17.4684 9.40156 17.2271C9.50712 17.1517 9.61269 17.0688 9.71071 16.9858C12.1688 18.1093 14.8313 18.1093 17.2592 16.9858C17.3647 17.0688 17.4628 17.1517 17.5683 17.2271C17.1611 17.4684 16.7389 17.672 16.294 17.8379C16.5278 18.2978 16.7992 18.7351 17.1008 19.1423C18.3299 18.7653 19.5891 18.1922 20.8792 17.2497C21.2034 14.0376 20.3657 11.2478 18.6767 8.7821ZM11.0151 15.5381C10.2762 15.5381 9.67298 14.867 9.67298 14.0452C9.67298 13.2233 10.2611 12.5522 11.0151 12.5522C11.7616 12.5522 12.3724 13.2233 12.3573 14.0452C12.3573 14.867 11.7616 15.5381 11.0151 15.5381ZM15.9698 15.5381C15.2309 15.5381 14.6269 14.867 14.6269 14.0452C14.6269 13.2233 15.2158 12.5522 15.9698 12.5522C16.7163 12.5522 17.327 13.2233 17.3119 14.0452C17.3119 14.867 16.7238 15.5381 15.9698 15.5381Z" fill="#0D0D0D"/>
</svg>
