<svg width="62" height="38" viewBox="0 0 62 38" fill="none" xmlns="http://www.w3.org/2000/svg">
<rect x="1.94278" y="35.1939" width="33.2672" height="33.2672" transform="rotate(-90 1.94278 35.1939)" stroke="white" stroke-width="0.698059"/>
<rect x="1.94278" y="35.1939" width="33.2672" height="33.2672" transform="rotate(-90 1.94278 35.1939)" stroke="white" stroke-width="0.698059"/>
<rect x="1.62837e-06" y="37.2539" width="3.97942" height="3.97942" transform="rotate(-90 1.62837e-06 37.2539)" fill="white"/>
<rect x="33.0059" y="37.2539" width="3.97942" height="3.97942" transform="rotate(-90 33.0059 37.2539)" fill="white"/>
<rect x="1.62837e-06" y="3.98047" width="3.97942" height="3.97942" transform="rotate(-90 1.62837e-06 3.98047)" fill="white"/>
<rect x="33.0059" y="3.98047" width="3.97942" height="3.97942" transform="rotate(-90 33.0059 3.98047)" fill="white"/>
<path d="M57.9484 18.2109C57.9484 19.239 58.7819 20.0724 59.8099 20.0724C60.838 20.0724 61.6714 19.239 61.6714 18.2109C61.6714 17.1829 60.838 16.3494 59.8099 16.3494C58.7819 16.3494 57.9484 17.1829 57.9484 18.2109ZM34.9961 18.2109L34.9961 18.56L59.8099 18.56L59.8099 18.2109L59.8099 17.8619L34.9961 17.8619L34.9961 18.2109Z" fill="white"/>
<circle cx="18.5766" cy="18.2105" r="6.51602" transform="rotate(-90 18.5766 18.2105)" fill="white"/>
</svg>
