<svg width="205" height="37" viewBox="0 0 205 37" fill="none" xmlns="http://www.w3.org/2000/svg">
<g clip-path="url(#clip0_400_1288)">
<path d="M133.274 28.0446C129.599 28.0446 126.527 26.8097 124.061 24.34C121.595 21.8702 120.368 18.7868 120.386 15.0935C120.386 11.3964 121.61 8.32432 124.061 5.87716C126.512 3.38484 129.58 2.13867 133.274 2.13867C136.967 2.13867 140.046 3.49025 142.381 6.18965L140.095 8.40714C138.454 6.32142 135.928 5.13173 133.274 5.18443C130.691 5.12043 128.199 6.12188 126.38 7.95536C124.554 9.78131 123.643 12.1682 123.643 15.1086C123.643 18.0489 124.558 20.417 126.384 22.2128C128.199 24.0538 130.691 25.0628 133.274 24.9988C136.157 24.9988 138.669 23.7865 140.803 21.362L143.122 23.6209C141.948 25.0289 140.468 26.1471 138.793 26.8925C137.057 27.6719 135.175 28.0634 133.274 28.0446ZM148.386 2.6921V27.4836H145.197V2.6921H148.386ZM150.686 19.0052C150.686 16.3961 151.507 14.2351 153.148 12.5296C154.782 10.8317 157.06 9.89802 159.417 9.96579C161.766 9.89802 164.032 10.8279 165.651 12.5296C167.311 14.2389 168.144 16.3961 168.144 19.0052C168.144 21.6142 167.311 23.7715 165.651 25.4845C164.029 27.1824 161.762 28.1123 159.417 28.0446C157.06 28.1123 154.782 27.1824 153.148 25.4845C151.507 23.7752 150.686 21.6142 150.686 19.0052ZM153.875 19.0052C153.875 20.8311 154.406 22.307 155.467 23.4402C157.53 25.6238 160.975 25.7217 163.159 23.6548C163.234 23.5832 163.306 23.5117 163.373 23.4402C164.435 22.307 164.966 20.8311 164.966 19.0052C164.966 17.1792 164.431 15.7147 163.366 14.6078C161.359 12.4242 157.963 12.2812 155.78 14.2878C155.667 14.3895 155.561 14.4987 155.46 14.6078C154.402 15.7373 153.875 17.2018 153.875 19.0052ZM185.315 27.4836H182.265V25.1381H182.126C181.584 26.0191 180.812 26.7382 179.894 27.2163C178.937 27.7585 177.857 28.0408 176.757 28.0446C174.679 28.0446 173.079 27.4497 171.961 26.2638C170.843 25.0779 170.282 23.3837 170.282 21.1888V10.5192H173.467V20.9817C173.539 23.7414 174.935 25.1231 177.657 25.1231C178.903 25.1344 180.082 24.5621 180.846 23.5795C181.704 22.5441 182.156 21.234 182.126 19.8899V10.5192H185.315V27.4836ZM195.665 28.0371C193.466 28.0446 191.373 27.0808 189.95 25.4017C188.387 23.6397 187.548 21.3545 187.596 19.0014C187.548 16.6484 188.387 14.3631 189.95 12.6012C191.373 10.9221 193.466 9.95826 195.665 9.96579C196.85 9.95073 198.021 10.2256 199.079 10.7639C200.047 11.2421 200.864 11.9725 201.451 12.876H201.59L201.451 10.5192V2.6921H204.636V27.4836H201.59V25.1381H201.451C200.864 26.0417 200.047 26.7721 199.079 27.2502C198.021 27.7886 196.85 28.0596 195.665 28.0446V28.0371ZM196.184 25.1306C197.656 25.172 199.072 24.547 200.032 23.4326C201.071 22.2994 201.59 20.8236 201.59 18.9977C201.651 17.3863 201.093 15.8126 200.032 14.6003C199.076 13.4709 197.664 12.8346 196.184 12.8685C194.708 12.8459 193.3 13.4822 192.34 14.6003C191.279 15.8126 190.721 17.3863 190.782 18.9977C190.782 20.801 191.301 22.2693 192.34 23.3988C193.3 24.5207 194.708 25.1569 196.184 25.1381V25.1306Z" fill="white"/>
<path d="M14.2161 28.0383C6.49059 28.0383 0 21.7435 0 14.018C0 6.29257 6.49059 -0.00225373 14.2161 -0.00225373C17.804 -0.0587264 21.2676 1.33427 23.8164 3.86048L21.117 6.56364C19.2685 4.7791 16.7874 3.79271 14.2161 3.82659C8.66291 3.82659 4.16392 8.32935 4.16768 13.8825C4.16768 13.9277 4.16768 13.9729 4.16768 14.018C4.09239 19.5674 8.53114 24.1304 14.0843 24.2057C14.1295 24.2057 14.1709 24.2057 14.2161 24.2057C17.8717 24.2057 19.9537 22.7374 21.2864 21.4047C22.382 20.3091 23.0973 18.7354 23.3722 16.5819H14.1144V12.753H27.1069C27.2537 13.5399 27.3253 14.3418 27.314 15.1437C27.314 18.0163 26.5271 21.5741 23.9971 24.1041C21.5274 26.6679 18.3837 28.0383 14.2161 28.0383Z" fill="white"/>
<path d="M46.7451 19.0098C46.7451 23.9982 42.6979 28.0455 37.7095 28.0455C32.721 28.0455 28.6738 23.9982 28.6738 19.0098C28.6738 14.0214 32.7248 9.96289 37.7208 9.96289C42.7167 9.96289 46.7677 14.0139 46.7677 19.0098H46.7489H46.7451ZM42.7845 19.0098C42.7845 15.7608 40.4314 13.5395 37.7019 13.5395C34.9724 13.5395 32.6156 15.7608 32.6156 19.0098C32.6156 22.2589 34.9724 24.4688 37.7019 24.4688C40.4314 24.4688 42.7845 22.2099 42.7845 19.0098Z" fill="white"/>
<path d="M66.4301 19.0122C66.4301 24.0006 62.3829 28.0478 57.3945 28.0478C52.4061 28.0478 48.3589 24.0006 48.3589 19.0122C48.3589 14.0238 52.4061 9.97656 57.3945 9.97656C62.3829 9.97656 66.4301 14.0238 66.4301 19.0122ZM62.4695 19.0122C62.4695 15.7631 60.1165 13.5419 57.387 13.5419C54.6575 13.5419 52.3007 15.7631 52.3007 19.0122C52.3007 22.2613 54.6537 24.4712 57.387 24.4712C60.1203 24.4712 62.4695 22.2123 62.4695 19.0122Z" fill="white"/>
<path d="M85.2622 10.5428V26.7316C85.2622 33.3992 81.3317 36.1438 76.6859 36.1438C73.1808 36.1626 70.0184 34.0505 68.6894 30.809L72.1417 29.367C72.7554 30.8353 74.2576 32.5785 76.6859 32.5785C79.6564 32.5785 81.5049 30.7337 81.5049 27.2813V25.9787H81.3656C80.1609 27.3265 78.4253 28.0757 76.6181 28.0305C72.1003 28.0305 67.959 24.0963 67.959 19.0363C67.959 13.9764 72.1003 9.97432 76.6181 9.97432C78.4177 9.93291 80.1496 10.6671 81.3656 11.9923H81.5049V10.5428H85.2622ZM81.776 19.0589C81.776 15.8776 79.6564 13.5547 76.957 13.5547C74.2576 13.5547 71.9347 15.8776 71.9347 19.0589C71.9347 22.2402 74.2237 24.4727 76.957 24.4727C79.6903 24.4727 81.776 22.1912 81.776 19.0476V19.0589Z" fill="white"/>
<path d="M92.0756 0.955078V27.4822H88.0962V0.955078H92.0756Z" fill="white"/>
<path d="M107.441 21.9803L110.517 24.0321C108.842 26.547 106.011 28.053 102.987 28.0342C97.8635 28.0342 94.0347 24.066 94.0347 18.9985C94.0347 13.6299 97.8974 9.96289 102.543 9.96289C107.189 9.96289 109.512 13.6901 110.265 15.708L110.687 16.7471L98.6391 21.7393C99.5615 23.554 100.996 24.4764 103.014 24.4764C105.032 24.4764 106.417 23.4862 107.441 21.9803ZM97.9765 18.7312L106.041 15.3805C105.597 14.2511 104.264 13.4642 102.69 13.4642C99.9605 13.5884 97.8447 15.9038 97.9727 18.6371C97.9727 18.6672 97.9727 18.7011 97.9765 18.7312Z" fill="white"/>
</g>
<defs>
<clipPath id="clip0_400_1288">
<rect width="204.638" height="36.1425" fill="white"/>
</clipPath>
</defs>
</svg>
