<svg width="143" height="26" viewBox="0 0 143 26" fill="none" xmlns="http://www.w3.org/2000/svg">
<path d="M92.9975 19.5704C90.4385 19.5704 88.2904 18.7076 86.5707 16.982C84.8628 15.2565 84.0117 13.1084 84.0117 10.5318C84.0117 7.95518 84.8628 5.81291 86.5707 4.10497C88.2786 2.36768 90.4209 1.49316 92.9975 1.49316C95.5741 1.49316 97.7281 2.43811 99.3539 4.32213L97.7574 5.87161C96.519 4.37495 94.9285 3.62369 92.9975 3.62369C91.0665 3.62369 89.476 4.26931 88.1906 5.55467C86.917 6.82829 86.2831 8.48928 86.2831 10.5318C86.2831 12.5743 86.917 14.2353 88.1906 15.5089C89.4818 16.8001 91.0841 17.4398 92.9975 17.4398C95.0106 17.4398 96.7597 16.5947 98.2446 14.9043L99.8645 16.4773C99.0428 17.4575 98.0333 18.2205 96.8418 18.7604C95.6504 19.3004 94.3709 19.5704 92.9975 19.5704ZM103.539 1.88053V19.183H101.314V1.88053H103.539ZM105.147 13.261C105.147 11.4415 105.716 9.93311 106.861 8.74166C108.023 7.5502 109.478 6.95154 111.233 6.95154C112.988 6.95154 114.438 7.5502 115.582 8.74166C116.744 9.93311 117.32 11.4415 117.32 13.261C117.32 15.0804 116.739 16.6064 115.582 17.7803C114.438 18.9717 112.988 19.5704 111.233 19.5704C109.478 19.5704 108.017 18.9776 106.861 17.7803C105.716 16.5888 105.147 15.0804 105.147 13.261ZM107.371 13.261C107.371 14.5346 107.741 15.5676 108.481 16.354C109.22 17.1464 110.142 17.5396 111.233 17.5396C112.325 17.5396 113.246 17.1464 113.986 16.354C114.725 15.5676 115.095 14.5346 115.095 13.261C115.095 11.9873 114.725 10.9837 113.986 10.1914C113.229 9.38727 112.307 8.98229 111.233 8.98229C110.159 8.98229 109.238 9.38727 108.481 10.1914C107.741 10.9837 107.371 12.0049 107.371 13.261ZM129.31 19.183H127.186V17.5396H127.092C126.751 18.1207 126.235 18.602 125.531 18.9893C124.832 19.3767 124.099 19.5704 123.341 19.5704C121.892 19.5704 120.777 19.1537 119.996 18.3261C119.215 17.4985 118.822 16.3188 118.822 14.787V7.34478H121.047V14.6461C121.093 16.5771 122.068 17.5455 123.969 17.5455C124.856 17.5455 125.595 17.1875 126.194 16.4714C126.792 15.7554 127.086 14.8985 127.086 13.8948V7.34478H129.31V19.1889V19.183ZM136.535 19.5704C134.986 19.5704 133.659 18.96 132.55 17.7333C131.453 16.4949 130.907 15.0041 130.907 13.261C130.907 11.5178 131.453 10.0329 132.55 8.78861C133.659 7.56194 134.992 6.95154 136.535 6.95154C137.404 6.95154 138.196 7.13936 138.918 7.50912C139.634 7.87888 140.186 8.3719 140.573 8.98229H140.667L140.573 7.33891V1.87466H142.798V19.1771H140.673V17.5338H140.579C140.192 18.1442 139.64 18.6372 138.924 19.0069C138.208 19.3767 137.416 19.5645 136.541 19.5645L136.535 19.5704ZM136.899 17.5396C137.997 17.5396 138.889 17.1464 139.582 16.354C140.309 15.5676 140.667 14.5346 140.667 13.261C140.667 11.9873 140.303 10.9954 139.582 10.1914C138.871 9.38727 137.979 8.98229 136.899 8.98229C135.819 8.98229 134.939 9.38727 134.217 10.1914C133.489 10.9954 133.131 12.0226 133.131 13.261C133.131 14.4994 133.495 15.5382 134.217 16.3306C134.945 17.1346 135.837 17.5396 136.899 17.5396Z" fill="#5F6368"/>
<path d="M9.91899 19.5621C4.53104 19.5621 0 15.1719 0 9.78399C0 4.39605 4.53104 0 9.91899 0C12.9006 0 15.0193 1.16798 16.6216 2.69397L14.7376 4.57799C13.5931 3.50393 12.0436 2.6705 9.91899 2.6705C5.98661 2.6705 2.91114 5.84575 2.91114 9.77812C2.91114 13.7105 5.98661 16.8858 9.91899 16.8858C12.4721 16.8858 13.9218 15.8586 14.855 14.9313C15.618 14.1683 16.1169 13.0708 16.3106 11.5682H9.84856V8.89774H18.9048C18.9987 9.37315 19.0456 9.94833 19.0456 10.5705C19.0456 12.5719 18.4998 15.0546 16.7332 16.8212C15.0193 18.6113 12.8243 19.5621 9.91312 19.5621H9.91899Z" fill="#4285F4"/>
<path d="M32.6149 13.2635C32.6149 16.8907 29.7801 19.5612 26.3055 19.5612C22.8309 19.5612 19.9961 16.8907 19.9961 13.2635C19.9961 9.63632 22.8309 6.96582 26.3055 6.96582C29.7801 6.96582 32.6149 9.61284 32.6149 13.2635ZM29.8505 13.2635C29.8505 10.998 28.2071 9.4485 26.2996 9.4485C24.3921 9.4485 22.7488 10.998 22.7488 13.2635C22.7488 15.529 24.3921 17.0785 26.2996 17.0785C28.2071 17.0785 29.8505 15.5055 29.8505 13.2635Z" fill="#EA4335"/>
<path d="M46.3542 13.2635C46.3542 16.8907 43.5193 19.5612 40.0448 19.5612C36.5702 19.5612 33.7354 16.8907 33.7354 13.2635C33.7354 9.63632 36.5702 6.96582 40.0448 6.96582C43.5193 6.96582 46.3542 9.61284 46.3542 13.2635ZM43.5898 13.2635C43.5898 10.998 41.9464 9.4485 40.0389 9.4485C38.1314 9.4485 36.488 10.998 36.488 13.2635C36.488 15.529 38.1314 17.0785 40.0389 17.0785C41.9464 17.0785 43.5898 15.5055 43.5898 13.2635Z" fill="#FBBC04"/>
<path d="M59.49 7.34633V18.6563C59.49 23.3106 56.7491 25.2181 53.5034 25.2181C50.4514 25.2181 48.6143 23.1639 47.9217 21.497L50.3281 20.4934C50.7566 21.5205 51.8072 22.7354 53.4975 22.7354C55.5693 22.7354 56.8606 21.4442 56.8606 19.0378V18.134H56.7667C56.1445 18.897 54.9531 19.5661 53.4506 19.5661C50.3047 19.5661 47.417 16.8251 47.417 13.2919C47.417 9.75858 50.3047 6.9707 53.4506 6.9707C54.9531 6.9707 56.1445 7.63979 56.7667 8.37932H56.8606V7.3522H59.4841L59.49 7.34633ZM57.0601 13.286C57.0601 11.0674 55.5811 9.44752 53.6971 9.44752C51.813 9.44752 50.1931 11.0674 50.1931 13.286C50.1931 15.5046 51.7896 17.0775 53.6971 17.0775C55.6046 17.0775 57.0601 15.4811 57.0601 13.286Z" fill="#4285F4"/>
<path d="M64.2488 0.666992V19.1844H61.4844V0.666992H64.2488Z" fill="#34A853"/>
<path d="M74.9659 15.3402L77.114 16.7723C76.4214 17.7994 74.7546 19.5661 71.8669 19.5661C68.2926 19.5661 65.6221 16.7958 65.6221 13.2684C65.6221 9.52381 68.316 6.9707 71.5617 6.9707C74.8074 6.9707 76.4273 9.57077 76.9497 10.9794L77.2373 11.6954L68.8208 15.1817C69.4664 16.4436 70.4642 17.0892 71.8728 17.0892C73.2814 17.0892 74.2557 16.3967 74.9717 15.3461L74.9659 15.3402ZM68.363 13.0747L73.9916 10.7387C73.6805 9.95227 72.7532 9.40056 71.6556 9.40056C70.247 9.40056 68.2926 10.639 68.363 13.0747Z" fill="#EA4335"/>
</svg>
