<svg width="444" height="253" viewBox="0 0 444 253" fill="none" xmlns="http://www.w3.org/2000/svg">
<path d="M36.4039 84.3803C30.5377 84.3803 25.1315 82.9712 20.1855 80.1531C15.2394 77.335 11.2999 73.4817 8.36673 68.5932C5.49112 63.6471 4.05332 58.1547 4.05332 52.116C4.05332 46.0772 5.49112 40.6135 8.36673 35.725C11.2999 30.7789 15.2394 26.8969 20.1855 24.0788C25.1315 21.2607 30.5377 19.8516 36.4039 19.8516C41.0624 19.8516 45.4046 20.6855 49.4304 22.3534C53.4563 24.0213 56.8207 26.3505 59.5238 29.3411L52.7949 36.0701C50.782 33.8271 48.3665 32.1017 45.5484 30.894C42.7878 29.6862 39.7109 29.0823 36.3177 29.0823C32.3493 29.0823 28.6398 30.0313 25.189 31.9292C21.7383 33.8271 18.9777 36.5302 16.9073 40.0384C14.8369 43.5466 13.8016 47.5725 13.8016 52.116C13.8016 56.6594 14.8369 60.6853 16.9073 64.1935C18.9777 67.7018 21.7383 70.4048 25.189 72.3027C28.6398 74.2006 32.3781 75.1496 36.4039 75.1496C40.0847 75.1496 43.1616 74.6032 45.6346 73.5105C48.1077 72.4178 50.3219 70.9512 52.2773 69.1108C53.5426 67.8455 54.6065 66.264 55.4692 64.3661C56.3894 62.4682 56.9933 60.3977 57.2808 58.1547H36.3177V49.5279H66.4253C66.7128 51.1383 66.8566 52.8061 66.8566 54.5315C66.8566 58.4423 66.2527 62.2093 65.045 65.8326C63.8372 69.3984 61.9106 72.504 59.265 75.1496C53.4563 81.3034 45.8359 84.3803 36.4039 84.3803ZM93.5486 84.3803C89.2351 84.3803 85.3531 83.3738 81.9023 81.3609C78.5091 79.348 75.8348 76.5874 73.8794 73.0791C71.9815 69.5134 71.0325 65.5163 71.0325 61.0879C71.0325 56.8895 71.9527 53.0074 73.7931 49.4416C75.691 45.8184 78.3078 42.9428 81.6435 40.8148C84.9792 38.6869 88.775 37.6229 93.0309 37.6229C97.4594 37.6229 101.284 38.6006 104.505 40.556C107.783 42.5114 110.256 45.1857 111.924 48.579C113.649 51.9722 114.512 55.7967 114.512 60.0526C114.512 60.8578 114.425 61.8643 114.253 63.072H80.522C80.8671 67.1554 82.3049 70.3186 84.8355 72.5615C87.4235 74.747 90.4141 75.8397 93.8074 75.8397C96.5104 75.8397 98.8397 75.2359 100.795 74.0281C102.808 72.7628 104.418 71.0662 105.626 68.9383L113.649 72.7341C111.579 76.3573 108.876 79.2042 105.54 81.2746C102.204 83.3451 98.207 84.3803 93.5486 84.3803ZM104.85 55.8255C104.735 54.2727 104.246 52.7486 103.383 51.2533C102.52 49.7004 101.198 48.4064 99.4148 47.3712C97.6894 46.336 95.5615 45.8184 93.0309 45.8184C89.9828 45.8184 87.3948 46.7386 85.2668 48.579C83.1964 50.3618 81.7586 52.7773 80.9534 55.8255H104.85ZM120.565 39.0032H129.624V44.7832H130.055C131.32 42.7127 133.189 41.0161 135.662 39.6933C138.193 38.313 140.867 37.6229 143.685 37.6229C149.034 37.6229 153.088 39.2045 155.849 42.3676C158.667 45.4733 160.076 49.7292 160.076 55.1353V83H150.587V56.4294C150.587 52.9786 149.724 50.4481 147.999 48.8378C146.331 47.2274 144.002 46.4223 141.011 46.4223C138.883 46.4223 136.985 47.0261 135.317 48.2339C133.649 49.3841 132.355 50.937 131.435 52.8924C130.515 54.8478 130.055 56.947 130.055 59.19V83H120.565V39.0032ZM202.187 21.2319H213.229L236.435 83H225.738L220.217 67.2129H195.285L189.678 83H178.98L202.187 21.2319ZM216.938 58.241L210.382 39.8659L207.967 32.7056H207.449L205.033 39.8659L198.477 58.241H216.938ZM242.24 21.2319H251.902V83H242.24V21.2319ZM293.808 39.4345H335.303V46.5948H293.808V39.4345ZM278.97 59.0174H355.663V66.5228H278.97V59.0174ZM312.96 52.9786H321.328V81.1021C321.328 83.3451 320.983 85.0704 320.293 86.2782C319.66 87.486 318.423 88.4061 316.583 89.0388C314.8 89.6139 312.586 89.959 309.94 90.074C307.295 90.2465 304.045 90.3328 300.192 90.3328C299.962 89.1826 299.502 87.831 298.812 86.2782C298.179 84.7829 297.518 83.4889 296.828 82.3961C298.841 82.4536 300.796 82.5111 302.694 82.5687C304.649 82.6262 306.346 82.6549 307.784 82.6549C309.221 82.5974 310.228 82.5687 310.803 82.5687C311.666 82.5111 312.241 82.3674 312.528 82.1373C312.816 81.9073 312.96 81.4759 312.96 80.8433V52.9786ZM332.715 39.4345H334.699L336.511 39.0032L341.687 42.9715C339.732 45.042 337.489 47.0836 334.958 49.0966C332.428 51.1095 329.753 52.9786 326.935 54.704C324.175 56.4294 321.414 57.9534 318.653 59.2762C318.136 58.5286 317.417 57.6946 316.497 56.7744C315.634 55.7967 314.858 55.0203 314.168 54.4452C316.526 53.3525 318.884 52.0297 321.242 50.4769C323.657 48.924 325.871 47.3424 327.884 45.7321C329.897 44.0643 331.507 42.4827 332.715 40.9873V39.4345ZM280.35 24.2513H354.369V44.3518H346.346V31.4978H288.114V44.3518H280.35V24.2513ZM341.169 10.7072L349.883 13.4678C347.985 16.2284 345.972 18.9602 343.844 21.6633C341.716 24.3663 339.76 26.6668 337.978 28.5647L331.421 25.9767C332.571 24.5964 333.75 23.0148 334.958 21.2319C336.166 19.449 337.316 17.6374 338.409 15.797C339.559 13.9566 340.479 12.26 341.169 10.7072ZM286.217 14.2442L293.118 11.1385C294.728 12.8639 296.31 14.8193 297.863 17.0048C299.416 19.1902 300.537 21.1169 301.227 22.7847L293.981 26.3217C293.291 24.6539 292.198 22.6985 290.703 20.4555C289.207 18.2125 287.712 16.1421 286.217 14.2442ZM308.215 12.4326L315.375 9.75823C316.756 11.7136 318.107 13.9279 319.43 16.4009C320.81 18.8164 321.759 20.9156 322.277 22.6985L314.685 25.7179C314.225 23.8775 313.362 21.7208 312.097 19.2477C310.889 16.7172 309.595 14.4455 308.215 12.4326ZM410.098 10.4484H418.035V23.6474H410.098V10.4484ZM389.997 19.9379H439.688V36.2426H432.183V26.9256H397.33V36.2426H389.997V19.9379ZM396.64 35.4662H432.873V42.5402H396.64V35.4662ZM391.119 50.8219H439.688V58.1547H391.119V50.8219ZM401.902 54.1864H409.667C409.436 58.7874 409.005 62.9858 408.372 66.7816C407.74 70.5199 406.676 73.8843 405.181 76.875C403.743 79.8656 401.644 82.4536 398.883 84.6391C396.18 86.8821 392.643 88.7512 388.272 90.2465C388.042 89.6139 387.668 88.895 387.15 88.0898C386.633 87.2847 386.087 86.5082 385.511 85.7606C384.936 85.0129 384.361 84.409 383.786 83.949C387.697 82.6837 390.803 81.1596 393.103 79.3767C395.403 77.5939 397.158 75.4947 398.365 73.0791C399.631 70.6636 400.493 67.8743 400.953 64.7111C401.414 61.548 401.73 58.0397 401.902 54.1864ZM417.862 53.41H425.54V79.3767C425.54 80.527 425.626 81.2459 425.799 81.5334C426.029 81.821 426.518 81.9648 427.265 81.9648C427.495 81.9648 427.927 81.9648 428.559 81.9648C429.192 81.9648 429.825 81.9648 430.457 81.9648C431.147 81.9648 431.607 81.9648 431.837 81.9648C432.413 81.9648 432.844 81.7347 433.131 81.2746C433.419 80.8145 433.62 79.8368 433.735 78.3415C433.85 76.7887 433.937 74.4882 433.994 71.4401C434.512 71.9001 435.173 72.3315 435.978 72.7341C436.783 73.1367 437.617 73.5105 438.48 73.8556C439.4 74.1431 440.205 74.3732 440.896 74.5457C440.666 78.399 440.263 81.3897 439.688 83.5176C439.113 85.7031 438.279 87.1984 437.186 88.0036C436.093 88.8662 434.598 89.2976 432.7 89.2976C432.355 89.2976 431.866 89.2976 431.234 89.2976C430.658 89.2976 430.026 89.2976 429.336 89.2976C428.646 89.2976 427.984 89.2976 427.351 89.2976C426.776 89.2976 426.316 89.2976 425.971 89.2976C423.786 89.2976 422.089 88.9813 420.881 88.3486C419.731 87.7735 418.926 86.767 418.466 85.3292C418.063 83.8914 417.862 81.9073 417.862 79.3767V53.41ZM364.289 13.8991H384.562V21.2319H371.45V90.3328H364.289V13.8991ZM382.147 13.8991H383.441L384.649 13.554L389.997 16.6597C389.192 19.0752 388.329 21.6633 387.409 24.4238C386.489 27.1269 385.54 29.8012 384.562 32.4468C383.642 35.0924 382.722 37.5654 381.802 39.8659C384.735 43.3166 386.662 46.5373 387.582 49.5279C388.502 52.5185 388.962 55.3366 388.962 57.9822C388.962 60.4552 388.675 62.5832 388.099 64.3661C387.582 66.1489 386.662 67.5005 385.339 68.4207C384.706 68.8808 383.987 69.2546 383.182 69.5421C382.434 69.7722 381.601 69.9735 380.68 70.146C379.013 70.3186 377.115 70.3473 374.987 70.2323C374.929 69.2546 374.728 68.1043 374.383 66.7816C374.095 65.4013 373.664 64.2223 373.089 63.2446C373.951 63.3021 374.757 63.3308 375.504 63.3308C376.252 63.3308 376.942 63.3308 377.575 63.3308C378.667 63.2733 379.53 63.0145 380.163 62.5544C380.738 62.0943 381.14 61.3754 381.371 60.3977C381.601 59.42 381.716 58.2985 381.716 57.0332C381.716 54.8478 381.255 52.3748 380.335 49.6142C379.415 46.8536 377.546 43.8917 374.728 40.7285C375.476 38.7731 376.194 36.6739 376.885 34.431C377.575 32.188 378.236 29.945 378.869 27.702C379.559 25.4015 380.163 23.2736 380.68 21.3182C381.255 19.3053 381.744 17.6086 382.147 16.2284V13.8991Z" fill="#202124"/>
<path d="M65.7764 221.808H92.7337V224.197H65.7764V221.808ZM64.6788 241.34H93.6377V243.729H64.6788V241.34ZM77.8184 215.448H80.3366V223.131H77.8184V215.448ZM85.5021 225.682L88.2785 226.198C87.9341 227.511 87.5575 228.899 87.1485 230.363C86.7396 231.805 86.3199 233.247 85.8895 234.689C85.459 236.11 85.0178 237.466 84.5658 238.757C84.1354 240.048 83.7157 241.21 83.3067 242.244L80.9823 241.662C81.3912 240.629 81.8109 239.456 82.2414 238.143C82.6718 236.809 83.0807 235.421 83.4682 233.979C83.8771 232.515 84.2537 231.073 84.5981 229.653C84.964 228.232 85.2653 226.909 85.5021 225.682ZM70.1025 226.457L72.3947 225.876C72.9758 227.296 73.4816 228.803 73.912 230.395C74.364 231.988 74.7299 233.538 75.0097 235.044C75.311 236.551 75.5047 237.907 75.5908 239.112L73.1049 239.725C73.0619 238.542 72.9005 237.186 72.6207 235.658C72.3409 234.129 71.9858 232.569 71.5553 230.976C71.1248 229.362 70.6406 227.856 70.1025 226.457ZM110.781 233.043H123.113V235.335H110.781V233.043ZM103.549 234.431C104.13 236.088 104.883 237.444 105.809 238.499C106.734 239.532 107.8 240.339 109.005 240.92C110.232 241.48 111.588 241.867 113.073 242.082C114.558 242.276 116.14 242.373 117.818 242.373C118.034 242.373 118.389 242.373 118.884 242.373C119.4 242.373 119.982 242.373 120.627 242.373C121.294 242.373 121.962 242.373 122.629 242.373C123.318 242.373 123.942 242.373 124.501 242.373C125.061 242.373 125.481 242.362 125.76 242.34C125.631 242.534 125.502 242.771 125.373 243.051C125.265 243.352 125.158 243.643 125.05 243.922C124.964 244.224 124.899 244.493 124.856 244.729H123.307H117.722C115.763 244.729 113.955 244.59 112.298 244.31C110.641 244.051 109.134 243.578 107.778 242.889C106.444 242.222 105.249 241.275 104.195 240.048C103.161 238.8 102.279 237.196 101.547 235.238L103.549 234.431ZM109.715 227.328H112.201V243.406L109.715 242.599V227.328ZM102.484 219.354V225.714H119.691V219.354H102.484ZM100.094 217.03H122.209V228.006H100.094V217.03ZM101.935 230.428L104.485 230.75C104.248 232.494 103.861 234.28 103.323 236.11C102.806 237.917 102.096 239.607 101.192 241.178C100.31 242.749 99.169 244.073 97.77 245.149C97.6409 244.998 97.4687 244.816 97.2535 244.6C97.0598 244.385 96.8553 244.181 96.6401 243.987C96.4249 243.793 96.2312 243.632 96.059 243.503C97.3503 242.534 98.3942 241.329 99.1905 239.887C99.9869 238.423 100.6 236.874 101.031 235.238C101.483 233.581 101.784 231.977 101.935 230.428ZM127.73 240.92H157.108V243.244H127.73V240.92ZM136.995 218.482H139.578V242.373H136.995V218.482ZM144.808 218.482H147.391V242.502H144.808V218.482ZM153.299 224.39L155.623 225.23C155.15 226.435 154.622 227.683 154.041 228.975C153.46 230.266 152.868 231.504 152.266 232.687C151.685 233.871 151.114 234.937 150.555 235.884L148.392 235.076C148.951 234.129 149.532 233.043 150.135 231.816C150.759 230.589 151.34 229.33 151.878 228.039C152.438 226.747 152.911 225.531 153.299 224.39ZM128.957 225.133L131.087 224.39C131.647 225.531 132.217 226.769 132.798 228.103C133.401 229.416 133.95 230.686 134.445 231.913C134.94 233.118 135.327 234.183 135.607 235.109L133.315 236.077C133.057 235.152 132.68 234.065 132.185 232.817C131.711 231.568 131.195 230.277 130.635 228.942C130.076 227.587 129.516 226.317 128.957 225.133ZM128.634 217.385H156.366V219.774H128.634V217.385ZM159.885 224.035H188.392V226.489H159.885V224.035ZM170.313 237.885L172.346 236.465C173.121 237.067 173.918 237.745 174.735 238.499C175.575 239.23 176.36 239.973 177.092 240.726C177.824 241.458 178.416 242.114 178.868 242.696L176.705 244.407C176.274 243.804 175.704 243.126 174.994 242.373C174.283 241.598 173.519 240.823 172.702 240.048C171.884 239.252 171.087 238.531 170.313 237.885ZM175.93 225.165C176.64 227.877 177.598 230.406 178.803 232.752C180.009 235.076 181.472 237.121 183.194 238.886C184.937 240.629 186.95 241.996 189.231 242.986C189.037 243.158 188.822 243.374 188.585 243.632C188.349 243.89 188.123 244.159 187.907 244.439C187.714 244.719 187.552 244.977 187.423 245.214C185.056 244.073 182.979 242.556 181.192 240.662C179.427 238.746 177.921 236.529 176.672 234.011C175.424 231.493 174.402 228.727 173.605 225.714L175.93 225.165ZM172.508 215.48H175.123C175.123 216.944 175.08 218.547 174.994 220.29C174.929 222.012 174.768 223.799 174.509 225.65C174.251 227.5 173.831 229.362 173.25 231.235C172.669 233.086 171.862 234.872 170.829 236.594C169.796 238.294 168.472 239.876 166.858 241.34C165.244 242.803 163.264 244.073 160.918 245.149C160.724 244.826 160.455 244.471 160.111 244.084C159.766 243.718 159.422 243.406 159.078 243.148C161.359 242.179 163.275 241.006 164.824 239.629C166.395 238.251 167.665 236.766 168.634 235.173C169.602 233.559 170.356 231.88 170.894 230.137C171.432 228.394 171.808 226.661 172.024 224.939C172.26 223.196 172.4 221.517 172.443 219.903C172.486 218.289 172.508 216.814 172.508 215.48ZM194.622 246.021L193.912 244.31C195.225 243.772 196.226 243.083 196.915 242.244C197.625 241.404 197.98 240.371 197.98 239.144L197.399 236.432L199.142 238.886C198.906 239.166 198.636 239.36 198.335 239.467C198.034 239.553 197.733 239.596 197.431 239.596C196.764 239.596 196.194 239.403 195.72 239.015C195.247 238.628 195.01 238.057 195.01 237.304C195.01 236.529 195.247 235.948 195.72 235.561C196.215 235.173 196.796 234.98 197.463 234.98C198.367 234.98 199.045 235.324 199.497 236.013C199.971 236.68 200.208 237.573 200.208 238.692C200.208 240.436 199.702 241.942 198.69 243.212C197.679 244.482 196.323 245.418 194.622 246.021ZM222.742 222.357H234.397V224.681H222.742V222.357ZM227.778 215.448H230.103V245.117H227.778V215.448ZM227.681 223.809L229.231 224.358C228.93 225.628 228.564 226.941 228.133 228.297C227.703 229.653 227.219 230.987 226.681 232.3C226.164 233.591 225.605 234.807 225.002 235.948C224.421 237.067 223.818 238.025 223.194 238.821C223.043 238.499 222.839 238.122 222.581 237.691C222.344 237.261 222.129 236.895 221.935 236.594C222.516 235.884 223.086 235.044 223.646 234.076C224.206 233.086 224.744 232.009 225.26 230.847C225.777 229.685 226.239 228.501 226.648 227.296C227.079 226.091 227.423 224.928 227.681 223.809ZM229.974 227.07C230.189 227.285 230.512 227.651 230.942 228.168C231.394 228.684 231.868 229.244 232.363 229.846C232.879 230.449 233.353 231.019 233.783 231.558C234.235 232.074 234.547 232.451 234.719 232.687L233.202 234.657C232.987 234.269 232.685 233.785 232.298 233.204C231.911 232.601 231.491 231.977 231.039 231.332C230.587 230.686 230.157 230.083 229.748 229.524C229.339 228.964 229.005 228.523 228.747 228.2L229.974 227.07ZM238.045 215.448L240.498 215.997C240.046 217.654 239.508 219.268 238.884 220.839C238.26 222.41 237.571 223.885 236.818 225.262C236.065 226.618 235.257 227.813 234.397 228.846C234.246 228.717 234.052 228.555 233.815 228.361C233.579 228.168 233.331 227.974 233.073 227.78C232.815 227.587 232.578 227.436 232.363 227.328C233.224 226.381 234.009 225.273 234.719 224.003C235.43 222.733 236.065 221.377 236.624 219.935C237.205 218.472 237.679 216.976 238.045 215.448ZM237.625 220.742H250.087V223.002H236.56L237.625 220.742ZM249.15 220.742H251.507C251.507 220.742 251.507 220.828 251.507 221.001C251.507 221.151 251.507 221.334 251.507 221.549C251.507 221.743 251.507 221.894 251.507 222.001C251.378 225.811 251.249 229.018 251.12 231.622C251.012 234.205 250.872 236.325 250.7 237.982C250.549 239.618 250.366 240.888 250.151 241.792C249.936 242.696 249.678 243.352 249.376 243.761C249.054 244.213 248.698 244.525 248.311 244.697C247.924 244.869 247.472 244.988 246.955 245.052C246.482 245.117 245.868 245.138 245.115 245.117C244.362 245.117 243.587 245.095 242.79 245.052C242.769 244.708 242.683 244.31 242.532 243.858C242.403 243.406 242.231 242.997 242.016 242.631C242.898 242.717 243.694 242.76 244.405 242.76C245.115 242.782 245.642 242.792 245.987 242.792C246.288 242.814 246.525 242.792 246.697 242.728C246.869 242.663 247.041 242.523 247.213 242.308C247.45 242.007 247.665 241.426 247.859 240.565C248.053 239.682 248.225 238.434 248.376 236.82C248.526 235.184 248.666 233.096 248.795 230.557C248.924 228.017 249.043 224.928 249.15 221.291V220.742ZM241.886 231.622L243.759 230.976C244.211 231.773 244.663 232.644 245.115 233.591C245.567 234.517 245.965 235.41 246.309 236.271C246.654 237.132 246.901 237.896 247.052 238.563L245.018 239.338C244.889 238.649 244.663 237.864 244.34 236.981C244.017 236.099 243.641 235.195 243.21 234.269C242.78 233.322 242.338 232.44 241.886 231.622ZM239.013 225.488L241.37 226.005C241.047 227.21 240.681 228.491 240.272 229.846C239.863 231.202 239.444 232.505 239.013 233.753C238.604 235.001 238.206 236.099 237.819 237.046L235.882 236.529C236.248 235.561 236.635 234.431 237.044 233.139C237.453 231.848 237.829 230.524 238.174 229.168C238.518 227.813 238.798 226.586 239.013 225.488ZM233.46 236.271C234.924 236.142 236.689 235.959 238.755 235.722C240.843 235.485 242.973 235.238 245.147 234.98L245.212 236.884C243.21 237.186 241.23 237.487 239.271 237.788C237.334 238.068 235.58 238.326 234.009 238.563L233.46 236.271ZM262.968 222.26H283.856V224.229H262.968V222.26ZM264.84 230.976H281.725V232.849H264.84V230.976ZM263.42 235.399H283.146V237.401H263.42V235.399ZM271.878 215.706H274.235V240.823H271.878V215.706ZM265.292 218.03H281.402V228.587H265.066V226.618H279.046V219.968H265.292V218.03ZM254.154 217.482H261.16V219.677H254.154V217.482ZM260.288 217.482H260.611L260.999 217.385L262.645 217.869C262.172 219.01 261.601 220.29 260.934 221.711C260.267 223.131 259.578 224.573 258.868 226.037C258.158 227.479 257.469 228.846 256.802 230.137L254.574 229.524C255.091 228.555 255.618 227.544 256.156 226.489C256.694 225.413 257.221 224.337 257.738 223.26C258.255 222.184 258.728 221.173 259.158 220.226C259.61 219.279 259.987 218.472 260.288 217.804V217.482ZM257.125 226.683H262.387V228.878H256.802L257.125 226.683ZM261.418 226.683H261.903L262.322 226.65L263.743 226.973C263.269 231.687 262.344 235.528 260.966 238.499C259.589 241.447 257.846 243.686 255.736 245.214C255.629 245.042 255.457 244.848 255.22 244.633C255.005 244.417 254.779 244.202 254.542 243.987C254.327 243.793 254.122 243.643 253.928 243.535C255.995 242.157 257.652 240.134 258.9 237.466C260.17 234.775 261.009 231.353 261.418 227.199V226.683ZM257.221 231.461C257.867 233.678 258.717 235.485 259.772 236.884C260.848 238.262 262.096 239.316 263.517 240.048C264.959 240.78 266.552 241.286 268.295 241.566C270.06 241.845 271.965 241.985 274.009 241.985C274.289 241.985 274.752 241.985 275.397 241.985C276.043 241.985 276.786 241.985 277.625 241.985C278.464 241.985 279.315 241.985 280.175 241.985C281.036 241.964 281.811 241.953 282.5 241.953C283.189 241.931 283.705 241.921 284.05 241.921C283.92 242.093 283.791 242.319 283.662 242.599C283.533 242.9 283.415 243.191 283.307 243.47C283.199 243.772 283.124 244.041 283.081 244.277H281.37H273.977C271.631 244.277 269.479 244.116 267.52 243.793C265.583 243.47 263.84 242.878 262.29 242.018C260.74 241.157 259.374 239.941 258.19 238.369C257.028 236.777 256.059 234.711 255.284 232.171L257.221 231.461ZM300.482 217.804C299.837 218.773 299.029 219.795 298.061 220.871C297.114 221.926 296.059 222.981 294.897 224.035C293.735 225.09 292.497 226.101 291.184 227.07C289.893 228.039 288.569 228.921 287.213 229.717C287.041 229.438 286.804 229.115 286.503 228.749C286.223 228.361 285.944 228.049 285.664 227.813C287.536 226.779 289.333 225.563 291.055 224.164C292.799 222.765 294.37 221.302 295.769 219.774C297.168 218.246 298.287 216.782 299.126 215.383H301.58C302.419 216.588 303.388 217.772 304.485 218.934C305.583 220.097 306.756 221.205 308.004 222.26C309.253 223.314 310.523 224.283 311.814 225.165C313.127 226.048 314.407 226.801 315.656 227.425C315.354 227.726 315.064 228.071 314.784 228.458C314.504 228.824 314.257 229.19 314.042 229.556C312.815 228.824 311.545 227.995 310.232 227.07C308.941 226.145 307.692 225.165 306.487 224.132C305.282 223.078 304.163 222.012 303.13 220.936C302.096 219.86 301.214 218.816 300.482 217.804ZM289.57 234.56H311.588V236.723H289.57V234.56ZM291.023 227.361H310.361V229.524H291.023V227.361ZM286.923 242.05H314.461V244.245H286.923V242.05ZM299.255 228.265H301.774V243.277H299.255V228.265ZM317.593 218.192H328.085V220.452H317.593V218.192ZM327.472 221.194H347.262V223.422H327.472V221.194ZM317.98 227.231H327.601V229.524H317.98V227.231ZM317.141 238.692C318.066 238.434 319.121 238.122 320.305 237.756C321.51 237.369 322.78 236.96 324.114 236.529C325.449 236.077 326.794 235.636 328.15 235.206L328.473 237.336C326.622 237.982 324.749 238.628 322.855 239.273C320.983 239.919 319.304 240.5 317.819 241.017L317.141 238.692ZM335.866 215.415H338.19V242.082C338.19 242.814 338.082 243.374 337.867 243.761C337.674 244.148 337.361 244.45 336.931 244.665C336.458 244.859 335.833 244.977 335.059 245.02C334.284 245.085 333.251 245.117 331.959 245.117C331.938 244.902 331.873 244.654 331.766 244.374C331.679 244.116 331.572 243.836 331.443 243.535C331.335 243.255 331.217 243.008 331.088 242.792C332.035 242.814 332.874 242.825 333.606 242.825C334.359 242.825 334.865 242.825 335.123 242.825C335.381 242.803 335.564 242.739 335.672 242.631C335.801 242.545 335.866 242.362 335.866 242.082V215.415ZM325.632 239.629C326.708 239.026 328.01 238.251 329.538 237.304C331.066 236.336 332.605 235.356 334.155 234.366L334.897 236.368C333.563 237.336 332.196 238.294 330.797 239.241C329.398 240.188 328.107 241.038 326.923 241.792L325.632 239.629ZM328.247 226.36L330.151 225.52C330.625 226.101 331.098 226.747 331.572 227.457C332.067 228.168 332.508 228.867 332.895 229.556C333.304 230.223 333.606 230.836 333.799 231.396L331.83 232.365C331.636 231.827 331.346 231.213 330.958 230.524C330.571 229.814 330.141 229.104 329.667 228.394C329.194 227.662 328.72 226.984 328.247 226.36ZM344.711 225.165L346.842 226.327C346.369 226.995 345.863 227.694 345.325 228.426C344.808 229.136 344.281 229.825 343.743 230.492C343.205 231.159 342.699 231.751 342.226 232.268L340.515 231.267C340.967 230.729 341.451 230.115 341.967 229.427C342.505 228.717 343.011 227.985 343.485 227.231C343.958 226.478 344.367 225.789 344.711 225.165ZM340.353 217.062L341.677 215.738C342.258 216.061 342.85 216.427 343.452 216.836C344.077 217.245 344.647 217.654 345.163 218.063C345.702 218.472 346.143 218.87 346.487 219.257L345.067 220.742C344.572 220.183 343.872 219.559 342.968 218.87C342.064 218.16 341.193 217.557 340.353 217.062ZM321.596 219.128H323.953V237.821L321.596 238.273V219.128ZM338.093 223.842C338.416 225.972 338.814 227.888 339.288 229.588C339.783 231.288 340.396 232.817 341.128 234.173C341.881 235.528 342.785 236.766 343.84 237.885C344.916 239.004 346.207 240.059 347.714 241.049C347.434 241.264 347.144 241.555 346.842 241.921C346.562 242.265 346.336 242.599 346.164 242.922C344.593 241.802 343.237 240.619 342.096 239.37C340.977 238.122 340.03 236.755 339.255 235.27C338.502 233.785 337.867 232.139 337.351 230.331C336.834 228.523 336.414 226.489 336.092 224.229L338.093 223.842ZM354.009 234.689C354.935 234.689 355.763 234.915 356.495 235.367C357.227 235.797 357.819 236.389 358.271 237.143C358.723 237.874 358.949 238.692 358.949 239.596C358.949 240.5 358.723 241.329 358.271 242.082C357.819 242.814 357.227 243.406 356.495 243.858C355.763 244.31 354.935 244.536 354.009 244.536C353.105 244.536 352.277 244.31 351.523 243.858C350.792 243.406 350.2 242.814 349.748 242.082C349.317 241.329 349.102 240.5 349.102 239.596C349.102 238.692 349.317 237.874 349.748 237.143C350.2 236.389 350.802 235.797 351.556 235.367C352.309 234.915 353.127 234.689 354.009 234.689ZM354.009 242.889C354.935 242.889 355.71 242.577 356.334 241.953C356.979 241.307 357.302 240.522 357.302 239.596C357.302 239.015 357.152 238.477 356.85 237.982C356.571 237.487 356.183 237.089 355.688 236.788C355.193 236.486 354.633 236.336 354.009 236.336C353.428 236.336 352.89 236.486 352.395 236.788C351.9 237.089 351.502 237.487 351.201 237.982C350.899 238.477 350.749 239.015 350.749 239.596C350.749 240.199 350.899 240.758 351.201 241.275C351.502 241.77 351.9 242.168 352.395 242.47C352.89 242.749 353.428 242.889 354.009 242.889Z" fill="#2B2B2B"/>
<rect x="87.176" y="109.848" width="269.648" height="68.3956" rx="34.1978" fill="#D9D9D9"/>
<rect x="87.176" y="109.848" width="269.648" height="68.3956" rx="34.1978" fill="url(#paint0_linear_1048_1317)"/>
<path d="M171.856 152.707H203.852V155.872H171.856V152.707ZM181.664 128.954H185.211V154.829H181.664V128.954ZM190.149 128.954H193.697V155.002H190.149V128.954ZM199.122 135.144L202.321 136.223C201.858 137.59 201.324 138.982 200.722 140.396C200.142 141.81 199.551 143.178 198.948 144.5C198.368 145.798 197.8 146.969 197.244 148.012L194.288 146.934C194.844 145.914 195.424 144.731 196.027 143.387C196.629 142.019 197.198 140.616 197.731 139.179C198.287 137.741 198.751 136.396 199.122 135.144ZM173.178 136.223L176.064 135.144C176.644 136.42 177.235 137.776 177.838 139.213C178.464 140.651 179.032 142.054 179.542 143.421C180.052 144.766 180.458 145.949 180.759 146.969L177.595 148.29C177.34 147.247 176.969 146.041 176.482 144.673C175.995 143.282 175.462 141.845 174.882 140.361C174.302 138.877 173.734 137.498 173.178 136.223ZM172.934 127.528H203.017V130.797H172.934V127.528ZM206.286 134.518H237.203V137.892H206.286V134.518ZM217.38 150.168L220.197 148.186C220.962 148.835 221.774 149.554 222.631 150.342C223.512 151.13 224.336 151.919 225.101 152.707C225.866 153.472 226.48 154.168 226.944 154.794L223.953 157.124C223.512 156.475 222.921 155.744 222.179 154.933C221.461 154.121 220.672 153.298 219.814 152.464C218.98 151.629 218.168 150.864 217.38 150.168ZM224.023 136.083C224.741 138.889 225.738 141.52 227.013 143.978C228.289 146.412 229.842 148.557 231.674 150.412C233.528 152.267 235.673 153.727 238.107 154.794C237.852 155.002 237.563 155.281 237.238 155.628C236.913 155.999 236.612 156.37 236.334 156.741C236.056 157.135 235.824 157.495 235.638 157.819C233.065 156.567 230.827 154.921 228.926 152.881C227.048 150.818 225.448 148.441 224.127 145.752C222.805 143.039 221.716 140.071 220.858 136.849L224.023 136.083ZM219.467 125.511H223.049C223.026 127.204 222.979 129 222.91 130.902C222.84 132.803 222.666 134.762 222.388 136.779C222.11 138.773 221.658 140.767 221.032 142.761C220.406 144.755 219.536 146.679 218.423 148.534C217.31 150.389 215.885 152.104 214.146 153.681C212.407 155.257 210.285 156.625 207.781 157.785C207.526 157.344 207.167 156.857 206.703 156.324C206.24 155.814 205.764 155.385 205.277 155.037C207.712 153.971 209.752 152.719 211.398 151.281C213.044 149.844 214.378 148.279 215.398 146.586C216.441 144.894 217.241 143.132 217.797 141.3C218.354 139.468 218.748 137.637 218.98 135.805C219.212 133.95 219.339 132.154 219.362 130.415C219.409 128.653 219.444 127.018 219.467 125.511ZM256.296 127.041H270.763V130.032H256.296V127.041ZM242.663 134.936H253.34V137.857H242.663V134.936ZM256.366 136.014H268.399V139.04H256.366V136.014ZM247.567 125.442H250.558V136.64H247.567V125.442ZM254.731 127.041H257.791V137.127C257.791 138.611 257.745 140.245 257.652 142.03C257.583 143.792 257.421 145.601 257.165 147.456C256.934 149.31 256.586 151.119 256.122 152.881C255.658 154.643 255.032 156.254 254.244 157.715C254.059 157.553 253.792 157.356 253.444 157.124C253.12 156.915 252.784 156.718 252.436 156.533C252.088 156.347 251.787 156.22 251.532 156.15C252.273 154.736 252.853 153.229 253.27 151.629C253.711 150.006 254.036 148.348 254.244 146.656C254.453 144.94 254.58 143.271 254.627 141.648C254.696 140.002 254.731 138.495 254.731 137.127V127.041ZM242.802 142.413H251.392V157.715H248.367V145.334H242.802V142.413ZM241.377 126.311H244.333V139.944C244.333 141.451 244.298 143.016 244.228 144.639C244.159 146.238 244.008 147.827 243.776 149.403C243.544 150.957 243.208 152.452 242.768 153.89C242.327 155.327 241.736 156.649 240.994 157.854C240.832 157.622 240.611 157.379 240.333 157.124C240.078 156.892 239.8 156.66 239.499 156.428C239.22 156.196 238.954 156.011 238.699 155.872C239.301 154.782 239.777 153.588 240.125 152.29C240.472 150.968 240.739 149.612 240.924 148.221C241.11 146.806 241.226 145.392 241.272 143.978C241.342 142.564 241.377 141.219 241.377 139.944V126.311ZM267.425 136.014H268.016L268.573 135.91L270.59 136.536C270.08 140.083 269.256 143.224 268.12 145.96C266.984 148.696 265.593 151.038 263.947 152.985C262.301 154.933 260.435 156.521 258.348 157.75C258.209 157.472 258.012 157.17 257.757 156.846C257.525 156.521 257.281 156.196 257.026 155.872C256.771 155.547 256.516 155.292 256.261 155.107C258.139 154.133 259.832 152.765 261.339 151.003C262.869 149.241 264.156 147.143 265.199 144.708C266.266 142.274 267.008 139.584 267.425 136.64V136.014ZM260.33 137.961C260.91 140.558 261.71 142.981 262.73 145.23C263.75 147.479 265.025 149.45 266.555 151.142C268.109 152.835 269.917 154.168 271.981 155.142C271.726 155.35 271.459 155.605 271.181 155.907C270.903 156.231 270.624 156.556 270.346 156.88C270.091 157.228 269.882 157.553 269.72 157.854C267.564 156.695 265.698 155.176 264.121 153.298C262.568 151.42 261.258 149.241 260.191 146.76C259.148 144.256 258.29 141.532 257.618 138.587L260.33 137.961Z" fill="white"/>
<defs>
<linearGradient id="paint0_linear_1048_1317" x1="97.8807" y1="114.156" x2="115.957" y2="211.798" gradientUnits="userSpaceOnUse">
<stop stop-color="#EA4335"/>
<stop offset="1" stop-color="#FBBC04"/>
</linearGradient>
</defs>
</svg>
