<svg width="293" height="149" viewBox="0 0 293 149" fill="none" xmlns="http://www.w3.org/2000/svg">
<path d="M1.66795 126.787H7.02623C7.7768 126.787 8.47873 126.96 9.13201 127.308C9.79919 127.655 10.3274 128.135 10.7166 128.747C11.1057 129.358 11.3003 130.046 11.3003 130.811C11.3003 131.533 11.1127 132.166 10.7374 132.708C10.376 133.25 9.88259 133.667 9.25711 133.959V134.042C10.0077 134.292 10.6193 134.723 11.0918 135.335C11.5644 135.947 11.8007 136.662 11.8007 137.482C11.8007 138.289 11.5922 139.018 11.1752 139.672C10.7722 140.311 10.2231 140.811 9.52815 141.173C8.84707 141.534 8.11039 141.715 7.31812 141.715H1.66795V126.787ZM7.02623 133.25C7.52661 133.25 7.96445 133.132 8.33973 132.896C8.72892 132.659 9.02776 132.36 9.23626 131.999C9.44475 131.624 9.549 131.242 9.549 130.852C9.549 130.477 9.44475 130.109 9.23626 129.747C9.04166 129.372 8.75672 129.066 8.38143 128.83C8.02005 128.594 7.59611 128.476 7.10962 128.476H3.41929V133.25H7.02623ZM7.42236 140.026C7.92275 140.026 8.36753 139.901 8.75672 139.651C9.15981 139.401 9.4656 139.081 9.67409 138.692C9.89649 138.289 10.0077 137.879 10.0077 137.462C10.0077 137.045 9.89649 136.642 9.67409 136.252C9.4517 135.849 9.13896 135.53 8.73587 135.293C8.33279 135.043 7.86715 134.918 7.33897 134.918H3.41929V140.026H7.42236ZM17.3976 142.048C16.1189 142.048 15.139 141.673 14.4579 140.923C13.7907 140.172 13.4571 139.123 13.4571 137.774V131.082H15.2293V137.503C15.2293 138.518 15.4586 139.262 15.9173 139.734C16.376 140.207 16.9945 140.443 17.7729 140.443C18.3706 140.443 18.8988 140.283 19.3575 139.963C19.8301 139.644 20.1914 139.227 20.4416 138.713C20.7057 138.198 20.8378 137.656 20.8378 137.086V131.082H22.61V141.715H20.9212V140.172H20.8378C20.5459 140.7 20.0802 141.145 19.4409 141.506C18.8015 141.868 18.1204 142.048 17.3976 142.048ZM25.853 129.122C25.5055 129.122 25.2067 128.997 24.9565 128.747C24.7063 128.496 24.5812 128.198 24.5812 127.85C24.5812 127.503 24.7063 127.211 24.9565 126.974C25.2067 126.724 25.5055 126.599 25.853 126.599C26.2005 126.599 26.4993 126.724 26.7495 126.974C26.9997 127.211 27.1248 127.503 27.1248 127.85C27.1248 128.198 26.9997 128.496 26.7495 128.747C26.5132 128.997 26.2144 129.122 25.853 129.122ZM24.9773 131.082H26.7287V141.715H24.9773V131.082ZM29.0969 126.787H30.8691V141.715H29.0969V126.787ZM37.4795 142.048C36.5343 142.048 35.6725 141.805 34.8941 141.319C34.1297 140.832 33.525 140.165 33.0802 139.317C32.6355 138.455 32.4131 137.482 32.4131 136.398C32.4131 135.328 32.6355 134.362 33.0802 133.5C33.525 132.638 34.1297 131.964 34.8941 131.478C35.6725 130.991 36.5343 130.748 37.4795 130.748C38.2995 130.748 39.0293 130.936 39.6686 131.311C40.308 131.672 40.7945 132.124 41.1281 132.666H41.2115L41.1281 131.186V126.787H42.9003V141.715H41.2115V140.151H41.1281C40.7945 140.679 40.308 141.131 39.6686 141.506C39.0293 141.868 38.2995 142.048 37.4795 142.048ZM37.6879 140.443C38.3134 140.443 38.8903 140.276 39.4184 139.943C39.9605 139.609 40.3914 139.136 40.7111 138.525C41.0447 137.913 41.2115 137.204 41.2115 136.398C41.2115 135.592 41.0447 134.883 40.7111 134.272C40.3914 133.66 39.9605 133.187 39.4184 132.854C38.8903 132.52 38.3134 132.353 37.6879 132.353C37.0764 132.353 36.4995 132.52 35.9575 132.854C35.4154 133.187 34.9775 133.667 34.6439 134.292C34.3243 134.904 34.1644 135.606 34.1644 136.398C34.1644 137.191 34.3243 137.899 34.6439 138.525C34.9775 139.136 35.4154 139.609 35.9575 139.943C36.4995 140.276 37.0764 140.443 37.6879 140.443ZM50.5725 129.122C50.225 129.122 49.9262 128.997 49.676 128.747C49.4258 128.496 49.3007 128.198 49.3007 127.85C49.3007 127.503 49.4258 127.211 49.676 126.974C49.9262 126.724 50.225 126.599 50.5725 126.599C50.92 126.599 51.2188 126.724 51.469 126.974C51.7192 127.211 51.8443 127.503 51.8443 127.85C51.8443 128.198 51.7192 128.496 51.469 128.747C51.2327 128.997 50.9339 129.122 50.5725 129.122ZM49.6968 131.082H51.4482V141.715H49.6968V131.082ZM53.8164 131.082H55.5052V132.645H55.5886C55.8805 132.117 56.3461 131.672 56.9855 131.311C57.6249 130.936 58.3059 130.748 59.0287 130.748C60.3075 130.748 61.2804 131.123 61.9476 131.874C62.6287 132.611 62.9692 133.618 62.9692 134.897V141.715H61.197V135.168C61.197 134.181 60.9607 133.465 60.4882 133.021C60.0156 132.576 59.3692 132.353 58.5492 132.353C57.9793 132.353 57.465 132.513 57.0063 132.833C56.5615 133.153 56.214 133.577 55.9639 134.105C55.7137 134.619 55.5886 135.161 55.5886 135.731V141.715H53.8164V131.082ZM73.5335 126.787H75.535L81.206 141.715H79.2671L77.7659 137.608H71.3235L69.8223 141.715H67.8833L73.5335 126.787ZM77.1613 135.94L75.1806 130.56L74.576 128.955H74.4926L73.9088 130.56L71.9281 135.94H77.1613ZM82.7686 126.787H87.7933C88.6273 126.787 89.3987 126.974 90.1076 127.35C90.8165 127.725 91.3794 128.253 91.7964 128.934C92.2273 129.601 92.4427 130.359 92.4427 131.207C92.4427 132.055 92.2273 132.819 91.7964 133.5C91.3794 134.167 90.8165 134.689 90.1076 135.064C89.3987 135.439 88.6273 135.627 87.7933 135.627H84.52V141.715H82.7686V126.787ZM87.835 133.938C88.391 133.938 88.8775 133.806 89.2945 133.542C89.7253 133.278 90.0589 132.937 90.2952 132.52C90.5315 132.103 90.6497 131.665 90.6497 131.207C90.6497 130.748 90.5315 130.31 90.2952 129.893C90.0589 129.476 89.7253 129.136 89.2945 128.872C88.8775 128.608 88.391 128.476 87.835 128.476H84.52V133.938H87.835ZM97.1934 126.787H99.195L104.866 141.715H102.927L101.426 137.608H94.9834L93.4822 141.715H91.5432L97.1934 126.787ZM100.821 135.94L98.8405 130.56L98.2359 128.955H98.1525L97.5687 130.56L95.588 135.94H100.821ZM113.027 142.048C111.581 142.048 110.268 141.708 109.086 141.027C107.905 140.346 106.973 139.414 106.292 138.233C105.625 137.038 105.292 135.71 105.292 134.251C105.292 132.791 105.625 131.471 106.292 130.289C106.973 129.094 107.905 128.156 109.086 127.475C110.268 126.794 111.581 126.453 113.027 126.453C114.139 126.453 115.153 126.669 116.071 127.099C117.002 127.516 117.808 128.114 118.489 128.893L117.217 130.123C116.648 129.442 116.022 128.941 115.341 128.621C114.674 128.302 113.902 128.142 113.027 128.142C111.943 128.142 110.949 128.399 110.045 128.913C109.142 129.414 108.419 130.13 107.877 131.061C107.349 131.978 107.085 133.042 107.085 134.251C107.085 135.46 107.349 136.53 107.877 137.462C108.419 138.379 109.142 139.095 110.045 139.609C110.949 140.109 111.943 140.36 113.027 140.36C114.834 140.36 116.37 139.616 117.634 138.129L118.927 139.38C118.232 140.2 117.377 140.853 116.363 141.34C115.348 141.812 114.236 142.048 113.027 142.048ZM121.871 141.84C121.496 141.84 121.176 141.715 120.912 141.465C120.662 141.201 120.537 140.881 120.537 140.506C120.537 140.144 120.662 139.838 120.912 139.588C121.176 139.324 121.496 139.192 121.871 139.192C122.233 139.192 122.538 139.324 122.789 139.588C123.053 139.838 123.185 140.144 123.185 140.506C123.185 140.881 123.053 141.201 122.789 141.465C122.538 141.715 122.233 141.84 121.871 141.84ZM130.038 126.787H135.396C136.147 126.787 136.849 126.96 137.502 127.308C138.169 127.655 138.697 128.135 139.087 128.747C139.476 129.358 139.67 130.046 139.67 130.811C139.67 131.533 139.483 132.166 139.107 132.708C138.746 133.25 138.253 133.667 137.627 133.959V134.042C138.378 134.292 138.989 134.723 139.462 135.335C139.934 135.947 140.171 136.662 140.171 137.482C140.171 138.289 139.962 139.018 139.545 139.672C139.142 140.311 138.593 140.811 137.898 141.173C137.217 141.534 136.48 141.715 135.688 141.715H130.038V126.787ZM135.396 133.25C135.897 133.25 136.334 133.132 136.71 132.896C137.099 132.659 137.398 132.36 137.606 131.999C137.815 131.624 137.919 131.242 137.919 130.852C137.919 130.477 137.815 130.109 137.606 129.747C137.412 129.372 137.127 129.066 136.751 128.83C136.39 128.594 135.966 128.476 135.48 128.476H131.789V133.25H135.396ZM135.792 140.026C136.293 140.026 136.738 139.901 137.127 139.651C137.53 139.401 137.836 139.081 138.044 138.692C138.266 138.289 138.378 137.879 138.378 137.462C138.378 137.045 138.266 136.642 138.044 136.252C137.822 135.849 137.509 135.53 137.106 135.293C136.703 135.043 136.237 134.918 135.709 134.918H131.789V140.026H135.792ZM145.768 142.048C144.489 142.048 143.509 141.673 142.828 140.923C142.161 140.172 141.827 139.123 141.827 137.774V131.082H143.599V137.503C143.599 138.518 143.829 139.262 144.287 139.734C144.746 140.207 145.365 140.443 146.143 140.443C146.741 140.443 147.269 140.283 147.727 139.963C148.2 139.644 148.561 139.227 148.812 138.713C149.076 138.198 149.208 137.656 149.208 137.086V131.082H150.98V141.715H149.291V140.172H149.208C148.916 140.7 148.45 141.145 147.811 141.506C147.172 141.868 146.49 142.048 145.768 142.048ZM154.223 129.122C153.876 129.122 153.577 128.997 153.327 128.747C153.076 128.496 152.951 128.198 152.951 127.85C152.951 127.503 153.076 127.211 153.327 126.974C153.577 126.724 153.876 126.599 154.223 126.599C154.571 126.599 154.869 126.724 155.12 126.974C155.37 127.211 155.495 127.503 155.495 127.85C155.495 128.198 155.37 128.496 155.12 128.747C154.883 128.997 154.584 129.122 154.223 129.122ZM153.347 131.082H155.099V141.715H153.347V131.082ZM157.467 126.787H159.239V141.715H157.467V126.787ZM165.849 142.048C164.904 142.048 164.043 141.805 163.264 141.319C162.5 140.832 161.895 140.165 161.45 139.317C161.005 138.455 160.783 137.482 160.783 136.398C160.783 135.328 161.005 134.362 161.45 133.5C161.895 132.638 162.5 131.964 163.264 131.478C164.043 130.991 164.904 130.748 165.849 130.748C166.67 130.748 167.399 130.936 168.039 131.311C168.678 131.672 169.165 132.124 169.498 132.666H169.581L169.498 131.186V126.787H171.27V141.715H169.581V140.151H169.498C169.165 140.679 168.678 141.131 168.039 141.506C167.399 141.868 166.67 142.048 165.849 142.048ZM166.058 140.443C166.683 140.443 167.26 140.276 167.788 139.943C168.331 139.609 168.761 139.136 169.081 138.525C169.415 137.913 169.581 137.204 169.581 136.398C169.581 135.592 169.415 134.883 169.081 134.272C168.761 133.66 168.331 133.187 167.788 132.854C167.26 132.52 166.683 132.353 166.058 132.353C165.446 132.353 164.87 132.52 164.327 132.854C163.785 133.187 163.348 133.667 163.014 134.292C162.694 134.904 162.534 135.606 162.534 136.398C162.534 137.191 162.694 137.899 163.014 138.525C163.348 139.136 163.785 139.609 164.327 139.943C164.87 140.276 165.446 140.443 166.058 140.443ZM178.723 132.687H176.763V131.082H178.723V129.935C178.723 129.268 178.876 128.684 179.182 128.184C179.487 127.683 179.897 127.301 180.412 127.037C180.926 126.759 181.496 126.62 182.121 126.62C182.719 126.62 183.24 126.703 183.685 126.87V128.601C183.435 128.503 183.199 128.427 182.976 128.371C182.754 128.302 182.49 128.267 182.184 128.267C181.725 128.267 181.329 128.434 180.996 128.767C180.662 129.087 180.495 129.539 180.495 130.123V131.082H183.226V132.687H180.495V141.715H178.723V132.687ZM189.224 142.048C188.181 142.048 187.243 141.798 186.409 141.298C185.575 140.797 184.922 140.116 184.449 139.255C183.991 138.393 183.761 137.441 183.761 136.398C183.761 135.356 183.991 134.404 184.449 133.542C184.922 132.68 185.575 131.999 186.409 131.499C187.243 130.998 188.181 130.748 189.224 130.748C190.266 130.748 191.205 130.998 192.039 131.499C192.872 131.999 193.519 132.68 193.978 133.542C194.45 134.404 194.686 135.356 194.686 136.398C194.686 137.441 194.45 138.393 193.978 139.255C193.519 140.116 192.872 140.797 192.039 141.298C191.205 141.798 190.266 142.048 189.224 142.048ZM189.224 140.443C189.877 140.443 190.482 140.283 191.038 139.963C191.608 139.63 192.059 139.157 192.393 138.546C192.74 137.934 192.914 137.218 192.914 136.398C192.914 135.578 192.74 134.862 192.393 134.251C192.059 133.639 191.608 133.174 191.038 132.854C190.482 132.52 189.877 132.353 189.224 132.353C188.571 132.353 187.959 132.52 187.389 132.854C186.819 133.174 186.361 133.639 186.013 134.251C185.679 134.862 185.513 135.578 185.513 136.398C185.513 137.218 185.679 137.934 186.013 138.546C186.361 139.157 186.819 139.63 187.389 139.963C187.959 140.283 188.571 140.443 189.224 140.443ZM196.124 131.082H197.812V132.791H197.896C198.104 132.208 198.507 131.728 199.105 131.353C199.703 130.964 200.328 130.769 200.982 130.769C201.468 130.769 201.885 130.838 202.233 130.977V132.896C201.788 132.673 201.287 132.562 200.731 132.562C200.217 132.562 199.745 132.708 199.314 133C198.883 133.292 198.535 133.688 198.271 134.188C198.021 134.675 197.896 135.203 197.896 135.773V141.715H196.124V131.082ZM212.041 141.882C211.61 141.882 211.207 141.812 210.831 141.673C210.47 141.534 210.164 141.347 209.914 141.11C209.636 140.846 209.427 140.54 209.288 140.193C209.149 139.845 209.08 139.421 209.08 138.921V132.687H207.224V131.082H209.08V128.079H210.852V131.082H213.437V132.687H210.852V138.483C210.852 139.067 210.963 139.498 211.186 139.776C211.45 140.082 211.832 140.235 212.332 140.235C212.736 140.235 213.125 140.116 213.5 139.88V141.611C213.291 141.708 213.076 141.777 212.854 141.819C212.645 141.861 212.374 141.882 212.041 141.882ZM215.274 126.787H217.046V131.186L216.963 132.645H217.046C217.338 132.103 217.797 131.652 218.422 131.29C219.062 130.929 219.757 130.748 220.507 130.748C221.8 130.748 222.787 131.13 223.468 131.895C224.149 132.645 224.49 133.646 224.49 134.897V141.715H222.717V135.168C222.717 134.209 222.474 133.5 221.988 133.042C221.501 132.583 220.869 132.353 220.09 132.353C219.534 132.353 219.02 132.52 218.547 132.854C218.089 133.187 217.72 133.618 217.442 134.147C217.178 134.675 217.046 135.224 217.046 135.794V141.715H215.274V126.787ZM231.358 142.048C230.344 142.048 229.433 141.805 228.627 141.319C227.821 140.832 227.189 140.165 226.73 139.317C226.285 138.455 226.063 137.489 226.063 136.419C226.063 135.391 226.271 134.445 226.688 133.584C227.119 132.722 227.724 132.034 228.502 131.52C229.28 131.005 230.184 130.748 231.212 130.748C232.255 130.748 233.158 130.984 233.923 131.457C234.687 131.916 235.271 132.555 235.674 133.375C236.091 134.195 236.3 135.133 236.3 136.19C236.3 136.398 236.279 136.579 236.237 136.732H227.835C227.877 137.538 228.071 138.219 228.419 138.775C228.766 139.331 229.204 139.748 229.732 140.026C230.274 140.304 230.837 140.443 231.421 140.443C232.783 140.443 233.833 139.804 234.569 138.525L236.07 139.255C235.612 140.116 234.986 140.797 234.194 141.298C233.416 141.798 232.47 142.048 231.358 142.048ZM234.423 135.272C234.395 134.828 234.27 134.383 234.048 133.938C233.826 133.493 233.471 133.118 232.985 132.812C232.512 132.506 231.914 132.353 231.192 132.353C230.358 132.353 229.649 132.625 229.065 133.167C228.495 133.695 228.12 134.397 227.939 135.272H234.423ZM241.218 131.082H243.032L245.576 139.484H245.596L248.265 131.082H250.1L252.789 139.463H252.81L255.333 131.082H257.126L253.686 141.715H251.893L249.141 133.229L246.41 141.715H244.637L241.218 131.082ZM262.872 142.048C261.829 142.048 260.891 141.798 260.057 141.298C259.223 140.797 258.57 140.116 258.097 139.255C257.639 138.393 257.409 137.441 257.409 136.398C257.409 135.356 257.639 134.404 258.097 133.542C258.57 132.68 259.223 131.999 260.057 131.499C260.891 130.998 261.829 130.748 262.872 130.748C263.914 130.748 264.852 130.998 265.686 131.499C266.52 131.999 267.167 132.68 267.625 133.542C268.098 134.404 268.334 135.356 268.334 136.398C268.334 137.441 268.098 138.393 267.625 139.255C267.167 140.116 266.52 140.797 265.686 141.298C264.852 141.798 263.914 142.048 262.872 142.048ZM262.872 140.443C263.525 140.443 264.13 140.283 264.686 139.963C265.255 139.63 265.707 139.157 266.041 138.546C266.388 137.934 266.562 137.218 266.562 136.398C266.562 135.578 266.388 134.862 266.041 134.251C265.707 133.639 265.255 133.174 264.686 132.854C264.13 132.52 263.525 132.353 262.872 132.353C262.218 132.353 261.607 132.52 261.037 132.854C260.467 133.174 260.008 133.639 259.661 134.251C259.327 134.862 259.161 135.578 259.161 136.398C259.161 137.218 259.327 137.934 259.661 138.546C260.008 139.157 260.467 139.63 261.037 139.963C261.607 140.283 262.218 140.443 262.872 140.443ZM269.772 131.082H271.46V132.791H271.544C271.752 132.208 272.155 131.728 272.753 131.353C273.351 130.964 273.976 130.769 274.629 130.769C275.116 130.769 275.533 130.838 275.88 130.977V132.896C275.436 132.673 274.935 132.562 274.379 132.562C273.865 132.562 273.392 132.708 272.961 133C272.531 133.292 272.183 133.688 271.919 134.188C271.669 134.675 271.544 135.203 271.544 135.773V141.715H269.772V131.082ZM277.275 126.787H279.047V141.715H277.275V126.787ZM285.657 142.048C284.712 142.048 283.85 141.805 283.072 141.319C282.308 140.832 281.703 140.165 281.258 139.317C280.813 138.455 280.591 137.482 280.591 136.398C280.591 135.328 280.813 134.362 281.258 133.5C281.703 132.638 282.308 131.964 283.072 131.478C283.85 130.991 284.712 130.748 285.657 130.748C286.477 130.748 287.207 130.936 287.847 131.311C288.486 131.672 288.972 132.124 289.306 132.666H289.389L289.306 131.186V126.787H291.078V141.715H289.389V140.151H289.306C288.972 140.679 288.486 141.131 287.847 141.506C287.207 141.868 286.477 142.048 285.657 142.048ZM285.866 140.443C286.491 140.443 287.068 140.276 287.596 139.943C288.138 139.609 288.569 139.136 288.889 138.525C289.223 137.913 289.389 137.204 289.389 136.398C289.389 135.592 289.223 134.883 288.889 134.272C288.569 133.66 288.138 133.187 287.596 132.854C287.068 132.52 286.491 132.353 285.866 132.353C285.254 132.353 284.678 132.52 284.135 132.854C283.593 133.187 283.155 133.667 282.822 134.292C282.502 134.904 282.342 135.606 282.342 136.398C282.342 137.191 282.502 137.899 282.822 138.525C283.155 139.136 283.593 139.609 284.135 139.943C284.678 140.276 285.254 140.443 285.866 140.443Z" fill="#868686"/>
<path d="M32.9926 52.8526C29.369 52.8526 26.0295 51.9822 22.9743 50.2415C19.9191 48.5007 17.4855 46.1204 15.6737 43.1007C13.8974 40.0455 13.0092 36.6527 13.0092 32.9225C13.0092 29.1923 13.8974 25.8173 15.6737 22.7976C17.4855 19.7423 19.9191 17.3443 22.9743 15.6036C26.0295 13.8628 29.369 12.9924 32.9926 12.9924C35.8702 12.9924 38.5525 13.5075 41.0393 14.5378C43.5261 15.568 45.6044 17.0068 47.2741 18.8542L43.1176 23.0107C41.8742 21.6252 40.3821 20.5594 38.6413 19.8134C36.936 19.0674 35.0354 18.6943 32.9393 18.6943C30.4881 18.6943 28.1966 19.2805 26.0651 20.4529C23.9335 21.6252 22.2282 23.295 20.9493 25.462C19.6704 27.6291 19.0309 30.116 19.0309 32.9225C19.0309 35.7291 19.6704 38.2159 20.9493 40.383C22.2282 42.5501 23.9335 44.2198 26.0651 45.3922C28.1966 46.5645 30.5058 47.1507 32.9926 47.1507C35.2663 47.1507 37.1669 46.8132 38.6946 46.1382C40.2222 45.4632 41.5899 44.5573 42.7978 43.4205C43.5794 42.6389 44.2366 41.6619 44.7695 40.4896C45.3379 39.3172 45.711 38.0383 45.8886 36.6527H32.9393V31.3238H51.5372C51.7149 32.3186 51.8037 33.3488 51.8037 34.4146C51.8037 36.8304 51.4307 39.1573 50.6846 41.3955C49.9386 43.5981 48.7484 45.5165 47.1142 47.1507C43.5261 50.952 38.8189 52.8526 32.9926 52.8526ZM68.2917 52.8526C65.6272 52.8526 63.2292 52.2309 61.0976 50.9875C59.0016 49.7441 57.3496 48.0388 56.1417 45.8718C54.9694 43.6691 54.3832 41.2001 54.3832 38.4646C54.3832 35.8712 54.9516 33.4732 56.0885 31.2705C57.2608 29.0324 58.8773 27.2561 60.9378 25.9416C62.9983 24.6272 65.343 23.9699 67.9719 23.9699C70.7074 23.9699 73.0699 24.5739 75.0594 25.7818C77.0844 26.9897 78.612 28.6416 79.6422 30.7377C80.708 32.8337 81.2409 35.1962 81.2409 37.8251C81.2409 38.3225 81.1876 38.9442 81.081 39.6902H60.245C60.4582 42.2126 61.3463 44.1665 62.9095 45.552C64.5081 46.902 66.3555 47.577 68.4515 47.577C70.1212 47.577 71.56 47.204 72.7679 46.4579C74.0113 45.6764 75.0061 44.6283 75.7521 43.3139L80.708 45.6586C79.4291 47.8967 77.7593 49.6553 75.6988 50.9342C73.6383 52.2132 71.1693 52.8526 68.2917 52.8526ZM75.2725 35.2139C75.2015 34.2547 74.8995 33.3133 74.3666 32.3896C73.8337 31.4304 73.0166 30.6311 71.9153 29.9916C70.8495 29.3521 69.5351 29.0324 67.9719 29.0324C66.089 29.0324 64.4904 29.6008 63.1759 30.7377C61.897 31.839 61.0088 33.3311 60.5114 35.2139H75.2725ZM84.9803 24.8226H90.5756V28.3929H90.8421C91.6237 27.114 92.7783 26.066 94.3059 25.2489C95.869 24.3963 97.521 23.9699 99.2618 23.9699C102.566 23.9699 105.07 24.9469 106.776 26.9008C108.516 28.8193 109.387 31.4482 109.387 34.7876V52H103.525V35.587C103.525 33.4554 102.992 31.8923 101.926 30.8975C100.896 29.9028 99.4572 29.4054 97.6098 29.4054C96.2953 29.4054 95.123 29.7785 94.0927 30.5245C93.0625 31.235 92.2631 32.1942 91.6947 33.4021C91.1263 34.61 90.8421 35.9067 90.8421 37.2922V52H84.9803V24.8226ZM135.399 13.845H142.22L156.555 52H149.947L146.536 42.2481H131.136L127.672 52H121.064L135.399 13.845ZM144.511 36.706L140.461 25.3555L138.969 20.9325H138.649L137.157 25.3555L133.107 36.706H144.511ZM160.14 13.845H166.109V52H160.14V13.845Z" fill="#202124"/>
<path d="M73.2797 59.223H80.1007L94.4355 97.3779H87.8276L84.4171 87.626H69.0166L65.5528 97.3779H58.945L73.2797 59.223ZM82.3922 82.084L78.3422 70.7334L76.8501 66.3104H76.5304L75.0383 70.7334L70.9883 82.084H82.3922ZM108.858 98.2306C106.158 98.2306 103.724 97.6088 101.557 96.3654C99.4255 95.122 97.7558 93.4168 96.5479 91.2497C95.3755 89.0471 94.7894 86.5602 94.7894 83.7892C94.7894 81.0182 95.3755 78.5491 96.5479 76.382C97.7558 74.1794 99.4255 72.4564 101.557 71.213C103.724 69.9696 106.158 69.3479 108.858 69.3479C111.842 69.3479 114.382 70.0229 116.478 71.3729C118.574 72.7229 120.066 74.5524 120.954 76.8616L115.572 79.0998C114.364 76.2222 112.073 74.7834 108.698 74.7834C107.241 74.7834 105.891 75.1564 104.648 75.9024C103.44 76.6485 102.463 77.7143 101.717 79.0998C101.006 80.4498 100.651 82.0129 100.651 83.7892C100.651 85.5655 101.006 87.1464 101.717 88.5319C102.463 89.9175 103.44 90.9832 104.648 91.7293C105.891 92.4753 107.241 92.8484 108.698 92.8484C110.403 92.8484 111.86 92.4753 113.068 91.7293C114.311 90.9477 115.252 89.8464 115.892 88.4254L121.167 90.7168C120.137 93.026 118.574 94.8556 116.478 96.2056C114.382 97.5556 111.842 98.2306 108.858 98.2306ZM132.82 98.2306C130.866 98.2306 129.125 97.8575 127.598 97.1115C126.07 96.3299 124.88 95.2464 124.027 93.8609C123.175 92.4398 122.748 90.8411 122.748 89.0648C122.748 86.2583 123.796 84.0379 125.892 82.4037C128.024 80.7695 130.706 79.9524 133.939 79.9524C135.538 79.9524 136.976 80.1123 138.255 80.432C139.534 80.7162 140.547 81.0359 141.293 81.3912V80.0057C141.293 78.336 140.671 76.986 139.428 75.9557C138.184 74.8899 136.586 74.357 134.632 74.357C133.246 74.357 131.932 74.659 130.688 75.263C129.48 75.8669 128.503 76.7018 127.757 77.7675L123.654 74.6235C124.862 72.9538 126.425 71.6571 128.344 70.7334C130.262 69.8097 132.394 69.3479 134.738 69.3479C138.682 69.3479 141.719 70.3248 143.851 72.2788C145.982 74.1972 147.048 76.9149 147.048 80.432V97.3779H141.293V94.1273H141.026C140.245 95.2997 139.143 96.2766 137.722 97.0582C136.301 97.8398 134.667 98.2306 132.82 98.2306ZM133.832 93.3812C135.253 93.3812 136.532 93.0438 137.669 92.3688C138.806 91.6938 139.694 90.7878 140.334 89.651C140.973 88.5142 141.293 87.2885 141.293 85.9741C140.476 85.5122 139.517 85.1392 138.415 84.855C137.349 84.5708 136.23 84.4287 135.058 84.4287C132.855 84.4287 131.239 84.8728 130.209 85.7609C129.178 86.6135 128.663 87.7326 128.663 89.1181C128.663 90.3615 129.143 91.3918 130.102 92.2089C131.061 92.9905 132.305 93.3812 133.832 93.3812ZM163.194 98.2306C160.743 98.2306 158.523 97.6088 156.533 96.3654C154.544 95.122 152.963 93.4168 151.79 91.2497C150.654 89.0471 150.085 86.5602 150.085 83.7892C150.085 81.0182 150.654 78.5491 151.79 76.382C152.963 74.1794 154.544 72.4564 156.533 71.213C158.523 69.9696 160.743 69.3479 163.194 69.3479C165.113 69.3479 166.836 69.7742 168.363 70.6268C169.891 71.4794 171.045 72.5275 171.827 73.7709H172.093L171.827 69.9341V59.223H177.689V97.3779H172.093V93.8609H171.827C171.045 95.0687 169.891 96.099 168.363 96.9516C166.836 97.8042 165.113 98.2306 163.194 98.2306ZM164.047 92.8484C165.468 92.8484 166.782 92.4753 167.99 91.7293C169.234 90.9832 170.228 89.9175 170.974 88.5319C171.72 87.1464 172.093 85.5655 172.093 83.7892C172.093 82.0129 171.72 80.4498 170.974 79.0998C170.228 77.7143 169.234 76.6485 167.99 75.9024C166.782 75.1564 165.468 74.7834 164.047 74.7834C162.626 74.7834 161.294 75.1564 160.05 75.9024C158.807 76.6485 157.812 77.7143 157.066 79.0998C156.32 80.4498 155.947 82.0129 155.947 83.7892C155.947 85.5655 156.32 87.1464 157.066 88.5319C157.812 89.9175 158.807 90.9832 160.05 91.7293C161.294 92.4753 162.626 92.8484 164.047 92.8484ZM195.076 98.2306C192.412 98.2306 190.014 97.6088 187.882 96.3654C185.786 95.122 184.134 93.4168 182.926 91.2497C181.754 89.0471 181.168 86.578 181.168 83.8425C181.168 81.2491 181.736 78.8511 182.873 76.6485C184.045 74.4103 185.662 72.634 187.722 71.3196C189.783 70.0051 192.127 69.3479 194.756 69.3479C197.492 69.3479 199.854 69.9518 201.844 71.1597C203.869 72.3676 205.396 74.0196 206.427 76.1156C207.492 78.2116 208.025 80.5741 208.025 83.203C208.025 83.7004 207.972 84.3221 207.865 85.0682H187.029C187.243 87.5905 188.131 89.5444 189.694 90.93C191.293 92.2799 193.14 92.9549 195.236 92.9549C196.906 92.9549 198.344 92.5819 199.552 91.8359C200.796 91.0543 201.79 90.0063 202.537 88.6918L207.492 91.0365C206.213 93.2747 204.544 95.0332 202.483 96.3121C200.423 97.5911 197.954 98.2306 195.076 98.2306ZM202.057 80.5919C201.986 79.6327 201.684 78.6912 201.151 77.7675C200.618 76.8083 199.801 76.009 198.7 75.3695C197.634 74.7301 196.319 74.4103 194.756 74.4103C192.873 74.4103 191.275 74.9788 189.96 76.1156C188.681 77.2169 187.793 78.709 187.296 80.5919H202.057ZM211.765 70.2005H217.36V73.7709H217.627C218.444 72.4564 219.598 71.3906 221.09 70.5735C222.582 69.7564 224.181 69.3479 225.886 69.3479C227.84 69.3479 229.545 69.8097 231.002 70.7334C232.459 71.6215 233.507 72.8117 234.146 74.3038C235.07 72.8117 236.295 71.6215 237.823 70.7334C239.386 69.8097 241.216 69.3479 243.312 69.3479C246.438 69.3479 248.801 70.3071 250.399 72.2255C252.033 74.1084 252.851 76.684 252.851 79.9524V97.3779H246.989V80.9649C246.989 76.8439 245.23 74.7834 241.713 74.7834C239.83 74.7834 238.285 75.5472 237.077 77.0748C235.869 78.6024 235.265 80.4853 235.265 82.7234V97.3779H229.403V80.9649C229.403 76.8439 227.592 74.7834 223.968 74.7834C222.121 74.7834 220.593 75.5472 219.385 77.0748C218.213 78.6024 217.627 80.4853 217.627 82.7234V97.3779H211.765V70.2005ZM265.471 95.8858L254.174 70.2005H260.729L268.402 88.6918H268.615L276.076 70.2005H282.524L265.738 108.888H259.556L265.471 95.8858Z" fill="#202124"/>
<rect x="180.218" y="19.0254" width="91.3501" height="32.4228" rx="16.2114" fill="#D9D9D9"/>
<rect x="180.218" y="19.0254" width="91.3501" height="32.4228" rx="16.2114" fill="url(#paint0_linear_315_837)"/>
<path d="M196.364 31.304H197.786L200.775 39.2598H199.397L198.686 37.2264H195.475L194.752 39.2598H193.375L196.364 31.304ZM198.264 36.0708L197.419 33.7041L197.108 32.7819H197.041L196.73 33.7041L195.886 36.0708H198.264ZM201.523 31.304H204.278C204.745 31.304 205.174 31.4078 205.567 31.6152C205.967 31.8226 206.282 32.1115 206.511 32.4818C206.749 32.8522 206.867 33.2708 206.867 33.7374C206.867 34.2041 206.749 34.6226 206.511 34.993C206.282 35.3634 205.967 35.6523 205.567 35.8597C205.174 36.0671 204.745 36.1708 204.278 36.1708H202.767V39.2598H201.523V31.304ZM204.3 34.993C204.574 34.993 204.811 34.9338 205.011 34.8152C205.211 34.6893 205.363 34.53 205.467 34.3374C205.571 34.1448 205.623 33.9448 205.623 33.7374C205.623 33.53 205.571 33.33 205.467 33.1374C205.363 32.9448 205.211 32.7893 205.011 32.6707C204.811 32.5522 204.574 32.493 204.3 32.493H202.767V34.993H204.3ZM209.261 31.304H210.683L213.672 39.2598H212.294L211.583 37.2264H208.372L207.649 39.2598H206.272L209.261 31.304ZM211.161 36.0708L210.316 33.7041L210.005 32.7819H209.938L209.627 33.7041L208.783 36.0708H211.161ZM217.958 39.4375C217.188 39.4375 216.484 39.2561 215.847 38.8931C215.21 38.5301 214.71 38.0301 214.347 37.3931C213.984 36.756 213.802 36.0523 213.802 35.2819C213.802 34.5115 213.984 33.8078 214.347 33.1708C214.71 32.5337 215.21 32.0337 215.847 31.6707C216.484 31.3078 217.188 31.1263 217.958 31.1263C218.558 31.1263 219.103 31.2374 219.591 31.4596C220.088 31.6818 220.525 32.0041 220.903 32.4263L220.014 33.2819C219.74 32.9559 219.436 32.7152 219.103 32.5596C218.769 32.3967 218.388 32.3152 217.958 32.3152C217.425 32.3152 216.936 32.4374 216.491 32.6819C216.054 32.9263 215.706 33.2745 215.447 33.7263C215.188 34.1708 215.058 34.6893 215.058 35.2819C215.058 35.8745 215.188 36.3967 215.447 36.8486C215.706 37.2931 216.054 37.6375 216.491 37.882C216.936 38.1264 217.425 38.2486 217.958 38.2486C218.847 38.2486 219.603 37.8783 220.225 37.1375L221.125 38.0042C220.74 38.456 220.277 38.8079 219.736 39.0598C219.195 39.3116 218.603 39.4375 217.958 39.4375ZM224.452 31.304H229.285V32.493H225.696V34.693H228.93V35.8708H225.696V38.0709H229.285V39.2598H224.452V31.304ZM232.504 39.4375C231.993 39.4375 231.53 39.3079 231.115 39.0487C230.7 38.7894 230.371 38.4338 230.126 37.982C229.889 37.5227 229.771 37.0042 229.771 36.4264C229.771 35.8486 229.889 35.3338 230.126 34.8819C230.371 34.4226 230.7 34.0634 231.115 33.8041C231.53 33.5448 231.993 33.4152 232.504 33.4152C232.904 33.4152 233.263 33.5041 233.582 33.6819C233.9 33.8597 234.141 34.0782 234.304 34.3374H234.36L234.304 33.5374V31.304H235.526V39.2598H234.36V38.5264H234.304C234.141 38.7783 233.9 38.9931 233.582 39.1709C233.263 39.3487 232.904 39.4375 232.504 39.4375ZM232.682 38.3153C232.978 38.3153 233.252 38.2375 233.504 38.082C233.763 37.9264 233.971 37.7042 234.126 37.4153C234.282 37.1264 234.36 36.7968 234.36 36.4264C234.36 36.056 234.282 35.7301 234.126 35.4486C233.971 35.1597 233.763 34.9375 233.504 34.7819C233.252 34.6263 232.978 34.5486 232.682 34.5486C232.386 34.5486 232.108 34.6263 231.848 34.7819C231.589 34.9375 231.382 35.1597 231.226 35.4486C231.071 35.7301 230.993 36.056 230.993 36.4264C230.993 36.7968 231.071 37.1264 231.226 37.4153C231.382 37.7042 231.589 37.9264 231.848 38.082C232.108 38.2375 232.386 38.3153 232.682 38.3153ZM237.317 32.7707C237.087 32.7707 236.891 32.693 236.728 32.5374C236.573 32.3744 236.495 32.1781 236.495 31.9485C236.495 31.7189 236.573 31.5263 236.728 31.3707C236.891 31.2077 237.087 31.1263 237.317 31.1263C237.547 31.1263 237.739 31.2077 237.895 31.3707C238.058 31.5263 238.139 31.7189 238.139 31.9485C238.139 32.1781 238.058 32.3744 237.895 32.5374C237.739 32.693 237.547 32.7707 237.317 32.7707ZM236.706 33.593H237.928V39.2598H236.706V33.593ZM241.384 39.3487C241.132 39.3487 240.895 39.3079 240.673 39.2264C240.45 39.1449 240.269 39.0375 240.128 38.9042C239.81 38.5857 239.65 38.1523 239.65 37.6042V34.6708H238.662V33.593H239.65V31.9929H240.873V33.593H242.251V34.6708H240.873V37.3375C240.873 37.6412 240.932 37.856 241.05 37.982C241.162 38.1301 241.354 38.2042 241.628 38.2042C241.754 38.2042 241.865 38.1894 241.962 38.1597C242.058 38.1227 242.162 38.0671 242.273 37.9931V39.182C242.028 39.2931 241.732 39.3487 241.384 39.3487ZM243.834 32.7707C243.604 32.7707 243.408 32.693 243.245 32.5374C243.089 32.3744 243.011 32.1781 243.011 31.9485C243.011 31.7189 243.089 31.5263 243.245 31.3707C243.408 31.2077 243.604 31.1263 243.834 31.1263C244.063 31.1263 244.256 31.2077 244.411 31.3707C244.574 31.5263 244.656 31.7189 244.656 31.9485C244.656 32.1781 244.574 32.3744 244.411 32.5374C244.256 32.693 244.063 32.7707 243.834 32.7707ZM243.223 33.593H244.445V39.2598H243.223V33.593ZM248.234 39.4375C247.663 39.4375 247.152 39.3079 246.7 39.0487C246.249 38.782 245.897 38.419 245.645 37.9597C245.393 37.5005 245.267 36.9893 245.267 36.4264C245.267 35.8634 245.393 35.3523 245.645 34.893C245.897 34.4337 246.249 34.0745 246.7 33.8152C247.152 33.5485 247.663 33.4152 248.234 33.4152C248.804 33.4152 249.315 33.5485 249.767 33.8152C250.219 34.0819 250.571 34.4449 250.823 34.9041C251.075 35.3634 251.201 35.8708 251.201 36.4264C251.201 36.9893 251.075 37.5005 250.823 37.9597C250.571 38.419 250.219 38.782 249.767 39.0487C249.315 39.3079 248.804 39.4375 248.234 39.4375ZM248.234 38.3153C248.545 38.3153 248.834 38.2412 249.1 38.0931C249.367 37.9375 249.578 37.719 249.734 37.4375C249.897 37.1486 249.978 36.8116 249.978 36.4264C249.978 36.0412 249.897 35.7078 249.734 35.4264C249.578 35.1449 249.367 34.93 249.1 34.7819C248.834 34.6263 248.545 34.5486 248.234 34.5486C247.923 34.5486 247.634 34.6263 247.367 34.7819C247.1 34.93 246.886 35.1449 246.723 35.4264C246.567 35.7078 246.489 36.0412 246.489 36.4264C246.489 36.8116 246.567 37.1486 246.723 37.4375C246.886 37.719 247.1 37.9375 247.367 38.0931C247.634 38.2412 247.923 38.3153 248.234 38.3153ZM251.886 33.593H253.052V34.3374H253.108C253.271 34.0708 253.512 33.8522 253.83 33.6819C254.156 33.5041 254.5 33.4152 254.863 33.4152C255.552 33.4152 256.075 33.6189 256.43 34.0263C256.793 34.4263 256.975 34.9745 256.975 35.6708V39.2598H255.752V35.8375C255.752 35.393 255.641 35.0671 255.419 34.8597C255.204 34.6523 254.904 34.5486 254.519 34.5486C254.245 34.5486 254 34.6263 253.786 34.7819C253.571 34.93 253.404 35.1301 253.286 35.3819C253.167 35.6338 253.108 35.9041 253.108 36.193V39.2598H251.886V33.593Z" fill="white"/>
<defs>
<linearGradient id="paint0_linear_315_837" x1="183.844" y1="21.0678" x2="195.466" y2="65.9304" gradientUnits="userSpaceOnUse">
<stop stop-color="#EA4335"/>
<stop offset="1" stop-color="#FBBC04"/>
</linearGradient>
</defs>
</svg>
