<svg width="416" height="213" viewBox="0 0 416 213" fill="none" xmlns="http://www.w3.org/2000/svg">
<path d="M10.0742 186.094H12.4885L19.3293 204.102H16.9903L15.1796 199.147H7.4083L5.59752 204.102H3.25859L10.0742 186.094ZM14.4502 197.135L12.061 190.646L11.3317 188.71H11.2311L10.5269 190.646L8.13764 197.135H14.4502ZM21.2141 186.094H27.2752C28.2812 186.094 29.2117 186.321 30.0668 186.773C30.9219 187.226 31.6009 187.863 32.1039 188.685C32.6237 189.49 32.8836 190.403 32.8836 191.426C32.8836 192.449 32.6237 193.371 32.1039 194.193C31.6009 194.997 30.9219 195.626 30.0668 196.079C29.2117 196.531 28.2812 196.758 27.2752 196.758H23.3267V204.102H21.2141V186.094ZM27.3255 194.721C27.9962 194.721 28.583 194.561 29.086 194.243C29.6057 193.924 30.0081 193.514 30.2932 193.011C30.5782 192.508 30.7207 191.979 30.7207 191.426C30.7207 190.873 30.5782 190.345 30.2932 189.842C30.0081 189.339 29.6057 188.928 29.086 188.609C28.583 188.291 27.9962 188.131 27.3255 188.131H23.3267V194.721H27.3255ZM38.6142 186.094H41.0286L47.8693 204.102H45.5304L43.7196 199.147H35.9483L34.1375 204.102H31.7986L38.6142 186.094ZM42.9902 197.135L40.601 190.646L39.8717 188.71H39.7711L39.0669 190.646L36.6777 197.135H42.9902ZM57.7132 204.504C55.9695 204.504 54.3851 204.093 52.9599 203.272C51.5348 202.45 50.4114 201.327 49.5899 199.902C48.7851 198.46 48.3827 196.858 48.3827 195.098C48.3827 193.337 48.7851 191.745 49.5899 190.32C50.4114 188.878 51.5348 187.746 52.9599 186.924C54.3851 186.103 55.9695 185.692 57.7132 185.692C59.0545 185.692 60.2785 185.952 61.3851 186.472C62.5084 186.975 63.4809 187.696 64.3024 188.634L62.7683 190.118C62.0809 189.297 61.3264 188.693 60.5048 188.308C59.7001 187.922 58.7695 187.729 57.7132 187.729C56.4054 187.729 55.2066 188.039 54.1168 188.66C53.027 189.263 52.1551 190.127 51.5012 191.25C50.8641 192.357 50.5456 193.639 50.5456 195.098C50.5456 196.557 50.8641 197.848 51.5012 198.971C52.1551 200.078 53.027 200.941 54.1168 201.561C55.2066 202.165 56.4054 202.467 57.7132 202.467C59.8929 202.467 61.7456 201.57 63.2713 199.776L64.8306 201.285C63.9923 202.274 62.9611 203.062 61.7372 203.649C60.5132 204.219 59.1719 204.504 57.7132 204.504ZM75.8766 192.155H80.1521V193.866H75.8766V192.155ZM83.9748 183.303H85.9868V206.063H83.9748V183.303ZM79.4479 183.781H81.4347V204.906H79.4479V183.781ZM71.7521 185.214C72.7413 185.214 73.5964 185.533 74.3173 186.17C75.0551 186.807 75.6251 187.721 76.0275 188.911C76.4299 190.102 76.6311 191.502 76.6311 193.111C76.6311 194.737 76.4299 196.146 76.0275 197.336C75.6251 198.527 75.0551 199.449 74.3173 200.103C73.5964 200.74 72.7413 201.058 71.7521 201.058C70.7964 201.058 69.9497 200.74 69.2119 200.103C68.491 199.449 67.9293 198.527 67.5269 197.336C67.1245 196.146 66.9233 194.737 66.9233 193.111C66.9233 191.502 67.1245 190.102 67.5269 188.911C67.9293 187.721 68.491 186.807 69.2119 186.17C69.9497 185.533 70.7964 185.214 71.7521 185.214ZM71.7521 187.151C71.1652 187.151 70.6539 187.394 70.2179 187.88C69.782 188.366 69.4467 189.054 69.2119 189.942C68.9772 190.831 68.8599 191.887 68.8599 193.111C68.8599 194.335 68.9772 195.4 69.2119 196.305C69.4467 197.194 69.782 197.881 70.2179 198.367C70.6539 198.854 71.1652 199.097 71.7521 199.097C72.3557 199.097 72.8754 198.854 73.3114 198.367C73.764 197.881 74.1078 197.194 74.3425 196.305C74.5772 195.4 74.6946 194.335 74.6946 193.111C74.6946 191.887 74.5772 190.831 74.3425 189.942C74.1078 189.054 73.764 188.366 73.3114 187.88C72.8754 187.394 72.3557 187.151 71.7521 187.151ZM100.647 191.024H106.96V192.734H100.647V191.024ZM95.1393 185.264H96.8495V189.339C96.8495 190.596 96.6902 191.837 96.3717 193.061C96.0699 194.285 95.634 195.425 95.0639 196.481C94.4938 197.537 93.8232 198.476 93.0519 199.298C92.2974 200.12 91.4675 200.773 90.5621 201.26L89.2543 199.575C90.0926 199.172 90.8639 198.611 91.5681 197.89C92.289 197.169 92.9178 196.347 93.4543 195.425C93.9908 194.486 94.4016 193.505 94.6866 192.482C94.9884 191.443 95.1393 190.395 95.1393 189.339V185.264ZM95.5669 185.264H97.2519V189.339C97.2519 190.361 97.3944 191.376 97.6795 192.382C97.9813 193.388 98.4004 194.335 98.9369 195.224C99.4735 196.096 100.094 196.875 100.798 197.563C101.519 198.25 102.29 198.787 103.112 199.172L101.854 200.857C100.949 200.388 100.111 199.759 99.3393 198.971C98.5681 198.183 97.8974 197.278 97.3274 196.255C96.7741 195.232 96.3381 194.134 96.0196 192.96C95.7178 191.787 95.5669 190.579 95.5669 189.339V185.264ZM105.929 183.303H107.991V206.088H105.929V183.303ZM118.185 185.365H128.647V195.878H118.185V185.365ZM126.61 187.05H120.222V194.193H126.61V187.05ZM132.822 183.303H134.91V199.977H132.822V183.303ZM134.256 190.219H138.255V191.954H134.256V190.219ZM120.75 203.85H135.916V205.56H120.75V203.85ZM120.75 198.393H122.813V204.579H120.75V198.393ZM139.887 192.809H160.46V194.494H139.887V192.809ZM142.629 189.288H157.995V190.973H142.629V189.288ZM142.629 184.057H157.769V185.742H144.691V190.621H142.629V184.057ZM142.377 196.481H157.794V201.813H144.465V204.68H142.427V200.254H155.757V198.116H142.377V196.481ZM142.427 204.127H158.473V205.787H142.427V204.127ZM168.581 185.063C169.688 185.063 170.669 185.39 171.524 186.044C172.379 186.681 173.041 187.595 173.511 188.785C173.997 189.976 174.24 191.376 174.24 192.985C174.24 194.595 173.997 195.995 173.511 197.185C173.041 198.376 172.379 199.298 171.524 199.952C170.669 200.606 169.688 200.933 168.581 200.933C167.491 200.933 166.511 200.606 165.639 199.952C164.784 199.298 164.113 198.376 163.627 197.185C163.157 195.995 162.923 194.595 162.923 192.985C162.923 191.376 163.157 189.976 163.627 188.785C164.113 187.595 164.784 186.681 165.639 186.044C166.511 185.39 167.491 185.063 168.581 185.063ZM168.581 186.924C167.86 186.924 167.223 187.176 166.67 187.679C166.117 188.165 165.681 188.869 165.362 189.791C165.06 190.697 164.909 191.761 164.909 192.985C164.909 194.209 165.06 195.282 165.362 196.205C165.681 197.11 166.117 197.814 166.67 198.317C167.223 198.82 167.86 199.072 168.581 199.072C169.319 199.072 169.964 198.82 170.518 198.317C171.071 197.814 171.499 197.11 171.8 196.205C172.119 195.282 172.278 194.209 172.278 192.985C172.278 191.761 172.119 190.697 171.8 189.791C171.499 188.869 171.071 188.165 170.518 187.679C169.964 187.176 169.319 186.924 168.581 186.924ZM179.169 183.303H181.232V206.088H179.169V183.303ZM173.561 191.979H180.1V193.664H173.561V191.979ZM185.178 206.189L186.511 204.102C186.209 204.051 185.941 203.892 185.706 203.624C185.471 203.355 185.354 203.029 185.354 202.643C185.354 202.207 185.505 201.838 185.807 201.536C186.125 201.218 186.511 201.058 186.964 201.058C187.416 201.058 187.794 201.218 188.095 201.536C188.414 201.838 188.573 202.207 188.573 202.643C188.573 202.928 188.515 203.205 188.397 203.473C188.28 203.724 188.104 204.018 187.869 204.353L186.209 206.868L185.178 206.189ZM208.105 189.59H213.865V191.3H208.105V189.59ZM212.683 183.328H214.77V200.002H212.683V183.328ZM200.259 203.85H215.399V205.56H200.259V203.85ZM200.259 198.518H202.321V204.705H200.259V198.518ZM201.843 186.145H203.553V187.981C203.553 189.355 203.285 190.655 202.748 191.879C202.229 193.086 201.491 194.142 200.535 195.048C199.58 195.936 198.473 196.624 197.216 197.11L196.134 195.425C196.972 195.123 197.735 194.721 198.423 194.218C199.127 193.715 199.739 193.136 200.259 192.482C200.778 191.829 201.172 191.116 201.441 190.345C201.709 189.573 201.843 188.785 201.843 187.981V186.145ZM202.245 186.145H203.956V187.981C203.956 188.953 204.182 189.9 204.635 190.823C205.087 191.745 205.733 192.566 206.571 193.287C207.41 193.991 208.374 194.536 209.463 194.922L208.407 196.582C207.166 196.129 206.085 195.475 205.163 194.62C204.241 193.748 203.52 192.742 203 191.602C202.497 190.462 202.245 189.255 202.245 187.981V186.145ZM196.788 185.164H208.935V186.874H196.788V185.164ZM232.987 191.451H237.363V193.187H232.987V191.451ZM228.762 185.44H230.397V189.791C230.397 190.965 230.271 192.122 230.019 193.262C229.785 194.402 229.433 195.475 228.963 196.481C228.51 197.487 227.957 198.393 227.303 199.197C226.649 200.002 225.912 200.656 225.09 201.159L223.782 199.6C224.554 199.13 225.249 198.543 225.87 197.839C226.49 197.135 227.01 196.347 227.429 195.475C227.865 194.587 228.192 193.664 228.41 192.709C228.645 191.736 228.762 190.764 228.762 189.791V185.44ZM229.164 185.44H230.774V189.716C230.774 190.621 230.874 191.535 231.076 192.457C231.294 193.363 231.595 194.234 231.981 195.073C232.383 195.894 232.878 196.649 233.465 197.336C234.052 198.024 234.714 198.594 235.452 199.046L234.27 200.656C233.448 200.153 232.719 199.516 232.082 198.745C231.445 197.957 230.908 197.076 230.472 196.104C230.036 195.115 229.709 194.075 229.491 192.985C229.273 191.896 229.164 190.806 229.164 189.716V185.44ZM241.362 183.303H243.374V206.063H241.362V183.303ZM236.734 183.781H238.696V204.906H236.734V183.781ZM255.494 189.615H260.524V191.326H255.494V189.615ZM255.318 195.324H260.474V197.034H255.318V195.324ZM263.995 183.303H266.007V206.063H263.995V183.303ZM259.417 183.906H261.404V204.906H259.417V183.906ZM254.362 186.195H256.374C256.374 188.173 256.089 190.076 255.519 191.904C254.949 193.715 254.035 195.408 252.778 196.984C251.537 198.543 249.902 199.935 247.874 201.159L246.641 199.65C248.419 198.577 249.877 197.37 251.017 196.029C252.158 194.67 252.996 193.203 253.532 191.627C254.086 190.034 254.362 188.349 254.362 186.572V186.195ZM247.647 186.195H255.167V187.905H247.647V186.195ZM269.299 201.511H289.922V203.246H269.299V201.511ZM278.529 196.657H280.592V202.24H278.529V196.657ZM271.814 184.988H287.357V191.879H273.927V196.431H271.865V190.219H285.295V186.698H271.814V184.988ZM271.865 195.551H287.885V197.261H271.865V195.551ZM314.2 192.382H318.375V194.117H314.2V192.382ZM312.666 183.303H314.754V206.038H312.666V183.303ZM298.18 185.541H300.242V199.625H298.18V185.541ZM298.18 198.543H299.991C301.651 198.543 303.352 198.468 305.096 198.317C306.856 198.166 308.676 197.898 310.554 197.512L310.805 199.273C308.86 199.658 306.999 199.927 305.222 200.078C303.461 200.212 301.718 200.279 299.991 200.279H298.18V198.543ZM325.943 185.063C327.067 185.063 328.056 185.39 328.911 186.044C329.766 186.681 330.437 187.595 330.923 188.785C331.409 189.976 331.652 191.376 331.652 192.985C331.652 194.595 331.409 195.995 330.923 197.185C330.437 198.376 329.766 199.298 328.911 199.952C328.056 200.606 327.067 200.933 325.943 200.933C324.837 200.933 323.847 200.606 322.976 199.952C322.12 199.298 321.45 198.376 320.964 197.185C320.477 195.995 320.234 194.595 320.234 192.985C320.234 191.376 320.477 189.976 320.964 188.785C321.45 187.595 322.12 186.681 322.976 186.044C323.847 185.39 324.837 185.063 325.943 185.063ZM325.943 186.924C325.222 186.924 324.577 187.176 324.007 187.679C323.453 188.165 323.017 188.869 322.699 189.791C322.38 190.697 322.221 191.761 322.221 192.985C322.221 194.209 322.38 195.282 322.699 196.205C323.017 197.11 323.453 197.814 324.007 198.317C324.577 198.82 325.231 199.072 325.968 199.072C326.689 199.072 327.326 198.82 327.88 198.317C328.45 197.814 328.886 197.11 329.187 196.205C329.506 195.282 329.665 194.209 329.665 192.985C329.665 191.761 329.506 190.697 329.187 189.791C328.886 188.869 328.45 188.165 327.88 187.679C327.326 187.176 326.681 186.924 325.943 186.924ZM335.299 183.303H337.386V206.063H335.299V183.303ZM336.908 192.382H341.108V194.142H336.908V192.382ZM358.083 183.303H360.195V195.626H358.083V183.303ZM359.617 188.685H363.54V190.42H359.617V188.685ZM351.77 184.686H354.033C354.033 186.581 353.606 188.274 352.751 189.766C351.896 191.258 350.672 192.516 349.079 193.539C347.503 194.561 345.6 195.349 343.37 195.903L342.59 194.193C344.552 193.706 346.212 193.052 347.57 192.231C348.945 191.409 349.984 190.445 350.689 189.339C351.409 188.232 351.77 187.025 351.77 185.717V184.686ZM343.596 184.686H353.027V186.371H343.596V184.686ZM345.809 196.657H347.897V199.499H358.108V196.657H360.195V205.761H345.809V196.657ZM347.897 201.159V204.051H358.108V201.159H347.897ZM381.721 183.303H383.784V206.063H381.721V183.303ZM366.606 185.541H368.669V199.625H366.606V185.541ZM366.606 198.393H368.467C370.211 198.393 371.98 198.317 373.774 198.166C375.585 197.999 377.446 197.722 379.357 197.336L379.634 199.097C377.655 199.516 375.752 199.809 373.925 199.977C372.097 200.128 370.278 200.203 368.467 200.203H366.606V198.393ZM403.197 183.303H405.285V206.088H403.197V183.303ZM404.807 192.281H409.007V194.017H404.807V192.281ZM388.786 198.644H390.572C391.964 198.644 393.238 198.627 394.395 198.594C395.568 198.543 396.692 198.46 397.765 198.342C398.855 198.225 399.961 198.066 401.085 197.864L401.336 199.65C400.162 199.851 399.022 200.011 397.916 200.128C396.826 200.245 395.686 200.321 394.495 200.354C393.305 200.388 391.997 200.405 390.572 200.405H388.786V198.644ZM388.786 185.516H399.324V187.226H390.849V199.449H388.786V185.516ZM412.174 204.252C411.721 204.252 411.335 204.102 411.017 203.8C410.715 203.481 410.564 203.096 410.564 202.643C410.564 202.207 410.715 201.838 411.017 201.536C411.335 201.218 411.721 201.058 412.174 201.058C412.61 201.058 412.978 201.218 413.28 201.536C413.599 201.838 413.758 202.207 413.758 202.643C413.758 203.096 413.599 203.481 413.28 203.8C412.978 204.102 412.61 204.252 412.174 204.252Z" fill="#2B2B2B"/>
<path d="M33.4036 78.269C28.0102 78.269 23.0398 76.9736 18.4924 74.3826C13.945 71.7916 10.3229 68.2489 7.62623 63.7544C4.98239 59.207 3.66048 54.1573 3.66048 48.6052C3.66048 43.0532 4.98239 38.0299 7.62623 33.5354C10.3229 28.988 13.945 25.4188 18.4924 22.8278C23.0398 20.2369 28.0102 18.9414 33.4036 18.9414C37.6866 18.9414 41.6788 19.7081 45.3802 21.2415C49.0815 22.775 52.1748 24.9165 54.66 27.6661L48.4735 33.8526C46.6228 31.7904 44.402 30.2041 41.811 29.0937C39.2729 27.9833 36.444 27.4281 33.3243 27.4281C29.6758 27.4281 26.2653 28.3006 23.0927 30.0455C19.9201 31.7904 17.382 34.2756 15.4784 37.5011C13.5749 40.7266 12.6231 44.428 12.6231 48.6052C12.6231 52.7825 13.5749 56.4838 15.4784 59.7093C17.382 62.9348 19.9201 65.42 23.0927 67.1649C26.2653 68.9099 29.7022 69.7823 33.4036 69.7823C36.7877 69.7823 39.6166 69.28 41.8903 68.2753C44.164 67.2707 46.1998 65.9223 47.9976 64.2303C49.1609 63.067 50.1391 61.6129 50.9322 59.868C51.7783 58.123 52.3335 56.2195 52.5978 54.1573H33.3243V46.2258H61.0052C61.2696 47.7063 61.4018 49.2397 61.4018 50.826C61.4018 54.4217 60.8466 57.8851 59.7362 61.2163C58.6258 64.4947 56.8544 67.35 54.4221 69.7823C49.0815 75.4401 42.0754 78.269 33.4036 78.269ZM85.9424 78.269C81.9766 78.269 78.4074 77.3437 75.2348 75.493C72.1151 73.6423 69.6564 71.1043 67.8585 67.8788C66.1136 64.6004 65.2411 60.9255 65.2411 56.854C65.2411 52.994 66.0872 49.4248 67.7792 46.1465C69.5242 42.8152 71.93 40.1714 74.9969 38.215C78.0637 36.2585 81.5536 35.2803 85.4665 35.2803C89.538 35.2803 93.0543 36.1792 96.0154 37.977C99.0293 39.7748 101.303 42.2336 102.836 45.3533C104.423 48.473 105.216 51.9893 105.216 55.9022C105.216 56.6425 105.137 57.5678 104.978 58.6782H73.9658C74.2831 62.4325 75.605 65.3407 77.9316 67.4029C80.311 69.4122 83.0606 70.4169 86.1803 70.4169C88.6655 70.4169 90.807 69.8616 92.6048 68.7512C94.4555 67.588 95.9361 66.0281 97.0465 64.0717L104.423 67.5615C102.519 70.8927 100.034 73.5101 96.9672 75.4137C93.9003 77.3173 90.2254 78.269 85.9424 78.269ZM96.3326 52.0158C96.2269 50.5881 95.7774 49.1869 94.9843 47.8121C94.1911 46.3844 92.975 45.1947 91.3358 44.2429C89.7495 43.2911 87.7931 42.8152 85.4665 42.8152C82.664 42.8152 80.2846 43.6613 78.3281 45.3533C76.4246 46.9925 75.1026 49.2133 74.3624 52.0158H96.3326ZM110.782 36.5493H119.11V41.8634H119.506C120.67 39.9599 122.388 38.4 124.662 37.1839C126.988 35.9148 129.447 35.2803 132.038 35.2803C136.956 35.2803 140.683 36.7344 143.221 39.6426C145.812 42.498 147.108 46.4108 147.108 51.3812V77H138.383V52.571C138.383 49.3984 137.59 47.0718 136.004 45.5913C134.47 44.1107 132.329 43.3704 129.579 43.3704C127.623 43.3704 125.878 43.9256 124.344 45.036C122.811 46.0936 121.621 47.5213 120.775 49.3191C119.929 51.1169 119.506 53.0469 119.506 55.1091V77H110.782V36.5493ZM185.824 20.2104H195.976L217.312 77H207.477L202.401 62.4854H179.479L174.323 77H164.488L185.824 20.2104ZM199.387 54.2366L193.359 37.3425L191.138 30.7593H190.662L188.442 37.3425L182.414 54.2366H199.387ZM222.649 20.2104H231.533V77H222.649V20.2104Z" fill="#202124"/>
<path d="M93.4952 87.7495H103.648L124.983 144.539H115.148L110.072 130.024H87.15L81.9945 144.539H72.1595L93.4952 87.7495ZM107.058 121.776L101.03 104.882L98.8093 98.2984H98.3334L96.1126 104.882L90.0846 121.776H107.058ZM146.449 145.808C142.43 145.808 138.808 144.883 135.583 143.032C132.41 141.181 129.925 138.643 128.127 135.418C126.382 132.139 125.51 128.438 125.51 124.314C125.51 120.189 126.382 116.514 128.127 113.289C129.925 110.011 132.41 107.446 135.583 105.595C138.808 103.745 142.43 102.819 146.449 102.819C150.891 102.819 154.671 103.824 157.791 105.833C160.911 107.843 163.132 110.566 164.454 114.003L156.443 117.334C154.645 113.051 151.234 110.909 146.211 110.909C144.043 110.909 142.034 111.465 140.183 112.575C138.385 113.686 136.931 115.272 135.821 117.334C134.763 119.343 134.235 121.67 134.235 124.314C134.235 126.958 134.763 129.311 135.821 131.373C136.931 133.435 138.385 135.021 140.183 136.132C142.034 137.242 144.043 137.797 146.211 137.797C148.749 137.797 150.917 137.242 152.715 136.132C154.566 134.968 155.967 133.329 156.919 131.214L164.771 134.625C163.237 138.062 160.911 140.785 157.791 142.794C154.671 144.803 150.891 145.808 146.449 145.808ZM182.114 145.808C179.206 145.808 176.615 145.253 174.341 144.142C172.068 142.979 170.296 141.366 169.027 139.304C167.758 137.189 167.124 134.81 167.124 132.166C167.124 127.989 168.684 124.684 171.803 122.252C174.976 119.819 178.968 118.603 183.78 118.603C186.159 118.603 188.301 118.841 190.204 119.317C192.108 119.74 193.615 120.216 194.725 120.745V118.682C194.725 116.197 193.8 114.188 191.949 112.654C190.099 111.068 187.719 110.275 184.811 110.275C182.749 110.275 180.792 110.724 178.942 111.623C177.144 112.522 175.69 113.765 174.579 115.351L168.472 110.672C170.27 108.186 172.596 106.256 175.452 104.882C178.307 103.507 181.48 102.819 184.97 102.819C190.839 102.819 195.36 104.273 198.532 107.182C201.705 110.037 203.291 114.082 203.291 119.317V144.539H194.725V139.701H194.329C193.165 141.446 191.526 142.9 189.411 144.063C187.296 145.226 184.864 145.808 182.114 145.808ZM183.621 138.59C185.736 138.59 187.64 138.088 189.332 137.083C191.024 136.079 192.346 134.73 193.298 133.038C194.249 131.346 194.725 129.522 194.725 127.566C193.509 126.878 192.081 126.323 190.442 125.9C188.856 125.477 187.19 125.266 185.445 125.266C182.167 125.266 179.761 125.926 178.228 127.248C176.694 128.517 175.928 130.183 175.928 132.245C175.928 134.096 176.642 135.629 178.069 136.846C179.497 138.009 181.348 138.59 183.621 138.59ZM227.323 145.808C223.675 145.808 220.37 144.883 217.409 143.032C214.448 141.181 212.095 138.643 210.35 135.418C208.658 132.139 207.812 128.438 207.812 124.314C207.812 120.189 208.658 116.514 210.35 113.289C212.095 110.011 214.448 107.446 217.409 105.595C220.37 103.745 223.675 102.819 227.323 102.819C230.179 102.819 232.743 103.454 235.017 104.723C237.29 105.992 239.009 107.552 240.172 109.403H240.569L240.172 103.692V87.7495H248.897V144.539H240.569V139.304H240.172C239.009 141.102 237.29 142.636 235.017 143.905C232.743 145.174 230.179 145.808 227.323 145.808ZM228.592 137.797C230.707 137.797 232.664 137.242 234.462 136.132C236.312 135.021 237.793 133.435 238.903 131.373C240.014 129.311 240.569 126.958 240.569 124.314C240.569 121.67 240.014 119.343 238.903 117.334C237.793 115.272 236.312 113.686 234.462 112.575C232.664 111.465 230.707 110.909 228.592 110.909C226.477 110.909 224.494 111.465 222.644 112.575C220.793 113.686 219.312 115.272 218.202 117.334C217.092 119.343 216.536 121.67 216.536 124.314C216.536 126.958 217.092 129.311 218.202 131.373C219.312 133.435 220.793 135.021 222.644 136.132C224.494 137.242 226.477 137.797 228.592 137.797ZM274.776 145.808C270.81 145.808 267.241 144.883 264.068 143.032C260.949 141.181 258.49 138.643 256.692 135.418C254.947 132.139 254.075 128.465 254.075 124.393C254.075 120.533 254.921 116.964 256.613 113.686C258.358 110.354 260.764 107.71 263.83 105.754C266.897 103.798 270.387 102.819 274.3 102.819C278.371 102.819 281.888 103.718 284.849 105.516C287.863 107.314 290.137 109.773 291.67 112.892C293.256 116.012 294.049 119.528 294.049 123.441C294.049 124.182 293.97 125.107 293.811 126.217H262.799C263.117 129.972 264.438 132.88 266.765 134.942C269.144 136.951 271.894 137.956 275.014 137.956C277.499 137.956 279.641 137.401 281.438 136.29C283.289 135.127 284.77 133.567 285.88 131.611L293.256 135.101C291.353 138.432 288.867 141.049 285.801 142.953C282.734 144.856 279.059 145.808 274.776 145.808ZM285.166 119.555C285.06 118.127 284.611 116.726 283.818 115.351C283.025 113.923 281.808 112.734 280.169 111.782C278.583 110.83 276.627 110.354 274.3 110.354C271.498 110.354 269.118 111.2 267.162 112.892C265.258 114.532 263.936 116.752 263.196 119.555H285.166ZM299.615 104.088H307.943V109.403H308.34C309.556 107.446 311.274 105.86 313.495 104.644C315.716 103.427 318.096 102.819 320.634 102.819C323.542 102.819 326.08 103.507 328.248 104.882C330.416 106.203 331.976 107.975 332.927 110.196C334.302 107.975 336.126 106.203 338.4 104.882C340.727 103.507 343.45 102.819 346.57 102.819C351.223 102.819 354.739 104.247 357.118 107.102C359.551 109.905 360.767 113.738 360.767 118.603V144.539H352.042V120.11C352.042 113.976 349.425 110.909 344.19 110.909C341.388 110.909 339.088 112.046 337.29 114.32C335.492 116.594 334.593 119.396 334.593 122.727V144.539H325.868V120.11C325.868 113.976 323.172 110.909 317.778 110.909C315.029 110.909 312.755 112.046 310.957 114.32C309.212 116.594 308.34 119.396 308.34 122.727V144.539H299.615V104.088ZM379.552 142.318L362.737 104.088H372.493L383.914 131.611H384.231L395.335 104.088H404.932L379.948 161.671H370.748L379.552 142.318Z" fill="#202124"/>
<rect x="252.255" y="20.9531" width="153.357" height="54.4309" rx="27.2154" fill="#D9D9D9"/>
<rect x="252.255" y="20.9531" width="153.357" height="54.4309" rx="27.2154" fill="url(#paint0_linear_1048_1339)"/>
<path d="M276.408 40.2255H279.163L284.953 55.6367H282.284L280.907 51.6978H274.686L273.287 55.6367H270.618L276.408 40.2255ZM280.089 49.4593L278.453 44.8747L277.85 43.0882H277.721L277.119 44.8747L275.483 49.4593H280.089ZM286.402 40.2255H291.74C292.644 40.2255 293.476 40.4264 294.236 40.8282C295.011 41.23 295.621 41.7896 296.066 42.5071C296.525 43.2245 296.755 44.0353 296.755 44.9393C296.755 45.8433 296.525 46.654 296.066 47.3715C295.621 48.089 295.011 48.6486 294.236 49.0504C293.476 49.4522 292.644 49.653 291.74 49.653H288.812V55.6367H286.402V40.2255ZM291.783 47.3715C292.314 47.3715 292.773 47.2567 293.16 47.0271C293.548 46.7832 293.842 46.4747 294.043 46.1016C294.244 45.7285 294.344 45.3411 294.344 44.9393C294.344 44.5375 294.244 44.1501 294.043 43.777C293.842 43.4039 293.548 43.1026 293.16 42.873C292.773 42.6434 292.314 42.5286 291.783 42.5286H288.812V47.3715H291.783ZM301.391 40.2255H304.146L309.936 55.6367H307.267L305.89 51.6978H299.669L298.27 55.6367H295.601L301.391 40.2255ZM305.072 49.4593L303.436 44.8747L302.833 43.0882H302.704L302.102 44.8747L300.466 49.4593H305.072ZM318.239 55.9811C316.747 55.9811 315.384 55.6295 314.15 54.9264C312.916 54.2233 311.947 53.2547 311.244 52.0207C310.541 50.7866 310.189 49.4235 310.189 47.9311C310.189 46.4388 310.541 45.0756 311.244 43.8416C311.947 42.6075 312.916 41.6389 314.15 40.9358C315.384 40.2327 316.747 39.8811 318.239 39.8811C319.402 39.8811 320.456 40.0964 321.403 40.5269C322.365 40.9573 323.211 41.5815 323.943 42.3995L322.221 44.0568C321.69 43.4254 321.102 42.9591 320.456 42.6577C319.811 42.3421 319.072 42.1842 318.239 42.1842C317.206 42.1842 316.259 42.421 315.398 42.8945C314.552 43.368 313.877 44.0425 313.375 44.9178C312.873 45.7787 312.622 46.7832 312.622 47.9311C312.622 49.0791 312.873 50.0907 313.375 50.966C313.877 51.827 314.552 52.4942 315.398 52.9677C316.259 53.4413 317.206 53.678 318.239 53.678C319.961 53.678 321.425 52.9606 322.63 51.5256L324.374 53.2045C323.627 54.0798 322.731 54.7614 321.683 55.2493C320.636 55.7372 319.488 55.9811 318.239 55.9811ZM337.964 45.1976H341.473V47.0486H337.964V45.1976ZM344.68 37.7287H346.832V57.4017H344.68V37.7287ZM340.741 38.1162H342.85V56.4762H340.741V38.1162ZM334.456 39.2569C335.317 39.2569 336.063 39.5439 336.694 40.1179C337.34 40.6775 337.835 41.4811 338.18 42.5286C338.524 43.5617 338.696 44.803 338.696 46.2522C338.696 47.6872 338.524 48.9284 338.18 49.9759C337.835 51.0234 337.34 51.827 336.694 52.3866C336.063 52.9462 335.317 53.226 334.456 53.226C333.609 53.226 332.87 52.9462 332.239 52.3866C331.608 51.827 331.12 51.0234 330.775 49.9759C330.431 48.9284 330.259 47.6872 330.259 46.2522C330.259 44.803 330.431 43.5617 330.775 42.5286C331.12 41.4811 331.608 40.6775 332.239 40.1179C332.885 39.5439 333.624 39.2569 334.456 39.2569ZM334.456 41.3878C334.025 41.3878 333.645 41.5744 333.315 41.9474C332.985 42.3205 332.734 42.873 332.562 43.6048C332.39 44.3223 332.304 45.2047 332.304 46.2522C332.304 47.2711 332.39 48.1464 332.562 48.8782C332.734 49.61 332.985 50.1696 333.315 50.5571C333.645 50.9301 334.025 51.1167 334.456 51.1167C334.915 51.1167 335.303 50.9301 335.618 50.5571C335.948 50.1696 336.199 49.61 336.372 48.8782C336.544 48.1464 336.63 47.2711 336.63 46.2522C336.63 45.2047 336.544 44.3223 336.372 43.6048C336.199 42.873 335.948 42.3205 335.618 41.9474C335.303 41.5744 334.915 41.3878 334.456 41.3878ZM363.124 37.7287H365.384V57.4447H363.124V37.7287ZM350.425 50.7723H352.061C353.395 50.7723 354.579 50.7579 355.612 50.7292C356.66 50.6862 357.636 50.6216 358.54 50.5355C359.458 50.4351 360.384 50.2988 361.316 50.1266L361.531 52.0207C360.584 52.1929 359.645 52.3292 358.712 52.4296C357.779 52.5157 356.775 52.5731 355.698 52.6018C354.637 52.6305 353.424 52.6449 352.061 52.6449H350.425V50.7723ZM350.425 39.5583H359.81V41.4093H352.664V51.4826H350.425V39.5583ZM378.749 40.4838H382.946V42.3134H378.749V40.4838ZM378.749 44.4227H382.946V46.2307H378.749V44.4227ZM373.088 38.848H374.918V41.2587C374.918 42.5645 374.71 43.7985 374.294 44.9608C373.877 46.1088 373.268 47.1132 372.464 47.9742C371.66 48.8351 370.678 49.488 369.515 49.9329L368.31 48.1679C369.099 47.8809 369.788 47.5006 370.376 47.0271C370.965 46.5536 371.46 46.0155 371.861 45.4128C372.263 44.7958 372.564 44.1357 372.765 43.4326C372.981 42.7295 373.088 42.0048 373.088 41.2587V38.848ZM373.54 38.848H375.348V41.2587C375.348 41.9474 375.449 42.629 375.65 43.3035C375.85 43.9779 376.145 44.6092 376.532 45.1976C376.934 45.7859 377.415 46.3168 377.974 46.7903C378.548 47.2495 379.208 47.6154 379.954 47.8881L378.706 49.653C377.615 49.2082 376.683 48.5697 375.908 47.7374C375.133 46.8908 374.545 45.915 374.143 44.8101C373.741 43.6909 373.54 42.5071 373.54 41.2587V38.848ZM382.387 37.7503H384.647V52.3651H382.387V37.7503ZM371.84 55.1847H385.099V57.0143H371.84V55.1847ZM371.84 50.966H374.1V56.2824H371.84V50.966Z" fill="white"/>
<defs>
<linearGradient id="paint0_linear_1048_1339" x1="258.343" y1="24.3819" x2="277.853" y2="99.6966" gradientUnits="userSpaceOnUse">
<stop stop-color="#EA4335"/>
<stop offset="1" stop-color="#FBBC04"/>
</linearGradient>
</defs>
</svg>
