<svg width="448" height="180" viewBox="0 0 448 180" fill="none" xmlns="http://www.w3.org/2000/svg">
<path d="M18.0859 15.7105H26.1824L43.1976 61H35.3542L31.3059 49.4246H13.0257L8.91418 61H1.07074L18.0859 15.7105ZM28.9023 42.8462L24.095 29.3732L22.3239 24.1232H21.9444L20.1733 29.3732L15.366 42.8462H28.9023ZM46.3153 15.7105H53.2732V42.0872H53.463L66.683 28.7407H75.412V29.1202L62.8878 41.5812L75.7915 60.6205V61H67.5053L58.0172 46.3884L53.2732 51.0059V61H46.3153V15.7105ZM87.7093 62.0121C85.39 62.0121 83.3238 61.5693 81.5105 60.6837C79.6972 59.756 78.2846 58.4699 77.2725 56.8253C76.2604 55.1385 75.7544 53.2409 75.7544 51.1324C75.7544 47.8011 76.9984 45.1655 79.4864 43.2257C82.0165 41.286 85.2003 40.3161 89.0377 40.3161C90.9353 40.3161 92.6431 40.5058 94.1612 40.8854C95.6793 41.2227 96.8811 41.6022 97.7666 42.0239V40.3793C97.7666 38.3974 97.0287 36.795 95.5528 35.5721C94.0769 34.307 92.1793 33.6745 89.86 33.6745C88.2154 33.6745 86.6551 34.0329 85.1792 34.7498C83.7454 35.4666 82.5858 36.4576 81.7002 37.7227L76.8297 33.9907C78.2635 32.0088 80.1189 30.4696 82.396 29.3732C84.6732 28.2768 87.2033 27.7286 89.9865 27.7286C94.6672 27.7286 98.2727 28.8883 100.803 31.2076C103.333 33.4847 104.598 36.7106 104.598 40.8854V61H97.7666V57.1415H97.4504C96.5227 58.5331 95.2154 59.6928 93.5287 60.6205C91.8419 61.5482 89.9021 62.0121 87.7093 62.0121ZM88.9112 56.256C90.5979 56.256 92.116 55.8554 93.4654 55.0542C94.8148 54.253 95.869 53.1776 96.6281 51.8282C97.3871 50.4788 97.7666 49.024 97.7666 47.4637C96.7968 46.9155 95.6582 46.4728 94.351 46.1354C93.0859 45.7981 91.7576 45.6294 90.366 45.6294C87.7515 45.6294 85.8328 46.1565 84.6099 47.2107C83.387 48.2228 82.7756 49.5511 82.7756 51.1957C82.7756 52.6716 83.3448 53.8945 84.4834 54.8644C85.622 55.7921 87.0979 56.256 88.9112 56.256ZM123.763 62.0121C120.854 62.0121 118.218 61.2741 115.857 59.7982C113.495 58.3223 111.619 56.2982 110.227 53.7258C108.878 51.1114 108.203 48.1595 108.203 44.8703C108.203 41.5812 108.878 38.6504 110.227 36.0781C111.619 33.4636 113.495 31.4184 115.857 29.9425C118.218 28.4666 120.854 27.7286 123.763 27.7286C126.04 27.7286 128.086 28.2347 129.899 29.2467C131.712 30.2588 133.083 31.5028 134.01 32.9787H134.327L134.01 28.4244V15.7105H140.968V61H134.327V56.8253H134.01C133.083 58.259 131.712 59.4819 129.899 60.494C128.086 61.506 126.04 62.0121 123.763 62.0121ZM124.775 55.6234C126.462 55.6234 128.022 55.1807 129.456 54.2951C130.932 53.4096 132.113 52.1445 132.998 50.4999C133.884 48.8553 134.327 46.9788 134.327 44.8703C134.327 42.7619 133.884 40.9065 132.998 39.304C132.113 37.6594 130.932 36.3944 129.456 35.5088C128.022 34.6233 126.462 34.1805 124.775 34.1805C123.089 34.1805 121.507 34.6233 120.031 35.5088C118.555 36.3944 117.375 37.6594 116.489 39.304C115.604 40.9065 115.161 42.7619 115.161 44.8703C115.161 46.9788 115.604 48.8553 116.489 50.4999C117.375 52.1445 118.555 53.4096 120.031 54.2951C121.507 55.1807 123.089 55.6234 124.775 55.6234ZM161.607 62.0121C158.444 62.0121 155.598 61.2741 153.068 59.7982C150.58 58.3223 148.619 56.2982 147.185 53.7258C145.793 51.1114 145.098 48.1806 145.098 44.9336C145.098 41.8553 145.772 39.0088 147.122 36.3944C148.513 33.7377 150.432 31.6293 152.878 30.069C155.324 28.5088 158.107 27.7286 161.227 27.7286C164.474 27.7286 167.279 28.4455 169.64 29.8792C172.044 31.313 173.857 33.2739 175.08 35.7618C176.345 38.2498 176.977 41.054 176.977 44.1746C176.977 44.7649 176.914 45.5029 176.788 46.3884H152.056C152.309 49.3824 153.363 51.7017 155.218 53.3463C157.116 54.9487 159.309 55.75 161.797 55.75C163.778 55.75 165.486 55.3072 166.92 54.4216C168.396 53.4939 169.577 52.2499 170.462 50.6897L176.345 53.4728C174.827 56.1295 172.845 58.2168 170.399 59.7349C167.953 61.253 165.022 62.0121 161.607 62.0121ZM169.893 41.0751C169.809 39.9366 169.45 38.8191 168.818 37.7227C168.185 36.5841 167.215 35.6353 165.908 34.8763C164.643 34.1172 163.083 33.7377 161.227 33.7377C158.992 33.7377 157.095 34.4124 155.534 35.7618C154.016 37.0691 152.962 38.8402 152.372 41.0751H169.893ZM181.416 28.7407H188.058V32.9787H188.374C189.344 31.4184 190.714 30.1533 192.485 29.1835C194.256 28.2136 196.154 27.7286 198.178 27.7286C200.498 27.7286 202.522 28.2768 204.251 29.3732C205.979 30.4274 207.223 31.8401 207.983 33.6112C209.079 31.8401 210.534 30.4274 212.347 29.3732C214.202 28.2768 216.374 27.7286 218.862 27.7286C222.573 27.7286 225.377 28.8672 227.275 31.1443C229.215 33.3793 230.185 36.4365 230.185 40.3161V61H223.227V41.5179C223.227 36.6263 221.139 34.1805 216.965 34.1805C214.73 34.1805 212.895 35.0871 211.461 36.9004C210.028 38.7137 209.311 40.9486 209.311 43.6053V61H202.353V41.5179C202.353 36.6263 200.202 34.1805 195.901 34.1805C193.708 34.1805 191.895 35.0871 190.461 36.9004C189.07 38.7137 188.374 40.9486 188.374 43.6053V61H181.416V28.7407ZM240.209 24.0599C238.902 24.0599 237.784 23.6171 236.857 22.7316C235.971 21.8039 235.528 20.6864 235.528 19.3792C235.528 18.0719 235.971 16.9755 236.857 16.09C237.784 15.1623 238.902 14.6984 240.209 14.6984C241.516 14.6984 242.613 15.1623 243.498 16.09C244.426 16.9755 244.89 18.0719 244.89 19.3792C244.89 20.6864 244.426 21.8039 243.498 22.7316C242.613 23.6171 241.516 24.0599 240.209 24.0599ZM236.73 28.7407H243.688V61H236.73V28.7407ZM284.722 62.0121C280.421 62.0121 276.457 60.9789 272.831 58.9126C269.204 56.8463 266.316 54.021 264.165 50.4367C262.057 46.8101 261.002 42.783 261.002 38.3552C261.002 33.9275 262.057 29.9214 264.165 26.337C266.316 22.7105 269.204 19.8641 272.831 17.7978C276.457 15.7315 280.421 14.6984 284.722 14.6984C288.138 14.6984 291.322 15.3098 294.274 16.5327C297.226 17.7556 299.692 19.4635 301.674 21.6563L296.741 26.5901C295.265 24.9455 293.494 23.6804 291.427 22.7948C289.403 21.9093 287.147 21.4665 284.659 21.4665C281.749 21.4665 279.03 22.1623 276.499 23.5539C273.969 24.9455 271.945 26.9274 270.427 29.4997C268.909 32.072 268.15 35.0239 268.15 38.3552C268.15 41.6866 268.909 44.6384 270.427 47.2107C271.945 49.783 273.969 51.765 276.499 53.1566C279.03 54.5481 281.771 55.2439 284.722 55.2439C287.421 55.2439 289.677 54.8433 291.491 54.0421C293.304 53.2409 294.927 52.1656 296.361 50.8162C297.289 49.8885 298.069 48.7288 298.701 47.3372C299.376 45.9457 299.819 44.4276 300.03 42.783H284.659V36.4576H306.735C306.945 37.6384 307.051 38.8613 307.051 40.1263C307.051 42.9938 306.608 45.7559 305.723 48.4125C304.837 51.027 303.424 53.3041 301.485 55.2439C297.226 59.756 291.638 62.0121 284.722 62.0121ZM326.622 62.0121C323.459 62.0121 320.613 61.2741 318.083 59.7982C315.595 58.3223 313.634 56.2982 312.2 53.7258C310.809 51.1114 310.113 48.1806 310.113 44.9336C310.113 41.8553 310.788 39.0088 312.137 36.3944C313.529 33.7377 315.447 31.6293 317.893 30.069C320.339 28.5088 323.122 27.7286 326.242 27.7286C329.489 27.7286 332.294 28.4455 334.655 29.8792C337.059 31.313 338.872 33.2739 340.095 35.7618C341.36 38.2498 341.993 41.054 341.993 44.1746C341.993 44.7649 341.929 45.5029 341.803 46.3884H317.071C317.324 49.3824 318.378 51.7017 320.233 53.3463C322.131 54.9487 324.324 55.75 326.812 55.75C328.794 55.75 330.502 55.3072 331.935 54.4216C333.411 53.4939 334.592 52.2499 335.477 50.6897L341.36 53.4728C339.842 56.1295 337.86 58.2168 335.414 59.7349C332.968 61.253 330.038 62.0121 326.622 62.0121ZM334.908 41.0751C334.824 39.9366 334.465 38.8191 333.833 37.7227C333.2 36.5841 332.23 35.6353 330.923 34.8763C329.658 34.1172 328.098 33.7377 326.242 33.7377C324.008 33.7377 322.11 34.4124 320.55 35.7618C319.032 37.0691 317.977 38.8402 317.387 41.0751H334.908ZM346.431 28.7407H353.073V32.9787H353.389C354.317 31.4606 355.687 30.2166 357.501 29.2467C359.356 28.2347 361.317 27.7286 363.383 27.7286C367.305 27.7286 370.278 28.8883 372.302 31.2076C374.368 33.4847 375.401 36.6052 375.401 40.5691V61H368.443V41.5179C368.443 38.9878 367.811 37.1323 366.546 35.9516C365.323 34.7709 363.615 34.1805 361.422 34.1805C359.862 34.1805 358.47 34.6233 357.248 35.5088C356.025 36.3522 355.076 37.4908 354.401 38.9245C353.726 40.3583 353.389 41.8974 353.389 43.542V61H346.431V28.7407ZM406.277 15.7105H414.374L431.389 61H423.546L419.497 49.4246H401.217L397.106 61H389.262L406.277 15.7105ZM417.094 42.8462L412.287 29.3732L410.515 24.1232H410.136L408.365 29.3732L403.558 42.8462H417.094ZM435.645 15.7105H442.73V61H435.645V15.7105Z" fill="#202124"/>
<path d="M10.9708 156.156H16.9749C17.8159 156.156 18.6024 156.35 19.3345 156.74C20.082 157.129 20.6739 157.666 21.11 158.352C21.5461 159.037 21.7641 159.808 21.7641 160.664C21.7641 161.474 21.5538 162.183 21.1333 162.79C20.7284 163.398 20.1755 163.865 19.4746 164.192V164.286C20.3157 164.566 21.0009 165.049 21.5305 165.734C22.06 166.419 22.3248 167.221 22.3248 168.14C22.3248 169.044 22.0912 169.861 21.6239 170.593C21.1723 171.31 20.5571 171.87 19.7783 172.275C19.0152 172.68 18.1897 172.883 17.302 172.883H10.9708V156.156ZM16.9749 163.398C17.5356 163.398 18.0262 163.265 18.4467 163.001C18.8828 162.736 19.2176 162.401 19.4513 161.996C19.6849 161.576 19.8017 161.147 19.8017 160.711C19.8017 160.291 19.6849 159.878 19.4513 159.473C19.2332 159.052 18.9139 158.71 18.4934 158.445C18.0885 158.18 17.6135 158.048 17.0683 158.048H12.9333V163.398H16.9749ZM17.4188 170.99C17.9795 170.99 18.4778 170.85 18.9139 170.57C19.3656 170.29 19.7082 169.931 19.9419 169.495C20.1911 169.044 20.3157 168.584 20.3157 168.117C20.3157 167.65 20.1911 167.198 19.9419 166.762C19.6927 166.31 19.3422 165.952 18.8906 165.687C18.4389 165.407 17.9172 165.267 17.3253 165.267H12.9333V170.99H17.4188ZM28.0823 173.257C27.2101 173.257 26.4313 173.085 25.7461 172.743C25.0608 172.4 24.5312 171.933 24.1574 171.341C23.7836 170.734 23.5967 170.048 23.5967 169.285C23.5967 168.024 24.0718 167.042 25.0218 166.341C25.9719 165.625 27.1711 165.267 28.6196 165.267C29.336 165.267 29.9979 165.345 30.6054 165.5C31.2283 165.656 31.7034 165.835 32.0304 166.038V165.314C32.0304 164.426 31.7189 163.717 31.096 163.188C30.473 162.642 29.6865 162.37 28.7364 162.37C28.0667 162.37 27.4515 162.518 26.8908 162.814C26.3301 163.094 25.8862 163.491 25.5592 164.005L24.064 162.884C24.5312 162.167 25.1698 161.607 25.9797 161.202C26.8051 160.797 27.7163 160.594 28.713 160.594C30.3328 160.594 31.6021 161.023 32.521 161.879C33.4555 162.72 33.9228 163.873 33.9228 165.337V172.883H32.0304V171.177H31.937C31.5944 171.754 31.0804 172.244 30.3951 172.649C29.7098 173.054 28.9389 173.257 28.0823 173.257ZM28.2692 171.504C28.9389 171.504 29.5619 171.333 30.1381 170.99C30.7144 170.648 31.1738 170.188 31.5165 169.612C31.8591 169.036 32.0304 168.405 32.0304 167.72C31.6566 167.471 31.1972 167.268 30.6521 167.112C30.107 166.957 29.5307 166.879 28.9233 166.879C27.8331 166.879 27.0076 167.105 26.4469 167.556C25.9018 168.008 25.6292 168.592 25.6292 169.308C25.6292 169.963 25.8784 170.492 26.3768 170.897C26.8752 171.302 27.506 171.504 28.2692 171.504ZM36.2181 160.968H38.1104V162.72H38.2039C38.5309 162.128 39.0527 161.63 39.7691 161.225C40.4856 160.805 41.2487 160.594 42.0586 160.594C43.4915 160.594 44.5817 161.015 45.3293 161.856C46.0924 162.681 46.474 163.811 46.474 165.243V172.883H44.4882V165.547C44.4882 164.441 44.2235 163.639 43.6939 163.141C43.1644 162.642 42.4402 162.393 41.5213 162.393C40.8827 162.393 40.3064 162.572 39.7925 162.931C39.2941 163.289 38.9047 163.764 38.6244 164.356C38.344 164.932 38.2039 165.539 38.2039 166.178V172.883H36.2181V160.968ZM53.9654 178.303C52.5637 178.303 51.4033 177.976 50.4844 177.322C49.5811 176.667 48.9737 175.881 48.6622 174.962L50.4611 174.191C50.7258 174.876 51.1619 175.429 51.7694 175.85C52.3923 176.286 53.1243 176.504 53.9654 176.504C55.1958 176.504 56.1458 176.146 56.8156 175.429C57.5008 174.713 57.8435 173.7 57.8435 172.392V171.061H57.75C57.3607 171.668 56.8078 172.166 56.0913 172.556C55.3905 172.93 54.5884 173.116 53.685 173.116C52.6571 173.116 51.7148 172.852 50.8582 172.322C50.0172 171.793 49.3475 171.053 48.8491 170.103C48.3507 169.153 48.1015 168.07 48.1015 166.855C48.1015 165.656 48.3507 164.582 48.8491 163.631C49.3475 162.666 50.0172 161.918 50.8582 161.389C51.7148 160.859 52.6571 160.594 53.685 160.594C54.5884 160.594 55.3905 160.789 56.0913 161.178C56.8078 161.552 57.3607 162.051 57.75 162.674H57.8435V160.968H59.7358V172.416C59.7358 174.331 59.2063 175.787 58.1472 176.784C57.0881 177.797 55.6942 178.303 53.9654 178.303ZM53.9654 171.318C54.6818 171.318 55.3282 171.138 55.9044 170.78C56.4963 170.422 56.9635 169.908 57.3062 169.238C57.6644 168.569 57.8435 167.774 57.8435 166.855C57.8435 165.921 57.6644 165.119 57.3062 164.449C56.9635 163.779 56.4963 163.273 55.9044 162.931C55.3282 162.572 54.6818 162.393 53.9654 162.393C53.2489 162.393 52.5948 162.572 52.003 162.931C51.4111 163.289 50.9361 163.803 50.5779 164.472C50.2352 165.142 50.0639 165.937 50.0639 166.855C50.0639 167.774 50.2352 168.576 50.5779 169.262C50.9361 169.931 51.4111 170.445 52.003 170.804C52.5948 171.146 53.2489 171.318 53.9654 171.318ZM66.4126 173.257C64.9797 173.257 63.8817 172.836 63.1186 171.995C62.371 171.154 61.9972 169.978 61.9972 168.467V160.968H63.9829V168.164C63.9829 169.301 64.2399 170.134 64.7539 170.663C65.2679 171.193 65.9609 171.458 66.8331 171.458C67.5028 171.458 68.0947 171.279 68.6086 170.92C69.1382 170.562 69.5431 170.095 69.8235 169.519C70.1194 168.942 70.2673 168.335 70.2673 167.696V160.968H72.2531V172.883H70.3608V171.154H70.2673C69.9403 171.746 69.4185 172.244 68.7021 172.649C67.9856 173.054 67.2225 173.257 66.4126 173.257ZM74.7189 160.968H76.6112V162.72H76.7047C77.0317 162.128 77.5535 161.63 78.2699 161.225C78.9864 160.805 79.7495 160.594 80.5594 160.594C81.9923 160.594 83.0825 161.015 83.8301 161.856C84.5933 162.681 84.9748 163.811 84.9748 165.243V172.883H82.9891V165.547C82.9891 164.441 82.7243 163.639 82.1948 163.141C81.6652 162.642 80.941 162.393 80.0221 162.393C79.3835 162.393 78.8073 162.572 78.2933 162.931C77.7949 163.289 77.4055 163.764 77.1252 164.356C76.8448 164.932 76.7047 165.539 76.7047 166.178V172.883H74.7189V160.968ZM97.356 173.257C96.2969 173.257 95.3313 172.984 94.4591 172.439C93.6025 171.894 92.925 171.146 92.4266 170.196C91.9282 169.231 91.679 168.14 91.679 166.925C91.679 165.726 91.9282 164.644 92.4266 163.678C92.925 162.713 93.6025 161.957 94.4591 161.412C95.3313 160.867 96.2969 160.594 97.356 160.594C98.2749 160.594 99.0926 160.805 99.809 161.225C100.525 161.63 101.071 162.136 101.444 162.744H101.538L101.444 161.085V156.156H103.43V172.883H101.538V171.131H101.444C101.071 171.722 100.525 172.229 99.809 172.649C99.0926 173.054 98.2749 173.257 97.356 173.257ZM97.5896 171.458C98.2905 171.458 98.9368 171.271 99.5287 170.897C100.136 170.523 100.619 169.994 100.977 169.308C101.351 168.623 101.538 167.829 101.538 166.925C101.538 166.022 101.351 165.228 100.977 164.543C100.619 163.857 100.136 163.328 99.5287 162.954C98.9368 162.58 98.2905 162.393 97.5896 162.393C96.9043 162.393 96.258 162.58 95.6506 162.954C95.0431 163.328 94.5525 163.865 94.1787 164.566C93.8205 165.251 93.6414 166.038 93.6414 166.925C93.6414 167.813 93.8205 168.608 94.1787 169.308C94.5525 169.994 95.0431 170.523 95.6506 170.897C96.258 171.271 96.9043 171.458 97.5896 171.458ZM107.064 158.772C106.675 158.772 106.34 158.632 106.06 158.352C105.779 158.071 105.639 157.736 105.639 157.347C105.639 156.958 105.779 156.631 106.06 156.366C106.34 156.086 106.675 155.945 107.064 155.945C107.454 155.945 107.789 156.086 108.069 156.366C108.349 156.631 108.489 156.958 108.489 157.347C108.489 157.736 108.349 158.071 108.069 158.352C107.804 158.632 107.469 158.772 107.064 158.772ZM106.083 160.968H108.046V172.883H106.083V160.968ZM120.164 156.156H122.407L128.761 172.883H126.589L124.907 168.28H117.688L116.006 172.883H113.833L120.164 156.156ZM124.229 166.412L122.01 160.384L121.332 158.585H121.239L120.585 160.384L118.365 166.412H124.229ZM134.274 173.257C132.997 173.257 131.93 172.961 131.073 172.369C130.216 171.761 129.609 170.99 129.251 170.056L131.026 169.262C131.322 169.978 131.758 170.531 132.335 170.92C132.926 171.31 133.573 171.504 134.274 171.504C135.021 171.504 135.66 171.356 136.189 171.061C136.719 170.749 136.984 170.313 136.984 169.752C136.984 169.254 136.773 168.857 136.353 168.561C135.932 168.249 135.27 167.985 134.367 167.767L132.919 167.393C131.969 167.159 131.19 166.762 130.582 166.201C129.975 165.641 129.671 164.916 129.671 164.029C129.671 163.343 129.874 162.744 130.279 162.23C130.699 161.7 131.252 161.295 131.937 161.015C132.623 160.735 133.363 160.594 134.157 160.594C135.2 160.594 136.127 160.82 136.937 161.272C137.762 161.724 138.346 162.354 138.689 163.164L136.96 163.959C136.431 162.899 135.488 162.37 134.133 162.37C133.479 162.37 132.903 162.526 132.405 162.837C131.922 163.133 131.68 163.515 131.68 163.982C131.68 164.418 131.852 164.776 132.194 165.057C132.537 165.321 133.051 165.539 133.736 165.711L135.465 166.155C136.633 166.45 137.513 166.894 138.105 167.486C138.697 168.062 138.993 168.771 138.993 169.612C138.993 170.344 138.783 170.99 138.362 171.551C137.941 172.096 137.373 172.517 136.657 172.813C135.94 173.109 135.146 173.257 134.274 173.257ZM141.744 158.772C141.355 158.772 141.02 158.632 140.74 158.352C140.459 158.071 140.319 157.736 140.319 157.347C140.319 156.958 140.459 156.631 140.74 156.366C141.02 156.086 141.355 155.945 141.744 155.945C142.134 155.945 142.468 156.086 142.749 156.366C143.029 156.631 143.169 156.958 143.169 157.347C143.169 157.736 143.029 158.071 142.749 158.352C142.484 158.632 142.149 158.772 141.744 158.772ZM140.763 160.968H142.725V172.883H140.763V160.968ZM149.073 173.257C148.201 173.257 147.422 173.085 146.737 172.743C146.051 172.4 145.522 171.933 145.148 171.341C144.774 170.734 144.587 170.048 144.587 169.285C144.587 168.024 145.062 167.042 146.013 166.341C146.963 165.625 148.162 165.267 149.61 165.267C150.327 165.267 150.989 165.345 151.596 165.5C152.219 165.656 152.694 165.835 153.021 166.038V165.314C153.021 164.426 152.71 163.717 152.087 163.188C151.464 162.642 150.677 162.37 149.727 162.37C149.057 162.37 148.442 162.518 147.881 162.814C147.321 163.094 146.877 163.491 146.55 164.005L145.055 162.884C145.522 162.167 146.16 161.607 146.97 161.202C147.796 160.797 148.707 160.594 149.704 160.594C151.323 160.594 152.593 161.023 153.512 161.879C154.446 162.72 154.913 163.873 154.913 165.337V172.883H153.021V171.177H152.928C152.585 171.754 152.071 172.244 151.386 172.649C150.701 173.054 149.93 173.257 149.073 173.257ZM149.26 171.504C149.93 171.504 150.553 171.333 151.129 170.99C151.705 170.648 152.165 170.188 152.507 169.612C152.85 169.036 153.021 168.405 153.021 167.72C152.647 167.471 152.188 167.268 151.643 167.112C151.098 166.957 150.521 166.879 149.914 166.879C148.824 166.879 147.998 167.105 147.438 167.556C146.892 168.008 146.62 168.592 146.62 169.308C146.62 169.963 146.869 170.492 147.368 170.897C147.866 171.302 148.497 171.504 149.26 171.504ZM162.569 156.156H168.199C169.133 156.156 169.998 156.366 170.792 156.786C171.586 157.207 172.217 157.799 172.684 158.562C173.167 159.309 173.409 160.158 173.409 161.108C173.409 162.058 173.167 162.915 172.684 163.678C172.217 164.426 171.586 165.01 170.792 165.43C169.998 165.851 169.133 166.061 168.199 166.061H164.531V172.883H162.569V156.156ZM168.246 164.169C168.869 164.169 169.414 164.021 169.881 163.725C170.364 163.429 170.737 163.047 171.002 162.58C171.267 162.113 171.399 161.622 171.399 161.108C171.399 160.594 171.267 160.104 171.002 159.637C170.737 159.169 170.364 158.788 169.881 158.492C169.414 158.196 168.869 158.048 168.246 158.048H164.531V164.169H168.246ZM178.516 173.257C177.644 173.257 176.866 173.085 176.18 172.743C175.495 172.4 174.965 171.933 174.592 171.341C174.218 170.734 174.031 170.048 174.031 169.285C174.031 168.024 174.506 167.042 175.456 166.341C176.406 165.625 177.605 165.267 179.054 165.267C179.77 165.267 180.432 165.345 181.04 165.5C181.663 165.656 182.138 165.835 182.465 166.038V165.314C182.465 164.426 182.153 163.717 181.53 163.188C180.907 162.642 180.121 162.37 179.171 162.37C178.501 162.37 177.886 162.518 177.325 162.814C176.764 163.094 176.32 163.491 175.993 164.005L174.498 162.884C174.965 162.167 175.604 161.607 176.414 161.202C177.239 160.797 178.15 160.594 179.147 160.594C180.767 160.594 182.036 161.023 182.955 161.879C183.89 162.72 184.357 163.873 184.357 165.337V172.883H182.465V171.177H182.371C182.029 171.754 181.515 172.244 180.829 172.649C180.144 173.054 179.373 173.257 178.516 173.257ZM178.703 171.504C179.373 171.504 179.996 171.333 180.572 170.99C181.149 170.648 181.608 170.188 181.951 169.612C182.293 169.036 182.465 168.405 182.465 167.72C182.091 167.471 181.631 167.268 181.086 167.112C180.541 166.957 179.965 166.879 179.357 166.879C178.267 166.879 177.442 167.105 176.881 167.556C176.336 168.008 176.063 168.592 176.063 169.308C176.063 169.963 176.313 170.492 176.811 170.897C177.309 171.302 177.94 171.504 178.703 171.504ZM190.697 173.257C189.419 173.257 188.353 172.961 187.496 172.369C186.639 171.761 186.032 170.99 185.674 170.056L187.449 169.262C187.745 169.978 188.181 170.531 188.758 170.92C189.349 171.31 189.996 171.504 190.697 171.504C191.444 171.504 192.083 171.356 192.612 171.061C193.142 170.749 193.407 170.313 193.407 169.752C193.407 169.254 193.196 168.857 192.776 168.561C192.355 168.249 191.693 167.985 190.79 167.767L189.342 167.393C188.392 167.159 187.613 166.762 187.005 166.201C186.398 165.641 186.094 164.916 186.094 164.029C186.094 163.343 186.297 162.744 186.702 162.23C187.122 161.7 187.675 161.295 188.36 161.015C189.046 160.735 189.785 160.594 190.58 160.594C191.623 160.594 192.55 160.82 193.36 161.272C194.185 161.724 194.769 162.354 195.112 163.164L193.383 163.959C192.854 162.899 191.911 162.37 190.556 162.37C189.902 162.37 189.326 162.526 188.828 162.837C188.345 163.133 188.103 163.515 188.103 163.982C188.103 164.418 188.275 164.776 188.617 165.057C188.96 165.321 189.474 165.539 190.159 165.711L191.888 166.155C193.056 166.45 193.936 166.894 194.528 167.486C195.12 168.062 195.416 168.771 195.416 169.612C195.416 170.344 195.205 170.99 194.785 171.551C194.364 172.096 193.796 172.517 193.08 172.813C192.363 173.109 191.569 173.257 190.697 173.257ZM198.167 158.772C197.778 158.772 197.443 158.632 197.163 158.352C196.882 158.071 196.742 157.736 196.742 157.347C196.742 156.958 196.882 156.631 197.163 156.366C197.443 156.086 197.778 155.945 198.167 155.945C198.557 155.945 198.891 156.086 199.172 156.366C199.452 156.631 199.592 156.958 199.592 157.347C199.592 157.736 199.452 158.071 199.172 158.352C198.907 158.632 198.572 158.772 198.167 158.772ZM197.186 160.968H199.148V172.883H197.186V160.968ZM203.18 162.767H200.984V160.968H203.18V159.683C203.18 158.936 203.352 158.282 203.694 157.721C204.037 157.16 204.496 156.732 205.073 156.436C205.649 156.124 206.287 155.969 206.988 155.969C207.658 155.969 208.242 156.062 208.741 156.249V158.188C208.46 158.079 208.195 157.993 207.946 157.931C207.697 157.853 207.401 157.814 207.058 157.814C206.544 157.814 206.101 158.001 205.727 158.375C205.353 158.733 205.166 159.239 205.166 159.894V160.968H212.549V172.883H210.586V162.767H205.166V172.883H203.18V162.767ZM211.567 158.889C211.178 158.889 210.843 158.749 210.563 158.468C210.282 158.188 210.142 157.853 210.142 157.464C210.142 157.075 210.282 156.74 210.563 156.459C210.843 156.179 211.178 156.039 211.567 156.039C211.957 156.039 212.292 156.179 212.572 156.459C212.852 156.74 212.992 157.075 212.992 157.464C212.992 157.853 212.852 158.188 212.572 158.468C212.307 158.749 211.972 158.889 211.567 158.889ZM215.206 156.156H217.192V166.669L222.799 160.968H225.322V161.062L220.649 165.781L225.439 172.789V172.883H223.079L219.248 167.159L217.192 169.215V172.883H215.206V156.156ZM227.842 173.023C227.422 173.023 227.063 172.883 226.767 172.602C226.487 172.307 226.347 171.948 226.347 171.528C226.347 171.123 226.487 170.78 226.767 170.5C227.063 170.204 227.422 170.056 227.842 170.056C228.247 170.056 228.59 170.204 228.87 170.5C229.166 170.78 229.314 171.123 229.314 171.528C229.314 171.948 229.166 172.307 228.87 172.602C228.59 172.883 228.247 173.023 227.842 173.023ZM236.993 156.156H242.997C243.838 156.156 244.625 156.35 245.357 156.74C246.104 157.129 246.696 157.666 247.132 158.352C247.568 159.037 247.786 159.808 247.786 160.664C247.786 161.474 247.576 162.183 247.156 162.79C246.751 163.398 246.198 163.865 245.497 164.192V164.286C246.338 164.566 247.023 165.049 247.553 165.734C248.082 166.419 248.347 167.221 248.347 168.14C248.347 169.044 248.113 169.861 247.646 170.593C247.194 171.31 246.579 171.87 245.801 172.275C245.037 172.68 244.212 172.883 243.324 172.883H236.993V156.156ZM242.997 163.398C243.558 163.398 244.048 163.265 244.469 163.001C244.905 162.736 245.24 162.401 245.473 161.996C245.707 161.576 245.824 161.147 245.824 160.711C245.824 160.291 245.707 159.878 245.473 159.473C245.255 159.052 244.936 158.71 244.516 158.445C244.111 158.18 243.636 158.048 243.091 158.048H238.955V163.398H242.997ZM243.441 170.99C244.002 170.99 244.5 170.85 244.936 170.57C245.388 170.29 245.73 169.931 245.964 169.495C246.213 169.044 246.338 168.584 246.338 168.117C246.338 167.65 246.213 167.198 245.964 166.762C245.715 166.31 245.364 165.952 244.913 165.687C244.461 165.407 243.939 165.267 243.348 165.267H238.955V170.99H243.441ZM254.104 173.257C253.232 173.257 252.454 173.085 251.768 172.743C251.083 172.4 250.553 171.933 250.18 171.341C249.806 170.734 249.619 170.048 249.619 169.285C249.619 168.024 250.094 167.042 251.044 166.341C251.994 165.625 253.193 165.267 254.642 165.267C255.358 165.267 256.02 165.345 256.628 165.5C257.251 165.656 257.726 165.835 258.053 166.038V165.314C258.053 164.426 257.741 163.717 257.118 163.188C256.495 162.642 255.709 162.37 254.759 162.37C254.089 162.37 253.474 162.518 252.913 162.814C252.352 163.094 251.908 163.491 251.581 164.005L250.086 162.884C250.553 162.167 251.192 161.607 252.002 161.202C252.827 160.797 253.738 160.594 254.735 160.594C256.355 160.594 257.624 161.023 258.543 161.879C259.478 162.72 259.945 163.873 259.945 165.337V172.883H258.053V171.177H257.959C257.617 171.754 257.103 172.244 256.417 172.649C255.732 173.054 254.961 173.257 254.104 173.257ZM254.291 171.504C254.961 171.504 255.584 171.333 256.16 170.99C256.737 170.648 257.196 170.188 257.539 169.612C257.881 169.036 258.053 168.405 258.053 167.72C257.679 167.471 257.219 167.268 256.674 167.112C256.129 166.957 255.553 166.879 254.945 166.879C253.855 166.879 253.03 167.105 252.469 167.556C251.924 168.008 251.651 168.592 251.651 169.308C251.651 169.963 251.901 170.492 252.399 170.897C252.897 171.302 253.528 171.504 254.291 171.504ZM262.24 160.968H264.133V162.72H264.226C264.553 162.128 265.075 161.63 265.791 161.225C266.508 160.805 267.271 160.594 268.081 160.594C269.514 160.594 270.604 161.015 271.351 161.856C272.115 162.681 272.496 163.811 272.496 165.243V172.883H270.51V165.547C270.51 164.441 270.246 163.639 269.716 163.141C269.187 162.642 268.462 162.393 267.543 162.393C266.905 162.393 266.329 162.572 265.815 162.931C265.316 163.289 264.927 163.764 264.647 164.356C264.366 164.932 264.226 165.539 264.226 166.178V172.883H262.24V160.968ZM279.988 178.303C278.586 178.303 277.426 177.976 276.507 177.322C275.603 176.667 274.996 175.881 274.684 174.962L276.483 174.191C276.748 174.876 277.184 175.429 277.792 175.85C278.415 176.286 279.147 176.504 279.988 176.504C281.218 176.504 282.168 176.146 282.838 175.429C283.523 174.713 283.866 173.7 283.866 172.392V171.061H283.772C283.383 171.668 282.83 172.166 282.114 172.556C281.413 172.93 280.611 173.116 279.707 173.116C278.679 173.116 277.737 172.852 276.88 172.322C276.039 171.793 275.37 171.053 274.871 170.103C274.373 169.153 274.124 168.07 274.124 166.855C274.124 165.656 274.373 164.582 274.871 163.631C275.37 162.666 276.039 161.918 276.88 161.389C277.737 160.859 278.679 160.594 279.707 160.594C280.611 160.594 281.413 160.789 282.114 161.178C282.83 161.552 283.383 162.051 283.772 162.674H283.866V160.968H285.758V172.416C285.758 174.331 285.228 175.787 284.169 176.784C283.11 177.797 281.716 178.303 279.988 178.303ZM279.988 171.318C280.704 171.318 281.35 171.138 281.927 170.78C282.518 170.422 282.986 169.908 283.328 169.238C283.687 168.569 283.866 167.774 283.866 166.855C283.866 165.921 283.687 165.119 283.328 164.449C282.986 163.779 282.518 163.273 281.927 162.931C281.35 162.572 280.704 162.393 279.988 162.393C279.271 162.393 278.617 162.572 278.025 162.931C277.433 163.289 276.958 163.803 276.6 164.472C276.257 165.142 276.086 165.937 276.086 166.855C276.086 167.774 276.257 168.576 276.6 169.262C276.958 169.931 277.433 170.445 278.025 170.804C278.617 171.146 279.271 171.318 279.988 171.318ZM292.435 173.257C291.002 173.257 289.904 172.836 289.141 171.995C288.393 171.154 288.019 169.978 288.019 168.467V160.968H290.005V168.164C290.005 169.301 290.262 170.134 290.776 170.663C291.29 171.193 291.983 171.458 292.855 171.458C293.525 171.458 294.117 171.279 294.631 170.92C295.16 170.562 295.565 170.095 295.846 169.519C296.142 168.942 296.29 168.335 296.29 167.696V160.968H298.275V172.883H296.383V171.154H296.29C295.962 171.746 295.441 172.244 294.724 172.649C294.008 173.054 293.245 173.257 292.435 173.257ZM300.741 160.968H302.633V162.72H302.727C303.054 162.128 303.576 161.63 304.292 161.225C305.009 160.805 305.772 160.594 306.582 160.594C308.014 160.594 309.105 161.015 309.852 161.856C310.615 162.681 310.997 163.811 310.997 165.243V172.883H309.011V165.547C309.011 164.441 308.746 163.639 308.217 163.141C307.687 162.642 306.963 162.393 306.044 162.393C305.406 162.393 304.829 162.572 304.315 162.931C303.817 163.289 303.428 163.764 303.147 164.356C302.867 164.932 302.727 165.539 302.727 166.178V172.883H300.741V160.968ZM322.654 173.257C321.221 173.257 320.123 172.836 319.36 171.995C318.612 171.154 318.239 169.978 318.239 168.467V160.968H320.224V168.164C320.224 169.301 320.481 170.134 320.995 170.663C321.509 171.193 322.202 171.458 323.074 171.458C323.744 171.458 324.336 171.279 324.85 170.92C325.38 170.562 325.784 170.095 326.065 169.519C326.361 168.942 326.509 168.335 326.509 167.696V160.968H328.494V172.883H326.602V171.154H326.509C326.182 171.746 325.66 172.244 324.943 172.649C324.227 173.054 323.464 173.257 322.654 173.257ZM330.96 160.968H332.853V162.72H332.946C333.273 162.128 333.795 161.63 334.511 161.225C335.228 160.805 335.991 160.594 336.801 160.594C338.234 160.594 339.324 161.015 340.071 161.856C340.835 162.681 341.216 163.811 341.216 165.243V172.883H339.23V165.547C339.23 164.441 338.966 163.639 338.436 163.141C337.907 162.642 337.182 162.393 336.263 162.393C335.625 162.393 335.049 162.572 334.535 162.931C334.036 163.289 333.647 163.764 333.367 164.356C333.086 164.932 332.946 165.539 332.946 166.178V172.883H330.96V160.968ZM347.574 173.07C347.092 173.07 346.64 172.992 346.219 172.836C345.814 172.68 345.472 172.47 345.191 172.205C344.88 171.909 344.646 171.567 344.491 171.177C344.335 170.788 344.257 170.313 344.257 169.752V162.767H342.178V160.968H344.257V157.604H346.243V160.968H349.14V162.767H346.243V169.262C346.243 169.916 346.367 170.399 346.616 170.71C346.912 171.053 347.341 171.224 347.901 171.224C348.353 171.224 348.789 171.092 349.21 170.827V172.766C348.976 172.875 348.735 172.953 348.485 173C348.252 173.046 347.948 173.07 347.574 173.07ZM355.406 173.257C353.973 173.257 352.875 172.836 352.111 171.995C351.364 171.154 350.99 169.978 350.99 168.467V160.968H352.976V168.164C352.976 169.301 353.233 170.134 353.747 170.663C354.261 171.193 354.954 171.458 355.826 171.458C356.496 171.458 357.088 171.279 357.602 170.92C358.131 170.562 358.536 170.095 358.816 169.519C359.112 168.942 359.26 168.335 359.26 167.696V160.968H361.246V172.883H359.354V171.154H359.26C358.933 171.746 358.411 172.244 357.695 172.649C356.979 173.054 356.215 173.257 355.406 173.257ZM363.712 156.156H365.698V166.669L371.304 160.968H373.828V161.062L369.155 165.781L373.944 172.789V172.883H371.585L367.753 167.159L365.698 169.215V172.883H363.712V156.156ZM385.048 173.257C383.989 173.257 383.024 172.984 382.152 172.439C381.295 171.894 380.617 171.146 380.119 170.196C379.621 169.231 379.371 168.14 379.371 166.925C379.371 165.726 379.621 164.644 380.119 163.678C380.617 162.713 381.295 161.957 382.152 161.412C383.024 160.867 383.989 160.594 385.048 160.594C385.967 160.594 386.785 160.805 387.501 161.225C388.218 161.63 388.763 162.136 389.137 162.744H389.23L389.137 161.085V156.156H391.123V172.883H389.23V171.131H389.137C388.763 171.722 388.218 172.229 387.501 172.649C386.785 173.054 385.967 173.257 385.048 173.257ZM385.282 171.458C385.983 171.458 386.629 171.271 387.221 170.897C387.829 170.523 388.311 169.994 388.67 169.308C389.043 168.623 389.23 167.829 389.23 166.925C389.23 166.022 389.043 165.228 388.67 164.543C388.311 163.857 387.829 163.328 387.221 162.954C386.629 162.58 385.983 162.393 385.282 162.393C384.597 162.393 383.95 162.58 383.343 162.954C382.736 163.328 382.245 163.865 381.871 164.566C381.513 165.251 381.334 166.038 381.334 166.925C381.334 167.813 381.513 168.608 381.871 169.308C382.245 169.994 382.736 170.523 383.343 170.897C383.95 171.271 384.597 171.458 385.282 171.458ZM397.911 173.257C396.478 173.257 395.38 172.836 394.617 171.995C393.869 171.154 393.495 169.978 393.495 168.467V160.968H395.481V168.164C395.481 169.301 395.738 170.134 396.252 170.663C396.766 171.193 397.459 171.458 398.331 171.458C399.001 171.458 399.593 171.279 400.107 170.92C400.636 170.562 401.041 170.095 401.322 169.519C401.618 168.942 401.765 168.335 401.765 167.696V160.968H403.751V172.883H401.859V171.154H401.765C401.438 171.746 400.917 172.244 400.2 172.649C399.484 173.054 398.721 173.257 397.911 173.257ZM406.217 160.968H408.109V162.72H408.203C408.53 162.128 409.052 161.63 409.768 161.225C410.485 160.805 411.248 160.594 412.058 160.594C413.49 160.594 414.581 161.015 415.328 161.856C416.091 162.681 416.473 163.811 416.473 165.243V172.883H414.487V165.547C414.487 164.441 414.222 163.639 413.693 163.141C413.163 162.642 412.439 162.393 411.52 162.393C410.882 162.393 410.305 162.572 409.791 162.931C409.293 163.289 408.904 163.764 408.623 164.356C408.343 164.932 408.203 165.539 408.203 166.178V172.883H406.217V160.968ZM420.013 158.772C419.624 158.772 419.289 158.632 419.009 158.352C418.728 158.071 418.588 157.736 418.588 157.347C418.588 156.958 418.728 156.631 419.009 156.366C419.289 156.086 419.624 155.945 420.013 155.945C420.403 155.945 420.738 156.086 421.018 156.366C421.298 156.631 421.438 156.958 421.438 157.347C421.438 157.736 421.298 158.071 421.018 158.352C420.753 158.632 420.418 158.772 420.013 158.772ZM419.032 160.968H420.995V172.883H419.032V160.968ZM427.342 173.257C426.47 173.257 425.691 173.085 425.006 172.743C424.321 172.4 423.791 171.933 423.417 171.341C423.044 170.734 422.857 170.048 422.857 169.285C422.857 168.024 423.332 167.042 424.282 166.341C425.232 165.625 426.431 165.267 427.879 165.267C428.596 165.267 429.258 165.345 429.865 165.5C430.488 165.656 430.963 165.835 431.29 166.038V165.314C431.29 164.426 430.979 163.717 430.356 163.188C429.733 162.642 428.946 162.37 427.996 162.37C427.327 162.37 426.711 162.518 426.151 162.814C425.59 163.094 425.146 163.491 424.819 164.005L423.324 162.884C423.791 162.167 424.43 161.607 425.24 161.202C426.065 160.797 426.976 160.594 427.973 160.594C429.593 160.594 430.862 161.023 431.781 161.879C432.715 162.72 433.183 163.873 433.183 165.337V172.883H431.29V171.177H431.197C430.854 171.754 430.34 172.244 429.655 172.649C428.97 173.054 428.199 173.257 427.342 173.257ZM427.529 171.504C428.199 171.504 428.822 171.333 429.398 170.99C429.974 170.648 430.434 170.188 430.776 169.612C431.119 169.036 431.29 168.405 431.29 167.72C430.917 167.471 430.457 167.268 429.912 167.112C429.367 166.957 428.791 166.879 428.183 166.879C427.093 166.879 426.267 167.105 425.707 167.556C425.162 168.008 424.889 168.592 424.889 169.308C424.889 169.963 425.138 170.492 425.637 170.897C426.135 171.302 426.766 171.504 427.529 171.504ZM436.786 173.023C436.366 173.023 436.008 172.883 435.712 172.602C435.431 172.307 435.291 171.948 435.291 171.528C435.291 171.123 435.431 170.78 435.712 170.5C436.008 170.204 436.366 170.056 436.786 170.056C437.191 170.056 437.534 170.204 437.814 170.5C438.11 170.78 438.258 171.123 438.258 171.528C438.258 171.948 438.11 172.307 437.814 172.602C437.534 172.883 437.191 173.023 436.786 173.023Z" fill="#2B2B2B"/>
<rect x="126.585" y="85.918" width="195.127" height="49.4936" rx="24.7468" fill="#D9D9D9"/>
<rect x="126.585" y="85.918" width="195.127" height="49.4936" rx="24.7468" fill="url(#paint0_linear_1048_1328)"/>
<path d="M159.174 103.576H167.266V105.566H161.257V109.249H166.67V111.221H161.257V114.904H167.266V116.895H159.174V103.576ZM172.654 117.192C171.799 117.192 171.024 116.975 170.329 116.541C169.635 116.107 169.083 115.512 168.674 114.755C168.277 113.986 168.078 113.118 168.078 112.151C168.078 111.184 168.277 110.322 168.674 109.565C169.083 108.797 169.635 108.195 170.329 107.761C171.024 107.327 171.799 107.11 172.654 107.11C173.324 107.11 173.925 107.259 174.459 107.556C174.992 107.854 175.395 108.22 175.668 108.654H175.761L175.668 107.315V103.576H177.714V116.895H175.761V115.667H175.668C175.395 116.088 174.992 116.448 174.459 116.746C173.925 117.043 173.324 117.192 172.654 117.192ZM172.952 115.313C173.448 115.313 173.907 115.183 174.328 114.923C174.763 114.662 175.11 114.29 175.37 113.807C175.631 113.323 175.761 112.771 175.761 112.151C175.761 111.531 175.631 110.985 175.37 110.514C175.11 110.031 174.763 109.658 174.328 109.398C173.907 109.138 173.448 109.007 172.952 109.007C172.456 109.007 171.991 109.138 171.557 109.398C171.123 109.658 170.776 110.031 170.515 110.514C170.255 110.985 170.125 111.531 170.125 112.151C170.125 112.771 170.255 113.323 170.515 113.807C170.776 114.29 171.123 114.662 171.557 114.923C171.991 115.183 172.456 115.313 172.952 115.313ZM180.712 106.031C180.327 106.031 179.999 105.901 179.726 105.641C179.466 105.368 179.335 105.039 179.335 104.655C179.335 104.27 179.466 103.948 179.726 103.687C179.999 103.415 180.327 103.278 180.712 103.278C181.096 103.278 181.419 103.415 181.679 103.687C181.952 103.948 182.088 104.27 182.088 104.655C182.088 105.039 181.952 105.368 181.679 105.641C181.419 105.901 181.096 106.031 180.712 106.031ZM179.689 107.408H181.735V116.895H179.689V107.408ZM187.183 117.192C186.092 117.192 185.199 116.957 184.504 116.485C183.81 116.002 183.32 115.388 183.035 114.644L184.858 113.844C185.081 114.34 185.391 114.718 185.788 114.979C186.197 115.239 186.662 115.369 187.183 115.369C187.692 115.369 188.119 115.282 188.467 115.109C188.814 114.923 188.987 114.65 188.987 114.29C188.987 113.943 188.839 113.67 188.541 113.472C188.243 113.273 187.785 113.1 187.164 112.951L186.03 112.672C185.273 112.486 184.647 112.157 184.151 111.686C183.655 111.215 183.407 110.62 183.407 109.9C183.407 109.342 183.568 108.852 183.891 108.431C184.225 108.009 184.672 107.687 185.23 107.463C185.788 107.228 186.396 107.11 187.053 107.11C187.933 107.11 188.708 107.29 189.378 107.65C190.048 107.997 190.531 108.505 190.829 109.175L189.043 109.956C188.684 109.224 188.026 108.859 187.071 108.859C186.613 108.859 186.228 108.952 185.918 109.138C185.608 109.324 185.453 109.565 185.453 109.863C185.453 110.148 185.571 110.384 185.807 110.57C186.042 110.744 186.389 110.892 186.848 111.016L188.243 111.37C189.173 111.605 189.874 111.965 190.345 112.449C190.829 112.92 191.071 113.503 191.071 114.197C191.071 114.793 190.897 115.32 190.55 115.778C190.215 116.225 189.75 116.572 189.155 116.82C188.56 117.068 187.902 117.192 187.183 117.192ZM193.365 106.031C192.981 106.031 192.652 105.901 192.38 105.641C192.119 105.368 191.989 105.039 191.989 104.655C191.989 104.27 192.119 103.948 192.38 103.687C192.652 103.415 192.981 103.278 193.365 103.278C193.75 103.278 194.072 103.415 194.333 103.687C194.606 103.948 194.742 104.27 194.742 104.655C194.742 105.039 194.606 105.368 194.333 105.641C194.072 105.901 193.75 106.031 193.365 106.031ZM192.342 107.408H194.388V116.895H192.342V107.408ZM203.708 103.576H206.089L211.092 116.895H208.786L207.595 113.49H202.219L201.01 116.895H198.704L203.708 103.576ZM206.889 111.556L205.475 107.594L204.954 106.05H204.842L204.321 107.594L202.908 111.556H206.889ZM215.469 117.192C214.378 117.192 213.485 116.957 212.791 116.485C212.096 116.002 211.606 115.388 211.321 114.644L213.144 113.844C213.367 114.34 213.677 114.718 214.074 114.979C214.483 115.239 214.948 115.369 215.469 115.369C215.978 115.369 216.406 115.282 216.753 115.109C217.1 114.923 217.274 114.65 217.274 114.29C217.274 113.943 217.125 113.67 216.827 113.472C216.53 113.273 216.071 113.1 215.451 112.951L214.316 112.672C213.559 112.486 212.933 112.157 212.437 111.686C211.941 111.215 211.693 110.62 211.693 109.9C211.693 109.342 211.854 108.852 212.177 108.431C212.512 108.009 212.958 107.687 213.516 107.463C214.074 107.228 214.682 107.11 215.339 107.11C216.22 107.11 216.995 107.29 217.664 107.65C218.334 107.997 218.818 108.505 219.115 109.175L217.329 109.956C216.97 109.224 216.313 108.859 215.358 108.859C214.899 108.859 214.514 108.952 214.204 109.138C213.894 109.324 213.739 109.565 213.739 109.863C213.739 110.148 213.857 110.384 214.093 110.57C214.328 110.744 214.676 110.892 215.134 111.016L216.53 111.37C217.46 111.605 218.16 111.965 218.632 112.449C219.115 112.92 219.357 113.503 219.357 114.197C219.357 114.793 219.183 115.32 218.836 115.778C218.501 116.225 218.036 116.572 217.441 116.82C216.846 117.068 216.189 117.192 215.469 117.192ZM221.652 106.031C221.267 106.031 220.938 105.901 220.666 105.641C220.405 105.368 220.275 105.039 220.275 104.655C220.275 104.27 220.405 103.948 220.666 103.687C220.938 103.415 221.267 103.278 221.652 103.278C222.036 103.278 222.358 103.415 222.619 103.687C222.892 103.948 223.028 104.27 223.028 104.655C223.028 105.039 222.892 105.368 222.619 105.641C222.358 105.901 222.036 106.031 221.652 106.031ZM220.628 107.408H222.675V116.895H220.628V107.408ZM227.548 117.192C226.866 117.192 226.259 117.062 225.725 116.802C225.192 116.529 224.777 116.15 224.479 115.667C224.181 115.171 224.033 114.613 224.033 113.993C224.033 113.013 224.398 112.238 225.13 111.667C225.874 111.097 226.81 110.812 227.939 110.812C228.497 110.812 228.999 110.868 229.446 110.979C229.892 111.078 230.246 111.19 230.506 111.314V110.83C230.506 110.248 230.289 109.776 229.855 109.417C229.421 109.045 228.863 108.859 228.181 108.859C227.697 108.859 227.238 108.964 226.804 109.175C226.383 109.386 226.042 109.677 225.781 110.049L224.349 108.952C224.77 108.369 225.316 107.916 225.986 107.594C226.655 107.271 227.399 107.11 228.218 107.11C229.594 107.11 230.655 107.451 231.399 108.133C232.143 108.803 232.515 109.751 232.515 110.979V116.895H230.506V115.76H230.413C230.14 116.169 229.756 116.51 229.26 116.783C228.764 117.056 228.193 117.192 227.548 117.192ZM227.902 115.499C228.398 115.499 228.844 115.382 229.241 115.146C229.638 114.91 229.948 114.594 230.171 114.197C230.394 113.8 230.506 113.373 230.506 112.914C230.221 112.753 229.886 112.622 229.501 112.523C229.129 112.424 228.739 112.374 228.33 112.374C227.561 112.374 226.996 112.529 226.637 112.839C226.277 113.137 226.097 113.528 226.097 114.011C226.097 114.445 226.265 114.805 226.6 115.09C226.934 115.363 227.368 115.499 227.902 115.499ZM238.323 103.576H242.936C243.718 103.576 244.437 103.749 245.094 104.097C245.764 104.444 246.291 104.927 246.675 105.548C247.072 106.168 247.271 106.868 247.271 107.65C247.271 108.431 247.072 109.131 246.675 109.751C246.291 110.372 245.764 110.855 245.094 111.202C244.437 111.55 243.718 111.723 242.936 111.723H240.407V116.895H238.323V103.576ZM242.974 109.751C243.433 109.751 243.829 109.652 244.164 109.454C244.499 109.243 244.753 108.976 244.927 108.654C245.1 108.332 245.187 107.997 245.187 107.65C245.187 107.302 245.1 106.967 244.927 106.645C244.753 106.323 244.499 106.062 244.164 105.864C243.829 105.665 243.433 105.566 242.974 105.566H240.407V109.751H242.974ZM251.106 117.192C250.424 117.192 249.817 117.062 249.283 116.802C248.75 116.529 248.335 116.15 248.037 115.667C247.739 115.171 247.591 114.613 247.591 113.993C247.591 113.013 247.956 112.238 248.688 111.667C249.432 111.097 250.368 110.812 251.497 110.812C252.055 110.812 252.557 110.868 253.004 110.979C253.45 111.078 253.803 111.19 254.064 111.314V110.83C254.064 110.248 253.847 109.776 253.413 109.417C252.979 109.045 252.421 108.859 251.739 108.859C251.255 108.859 250.796 108.964 250.362 109.175C249.941 109.386 249.6 109.677 249.339 110.049L247.907 108.952C248.328 108.369 248.874 107.916 249.544 107.594C250.213 107.271 250.957 107.11 251.776 107.11C253.152 107.11 254.213 107.451 254.957 108.133C255.701 108.803 256.073 109.751 256.073 110.979V116.895H254.064V115.76H253.971C253.698 116.169 253.314 116.51 252.818 116.783C252.322 117.056 251.751 117.192 251.106 117.192ZM251.46 115.499C251.956 115.499 252.402 115.382 252.799 115.146C253.196 114.91 253.506 114.594 253.729 114.197C253.952 113.8 254.064 113.373 254.064 112.914C253.779 112.753 253.444 112.622 253.059 112.523C252.687 112.424 252.297 112.374 251.888 112.374C251.119 112.374 250.554 112.529 250.195 112.839C249.835 113.137 249.655 113.528 249.655 114.011C249.655 114.445 249.823 114.805 250.158 115.09C250.492 115.363 250.926 115.499 251.46 115.499ZM261.114 117.192C260.023 117.192 259.13 116.957 258.435 116.485C257.741 116.002 257.251 115.388 256.966 114.644L258.789 113.844C259.012 114.34 259.322 114.718 259.719 114.979C260.128 115.239 260.593 115.369 261.114 115.369C261.622 115.369 262.05 115.282 262.397 115.109C262.745 114.923 262.918 114.65 262.918 114.29C262.918 113.943 262.769 113.67 262.472 113.472C262.174 113.273 261.715 113.1 261.095 112.951L259.96 112.672C259.204 112.486 258.578 112.157 258.082 111.686C257.586 111.215 257.338 110.62 257.338 109.9C257.338 109.342 257.499 108.852 257.821 108.431C258.156 108.009 258.603 107.687 259.161 107.463C259.719 107.228 260.326 107.11 260.984 107.11C261.864 107.11 262.639 107.29 263.309 107.65C263.978 107.997 264.462 108.505 264.76 109.175L262.974 109.956C262.614 109.224 261.957 108.859 261.002 108.859C260.543 108.859 260.159 108.952 259.849 109.138C259.539 109.324 259.384 109.565 259.384 109.863C259.384 110.148 259.502 110.384 259.737 110.57C259.973 110.744 260.32 110.892 260.779 111.016L262.174 111.37C263.104 111.605 263.805 111.965 264.276 112.449C264.76 112.92 265.002 113.503 265.002 114.197C265.002 114.793 264.828 115.32 264.481 115.778C264.146 116.225 263.681 116.572 263.086 116.82C262.49 117.068 261.833 117.192 261.114 117.192ZM267.296 106.031C266.912 106.031 266.583 105.901 266.31 105.641C266.05 105.368 265.92 105.039 265.92 104.655C265.92 104.27 266.05 103.948 266.31 103.687C266.583 103.415 266.912 103.278 267.296 103.278C267.681 103.278 268.003 103.415 268.263 103.687C268.536 103.948 268.673 104.27 268.673 104.655C268.673 105.039 268.536 105.368 268.263 105.641C268.003 105.901 267.681 106.031 267.296 106.031ZM266.273 107.408H268.319V116.895H266.273V107.408ZM278.548 106.124C278.163 106.124 277.835 105.994 277.562 105.734C277.302 105.461 277.171 105.132 277.171 104.748C277.171 104.363 277.302 104.041 277.562 103.78C277.835 103.508 278.163 103.371 278.548 103.371C278.932 103.371 279.255 103.508 279.515 103.78C279.788 104.041 279.924 104.363 279.924 104.748C279.924 105.132 279.788 105.461 279.515 105.734C279.255 105.994 278.932 106.124 278.548 106.124ZM271.368 109.212H269.638V107.408H271.368V106.664C271.368 105.672 271.678 104.884 272.298 104.301C272.918 103.718 273.711 103.427 274.679 103.427C275.162 103.427 275.572 103.483 275.906 103.594V105.585C275.882 105.572 275.764 105.529 275.553 105.455C275.355 105.38 275.094 105.343 274.772 105.343C274.387 105.343 274.065 105.473 273.804 105.734C273.544 105.994 273.414 106.354 273.414 106.812V107.408H279.571V116.895H277.525V109.212H273.414V116.895H271.368V109.212ZM281.539 103.576H283.585V111.333H283.641L287.529 107.408H290.096V107.519L286.412 111.184L290.207 116.783V116.895H287.77L284.98 112.598L283.585 113.955V116.895H281.539V103.576Z" fill="white"/>
<defs>
<linearGradient id="paint0_linear_1048_1328" x1="134.332" y1="89.0357" x2="147.412" y2="159.693" gradientUnits="userSpaceOnUse">
<stop stop-color="#EA4335"/>
<stop offset="1" stop-color="#FBBC04"/>
</linearGradient>
</defs>
</svg>
