<svg width="73" height="73" viewBox="0 0 73 73" fill="none" xmlns="http://www.w3.org/2000/svg">
<path d="M32.7099 55.2676C28.3572 55.2676 24.8145 58.8104 24.8145 63.163H40.6053C40.6053 58.8104 37.0625 55.2676 32.7099 55.2676Z" fill="#EA4335"/>
<path d="M61.4964 53.1592C56.5798 53.9747 53.0122 58.1818 53.0122 63.1627H63.1634L61.4964 53.1592Z" fill="#EA4335"/>
<path d="M60.8896 49.5203L58.6698 36.2041C55.3921 36.7466 53.0122 39.5461 53.0122 42.8611C53.0122 46.5933 56.0474 49.6285 59.7797 49.6285C60.1835 49.6285 60.5512 49.5755 60.8896 49.5203Z" fill="#EA4335"/>
<path d="M14.6629 43.9891C17.7725 43.9891 20.3025 41.4592 20.3025 38.3495C20.3025 35.2399 17.7725 32.71 14.6629 32.71C14.4587 32.71 14.2692 32.7269 14.0922 32.7472L12.3101 43.4421C13.0658 43.7985 13.8542 43.9891 14.6629 43.9891Z" fill="#EA4335"/>
<path d="M12.4069 59.7791C16.1392 59.7791 19.1744 56.7439 19.1744 53.0116C19.1744 49.2794 16.1392 46.2441 12.4069 46.2441C12.2106 46.2441 12.0234 46.2712 11.8339 46.2949L9.6875 59.1734C10.5695 59.5682 11.482 59.7791 12.4069 59.7791Z" fill="#EA4335"/>
<path d="M38.9203 44.0321C38.7274 44.0062 38.5368 43.9893 38.3495 43.9893C35.8614 43.9893 33.8379 46.0127 33.8379 48.5009C33.8379 50.9891 35.8614 53.0126 38.3495 53.0126C39.0387 53.0126 39.7155 52.8423 40.3369 52.5321L38.9203 44.0321Z" fill="#EA4335"/>
<path d="M57.3507 21.4304H53.0117C53.0117 18.9422 50.9882 16.9187 48.5 16.9187V13.535C48.5 6.69419 42.9337 1.12793 36.0929 1.12793C29.2521 1.12793 23.6859 6.69419 23.6859 13.535V16.9187C21.1977 16.9187 19.1742 18.9422 19.1742 21.4304H14.8351L7.83643 63.4181L12.9312 71.0586H59.2547L64.3494 63.4181L57.3507 21.4304ZM50.7558 21.4304C50.7558 22.6745 49.7441 23.6862 48.5 23.6862H46.2442V25.942H48.5C49.7441 25.942 50.7558 26.9538 50.7558 28.1979C50.7558 29.442 49.7441 30.4537 48.5 30.4537C46.5611 30.4537 44.638 29.813 43.086 28.649L41.1753 27.2155C41.5227 26.4846 41.7325 25.6759 41.7325 24.8141C41.7325 23.9524 41.5227 23.1437 41.1753 22.4128L43.0849 20.9792C44.638 19.8152 46.5611 19.1746 48.5 19.1746C49.7441 19.1746 50.7558 20.1863 50.7558 21.4304ZM30.4545 30.4537L32.3697 29.0167C32.9167 29.5017 33.554 29.8773 34.2589 30.121L30.838 45.5204L26.1718 42.4096L30.4376 30.465C30.4432 30.4616 30.4489 30.4582 30.4545 30.4537ZM39.4767 24.8141C39.4767 26.6797 37.9585 28.1979 36.0929 28.1979C34.2274 28.1979 32.7092 26.6797 32.7092 24.8141C32.7092 22.9486 34.2274 21.4304 36.0929 21.4304C37.9585 21.4304 39.4767 22.9486 39.4767 24.8141ZM39.8162 29.0167L41.3423 30.1627L46.0851 49.1308L41.4302 52.2349L37.7532 30.1762C38.527 29.9349 39.2252 29.5412 39.8162 29.0167ZM25.9417 13.535C25.9417 7.93828 30.4951 3.38376 36.0929 3.38376C41.6908 3.38376 46.2442 7.93828 46.2442 13.535V17.159C44.6177 17.494 43.0646 18.1752 41.7314 19.1746L39.8162 20.6115C38.8202 19.7284 37.5254 19.1746 36.0929 19.1746C34.6605 19.1746 33.3656 19.7284 32.3697 20.6115L30.4534 19.1746C29.1202 18.1752 27.567 17.494 25.9417 17.159V13.535ZM23.6859 19.1746C25.6248 19.1746 27.5479 19.8152 29.0999 20.9792L31.0106 22.4128C30.6632 23.1437 30.4534 23.9524 30.4534 24.8141C30.4534 25.6759 30.6632 26.4846 31.0106 27.2155L29.101 28.649C27.5479 29.813 25.6248 30.4537 23.6859 30.4537C22.4418 30.4537 21.4301 29.442 21.4301 28.1979C21.4301 26.9538 22.4418 25.942 23.6859 25.942H25.9417V23.6862H23.6859C22.4418 23.6862 21.4301 22.6745 21.4301 21.4304C21.4301 20.1863 22.4418 19.1746 23.6859 19.1746ZM16.7458 23.6862H19.8025C20.0517 24.1126 20.3642 24.4915 20.7341 24.8141C19.7856 25.642 19.1742 26.8444 19.1742 28.1979C19.1742 30.6861 21.1977 32.7095 23.6859 32.7095C24.9796 32.7095 26.2654 32.4749 27.4802 32.0407L23.4547 43.3119L32.3235 49.2245L35.9339 32.9814L39.7778 56.0461L48.6579 50.1257L44.0763 31.8016C45.4715 32.3948 46.9818 32.7095 48.5 32.7095C50.9882 32.7095 53.0117 30.6861 53.0117 28.1979C53.0117 26.8444 52.4003 25.642 51.4529 24.8141C51.8228 24.4915 52.1353 24.1126 52.3845 23.6862H55.4412L61.8319 62.0353H10.3551L16.7458 23.6862ZM58.0478 68.8028H14.1381L11.1311 64.2911H61.0559L58.0478 68.8028Z" fill="black"/>
</svg>
