<svg width="41" height="41" viewBox="0 0 41 41" fill="none" xmlns="http://www.w3.org/2000/svg">
<path d="M2.81419 4.22167C3.24967 4.22145 3.67432 4.08591 4.02941 3.83381C4.3845 3.58171 4.65247 3.2255 4.79627 2.81444H6.74739L8.73158 4.79863C8.90732 4.34457 9.16223 3.92528 9.48445 3.56027L7.53544 1.61126C7.40127 1.48166 7.22241 1.4086 7.03587 1.40721H4.79627C4.66716 1.04204 4.44006 0.719432 4.13984 0.474709C3.83962 0.229986 3.47786 0.0725856 3.09415 0.0197401C2.71045 -0.0331055 2.3196 0.0206415 1.96441 0.175097C1.60921 0.329552 1.30336 0.578761 1.08034 0.895437C0.85732 1.21211 0.725732 1.58405 0.699983 1.97051C0.674234 2.35698 0.755315 2.74309 0.934351 3.08655C1.11339 3.43001 1.38347 3.7176 1.71504 3.91781C2.04661 4.11802 2.42687 4.22314 2.81419 4.22167Z" fill="#282828"/>
<path d="M11.2578 24.6279V23.2207L12.0459 20.4625C12.1233 20.2117 12.1394 19.946 12.0929 19.6877C12.0464 19.4294 11.9386 19.186 11.7785 18.9779C11.6223 18.7648 11.4177 18.5918 11.1817 18.4732C10.9456 18.3545 10.6847 18.2936 10.4205 18.2954C10.0527 18.2965 9.69519 18.4172 9.40199 18.6393C9.10878 18.8615 8.8958 19.1729 8.79517 19.5267L7.73975 23.2207L6.33253 23.9243H4.9253L3.51807 21.8135V13.7219C3.51807 13.2554 3.33274 12.808 3.00286 12.4781C2.67298 12.1482 2.22556 11.9629 1.75903 11.9629C1.29251 11.9629 0.845092 12.1482 0.515209 12.4781C0.185326 12.808 0 13.2554 0 13.7219V27.4424L4.9253 33.0713V36.5894H12.6651L13.7627 31.1082C13.9671 30.1077 13.7994 29.067 13.2913 28.1812L11.2578 24.6279Z" fill="#282828"/>
<path d="M13.3687 37.9961H4.22168V40.1069H13.3687V37.9961Z" fill="#282828"/>
<path d="M39.0495 11.9629C38.5829 11.9629 38.1355 12.1482 37.8056 12.4781C37.4758 12.808 37.2904 13.2554 37.2904 13.7219V21.8135L35.8832 23.9243H34.476L33.0687 23.2207L32.0133 19.5267C31.9127 19.1729 31.6997 18.8615 31.4065 18.6393C31.1133 18.4172 30.7558 18.2965 30.388 18.2954C30.1271 18.2926 29.8692 18.3518 29.6356 18.468C29.402 18.5842 29.1993 18.7541 29.0441 18.9639C28.8799 19.1697 28.7685 19.4126 28.7194 19.6713C28.6704 19.93 28.6852 20.1968 28.7626 20.4485L29.5507 23.2207V24.6279L27.5172 28.1812C27.0091 29.067 26.8414 30.1077 27.0458 31.1082L28.1434 36.5894H35.8832V33.0713L40.8085 27.4424V13.7219C40.8085 13.2554 40.6232 12.808 40.2933 12.4781C39.9634 12.1482 39.516 11.9629 39.0495 11.9629Z" fill="#282828"/>
<path d="M36.5874 37.9961H27.4404V40.1069H36.5874V37.9961Z" fill="#282828"/>
<path d="M15.4797 0C14.7333 0 14.0174 0.296522 13.4896 0.824335C12.9618 1.35215 12.6653 2.06802 12.6653 2.81446C12.6653 3.5609 12.9618 4.27676 13.4896 4.80458C14.0174 5.33239 14.7333 5.62891 15.4797 5.62891V7.03614C14.539 7.03423 13.626 6.71821 12.8853 6.13822C12.1447 5.55822 11.6191 4.7475 11.3917 3.8347C10.7863 4.13505 10.3114 4.6461 10.0562 5.27187C9.80095 5.89764 9.78296 6.59506 10.0056 7.23315C10.4106 7.1039 10.833 7.03746 11.258 7.03614V8.44337C10.8124 8.44141 10.373 8.54765 9.97747 8.75296C9.41551 9.04086 8.96668 9.50936 8.70315 10.0832C8.43961 10.6569 8.37668 11.3027 8.52447 11.9166C8.67225 12.5304 9.02217 13.0768 9.51797 13.4678C10.0138 13.8588 10.6266 14.0717 11.258 14.0723C11.3495 14.0723 11.4269 14.0512 11.5184 14.0441C11.8117 13.2285 12.3496 12.5233 13.0585 12.0247C13.7675 11.526 14.613 11.2582 15.4797 11.2578V12.6651C14.9231 12.6651 14.3789 12.8301 13.9161 13.1394C13.4533 13.4486 13.0925 13.8882 12.8795 14.4025C12.6665 14.9167 12.6108 15.4826 12.7194 16.0286C12.8279 16.5745 13.096 17.076 13.4896 17.4696C13.8832 17.8632 14.3847 18.1313 14.9307 18.2399C15.4766 18.3485 16.0425 18.2927 16.5568 18.0797C17.071 17.8667 17.5106 17.506 17.8199 17.0431C18.1291 16.5803 18.2942 16.0362 18.2942 15.4795V2.81446C18.2942 2.06802 17.9977 1.35215 17.4699 0.824335C16.942 0.296522 16.2262 0 15.4797 0Z" fill="#282828"/>
<path d="M28.1445 15.4795C28.1445 14.7331 27.848 14.0172 27.3202 13.4894C26.7924 12.9616 26.0765 12.6651 25.3301 12.6651V11.2578C26.1968 11.2582 27.0424 11.526 27.7513 12.0247C28.4602 12.5233 28.9981 13.2285 29.2914 14.0441C29.3829 14.0512 29.4603 14.0723 29.5518 14.0723C30.1813 14.0702 30.792 13.8571 31.2861 13.4671C31.7803 13.0771 32.1294 12.5326 32.2777 11.9208C32.426 11.309 32.3649 10.6651 32.1042 10.0921C31.8434 9.51912 31.3981 9.05009 30.8394 8.76C30.4428 8.55002 30.0005 8.44126 29.5518 8.44337V7.03614C29.9769 7.03746 30.3992 7.10391 30.8042 7.23315C31.0268 6.59506 31.0089 5.89764 30.7536 5.27187C30.4984 4.6461 30.0235 4.13505 29.4181 3.8347C29.1907 4.7475 28.6651 5.55823 27.9245 6.13822C27.1839 6.71821 26.2708 7.03423 25.3301 7.03614V5.62891C25.8867 5.62891 26.4309 5.46385 26.8937 5.15459C27.3565 4.84534 27.7173 4.40578 27.9303 3.8915C28.1433 3.37723 28.1991 2.81133 28.0905 2.26538C27.9819 1.71943 27.7138 1.21794 27.3202 0.824336C26.9266 0.430727 26.4251 0.162677 25.8792 0.0540802C25.3332 -0.0545162 24.7673 0.00121945 24.253 0.214239C23.7388 0.427258 23.2992 0.787994 22.9899 1.25083C22.6807 1.71366 22.5156 2.25781 22.5156 2.81446V15.4795C22.5156 16.2259 22.8121 16.9418 23.34 17.4696C23.8678 17.9974 24.5836 18.294 25.3301 18.294C26.0765 18.294 26.7924 17.9974 27.3202 17.4696C27.848 16.9418 28.1445 16.2259 28.1445 15.4795Z" fill="#282828"/>
<path d="M34.0614 2.81446H36.0125C36.1785 3.28392 36.5051 3.67959 36.9346 3.93154C37.3641 4.18349 37.8688 4.27549 38.3596 4.19129C38.8503 4.10709 39.2955 3.8521 39.6165 3.4714C39.9374 3.09069 40.1135 2.60878 40.1135 2.11085C40.1135 1.61291 39.9374 1.131 39.6165 0.750296C39.2955 0.369592 38.8503 0.114606 38.3596 0.0304035C37.8688 -0.0537988 37.3641 0.0382044 36.9346 0.290152C36.5051 0.542101 36.1785 0.937771 36.0125 1.40723H33.7729C33.5864 1.40862 33.4075 1.48168 33.2733 1.61128L31.1836 3.70101C31.5445 4.01956 31.8345 4.41027 32.035 4.8479L34.0614 2.81446Z" fill="#282828"/>
</svg>
