<svg width="78" height="78" viewBox="0 0 78 78" fill="none" xmlns="http://www.w3.org/2000/svg">
<path d="M52.4058 1.2168H51.6648L51.3235 1.87492C48.0816 8.12589 44.2462 14.1124 39.9233 19.6687L41.8465 21.1665C45.4406 16.5475 48.6813 11.6249 51.5563 6.5147C53.2796 16.6815 61.3014 24.7082 71.4646 26.4388C63.3745 30.9835 55.9121 36.3972 49.1968 42.597L42.2438 35.644L40.5205 37.3674L47.4345 44.2813C46.3644 45.3124 45.3139 46.363 44.2828 47.433L37.3688 40.519L35.6455 42.2424L42.5985 49.1953C35.6711 56.6992 29.7078 65.1232 24.8608 74.3296C13.3448 73.9494 4.04698 64.6515 3.66673 53.1355C7.81048 50.9528 11.8299 48.4982 15.6958 45.8328L12.0529 51.8644L18.845 50.1667L22.082 56.6395L27.1204 43.5281L24.8449 42.6543L21.7895 50.6042L20.1515 47.327L17.1936 48.0668L21.2326 41.3758L19.1461 40.1169L18.9182 40.4947C13.5739 44.5824 7.84217 48.2276 1.87395 51.322L1.21826 51.6633V52.4043C1.21826 65.8447 12.1529 76.7793 25.5933 76.7793H26.3343L26.6755 76.1212C37.721 54.8174 54.8201 37.7196 76.1226 26.674L76.7808 26.3328V25.5918C76.7808 12.1514 65.8461 1.2168 52.4058 1.2168ZM53.6891 3.71158C64.7615 4.3563 73.6413 13.2373 74.286 24.3085C63.2088 23.6662 54.3314 14.7876 53.6891 3.71158Z" fill="black"/>
<path d="M6.63297 46.4422L8.33069 39.6513L1.85791 36.4143L14.9692 31.376L15.8443 33.6514L7.89316 36.7068L11.1704 38.3448L10.4306 41.3039L17.1203 37.2625L18.3817 39.3503L6.63297 46.4422Z" fill="black"/>
<path d="M47.8035 21.369L45.8389 19.926C46.3142 19.2788 46.7822 18.6256 47.2453 17.9675L49.2404 19.3666C48.7675 20.0393 48.2886 20.7072 47.8035 21.369ZM50.6334 17.3398L48.6127 15.9785C49.0625 15.3106 49.5037 14.6391 49.94 13.9639L51.9887 15.285C51.5438 15.9736 51.0929 16.6597 50.6334 17.3398Z" fill="black"/>
<path d="M33.0584 56.8328L31.1084 55.369C31.7421 54.5269 32.3856 53.6933 33.0389 52.8682L34.9487 54.3818C34.3088 55.1899 33.6775 56.0064 33.0584 56.8328Z" fill="black"/>
<path d="M30.4555 60.4349L28.4531 59.0418C29.0442 58.1924 29.6463 57.349 30.2569 56.5166L32.2215 57.9596C31.6231 58.7762 31.0344 59.6013 30.4555 60.4349Z" fill="black"/>
<path d="M23.4437 71.8052L22.6027 71.676C18.2116 70.9972 14.1409 68.7986 11.1392 65.4823L12.9453 63.8468C15.3828 66.539 18.6247 68.3903 22.1469 69.1179C23.8483 66.0881 25.6874 63.1082 27.6228 60.2539L29.641 61.6201C27.5838 64.6548 25.6386 67.8321 23.8556 71.0606L23.4437 71.8052Z" fill="black"/>
<path d="M42.4101 23.7985C42.9207 22.0277 42.4576 20.0509 41.1109 18.7042L39.7946 17.3879C38.4491 16.0424 36.4723 15.5817 34.7015 16.0887C33.8106 14.4763 32.0848 13.4062 30.1811 13.4062H28.3201C26.4164 13.4062 24.6907 14.4763 23.7997 16.0887C22.0289 15.5817 20.0509 16.0412 18.7066 17.3879L17.3903 18.7042C16.0448 20.0497 15.5805 22.0277 16.0912 23.7985C14.4763 24.6907 13.4062 26.4164 13.4062 28.3189V30.1799C13.4062 32.0836 14.4763 33.8093 16.0899 34.7003C15.5793 36.4711 16.0424 38.4479 17.3891 39.7946L18.7054 41.1109C20.0509 42.4564 22.0289 42.9171 23.7985 42.4101C24.6894 44.0237 26.4152 45.0938 28.3189 45.0938H30.1799C32.0836 45.0938 33.8093 44.0237 34.7003 42.4113C36.4687 42.9171 38.4479 42.4576 39.7934 41.1121L41.1097 39.7958C42.4552 38.4503 42.9195 36.4723 42.4088 34.7015C44.0237 33.8093 45.0938 32.0836 45.0938 30.1811V28.3201C45.0938 26.4164 44.0237 24.6907 42.4101 23.7985ZM29.25 36.5625C25.2111 36.5625 21.9375 33.2889 21.9375 29.25C21.9375 25.2111 25.2111 21.9375 29.25 21.9375C33.2889 21.9375 36.5625 25.2111 36.5625 29.25C36.5625 33.2889 33.2889 36.5625 29.25 36.5625Z" fill="#EA4335"/>
<path d="M29.2505 37.7793C24.5461 37.7793 20.7192 33.9512 20.7192 29.248C20.7192 24.5449 24.5461 20.7168 29.2505 20.7168C33.9549 20.7168 37.7817 24.5449 37.7817 29.248C37.7817 33.9512 33.9549 37.7793 29.2505 37.7793ZM29.2505 23.1543C25.8904 23.1543 23.1567 25.888 23.1567 29.248C23.1567 32.6081 25.8904 35.3418 29.2505 35.3418C32.6106 35.3418 35.3442 32.6081 35.3442 29.248C35.3442 25.888 32.6106 23.1543 29.2505 23.1543Z" fill="black"/>
</svg>
