<svg width="71" height="71" viewBox="0 0 71 71" fill="none" xmlns="http://www.w3.org/2000/svg">
<g clip-path="url(#clip0_652_659)">
<path d="M35.4199 37.7051C35.4199 37.7051 38.8477 33.1348 43.418 33.1348C50.2734 33.1348 52.5586 37.7051 60.5566 37.7051C60.5566 33.1348 57.1289 30.8496 57.1289 23.9941C57.1289 17.1387 60.5566 14.8535 60.5566 10.2832C52.5586 10.2832 50.2734 14.8535 43.418 14.8535C38.8477 14.8535 35.4199 10.2832 35.4199 10.2832C35.4199 10.2832 31.9922 14.8535 27.4219 14.8535C20.5664 14.8535 18.2812 10.2832 10.2832 10.2832C10.2832 14.8535 13.7109 17.1387 13.7109 23.9941C13.7109 30.8496 10.2832 33.1348 10.2832 37.7051C18.2812 37.7051 20.5664 33.1348 27.4219 33.1348C31.9922 33.1348 35.4199 37.7051 35.4199 37.7051Z" fill="#EA4335"/>
<path d="M67.4121 0H3.42773C1.53791 0 0 1.53791 0 3.42773V51.416C0 53.3058 1.53791 54.8438 3.42773 54.8438H19.4238V59.4141H14.8535V61.6992H44.5605V70.8398H47.3187L52.5586 65.6L57.7985 70.8398H60.5566V54.8438H67.4121C69.3019 54.8438 70.8398 53.3058 70.8398 51.416V3.42773C70.8398 1.53791 69.3019 0 67.4121 0ZM3.42773 2.28516H67.4121C68.0428 2.28516 68.5547 2.79703 68.5547 3.42773V45.7031H60.5566V43.418H66.2695V4.57031H4.57031V43.418H44.5605V45.7031H2.28516V3.42773C2.28516 2.79703 2.79703 2.28516 3.42773 2.28516ZM52.5586 41.1328C47.5187 41.1328 43.418 37.0321 43.418 31.9922C43.418 26.9523 47.5187 22.8516 52.5586 22.8516C57.5985 22.8516 61.6992 26.9523 61.6992 31.9922C61.6992 37.0321 57.5985 41.1328 52.5586 41.1328ZM63.9844 31.9922C63.9844 25.692 58.8588 20.5664 52.5586 20.5664C46.2584 20.5664 41.1328 25.692 41.1328 31.9922C41.1328 35.18 42.4479 38.0627 44.5605 40.1376V41.1328H6.85547V6.85547H63.9844V31.9922V41.1328H60.5566V40.1376C62.6693 38.0627 63.9844 35.18 63.9844 31.9922ZM2.28516 51.416V47.9883H44.5605V52.5586H3.42773C2.79703 52.5586 2.28516 52.0467 2.28516 51.416ZM21.709 59.4141V54.8438H44.5605V59.4141H21.709ZM52.5586 62.3688L46.8457 68.0817V41.8721C48.2168 42.6684 49.7627 43.1952 51.416 43.3597V54.8438H53.7012V43.3597C55.3545 43.1952 56.9004 42.6673 58.2715 41.8721V68.0817L52.5586 62.3688ZM67.4121 52.5586H60.5566V47.9883H68.5547V51.416C68.5547 52.0467 68.0428 52.5586 67.4121 52.5586Z" fill="black"/>
<path d="M52.5586 25.1367C48.7778 25.1367 45.7031 28.2114 45.7031 31.9922C45.7031 35.773 48.7778 38.8477 52.5586 38.8477C56.3394 38.8477 59.4141 35.773 59.4141 31.9922C59.4141 28.2114 56.3394 25.1367 52.5586 25.1367ZM52.5586 36.5625C50.0381 36.5625 47.9883 34.5127 47.9883 31.9922C47.9883 29.4717 50.0381 27.4219 52.5586 27.4219C55.0791 27.4219 57.1289 29.4717 57.1289 31.9922C57.1289 34.5127 55.0791 36.5625 52.5586 36.5625Z" fill="black"/>
<path d="M53.7012 57.1289H51.416V59.4141H53.7012V57.1289Z" fill="black"/>
<path d="M44.5605 18.2812H18.2812V20.5664H44.5605V18.2812Z" fill="black"/>
<path d="M41.1328 22.8516H38.8477V25.1367H41.1328V22.8516Z" fill="black"/>
<path d="M36.5625 22.8516H18.2812V25.1367H36.5625V22.8516Z" fill="black"/>
</g>
<defs>
<clipPath id="clip0_652_659">
<rect width="70.8398" height="70.8398" fill="white"/>
</clipPath>
</defs>
</svg>
