<svg width="73" height="73" viewBox="0 0 73 73" fill="none" xmlns="http://www.w3.org/2000/svg">
<path d="M48.9 32.5992C48.9 39.6724 43.1661 45.4063 36.0928 45.4063C29.0195 45.4063 23.2856 39.6724 23.2856 32.5992C23.2856 25.5259 29.0195 19.792 36.0928 19.792C43.1661 19.792 48.9 25.5259 48.9 32.5992Z" fill="#EA4335"/>
<path d="M48.9 32.5992C48.9 39.6724 43.1661 45.4063 36.0928 45.4063C29.0195 45.4063 23.2856 39.6724 23.2856 32.5992C23.2856 25.5259 29.0195 19.792 36.0928 19.792C43.1661 19.792 48.9 25.5259 48.9 32.5992Z" fill="#EA4335"/>
<path d="M32.6001 9.31445H39.5858V16.3002H32.6001V9.31445Z" fill="#EA4335"/>
<path d="M32.6001 48.9004H39.5858V71.0219H32.6001V48.9004Z" fill="#EA4335"/>
<path d="M60.5427 10.4786C60.5427 9.19435 59.4984 8.15002 58.2141 8.15002H52.3927V6.10456C52.3927 2.73847 49.6542 0 46.2893 0C44.6582 0 43.125 0.634446 41.9732 1.7885L36.0926 7.66793L30.2132 1.7885C29.0603 0.634446 27.5282 0 25.896 0C22.5311 0 19.7926 2.73847 19.7926 6.10456V8.15002H13.9712C12.6869 8.15002 11.6426 9.19435 11.6426 10.4786V15.1357C11.6426 16.42 12.6869 17.4643 13.9712 17.4643H58.2141C59.4984 17.4643 60.5427 16.42 60.5427 15.1357V10.4786ZM43.6207 3.43374C44.3325 2.72084 45.2802 2.32858 46.2893 2.32858C48.3711 2.32858 50.0641 4.02271 50.0641 6.10456V8.15002H38.9033L43.6207 3.43374ZM22.1212 6.10456C22.1212 4.02271 23.8142 2.32858 25.896 2.32858C26.9051 2.32858 27.8528 2.72084 28.5657 3.43488L33.282 8.15002H22.1212V6.10456ZM13.9712 15.1357V10.4786H58.2141L58.2153 15.1357H13.9712Z" fill="black"/>
<path d="M13.9712 72.1864H58.2142V47.7363H13.9712V72.1864ZM16.2998 50.0649H55.8856V69.8578H16.2998V50.0649Z" fill="black"/>
<path d="M41.9146 65.2012H44.2431V67.5297H41.9146V65.2012Z" fill="black"/>
<path d="M46.5718 65.2012H48.9004V67.5297H46.5718V65.2012Z" fill="black"/>
<path d="M51.229 65.2012H53.5576V67.5297H51.229V65.2012Z" fill="black"/>
<path d="M38.4215 37.2574H33.7643C33.1219 37.2574 32.6001 36.7343 32.6001 36.0931H30.2715C30.2715 38.0186 31.8388 39.5859 33.7643 39.5859H34.9286V40.7502H37.2572V39.5859H38.4215C40.347 39.5859 41.9144 38.0186 41.9144 36.0931V34.9288C41.9144 33.0033 40.347 31.4359 38.4215 31.4359H33.7643C33.1219 31.4359 32.6001 30.9129 32.6001 30.2716V29.1073C32.6001 28.4661 33.1219 27.9431 33.7643 27.9431H38.4215C39.0639 27.9431 39.5858 28.4661 39.5858 29.1073H41.9144C41.9144 27.1818 40.347 25.6145 38.4215 25.6145H37.2572V24.4502H34.9286V25.6145H33.7643C31.8388 25.6145 30.2715 27.1818 30.2715 29.1073V30.2716C30.2715 32.1971 31.8388 33.7645 33.7643 33.7645H38.4215C39.0639 33.7645 39.5858 34.2875 39.5858 34.9288V36.0931C39.5858 36.7343 39.0639 37.2574 38.4215 37.2574Z" fill="white"/>
<path d="M4.65674 19.792H6.98532V22.1206H4.65674V19.792Z" fill="black"/>
<path d="M4.65674 24.4502H6.98532V38.4217H4.65674V24.4502Z" fill="black"/>
<path d="M9.31445 43.0791H11.643V45.4077H9.31445V43.0791Z" fill="black"/>
<path d="M9.31445 26.7773H11.643V40.7488H9.31445V26.7773Z" fill="black"/>
<path d="M60.543 43.0791H62.8715V45.4077H60.543V43.0791Z" fill="black"/>
<path d="M60.543 26.7773H62.8715V40.7488H60.543V26.7773Z" fill="black"/>
<path d="M65.2002 19.792H67.5288V22.1206H65.2002V19.792Z" fill="black"/>
<path d="M65.2002 24.4502H67.5288V38.4217H65.2002V24.4502Z" fill="black"/>
<path d="M69.8569 13.9707H72.1855V16.2993H69.8569V13.9707Z" fill="black"/>
<path d="M69.8569 18.6279H72.1855V32.5994H69.8569V18.6279Z" fill="black"/>
<path d="M0 13.9707H2.32858V16.2993H0V13.9707Z" fill="black"/>
<path d="M0 18.6279H2.32858V32.5994H0V18.6279Z" fill="black"/>
</svg>
