<svg width="72" height="72" viewBox="0 0 72 72" fill="none" xmlns="http://www.w3.org/2000/svg">
<path d="M10.5079 18.8713H11.1019V15.8025C11.1019 14.9609 11.5771 14.1926 12.3298 13.8162L15.543 12.2096L18.7562 13.8162C19.509 14.1926 19.9842 14.962 19.9842 15.8025V18.8713H20.5782L22.1271 16.5486C22.9043 15.3806 23.3151 14.0249 23.3151 12.6237C23.3151 8.72217 20.1407 5.54785 16.2392 5.54785H14.8469C10.9453 5.54785 7.771 8.72217 7.771 12.6237C7.771 14.0249 8.1818 15.3806 8.95901 16.5486L10.5079 18.8713Z" fill="#EA4335"/>
<path d="M56.2109 45.5205H54.8186C50.917 45.5205 47.7427 48.6948 47.7427 52.5964C47.7427 53.9976 48.1535 55.3532 48.9307 56.5213L50.4795 58.844H51.0735V55.7752C51.0735 54.9336 51.5488 54.1652 52.3015 53.7888L55.5147 52.1823L58.7279 53.7888C59.4807 54.1652 59.9559 54.9347 59.9559 55.7752V58.844H60.5499L62.0987 56.5213C62.8759 55.3532 63.2867 53.9976 63.2867 52.5964C63.2867 48.6948 60.1124 45.5205 56.2109 45.5205Z" fill="#EA4335"/>
<path d="M15.5444 45.5205C10.6469 45.5205 6.66211 49.5053 6.66211 54.4028V59.9543C6.66211 61.9173 7.69357 63.6849 9.369 64.6875C10.9656 63.1342 13.1407 62.1749 15.5444 62.1749H14.4341C12.5944 62.1749 11.1033 60.6837 11.1033 58.844V55.7752C11.1033 54.9336 11.5785 54.1652 12.3313 53.7888L15.5444 52.1823L18.7576 53.7888C19.5104 54.1652 19.9856 54.9347 19.9856 55.7752V58.844C19.9856 60.6837 18.4945 62.1749 16.6547 62.1749H15.5444C17.9482 62.1749 20.1233 63.1342 21.7199 64.6875C23.3953 63.6849 24.4268 61.9173 24.4268 59.9543V54.4028C24.4268 49.5053 20.4419 45.5205 15.5444 45.5205Z" fill="#EA4335"/>
<path d="M55.5142 5.54785C50.6167 5.54785 46.6318 9.53268 46.6318 14.4302V19.9816C46.6318 21.9446 47.6633 23.7122 49.3387 24.7148C50.9353 23.1615 53.1104 22.2022 55.5142 22.2022H54.4039C52.5641 22.2022 51.073 20.7111 51.073 18.8713V15.8025C51.073 14.9609 51.5482 14.1926 52.301 13.8162L55.5142 12.2096L58.7273 13.8162C59.4801 14.1926 59.9553 14.962 59.9553 15.8025V18.8713C59.9553 20.7111 58.4642 22.2022 56.6245 22.2022H55.5142C57.9179 22.2022 60.093 23.1615 61.6896 24.7148C63.365 23.7122 64.3965 21.9446 64.3965 19.9816V14.4302C64.3965 9.53268 60.4117 5.54785 55.5142 5.54785Z" fill="#EA4335"/>
<path d="M56.6249 41.1355V29.9193C64.0649 29.3486 69.9484 23.1255 69.9484 15.5422C69.9484 7.58361 63.4731 1.1084 55.5146 1.1084C47.556 1.1084 41.0808 7.58361 41.0808 15.5422C41.0808 23.1255 46.9642 29.3486 54.4043 29.9193V34.4171H49.5013C48.6097 32.3697 46.5257 30.9563 44.1274 31.0951C43.1382 27.2213 39.6252 24.4245 35.5294 24.4245C31.4335 24.4245 27.9205 27.2213 26.9313 31.0951C24.543 30.9563 22.4535 32.3697 21.5586 34.4171H16.6544V29.9193C24.0945 29.3486 29.9779 23.1255 29.9779 15.5422C29.9779 7.58361 23.5027 1.1084 15.5441 1.1084C7.58557 1.1084 1.11035 7.58361 1.11035 15.5422C1.11035 23.1255 6.99378 29.3486 14.4338 29.9193V41.1344C6.99378 41.7062 1.11035 47.9294 1.11035 55.5126C1.11035 63.4712 7.58557 69.9464 15.5441 69.9464C23.5027 69.9464 29.9779 63.4712 29.9779 55.5126C29.9779 47.9294 24.0945 41.7062 16.6544 41.1355V36.6377H21.0956C21.0956 39.6988 23.586 42.1891 26.647 42.1891H44.4117C47.4728 42.1891 49.9631 39.6988 49.9631 36.6377H54.4043V41.1355C46.9642 41.7062 41.0808 47.9294 41.0808 55.5126C41.0808 63.4712 47.556 69.9464 55.5146 69.9464C63.4731 69.9464 69.9484 63.4712 69.9484 55.5126C69.9484 47.9294 64.0649 41.7062 56.6249 41.1355ZM14.4338 21.0936C13.2092 21.0936 12.2133 20.0977 12.2133 18.873V15.8042C12.2133 15.3801 12.4486 14.9992 12.8272 14.8105L15.5441 13.4526L18.261 14.8116C18.6396 15.0004 18.875 15.3801 18.875 15.8042V18.873C18.875 20.0977 17.8791 21.0936 16.6544 21.0936H14.4338ZM15.5441 23.3142C17.9057 23.3142 20.0786 24.3657 21.5452 26.1665C19.771 27.1736 17.7258 27.7554 15.5441 27.7554C13.3624 27.7554 11.3173 27.1736 9.54301 26.1665C11.0097 24.3657 13.1825 23.3142 15.5441 23.3142ZM3.33093 15.5422C3.33093 8.80826 8.81022 3.32898 15.5441 3.32898C22.278 3.32898 27.7573 8.80826 27.7573 15.5422C27.7573 19.2972 26.0508 22.6591 23.3761 24.9008C22.398 23.6551 21.1555 22.6924 19.7588 22.0407C20.5815 21.2346 21.0956 20.1144 21.0956 18.873V15.8042C21.0956 14.534 20.3894 13.3927 19.2547 12.8242L15.5441 10.97L11.8335 12.8253C10.6988 13.3927 9.99268 14.5351 9.99268 15.8042V18.873C9.99268 20.1144 10.5067 21.2346 11.3295 22.0407C9.93272 22.6924 8.69031 23.6551 7.71214 24.9008C5.03745 22.6591 3.33093 19.2972 3.33093 15.5422ZM9.54301 66.137C11.0097 64.3361 13.1825 63.2847 15.5441 63.2847C17.9057 63.2847 20.0786 64.3361 21.5452 66.137C19.771 67.144 17.7258 67.7258 15.5441 67.7258C13.3624 67.7258 11.3173 67.144 9.54301 66.137ZM14.4338 61.0641C13.2092 61.0641 12.2133 60.0682 12.2133 58.8435V55.7747C12.2133 55.3505 12.4486 54.9697 12.8272 54.781L15.5441 53.4231L18.261 54.7821C18.6396 54.9708 18.875 55.3505 18.875 55.7747V58.8435C18.875 60.0682 17.8791 61.0641 16.6544 61.0641H14.4338ZM27.7573 55.5126C27.7573 59.2676 26.0508 62.6296 23.3761 64.8713C22.398 63.6255 21.1555 62.6629 19.7588 62.0112C20.5815 61.2051 21.0956 60.0848 21.0956 58.8435V55.7747C21.0956 54.5045 20.3894 53.3631 19.2547 52.7946L15.5441 50.9405L11.8335 52.7958C10.6988 53.3631 9.99268 54.5056 9.99268 55.7747V58.8435C9.99268 60.0848 10.5067 61.2051 11.3295 62.0112C9.93272 62.6629 8.69031 63.6255 7.71214 64.8713C5.03745 62.6296 3.33093 59.2676 3.33093 55.5126C3.33093 48.7787 8.81022 43.2994 15.5441 43.2994C22.278 43.2994 27.7573 48.7787 27.7573 55.5126ZM44.4117 39.9686H26.647C24.8106 39.9686 23.3162 38.4741 23.3162 36.6377C23.3162 34.8013 24.8106 33.3068 26.647 33.3068C26.9068 33.3068 27.1855 33.3501 27.5264 33.4434L28.7677 33.7831L28.922 32.5052C29.3217 29.1643 32.163 26.6451 35.5294 26.6451C38.8958 26.6451 41.737 29.1643 42.1367 32.5041L42.291 33.782L43.5323 33.4423C43.8732 33.3501 44.1519 33.3068 44.4117 33.3068C46.2481 33.3068 47.7426 34.8013 47.7426 36.6377C47.7426 38.4741 46.2481 39.9686 44.4117 39.9686ZM54.4043 21.0936C53.1796 21.0936 52.1837 20.0977 52.1837 18.873V15.8042C52.1837 15.3801 52.4191 14.9992 52.7977 14.8105L55.5146 13.4526L58.2315 14.8116C58.6101 15.0004 58.8455 15.3801 58.8455 15.8042V18.873C58.8455 20.0977 57.8495 21.0936 56.6249 21.0936H54.4043ZM55.5146 23.3142C57.8762 23.3142 60.049 24.3657 61.5157 26.1665C59.7415 27.1736 57.6963 27.7554 55.5146 27.7554C53.3329 27.7554 51.2877 27.1736 49.5135 26.1665C50.9802 24.3657 53.153 23.3142 55.5146 23.3142ZM43.3014 15.5422C43.3014 8.80826 48.7807 3.32898 55.5146 3.32898C62.2485 3.32898 67.7278 8.80826 67.7278 15.5422C67.7278 19.2972 66.0213 22.6591 63.3466 24.9008C62.3684 23.6551 61.126 22.6924 59.7293 22.0407C60.552 21.2346 61.066 20.1144 61.066 18.873V15.8042C61.066 14.534 60.3599 13.3927 59.2252 12.8242L55.5146 10.97L51.804 12.8253C50.6693 13.3927 49.9631 14.5351 49.9631 15.8042V18.873C49.9631 20.1144 50.4772 21.2346 51.2999 22.0407C49.9032 22.6924 48.6608 23.6551 47.6826 24.9008C45.0079 22.6591 43.3014 19.2972 43.3014 15.5422ZM49.5135 66.137C50.9802 64.3361 53.153 63.2847 55.5146 63.2847C57.8762 63.2847 60.049 64.3361 61.5157 66.137C59.7415 67.144 57.6963 67.7258 55.5146 67.7258C53.3329 67.7258 51.2877 67.144 49.5135 66.137ZM54.4043 61.0641C53.1796 61.0641 52.1837 60.0682 52.1837 58.8435V55.7747C52.1837 55.3505 52.4191 54.9697 52.7977 54.781L55.5146 53.4231L58.2315 54.7821C58.6101 54.9708 58.8455 55.3505 58.8455 55.7747V58.8435C58.8455 60.0682 57.8495 61.0641 56.6249 61.0641H54.4043ZM63.3466 64.8713C62.3684 63.6255 61.126 62.6629 59.7293 62.0112C60.552 61.2051 61.066 60.0848 61.066 58.8435V55.7747C61.066 54.5045 60.3599 53.3631 59.2252 52.7946L55.5146 50.9405L51.804 52.7958C50.6693 53.3631 49.9631 54.5056 49.9631 55.7747V58.8435C49.9631 60.0848 50.4772 61.2051 51.2999 62.0112C49.9032 62.6629 48.6608 63.6255 47.6826 64.8713C45.0079 62.6296 43.3014 59.2676 43.3014 55.5126C43.3014 48.7787 48.7807 43.2994 55.5146 43.2994C62.2485 43.2994 67.7278 48.7787 67.7278 55.5126C67.7278 59.2676 66.0213 62.6296 63.3466 64.8713Z" fill="black"/>
<path d="M38.8604 35.5273H41.0809V37.7479H38.8604V35.5273Z" fill="black"/>
<path d="M34.4194 35.5273H36.64V37.7479H34.4194V35.5273Z" fill="black"/>
<path d="M29.978 35.5273H32.1986V37.7479H29.978V35.5273Z" fill="black"/>
</svg>
