<svg width="43" height="40" viewBox="0 0 43 40" fill="none" xmlns="http://www.w3.org/2000/svg">
<path d="M29.6993 11.1063C29.6993 10.8725 29.6873 10.6412 29.6667 10.4134L32.5313 8.75994L28.8291 2.34632L25.9393 4.01539C25.5645 3.75633 25.1716 3.52853 24.7631 3.3333V0H17.3588V3.33338C16.9503 3.52861 16.5586 3.75641 16.1839 4.01424L13.294 2.3464L9.59189 8.76002L12.4553 10.4135C12.4348 10.6412 12.4228 10.8725 12.4228 11.1063C12.4228 11.3401 12.4348 11.5715 12.4554 11.7993L9.59082 13.4527L13.2929 19.8664L16.1828 18.1973C16.5576 18.4564 16.9505 18.6842 17.359 18.8794V22.2127H24.7632V18.8793C25.1718 18.6841 25.5635 18.4563 25.9382 18.1984L28.8281 19.8663L32.5302 13.4527L29.6668 11.7992C29.6873 11.5715 29.6993 11.3401 29.6993 11.1063ZM21.061 14.8085C19.0196 14.8085 17.3589 13.1478 17.3589 11.1063C17.3589 9.06491 19.0196 7.40423 21.061 7.40423C23.1025 7.40423 24.7632 9.06491 24.7632 11.1063C24.7632 13.1478 23.1025 14.8085 21.061 14.8085Z" fill="#282828"/>
<path d="M35.9511 32.0839C33.9097 32.0839 32.249 30.4232 32.249 28.3818C32.249 26.3404 33.9097 24.6797 35.9511 24.6797C37.9926 24.6797 39.6533 26.3404 39.6533 28.3818C39.6533 30.4232 37.9926 32.0839 35.9511 32.0839Z" fill="#282828"/>
<path d="M42.1216 39.4902H29.7812V38.2561C29.7812 34.854 32.5494 32.0859 35.9514 32.0859C39.3535 32.0859 42.1216 34.854 42.1216 38.2561V39.4902Z" fill="#282828"/>
<path d="M21.0615 32.0839C19.0201 32.0839 17.3594 30.4232 17.3594 28.3818C17.3594 26.3404 19.0201 24.6797 21.0615 24.6797C23.1029 24.6797 24.7636 26.3404 24.7636 28.3818C24.7636 30.4232 23.1029 32.0839 21.0615 32.0839Z" fill="#282828"/>
<path d="M27.231 39.4902H14.8906V38.2561C14.8906 34.854 17.6587 32.0859 21.0608 32.0859C24.4629 32.0859 27.231 34.854 27.231 38.2561V39.4902Z" fill="#282828"/>
<path d="M6.16989 32.0839C4.12846 32.0839 2.46777 30.4232 2.46777 28.3818C2.46777 26.3404 4.12846 24.6797 6.16989 24.6797C8.21132 24.6797 9.872 26.3404 9.872 28.3818C9.872 30.4232 8.21132 32.0839 6.16989 32.0839Z" fill="#282828"/>
<path d="M12.3404 39.4902H0V38.2561C0 34.854 2.76811 32.0859 6.17019 32.0859C9.57227 32.0859 12.3404 34.854 12.3404 38.2561V39.4902Z" fill="#282828"/>
<path d="M37.1031 22.2115H34.6351C34.6351 20.851 33.5276 19.7435 32.167 19.7435V17.2754C34.8894 17.2754 37.1031 19.4892 37.1031 22.2115Z" fill="#282828"/>
<path d="M7.48663 22.2115H5.01855C5.01855 19.4892 7.23234 17.2754 9.95471 17.2754V19.7435C8.59414 19.7435 7.48663 20.851 7.48663 22.2115Z" fill="#282828"/>
</svg>
