<svg width="33" height="45" viewBox="0 0 33 45" fill="none" xmlns="http://www.w3.org/2000/svg">
<path d="M5.15625 12.5628V17.9839C5.15625 18.8409 5.85305 19.5377 6.71708 19.5377H12.4099C13.267 19.5377 13.9707 18.8479 13.9707 17.9839V12.5628C13.9707 11.7057 13.2739 11.002 12.4099 11.002H6.71708C5.85305 11.002 5.15625 11.7057 5.15625 12.5628ZM11.0233 17.2104C10.9815 17.2313 10.9327 17.2383 10.8909 17.2383C10.7515 17.2383 10.6261 17.1547 10.5704 17.0223L10.0547 15.782H8.82837L8.31971 17.0223C8.24306 17.1965 8.04796 17.2801 7.86679 17.2104C7.69259 17.1407 7.61595 16.9387 7.67866 16.7645L8.28487 15.3012L9.12103 13.2665C9.1698 13.1342 9.3022 13.0505 9.43459 13.0505C9.57395 13.0505 9.6924 13.1342 9.74815 13.2665L10.5913 15.3012L11.2045 16.7645C11.2741 16.9387 11.1905 17.1477 11.0233 17.2104Z" fill="black"/>
<path d="M9.10645 15.1001H9.7684L9.43394 14.2988L9.10645 15.1001Z" fill="black"/>
<path d="M12.4029 20.5977H7.16303C6.04815 20.5977 5.15625 21.4965 5.15625 22.6044V27.1266C5.15625 28.2346 6.05512 29.1334 7.16303 29.1334H12.4029C13.26 29.1334 13.9638 28.4366 13.9638 27.5726V22.1515C13.9638 21.2875 13.26 20.5977 12.4029 20.5977ZM11.0372 25.7191C11.0372 26.388 10.4937 26.9315 9.82479 26.9315H8.14551C7.95738 26.9315 7.80408 26.7783 7.80408 26.5901V23.1061C7.80408 22.911 7.96434 22.7647 8.14551 22.7647H9.82479C10.4937 22.7647 11.0372 23.3082 11.0372 23.9771C11.0372 24.3186 10.8909 24.6321 10.6679 24.8481C10.8979 25.0711 11.0372 25.3777 11.0372 25.7191Z" fill="black"/>
<path d="M12.4021 29.8516H6.70926C5.8522 29.8516 5.14844 30.5484 5.14844 31.4124V36.8335C5.14844 37.6905 5.84523 38.3873 6.70926 38.3873H12.4021C13.2592 38.3873 13.9629 37.6975 13.9629 36.8335V31.4124C13.9629 30.5484 13.2592 29.8516 12.4021 29.8516ZM11.4754 35.5583C11.0642 36.0043 10.4859 36.2551 9.89363 36.2551C8.72301 36.2551 7.76143 35.2936 7.76143 34.116C7.76143 32.9384 8.72301 31.9768 9.89363 31.9768C10.4789 31.9768 11.0155 32.1998 11.4336 32.6248C11.5659 32.7572 11.5659 32.9732 11.4266 33.1056C11.2942 33.245 11.0782 33.238 10.9388 33.1056C10.6671 32.8269 10.2908 32.6666 9.89363 32.6666C9.09928 32.6666 8.44429 33.3216 8.44429 34.1229C8.44429 34.9242 9.09928 35.5792 9.89363 35.5792C10.3047 35.5792 10.6949 35.405 10.9737 35.1054C11.1061 34.9591 11.3221 34.9521 11.4614 35.0845C11.5938 35.203 11.6078 35.4259 11.4754 35.5583Z" fill="black"/>
<path d="M9.82516 23.4473H8.4873V24.5064H9.82516C10.1178 24.5064 10.3547 24.2765 10.3547 23.9768C10.3547 23.6911 10.1248 23.4473 9.82516 23.4473Z" fill="black"/>
<path d="M9.82516 25.1973H8.4873V26.2564H9.82516C10.1178 26.2564 10.3547 26.0265 10.3547 25.7268C10.3547 25.4342 10.1248 25.1973 9.82516 25.1973Z" fill="black"/>
<path d="M15.7966 19.4818H26.806C27.1056 19.4818 27.3564 19.2379 27.3564 18.9313C27.3564 18.6317 27.1126 18.3809 26.806 18.3809H15.7966C15.4969 18.3809 15.2461 18.6247 15.2461 18.9313C15.2461 19.231 15.4969 19.4818 15.7966 19.4818Z" fill="black"/>
<path d="M20.5829 17.5932C20.6875 17.6977 20.8338 17.7604 20.9801 17.7604H21.008C21.1683 17.7534 21.3146 17.6768 21.4121 17.5444L24.478 13.503C24.6592 13.2591 24.6104 12.9177 24.3735 12.7365C24.276 12.6668 24.1645 12.625 24.0391 12.625C23.8649 12.625 23.7046 12.7016 23.6001 12.841L20.9244 16.3668L19.8234 15.2101C19.7189 15.1056 19.5726 15.0429 19.4263 15.0429C19.2869 15.0429 19.1475 15.0986 19.05 15.1962C18.834 15.4052 18.8201 15.7536 19.0291 15.9696L20.5829 17.5932Z" fill="black"/>
<path d="M15.7966 38.1361H26.806C27.1056 38.1361 27.3564 37.8922 27.3564 37.5856C27.3564 37.286 27.1126 37.0352 26.806 37.0352H15.7966C15.4969 37.0352 15.2461 37.279 15.2461 37.5856C15.2461 37.8852 15.4969 38.1361 15.7966 38.1361Z" fill="black"/>
<path d="M23.6147 31.5035L20.939 35.0293L19.8381 33.8726C19.7336 33.7611 19.5872 33.7054 19.4409 33.7054C19.3016 33.7054 19.1622 33.7611 19.0646 33.8587C18.8486 34.0677 18.8347 34.4161 19.0437 34.6321L20.5906 36.2557C20.6952 36.3602 20.8415 36.4229 20.9878 36.4229H21.0157C21.1759 36.4159 21.3223 36.3393 21.4198 36.2069L24.4857 32.1655C24.6669 31.9216 24.6181 31.5802 24.3812 31.399C24.2837 31.3293 24.1722 31.2875 24.0537 31.2875C23.8795 31.2805 23.7193 31.3642 23.6147 31.5035Z" fill="black"/>
<path d="M15.7966 28.7787H26.806C27.1056 28.7787 27.3564 28.5348 27.3564 28.2282C27.3564 27.9216 27.1126 27.6777 26.806 27.6777H15.7966C15.4969 27.6777 15.2461 27.9216 15.2461 28.2282C15.2461 28.5348 15.4969 28.7787 15.7966 28.7787Z" fill="black"/>
<path d="M18.8979 26.6033C18.8979 26.7497 18.9536 26.889 19.0581 26.9936C19.1626 27.0981 19.302 27.1538 19.4414 27.1538C19.5877 27.1538 19.727 27.0981 19.8316 26.9936L21.1903 25.6278L22.556 26.9866C22.6606 27.0911 22.7999 27.1468 22.9393 27.1468C23.0856 27.1468 23.225 27.0911 23.3295 26.9866C23.434 26.8821 23.4898 26.7427 23.4898 26.5964C23.4898 26.45 23.434 26.3107 23.3295 26.2062L21.9638 24.8474L23.3225 23.4817C23.427 23.3772 23.4828 23.2378 23.4828 23.0915C23.4828 22.9452 23.427 22.8058 23.3225 22.7013C23.218 22.5968 23.0786 22.541 22.9323 22.541C22.786 22.541 22.6466 22.5968 22.5421 22.7013L21.1834 24.067L19.8176 22.7082C19.7131 22.6037 19.5737 22.548 19.4274 22.548C19.2811 22.548 19.1417 22.6037 19.0372 22.7082C18.9327 22.8128 18.877 22.9521 18.877 23.0985C18.877 23.2448 18.9327 23.3841 19.0372 23.4887L20.4029 24.8474L19.0442 26.2131C18.9536 26.3246 18.8979 26.457 18.8979 26.6033Z" fill="black"/>
<path d="M30.4849 4.4595H22.8689V3.83935C22.8689 3.28888 22.416 2.83597 21.8655 2.83597H19.3361C19.155 1.2403 17.8032 0 16.1587 0C14.5143 0 13.1555 1.2403 12.9744 2.84293H10.445C9.89452 2.84293 9.44161 3.29585 9.44161 3.84632V4.4595H1.82561C0.815253 4.4595 0 5.27476 0 6.27815V42.7694C0 43.7798 0.815253 44.595 1.82561 44.595H30.4849C31.4952 44.595 32.3175 43.7798 32.3175 42.7694V6.27815C32.3175 5.27476 31.4952 4.4595 30.4849 4.4595ZM10.445 10.013H21.8655C22.4299 10.013 22.8689 9.574 22.8689 9.01656V7.58116H28.7359C29.147 7.58116 29.4815 7.91562 29.4815 8.32673V41.0623C29.4815 41.4734 29.147 41.8009 28.7359 41.8009H3.5676C3.15649 41.8009 2.82203 41.4734 2.82203 41.0623V8.32673C2.82203 7.91562 3.15649 7.58116 3.5676 7.58116H9.44161V9.01656C9.44161 9.56703 9.89452 10.013 10.445 10.013Z" fill="black"/>
</svg>
