<svg width="1026" height="250" viewBox="0 0 1026 250" fill="none" xmlns="http://www.w3.org/2000/svg">
<path d="M167.543 163.367L132.976 143.047L120.157 150.622L84.2109 129.492L85.5838 127.156L120.151 147.477L132.97 139.902L168.914 161.032L167.543 163.367Z" fill="url(#paint0_linear_1363_1664)"/>
<path d="M286.807 119.567L199.242 173.57L200.792 176.083L288.356 122.08L286.807 119.567Z" fill="url(#paint1_linear_1363_1664)"/>
<path d="M540.811 122.137L453.246 176.141L454.796 178.653L542.36 124.65L540.811 122.137Z" fill="url(#paint2_linear_1363_1664)"/>
<path d="M802.705 119.598L715.141 173.602L716.69 176.114L804.255 122.111L802.705 119.598Z" fill="url(#paint3_linear_1363_1664)"/>
<path d="M417.979 181.893L382.417 160.333L382.429 145.736L347.789 125.284L349.171 122.945L385.147 144.188L385.135 158.805L419.387 179.572L417.979 181.893Z" fill="url(#paint4_linear_1363_1664)"/>
<path d="M675.664 181.893L640.103 160.333L640.115 145.736L605.475 125.284L606.856 122.945L642.832 144.188L642.821 158.805L677.072 179.572L675.664 181.893Z" fill="url(#paint5_linear_1363_1664)"/>
<path d="M935.875 178.526L900.314 156.966L900.326 142.369L865.686 121.917L867.067 119.578L903.043 140.821L903.032 155.438L937.283 176.205L935.875 178.526Z" fill="url(#paint6_linear_1363_1664)"/>
<path opacity="0.2" d="M183.259 239.071L131.709 209.309C127.508 206.883 128.035 202.648 132.886 199.847L181.666 171.684C186.517 168.883 193.854 168.579 198.055 171.005L249.605 200.767C253.806 203.193 253.279 207.428 248.428 210.229L199.648 238.392C194.797 241.193 187.46 241.497 183.259 239.071Z" fill="url(#paint7_linear_1363_1664)"/>
<path opacity="0.1" d="M183.259 248.235L131.709 218.473C127.508 216.048 128.035 211.812 132.886 209.011L181.666 180.848C186.517 178.047 193.854 177.743 198.055 180.169L249.605 209.931C253.806 212.357 253.279 216.592 248.428 219.393L199.648 247.556C194.797 250.357 187.46 250.661 183.259 248.235Z" fill="url(#paint8_linear_1363_1664)"/>
<path d="M184.273 225.704L139.793 200.023C136.169 197.93 136.622 194.275 140.809 191.859L182.897 167.557C187.082 165.141 193.416 164.879 197.037 166.971L241.519 192.652C245.143 194.745 244.689 198.4 240.503 200.816L198.413 225.118C194.228 227.534 187.894 227.797 184.273 225.704Z" fill="url(#paint9_linear_1363_1664)"/>
<path d="M185.664 215.523L150.85 195.424C148.014 193.788 148.37 190.926 151.645 189.034L184.588 170.014C187.864 168.123 192.819 167.917 195.657 169.556L230.47 189.655C233.306 191.291 232.95 194.153 229.675 196.045L196.732 215.065C193.457 216.956 188.501 217.162 185.664 215.523Z" fill="#E4EBED"/>
<path d="M232.378 184.879H149.025V192.542H232.378V184.879Z" fill="#E4EBED"/>
<path d="M185.664 207.867L150.85 187.768C148.014 186.132 148.37 183.27 151.645 181.378L184.588 162.358C187.864 160.466 192.819 160.26 195.657 161.899L230.47 181.998C233.306 183.635 232.95 186.497 229.675 188.389L196.732 207.408C193.457 209.299 188.501 209.506 185.664 207.867Z" fill="#F8FCFF"/>
<path d="M185.664 207.867L150.85 187.768C148.014 186.132 148.37 183.27 151.645 181.378L184.588 162.358C187.864 160.466 192.819 160.26 195.657 161.899L230.47 181.998C233.306 183.635 232.95 186.497 229.675 188.389L196.732 207.408C193.457 209.299 188.501 209.506 185.664 207.867Z" fill="url(#paint10_radial_1363_1664)"/>
<path d="M185.662 202.664L150.848 182.565C148.012 180.929 148.368 178.066 151.643 176.174L184.586 157.154C187.862 155.263 192.817 155.057 195.655 156.696L230.468 176.795C233.304 178.432 232.949 181.294 229.673 183.186L196.73 202.205C193.455 204.096 188.499 204.302 185.662 202.664Z" fill="#E4EBED"/>
<path d="M232.378 172.016H149.025V179.679H232.378V172.016Z" fill="#E4EBED"/>
<path d="M190.296 148.215C192.265 148.133 194.156 148.487 195.516 149.272L230.329 169.371C231.681 170.151 232.213 171.182 232.087 172.196C231.958 173.233 231.132 174.358 229.534 175.281L196.591 194.301C194.999 195.22 192.987 195.736 191.021 195.817C189.052 195.899 187.16 195.545 185.801 194.76L150.987 174.66C149.635 173.88 149.103 172.851 149.229 171.836C149.358 170.8 150.184 169.674 151.782 168.751L184.726 149.73C186.318 148.811 188.33 148.296 190.296 148.215Z" fill="#F8FCFF" stroke="#E6E6E6" stroke-width="0.554699"/>
<path opacity="0.64" d="M167.765 167.518H167.703V88.6445H213.609V167.518H213.549C212.689 173.633 202.767 178.456 190.655 178.456C178.544 178.456 168.624 173.633 167.765 167.518Z" fill="url(#paint11_linear_1363_1664)"/>
<path d="M195.066 122.731H185.08L184.17 124.293C184.153 124.321 184.144 124.354 184.143 124.388C184.143 124.421 184.152 124.454 184.169 124.483C184.185 124.512 184.209 124.536 184.238 124.553C184.267 124.569 184.3 124.578 184.333 124.578H195.809C195.843 124.578 195.876 124.569 195.905 124.553C195.933 124.536 195.957 124.512 195.974 124.483C195.991 124.454 195.999 124.421 195.999 124.388C195.999 124.354 195.99 124.321 195.973 124.293L195.066 122.731ZM201.777 118.688H178.369V105.8C178.37 105.476 178.499 105.166 178.728 104.937C178.957 104.708 179.267 104.579 179.591 104.578H200.554C200.878 104.579 201.189 104.708 201.418 104.937C201.647 105.166 201.776 105.476 201.777 105.8V118.688ZM182.099 109.789C182.099 110.224 182.228 110.648 182.469 111.009C182.71 111.37 183.053 111.651 183.454 111.817C183.855 111.984 184.297 112.027 184.722 111.942C185.148 111.858 185.539 111.649 185.846 111.342C186.153 111.035 186.362 110.643 186.447 110.218C186.532 109.792 186.488 109.35 186.322 108.949C186.156 108.548 185.875 108.205 185.514 107.964C185.153 107.723 184.728 107.594 184.294 107.594C184.006 107.594 183.72 107.651 183.454 107.761C183.188 107.872 182.946 108.033 182.742 108.237C182.538 108.441 182.376 108.683 182.266 108.949C182.156 109.216 182.099 109.501 182.099 109.789ZM188.344 116.366C188.267 115.344 187.806 114.39 187.055 113.694C186.304 112.997 185.318 112.61 184.294 112.61C183.27 112.61 182.283 112.997 181.532 113.694C180.781 114.39 180.321 115.344 180.244 116.366C180.241 116.404 180.246 116.444 180.259 116.481C180.271 116.517 180.292 116.551 180.318 116.58C180.345 116.609 180.377 116.631 180.413 116.647C180.449 116.662 180.487 116.67 180.526 116.67H188.061C188.1 116.67 188.139 116.662 188.175 116.647C188.211 116.631 188.243 116.609 188.269 116.58C188.296 116.551 188.316 116.517 188.329 116.481C188.342 116.444 188.347 116.404 188.344 116.366ZM199.393 111.296H198.554C198.445 110.752 198.231 110.235 197.923 109.774L198.516 109.18L197.335 107.999L196.741 108.592C196.28 108.284 195.763 108.069 195.219 107.96V107.121H193.545V107.96C193.001 108.069 192.484 108.283 192.023 108.591L191.429 107.997L190.248 109.179L190.838 109.774C190.53 110.235 190.316 110.752 190.207 111.296H189.37V112.969H190.207C190.316 113.513 190.53 114.03 190.838 114.491L190.248 115.084L191.429 116.266L192.022 115.672C192.484 115.981 193.001 116.196 193.545 116.304V117.141H195.219V116.304C195.763 116.196 196.28 115.982 196.741 115.673L197.335 116.267L198.516 115.086L197.923 114.491C198.231 114.03 198.445 113.512 198.554 112.968H199.393V111.295V111.296ZM179.591 121.73H200.554C200.878 121.729 201.189 121.6 201.418 121.371C201.647 121.142 201.776 120.832 201.777 120.508V119.688H178.369V120.51C178.37 120.834 178.499 121.144 178.728 121.373C178.957 121.602 179.267 121.731 179.591 121.732V121.73ZM194.382 109.535C193.868 109.535 193.366 109.687 192.939 109.973C192.512 110.258 192.179 110.664 191.982 111.138C191.786 111.613 191.734 112.135 191.835 112.639C191.935 113.143 192.182 113.606 192.545 113.969C192.909 114.332 193.371 114.579 193.875 114.68C194.379 114.78 194.901 114.728 195.376 114.532C195.85 114.335 196.256 114.002 196.541 113.575C196.827 113.148 196.979 112.646 196.979 112.132C196.979 111.443 196.706 110.783 196.218 110.296C195.731 109.809 195.071 109.535 194.382 109.535Z" fill="black"/>
<path opacity="0.2" d="M312.134 152.661L260.584 122.899C256.383 120.473 256.91 116.238 261.761 113.437L310.541 85.2738C315.392 82.473 322.729 82.1691 326.93 84.5945L378.48 114.357C382.681 116.782 382.154 121.018 377.303 123.819L328.523 151.982C323.672 154.783 316.335 155.087 312.134 152.661Z" fill="url(#paint12_linear_1363_1664)"/>
<path opacity="0.1" d="M312.134 161.821L260.584 132.059C256.383 129.633 256.91 125.398 261.761 122.597L310.541 94.434C315.392 91.6332 322.729 91.3293 326.93 93.7547L378.48 123.517C382.681 125.943 382.154 130.178 377.303 132.979L328.523 161.142C323.672 163.943 316.335 164.247 312.134 161.821Z" fill="url(#paint13_linear_1363_1664)"/>
<path d="M313.148 139.29L268.668 113.609C265.044 111.516 265.497 107.861 269.684 105.445L311.772 81.1434C315.957 78.7273 322.291 78.4646 325.912 80.5571L370.394 106.238C374.018 108.331 373.564 111.986 369.378 114.402L327.288 138.704C323.103 141.12 316.769 141.382 313.148 139.29Z" fill="url(#paint14_linear_1363_1664)"/>
<path d="M314.539 129.113L279.725 109.014C276.889 107.378 277.245 104.516 280.52 102.624L313.463 83.6036C316.739 81.7126 321.694 81.5064 324.532 83.1455L359.345 103.245C362.181 104.881 361.825 107.743 358.55 109.635L325.607 128.654C322.332 130.545 317.376 130.752 314.539 129.113Z" fill="#E4EBED"/>
<path d="M361.253 98.4688H277.9V106.132H361.253V98.4688Z" fill="#E4EBED"/>
<path d="M314.539 121.457L279.725 101.358C276.889 99.7215 277.245 96.8594 280.52 94.9674L313.463 75.9474C316.739 74.0563 321.694 73.8502 324.532 75.4892L359.345 95.5883C362.181 97.2245 361.825 100.087 358.55 101.979L325.607 120.998C322.332 122.889 317.376 123.095 314.539 121.457Z" fill="#F8FCFF"/>
<path d="M314.539 121.457L279.725 101.358C276.889 99.7215 277.245 96.8594 280.52 94.9674L313.463 75.9474C316.739 74.0563 321.694 73.8502 324.532 75.4892L359.345 95.5883C362.181 97.2245 361.825 100.087 358.55 101.979L325.607 120.998C322.332 122.889 317.376 123.095 314.539 121.457Z" fill="url(#paint15_radial_1363_1664)"/>
<path d="M314.539 116.25L279.725 96.1507C276.889 94.5145 277.245 91.6524 280.52 89.7604L313.463 70.7404C316.739 68.8493 321.694 68.6431 324.532 70.2822L359.345 90.3812C362.181 92.0175 361.825 94.8796 358.55 96.7716L325.607 115.791C322.332 117.682 317.376 117.888 314.539 116.25Z" fill="#E4EBED"/>
<path d="M361.253 85.6016H277.9V93.2645H361.253V85.6016Z" fill="#E4EBED"/>
<path d="M319.173 61.8047C321.142 61.7231 323.033 62.0772 324.393 62.8623L359.206 82.9609C360.558 83.7409 361.09 84.7714 360.964 85.7861C360.835 86.8225 360.009 87.948 358.411 88.8711L325.468 107.891C323.876 108.81 321.864 109.326 319.897 109.407C317.928 109.489 316.037 109.134 314.678 108.35L279.864 88.25C278.512 87.4701 277.98 86.4405 278.106 85.4258C278.235 84.3894 279.061 83.2639 280.659 82.3408L313.603 63.3203C315.195 62.4012 317.207 61.8862 319.173 61.8047Z" fill="#F8FCFF" stroke="#E6E6E6" stroke-width="0.554699"/>
<path opacity="0.64" d="M296.64 81.1076H296.578V2.23438H342.484V81.1076H342.424C341.564 87.2226 331.642 92.0457 319.53 92.0457C307.419 92.0457 297.499 87.2226 296.64 81.1076Z" fill="url(#paint16_linear_1363_1664)"/>
<path d="M319.386 43.5845C320.43 43.5845 321.276 42.7383 321.276 41.6946C321.276 40.6508 320.43 39.8047 319.386 39.8047C318.342 39.8047 317.496 40.6508 317.496 41.6946C317.496 42.7383 318.342 43.5845 319.386 43.5845Z" fill="black"/>
<path d="M328.602 34.8125H310.171C309.959 34.8129 309.755 34.8975 309.605 35.0479C309.454 35.1983 309.37 35.4022 309.369 35.6148V47.7718C309.369 47.985 309.453 48.1895 309.604 48.3405C309.754 48.4916 309.958 48.5768 310.171 48.5774H328.602C328.815 48.5768 329.019 48.4915 329.17 48.3404C329.32 48.1892 329.405 47.9846 329.404 47.7713V35.6148C329.404 35.4022 329.319 35.1983 329.169 35.0479C329.018 34.8975 328.815 34.8129 328.602 34.8125ZM323.782 42.1893C323.782 42.2285 323.769 42.2666 323.745 42.2976C323.721 42.3285 323.687 42.3505 323.649 42.36L322.759 42.5826C322.676 42.8989 322.548 43.2018 322.38 43.4823L322.848 44.2615C322.868 44.2951 322.876 44.3345 322.872 44.3734C322.867 44.4123 322.849 44.4485 322.821 44.4762L322.145 45.1524C322.118 45.1801 322.081 45.1978 322.042 45.2026C322.004 45.2073 321.964 45.199 321.931 45.1788L321.142 44.7062C320.86 44.8719 320.556 44.9969 320.239 45.0773L320.018 45.9584C320.008 45.9965 319.986 46.0302 319.955 46.0544C319.925 46.0785 319.886 46.0916 319.847 46.0915H318.892C318.853 46.0916 318.815 46.0785 318.784 46.0544C318.753 46.0302 318.731 45.9965 318.722 45.9584L318.499 45.068C318.182 44.9849 317.88 44.8575 317.599 44.6895L316.822 45.1561C316.788 45.1763 316.749 45.1846 316.71 45.1798C316.671 45.175 316.635 45.1574 316.607 45.1297L315.931 44.4535C315.903 44.4258 315.886 44.3896 315.881 44.3507C315.876 44.3118 315.885 44.2724 315.905 44.2387L316.377 43.4503C316.211 43.1682 316.086 42.864 316.006 42.5469L315.125 42.3261C315.087 42.3166 315.053 42.2946 315.029 42.2637C315.005 42.2328 314.991 42.1947 314.991 42.1555V41.2006C314.991 41.1613 315.005 41.1232 315.029 41.0923C315.053 41.0614 315.087 41.0394 315.125 41.0299L316.015 40.8068C316.098 40.4905 316.226 40.1876 316.393 39.9071L315.926 39.1279C315.906 39.0943 315.897 39.0549 315.902 39.016C315.907 38.9771 315.925 38.9409 315.952 38.9132L316.628 38.2352C316.656 38.2074 316.692 38.1898 316.731 38.185C316.77 38.1802 316.809 38.1886 316.843 38.2087L317.631 38.6809C317.913 38.5152 318.218 38.3902 318.535 38.3098L318.755 37.4287C318.765 37.3906 318.787 37.3568 318.817 37.3327C318.848 37.3086 318.886 37.2955 318.926 37.2956H319.883C319.922 37.2955 319.96 37.3086 319.991 37.3327C320.022 37.3568 320.044 37.3906 320.054 37.4287L320.277 38.3191C320.593 38.4022 320.896 38.5296 321.176 38.6976L321.956 38.2301C321.989 38.2099 322.029 38.2015 322.067 38.2063C322.106 38.2111 322.143 38.2288 322.17 38.2565L322.846 38.9327C322.874 38.9604 322.892 38.9966 322.897 39.0355C322.901 39.0744 322.893 39.1138 322.873 39.1474L322.401 39.9358C322.566 40.218 322.691 40.5221 322.772 40.8393L323.653 41.06C323.691 41.0695 323.725 41.0915 323.749 41.1224C323.773 41.1534 323.786 41.1915 323.786 41.2307L323.782 42.1893Z" fill="black"/>
<path d="M329.404 33.8066V34.2931C329.163 34.1441 328.885 34.0655 328.602 34.0663H310.171C309.888 34.0655 309.61 34.1441 309.369 34.2931V32.3573C309.369 32.1505 309.452 31.9524 309.598 31.8063C309.744 31.6602 309.942 31.5781 310.149 31.5781H315.698C315.809 31.5791 315.919 31.6034 316.02 31.6495C316.121 31.6956 316.211 31.7625 316.285 31.8457L317.199 32.8934C317.235 32.9359 317.28 32.9699 317.33 32.993C317.381 33.0161 317.436 33.0277 317.492 33.027H328.623C328.725 33.027 328.827 33.0471 328.921 33.0863C329.016 33.1255 329.102 33.183 329.174 33.2554C329.247 33.3279 329.304 33.4139 329.343 33.5085C329.383 33.6032 329.403 33.7046 329.403 33.807L329.404 33.8066Z" fill="black"/>
<path opacity="0.2" d="M698.755 239.071L647.205 209.309C643.004 206.883 643.531 202.648 648.382 199.847L697.162 171.684C702.013 168.883 709.35 168.579 713.551 171.005L765.101 200.767C769.302 203.193 768.775 207.428 763.924 210.229L715.144 238.392C710.293 241.193 702.957 241.497 698.755 239.071Z" fill="url(#paint17_linear_1363_1664)"/>
<path opacity="0.1" d="M698.755 248.235L647.205 218.473C643.004 216.048 643.531 211.812 648.382 209.011L697.162 180.848C702.013 178.047 709.35 177.743 713.551 180.169L765.101 209.931C769.302 212.357 768.775 216.592 763.924 219.393L715.144 247.556C710.293 250.357 702.957 250.661 698.755 248.235Z" fill="url(#paint18_linear_1363_1664)"/>
<path d="M699.767 225.704L655.287 200.023C651.663 197.93 652.116 194.275 656.303 191.859L698.391 167.557C702.576 165.141 708.91 164.879 712.531 166.971L757.013 192.652C760.637 194.745 760.183 198.4 755.997 200.816L713.907 225.118C709.722 227.534 703.388 227.797 699.767 225.704Z" fill="url(#paint19_linear_1363_1664)"/>
<path d="M701.156 215.523L666.343 195.424C663.506 193.788 663.862 190.926 667.137 189.034L700.081 170.014C703.356 168.123 708.311 167.917 711.149 169.556L745.962 189.655C748.798 191.291 748.443 194.153 745.167 196.045L712.224 215.065C708.949 216.956 703.994 217.162 701.156 215.523Z" fill="#E4EBED"/>
<path d="M747.875 184.879H664.521V192.542H747.875V184.879Z" fill="#E4EBED"/>
<path d="M701.156 207.867L666.343 187.768C663.506 186.132 663.862 183.27 667.137 181.378L700.081 162.358C703.356 160.466 708.311 160.26 711.149 161.899L745.962 181.998C748.798 183.635 748.443 186.497 745.167 188.389L712.224 207.408C708.949 209.299 703.993 209.506 701.156 207.867Z" fill="#F8FCFF"/>
<path d="M701.156 207.867L666.343 187.768C663.506 186.132 663.862 183.27 667.137 181.378L700.081 162.358C703.356 160.466 708.311 160.26 711.149 161.899L745.962 181.998C748.798 183.635 748.443 186.497 745.167 188.389L712.224 207.408C708.949 209.299 703.993 209.506 701.156 207.867Z" fill="url(#paint20_radial_1363_1664)"/>
<path d="M701.154 202.664L666.341 182.565C663.504 180.929 663.86 178.066 667.135 176.174L700.079 157.154C703.354 155.263 708.309 155.057 711.147 156.696L745.96 176.795C748.796 178.432 748.441 181.294 745.165 183.186L712.222 202.205C708.947 204.096 703.991 204.302 701.154 202.664Z" fill="#E4EBED"/>
<path d="M747.875 172.016H664.521V179.679H747.875V172.016Z" fill="#E4EBED"/>
<path d="M705.788 148.215C707.757 148.133 709.648 148.487 711.008 149.272L745.821 169.371C747.173 170.151 747.705 171.182 747.579 172.196C747.45 173.233 746.624 174.358 745.026 175.281L712.083 194.301C710.491 195.22 708.479 195.736 706.513 195.817C704.544 195.899 702.652 195.545 701.293 194.76L666.479 174.66C665.128 173.88 664.596 172.851 664.722 171.836C664.851 170.8 665.676 169.674 667.274 168.751L700.218 149.73C701.81 148.811 703.822 148.296 705.788 148.215Z" fill="#F8FCFF" stroke="#E6E6E6" stroke-width="0.554699"/>
<path opacity="0.64" d="M683.261 167.518H683.199V88.6445H729.106V167.518H729.045C728.185 173.633 718.263 178.456 706.152 178.456C694.04 178.456 684.121 173.633 683.261 167.518Z" fill="url(#paint21_linear_1363_1664)"/>
<path fill-rule="evenodd" clip-rule="evenodd" d="M702.434 116.578C702.127 116.578 701.824 116.647 701.547 116.78C701.271 116.914 701.028 117.107 700.836 117.347L698.817 119.87C698.528 120.232 698.37 120.682 698.369 121.146V133.623C698.369 134.166 698.585 134.686 698.968 135.07C699.352 135.453 699.872 135.669 700.415 135.669H711.324C711.592 135.669 711.858 135.616 712.106 135.513C712.355 135.41 712.58 135.26 712.77 135.07C712.96 134.88 713.111 134.654 713.213 134.406C713.316 134.158 713.369 133.892 713.369 133.623V118.623C713.369 118.355 713.316 118.089 713.213 117.841C713.111 117.593 712.96 117.367 712.77 117.177C712.58 116.987 712.355 116.837 712.106 116.734C711.858 116.631 711.592 116.578 711.324 116.578H702.434ZM703.344 125.242C703.216 125.114 703.144 124.941 703.144 124.76C703.144 124.579 703.216 124.406 703.344 124.278L705.387 122.231C705.515 122.103 705.688 122.031 705.869 122.031C706.05 122.031 706.223 122.103 706.351 122.231L708.397 124.276C708.519 124.405 708.587 124.577 708.585 124.755C708.582 124.933 708.511 125.103 708.385 125.229C708.259 125.355 708.089 125.426 707.911 125.428C707.733 125.431 707.561 125.363 707.432 125.24L706.551 124.359V127.486C706.547 127.663 706.473 127.832 706.345 127.956C706.218 128.08 706.047 128.15 705.869 128.15C705.692 128.15 705.521 128.08 705.393 127.956C705.266 127.832 705.192 127.663 705.188 127.486V124.36L704.306 125.242C704.179 125.369 704.005 125.441 703.825 125.441C703.645 125.441 703.471 125.369 703.344 125.242ZM709.28 130.217C709.371 130.219 709.462 130.203 709.547 130.17C709.631 130.137 709.709 130.087 709.774 130.023C709.839 129.96 709.891 129.884 709.926 129.8C709.961 129.716 709.98 129.626 709.98 129.535C709.98 129.444 709.961 129.354 709.926 129.27C709.891 129.186 709.839 129.11 709.774 129.046C709.709 128.983 709.631 128.933 709.547 128.9C709.462 128.867 709.371 128.851 709.28 128.853H702.46C702.369 128.851 702.278 128.867 702.194 128.9C702.109 128.933 702.032 128.983 701.966 129.046C701.901 129.11 701.849 129.186 701.814 129.27C701.779 129.354 701.76 129.444 701.76 129.535C701.76 129.626 701.779 129.716 701.814 129.8C701.849 129.884 701.901 129.96 701.966 130.023C702.032 130.087 702.109 130.137 702.194 130.17C702.278 130.203 702.369 130.219 702.46 130.217H709.28Z" fill="black"/>
<path opacity="0.2" d="M54.3859 152.661L2.8359 122.899C-1.36511 120.473 -0.837759 116.238 4.01308 113.437L52.7931 85.2738C57.644 82.473 64.9806 82.1691 69.182 84.5945L120.732 114.357C124.933 116.782 124.406 121.018 119.555 123.819L70.7748 151.982C65.924 154.783 58.5874 155.087 54.3859 152.661Z" fill="url(#paint22_linear_1363_1664)"/>
<path opacity="0.1" d="M54.3859 161.821L2.8359 132.059C-1.36511 129.633 -0.837759 125.398 4.01308 122.597L52.7931 94.434C57.644 91.6332 64.9806 91.3293 69.182 93.7547L120.732 123.517C124.933 125.943 124.406 130.178 119.555 132.979L70.7748 161.142C65.924 163.943 58.5874 164.247 54.3859 161.821Z" fill="url(#paint23_linear_1363_1664)"/>
<path d="M55.4015 139.29L10.9215 113.609C7.29742 111.516 7.7509 107.861 11.9374 105.445L54.0256 81.1434C58.2107 78.7273 64.5445 78.4646 68.1662 80.5571L112.648 106.238C116.272 108.331 115.818 111.986 111.632 114.402L69.5421 138.704C65.357 141.12 59.0232 141.382 55.4015 139.29Z" fill="url(#paint24_linear_1363_1664)"/>
<path d="M56.7886 129.113L21.9753 109.014C19.139 107.378 19.4947 104.516 22.7701 102.624L55.7134 83.6036C58.9887 81.7126 63.9438 81.5064 66.7816 83.1455L101.595 103.245C104.431 104.881 104.075 107.743 100.8 109.635L67.8569 128.654C64.5815 130.545 59.6264 130.752 56.7886 129.113Z" fill="#E4EBED"/>
<path d="M103.505 98.4688H20.1523V106.132H103.505V98.4688Z" fill="#E4EBED"/>
<path d="M56.7886 121.457L21.9753 101.358C19.139 99.7215 19.4947 96.8594 22.7701 94.9674L55.7134 75.9474C58.9887 74.0563 63.9438 73.8502 66.7816 75.4892L101.595 95.5883C104.431 97.2245 104.075 100.087 100.8 101.979L67.8569 120.998C64.5815 122.889 59.6259 123.095 56.7886 121.457Z" fill="#F8FCFF"/>
<path d="M56.7886 121.457L21.9753 101.358C19.139 99.7215 19.4947 96.8594 22.7701 94.9674L55.7134 75.9474C58.9887 74.0563 63.9438 73.8502 66.7816 75.4892L101.595 95.5883C104.431 97.2245 104.075 100.087 100.8 101.979L67.8569 120.998C64.5815 122.889 59.6259 123.095 56.7886 121.457Z" fill="url(#paint25_radial_1363_1664)"/>
<path d="M56.7886 116.25L21.9753 96.1507C19.139 94.5145 19.4947 91.6524 22.7701 89.7604L55.7134 70.7404C58.9887 68.8493 63.9438 68.6431 66.7816 70.2822L101.595 90.3812C104.431 92.0175 104.075 94.8796 100.8 96.7716L67.8569 115.791C64.5815 117.682 59.6259 117.888 56.7886 116.25Z" fill="#E4EBED"/>
<path d="M103.505 85.6016H20.1523V93.2645H103.505V85.6016Z" fill="#E4EBED"/>
<path d="M61.4229 61.8047C63.3918 61.7231 65.2832 62.0772 66.6426 62.8623L101.456 82.9609C102.808 83.7409 103.34 84.7714 103.214 85.7861C103.085 86.8225 102.259 87.948 100.661 88.8711L67.7178 107.891C66.1256 108.81 64.1137 109.326 62.1475 109.407C60.1785 109.489 58.2869 109.134 56.9277 108.35L22.1143 88.25C20.7623 87.4701 20.2304 86.4405 20.3564 85.4258C20.4853 84.3894 21.3112 83.2639 22.9092 82.3408L55.8525 63.3203C57.4447 62.4012 59.4567 61.8862 61.4229 61.8047Z" fill="#F8FCFF" stroke="#E6E6E6" stroke-width="0.554699"/>
<path opacity="0.64" d="M38.8916 81.1076H38.8301V2.23438H84.7364V81.1076H84.6759C83.8162 87.2226 73.8937 92.0457 61.7824 92.0457C49.6711 92.0457 39.7514 87.2226 38.8916 81.1076Z" fill="url(#paint26_linear_1363_1664)"/>
<path d="M59.4299 47.1081C59.4285 45.6096 59.9469 44.157 60.8966 42.9979C61.8463 41.8388 63.1686 41.045 64.6381 40.7516C66.1076 40.4583 67.6334 40.6837 68.9553 41.3893C70.2773 42.095 71.3136 43.2372 71.8876 44.6214C72.4617 46.0056 72.538 47.546 72.1034 48.9801C71.6689 50.4142 70.7505 51.6532 69.5047 52.486C68.2589 53.3188 66.7629 53.6937 65.2716 53.547C63.7803 53.4002 62.386 52.7408 61.3265 51.6812C60.7256 51.0808 60.2488 50.3679 59.9234 49.5833C59.598 48.7986 59.4303 47.9576 59.4299 47.1081ZM62.3454 46.4313C62.2563 46.5202 62.1855 46.6257 62.1372 46.742C62.0889 46.8582 62.0641 46.9829 62.0641 47.1088C62.0641 47.2346 62.0889 47.3593 62.1372 47.4755C62.1855 47.5918 62.2563 47.6974 62.3454 47.7862L64.2628 49.7019C64.4426 49.8814 64.6863 49.9824 64.9405 49.9825H64.9721C65.1031 49.9782 65.232 49.947 65.3505 49.8908C65.469 49.8346 65.5747 49.7546 65.6609 49.6558L69.0151 45.8223C69.0993 45.7277 69.1639 45.6175 69.2053 45.4979C69.2466 45.3783 69.2639 45.2516 69.2561 45.1253C69.2483 44.999 69.2156 44.8754 69.1599 44.7618C69.1041 44.6482 69.0264 44.5467 68.9312 44.4633C68.836 44.3798 68.7253 44.316 68.6054 44.2756C68.4854 44.2351 68.3587 44.2188 68.2324 44.2276C68.1061 44.2363 67.9828 44.27 67.8697 44.3267C67.7565 44.3833 67.6556 44.4618 67.5729 44.5576L64.8939 47.6207L63.7016 46.4288C63.6127 46.3396 63.5071 46.2688 63.3908 46.2204C63.2745 46.1721 63.1499 46.1472 63.0239 46.1472C62.898 46.1472 62.7733 46.1721 62.657 46.2204C62.5407 46.2688 62.4351 46.3396 62.3463 46.4288L62.3454 46.4313ZM52.0041 50.7017C51.658 50.7019 51.3152 50.6338 50.9954 50.5015C50.6756 50.3691 50.3851 50.175 50.1404 49.9302C49.8957 49.6855 49.7016 49.3949 49.5693 49.0751C49.4369 48.7553 49.3689 48.4125 49.3691 48.0664V36.0887C49.3689 35.7425 49.4368 35.3998 49.5691 35.0799C49.7015 34.76 49.8955 34.4694 50.1402 34.2246C50.385 33.9798 50.6755 33.7857 50.9953 33.6533C51.3151 33.5208 51.6579 33.4528 52.0041 33.4529H52.2439V34.6523C52.2438 34.9984 52.3118 35.3411 52.4442 35.6609C52.5765 35.9806 52.7706 36.2712 53.0153 36.5159C53.26 36.7606 53.5506 36.9547 53.8703 37.087C54.1901 37.2194 54.5328 37.2874 54.8789 37.2872H60.1491C60.4952 37.2875 60.838 37.2196 61.1579 37.0872C61.4777 36.9549 61.7683 36.7609 62.0131 36.5161C62.2578 36.2714 62.4519 35.9808 62.5843 35.661C62.7167 35.3412 62.7847 34.9984 62.7845 34.6523V33.4529H63.0243C63.3704 33.4528 63.7132 33.5208 64.033 33.6532C64.3528 33.7856 64.6433 33.9797 64.888 34.2245C65.1327 34.4692 65.3268 34.7598 65.4591 35.0796C65.5915 35.3994 65.6595 35.7422 65.6593 36.0883V38.7332C64.385 38.7638 63.1352 39.0888 62.0075 39.6827H52.9623C52.7717 39.6827 52.589 39.7584 52.4542 39.8932C52.3194 40.0279 52.2437 40.2107 52.2437 40.4013C52.2437 40.5919 52.3194 40.7747 52.4542 40.9094C52.589 41.0442 52.7717 41.1199 52.9623 41.1199H60.0439C59.5302 41.6194 59.0831 42.1831 58.7136 42.797H52.9623C52.7717 42.797 52.589 42.8727 52.4542 43.0074C52.3194 43.1422 52.2437 43.325 52.2437 43.5156C52.2437 43.7062 52.3194 43.8889 52.4542 44.0237C52.589 44.1585 52.7717 44.2342 52.9623 44.2342H58.0214C57.8264 44.7777 57.6854 45.3392 57.6007 45.9104H52.9623C52.7717 45.9104 52.589 45.9861 52.4542 46.1209C52.3194 46.2556 52.2437 46.4384 52.2437 46.629C52.2437 46.8196 52.3194 47.0024 52.4542 47.1371C52.589 47.2719 52.7717 47.3476 52.9623 47.3476H57.5238C57.5538 48.508 57.8246 49.6495 58.3191 50.6997L52.0041 50.7017ZM54.8789 36.3277C54.4352 36.3253 54.0103 36.1481 53.6965 35.8344C53.3827 35.5208 53.2052 35.096 53.2026 34.6523V33.2135C53.2041 33.0233 53.2804 32.8414 53.4149 32.707C53.5494 32.5726 53.7313 32.4965 53.9214 32.4951H54.9753C55.1326 31.9429 55.4656 31.4571 55.9238 31.1112C56.382 30.7653 56.9405 30.5781 57.5146 30.5781C58.0887 30.5781 58.6472 30.7653 59.1054 31.1112C59.5636 31.4571 59.8966 31.9429 60.0539 32.4951H61.1074C61.2976 32.4964 61.4796 32.5725 61.6142 32.7069C61.7488 32.8413 61.8251 33.0233 61.8266 33.2135V34.6523C61.8244 35.0965 61.647 35.5219 61.3328 35.8359C61.0187 36.15 60.5933 36.3273 60.1491 36.3294L54.8789 36.3277Z" fill="black"/>
<path opacity="0.2" d="M441.007 239.071L389.457 209.309C385.256 206.883 385.783 202.648 390.634 199.847L439.414 171.684C444.265 168.883 451.602 168.579 455.803 171.005L507.353 200.767C511.554 203.193 511.027 207.428 506.176 210.229L457.396 238.392C452.545 241.193 445.208 241.497 441.007 239.071Z" fill="url(#paint27_linear_1363_1664)"/>
<path opacity="0.1" d="M441.007 248.235L389.457 218.473C385.256 216.048 385.783 211.812 390.634 209.011L439.414 180.848C444.265 178.047 451.602 177.743 455.803 180.169L507.353 209.931C511.554 212.357 511.027 216.592 506.176 219.393L457.396 247.556C452.545 250.357 445.208 250.661 441.007 248.235Z" fill="url(#paint28_linear_1363_1664)"/>
<path d="M442.023 225.704L397.543 200.023C393.919 197.93 394.372 194.275 398.559 191.859L440.647 167.557C444.832 165.141 451.166 164.879 454.787 166.971L499.269 192.652C502.893 194.745 502.439 198.4 498.253 200.816L456.163 225.118C451.978 227.534 445.644 227.797 442.023 225.704Z" fill="url(#paint29_linear_1363_1664)"/>
<path d="M443.412 215.523L408.598 195.424C405.762 193.788 406.118 190.926 409.393 189.034L442.336 170.014C445.612 168.123 450.567 167.917 453.405 169.556L488.218 189.655C491.054 191.291 490.699 194.153 487.423 196.045L454.48 215.065C451.205 216.956 446.249 217.162 443.412 215.523Z" fill="#E4EBED"/>
<path d="M490.125 184.879H406.771V192.542H490.125V184.879Z" fill="#E4EBED"/>
<path d="M443.412 207.867L408.598 187.768C405.762 186.132 406.118 183.27 409.393 181.378L442.336 162.358C445.612 160.466 450.567 160.26 453.405 161.899L488.218 181.998C491.054 183.635 490.699 186.497 487.423 188.389L454.48 207.408C451.205 209.299 446.249 209.506 443.412 207.867Z" fill="#F8FCFF"/>
<path d="M443.412 207.867L408.598 187.768C405.762 186.132 406.118 183.27 409.393 181.378L442.336 162.358C445.612 160.466 450.567 160.26 453.405 161.899L488.218 181.998C491.054 183.635 490.699 186.497 487.423 188.389L454.48 207.408C451.205 209.299 446.249 209.506 443.412 207.867Z" fill="url(#paint30_radial_1363_1664)"/>
<path d="M443.412 202.664L408.598 182.565C405.762 180.929 406.118 178.066 409.393 176.174L442.336 157.154C445.612 155.263 450.567 155.057 453.405 156.696L488.218 176.795C491.054 178.432 490.699 181.294 487.423 183.186L454.48 202.205C451.205 204.096 446.249 204.302 443.412 202.664Z" fill="#E4EBED"/>
<path d="M490.125 172.016H406.771V179.679H490.125V172.016Z" fill="#E4EBED"/>
<path d="M448.046 148.215C450.015 148.133 451.906 148.487 453.266 149.272L488.079 169.371C489.431 170.151 489.963 171.182 489.837 172.196C489.708 173.233 488.882 174.358 487.284 175.281L454.341 194.301C452.749 195.22 450.737 195.736 448.771 195.817C446.802 195.899 444.91 195.545 443.551 194.76L408.737 174.66C407.385 173.88 406.853 172.851 406.979 171.836C407.108 170.8 407.934 169.674 409.532 168.751L442.476 149.73C444.068 148.811 446.08 148.296 448.046 148.215Z" fill="#F8FCFF" stroke="#E6E6E6" stroke-width="0.554699"/>
<path opacity="0.64" d="M425.513 167.518H425.451V88.6445H471.357V167.518H471.297C470.437 173.633 460.515 178.456 448.404 178.456C436.292 178.456 426.373 173.633 425.513 167.518Z" fill="url(#paint31_linear_1363_1664)"/>
<path d="M442.902 117.112L440.913 115.124C440.638 114.849 440.194 114.849 439.919 115.124C439.644 115.399 439.644 115.844 439.919 116.118L441.907 118.107C442.182 118.381 442.627 118.381 442.902 118.107C443.176 117.832 443.176 117.387 442.902 117.112Z" fill="black"/>
<path d="M439.932 122.875H437.072C436.684 122.875 436.369 123.189 436.369 123.578C436.369 123.967 436.684 124.281 437.072 124.281H439.932C440.32 124.281 440.635 123.967 440.635 123.578C440.635 123.189 440.32 122.875 439.932 122.875Z" fill="black"/>
<path d="M459.666 122.875H456.807C456.418 122.875 456.104 123.189 456.104 123.578C456.104 123.967 456.418 124.281 456.807 124.281H459.666C460.055 124.281 460.369 123.967 460.369 123.578C460.369 123.189 460.055 122.875 459.666 122.875Z" fill="black"/>
<path d="M456.822 115.124C456.547 114.849 456.102 114.849 455.827 115.124L453.839 117.112C453.564 117.387 453.564 117.832 453.839 118.107C454.113 118.381 454.558 118.381 454.833 118.107L456.822 116.118C457.096 115.844 457.096 115.399 456.822 115.124Z" fill="black"/>
<path d="M448.369 111.578C447.98 111.578 447.666 111.893 447.666 112.281V115.141C447.666 115.529 447.98 115.844 448.369 115.844C448.758 115.844 449.072 115.529 449.072 115.141V112.281C449.072 111.893 448.758 111.578 448.369 111.578Z" fill="black"/>
<path d="M452.307 118.613C450.774 117.404 448.792 116.968 446.851 117.432C444.601 117.952 442.787 119.738 442.238 121.974C441.69 124.224 442.323 126.502 443.94 128.091C444.517 128.668 444.854 129.572 444.854 130.5V130.655C444.854 131.049 445.163 131.358 445.557 131.358H451.182C451.576 131.358 451.885 131.049 451.885 130.655V130.5C451.885 129.586 452.237 128.654 452.856 128.049C454.037 126.854 454.698 125.265 454.698 123.577C454.698 121.636 453.826 119.822 452.307 118.613ZM448.37 121.468C447.309 121.468 446.537 122.171 446.334 122.986C446.242 123.356 445.87 123.593 445.482 123.499C445.106 123.406 444.876 123.024 444.969 122.648C445.318 121.242 446.639 120.061 448.37 120.061C448.758 120.061 449.073 120.376 449.073 120.765C449.073 121.153 448.758 121.468 448.37 121.468Z" fill="black"/>
<path d="M445.557 132.766V133.469C445.557 134.632 446.503 135.578 447.666 135.578H449.072C450.235 135.578 451.182 134.632 451.182 133.469V132.766H445.557Z" fill="black"/>
<path opacity="0.2" d="M569.882 154.892L518.332 125.129C514.131 122.704 514.658 118.468 519.509 115.667L568.289 87.5043C573.14 84.7035 580.477 84.3996 584.678 86.825L636.228 116.587C640.429 119.013 639.902 123.248 635.051 126.049L586.271 154.212C581.42 157.013 574.083 157.317 569.882 154.892Z" fill="url(#paint32_linear_1363_1664)"/>
<path opacity="0.1" d="M569.882 164.056L518.332 134.293C514.131 131.868 514.658 127.632 519.509 124.831L568.289 96.6684C573.14 93.8675 580.477 93.5637 584.678 95.9891L636.228 125.751C640.429 128.177 639.902 132.412 635.051 135.213L586.271 163.376C581.42 166.177 574.083 166.481 569.882 164.056Z" fill="url(#paint33_linear_1363_1664)"/>
<path d="M570.896 141.524L526.416 115.843C522.792 113.751 523.245 110.096 527.432 107.679L569.52 83.3777C573.705 80.9617 580.039 80.6989 583.66 82.7915L628.142 108.473C631.766 110.565 631.312 114.22 627.126 116.637L585.036 140.938C580.851 143.354 574.517 143.617 570.896 141.524Z" fill="url(#paint34_linear_1363_1664)"/>
<path d="M572.287 131.347L537.473 111.248C534.637 109.612 534.993 106.75 538.268 104.858L571.211 85.838C574.487 83.947 579.442 83.7408 582.28 85.3799L617.093 105.479C619.929 107.115 619.574 109.977 616.298 111.869L583.355 130.889C580.08 132.78 575.124 132.986 572.287 131.347Z" fill="#E4EBED"/>
<path d="M619.001 100.707H535.648V108.37H619.001V100.707Z" fill="#E4EBED"/>
<path d="M572.287 123.687L537.473 103.588C534.637 101.952 534.993 99.0899 538.268 97.1979L571.211 78.1779C574.487 76.2868 579.442 76.0806 582.28 77.7197L617.093 97.8187C619.929 99.455 619.574 102.317 616.298 104.209L583.355 123.229C580.08 125.12 575.124 125.326 572.287 123.687Z" fill="#F8FCFF"/>
<path d="M572.287 123.687L537.473 103.588C534.637 101.952 534.993 99.0899 538.268 97.1979L571.211 78.1779C574.487 76.2868 579.442 76.0806 582.28 77.7197L617.093 97.8187C619.929 99.455 619.574 102.317 616.298 104.209L583.355 123.229C580.08 125.12 575.124 125.326 572.287 123.687Z" fill="url(#paint35_radial_1363_1664)"/>
<path d="M572.285 118.48L537.471 98.3812C534.635 96.7449 534.991 93.8829 538.266 91.9909L571.209 72.9708C574.485 71.0798 579.44 70.8736 582.278 72.5127L617.091 92.6117C619.927 94.248 619.572 97.1101 616.296 99.002L583.353 118.022C580.078 119.913 575.122 120.119 572.285 118.48Z" fill="#E4EBED"/>
<path d="M619.001 87.8359H535.648V95.4988H619.001V87.8359Z" fill="#E4EBED"/>
<path d="M576.919 64.0391C578.888 63.9574 580.779 64.3115 582.139 65.0967L616.952 85.1953C618.304 85.9753 618.836 87.0057 618.71 88.0205C618.581 89.0569 617.755 90.1824 616.157 91.1055L583.214 110.125C581.622 111.044 579.61 111.56 577.644 111.642C575.675 111.723 573.783 111.369 572.424 110.584L537.61 90.4844C536.258 89.7044 535.726 88.6748 535.853 87.6602C535.981 86.6238 536.807 85.4983 538.405 84.5752L571.349 65.5547C572.941 64.6355 574.953 64.1206 576.919 64.0391Z" fill="#F8FCFF" stroke="#E6E6E6" stroke-width="0.554699"/>
<path opacity="0.64" d="M554.386 83.3458H554.324V4.47266H600.231V83.3458H600.17C599.31 89.4608 589.388 94.284 577.277 94.284C565.165 94.284 555.246 89.4608 554.386 83.3458Z" fill="url(#paint36_linear_1363_1664)"/>
<path d="M576.8 45.4395C576.8 42.3405 579.321 39.819 582.42 39.819C582.906 39.819 583.375 39.8872 583.825 40.0038V32.0909C583.825 30.1512 582.252 28.5781 580.313 28.5781H571.882C569.942 28.5781 568.369 30.1512 568.369 32.0909V44.0344C568.369 45.9742 569.942 47.5472 571.882 47.5472H577.214C576.949 46.8959 576.8 46.1849 576.8 45.4395ZM571.882 32.0909H577.502C577.891 32.0909 578.205 32.4057 578.205 32.7935C578.205 33.1813 577.891 33.496 577.502 33.496H571.882C571.493 33.496 571.179 33.1813 571.179 32.7935C571.179 32.4057 571.493 32.0909 571.882 32.0909ZM571.882 35.6037H580.313C580.701 35.6037 581.015 35.9184 581.015 36.3063C581.015 36.6941 580.701 37.0088 580.313 37.0088H571.882C571.493 37.0088 571.179 36.6941 571.179 36.3063C571.179 35.9184 571.493 35.6037 571.882 35.6037ZM574.257 44.0344H571.882C571.493 44.0344 571.179 43.7196 571.179 43.3318C571.179 42.944 571.493 42.6293 571.882 42.6293H574.257C574.645 42.6293 574.959 42.944 574.959 43.3318C574.959 43.7196 574.645 44.0344 574.257 44.0344ZM576.146 40.5216H571.882C571.493 40.5216 571.179 40.2069 571.179 39.819C571.179 39.4312 571.493 39.1165 571.882 39.1165H576.146C576.535 39.1165 576.849 39.4312 576.849 39.819C576.849 40.2069 576.535 40.5216 576.146 40.5216Z" fill="black"/>
<path d="M582.42 41.2227C580.096 41.2227 578.205 43.1139 578.205 45.438C578.205 47.7621 580.096 49.6533 582.42 49.6533C584.744 49.6533 586.636 47.7621 586.636 45.438C586.636 43.1139 584.744 41.2227 582.42 41.2227ZM584.322 45.1387L582.449 47.0124C582.312 47.1494 582.132 47.2183 581.952 47.2183C581.772 47.2183 581.592 47.1494 581.455 47.0124L580.519 46.0759C580.244 45.8012 580.244 45.3572 580.519 45.0825C580.793 44.8078 581.237 44.8078 581.512 45.0825L581.952 45.5223L583.329 44.146C583.604 43.8713 584.048 43.8713 584.322 44.146C584.597 44.4207 584.597 44.8654 584.322 45.1394V45.1387Z" fill="black"/>
<path opacity="0.2" d="M827.628 150.423L776.078 120.66C771.877 118.235 772.404 113.999 777.255 111.199L826.035 83.0356C830.886 80.2347 838.223 79.9308 842.424 82.3563L893.974 112.119C898.175 114.544 897.648 118.78 892.798 121.581L844.017 149.744C839.166 152.544 831.83 152.848 827.628 150.423Z" fill="url(#paint37_linear_1363_1664)"/>
<path opacity="0.1" d="M827.628 159.587L776.078 129.825C771.877 127.399 772.404 123.163 777.255 120.363L826.035 92.1996C830.886 89.3988 838.223 89.0949 842.424 91.5203L893.974 121.283C898.175 123.708 897.648 127.944 892.798 130.745L844.017 158.908C839.166 161.708 831.83 162.012 827.628 159.587Z" fill="url(#paint38_linear_1363_1664)"/>
<path d="M828.644 137.052L784.164 111.371C780.54 109.278 780.993 105.623 785.18 103.207L827.268 78.9051C831.453 76.489 837.787 76.2263 841.408 78.3188L885.89 104C889.514 106.092 889.06 109.747 884.874 112.164L842.784 136.465C838.599 138.881 832.265 139.144 828.644 137.052Z" fill="url(#paint39_linear_1363_1664)"/>
<path d="M830.031 126.875L795.218 106.776C792.381 105.139 792.737 102.277 796.012 100.385L828.956 81.3654C832.231 79.4743 837.186 79.2681 840.024 80.9072L874.837 101.006C877.673 102.643 877.318 105.505 874.042 107.397L841.099 126.416C837.824 128.307 832.869 128.514 830.031 126.875Z" fill="#E4EBED"/>
<path d="M876.748 96.2344H793.395V103.897H876.748V96.2344Z" fill="#E4EBED"/>
<path d="M830.031 119.218L795.218 99.1195C792.381 97.4832 792.737 94.6211 796.012 92.7291L828.956 73.7091C832.231 71.818 837.186 71.6119 840.024 73.251L874.837 93.35C877.673 94.9862 877.318 97.8483 874.042 99.7403L841.099 118.76C837.824 120.651 832.868 120.857 830.031 119.218Z" fill="#F8FCFF"/>
<path d="M830.031 119.218L795.218 99.1195C792.381 97.4832 792.737 94.6211 796.012 92.7291L828.956 73.7091C832.231 71.818 837.186 71.6119 840.024 73.251L874.837 93.35C877.673 94.9862 877.318 97.8483 874.042 99.7403L841.099 118.76C837.824 120.651 832.868 120.857 830.031 119.218Z" fill="url(#paint40_radial_1363_1664)"/>
<path d="M830.031 114.011L795.218 93.9124C792.381 92.2762 792.737 89.4141 796.012 87.5221L828.956 68.5021C832.231 66.611 837.186 66.4048 840.024 68.0439L874.837 88.143C877.673 89.7792 877.318 92.6413 874.042 94.5333L841.099 113.553C837.824 115.444 832.868 115.65 830.031 114.011Z" fill="#E4EBED"/>
<path d="M876.748 83.3672H793.395V91.0301H876.748V83.3672Z" fill="#E4EBED"/>
<path d="M834.665 59.5664C836.634 59.4848 838.525 59.8389 839.885 60.624L874.698 80.7227C876.05 81.5027 876.582 82.5331 876.456 83.5479C876.327 84.5842 875.501 85.7097 873.903 86.6328L840.96 105.652C839.368 106.572 837.356 107.087 835.39 107.169C833.421 107.251 831.529 106.896 830.17 106.111L795.356 86.0117C794.004 85.2318 793.473 84.2022 793.599 83.1875C793.728 82.1511 794.553 81.0256 796.151 80.1025L829.095 61.082C830.687 60.1629 832.699 59.648 834.665 59.5664Z" fill="#F8FCFF" stroke="#E6E6E6" stroke-width="0.554699"/>
<path opacity="0.64" d="M812.134 78.8732H812.072V0H857.979V78.8732H857.918C857.058 84.9882 847.136 89.8113 835.025 89.8113C822.913 89.8113 812.994 84.9882 812.134 78.8732Z" fill="url(#paint41_linear_1363_1664)"/>
<path d="M835.705 36.0423C835.512 36.0248 835.311 36.016 835.119 36.016C834.996 36.016 834.882 36.016 834.76 36.0248C833.281 36.0948 831.907 36.6023 830.778 37.4161L826.447 29.5494C826.342 29.3482 826.342 29.1032 826.456 28.9019C826.578 28.7006 826.788 28.5781 827.024 28.5781H830.962C831.198 28.5781 831.408 28.7006 831.531 28.9019L835.215 35.2022L835.705 36.0423Z" fill="black"/>
<path d="M843.791 29.5494L839.459 37.4161C838.847 36.9698 838.164 36.6198 837.429 36.3835L835.959 33.8634L838.698 28.9194C838.82 28.7094 839.039 28.5781 839.275 28.5781H843.213C843.449 28.5781 843.659 28.7006 843.782 28.9019C843.896 29.1032 843.896 29.3482 843.791 29.5494Z" fill="black"/>
<path d="M835.118 37.3281C831.74 37.3281 828.992 40.0758 828.992 43.4535C828.992 46.8311 831.74 49.5788 835.118 49.5788C838.495 49.5788 841.243 46.8311 841.243 43.4535C841.243 40.0758 838.495 37.3281 835.118 37.3281ZM838.431 43.2408L837.24 44.4615L837.523 46.1923C837.563 46.44 837.459 46.6894 837.253 46.8346C837.141 46.9134 837.008 46.9536 836.875 46.9536C836.766 46.9536 836.657 46.9265 836.558 46.8714L835.118 46.076L833.677 46.8723C833.458 46.9939 833.186 46.9799 832.982 46.8346C832.776 46.6894 832.672 46.44 832.711 46.1923L832.994 44.4615L831.803 43.2408C831.631 43.0649 831.572 42.8068 831.651 42.574C831.728 42.3404 831.93 42.1715 832.174 42.1339L833.794 41.8862L834.523 40.3313C834.739 39.8701 835.496 39.8701 835.711 40.3313L836.441 41.8862L838.06 42.1339C838.304 42.1706 838.506 42.3404 838.584 42.574C838.662 42.8068 838.603 43.0649 838.431 43.2408Z" fill="black"/>
<path opacity="0.2" d="M956.503 239.071L904.953 209.309C900.752 206.883 901.279 202.648 906.13 199.847L954.91 171.684C959.761 168.883 967.098 168.579 971.299 171.005L1022.85 200.767C1027.05 203.193 1026.52 207.428 1021.67 210.229L972.892 238.392C968.041 241.193 960.705 241.497 956.503 239.071Z" fill="url(#paint42_linear_1363_1664)"/>
<path opacity="0.1" d="M956.503 248.235L904.953 218.473C900.752 216.048 901.279 211.812 906.13 209.011L954.91 180.848C959.761 178.047 967.098 177.743 971.299 180.169L1022.85 209.931C1027.05 212.357 1026.52 216.592 1021.67 219.393L972.892 247.556C968.041 250.357 960.705 250.661 956.503 248.235Z" fill="url(#paint43_linear_1363_1664)"/>
<path d="M957.517 225.704L913.037 200.023C909.413 197.93 909.866 194.275 914.053 191.859L956.141 167.557C960.326 165.141 966.66 164.879 970.281 166.971L1014.76 192.652C1018.39 194.745 1017.93 198.4 1013.75 200.816L971.657 225.118C967.472 227.534 961.138 227.797 957.517 225.704Z" fill="url(#paint44_linear_1363_1664)"/>
<path d="M958.904 215.523L924.091 195.424C921.254 193.788 921.61 190.926 924.885 189.034L957.829 170.014C961.104 168.123 966.059 167.917 968.897 169.556L1003.71 189.655C1006.55 191.291 1006.19 194.153 1002.92 196.045L969.972 215.065C966.697 216.956 961.742 217.162 958.904 215.523Z" fill="#E4EBED"/>
<path d="M1005.62 184.879H922.27V192.542H1005.62V184.879Z" fill="#E4EBED"/>
<path d="M958.904 207.867L924.091 187.768C921.254 186.132 921.61 183.27 924.885 181.378L957.829 162.358C961.104 160.466 966.059 160.26 968.897 161.899L1003.71 181.998C1006.55 183.635 1006.19 186.497 1002.92 188.389L969.972 207.408C966.697 209.299 961.741 209.506 958.904 207.867Z" fill="#F8FCFF"/>
<path d="M958.904 207.867L924.091 187.768C921.254 186.132 921.61 183.27 924.885 181.378L957.829 162.358C961.104 160.466 966.059 160.26 968.897 161.899L1003.71 181.998C1006.55 183.635 1006.19 186.497 1002.92 188.389L969.972 207.408C966.697 209.299 961.741 209.506 958.904 207.867Z" fill="url(#paint45_radial_1363_1664)"/>
<path d="M958.904 202.664L924.091 182.565C921.254 180.929 921.61 178.066 924.885 176.174L957.829 157.154C961.104 155.263 966.059 155.057 968.897 156.696L1003.71 176.795C1006.55 178.432 1006.19 181.294 1002.92 183.186L969.972 202.205C966.697 204.096 961.741 204.302 958.904 202.664Z" fill="#E4EBED"/>
<path d="M1005.62 172.016H922.27V179.679H1005.62V172.016Z" fill="#E4EBED"/>
<path d="M963.538 148.215C965.507 148.133 967.398 148.487 968.758 149.272L1003.57 169.371C1004.92 170.151 1005.46 171.182 1005.33 172.196C1005.2 173.233 1004.37 174.358 1002.78 175.281L969.833 194.301C968.241 195.22 966.229 195.736 964.263 195.817C962.294 195.899 960.402 195.545 959.043 194.76L924.229 174.66C922.878 173.88 922.346 172.851 922.472 171.836C922.601 170.8 923.426 169.674 925.024 168.751L957.968 149.73C959.56 148.811 961.572 148.296 963.538 148.215Z" fill="#F8FCFF" stroke="#E6E6E6" stroke-width="0.554699"/>
<path opacity="0.64" d="M941.007 167.518H940.945V88.6445H986.852V167.518H986.791C985.931 173.633 976.009 178.456 963.898 178.456C951.786 178.456 941.867 173.633 941.007 167.518Z" fill="url(#paint46_linear_1363_1664)"/>
<path d="M964.568 119.905C964.869 119.823 965.068 119.579 965.087 119.268C965.105 118.956 964.937 118.69 964.648 118.574L961.861 117.449C961.286 117.218 960.917 116.71 960.874 116.092C960.831 115.474 961.126 114.92 961.663 114.61L962.598 114.071C963.211 113.718 963.516 113.042 963.376 112.35C963.375 112.342 962.832 108.858 962.832 108.852L961.804 110.322L960.107 111.15C960 111.202 959.914 111.288 959.863 111.394L958.119 115.006L955.982 116.303C955.864 116.375 955.779 116.49 955.745 116.623L954.386 121.927C954.345 122.085 954.38 122.253 954.48 122.382C954.58 122.51 954.734 122.586 954.897 122.586L956.115 122.586L964.547 119.911C964.554 119.909 964.561 119.907 964.568 119.905Z" fill="black"/>
<path d="M972.329 121.85L970.154 116.654C970.115 116.562 970.052 116.483 969.971 116.426L967.689 114.819L966.784 112.489C966.764 112.438 966.737 112.391 966.703 112.348L963.905 108.879L964.414 112.15C964.639 113.29 964.135 114.401 963.126 114.982L962.19 115.521C962.006 115.627 961.913 115.803 961.928 116.015C961.942 116.227 962.059 116.388 962.257 116.467L965.043 117.592C965.756 117.879 966.187 118.56 966.141 119.327C966.096 120.09 965.592 120.712 964.857 120.917L959.607 122.582L971.842 122.581C972.018 122.581 972.183 122.493 972.281 122.346C972.379 122.199 972.397 122.013 972.329 121.85Z" fill="black"/>
<path d="M963.893 107.744H965.827C966.003 107.744 966.166 107.657 966.264 107.512C966.362 107.367 966.382 107.183 966.317 107.02L965.974 106.161L966.317 105.302C966.382 105.139 966.362 104.955 966.264 104.81C966.166 104.665 966.003 104.578 965.827 104.578H963.365C963.074 104.578 962.838 104.814 962.838 105.106V108.261H963.893V107.744Z" fill="black"/>
<defs>
<linearGradient id="paint0_linear_1363_1664" x1="83.3688" y1="127.156" x2="166.316" y2="162.104" gradientUnits="userSpaceOnUse">
<stop stop-color="#70AE3C"/>
<stop offset="1" stop-color="#ECBB0B"/>
</linearGradient>
<linearGradient id="paint1_linear_1363_1664" x1="268.293" y1="132.296" x2="254.021" y2="122.349" gradientUnits="userSpaceOnUse">
<stop stop-color="#D1B916"/>
<stop offset="1" stop-color="#56AB45"/>
</linearGradient>
<linearGradient id="paint2_linear_1363_1664" x1="463.537" y1="170.201" x2="483.169" y2="186.593" gradientUnits="userSpaceOnUse">
<stop stop-color="#5EAC43"/>
<stop offset="1" stop-color="#D5B914"/>
</linearGradient>
<linearGradient id="paint3_linear_1363_1664" x1="729.248" y1="166.219" x2="753.833" y2="184.892" gradientUnits="userSpaceOnUse">
<stop stop-color="#5EAC43"/>
<stop offset="1" stop-color="#D5B914"/>
</linearGradient>
<linearGradient id="paint4_linear_1363_1664" x1="383.588" y1="122.945" x2="383.588" y2="181.893" gradientUnits="userSpaceOnUse">
<stop stop-color="#68AE3F"/>
<stop offset="1" stop-color="#ECBB0B"/>
</linearGradient>
<linearGradient id="paint5_linear_1363_1664" x1="641.273" y1="122.945" x2="641.273" y2="181.893" gradientUnits="userSpaceOnUse">
<stop stop-color="#68AE3F"/>
<stop offset="1" stop-color="#ECBB0B"/>
</linearGradient>
<linearGradient id="paint6_linear_1363_1664" x1="901.484" y1="119.578" x2="901.484" y2="178.526" gradientUnits="userSpaceOnUse">
<stop stop-color="#68AE3F"/>
<stop offset="1" stop-color="#ECBB0B"/>
</linearGradient>
<linearGradient id="paint7_linear_1363_1664" x1="138.303" y1="190.987" x2="219.844" y2="231.48" gradientUnits="userSpaceOnUse">
<stop stop-color="#ECBB0B"/>
<stop offset="1" stop-color="#53AB46"/>
</linearGradient>
<linearGradient id="paint8_linear_1363_1664" x1="135.529" y1="211.235" x2="207.64" y2="244.239" gradientUnits="userSpaceOnUse">
<stop stop-color="#ECBB0B"/>
<stop offset="1" stop-color="#4EAB49"/>
</linearGradient>
<linearGradient id="paint9_linear_1363_1664" x1="148.842" y1="184.332" x2="246.191" y2="211.235" gradientUnits="userSpaceOnUse">
<stop stop-color="#ECBB0B"/>
<stop offset="1" stop-color="#40A94E"/>
</linearGradient>
<radialGradient id="paint10_radial_1363_1664" cx="0" cy="0" r="1" gradientUnits="userSpaceOnUse" gradientTransform="translate(138.664 108.018) scale(34.0422 21.4599)">
<stop stop-color="#34A853"/>
<stop offset="1" stop-color="white"/>
</radialGradient>
<linearGradient id="paint11_linear_1363_1664" x1="190.656" y1="88.6445" x2="190.446" y2="185.162" gradientUnits="userSpaceOnUse">
<stop stop-color="#ECBB0B" stop-opacity="0"/>
<stop offset="0.464996" stop-color="#FFF372" stop-opacity="0.258208"/>
<stop offset="1" stop-color="#5BAC44"/>
</linearGradient>
<linearGradient id="paint12_linear_1363_1664" x1="267.178" y1="104.577" x2="348.719" y2="145.07" gradientUnits="userSpaceOnUse">
<stop stop-color="#ECBB0B"/>
<stop offset="1" stop-color="#53AB46"/>
</linearGradient>
<linearGradient id="paint13_linear_1363_1664" x1="264.404" y1="124.821" x2="336.515" y2="157.825" gradientUnits="userSpaceOnUse">
<stop stop-color="#ECBB0B"/>
<stop offset="1" stop-color="#4EAB49"/>
</linearGradient>
<linearGradient id="paint14_linear_1363_1664" x1="277.717" y1="97.9176" x2="375.066" y2="124.821" gradientUnits="userSpaceOnUse">
<stop stop-color="#ECBB0B"/>
<stop offset="1" stop-color="#40A94E"/>
</linearGradient>
<radialGradient id="paint15_radial_1363_1664" cx="0" cy="0" r="1" gradientUnits="userSpaceOnUse" gradientTransform="translate(267.539 21.6076) scale(34.0422 21.4599)">
<stop stop-color="#34A853"/>
<stop offset="1" stop-color="white"/>
</radialGradient>
<linearGradient id="paint16_linear_1363_1664" x1="319.531" y1="2.23437" x2="319.321" y2="98.752" gradientUnits="userSpaceOnUse">
<stop stop-color="#ECBB0B" stop-opacity="0"/>
<stop offset="0.464996" stop-color="#FFF372" stop-opacity="0.258208"/>
<stop offset="1" stop-color="#5BAC44"/>
</linearGradient>
<linearGradient id="paint17_linear_1363_1664" x1="653.799" y1="190.987" x2="735.34" y2="231.48" gradientUnits="userSpaceOnUse">
<stop stop-color="#ECBB0B"/>
<stop offset="1" stop-color="#53AB46"/>
</linearGradient>
<linearGradient id="paint18_linear_1363_1664" x1="651.026" y1="211.235" x2="723.136" y2="244.239" gradientUnits="userSpaceOnUse">
<stop stop-color="#ECBB0B"/>
<stop offset="1" stop-color="#4EAB49"/>
</linearGradient>
<linearGradient id="paint19_linear_1363_1664" x1="664.336" y1="184.332" x2="761.685" y2="211.235" gradientUnits="userSpaceOnUse">
<stop stop-color="#ECBB0B"/>
<stop offset="1" stop-color="#40A94E"/>
</linearGradient>
<radialGradient id="paint20_radial_1363_1664" cx="0" cy="0" r="1" gradientUnits="userSpaceOnUse" gradientTransform="translate(654.156 108.018) scale(34.0422 21.4599)">
<stop stop-color="#34A853"/>
<stop offset="1" stop-color="white"/>
</radialGradient>
<linearGradient id="paint21_linear_1363_1664" x1="706.152" y1="88.6445" x2="705.942" y2="185.162" gradientUnits="userSpaceOnUse">
<stop stop-color="#ECBB0B" stop-opacity="0"/>
<stop offset="0.464996" stop-color="#FFF372" stop-opacity="0.258208"/>
<stop offset="1" stop-color="#5BAC44"/>
</linearGradient>
<linearGradient id="paint22_linear_1363_1664" x1="9.42988" y1="104.577" x2="90.9706" y2="145.07" gradientUnits="userSpaceOnUse">
<stop stop-color="#ECBB0B"/>
<stop offset="1" stop-color="#53AB46"/>
</linearGradient>
<linearGradient id="paint23_linear_1363_1664" x1="6.65639" y1="124.821" x2="78.7672" y2="157.825" gradientUnits="userSpaceOnUse">
<stop stop-color="#ECBB0B"/>
<stop offset="1" stop-color="#4EAB49"/>
</linearGradient>
<linearGradient id="paint24_linear_1363_1664" x1="19.9705" y1="97.9176" x2="117.32" y2="124.821" gradientUnits="userSpaceOnUse">
<stop stop-color="#ECBB0B"/>
<stop offset="1" stop-color="#40A94E"/>
</linearGradient>
<radialGradient id="paint25_radial_1363_1664" cx="0" cy="0" r="1" gradientUnits="userSpaceOnUse" gradientTransform="translate(9.78864 21.6076) scale(34.0422 21.4599)">
<stop stop-color="#34A853"/>
<stop offset="1" stop-color="white"/>
</radialGradient>
<linearGradient id="paint26_linear_1363_1664" x1="61.7832" y1="2.23437" x2="61.5727" y2="98.752" gradientUnits="userSpaceOnUse">
<stop stop-color="#ECBB0B" stop-opacity="0"/>
<stop offset="0.464996" stop-color="#FFF372" stop-opacity="0.258208"/>
<stop offset="1" stop-color="#5BAC44"/>
</linearGradient>
<linearGradient id="paint27_linear_1363_1664" x1="396.051" y1="190.987" x2="477.592" y2="231.48" gradientUnits="userSpaceOnUse">
<stop stop-color="#ECBB0B"/>
<stop offset="1" stop-color="#53AB46"/>
</linearGradient>
<linearGradient id="paint28_linear_1363_1664" x1="393.277" y1="211.235" x2="465.388" y2="244.239" gradientUnits="userSpaceOnUse">
<stop stop-color="#ECBB0B"/>
<stop offset="1" stop-color="#4EAB49"/>
</linearGradient>
<linearGradient id="paint29_linear_1363_1664" x1="406.592" y1="184.332" x2="503.941" y2="211.235" gradientUnits="userSpaceOnUse">
<stop stop-color="#ECBB0B"/>
<stop offset="1" stop-color="#40A94E"/>
</linearGradient>
<radialGradient id="paint30_radial_1363_1664" cx="0" cy="0" r="1" gradientUnits="userSpaceOnUse" gradientTransform="translate(396.412 108.018) scale(34.0422 21.4599)">
<stop stop-color="#34A853"/>
<stop offset="1" stop-color="white"/>
</radialGradient>
<linearGradient id="paint31_linear_1363_1664" x1="448.404" y1="88.6445" x2="448.194" y2="185.162" gradientUnits="userSpaceOnUse">
<stop stop-color="#ECBB0B" stop-opacity="0"/>
<stop offset="0.464996" stop-color="#FFF372" stop-opacity="0.258208"/>
<stop offset="1" stop-color="#5BAC44"/>
</linearGradient>
<linearGradient id="paint32_linear_1363_1664" x1="524.926" y1="106.808" x2="606.467" y2="147.301" gradientUnits="userSpaceOnUse">
<stop stop-color="#ECBB0B"/>
<stop offset="1" stop-color="#53AB46"/>
</linearGradient>
<linearGradient id="paint33_linear_1363_1664" x1="522.152" y1="127.055" x2="594.263" y2="160.06" gradientUnits="userSpaceOnUse">
<stop stop-color="#ECBB0B"/>
<stop offset="1" stop-color="#4EAB49"/>
</linearGradient>
<linearGradient id="paint34_linear_1363_1664" x1="535.465" y1="100.152" x2="632.814" y2="127.055" gradientUnits="userSpaceOnUse">
<stop stop-color="#ECBB0B"/>
<stop offset="1" stop-color="#40A94E"/>
</linearGradient>
<radialGradient id="paint35_radial_1363_1664" cx="0" cy="0" r="1" gradientUnits="userSpaceOnUse" gradientTransform="translate(525.287 23.8381) scale(34.0422 21.4599)">
<stop stop-color="#34A853"/>
<stop offset="1" stop-color="white"/>
</radialGradient>
<linearGradient id="paint36_linear_1363_1664" x1="577.277" y1="4.47266" x2="577.067" y2="100.99" gradientUnits="userSpaceOnUse">
<stop stop-color="#ECBB0B" stop-opacity="0"/>
<stop offset="0.464996" stop-color="#FFF372" stop-opacity="0.258208"/>
<stop offset="1" stop-color="#5BAC44"/>
</linearGradient>
<linearGradient id="paint37_linear_1363_1664" x1="782.672" y1="102.339" x2="864.213" y2="142.832" gradientUnits="userSpaceOnUse">
<stop stop-color="#ECBB0B"/>
<stop offset="1" stop-color="#53AB46"/>
</linearGradient>
<linearGradient id="paint38_linear_1363_1664" x1="779.899" y1="122.586" x2="852.009" y2="155.591" gradientUnits="userSpaceOnUse">
<stop stop-color="#ECBB0B"/>
<stop offset="1" stop-color="#4EAB49"/>
</linearGradient>
<linearGradient id="paint39_linear_1363_1664" x1="793.213" y1="95.6793" x2="890.562" y2="122.582" gradientUnits="userSpaceOnUse">
<stop stop-color="#ECBB0B"/>
<stop offset="1" stop-color="#40A94E"/>
</linearGradient>
<radialGradient id="paint40_radial_1363_1664" cx="0" cy="0" r="1" gradientUnits="userSpaceOnUse" gradientTransform="translate(783.031 19.3693) scale(34.0422 21.4599)">
<stop stop-color="#34A853"/>
<stop offset="1" stop-color="white"/>
</radialGradient>
<linearGradient id="paint41_linear_1363_1664" x1="835.025" y1="-3.20673e-09" x2="834.815" y2="96.5176" gradientUnits="userSpaceOnUse">
<stop stop-color="#ECBB0B" stop-opacity="0"/>
<stop offset="0.464996" stop-color="#FFF372" stop-opacity="0.258208"/>
<stop offset="1" stop-color="#5BAC44"/>
</linearGradient>
<linearGradient id="paint42_linear_1363_1664" x1="911.547" y1="190.987" x2="993.088" y2="231.48" gradientUnits="userSpaceOnUse">
<stop stop-color="#ECBB0B"/>
<stop offset="1" stop-color="#53AB46"/>
</linearGradient>
<linearGradient id="paint43_linear_1363_1664" x1="908.774" y1="211.235" x2="980.884" y2="244.239" gradientUnits="userSpaceOnUse">
<stop stop-color="#ECBB0B"/>
<stop offset="1" stop-color="#4EAB49"/>
</linearGradient>
<linearGradient id="paint44_linear_1363_1664" x1="922.086" y1="184.332" x2="1019.44" y2="211.235" gradientUnits="userSpaceOnUse">
<stop stop-color="#ECBB0B"/>
<stop offset="1" stop-color="#40A94E"/>
</linearGradient>
<radialGradient id="paint45_radial_1363_1664" cx="0" cy="0" r="1" gradientUnits="userSpaceOnUse" gradientTransform="translate(911.904 108.018) scale(34.0422 21.4599)">
<stop stop-color="#34A853"/>
<stop offset="1" stop-color="white"/>
</radialGradient>
<linearGradient id="paint46_linear_1363_1664" x1="963.898" y1="88.6445" x2="963.688" y2="185.162" gradientUnits="userSpaceOnUse">
<stop stop-color="#ECBB0B" stop-opacity="0"/>
<stop offset="0.464996" stop-color="#FFF372" stop-opacity="0.258208"/>
<stop offset="1" stop-color="#5BAC44"/>
</linearGradient>
</defs>
</svg>
