<svg width="105" height="1175" viewBox="0 0 105 1175" fill="none" xmlns="http://www.w3.org/2000/svg">
<path opacity="0.2" d="M46.7735 126.607L3.38682 101.558C-0.14893 99.5167 0.294907 95.9518 4.37758 93.5945L45.4329 69.8913C49.5156 67.534 55.6904 67.2783 59.2265 69.3196L102.613 94.3689C106.149 96.4102 105.705 99.9751 101.623 102.332L60.5671 126.036C56.4844 128.393 50.3096 128.649 46.7735 126.607Z" fill="url(#paint0_linear_1363_1665)"/>
<path opacity="0.1" d="M46.7735 134.314L3.38682 109.265C-0.14893 107.224 0.294907 103.659 4.37758 101.302L45.4329 77.5984C49.5156 75.2411 55.6904 74.9853 59.2265 77.0266L102.613 102.076C106.149 104.117 105.705 107.682 101.623 110.039L60.5671 133.743C56.4844 136.1 50.3096 136.356 46.7735 134.314Z" fill="url(#paint1_linear_1363_1665)"/>
<path d="M47.6284 115.351L10.1922 93.7371C7.14204 91.9759 7.52371 88.8997 11.0473 86.8659L46.4704 66.4128C49.9928 64.3793 55.3236 64.1582 58.3718 65.9194L95.8091 87.5336C98.8593 89.2948 98.4777 92.371 94.9541 94.4048L59.5298 114.858C56.0074 116.891 50.6766 117.113 47.6284 115.351Z" fill="url(#paint2_linear_1363_1665)"/>
<path d="M48.7967 106.787L19.4963 89.8712C17.1091 88.4941 17.4086 86.0852 20.1652 84.4928L47.8917 68.4848C50.6484 66.8932 54.8188 66.7197 57.2071 68.0992L86.5075 85.0154C88.8947 86.3925 88.5952 88.8014 85.8386 90.3937L58.1121 106.401C55.3555 107.993 51.185 108.167 48.7967 106.787Z" fill="#E4EBED"/>
<path d="M88.1144 80.9961H17.9609V87.4455H88.1144V80.9961Z" fill="#E4EBED"/>
<path d="M48.7967 100.342L19.4963 83.4259C17.1091 82.0487 17.4086 79.6399 20.1652 78.0475L47.8917 62.0395C50.6484 60.4479 54.8188 60.2744 57.2071 61.6539L86.5075 78.57C88.8947 79.9472 88.5952 82.356 85.8386 83.9484L58.1121 99.9561C55.3555 101.548 51.1847 101.721 48.7967 100.342Z" fill="#F8FCFF"/>
<path d="M48.7967 100.342L19.4963 83.4259C17.1091 82.0487 17.4086 79.6399 20.1652 78.0475L47.8917 62.0395C50.6484 60.4479 54.8188 60.2744 57.2071 61.6539L86.5075 78.57C88.8947 79.9472 88.5952 82.356 85.8386 83.9484L58.1121 99.9561C55.3555 101.548 51.1847 101.721 48.7967 100.342Z" fill="url(#paint3_radial_1363_1665)"/>
<path d="M48.7967 95.9593L19.4963 79.0431C17.1091 77.6659 17.4086 75.2571 20.1652 73.6647L47.8917 57.6567C50.6484 56.0651 54.8188 55.8915 57.2071 57.2711L86.5075 74.1872C88.8947 75.5644 88.5952 77.9732 85.8386 79.5656L58.1121 95.5733C55.3555 97.1649 51.1847 97.3384 48.7967 95.9593Z" fill="#E4EBED"/>
<path d="M88.1144 70.1641H17.9609V76.6135H88.1144V70.1641Z" fill="#E4EBED"/>
<path d="M52.6973 50.1377C54.3545 50.069 55.9467 50.3675 57.0908 51.0283L86.3906 67.9443C87.5285 68.6007 87.9762 69.4673 87.8701 70.3213C87.7616 71.1936 87.0666 72.1411 85.7217 72.918L57.9951 88.9258C56.655 89.6994 54.9616 90.1335 53.3066 90.2021C51.6493 90.2709 50.057 89.9722 48.9131 89.3115L19.6133 72.3955C18.4755 71.7391 18.0278 70.8725 18.1338 70.0186C18.2423 69.1463 18.9373 68.1988 20.2822 67.4219L48.0088 51.4131C49.3489 50.6395 51.0424 50.2063 52.6973 50.1377Z" fill="#F8FCFF" stroke="#E6E6E6" stroke-width="0.466858"/>
<path opacity="0.64" d="M33.7335 66.383H33.6816V0H72.3183V66.383H72.2674C71.5438 71.5296 63.1927 75.5889 52.9993 75.5889C42.8059 75.5889 34.4571 71.5296 33.7335 66.383Z" fill="url(#paint4_linear_1363_1665)"/>
<path d="M51.0183 37.7678C51.0172 36.5066 51.4535 35.2841 52.2528 34.3085C53.0521 33.333 54.165 32.6648 55.4018 32.4179C56.6386 32.171 57.9227 32.3607 59.0353 32.9546C60.1479 33.5485 61.0201 34.5099 61.5033 35.6749C61.9864 36.8398 62.0506 38.1363 61.6849 39.3433C61.3192 40.5503 60.5462 41.5932 59.4977 42.2941C58.4492 42.995 57.1901 43.3105 55.9349 43.187C54.6798 43.0635 53.5063 42.5085 52.6146 41.6167C52.1088 41.1114 51.7075 40.5114 51.4337 39.851C51.1598 39.1906 51.0187 38.4828 51.0183 37.7678ZM53.4722 37.1982C53.3971 37.273 53.3376 37.3618 53.2969 37.4596C53.2563 37.5575 53.2354 37.6624 53.2354 37.7683C53.2354 37.8743 53.2563 37.9792 53.2969 38.077C53.3376 38.1749 53.3971 38.2637 53.4722 38.3385L55.0859 39.9508C55.2373 40.102 55.4424 40.1869 55.6563 40.187H55.6828C55.7932 40.1834 55.9016 40.1571 56.0013 40.1098C56.1011 40.0625 56.19 39.9952 56.2626 39.912L59.0856 36.6856C59.1565 36.606 59.2109 36.5132 59.2457 36.4126C59.2805 36.3119 59.2951 36.2053 59.2885 36.099C59.2819 35.9927 59.2544 35.8887 59.2075 35.793C59.1605 35.6974 59.0951 35.612 59.015 35.5418C58.9349 35.4715 58.8417 35.4178 58.7408 35.3838C58.6398 35.3498 58.5332 35.336 58.4269 35.3434C58.3206 35.3508 58.2169 35.3791 58.1216 35.4268C58.0263 35.4745 57.9414 35.5405 57.8718 35.6212L55.6171 38.1992L54.6136 37.1961C54.5388 37.121 54.4499 37.0614 54.352 37.0207C54.2542 36.98 54.1492 36.9591 54.0432 36.9591C53.9372 36.9591 53.8323 36.98 53.7344 37.0207C53.6365 37.0614 53.5477 37.121 53.4729 37.1961L53.4722 37.1982ZM44.7684 40.7923C44.4771 40.7925 44.1887 40.7352 43.9195 40.6238C43.6504 40.5124 43.4058 40.349 43.1999 40.143C42.9939 39.937 42.8306 39.6924 42.7192 39.4233C42.6078 39.1541 42.5506 38.8656 42.5508 38.5743V28.4934C42.5506 28.2021 42.6078 27.9136 42.7191 27.6443C42.8305 27.3751 42.9938 27.1305 43.1998 26.9245C43.4057 26.7185 43.6503 26.5551 43.9195 26.4436C44.1886 26.3322 44.4771 26.2749 44.7684 26.275H44.9703V27.2845C44.9702 27.5758 45.0275 27.8642 45.1389 28.1333C45.2503 28.4024 45.4136 28.647 45.6196 28.8529C45.8255 29.0589 46.07 29.2222 46.3392 29.3336C46.6083 29.445 46.8967 29.5023 47.188 29.5021H51.6237C51.915 29.5024 52.2035 29.4452 52.4727 29.3338C52.7418 29.2225 52.9864 29.0591 53.1924 28.8531C53.3984 28.6472 53.5618 28.4026 53.6732 28.1334C53.7846 27.8643 53.8419 27.5758 53.8417 27.2845V26.275H54.0436C54.3349 26.2749 54.6233 26.3322 54.8925 26.4436C55.1616 26.555 55.4062 26.7184 55.6121 26.9244C55.8181 27.1304 55.9814 27.3749 56.0928 27.6441C56.2042 27.9133 56.2614 28.2017 56.2612 28.493V30.7191C55.1888 30.7449 54.1369 31.0184 53.1877 31.5183H45.575C45.4146 31.5183 45.2607 31.582 45.1473 31.6954C45.0339 31.8088 44.9702 31.9627 44.9702 32.1231C44.9702 32.2835 45.0339 32.4373 45.1473 32.5507C45.2607 32.6641 45.4146 32.7279 45.575 32.7279H51.5351C51.1028 33.1483 50.7264 33.6227 50.4155 34.1394H45.575C45.4146 34.1394 45.2607 34.2031 45.1473 34.3165C45.0339 34.4299 44.9702 34.5838 44.9702 34.7442C44.9702 34.9046 45.0339 35.0584 45.1473 35.1718C45.2607 35.2852 45.4146 35.349 45.575 35.349H49.8329C49.6687 35.8064 49.5501 36.279 49.4788 36.7598H45.575C45.4146 36.7598 45.2607 36.8235 45.1473 36.9369C45.0339 37.0503 44.9702 37.2042 44.9702 37.3646C44.9702 37.525 45.0339 37.6788 45.1473 37.7922C45.2607 37.9056 45.4146 37.9694 45.575 37.9694H49.4141C49.4393 38.946 49.6673 39.9067 50.0834 40.7906L44.7684 40.7923ZM47.188 28.6946C46.8146 28.6926 46.457 28.5434 46.1929 28.2794C45.9288 28.0154 45.7794 27.6579 45.7772 27.2845V26.0735C45.7785 25.9135 45.8426 25.7604 45.9558 25.6472C46.069 25.5341 46.2222 25.47 46.3822 25.4689H47.2692C47.4016 25.0041 47.6818 24.5952 48.0675 24.3041C48.4531 24.013 48.9231 23.8555 49.4064 23.8555C49.8896 23.8555 50.3596 24.013 50.7453 24.3041C51.1309 24.5952 51.4112 25.0041 51.5435 25.4689H52.4302C52.5903 25.47 52.7435 25.534 52.8568 25.6471C52.97 25.7603 53.0342 25.9134 53.0355 26.0735V27.2845C53.0337 27.6583 52.8843 28.0163 52.6199 28.2807C52.3556 28.545 51.9975 28.6942 51.6237 28.696L47.188 28.6946Z" fill="black"/>
<path opacity="0.2" d="M46.7735 275.607L3.38682 250.558C-0.14893 248.517 0.294907 244.952 4.37758 242.595L45.4329 218.891C49.5156 216.534 55.6904 216.278 59.2265 218.32L102.613 243.369C106.149 245.41 105.705 248.975 101.623 251.332L60.5671 275.036C56.4844 277.393 50.3096 277.649 46.7735 275.607Z" fill="url(#paint5_linear_1363_1665)"/>
<path opacity="0.1" d="M46.7735 283.318L3.38682 258.269C-0.14893 256.228 0.294907 252.663 4.37758 250.305L45.4329 226.602C49.5156 224.245 55.6904 223.989 59.2265 226.031L102.613 251.08C106.149 253.121 105.705 256.686 101.623 259.043L60.5671 282.746C56.4844 285.104 50.3096 285.36 46.7735 283.318Z" fill="url(#paint6_linear_1363_1665)"/>
<path d="M47.6265 264.355L10.1903 242.741C7.14009 240.98 7.52176 237.904 11.0453 235.87L46.4685 215.417C49.9908 213.383 55.3216 213.162 58.3698 214.923L95.8072 236.538C98.8574 238.299 98.4757 241.375 94.9522 243.409L59.5278 263.862C56.0055 265.895 50.6747 266.116 47.6265 264.355Z" fill="url(#paint7_linear_1363_1665)"/>
<path d="M48.7967 255.787L19.4963 238.871C17.1091 237.494 17.4086 235.085 20.1652 233.493L47.8917 217.485C50.6484 215.893 54.8188 215.72 57.2071 217.099L86.5075 234.015C88.8947 235.393 88.5952 237.801 85.8386 239.394L58.1121 255.401C55.3555 256.993 51.185 257.167 48.7967 255.787Z" fill="#E4EBED"/>
<path d="M88.1144 229.996H17.9609V236.446H88.1144V229.996Z" fill="#E4EBED"/>
<path d="M48.7967 249.342L19.4963 232.426C17.1091 231.049 17.4086 228.64 20.1652 227.048L47.8917 211.039C50.6484 209.448 54.8188 209.274 57.2071 210.654L86.5075 227.57C88.8947 228.947 88.5952 231.356 85.8386 232.948L58.1121 248.956C55.3555 250.548 51.1847 250.721 48.7967 249.342Z" fill="#F8FCFF"/>
<path d="M48.7967 249.342L19.4963 232.426C17.1091 231.049 17.4086 228.64 20.1652 227.048L47.8917 211.039C50.6484 209.448 54.8188 209.274 57.2071 210.654L86.5075 227.57C88.8947 228.947 88.5952 231.356 85.8386 232.948L58.1121 248.956C55.3555 250.548 51.1847 250.721 48.7967 249.342Z" fill="url(#paint8_radial_1363_1665)"/>
<path d="M48.7967 244.963L19.4963 228.047C17.1091 226.67 17.4086 224.261 20.1652 222.669L47.8917 206.661C50.6484 205.069 54.8188 204.895 57.2071 206.275L86.5075 223.191C88.8947 224.568 88.5952 226.977 85.8386 228.57L58.1121 244.577C55.3555 246.169 51.1847 246.342 48.7967 244.963Z" fill="#E4EBED"/>
<path d="M88.1144 219.168H17.9609V225.617H88.1144V219.168Z" fill="#E4EBED"/>
<path d="M52.6973 199.138C54.3545 199.069 55.9467 199.367 57.0908 200.028L86.3906 216.944C87.5285 217.601 87.9762 218.467 87.8701 219.321C87.7616 220.194 87.0666 221.141 85.7217 221.918L57.9951 237.926C56.655 238.699 54.9616 239.133 53.3066 239.202C51.6493 239.271 50.057 238.972 48.9131 238.312L19.6133 221.396C18.4755 220.739 18.0278 219.872 18.1338 219.019C18.2423 218.146 18.9373 217.199 20.2822 216.422L48.0088 200.413C49.3489 199.64 51.0424 199.206 52.6973 199.138Z" fill="#F8FCFF" stroke="#E6E6E6" stroke-width="0.466858"/>
<path opacity="0.64" d="M33.7335 215.383H33.6816V149H72.3183V215.383H72.2674C71.5438 220.53 63.1927 224.589 52.9993 224.589C42.8059 224.589 34.4571 220.53 33.7335 215.383Z" fill="url(#paint9_linear_1363_1665)"/>
<path d="M56.7106 179.27H48.306L47.5401 180.585C47.5258 180.609 47.5182 180.637 47.5181 180.665C47.518 180.693 47.5253 180.721 47.5393 180.745C47.5533 180.769 47.5735 180.79 47.5979 180.804C47.6222 180.818 47.6499 180.825 47.678 180.825H57.3366C57.3647 180.825 57.3923 180.818 57.4167 180.804C57.4411 180.79 57.4613 180.769 57.4753 180.745C57.4893 180.721 57.4966 180.693 57.4965 180.665C57.4963 180.637 57.4887 180.609 57.4745 180.585L56.7106 179.27ZM62.3589 175.867H42.6582V165.021C42.659 164.748 42.7676 164.487 42.9603 164.294C43.153 164.102 43.4142 163.993 43.6868 163.992H61.3303C61.6028 163.993 61.864 164.102 62.0568 164.294C62.2495 164.487 62.3581 164.748 62.3589 165.021V175.867ZM45.7974 168.378C45.7974 168.744 45.9057 169.101 46.1087 169.405C46.3117 169.708 46.6003 169.945 46.9379 170.085C47.2755 170.225 47.6469 170.262 48.0053 170.19C48.3637 170.119 48.6929 169.943 48.9513 169.685C49.2097 169.426 49.3856 169.097 49.4569 168.739C49.5282 168.38 49.4916 168.009 49.3518 167.671C49.2119 167.334 48.9751 167.045 48.6713 166.842C48.3675 166.639 48.0103 166.531 47.6449 166.531C47.4023 166.531 47.162 166.578 46.9379 166.671C46.7137 166.764 46.51 166.9 46.3385 167.072C46.1669 167.243 46.0308 167.447 45.938 167.671C45.8451 167.895 45.7974 168.136 45.7974 168.378ZM51.0533 173.913C50.9883 173.053 50.601 172.25 49.9689 171.664C49.3368 171.078 48.5067 170.752 47.6447 170.752C46.7827 170.752 45.9525 171.078 45.3205 171.664C44.6884 172.25 44.3011 173.053 44.2361 173.913C44.2334 173.946 44.2376 173.979 44.2484 174.01C44.2592 174.041 44.2763 174.069 44.2986 174.093C44.321 174.117 44.3481 174.137 44.3782 174.15C44.4084 174.163 44.441 174.17 44.4738 174.169H50.8155C50.8484 174.17 50.8809 174.163 50.9111 174.15C50.9413 174.137 50.9684 174.117 50.9907 174.093C51.0131 174.069 51.0302 174.041 51.041 174.01C51.0517 173.979 51.0559 173.946 51.0533 173.913ZM60.3527 169.646H59.6464C59.555 169.188 59.3746 168.753 59.1153 168.365L59.6149 167.865L58.6207 166.871L58.1211 167.371C57.7329 167.111 57.2974 166.93 56.8395 166.838V166.132H55.431V166.838C54.9733 166.93 54.5379 167.11 54.1498 167.37L53.6498 166.87L52.6556 167.864L53.1527 168.365C52.8934 168.753 52.713 169.188 52.6216 169.646H51.9174V171.055H52.6216C52.713 171.512 52.8935 171.947 53.1527 172.335L52.6556 172.835L53.6498 173.829L54.1494 173.329C54.5376 173.589 54.973 173.77 55.431 173.862V174.566H56.8395V173.862C57.2972 173.77 57.7325 173.59 58.1207 173.331L58.6207 173.83L59.6149 172.836L59.1153 172.335C59.3746 171.947 59.555 171.512 59.6464 171.054H60.3527V169.645V169.646ZM43.6868 178.428H61.3303C61.6028 178.427 61.864 178.319 62.0568 178.126C62.2495 177.933 62.3581 177.672 62.3589 177.4V176.71H42.6582V177.401C42.659 177.674 42.7676 177.935 42.9603 178.128C43.153 178.32 43.4142 178.429 43.6868 178.43V178.428ZM56.1352 168.164C55.7029 168.164 55.2803 168.292 54.9208 168.532C54.5613 168.773 54.2811 169.114 54.1157 169.513C53.9502 169.913 53.9069 170.352 53.9913 170.776C54.0756 171.201 54.2838 171.59 54.5895 171.896C54.8952 172.201 55.2847 172.41 55.7088 172.494C56.1328 172.578 56.5723 172.535 56.9718 172.37C57.3712 172.204 57.7126 171.924 57.9528 171.564C58.193 171.205 58.3212 170.782 58.3212 170.35C58.3212 169.77 58.0909 169.214 57.681 168.804C57.271 168.394 56.715 168.164 56.1352 168.164Z" fill="black"/>
<path opacity="0.2" d="M45.7735 424.607L2.38682 399.558C-1.14893 397.517 -0.705093 393.952 3.37758 391.595L44.4329 367.891C48.5156 365.534 54.6904 365.278 58.2265 367.32L101.613 392.369C105.149 394.41 104.705 397.975 100.623 400.332L59.5671 424.036C55.4844 426.393 49.3096 426.649 45.7735 424.607Z" fill="url(#paint10_linear_1363_1665)"/>
<path opacity="0.1" d="M45.7735 432.314L2.38682 407.265C-1.14893 405.224 -0.705093 401.659 3.37758 399.302L44.4329 375.598C48.5156 373.241 54.6904 372.985 58.2265 375.027L101.613 400.076C105.149 402.117 104.705 405.682 100.623 408.039L59.5671 431.743C55.4844 434.1 49.3096 434.356 45.7735 432.314Z" fill="url(#paint11_linear_1363_1665)"/>
<path d="M46.6265 413.351L9.19029 391.737C6.14009 389.976 6.52176 386.9 10.0453 384.866L45.4685 364.413C48.9908 362.379 54.3216 362.158 57.3698 363.919L94.8072 385.534C97.8574 387.295 97.4757 390.371 93.9522 392.405L58.5278 412.858C55.0055 414.891 49.6747 415.113 46.6265 413.351Z" fill="url(#paint12_linear_1363_1665)"/>
<path d="M47.7967 404.787L18.4963 387.871C16.1091 386.494 16.4086 384.085 19.1652 382.493L46.8917 366.485C49.6484 364.893 53.8188 364.72 56.2071 366.099L85.5075 383.015C87.8947 384.393 87.5952 386.801 84.8386 388.394L57.1121 404.401C54.3555 405.993 50.185 406.167 47.7967 404.787Z" fill="#E4EBED"/>
<path d="M87.1144 378.996H16.9609V385.446H87.1144V378.996Z" fill="#E4EBED"/>
<path d="M47.7967 398.342L18.4963 381.426C16.1091 380.049 16.4086 377.64 19.1652 376.048L46.8917 360.039C49.6484 358.448 53.8188 358.274 56.2071 359.654L85.5075 376.57C87.8947 377.947 87.5952 380.356 84.8386 381.948L57.1121 397.956C54.3555 399.548 50.1847 399.721 47.7967 398.342Z" fill="#F8FCFF"/>
<path d="M47.7967 398.342L18.4963 381.426C16.1091 380.049 16.4086 377.64 19.1652 376.048L46.8917 360.039C49.6484 358.448 53.8188 358.274 56.2071 359.654L85.5075 376.57C87.8947 377.947 87.5952 380.356 84.8386 381.948L57.1121 397.956C54.3555 399.548 50.1847 399.721 47.7967 398.342Z" fill="url(#paint13_radial_1363_1665)"/>
<path d="M47.7967 393.959L18.4963 377.043C16.1091 375.666 16.4086 373.257 19.1652 371.665L46.8917 355.657C49.6484 354.065 53.8188 353.892 56.2071 355.271L85.5075 372.187C87.8947 373.564 87.5952 375.973 84.8386 377.566L57.1121 393.573C54.3555 395.165 50.1847 395.338 47.7967 393.959Z" fill="#E4EBED"/>
<path d="M87.1144 368.164H16.9609V374.613H87.1144V368.164Z" fill="#E4EBED"/>
<path d="M51.6973 348.138C53.3545 348.069 54.9467 348.367 56.0908 349.028L85.3906 365.944C86.5285 366.601 86.9762 367.467 86.8701 368.321C86.7616 369.194 86.0666 370.141 84.7217 370.918L56.9951 386.926C55.655 387.699 53.9616 388.133 52.3066 388.202C50.6493 388.271 49.057 387.972 47.9131 387.312L18.6133 370.396C17.4755 369.739 17.0278 368.872 17.1338 368.019C17.2423 367.146 17.9373 366.199 19.2822 365.422L47.0088 349.413C48.3489 348.64 50.0424 348.206 51.6973 348.138Z" fill="#F8FCFF" stroke="#E6E6E6" stroke-width="0.466858"/>
<path opacity="0.64" d="M32.7335 364.383H32.6816V298H71.3183V364.383H71.2674C70.5438 369.53 62.1927 373.589 51.9993 373.589C41.8059 373.589 33.4571 369.53 32.7335 364.383Z" fill="url(#paint14_linear_1363_1665)"/>
<path d="M51.8777 325.97C52.7562 325.97 53.4683 325.258 53.4683 324.38C53.4683 323.501 52.7562 322.789 51.8777 322.789C50.9992 322.789 50.2871 323.501 50.2871 324.38C50.2871 325.258 50.9992 325.97 51.8777 325.97Z" fill="black"/>
<path d="M59.6344 318.586H44.1225C43.9435 318.586 43.772 318.657 43.6454 318.784C43.5188 318.911 43.4476 319.082 43.4473 319.261V329.493C43.4471 329.672 43.518 329.845 43.6447 329.972C43.7713 330.099 43.9431 330.171 44.1225 330.171H59.6344C59.8139 330.171 59.9858 330.099 60.1124 329.972C60.239 329.844 60.31 329.672 60.3097 329.493V319.261C60.3094 319.082 60.2381 318.911 60.1115 318.784C59.985 318.657 59.8134 318.586 59.6344 318.586ZM55.578 324.795C55.5781 324.828 55.5671 324.86 55.5468 324.886C55.5265 324.912 55.498 324.93 55.466 324.938L54.7166 325.126C54.6467 325.392 54.5394 325.647 54.3981 325.883L54.7915 326.539C54.8085 326.567 54.8155 326.6 54.8115 326.633C54.8075 326.666 54.7926 326.696 54.7693 326.719L54.2002 327.288C54.1768 327.312 54.1464 327.327 54.1136 327.331C54.0809 327.335 54.0477 327.328 54.0194 327.311L53.3559 326.913C53.1184 327.052 52.8624 327.158 52.5955 327.225L52.4097 327.967C52.4017 327.999 52.3832 328.027 52.3572 328.048C52.3311 328.068 52.2991 328.079 52.2661 328.079H51.4624C51.4294 328.079 51.3973 328.068 51.3713 328.048C51.3452 328.027 51.3267 327.999 51.3187 327.967L51.131 327.217C50.8649 327.147 50.6101 327.04 50.3741 326.899L49.7199 327.292C49.6916 327.309 49.6585 327.316 49.6257 327.312C49.593 327.307 49.5625 327.293 49.5392 327.269L48.9701 326.7C48.9468 326.677 48.9319 326.646 48.9279 326.614C48.9238 326.581 48.9309 326.548 48.9478 326.519L49.3452 325.856C49.2057 325.618 49.1006 325.362 49.0329 325.096L48.2913 324.91C48.2593 324.902 48.2309 324.883 48.2106 324.857C48.1903 324.831 48.1792 324.799 48.1793 324.766V323.962C48.1792 323.929 48.1903 323.897 48.2106 323.871C48.2309 323.845 48.2593 323.827 48.2913 323.819L49.0407 323.631C49.1107 323.365 49.2179 323.11 49.3593 322.874L48.9658 322.218C48.9488 322.19 48.9418 322.157 48.9458 322.124C48.9499 322.091 48.9647 322.061 48.988 322.037L49.5568 321.467C49.5801 321.443 49.6106 321.428 49.6433 321.424C49.676 321.42 49.7092 321.427 49.7375 321.444L50.4011 321.842C50.6385 321.702 50.8945 321.597 51.1614 321.529L51.3468 320.788C51.3548 320.756 51.3733 320.727 51.3994 320.707C51.4254 320.687 51.4575 320.676 51.4905 320.676H52.2961C52.3291 320.676 52.3612 320.687 52.3872 320.707C52.4133 320.727 52.4318 320.756 52.4398 320.788L52.6275 321.537C52.8937 321.607 53.1486 321.714 53.3848 321.856L54.0405 321.462C54.0688 321.445 54.102 321.438 54.1347 321.442C54.1675 321.446 54.1979 321.461 54.2212 321.485L54.7904 322.054C54.8137 322.077 54.8285 322.107 54.8326 322.14C54.8366 322.173 54.8296 322.206 54.8126 322.234L54.4152 322.898C54.5547 323.135 54.6598 323.391 54.7275 323.658L55.4691 323.844C55.5012 323.852 55.5296 323.871 55.5499 323.897C55.5702 323.923 55.5812 323.955 55.5812 323.988L55.578 324.795Z" fill="black"/>
<path d="M60.3097 317.739V318.148C60.1068 318.023 59.8729 317.957 59.6344 317.957H44.1225C43.884 317.957 43.6501 318.023 43.4473 318.148V316.519C43.4475 316.345 43.5167 316.178 43.6398 316.055C43.7629 315.932 43.9298 315.863 44.1038 315.863H48.7741C48.8676 315.864 48.9599 315.885 49.045 315.923C49.1301 315.962 49.206 316.018 49.2679 316.089L50.0369 316.97C50.0672 317.006 50.1051 317.035 50.1478 317.054C50.1906 317.074 50.237 317.083 50.284 317.083H59.652C59.7382 317.083 59.8235 317.1 59.9032 317.133C59.9829 317.166 60.0552 317.214 60.1162 317.275C60.1772 317.336 60.2255 317.408 60.2585 317.488C60.2915 317.568 60.3085 317.653 60.3085 317.739L60.3097 317.739Z" fill="black"/>
<path opacity="0.2" d="M46.3333 572.387L3.36387 547.579C-0.137883 545.557 0.301687 542.026 4.3451 539.692L45.0057 516.216C49.0491 513.882 55.1645 513.628 58.6666 515.65L101.636 540.459C105.138 542.48 104.698 546.011 100.655 548.345L59.9943 571.821C55.9509 574.155 49.8355 574.409 46.3333 572.387Z" fill="url(#paint15_linear_1363_1665)"/>
<path opacity="0.1" d="M46.3333 580.028L3.36387 555.219C-0.137883 553.197 0.301687 549.667 4.3451 547.332L45.0057 523.857C49.0491 521.522 55.1645 521.269 58.6666 523.291L101.636 548.099C105.138 550.121 104.698 553.651 100.655 555.986L59.9943 579.461C55.9509 581.796 49.8355 582.049 46.3333 580.028Z" fill="url(#paint16_linear_1363_1665)"/>
<path d="M47.1803 561.247L10.1041 539.841C7.08321 538.097 7.46121 535.05 10.9509 533.036L46.0334 512.779C49.5219 510.765 54.8014 510.546 57.8204 512.291L94.8977 533.697C97.9186 535.441 97.5406 538.488 94.0509 540.502L58.9672 560.759C55.4787 562.773 50.1992 562.992 47.1803 561.247Z" fill="url(#paint17_linear_1363_1665)"/>
<path d="M48.3373 552.758L19.3187 536.004C16.9545 534.641 17.251 532.255 19.9812 530.678L47.441 514.824C50.1712 513.247 54.3015 513.076 56.6669 514.442L85.6855 531.195C88.0498 532.559 87.7532 534.945 85.0231 536.522L57.5632 552.376C54.8331 553.952 50.7027 554.124 48.3373 552.758Z" fill="#E4EBED"/>
<path d="M87.2757 527.215H17.7969V533.602H87.2757V527.215Z" fill="#E4EBED"/>
<path d="M48.3373 546.379L19.3187 529.626C16.9545 528.262 17.251 525.876 19.9812 524.299L47.441 508.445C50.1712 506.868 54.3015 506.697 56.6669 508.063L85.6855 524.816C88.0498 526.18 87.7532 528.566 85.0231 530.143L57.5632 545.997C54.8331 547.573 50.7023 547.745 48.3373 546.379Z" fill="#F8FCFF"/>
<path d="M48.3373 546.379L19.3187 529.626C16.9545 528.262 17.251 525.876 19.9812 524.299L47.441 508.445C50.1712 506.868 54.3015 506.697 56.6669 508.063L85.6855 524.816C88.0498 526.18 87.7532 528.566 85.0231 530.143L57.5632 545.997C54.8331 547.573 50.7023 547.745 48.3373 546.379Z" fill="url(#paint18_radial_1363_1665)"/>
<path d="M48.3373 542.039L19.3187 525.286C16.9545 523.922 17.251 521.536 19.9812 519.959L47.441 504.105C50.1712 502.529 54.3015 502.357 56.6669 503.723L85.6855 520.477C88.0498 521.84 87.7532 524.226 85.0231 525.803L57.5632 541.657C54.8331 543.233 50.7023 543.405 48.3373 542.039Z" fill="#E4EBED"/>
<path d="M87.2757 516.492H17.7969V522.88H87.2757V516.492Z" fill="#E4EBED"/>
<path d="M52.2002 496.655C53.8415 496.587 55.4186 496.882 56.5518 497.536L85.5703 514.29C86.6971 514.94 87.1403 515.799 87.0352 516.645C86.9277 517.508 86.2392 518.446 84.9072 519.216L57.4473 535.07C56.1201 535.836 54.4427 536.266 52.8037 536.334C51.1624 536.402 49.5861 536.106 48.4531 535.452L19.4346 518.699C18.3076 518.049 17.8636 517.19 17.9688 516.344C18.0763 515.48 18.7649 514.542 20.0967 513.772L47.5566 497.918C48.8838 497.152 50.5612 496.723 52.2002 496.655Z" fill="#F8FCFF" stroke="#E6E6E6" stroke-width="0.462369"/>
<path opacity="0.64" d="M33.4185 512.745H33.3672V447H71.6324V512.745H71.582C70.8653 517.842 62.5944 521.862 52.4991 521.862C42.4037 521.862 34.1352 517.842 33.4185 512.745Z" fill="url(#paint19_linear_1363_1665)"/>
<path d="M47.9119 464.06L46.2544 462.402C46.0254 462.173 45.6545 462.173 45.4256 462.402C45.1967 462.631 45.1967 463.002 45.4256 463.231L47.0831 464.888C47.3121 465.117 47.683 465.117 47.9119 464.888C48.1408 464.66 48.1408 464.289 47.9119 464.06Z" fill="black"/>
<path d="M45.4363 468.863H43.0529C42.7289 468.863 42.4668 469.125 42.4668 469.449C42.4668 469.773 42.7289 470.035 43.0529 470.035H45.4363C45.7603 470.035 46.0224 469.773 46.0224 469.449C46.0224 469.125 45.7603 468.863 45.4363 468.863Z" fill="black"/>
<path d="M61.8875 468.863H59.5041C59.1801 468.863 58.918 469.125 58.918 469.449C58.918 469.773 59.1801 470.035 59.5041 470.035H61.8875C62.2114 470.035 62.4736 469.773 62.4736 469.449C62.4736 469.125 62.2114 468.863 61.8875 468.863Z" fill="black"/>
<path d="M59.5154 462.402C59.2865 462.173 58.9156 462.173 58.6867 462.402L57.0291 464.06C56.8002 464.289 56.8002 464.66 57.0291 464.888C57.258 465.117 57.629 465.117 57.8579 464.888L59.5154 463.231C59.7444 463.002 59.7444 462.631 59.5154 462.402Z" fill="black"/>
<path d="M52.4709 459.445C52.1469 459.445 51.8848 459.707 51.8848 460.031V462.415C51.8848 462.739 52.1469 463.001 52.4709 463.001C52.7948 463.001 53.0569 462.739 53.0569 462.415V460.031C53.0569 459.707 52.7948 459.445 52.4709 459.445Z" fill="black"/>
<path d="M55.7533 465.308C54.4757 464.3 52.8229 463.937 51.2053 464.323C49.3298 464.757 47.8177 466.246 47.3605 468.109C46.9034 469.985 47.4309 471.884 48.7788 473.208C49.2594 473.689 49.5408 474.443 49.5408 475.217V475.346C49.5408 475.674 49.7986 475.932 50.1269 475.932H54.8156C55.1438 475.932 55.4017 475.674 55.4017 475.346V475.217C55.4017 474.455 55.6947 473.677 56.2105 473.173C57.1951 472.177 57.746 470.852 57.746 469.446C57.746 467.828 57.0193 466.316 55.7533 465.308ZM52.4712 467.687C51.587 467.687 50.9433 468.274 50.7748 468.953C50.6981 469.262 50.3874 469.459 50.0645 469.381C49.7508 469.303 49.5591 468.985 49.6369 468.671C49.9273 467.499 51.0283 466.515 52.4712 466.515C52.7952 466.515 53.0573 466.777 53.0573 467.101C53.0573 467.425 52.7952 467.687 52.4712 467.687Z" fill="black"/>
<path d="M50.125 477.105V477.692C50.125 478.661 50.9137 479.45 51.8833 479.45H53.0554C54.025 479.45 54.8137 478.661 54.8137 477.692V477.105H50.125Z" fill="black"/>
<path opacity="0.2" d="M46.3333 720.383L3.36387 695.575C-0.137883 693.553 0.301687 690.022 4.3451 687.688L45.0057 664.212C49.0491 661.878 55.1645 661.624 58.6666 663.646L101.636 688.455C105.138 690.476 104.698 694.007 100.655 696.342L59.9943 719.817C55.9509 722.151 49.8355 722.405 46.3333 720.383Z" fill="url(#paint20_linear_1363_1665)"/>
<path opacity="0.1" d="M46.3333 728.02L3.36387 703.211C-0.137883 701.19 0.301687 697.659 4.3451 695.324L45.0057 671.849C49.0491 669.515 55.1645 669.261 58.6666 671.283L101.636 696.091C105.138 698.113 104.698 701.644 100.655 703.978L59.9943 727.454C55.9509 729.788 49.8355 730.041 46.3333 728.02Z" fill="url(#paint21_linear_1363_1665)"/>
<path d="M47.1783 709.24L10.1021 687.833C7.08126 686.089 7.45925 683.042 10.9489 681.028L46.0315 660.772C49.52 658.758 54.7995 658.539 57.8184 660.283L94.8958 681.689C97.9167 683.434 97.5387 686.48 94.049 688.494L58.9653 708.751C55.4768 710.765 50.1973 710.984 47.1783 709.24Z" fill="url(#paint22_linear_1363_1665)"/>
<path d="M48.3373 700.758L19.3187 684.004C16.9545 682.641 17.251 680.255 19.9812 678.678L47.441 662.824C50.1712 661.247 54.3015 661.076 56.6669 662.442L85.6855 679.195C88.0498 680.559 87.7532 682.945 85.0231 684.522L57.5632 700.376C54.8331 701.952 50.7027 702.124 48.3373 700.758Z" fill="#E4EBED"/>
<path d="M87.2777 675.215H17.7988V681.602H87.2777V675.215Z" fill="#E4EBED"/>
<path d="M48.3373 694.371L19.3187 677.618C16.9545 676.254 17.251 673.868 19.9812 672.291L47.441 656.437C50.1712 654.861 54.3015 654.689 56.6669 656.055L85.6855 672.809C88.0498 674.173 87.7532 676.558 85.0231 678.135L57.5632 693.989C54.8331 695.565 50.7023 695.737 48.3373 694.371Z" fill="#F8FCFF"/>
<path d="M48.3373 694.371L19.3187 677.618C16.9545 676.254 17.251 673.868 19.9812 672.291L47.441 656.437C50.1712 654.861 54.3015 654.689 56.6669 656.055L85.6855 672.809C88.0498 674.173 87.7532 676.558 85.0231 678.135L57.5632 693.989C54.8331 695.565 50.7023 695.737 48.3373 694.371Z" fill="url(#paint23_radial_1363_1665)"/>
<path d="M48.3354 690.031L19.3168 673.278C16.9525 671.914 17.2491 669.528 19.9792 667.951L47.4391 652.097C50.1693 650.521 54.2996 650.349 56.665 651.715L85.6836 668.469C88.0478 669.833 87.7513 672.218 85.0211 673.795L57.5613 689.649C54.8311 691.225 50.7004 691.397 48.3354 690.031Z" fill="#E4EBED"/>
<path d="M87.2777 664.488H17.7988V670.876H87.2777V664.488Z" fill="#E4EBED"/>
<path d="M52.1982 644.651C53.8396 644.583 55.4166 644.878 56.5498 645.532L85.5684 662.286C86.6952 662.936 87.1383 663.795 87.0332 664.641C86.9258 665.505 86.2372 666.442 84.9053 667.212L57.4453 683.066C56.1181 683.833 54.4408 684.262 52.8018 684.33C51.1604 684.398 49.5841 684.103 48.4512 683.448L19.4326 666.695C18.3056 666.045 17.8616 665.186 17.9668 664.34C18.0744 663.476 18.763 662.538 20.0947 661.769L47.5547 645.914C48.8819 645.148 50.5593 644.719 52.1982 644.651Z" fill="#F8FCFF" stroke="#E6E6E6" stroke-width="0.462369"/>
<path opacity="0.64" d="M33.4166 660.745H33.3652V595H71.6304V660.745H71.58C70.8633 665.842 62.5925 669.862 52.4971 669.862C42.4018 669.862 34.1332 665.842 33.4166 660.745Z" fill="url(#paint24_linear_1363_1665)"/>
<path d="M52.0997 632.477C52.0997 629.894 54.2014 627.792 56.7846 627.792C57.1898 627.792 57.5804 627.849 57.9558 627.946V621.35C57.9558 619.733 56.6446 618.422 55.0277 618.422H48.0003C46.3835 618.422 45.0723 619.733 45.0723 621.35V631.305C45.0723 632.922 46.3835 634.234 48.0003 634.234H52.4446C52.2238 633.691 52.0997 633.098 52.0997 632.477ZM48.0003 621.35H52.6853C53.0091 621.35 53.2709 621.612 53.2709 621.936C53.2709 622.259 53.0091 622.521 52.6853 622.521H48.0003C47.6765 622.521 47.4147 622.259 47.4147 621.936C47.4147 621.612 47.6765 621.35 48.0003 621.35ZM48.0003 624.278H55.0277C55.3516 624.278 55.6134 624.54 55.6134 624.864C55.6134 625.187 55.3516 625.449 55.0277 625.449H48.0003C47.6765 625.449 47.4147 625.187 47.4147 624.864C47.4147 624.54 47.6765 624.278 48.0003 624.278ZM49.9797 631.305H48.0003C47.6765 631.305 47.4147 631.043 47.4147 630.72C47.4147 630.397 47.6765 630.134 48.0003 630.134H49.9797C50.3036 630.134 50.5653 630.397 50.5653 630.72C50.5653 631.043 50.3036 631.305 49.9797 631.305ZM51.555 628.377H48.0003C47.6765 628.377 47.4147 628.115 47.4147 627.792C47.4147 627.468 47.6765 627.206 48.0003 627.206H51.555C51.8789 627.206 52.1407 627.468 52.1407 627.792C52.1407 628.115 51.8789 628.377 51.555 628.377Z" fill="black"/>
<path d="M56.7852 628.961C54.848 628.961 53.2715 630.537 53.2715 632.475C53.2715 634.412 54.848 635.988 56.7852 635.988C58.7224 635.988 60.2989 634.412 60.2989 632.475C60.2989 630.537 58.7224 628.961 56.7852 628.961ZM58.3704 632.225L56.8086 633.787C56.6944 633.901 56.5445 633.959 56.3946 633.959C56.2447 633.959 56.0947 633.901 55.9805 633.787L55.1999 633.006C54.9709 632.777 54.9709 632.407 55.1999 632.178C55.4289 631.949 55.799 631.949 56.028 632.178L56.3946 632.545L57.5424 631.398C57.7714 631.169 58.1415 631.169 58.3704 631.398C58.5994 631.627 58.5994 631.997 58.3704 632.226V632.225Z" fill="black"/>
<path opacity="0.2" d="M46.3333 868.387L3.36387 843.579C-0.137883 841.557 0.301687 838.026 4.3451 835.692L45.0057 812.216C49.0491 809.882 55.1645 809.628 58.6666 811.65L101.636 836.459C105.138 838.48 104.698 842.011 100.655 844.345L59.9943 867.821C55.9509 870.155 49.8355 870.409 46.3333 868.387Z" fill="url(#paint25_linear_1363_1665)"/>
<path opacity="0.1" d="M46.3333 876.028L3.36387 851.219C-0.137883 849.197 0.301687 845.667 4.3451 843.332L45.0057 819.857C49.0491 817.522 55.1645 817.269 58.6666 819.291L101.636 844.099C105.138 846.121 104.698 849.651 100.655 851.986L59.9943 875.461C55.9509 877.796 49.8355 878.049 46.3333 876.028Z" fill="url(#paint26_linear_1363_1665)"/>
<path d="M47.1764 857.247L10.1002 835.841C7.0793 834.097 7.4573 831.05 10.947 829.036L46.0295 808.779C49.518 806.765 54.7975 806.546 57.8165 808.291L94.8938 829.697C97.9147 831.441 97.5367 834.488 94.047 836.502L58.9633 856.759C55.4748 858.773 50.1953 858.992 47.1764 857.247Z" fill="url(#paint27_linear_1363_1665)"/>
<path d="M48.3354 848.758L19.3168 832.004C16.9525 830.641 17.2491 828.255 19.9792 826.678L47.4391 810.824C50.1693 809.247 54.2996 809.076 56.665 810.442L85.6836 827.195C88.0478 828.559 87.7513 830.945 85.0211 832.522L57.5613 848.376C54.8311 849.952 50.7008 850.124 48.3354 848.758Z" fill="#E4EBED"/>
<path d="M87.2777 823.215H17.7988V829.602H87.2777V823.215Z" fill="#E4EBED"/>
<path d="M48.3354 842.379L19.3168 825.626C16.9525 824.262 17.2491 821.876 19.9792 820.299L47.4391 804.445C50.1693 802.868 54.2996 802.697 56.665 804.063L85.6836 820.816C88.0478 822.18 87.7513 824.566 85.0211 826.143L57.5613 841.997C54.8311 843.573 50.7004 843.745 48.3354 842.379Z" fill="#F8FCFF"/>
<path d="M48.3354 842.379L19.3168 825.626C16.9525 824.262 17.2491 821.876 19.9792 820.299L47.4391 804.445C50.1693 802.868 54.2996 802.697 56.665 804.063L85.6836 820.816C88.0478 822.18 87.7513 824.566 85.0211 826.143L57.5613 841.997C54.8311 843.573 50.7004 843.745 48.3354 842.379Z" fill="url(#paint28_radial_1363_1665)"/>
<path d="M48.3334 838.039L19.3148 821.286C16.9506 819.922 17.2471 817.536 19.9773 815.959L47.4371 800.105C50.1673 798.529 54.2976 798.357 56.663 799.723L85.6816 816.477C88.0459 817.84 87.7493 820.226 85.0192 821.803L57.5593 837.657C54.8292 839.233 50.6984 839.405 48.3334 838.039Z" fill="#E4EBED"/>
<path d="M87.2777 812.492H17.7988V818.88H87.2777V812.492Z" fill="#E4EBED"/>
<path d="M52.1963 792.655C53.8376 792.587 55.4147 792.882 56.5479 793.536L85.5664 810.29C86.6932 810.94 87.1363 811.799 87.0312 812.645C86.9238 813.508 86.2353 814.446 84.9033 815.216L57.4434 831.07C56.1162 831.836 54.4388 832.266 52.7998 832.334C51.1585 832.402 49.5822 832.106 48.4492 831.452L19.4307 814.699C18.3036 814.049 17.8597 813.19 17.9648 812.344C18.0724 811.48 18.761 810.542 20.0928 809.772L47.5527 793.918C48.8799 793.152 50.5573 792.723 52.1963 792.655Z" fill="#F8FCFF" stroke="#E6E6E6" stroke-width="0.462369"/>
<path opacity="0.64" d="M33.4185 808.745H33.3672V743H71.6324V808.745H71.582C70.8653 813.842 62.5944 817.862 52.4991 817.862C42.4037 817.862 34.1352 813.842 33.4185 808.745Z" fill="url(#paint29_linear_1363_1665)"/>
<path fill-rule="evenodd" clip-rule="evenodd" d="M49.388 761C49.1322 761 48.8797 761.058 48.6493 761.169C48.4188 761.28 48.2162 761.441 48.0566 761.641L46.3736 763.744C46.1321 764.046 46.0004 764.421 46 764.807V775.208C46 775.66 46.1796 776.094 46.4994 776.414C46.8191 776.733 47.2527 776.913 47.7049 776.913H56.7983C57.0222 776.913 57.2439 776.869 57.4508 776.783C57.6576 776.698 57.8456 776.572 58.0039 776.414C58.1622 776.255 58.2878 776.067 58.3735 775.861C58.4591 775.654 58.5032 775.432 58.5032 775.208V762.705C58.5032 762.481 58.4591 762.259 58.3735 762.052C58.2878 761.846 58.1622 761.658 58.0039 761.499C57.8456 761.341 57.6576 761.215 57.4508 761.13C57.2439 761.044 57.0222 761 56.7983 761H49.388ZM50.1464 768.222C50.0399 768.115 49.98 767.971 49.98 767.82C49.98 767.669 50.0399 767.525 50.1464 767.418L51.8498 765.712C51.9564 765.605 52.1009 765.545 52.2516 765.545C52.4023 765.545 52.5468 765.605 52.6534 765.712L54.3584 767.417C54.4607 767.524 54.5169 767.667 54.5151 767.816C54.5133 767.964 54.4536 768.106 54.3487 768.211C54.2438 768.316 54.102 768.375 53.9537 768.377C53.8053 768.379 53.6621 768.323 53.5547 768.22L52.8201 767.486V770.092C52.8162 770.24 52.7547 770.381 52.6485 770.484C52.5424 770.588 52.4 770.646 52.2518 770.646C52.1036 770.646 51.9612 770.588 51.8551 770.484C51.7489 770.381 51.6874 770.24 51.6836 770.092V767.487L50.9489 768.221C50.8424 768.328 50.6981 768.387 50.5477 768.387C50.3973 768.388 50.253 768.328 50.1464 768.222ZM55.0949 772.368C55.1708 772.37 55.2462 772.357 55.3169 772.329C55.3875 772.302 55.4519 772.26 55.5063 772.207C55.5606 772.154 55.6038 772.091 55.6333 772.021C55.6628 771.951 55.678 771.876 55.678 771.8C55.678 771.724 55.6628 771.649 55.6333 771.579C55.6038 771.509 55.5606 771.446 55.5063 771.393C55.4519 771.34 55.3875 771.298 55.3169 771.271C55.2462 771.243 55.1708 771.23 55.0949 771.232H49.4098C49.334 771.23 49.2585 771.243 49.1879 771.271C49.1172 771.298 49.0528 771.34 48.9985 771.393C48.9441 771.446 48.9009 771.509 48.8714 771.579C48.842 771.649 48.8268 771.724 48.8268 771.8C48.8268 771.876 48.842 771.951 48.8714 772.021C48.9009 772.091 48.9441 772.154 48.9985 772.207C49.0528 772.26 49.1172 772.302 49.1879 772.329C49.2585 772.357 49.334 772.37 49.4098 772.368H55.0949Z" fill="black"/>
<path opacity="0.2" d="M46.5393 1016.95L3.37461 992.031C-0.143054 990 0.298513 986.453 4.3603 984.108L45.2056 960.526C49.2674 958.181 55.4106 957.926 58.9287 959.957L102.093 984.878C105.611 986.909 105.17 990.456 101.108 992.801L60.2624 1016.38C56.2006 1018.73 50.0574 1018.98 46.5393 1016.95Z" fill="url(#paint30_linear_1363_1665)"/>
<path opacity="0.1" d="M46.5393 1024.63L3.37461 999.706C-0.143054 997.675 0.298513 994.129 4.3603 991.784L45.2056 968.202C49.2674 965.856 55.4106 965.602 58.9287 967.633L102.093 992.554C105.611 994.585 105.17 998.132 101.108 1000.48L60.2624 1024.06C56.2006 1026.4 50.0574 1026.66 46.5393 1024.63Z" fill="url(#paint31_linear_1363_1665)"/>
<path d="M47.3912 1005.76L10.1466 984.253C7.11195 982.501 7.49167 979.44 10.9972 977.417L46.2392 957.068C49.7435 955.045 55.047 954.825 58.0797 956.577L95.3255 978.081C98.3601 979.833 97.9804 982.894 94.4749 984.917L59.2317 1005.27C55.7274 1007.29 50.4239 1007.51 47.3912 1005.76Z" fill="url(#paint32_linear_1363_1665)"/>
<path d="M48.5526 997.237L19.4022 980.407C17.0272 979.037 17.3251 976.641 20.0676 975.057L47.6523 959.13C50.3948 957.547 54.5439 957.374 56.9201 958.747L86.0705 975.576C88.4455 976.947 88.1476 979.343 85.4051 980.927L57.8204 996.853C55.0779 998.437 50.9288 998.61 48.5526 997.237Z" fill="#E4EBED"/>
<path d="M87.6696 971.578H17.875V977.995H87.6696V971.578Z" fill="#E4EBED"/>
<path d="M48.5526 990.827L19.4022 973.997C17.0272 972.627 17.3251 970.231 20.0676 968.646L47.6523 952.72C50.3948 951.137 54.5439 950.964 56.9201 952.337L86.0705 969.166C88.4455 970.536 88.1476 972.933 85.4051 974.517L57.8204 990.443C55.0779 992.026 50.9284 992.199 48.5526 990.827Z" fill="#F8FCFF"/>
<path d="M48.5526 990.827L19.4022 973.997C17.0272 972.627 17.3251 970.231 20.0676 968.646L47.6523 952.72C50.3948 951.137 54.5439 950.964 56.9201 952.337L86.0705 969.166C88.4455 970.536 88.1476 972.933 85.4051 974.517L57.8204 990.443C55.0779 992.026 50.9284 992.199 48.5526 990.827Z" fill="url(#paint33_radial_1363_1665)"/>
<path d="M48.5526 986.46L19.4022 969.63C17.0272 968.26 17.3251 965.863 20.0676 964.279L47.6523 948.353C50.3948 946.77 54.5439 946.597 56.9201 947.969L86.0705 964.799C88.4455 966.169 88.1476 968.566 85.4051 970.15L57.8204 986.076C55.0779 987.659 50.9284 987.832 48.5526 986.46Z" fill="#E4EBED"/>
<path d="M87.6696 960.805H17.875V967.221H87.6696V960.805Z" fill="#E4EBED"/>
<path d="M52.4336 940.875C54.0822 940.807 55.6655 941.103 56.8037 941.761L85.9541 958.59C87.0861 959.243 87.5323 960.105 87.4268 960.955C87.3188 961.823 86.6271 962.766 85.2891 963.539L57.7041 979.465C56.3709 980.235 54.6855 980.665 53.0391 980.733C51.3904 980.802 49.807 980.506 48.6689 979.849L19.5186 963.019C18.3864 962.365 17.9402 961.503 18.0459 960.653C18.1538 959.786 18.8457 958.843 20.1836 958.07L47.7686 942.144C49.1018 941.374 50.7872 940.943 52.4336 940.875Z" fill="#F8FCFF" stroke="#E6E6E6" stroke-width="0.46447"/>
<path opacity="0.64" d="M33.5672 957.043H33.5156V891H71.9547V957.043H71.9041C71.1841 962.164 62.8757 966.202 52.7345 966.202C42.5932 966.202 34.2871 962.164 33.5672 957.043Z" fill="url(#paint34_linear_1363_1665)"/>
<path d="M52.7683 921.668C52.6071 921.653 52.4386 921.646 52.2774 921.646C52.1748 921.646 52.0795 921.646 51.977 921.653C50.7387 921.712 49.5883 922.137 48.6431 922.818L45.0162 916.231C44.9283 916.063 44.9283 915.858 45.0236 915.689C45.1261 915.521 45.302 915.418 45.4998 915.418H48.797C48.9948 915.418 49.1707 915.521 49.2733 915.689L52.358 920.965L52.7683 921.668Z" fill="black"/>
<path d="M59.5363 916.231L55.9094 922.818C55.3965 922.445 54.8249 922.152 54.2095 921.954L52.9785 919.844L55.2719 915.704C55.3745 915.528 55.5577 915.418 55.7555 915.418H59.0527C59.2505 915.418 59.4264 915.521 59.5289 915.689C59.6242 915.858 59.6242 916.063 59.5363 916.231Z" fill="black"/>
<path d="M52.2754 922.738C49.4472 922.738 47.1465 925.039 47.1465 927.867C47.1465 930.696 49.4472 932.996 52.2754 932.996C55.1037 932.996 57.4044 930.696 57.4044 927.867C57.4044 925.039 55.1037 922.738 52.2754 922.738ZM55.0502 927.689L54.053 928.711L54.2897 930.161C54.3234 930.368 54.2362 930.577 54.0633 930.698C53.9695 930.764 53.8581 930.798 53.7475 930.798C53.6559 930.798 53.5643 930.775 53.4815 930.729L52.2754 930.063L51.0694 930.73C50.8855 930.832 50.6584 930.82 50.4869 930.698C50.3147 930.577 50.2275 930.368 50.2605 930.161L50.4972 928.711L49.4999 927.689C49.3563 927.542 49.3065 927.326 49.3725 927.131C49.4377 926.935 49.6062 926.794 49.8106 926.762L51.1669 926.555L51.7779 925.253C51.9582 924.867 52.592 924.867 52.7722 925.253L53.3833 926.555L54.7395 926.762C54.9432 926.793 55.1125 926.935 55.1777 927.131C55.2437 927.326 55.1938 927.542 55.0502 927.689Z" fill="black"/>
<path opacity="0.2" d="M46.5387 1165.95L3.37457 1141.03C-0.143037 1139 0.298524 1135.46 4.36025 1133.11L45.205 1109.53C49.2667 1107.18 55.4098 1106.93 58.9278 1108.96L102.092 1133.88C105.61 1135.91 105.168 1139.46 101.107 1141.8L60.2615 1165.39C56.1998 1167.73 50.0567 1167.99 46.5387 1165.95Z" fill="url(#paint35_linear_1363_1665)"/>
<path opacity="0.1" d="M46.5387 1173.63L3.37457 1148.71C-0.143037 1146.68 0.298524 1143.13 4.36025 1140.79L45.205 1117.21C49.2667 1114.86 55.4098 1114.61 58.9278 1116.64L102.092 1141.56C105.61 1143.59 105.168 1147.13 101.107 1149.48L60.2615 1173.06C56.1998 1175.41 50.0567 1175.66 46.5387 1173.63Z" fill="url(#paint36_linear_1363_1665)"/>
<path d="M47.3887 1154.76L10.1446 1133.26C7.11001 1131.51 7.48972 1128.45 10.9952 1126.42L46.2367 1106.08C49.741 1104.05 55.0444 1103.83 58.077 1105.59L95.3223 1127.09C98.3568 1128.84 97.9771 1131.9 94.4717 1133.92L59.229 1154.27C55.7247 1156.3 50.4213 1156.52 47.3887 1154.76Z" fill="url(#paint37_linear_1363_1665)"/>
<path d="M48.5483 1146.24L19.3982 1129.41C17.0233 1128.04 17.3212 1125.64 20.0637 1124.06L47.6479 1108.13C50.3904 1106.55 54.5395 1106.38 56.9156 1107.75L86.0656 1124.58C88.4406 1125.95 88.1427 1128.35 85.4002 1129.93L57.816 1145.86C55.0734 1147.44 50.9244 1147.61 48.5483 1146.24Z" fill="#E4EBED"/>
<path d="M87.6666 1120.58H17.873V1126.99H87.6666V1120.58Z" fill="#E4EBED"/>
<path d="M48.5483 1139.83L19.3982 1123C17.0233 1121.63 17.3212 1119.23 20.0637 1117.65L47.6479 1101.72C50.3904 1100.14 54.5395 1099.96 56.9156 1101.34L86.0656 1118.17C88.4406 1119.54 88.1427 1121.93 85.4002 1123.52L57.816 1139.44C55.0734 1141.03 50.924 1141.2 48.5483 1139.83Z" fill="#F8FCFF"/>
<path d="M48.5483 1139.83L19.3982 1123C17.0233 1121.63 17.3212 1119.23 20.0637 1117.65L47.6479 1101.72C50.3904 1100.14 54.5395 1099.96 56.9156 1101.34L86.0656 1118.17C88.4406 1119.54 88.1427 1121.93 85.4002 1123.52L57.816 1139.44C55.0734 1141.03 50.924 1141.2 48.5483 1139.83Z" fill="url(#paint38_radial_1363_1665)"/>
<path d="M48.5483 1135.47L19.3982 1118.64C17.0233 1117.27 17.3212 1114.87 20.0637 1113.29L47.6479 1097.36C50.3904 1095.78 54.5395 1095.61 56.9156 1096.98L86.0656 1113.81C88.4406 1115.18 88.1427 1117.58 85.4002 1119.16L57.816 1135.09C55.0734 1136.67 50.924 1136.84 48.5483 1135.47Z" fill="#E4EBED"/>
<path d="M87.6666 1109.81H17.873V1116.22H87.6666V1109.81Z" fill="#E4EBED"/>
<path d="M52.4287 1089.88C54.0775 1089.81 55.6615 1090.11 56.7998 1090.76L85.9492 1107.59C87.0813 1108.25 87.5275 1109.11 87.4219 1109.96C87.314 1110.83 86.6221 1111.77 85.2842 1112.54L57.7002 1128.47C56.367 1129.24 54.6817 1129.67 53.0352 1129.74C51.3863 1129.81 49.8022 1129.51 48.6641 1128.85L19.5146 1112.02C18.3826 1111.37 17.9364 1110.51 18.042 1109.66C18.1499 1108.79 18.8419 1107.85 20.1797 1107.07L47.7637 1091.15C49.0969 1090.38 50.7822 1089.95 52.4287 1089.88Z" fill="#F8FCFF" stroke="#E6E6E6" stroke-width="0.464463"/>
<path opacity="0.64" d="M33.5633 1106.04H33.5117V1040H71.9502V1106.04H71.8996C71.1797 1111.16 62.8714 1115.2 52.7303 1115.2C42.5892 1115.2 34.2832 1111.16 33.5633 1106.04Z" fill="url(#paint39_linear_1363_1665)"/>
<path d="M53.294 1074.55C53.5461 1074.48 53.7124 1074.28 53.7278 1074.01C53.7433 1073.75 53.6025 1073.53 53.3603 1073.43L51.0267 1072.49C50.5455 1072.3 50.2366 1071.87 50.2005 1071.36C50.1644 1070.84 50.4112 1070.37 50.8608 1070.12L51.6443 1069.66C52.1571 1069.37 52.4129 1068.8 52.2959 1068.22C52.2946 1068.22 51.8404 1065.3 51.8398 1065.29L50.9797 1066.52L49.5579 1067.22C49.4688 1067.26 49.3968 1067.33 49.3537 1067.42L47.8938 1070.45L46.1046 1071.53C46.0059 1071.59 45.9345 1071.69 45.9059 1071.8L44.7677 1076.24C44.7338 1076.37 44.763 1076.51 44.8467 1076.62C44.9304 1076.73 45.0592 1076.79 45.1957 1076.79L46.2161 1076.79L53.276 1074.55C53.282 1074.55 53.288 1074.55 53.294 1074.55Z" fill="black"/>
<path d="M59.7904 1076.18L57.9694 1071.83C57.9373 1071.75 57.8842 1071.68 57.8162 1071.64L55.9052 1070.29L55.1478 1068.34C55.1313 1068.3 55.1084 1068.26 55.0798 1068.22L52.7367 1065.32L53.1635 1068.06C53.3519 1069.01 52.9293 1069.94 52.0851 1070.43L51.3015 1070.88C51.1472 1070.97 51.069 1071.11 51.0814 1071.29C51.0938 1071.47 51.1916 1071.6 51.3568 1071.67L53.6904 1072.61C54.2868 1072.85 54.6475 1073.42 54.6094 1074.06C54.5714 1074.7 54.1499 1075.22 53.5345 1075.4L49.1387 1076.79L59.3829 1076.79C59.5308 1076.79 59.6688 1076.72 59.7507 1076.59C59.8325 1076.47 59.8474 1076.31 59.7904 1076.18Z" fill="black"/>
<path d="M52.7272 1064.37H54.347C54.4936 1064.37 54.6306 1064.29 54.7128 1064.17C54.795 1064.05 54.8116 1063.9 54.7571 1063.76L54.4693 1063.04L54.7571 1062.32C54.8116 1062.18 54.7949 1062.03 54.7128 1061.91C54.6306 1061.79 54.4936 1061.71 54.347 1061.71H52.2855C52.0415 1061.71 51.8438 1061.91 51.8438 1062.16V1064.8H52.7272V1064.37Z" fill="black"/>
<defs>
<linearGradient id="paint0_linear_1363_1665" x1="8.93658" y1="86.1379" x2="77.5647" y2="120.219" gradientUnits="userSpaceOnUse">
<stop stop-color="#ECBB0B"/>
<stop offset="1" stop-color="#53AB46"/>
</linearGradient>
<linearGradient id="paint1_linear_1363_1665" x1="6.60229" y1="103.173" x2="67.2938" y2="130.951" gradientUnits="userSpaceOnUse">
<stop stop-color="#ECBB0B"/>
<stop offset="1" stop-color="#4EAB49"/>
</linearGradient>
<linearGradient id="paint2_linear_1363_1665" x1="17.8083" y1="80.5307" x2="99.7418" y2="103.173" gradientUnits="userSpaceOnUse">
<stop stop-color="#ECBB0B"/>
<stop offset="1" stop-color="#40A94E"/>
</linearGradient>
<radialGradient id="paint3_radial_1363_1665" cx="0" cy="0" r="1" gradientUnits="userSpaceOnUse" gradientTransform="translate(9.2395 16.3048) scale(28.6513 18.0615)">
<stop stop-color="#34A853"/>
<stop offset="1" stop-color="white"/>
</radialGradient>
<linearGradient id="paint4_linear_1363_1665" x1="53" y1="-2.69892e-09" x2="52.8228" y2="81.2333" gradientUnits="userSpaceOnUse">
<stop stop-color="#ECBB0B" stop-opacity="0"/>
<stop offset="0.464996" stop-color="#FFF372" stop-opacity="0.258208"/>
<stop offset="1" stop-color="#5BAC44"/>
</linearGradient>
<linearGradient id="paint5_linear_1363_1665" x1="8.93658" y1="235.138" x2="77.5647" y2="269.219" gradientUnits="userSpaceOnUse">
<stop stop-color="#ECBB0B"/>
<stop offset="1" stop-color="#53AB46"/>
</linearGradient>
<linearGradient id="paint6_linear_1363_1665" x1="6.60229" y1="252.177" x2="67.2938" y2="279.955" gradientUnits="userSpaceOnUse">
<stop stop-color="#ECBB0B"/>
<stop offset="1" stop-color="#4EAB49"/>
</linearGradient>
<linearGradient id="paint7_linear_1363_1665" x1="17.8063" y1="229.535" x2="99.7398" y2="252.177" gradientUnits="userSpaceOnUse">
<stop stop-color="#ECBB0B"/>
<stop offset="1" stop-color="#40A94E"/>
</linearGradient>
<radialGradient id="paint8_radial_1363_1665" cx="0" cy="0" r="1" gradientUnits="userSpaceOnUse" gradientTransform="translate(9.2395 165.305) scale(28.6513 18.0615)">
<stop stop-color="#34A853"/>
<stop offset="1" stop-color="white"/>
</radialGradient>
<linearGradient id="paint9_linear_1363_1665" x1="53" y1="149" x2="52.8228" y2="230.233" gradientUnits="userSpaceOnUse">
<stop stop-color="#ECBB0B" stop-opacity="0"/>
<stop offset="0.464996" stop-color="#FFF372" stop-opacity="0.258208"/>
<stop offset="1" stop-color="#5BAC44"/>
</linearGradient>
<linearGradient id="paint10_linear_1363_1665" x1="7.93658" y1="384.138" x2="76.5647" y2="418.219" gradientUnits="userSpaceOnUse">
<stop stop-color="#ECBB0B"/>
<stop offset="1" stop-color="#53AB46"/>
</linearGradient>
<linearGradient id="paint11_linear_1363_1665" x1="5.60229" y1="401.173" x2="66.2938" y2="428.951" gradientUnits="userSpaceOnUse">
<stop stop-color="#ECBB0B"/>
<stop offset="1" stop-color="#4EAB49"/>
</linearGradient>
<linearGradient id="paint12_linear_1363_1665" x1="16.8063" y1="378.531" x2="98.7398" y2="401.173" gradientUnits="userSpaceOnUse">
<stop stop-color="#ECBB0B"/>
<stop offset="1" stop-color="#40A94E"/>
</linearGradient>
<radialGradient id="paint13_radial_1363_1665" cx="0" cy="0" r="1" gradientUnits="userSpaceOnUse" gradientTransform="translate(8.2395 314.305) scale(28.6513 18.0615)">
<stop stop-color="#34A853"/>
<stop offset="1" stop-color="white"/>
</radialGradient>
<linearGradient id="paint14_linear_1363_1665" x1="52" y1="298" x2="51.8228" y2="379.233" gradientUnits="userSpaceOnUse">
<stop stop-color="#ECBB0B" stop-opacity="0"/>
<stop offset="0.464996" stop-color="#FFF372" stop-opacity="0.258208"/>
<stop offset="1" stop-color="#5BAC44"/>
</linearGradient>
<linearGradient id="paint15_linear_1363_1665" x1="8.86027" y1="532.307" x2="76.8285" y2="566.06" gradientUnits="userSpaceOnUse">
<stop stop-color="#ECBB0B"/>
<stop offset="1" stop-color="#53AB46"/>
</linearGradient>
<linearGradient id="paint16_linear_1363_1665" x1="6.54843" y1="549.186" x2="66.6564" y2="576.697" gradientUnits="userSpaceOnUse">
<stop stop-color="#ECBB0B"/>
<stop offset="1" stop-color="#4EAB49"/>
</linearGradient>
<linearGradient id="paint17_linear_1363_1665" x1="17.6469" y1="526.762" x2="98.7926" y2="549.186" gradientUnits="userSpaceOnUse">
<stop stop-color="#ECBB0B"/>
<stop offset="1" stop-color="#40A94E"/>
</linearGradient>
<radialGradient id="paint18_radial_1363_1665" cx="0" cy="0" r="1" gradientUnits="userSpaceOnUse" gradientTransform="translate(9.16052 463.15) scale(28.3758 17.8878)">
<stop stop-color="#34A853"/>
<stop offset="1" stop-color="white"/>
</radialGradient>
<linearGradient id="paint19_linear_1363_1665" x1="52.4998" y1="447" x2="52.3243" y2="527.452" gradientUnits="userSpaceOnUse">
<stop stop-color="#ECBB0B" stop-opacity="0"/>
<stop offset="0.464996" stop-color="#FFF372" stop-opacity="0.258208"/>
<stop offset="1" stop-color="#5BAC44"/>
</linearGradient>
<linearGradient id="paint20_linear_1363_1665" x1="8.86027" y1="680.303" x2="76.8285" y2="714.056" gradientUnits="userSpaceOnUse">
<stop stop-color="#ECBB0B"/>
<stop offset="1" stop-color="#53AB46"/>
</linearGradient>
<linearGradient id="paint21_linear_1363_1665" x1="6.54843" y1="697.178" x2="66.6564" y2="724.689" gradientUnits="userSpaceOnUse">
<stop stop-color="#ECBB0B"/>
<stop offset="1" stop-color="#4EAB49"/>
</linearGradient>
<linearGradient id="paint22_linear_1363_1665" x1="17.6449" y1="674.754" x2="98.7906" y2="697.179" gradientUnits="userSpaceOnUse">
<stop stop-color="#ECBB0B"/>
<stop offset="1" stop-color="#40A94E"/>
</linearGradient>
<radialGradient id="paint23_radial_1363_1665" cx="0" cy="0" r="1" gradientUnits="userSpaceOnUse" gradientTransform="translate(9.16052 611.142) scale(28.3758 17.8878)">
<stop stop-color="#34A853"/>
<stop offset="1" stop-color="white"/>
</radialGradient>
<linearGradient id="paint24_linear_1363_1665" x1="52.4978" y1="595" x2="52.3224" y2="675.452" gradientUnits="userSpaceOnUse">
<stop stop-color="#ECBB0B" stop-opacity="0"/>
<stop offset="0.464996" stop-color="#FFF372" stop-opacity="0.258208"/>
<stop offset="1" stop-color="#5BAC44"/>
</linearGradient>
<linearGradient id="paint25_linear_1363_1665" x1="8.86027" y1="828.307" x2="76.8285" y2="862.06" gradientUnits="userSpaceOnUse">
<stop stop-color="#ECBB0B"/>
<stop offset="1" stop-color="#53AB46"/>
</linearGradient>
<linearGradient id="paint26_linear_1363_1665" x1="6.54843" y1="845.186" x2="66.6564" y2="872.697" gradientUnits="userSpaceOnUse">
<stop stop-color="#ECBB0B"/>
<stop offset="1" stop-color="#4EAB49"/>
</linearGradient>
<linearGradient id="paint27_linear_1363_1665" x1="17.643" y1="822.762" x2="98.7887" y2="845.186" gradientUnits="userSpaceOnUse">
<stop stop-color="#ECBB0B"/>
<stop offset="1" stop-color="#40A94E"/>
</linearGradient>
<radialGradient id="paint28_radial_1363_1665" cx="0" cy="0" r="1" gradientUnits="userSpaceOnUse" gradientTransform="translate(9.15857 759.15) scale(28.3758 17.8878)">
<stop stop-color="#34A853"/>
<stop offset="1" stop-color="white"/>
</radialGradient>
<linearGradient id="paint29_linear_1363_1665" x1="52.4998" y1="743" x2="52.3243" y2="823.452" gradientUnits="userSpaceOnUse">
<stop stop-color="#ECBB0B" stop-opacity="0"/>
<stop offset="0.464996" stop-color="#FFF372" stop-opacity="0.258208"/>
<stop offset="1" stop-color="#5BAC44"/>
</linearGradient>
<linearGradient id="paint30_linear_1363_1665" x1="8.89599" y1="976.689" x2="77.1731" y2="1010.6" gradientUnits="userSpaceOnUse">
<stop stop-color="#ECBB0B"/>
<stop offset="1" stop-color="#53AB46"/>
</linearGradient>
<linearGradient id="paint31_linear_1363_1665" x1="6.57364" y1="993.645" x2="66.9547" y2="1021.28" gradientUnits="userSpaceOnUse">
<stop stop-color="#ECBB0B"/>
<stop offset="1" stop-color="#4EAB49"/>
</linearGradient>
<linearGradient id="paint32_linear_1363_1665" x1="17.7236" y1="971.114" x2="99.2381" y2="993.641" gradientUnits="userSpaceOnUse">
<stop stop-color="#ECBB0B"/>
<stop offset="1" stop-color="#40A94E"/>
</linearGradient>
<radialGradient id="paint33_radial_1363_1665" cx="0" cy="0" r="1" gradientUnits="userSpaceOnUse" gradientTransform="translate(9.19779 907.22) scale(28.5048 17.9691)">
<stop stop-color="#34A853"/>
<stop offset="1" stop-color="white"/>
</radialGradient>
<linearGradient id="paint34_linear_1363_1665" x1="52.7352" y1="891" x2="52.5589" y2="971.818" gradientUnits="userSpaceOnUse">
<stop stop-color="#ECBB0B" stop-opacity="0"/>
<stop offset="0.464996" stop-color="#FFF372" stop-opacity="0.258208"/>
<stop offset="1" stop-color="#5BAC44"/>
</linearGradient>
<linearGradient id="paint35_linear_1363_1665" x1="8.89587" y1="1125.69" x2="77.1719" y2="1159.6" gradientUnits="userSpaceOnUse">
<stop stop-color="#ECBB0B"/>
<stop offset="1" stop-color="#53AB46"/>
</linearGradient>
<linearGradient id="paint36_linear_1363_1665" x1="6.57356" y1="1142.65" x2="66.9538" y2="1170.28" gradientUnits="userSpaceOnUse">
<stop stop-color="#ECBB0B"/>
<stop offset="1" stop-color="#4EAB49"/>
</linearGradient>
<linearGradient id="paint37_linear_1363_1665" x1="17.7215" y1="1120.12" x2="99.2348" y2="1142.65" gradientUnits="userSpaceOnUse">
<stop stop-color="#ECBB0B"/>
<stop offset="1" stop-color="#40A94E"/>
</linearGradient>
<radialGradient id="paint38_radial_1363_1665" cx="0" cy="0" r="1" gradientUnits="userSpaceOnUse" gradientTransform="translate(9.194 1056.22) scale(28.5043 17.9689)">
<stop stop-color="#34A853"/>
<stop offset="1" stop-color="white"/>
</radialGradient>
<linearGradient id="paint39_linear_1363_1665" x1="52.731" y1="1040" x2="52.5547" y2="1120.82" gradientUnits="userSpaceOnUse">
<stop stop-color="#ECBB0B" stop-opacity="0"/>
<stop offset="0.464996" stop-color="#FFF372" stop-opacity="0.258208"/>
<stop offset="1" stop-color="#5BAC44"/>
</linearGradient>
</defs>
</svg>
