<svg width="32" height="32" viewBox="0 0 32 32" fill="none" xmlns="http://www.w3.org/2000/svg">
<path fill-rule="evenodd" clip-rule="evenodd" d="M11.1482 13.8651L9.14784 9.53419L7.14753 13.8651H11.1482ZM9.33479 8.05733C9.44072 8.10095 9.50927 8.18196 9.55289 8.27543L13.6594 17.1678C13.7654 17.3921 13.6657 17.6663 13.4413 17.766C13.217 17.8719 12.9491 17.7722 12.8431 17.5479L11.5657 14.7687H6.73002L5.44633 17.5479C5.34039 17.7722 5.07867 17.8719 4.84811 17.766C4.62377 17.6601 4.52407 17.3921 4.63 17.1678L8.73656 8.27543C8.8425 8.04486 9.11045 7.94516 9.33479 8.05733ZM12.8494 30.7524L18.1274 25.7049C18.2396 25.6052 18.3081 25.4619 18.2894 25.2999L16.3701 9.90808L15.5912 3.68282L15.4292 2.3742C15.3482 1.71989 15.0678 1.11544 14.6378 0.679233C14.2203 0.261723 13.6594 0 13.0114 0H2.42405C1.75728 0 1.15283 0.274186 0.710391 0.710391C0.267954 1.1466 0 1.76351 0 2.43028V23.3806C0 24.0474 0.274186 24.658 0.710391 25.0942C1.15283 25.5367 1.75728 25.8046 2.42405 25.8046H10.6247V28.7147C10.6247 29.5747 10.9799 30.3599 11.547 30.9207C12.114 31.4878 12.8992 31.843 13.7591 31.843H28.1041C28.964 31.843 29.7492 31.4878 30.31 30.9207C30.8771 30.3536 31.2323 29.5685 31.2323 28.7147V8.40006C31.2323 7.54011 30.8833 6.75494 30.31 6.18788C29.7429 5.62081 28.9578 5.26562 28.1041 5.26562H16.7004L16.8126 6.16918H28.1041C28.7147 6.16918 29.2756 6.41844 29.6744 6.82349C30.0794 7.22854 30.3287 7.78314 30.3287 8.40006V28.7147C30.3287 29.3254 30.0794 29.88 29.6744 30.2851C29.2694 30.6901 28.7147 30.9394 28.1041 30.9394H13.7529C13.4351 30.9456 13.1235 30.8771 12.8494 30.7524ZM19.4672 15.8654C19.2179 15.8654 19.0185 15.666 19.0185 15.4167C19.0185 15.1675 19.2179 14.9618 19.4672 14.9618H23.1251V14.1143C23.1251 13.8651 23.3245 13.6657 23.5738 13.6657C23.823 13.6657 24.0287 13.8651 24.0287 14.1143V14.9618H27.6803C27.9296 14.9618 28.1352 15.1675 28.1352 15.4167C28.1352 15.666 27.9296 15.8654 27.6803 15.8654H26.1598C26.1536 15.9277 26.1536 15.99 26.1474 16.0523C26.1349 16.2517 26.1162 16.4636 26.0851 16.6817C25.8483 18.4889 25.1254 20.134 24.1284 21.3429C24.9322 22.1031 25.8607 22.5518 26.8017 22.5518C27.0509 22.5518 27.2503 22.7574 27.2503 23.0067C27.2503 23.256 27.0447 23.4554 26.8017 23.4554C25.6239 23.4554 24.4836 22.9132 23.5177 21.9972C22.5518 22.907 21.4114 23.4554 20.2337 23.4554C19.9844 23.4554 19.785 23.256 19.785 23.0067C19.785 22.7574 19.9844 22.5518 20.2337 22.5518C21.1746 22.5518 22.1031 22.1031 22.907 21.3367C22.0533 20.3022 21.399 18.95 21.0812 17.4544C21.0251 17.2114 21.1871 16.9684 21.4301 16.9185C21.6732 16.8687 21.9162 17.0245 21.966 17.2675C22.2465 18.5761 22.8011 19.7539 23.5239 20.6637C24.3776 19.5856 24.9945 18.1461 25.2002 16.5633C25.2251 16.3764 25.2376 16.1894 25.2563 15.9963C25.2625 15.9526 25.2625 15.909 25.2625 15.8592H23.58H19.4672V15.8654Z" fill="#343434"/>
</svg>
