<svg width="27" height="27" viewBox="0 0 27 27" fill="none" xmlns="http://www.w3.org/2000/svg">
<circle cx="13.4875" cy="13.4875" r="13.4875" fill="#C1A968"/>
<circle cx="13.4875" cy="13.4875" r="13.4875" fill="white"/>
<path d="M16.3386 14.7266L15.9977 15.066C15.9977 15.066 15.1862 15.8723 12.972 13.6708C10.7578 11.4694 11.5693 10.6631 11.5693 10.6631L11.7836 10.4488C12.3133 9.9228 12.3635 9.07758 11.9012 8.46016L10.9571 7.19908C10.3846 6.43478 9.2794 6.33363 8.62376 6.98552L7.44735 8.15444C7.1229 8.47814 6.9056 8.89625 6.93183 9.36082C6.99927 10.55 7.53727 13.1074 10.5375 16.0911C13.7198 19.2547 16.7058 19.3805 17.9264 19.2666C18.313 19.2307 18.6487 19.0344 18.9192 18.7646L19.9832 17.7066C20.7026 16.9925 20.5003 15.7674 19.5801 15.2676L18.1489 14.4891C17.545 14.1616 16.8107 14.2575 16.3386 14.7266Z" fill="#0D0D0D"/>
</svg>
