<svg width="104" height="136" viewBox="0 0 104 136" fill="none" xmlns="http://www.w3.org/2000/svg">
<path opacity="0.2" d="M45.7735 126.607L2.38682 101.558C-1.14893 99.5167 -0.705093 95.9518 3.37758 93.5945L44.4329 69.8913C48.5156 67.534 54.6904 67.2783 58.2265 69.3196L101.613 94.3689C105.149 96.4102 104.705 99.9751 100.623 102.332L59.5671 126.036C55.4844 128.393 49.3096 128.649 45.7735 126.607Z" fill="url(#paint0_linear_1355_2585)"/>
<path opacity="0.1" d="M45.7735 134.314L2.38682 109.265C-1.14893 107.224 -0.705093 103.659 3.37758 101.302L44.4329 77.5984C48.5156 75.2411 54.6904 74.9853 58.2265 77.0266L101.613 102.076C105.149 104.117 104.705 107.682 100.623 110.039L59.5671 133.743C55.4844 136.1 49.3096 136.356 45.7735 134.314Z" fill="url(#paint1_linear_1355_2585)"/>
<path d="M46.6284 115.351L9.19224 93.7371C6.14204 91.9759 6.52371 88.8997 10.0473 86.8659L45.4704 66.4128C48.9928 64.3793 54.3236 64.1582 57.3718 65.9194L94.8091 87.5336C97.8593 89.2948 97.4777 92.371 93.9541 94.4048L58.5298 114.858C55.0074 116.891 49.6766 117.113 46.6284 115.351Z" fill="url(#paint2_linear_1355_2585)"/>
<path d="M47.7967 106.787L18.4963 89.8712C16.1091 88.4941 16.4086 86.0852 19.1652 84.4928L46.8917 68.4848C49.6484 66.8932 53.8188 66.7197 56.2071 68.0992L85.5075 85.0154C87.8947 86.3925 87.5952 88.8014 84.8386 90.3937L57.1121 106.401C54.3555 107.993 50.185 108.167 47.7967 106.787Z" fill="#E4EBED"/>
<path d="M87.1144 80.9961H16.9609V87.4455H87.1144V80.9961Z" fill="#E4EBED"/>
<path d="M47.7967 100.342L18.4963 83.4259C16.1091 82.0487 16.4086 79.6399 19.1652 78.0475L46.8917 62.0395C49.6484 60.4479 53.8188 60.2744 56.2071 61.6539L85.5075 78.57C87.8947 79.9472 87.5952 82.356 84.8386 83.9484L57.1121 99.9561C54.3555 101.548 50.1847 101.721 47.7967 100.342Z" fill="#F8FCFF"/>
<path d="M47.7967 100.342L18.4963 83.4259C16.1091 82.0487 16.4086 79.6399 19.1652 78.0475L46.8917 62.0395C49.6484 60.4479 53.8188 60.2744 56.2071 61.6539L85.5075 78.57C87.8947 79.9472 87.5952 82.356 84.8386 83.9484L57.1121 99.9561C54.3555 101.548 50.1847 101.721 47.7967 100.342Z" fill="url(#paint3_radial_1355_2585)"/>
<path d="M47.7967 95.9593L18.4963 79.0431C16.1091 77.6659 16.4086 75.2571 19.1652 73.6647L46.8917 57.6567C49.6484 56.0651 53.8188 55.8915 56.2071 57.2711L85.5075 74.1872C87.8947 75.5644 87.5952 77.9732 84.8386 79.5656L57.1121 95.5733C54.3555 97.1649 50.1847 97.3384 47.7967 95.9593Z" fill="#E4EBED"/>
<path d="M87.1144 70.1641H16.9609V76.6135H87.1144V70.1641Z" fill="#E4EBED"/>
<path d="M51.6973 50.1377C53.3545 50.069 54.9467 50.3675 56.0908 51.0283L85.3906 67.9443C86.5285 68.6007 86.9762 69.4673 86.8701 70.3213C86.7616 71.1936 86.0666 72.1411 84.7217 72.918L56.9951 88.9258C55.655 89.6994 53.9616 90.1335 52.3066 90.2021C50.6493 90.2709 49.057 89.9722 47.9131 89.3115L18.6133 72.3955C17.4755 71.7391 17.0278 70.8725 17.1338 70.0186C17.2423 69.1463 17.9373 68.1988 19.2822 67.4219L47.0088 51.4131C48.3489 50.6395 50.0424 50.2063 51.6973 50.1377Z" fill="#F8FCFF" stroke="#E6E6E6" stroke-width="0.466858"/>
<path opacity="0.64" d="M32.7335 66.383H32.6816V0H71.3183V66.383H71.2674C70.5438 71.5296 62.1927 75.5889 51.9993 75.5889C41.8059 75.5889 33.4571 71.5296 32.7335 66.383Z" fill="url(#paint4_linear_1355_2585)"/>
<path d="M50.0183 37.7678C50.0172 36.5066 50.4535 35.2841 51.2528 34.3085C52.0521 33.333 53.165 32.6648 54.4018 32.4179C55.6386 32.171 56.9227 32.3607 58.0353 32.9546C59.1479 33.5485 60.0201 34.5099 60.5033 35.6749C60.9864 36.8398 61.0506 38.1363 60.6849 39.3433C60.3192 40.5503 59.5462 41.5932 58.4977 42.2941C57.4492 42.995 56.1901 43.3105 54.9349 43.187C53.6798 43.0635 52.5063 42.5085 51.6146 41.6167C51.1088 41.1114 50.7075 40.5114 50.4337 39.851C50.1598 39.1906 50.0187 38.4828 50.0183 37.7678ZM52.4722 37.1982C52.3971 37.273 52.3376 37.3618 52.2969 37.4596C52.2563 37.5575 52.2354 37.6624 52.2354 37.7683C52.2354 37.8743 52.2563 37.9792 52.2969 38.077C52.3376 38.1749 52.3971 38.2637 52.4722 38.3385L54.0859 39.9508C54.2373 40.102 54.4424 40.1869 54.6563 40.187H54.6828C54.7932 40.1834 54.9016 40.1571 55.0013 40.1098C55.1011 40.0625 55.19 39.9952 55.2626 39.912L58.0856 36.6856C58.1565 36.606 58.2109 36.5132 58.2457 36.4126C58.2805 36.3119 58.2951 36.2053 58.2885 36.099C58.2819 35.9927 58.2544 35.8887 58.2075 35.793C58.1605 35.6974 58.0951 35.612 58.015 35.5418C57.9349 35.4715 57.8417 35.4178 57.7408 35.3838C57.6398 35.3498 57.5332 35.336 57.4269 35.3434C57.3206 35.3508 57.2169 35.3791 57.1216 35.4268C57.0263 35.4745 56.9414 35.5405 56.8718 35.6212L54.6171 38.1992L53.6136 37.1961C53.5388 37.121 53.4499 37.0614 53.352 37.0207C53.2542 36.98 53.1492 36.9591 53.0432 36.9591C52.9372 36.9591 52.8323 36.98 52.7344 37.0207C52.6365 37.0614 52.5477 37.121 52.4729 37.1961L52.4722 37.1982ZM43.7684 40.7923C43.4771 40.7925 43.1887 40.7352 42.9195 40.6238C42.6504 40.5124 42.4058 40.349 42.1999 40.143C41.9939 39.937 41.8306 39.6924 41.7192 39.4233C41.6078 39.1541 41.5506 38.8656 41.5508 38.5743V28.4934C41.5506 28.2021 41.6078 27.9136 41.7191 27.6443C41.8305 27.3751 41.9938 27.1305 42.1998 26.9245C42.4057 26.7185 42.6503 26.5551 42.9195 26.4436C43.1886 26.3322 43.4771 26.2749 43.7684 26.275H43.9703V27.2845C43.9702 27.5758 44.0275 27.8642 44.1389 28.1333C44.2503 28.4024 44.4136 28.647 44.6196 28.8529C44.8255 29.0589 45.07 29.2222 45.3392 29.3336C45.6083 29.445 45.8967 29.5023 46.188 29.5021H50.6237C50.915 29.5024 51.2035 29.4452 51.4727 29.3338C51.7418 29.2225 51.9864 29.0591 52.1924 28.8531C52.3984 28.6472 52.5618 28.4026 52.6732 28.1334C52.7846 27.8643 52.8419 27.5758 52.8417 27.2845V26.275H53.0436C53.3349 26.2749 53.6233 26.3322 53.8925 26.4436C54.1616 26.555 54.4062 26.7184 54.6121 26.9244C54.8181 27.1304 54.9814 27.3749 55.0928 27.6441C55.2042 27.9133 55.2614 28.2017 55.2612 28.493V30.7191C54.1888 30.7449 53.1369 31.0184 52.1877 31.5183H44.575C44.4146 31.5183 44.2607 31.582 44.1473 31.6954C44.0339 31.8088 43.9702 31.9627 43.9702 32.1231C43.9702 32.2835 44.0339 32.4373 44.1473 32.5507C44.2607 32.6641 44.4146 32.7279 44.575 32.7279H50.5351C50.1028 33.1483 49.7264 33.6227 49.4155 34.1394H44.575C44.4146 34.1394 44.2607 34.2031 44.1473 34.3165C44.0339 34.4299 43.9702 34.5838 43.9702 34.7442C43.9702 34.9046 44.0339 35.0584 44.1473 35.1718C44.2607 35.2852 44.4146 35.349 44.575 35.349H48.8329C48.6687 35.8064 48.5501 36.279 48.4788 36.7598H44.575C44.4146 36.7598 44.2607 36.8235 44.1473 36.9369C44.0339 37.0503 43.9702 37.2042 43.9702 37.3646C43.9702 37.525 44.0339 37.6788 44.1473 37.7922C44.2607 37.9056 44.4146 37.9694 44.575 37.9694H48.4141C48.4393 38.946 48.6673 39.9067 49.0834 40.7906L43.7684 40.7923ZM46.188 28.6946C45.8146 28.6926 45.457 28.5434 45.1929 28.2794C44.9288 28.0154 44.7794 27.6579 44.7772 27.2845V26.0735C44.7785 25.9135 44.8426 25.7604 44.9558 25.6472C45.069 25.5341 45.2222 25.47 45.3822 25.4689H46.2692C46.4016 25.0041 46.6818 24.5952 47.0675 24.3041C47.4531 24.013 47.9231 23.8555 48.4064 23.8555C48.8896 23.8555 49.3596 24.013 49.7453 24.3041C50.1309 24.5952 50.4112 25.0041 50.5435 25.4689H51.4302C51.5903 25.47 51.7435 25.534 51.8568 25.6471C51.97 25.7603 52.0342 25.9134 52.0355 26.0735V27.2845C52.0337 27.6583 51.8843 28.0163 51.6199 28.2807C51.3556 28.545 50.9975 28.6942 50.6237 28.696L46.188 28.6946Z" fill="black"/>
<defs>
<linearGradient id="paint0_linear_1355_2585" x1="7.93658" y1="86.1379" x2="76.5647" y2="120.219" gradientUnits="userSpaceOnUse">
<stop stop-color="#ECBB0B"/>
<stop offset="1" stop-color="#53AB46"/>
</linearGradient>
<linearGradient id="paint1_linear_1355_2585" x1="5.60229" y1="103.173" x2="66.2938" y2="130.951" gradientUnits="userSpaceOnUse">
<stop stop-color="#ECBB0B"/>
<stop offset="1" stop-color="#4EAB49"/>
</linearGradient>
<linearGradient id="paint2_linear_1355_2585" x1="16.8083" y1="80.5307" x2="98.7418" y2="103.173" gradientUnits="userSpaceOnUse">
<stop stop-color="#ECBB0B"/>
<stop offset="1" stop-color="#40A94E"/>
</linearGradient>
<radialGradient id="paint3_radial_1355_2585" cx="0" cy="0" r="1" gradientUnits="userSpaceOnUse" gradientTransform="translate(8.2395 16.3048) scale(28.6513 18.0615)">
<stop stop-color="#34A853"/>
<stop offset="1" stop-color="white"/>
</radialGradient>
<linearGradient id="paint4_linear_1355_2585" x1="52" y1="-2.69892e-09" x2="51.8228" y2="81.2333" gradientUnits="userSpaceOnUse">
<stop stop-color="#ECBB0B" stop-opacity="0"/>
<stop offset="0.464996" stop-color="#FFF372" stop-opacity="0.258208"/>
<stop offset="1" stop-color="#5BAC44"/>
</linearGradient>
</defs>
</svg>
