<svg width="103" height="135" viewBox="0 0 103 135" fill="none" xmlns="http://www.w3.org/2000/svg">
<path opacity="0.2" d="M45.3333 125.387L2.36387 100.579C-1.13788 98.5568 -0.698313 95.0262 3.3451 92.6916L44.0057 69.2163C48.0491 66.8817 54.1645 66.6284 57.6666 68.6501L100.636 93.4585C104.138 95.4802 103.698 99.0108 99.6553 101.345L58.9943 124.821C54.9509 127.155 48.8355 127.409 45.3333 125.387Z" fill="url(#paint0_linear_1355_2703)"/>
<path opacity="0.1" d="M45.3333 133.028L2.36387 108.219C-1.13788 106.197 -0.698313 102.667 3.3451 100.332L44.0057 76.857C48.0491 74.5223 54.1645 74.269 57.6666 76.2907L100.636 101.099C104.138 103.121 103.698 106.651 99.6553 108.986L58.9943 132.461C54.9509 134.796 48.8355 135.049 45.3333 133.028Z" fill="url(#paint1_linear_1355_2703)"/>
<path d="M46.1764 114.247L9.10017 92.841C6.0793 91.0967 6.4573 88.0502 9.94697 86.0359L45.0295 65.7794C48.518 63.7655 53.7975 63.5465 56.8165 65.2907L93.8938 86.6971C96.9147 88.4414 96.5367 91.488 93.047 93.5023L57.9633 113.759C54.4748 115.773 49.1953 115.992 46.1764 114.247Z" fill="url(#paint2_linear_1355_2703)"/>
<path d="M47.3354 105.758L18.3168 89.0045C15.9525 87.6406 16.2491 85.2549 18.9792 83.6778L46.4391 67.8237C49.1693 66.2474 53.2996 66.0755 55.665 67.4418L84.6836 84.1953C87.0478 85.5592 86.7513 87.9449 84.0211 89.522L56.5613 105.376C53.8311 106.952 49.7008 107.124 47.3354 105.758Z" fill="#E4EBED"/>
<path d="M86.2777 80.2148H16.7988V86.6022H86.2777V80.2148Z" fill="#E4EBED"/>
<path d="M47.3354 99.3791L18.3168 82.6256C15.9525 81.2617 16.2491 78.876 18.9792 77.2989L46.4391 61.4448C49.1693 59.8685 53.2996 59.6966 55.665 61.0629L84.6836 77.8164C87.0478 79.1803 86.7513 81.566 84.0211 83.1431L56.5613 98.9968C53.8311 100.573 49.7004 100.745 47.3354 99.3791Z" fill="#F8FCFF"/>
<path d="M47.3354 99.3791L18.3168 82.6256C15.9525 81.2617 16.2491 78.876 18.9792 77.2989L46.4391 61.4448C49.1693 59.8685 53.2996 59.6966 55.665 61.0629L84.6836 77.8164C87.0478 79.1803 86.7513 81.566 84.0211 83.1431L56.5613 98.9968C53.8311 100.573 49.7004 100.745 47.3354 99.3791Z" fill="url(#paint3_radial_1355_2703)"/>
<path d="M47.3334 95.0393L18.3148 78.2857C15.9506 76.9218 16.2471 74.5361 18.9773 72.9591L46.4371 57.1049C49.1673 55.5286 53.2976 55.3568 55.663 56.723L84.6816 73.4766C87.0459 74.8405 86.7493 77.2262 84.0192 78.8032L56.5593 94.657C53.8292 96.2333 49.6984 96.4051 47.3334 95.0393Z" fill="#E4EBED"/>
<path d="M86.2777 69.4922H16.7988V75.8796H86.2777V69.4922Z" fill="#E4EBED"/>
<path d="M51.1963 49.6553C52.8376 49.5872 54.4147 49.8816 55.5479 50.5361L84.5664 67.29C85.6932 67.9401 86.1363 68.7988 86.0312 69.6445C85.9238 70.5084 85.2353 71.4464 83.9033 72.2158L56.4434 88.0703C55.1162 88.8365 53.4388 89.266 51.7998 89.334C50.1585 89.4021 48.5822 89.1064 47.4492 88.4521L18.4307 71.6992C17.3036 71.0491 16.8597 70.1896 16.9648 69.3438C17.0724 68.48 17.761 67.5418 19.0928 66.7725L46.5527 50.918C47.8799 50.1518 49.5573 49.7233 51.1963 49.6553Z" fill="#F8FCFF" stroke="#E6E6E6" stroke-width="0.462369"/>
<path opacity="0.64" d="M32.4185 65.7447H32.3672V0H70.6324V65.7447H70.582C69.8653 70.8418 61.5944 74.8621 51.4991 74.8621C41.4037 74.8621 33.1352 70.8418 32.4185 65.7447Z" fill="url(#paint4_linear_1355_2703)"/>
<path fill-rule="evenodd" clip-rule="evenodd" d="M48.388 18C48.1322 18.0001 47.8797 18.0578 47.6493 18.1687C47.4188 18.2796 47.2162 18.441 47.0566 18.6408L45.3736 20.7438C45.1321 21.0456 45.0004 21.4206 45 21.8071V32.2082C45 32.6603 45.1796 33.094 45.4994 33.4137C45.8191 33.7334 46.2527 33.9131 46.7049 33.9131H55.7983C56.0222 33.9131 56.2439 33.869 56.4508 33.7833C56.6576 33.6976 56.8456 33.572 57.0039 33.4137C57.1622 33.2554 57.2878 33.0675 57.3735 32.8606C57.4591 32.6538 57.5032 32.432 57.5032 32.2082V19.7049C57.5032 19.481 57.4591 19.2593 57.3735 19.0525C57.2878 18.8456 57.1622 18.6577 57.0039 18.4994C56.8456 18.341 56.6576 18.2155 56.4508 18.1298C56.2439 18.0441 56.0222 18 55.7983 18H48.388ZM49.1464 25.2219C49.0399 25.1153 48.98 24.9707 48.98 24.8201C48.98 24.6694 49.0399 24.5248 49.1464 24.4182L50.8498 22.7118C50.9564 22.6053 51.1009 22.5454 51.2516 22.5454C51.4023 22.5454 51.5468 22.6053 51.6534 22.7118L53.3584 24.4167C53.4607 24.5242 53.5169 24.6673 53.5151 24.8157C53.5133 24.964 53.4536 25.1058 53.3487 25.2107C53.2438 25.3156 53.102 25.3753 52.9537 25.3771C52.8053 25.3789 52.6621 25.3227 52.5547 25.2204L51.8201 24.4857V27.0919C51.8162 27.2401 51.7547 27.3809 51.6485 27.4843C51.5424 27.5878 51.4 27.6457 51.2518 27.6457C51.1036 27.6457 50.9612 27.5878 50.8551 27.4843C50.7489 27.3809 50.6874 27.2401 50.6836 27.0919V24.4868L49.9489 25.2215C49.8424 25.3277 49.6981 25.3874 49.5477 25.3875C49.3973 25.3876 49.253 25.328 49.1464 25.2219ZM54.0949 29.3683C54.1708 29.3702 54.2462 29.357 54.3169 29.3293C54.3875 29.3016 54.4519 29.2601 54.5063 29.2071C54.5606 29.1541 54.6038 29.0908 54.6333 29.0209C54.6628 28.951 54.678 28.8759 54.678 28.8C54.678 28.7241 54.6628 28.649 54.6333 28.5791C54.6038 28.5092 54.5606 28.4459 54.5063 28.3929C54.4519 28.34 54.3875 28.2984 54.3169 28.2708C54.2462 28.2431 54.1708 28.2298 54.0949 28.2318H48.4098C48.334 28.2298 48.2585 28.2431 48.1879 28.2708C48.1172 28.2984 48.0528 28.34 47.9985 28.3929C47.9441 28.4459 47.9009 28.5092 47.8714 28.5791C47.842 28.649 47.8268 28.7241 47.8268 28.8C47.8268 28.8759 47.842 28.951 47.8714 29.0209C47.9009 29.0908 47.9441 29.1541 47.9985 29.2071C48.0528 29.2601 48.1172 29.3016 48.1879 29.3293C48.2585 29.357 48.334 29.3702 48.4098 29.3683H54.0949Z" fill="black"/>
<defs>
<linearGradient id="paint0_linear_1355_2703" x1="7.86027" y1="85.3067" x2="75.8285" y2="119.06" gradientUnits="userSpaceOnUse">
<stop stop-color="#ECBB0B"/>
<stop offset="1" stop-color="#53AB46"/>
</linearGradient>
<linearGradient id="paint1_linear_1355_2703" x1="5.54843" y1="102.186" x2="65.6564" y2="129.697" gradientUnits="userSpaceOnUse">
<stop stop-color="#ECBB0B"/>
<stop offset="1" stop-color="#4EAB49"/>
</linearGradient>
<linearGradient id="paint2_linear_1355_2703" x1="16.643" y1="79.7616" x2="97.7887" y2="102.186" gradientUnits="userSpaceOnUse">
<stop stop-color="#ECBB0B"/>
<stop offset="1" stop-color="#40A94E"/>
</linearGradient>
<radialGradient id="paint3_radial_1355_2703" cx="0" cy="0" r="1" gradientUnits="userSpaceOnUse" gradientTransform="translate(8.15857 16.1499) scale(28.3758 17.8878)">
<stop stop-color="#34A853"/>
<stop offset="1" stop-color="white"/>
</radialGradient>
<linearGradient id="paint4_linear_1355_2703" x1="51.4998" y1="-2.67297e-09" x2="51.3243" y2="80.4522" gradientUnits="userSpaceOnUse">
<stop stop-color="#ECBB0B" stop-opacity="0"/>
<stop offset="0.464996" stop-color="#FFF372" stop-opacity="0.258208"/>
<stop offset="1" stop-color="#5BAC44"/>
</linearGradient>
</defs>
</svg>
