<svg width="104" height="136" viewBox="0 0 104 136" fill="none" xmlns="http://www.w3.org/2000/svg">
<path opacity="0.2" d="M45.7735 126.607L2.38682 101.558C-1.14893 99.5167 -0.705093 95.9518 3.37758 93.5945L44.4329 69.8913C48.5156 67.534 54.6904 67.2783 58.2265 69.3196L101.613 94.3689C105.149 96.4102 104.705 99.9751 100.623 102.332L59.5671 126.036C55.4844 128.393 49.3096 128.649 45.7735 126.607Z" fill="url(#paint0_linear_1355_2616)"/>
<path opacity="0.1" d="M45.7735 134.318L2.38682 109.269C-1.14893 107.228 -0.705093 103.663 3.37758 101.305L44.4329 77.6023C48.5156 75.245 54.6904 74.9892 58.2265 77.0305L101.613 102.08C105.149 104.121 104.705 107.686 100.623 110.043L59.5671 133.746C55.4844 136.104 49.3096 136.36 45.7735 134.318Z" fill="url(#paint1_linear_1355_2616)"/>
<path d="M46.6265 115.355L9.19029 93.741C6.14009 91.9798 6.52176 88.9036 10.0453 86.8698L45.4685 66.4167C48.9908 64.3832 54.3216 64.1621 57.3698 65.9233L94.8072 87.5375C97.8574 89.2987 97.4757 92.3749 93.9522 94.4087L58.5278 114.862C55.0055 116.895 49.6747 117.116 46.6265 115.355Z" fill="url(#paint2_linear_1355_2616)"/>
<path d="M47.7967 106.787L18.4963 89.8712C16.1091 88.4941 16.4086 86.0852 19.1652 84.4928L46.8917 68.4848C49.6484 66.8932 53.8188 66.7197 56.2071 68.0992L85.5075 85.0154C87.8947 86.3925 87.5952 88.8014 84.8386 90.3937L57.1121 106.401C54.3555 107.993 50.185 108.167 47.7967 106.787Z" fill="#E4EBED"/>
<path d="M87.1144 80.9961H16.9609V87.4455H87.1144V80.9961Z" fill="#E4EBED"/>
<path d="M47.7967 100.342L18.4963 83.4259C16.1091 82.0487 16.4086 79.6399 19.1652 78.0475L46.8917 62.0395C49.6484 60.4479 53.8188 60.2744 56.2071 61.6539L85.5075 78.57C87.8947 79.9472 87.5952 82.356 84.8386 83.9484L57.1121 99.9561C54.3555 101.548 50.1847 101.721 47.7967 100.342Z" fill="#F8FCFF"/>
<path d="M47.7967 100.342L18.4963 83.4259C16.1091 82.0487 16.4086 79.6399 19.1652 78.0475L46.8917 62.0395C49.6484 60.4479 53.8188 60.2744 56.2071 61.6539L85.5075 78.57C87.8947 79.9472 87.5952 82.356 84.8386 83.9484L57.1121 99.9561C54.3555 101.548 50.1847 101.721 47.7967 100.342Z" fill="url(#paint3_radial_1355_2616)"/>
<path d="M47.7967 95.9632L18.4963 79.047C16.1091 77.6698 16.4086 75.261 19.1652 73.6686L46.8917 57.6606C49.6484 56.069 53.8188 55.8954 56.2071 57.275L85.5075 74.1911C87.8947 75.5683 87.5952 77.9771 84.8386 79.5695L57.1121 95.5772C54.3555 97.1688 50.1847 97.3423 47.7967 95.9632Z" fill="#E4EBED"/>
<path d="M87.1144 70.168H16.9609V76.6174H87.1144V70.168Z" fill="#E4EBED"/>
<path d="M51.6973 50.1377C53.3545 50.069 54.9467 50.3675 56.0908 51.0283L85.3906 67.9443C86.5285 68.6007 86.9762 69.4673 86.8701 70.3213C86.7616 71.1936 86.0666 72.1411 84.7217 72.918L56.9951 88.9258C55.655 89.6994 53.9616 90.1335 52.3066 90.2021C50.6493 90.2709 49.057 89.9722 47.9131 89.3115L18.6133 72.3955C17.4755 71.7391 17.0278 70.8725 17.1338 70.0186C17.2423 69.1463 17.9373 68.1988 19.2822 67.4219L47.0088 51.4131C48.3489 50.6395 50.0424 50.2063 51.6973 50.1377Z" fill="#F8FCFF" stroke="#E6E6E6" stroke-width="0.466858"/>
<path opacity="0.64" d="M32.7335 66.383H32.6816V0H71.3183V66.383H71.2674C70.5438 71.5296 62.1927 75.5889 51.9993 75.5889C41.8059 75.5889 33.4571 71.5296 32.7335 66.383Z" fill="url(#paint4_linear_1355_2616)"/>
<path d="M55.7106 30.2704H47.306L46.5401 31.5848C46.5258 31.609 46.5182 31.6366 46.5181 31.6647C46.518 31.6929 46.5253 31.7206 46.5393 31.7449C46.5533 31.7693 46.5735 31.7896 46.5979 31.8037C46.6222 31.8177 46.6499 31.8251 46.678 31.825H56.3366C56.3647 31.8251 56.3923 31.8177 56.4167 31.8037C56.4411 31.7896 56.4613 31.7693 56.4753 31.7449C56.4893 31.7206 56.4966 31.6929 56.4965 31.6647C56.4963 31.6366 56.4887 31.609 56.4745 31.5848L55.7106 30.2704ZM61.3589 26.8673H41.6582V16.0208C41.659 15.7482 41.7676 15.487 41.9603 15.2943C42.153 15.1016 42.4142 14.993 42.6868 14.9922H60.3303C60.6028 14.993 60.864 15.1016 61.0568 15.2943C61.2495 15.487 61.3581 15.7482 61.3589 16.0208V26.8673ZM44.7974 19.3782C44.7974 19.7436 44.9057 20.1008 45.1087 20.4046C45.3117 20.7085 45.6003 20.9453 45.9379 21.0851C46.2755 21.2249 46.6469 21.2615 47.0053 21.1902C47.3637 21.119 47.6929 20.943 47.9513 20.6846C48.2097 20.4262 48.3856 20.097 48.4569 19.7386C48.5282 19.3803 48.4916 19.0088 48.3518 18.6712C48.2119 18.3336 47.9751 18.0451 47.6713 17.842C47.3675 17.639 47.0103 17.5307 46.6449 17.5307C46.4023 17.5307 46.162 17.5785 45.9379 17.6713C45.7137 17.7642 45.51 17.9002 45.3385 18.0718C45.1669 18.2434 45.0308 18.447 44.938 18.6712C44.8451 18.8953 44.7974 19.1356 44.7974 19.3782ZM50.0533 24.9129C49.9883 24.0534 49.601 23.2502 48.9689 22.6641C48.3368 22.078 47.5067 21.7524 46.6447 21.7524C45.7827 21.7524 44.9525 22.078 44.3205 22.6641C43.6884 23.2502 43.3011 24.0534 43.2361 24.9129C43.2334 24.9457 43.2376 24.9787 43.2484 25.0097C43.2592 25.0408 43.2763 25.0693 43.2986 25.0934C43.321 25.1175 43.3481 25.1367 43.3782 25.1498C43.4084 25.1628 43.441 25.1695 43.4738 25.1694H49.8155C49.8484 25.1695 49.8809 25.1628 49.9111 25.1498C49.9413 25.1367 49.9684 25.1175 49.9907 25.0934C50.0131 25.0693 50.0302 25.0408 50.041 25.0097C50.0517 24.9787 50.0559 24.9457 50.0533 24.9129ZM59.3527 20.6462H58.6464C58.555 20.1885 58.3746 19.7531 58.1153 19.365L58.6149 18.8654L57.6207 17.8712L57.1211 18.3708C56.7329 18.111 56.2974 17.9302 55.8395 17.8385V17.1322H54.431V17.8385C53.9733 17.9298 53.5379 18.1103 53.1498 18.3695L52.6498 17.8699L51.6556 18.8641L52.1527 19.365C51.8934 19.7531 51.713 20.1885 51.6216 20.6462H50.9174V22.0546H51.6216C51.713 22.5121 51.8935 22.9472 52.1527 23.3351L51.6556 23.8347L52.6498 24.8288L53.1494 24.3293C53.5376 24.589 53.973 24.7699 54.431 24.8616V25.5658H55.8395V24.8616C56.2972 24.7702 56.7325 24.5898 57.1207 24.3305L57.6207 24.8301L58.6149 23.8359L58.1153 23.3351C58.3746 22.9469 58.555 22.5116 58.6464 22.0538H59.3527V20.6454V20.6462ZM42.6868 29.4282H60.3303C60.6028 29.4274 60.864 29.3188 61.0568 29.1261C61.2495 28.9334 61.3581 28.6722 61.3589 28.3996V27.7095H41.6582V28.4013C41.659 28.6738 41.7676 28.935 41.9603 29.1278C42.153 29.3205 42.4142 29.4291 42.6868 29.4299V29.4282ZM55.1352 19.164C54.7029 19.164 54.2803 19.2923 53.9208 19.5324C53.5613 19.7726 53.2811 20.114 53.1157 20.5135C52.9502 20.9129 52.9069 21.3524 52.9913 21.7765C53.0756 22.2005 53.2838 22.59 53.5895 22.8957C53.8952 23.2014 54.2847 23.4096 54.7088 23.494C55.1328 23.5783 55.5723 23.535 55.9718 23.3696C56.3712 23.2041 56.7126 22.924 56.9528 22.5645C57.193 22.205 57.3212 21.7824 57.3212 21.35C57.3212 20.7703 57.0909 20.2143 56.681 19.8043C56.271 19.3944 55.715 19.164 55.1352 19.164Z" fill="black"/>
<defs>
<linearGradient id="paint0_linear_1355_2616" x1="7.93658" y1="86.1379" x2="76.5647" y2="120.219" gradientUnits="userSpaceOnUse">
<stop stop-color="#ECBB0B"/>
<stop offset="1" stop-color="#53AB46"/>
</linearGradient>
<linearGradient id="paint1_linear_1355_2616" x1="5.60229" y1="103.177" x2="66.2938" y2="130.955" gradientUnits="userSpaceOnUse">
<stop stop-color="#ECBB0B"/>
<stop offset="1" stop-color="#4EAB49"/>
</linearGradient>
<linearGradient id="paint2_linear_1355_2616" x1="16.8063" y1="80.5346" x2="98.7398" y2="103.177" gradientUnits="userSpaceOnUse">
<stop stop-color="#ECBB0B"/>
<stop offset="1" stop-color="#40A94E"/>
</linearGradient>
<radialGradient id="paint3_radial_1355_2616" cx="0" cy="0" r="1" gradientUnits="userSpaceOnUse" gradientTransform="translate(8.2395 16.3048) scale(28.6513 18.0615)">
<stop stop-color="#34A853"/>
<stop offset="1" stop-color="white"/>
</radialGradient>
<linearGradient id="paint4_linear_1355_2616" x1="52" y1="-2.69892e-09" x2="51.8228" y2="81.2333" gradientUnits="userSpaceOnUse">
<stop stop-color="#ECBB0B" stop-opacity="0"/>
<stop offset="0.464996" stop-color="#FFF372" stop-opacity="0.258208"/>
<stop offset="1" stop-color="#5BAC44"/>
</linearGradient>
</defs>
</svg>
