<svg width="104" height="135" viewBox="0 0 104 135" fill="none" xmlns="http://www.w3.org/2000/svg">
<path opacity="0.2" d="M45.5393 125.952L2.37461 101.031C-1.14305 98.9997 -0.701487 95.4531 3.3603 93.1078L44.2056 69.5259C48.2674 67.1806 54.4106 66.9262 57.9287 68.9571L101.093 93.8782C104.611 95.9091 104.17 99.4558 100.108 101.801L59.2624 125.383C55.2006 127.728 49.0574 127.983 45.5393 125.952Z" fill="url(#paint0_linear_1355_2721)"/>
<path opacity="0.1" d="M45.5393 133.628L2.37461 108.706C-1.14305 106.675 -0.701487 103.129 3.3603 100.784L44.2056 77.2017C48.2674 74.8564 54.4106 74.602 57.9287 76.6329L101.093 101.554C104.611 103.585 104.17 107.132 100.108 109.477L59.2624 133.059C55.2006 135.404 49.0574 135.658 45.5393 133.628Z" fill="url(#paint1_linear_1355_2721)"/>
<path d="M46.3912 114.756L9.14655 93.2528C6.11195 91.5006 6.49167 88.4402 9.99719 86.4167L45.2392 66.0682C48.7435 64.0452 54.047 63.8252 57.0797 65.5773L94.3255 87.081C97.3601 88.8332 96.9804 91.8936 93.4749 93.9171L58.2317 114.266C54.7274 116.289 49.4239 116.509 46.3912 114.756Z" fill="url(#paint2_linear_1355_2721)"/>
<path d="M47.5526 106.237L18.4022 89.4074C16.0272 88.0373 16.3251 85.6408 19.0676 84.0566L46.6523 68.1304C49.3948 66.5469 53.5439 66.3743 55.9201 67.7468L85.0705 84.5764C87.4455 85.9465 87.1476 88.3431 84.4051 89.9273L56.8204 105.853C54.0779 107.437 49.9288 107.61 47.5526 106.237Z" fill="#E4EBED"/>
<path d="M86.6696 80.5781H16.875V86.9945H86.6696V80.5781Z" fill="#E4EBED"/>
<path d="M47.5526 99.8269L18.4022 82.9973C16.0272 81.6272 16.3251 79.2306 19.0676 77.6464L46.6523 61.7202C49.3948 60.1368 53.5439 59.9642 55.9201 61.3366L85.0705 78.1663C87.4455 79.5364 87.1476 81.9329 84.4051 83.5171L56.8204 99.4429C54.0779 101.026 49.9284 101.199 47.5526 99.8269Z" fill="#F8FCFF"/>
<path d="M47.5526 99.8269L18.4022 82.9973C16.0272 81.6272 16.3251 79.2306 19.0676 77.6464L46.6523 61.7202C49.3948 60.1368 53.5439 59.9642 55.9201 61.3366L85.0705 78.1663C87.4455 79.5364 87.1476 81.9329 84.4051 83.5171L56.8204 99.4429C54.0779 101.026 49.9284 101.199 47.5526 99.8269Z" fill="url(#paint3_radial_1355_2721)"/>
<path d="M47.5526 95.4597L18.4022 78.6301C16.0272 77.26 16.3251 74.8635 19.0676 73.2792L46.6523 57.3531C49.3948 55.7696 53.5439 55.597 55.9201 56.9694L85.0705 73.7991C87.4455 75.1692 87.1476 77.5657 84.4051 79.1499L56.8204 95.0757C54.0779 96.6592 49.9284 96.8318 47.5526 95.4597Z" fill="#E4EBED"/>
<path d="M86.6696 69.8047H16.875V76.2211H86.6696V69.8047Z" fill="#E4EBED"/>
<path d="M51.4336 49.875C53.0822 49.8067 54.6655 50.1033 55.8037 50.7607L84.9541 67.5898C86.0861 68.2429 86.5323 69.1055 86.4268 69.9551C86.3188 70.8229 85.6271 71.7661 84.2891 72.5391L56.7041 88.4648C55.3709 89.2345 53.6855 89.6651 52.0391 89.7334C50.3904 89.8018 48.807 89.5058 47.6689 88.8486L18.5186 72.0186C17.3864 71.3654 16.9402 70.503 17.0459 69.6533C17.1538 68.7856 17.8457 67.8432 19.1836 67.0703L46.7686 51.1436C48.1018 50.3739 49.7872 49.9433 51.4336 49.875Z" fill="#F8FCFF" stroke="#E6E6E6" stroke-width="0.46447"/>
<path opacity="0.64" d="M32.5672 66.0434H32.5156V0H70.9547V66.0434H70.9041C70.1841 71.1637 61.8757 75.2023 51.7345 75.2023C41.5932 75.2023 33.2871 71.1637 32.5672 66.0434Z" fill="url(#paint4_linear_1355_2721)"/>
<path d="M51.7683 30.668C51.6071 30.6533 51.4386 30.646 51.2774 30.646C51.1748 30.646 51.0795 30.646 50.977 30.6533C49.7387 30.7119 48.5883 31.1369 47.6431 31.8183L44.0162 25.2313C43.9283 25.0628 43.9283 24.8576 44.0236 24.6891C44.1261 24.5205 44.302 24.418 44.4998 24.418H47.797C47.9948 24.418 48.1707 24.5205 48.2733 24.6891L51.358 29.9646L51.7683 30.668Z" fill="black"/>
<path d="M58.5363 25.2313L54.9094 31.8183C54.3965 31.4446 53.8249 31.1516 53.2095 30.9537L51.9785 28.8435L54.2719 24.7037C54.3745 24.5279 54.5577 24.418 54.7555 24.418H58.0527C58.2505 24.418 58.4264 24.5205 58.5289 24.6891C58.6242 24.8576 58.6242 25.0628 58.5363 25.2313Z" fill="black"/>
<path d="M51.2754 31.7383C48.4472 31.7383 46.1465 34.039 46.1465 36.8672C46.1465 39.6955 48.4472 41.9962 51.2754 41.9962C54.1037 41.9962 56.4044 39.6955 56.4044 36.8672C56.4044 34.039 54.1037 31.7383 51.2754 31.7383ZM54.0502 36.6892L53.053 37.7113L53.2897 39.1606C53.3234 39.368 53.2362 39.5768 53.0633 39.6984C52.9695 39.7644 52.8581 39.7981 52.7475 39.7981C52.6559 39.7981 52.5643 39.7754 52.4815 39.7292L51.2754 39.0632L50.0694 39.7299C49.8855 39.8318 49.6584 39.8201 49.4869 39.6984C49.3147 39.5768 49.2275 39.368 49.2605 39.1606L49.4972 37.7113L48.4999 36.6892C48.3563 36.5419 48.3065 36.3258 48.3725 36.1309C48.4377 35.9352 48.6062 35.7938 48.8106 35.7623L50.1669 35.555L50.7779 34.2529C50.9582 33.8668 51.592 33.8668 51.7722 34.2529L52.3833 35.555L53.7395 35.7623C53.9432 35.7931 54.1125 35.9352 54.1777 36.1309C54.2437 36.3258 54.1938 36.5419 54.0502 36.6892Z" fill="black"/>
<defs>
<linearGradient id="paint0_linear_1355_2721" x1="7.89599" y1="85.6894" x2="76.1731" y2="119.596" gradientUnits="userSpaceOnUse">
<stop stop-color="#ECBB0B"/>
<stop offset="1" stop-color="#53AB46"/>
</linearGradient>
<linearGradient id="paint1_linear_1355_2721" x1="5.57364" y1="102.645" x2="65.9547" y2="130.281" gradientUnits="userSpaceOnUse">
<stop stop-color="#ECBB0B"/>
<stop offset="1" stop-color="#4EAB49"/>
</linearGradient>
<linearGradient id="paint2_linear_1355_2721" x1="16.7236" y1="80.1139" x2="98.2381" y2="102.641" gradientUnits="userSpaceOnUse">
<stop stop-color="#ECBB0B"/>
<stop offset="1" stop-color="#40A94E"/>
</linearGradient>
<radialGradient id="paint3_radial_1355_2721" cx="0" cy="0" r="1" gradientUnits="userSpaceOnUse" gradientTransform="translate(8.19779 16.2195) scale(28.5048 17.9691)">
<stop stop-color="#34A853"/>
<stop offset="1" stop-color="white"/>
</radialGradient>
<linearGradient id="paint4_linear_1355_2721" x1="51.7352" y1="-2.68511e-09" x2="51.5589" y2="80.8178" gradientUnits="userSpaceOnUse">
<stop stop-color="#ECBB0B" stop-opacity="0"/>
<stop offset="0.464996" stop-color="#FFF372" stop-opacity="0.258208"/>
<stop offset="1" stop-color="#5BAC44"/>
</linearGradient>
</defs>
</svg>
