<svg width="103" height="135" viewBox="0 0 103 135" fill="none" xmlns="http://www.w3.org/2000/svg">
<path opacity="0.2" d="M45.3333 125.383L2.36387 100.575C-1.13788 98.5529 -0.698313 95.0223 3.3451 92.6877L44.0057 69.2124C48.0491 66.8778 54.1645 66.6245 57.6666 68.6462L100.636 93.4546C104.138 95.4763 103.698 99.0069 99.6553 101.342L58.9943 124.817C54.9509 127.151 48.8355 127.405 45.3333 125.383Z" fill="url(#paint0_linear_1355_2675)"/>
<path opacity="0.1" d="M45.3333 133.02L2.36387 108.211C-1.13788 106.19 -0.698313 102.659 3.3451 100.324L44.0057 76.8491C48.0491 74.5145 54.1645 74.2612 57.6666 76.2829L100.636 101.091C104.138 103.113 103.698 106.644 99.6553 108.978L58.9943 132.454C54.9509 134.788 48.8355 135.041 45.3333 133.02Z" fill="url(#paint1_linear_1355_2675)"/>
<path d="M46.1783 114.24L9.10213 92.8332C6.08126 91.0889 6.45925 88.0423 9.94892 86.028L45.0315 65.7716C48.52 63.7577 53.7995 63.5387 56.8184 65.2829L93.8958 86.6893C96.9167 88.4336 96.5387 91.4802 93.049 93.4945L57.9653 113.751C54.4768 115.765 49.1973 115.984 46.1783 114.24Z" fill="url(#paint2_linear_1355_2675)"/>
<path d="M47.3373 105.758L18.3187 89.0045C15.9545 87.6406 16.251 85.2549 18.9812 83.6778L46.441 67.8237C49.1712 66.2474 53.3015 66.0755 55.6669 67.4418L84.6855 84.1953C87.0498 85.5592 86.7532 87.9449 84.0231 89.522L56.5632 105.376C53.8331 106.952 49.7027 107.124 47.3373 105.758Z" fill="#E4EBED"/>
<path d="M86.2777 80.2148H16.7988V86.6022H86.2777V80.2148Z" fill="#E4EBED"/>
<path d="M47.3373 99.3713L18.3187 82.6178C15.9545 81.2538 16.251 78.8682 18.9812 77.2911L46.441 61.437C49.1712 59.8607 53.3015 59.6888 55.6669 61.0551L84.6855 77.8086C87.0498 79.1725 86.7532 81.5582 84.0231 83.1353L56.5632 98.989C53.8331 100.565 49.7023 100.737 47.3373 99.3713Z" fill="#F8FCFF"/>
<path d="M47.3373 99.3713L18.3187 82.6178C15.9545 81.2538 16.251 78.8682 18.9812 77.2911L46.441 61.437C49.1712 59.8607 53.3015 59.6888 55.6669 61.0551L84.6855 77.8086C87.0498 79.1725 86.7532 81.5582 84.0231 83.1353L56.5632 98.989C53.8331 100.565 49.7023 100.737 47.3373 99.3713Z" fill="url(#paint3_radial_1355_2675)"/>
<path d="M47.3354 95.0314L18.3168 78.2779C15.9525 76.914 16.2491 74.5283 18.9792 72.9512L46.4391 57.0971C49.1693 55.5208 53.2996 55.349 55.665 56.7152L84.6836 73.4688C87.0478 74.8327 86.7513 77.2183 84.0211 78.7954L56.5613 94.6491C53.8311 96.2254 49.7004 96.3973 47.3354 95.0314Z" fill="#E4EBED"/>
<path d="M86.2777 69.4883H16.7988V75.8757H86.2777V69.4883Z" fill="#E4EBED"/>
<path d="M51.1982 49.6514C52.8396 49.5833 54.4166 49.8777 55.5498 50.5322L84.5684 67.2861C85.6952 67.9362 86.1383 68.7949 86.0332 69.6406C85.9258 70.5045 85.2372 71.4425 83.9053 72.2119L56.4453 88.0664C55.1181 88.8326 53.4408 89.2621 51.8018 89.3301C50.1604 89.3982 48.5841 89.1025 47.4512 88.4482L18.4326 71.6953C17.3056 71.0451 16.8616 70.1857 16.9668 69.3398C17.0744 68.4761 17.763 67.5379 19.0947 66.7686L46.5547 50.9141C47.8819 50.1479 49.5593 49.7193 51.1982 49.6514Z" fill="#F8FCFF" stroke="#E6E6E6" stroke-width="0.462369"/>
<path opacity="0.64" d="M32.4166 65.7447H32.3652V0H70.6304V65.7447H70.58C69.8633 70.8418 61.5925 74.8621 51.4971 74.8621C41.4018 74.8621 33.1332 70.8418 32.4166 65.7447Z" fill="url(#paint4_linear_1355_2675)"/>
<path d="M51.0997 37.4767C51.0997 34.8935 53.2014 32.7917 55.7846 32.7917C56.1898 32.7917 56.5804 32.8485 56.9558 32.9458V26.35C56.9558 24.7331 55.6446 23.4219 54.0277 23.4219H47.0003C45.3835 23.4219 44.0723 24.7331 44.0723 26.35V36.3054C44.0723 37.9223 45.3835 39.2335 47.0003 39.2335H51.4446C51.2238 38.6906 51.0997 38.098 51.0997 37.4767ZM47.0003 26.35H51.6853C52.0091 26.35 52.2709 26.6123 52.2709 26.9356C52.2709 27.2588 52.0091 27.5212 51.6853 27.5212H47.0003C46.6765 27.5212 46.4147 27.2588 46.4147 26.9356C46.4147 26.6123 46.6765 26.35 47.0003 26.35ZM47.0003 29.278H54.0277C54.3516 29.278 54.6134 29.5404 54.6134 29.8637C54.6134 30.1869 54.3516 30.4493 54.0277 30.4493H47.0003C46.6765 30.4493 46.4147 30.1869 46.4147 29.8637C46.4147 29.5404 46.6765 29.278 47.0003 29.278ZM48.9797 36.3054H47.0003C46.6765 36.3054 46.4147 36.0431 46.4147 35.7198C46.4147 35.3966 46.6765 35.1342 47.0003 35.1342H48.9797C49.3036 35.1342 49.5653 35.3966 49.5653 35.7198C49.5653 36.0431 49.3036 36.3054 48.9797 36.3054ZM50.555 33.3774H47.0003C46.6765 33.3774 46.4147 33.115 46.4147 32.7917C46.4147 32.4685 46.6765 32.2061 47.0003 32.2061H50.555C50.8789 32.2061 51.1407 32.4685 51.1407 32.7917C51.1407 33.115 50.8789 33.3774 50.555 33.3774Z" fill="black"/>
<path d="M55.7852 33.9609C53.848 33.9609 52.2715 35.5374 52.2715 37.4746C52.2715 39.4119 53.848 40.9883 55.7852 40.9883C57.7224 40.9883 59.2989 39.4119 59.2989 37.4746C59.2989 35.5374 57.7224 33.9609 55.7852 33.9609ZM57.3704 37.2252L55.8086 38.787C55.6944 38.9012 55.5445 38.9586 55.3946 38.9586C55.2447 38.9586 55.0947 38.9012 54.9805 38.787L54.1999 38.0064C53.9709 37.7774 53.9709 37.4073 54.1999 37.1783C54.4289 36.9493 54.799 36.9493 55.028 37.1783L55.3946 37.5449L56.5424 36.3977C56.7714 36.1687 57.1415 36.1687 57.3704 36.3977C57.5994 36.6267 57.5994 36.9974 57.3704 37.2257V37.2252Z" fill="black"/>
<defs>
<linearGradient id="paint0_linear_1355_2675" x1="7.86027" y1="85.3028" x2="75.8285" y2="119.056" gradientUnits="userSpaceOnUse">
<stop stop-color="#ECBB0B"/>
<stop offset="1" stop-color="#53AB46"/>
</linearGradient>
<linearGradient id="paint1_linear_1355_2675" x1="5.54843" y1="102.178" x2="65.6564" y2="129.689" gradientUnits="userSpaceOnUse">
<stop stop-color="#ECBB0B"/>
<stop offset="1" stop-color="#4EAB49"/>
</linearGradient>
<linearGradient id="paint2_linear_1355_2675" x1="16.6449" y1="79.7538" x2="97.7906" y2="102.179" gradientUnits="userSpaceOnUse">
<stop stop-color="#ECBB0B"/>
<stop offset="1" stop-color="#40A94E"/>
</linearGradient>
<radialGradient id="paint3_radial_1355_2675" cx="0" cy="0" r="1" gradientUnits="userSpaceOnUse" gradientTransform="translate(8.16052 16.1421) scale(28.3758 17.8878)">
<stop stop-color="#34A853"/>
<stop offset="1" stop-color="white"/>
</radialGradient>
<linearGradient id="paint4_linear_1355_2675" x1="51.4978" y1="-2.67297e-09" x2="51.3224" y2="80.4522" gradientUnits="userSpaceOnUse">
<stop stop-color="#ECBB0B" stop-opacity="0"/>
<stop offset="0.464996" stop-color="#FFF372" stop-opacity="0.258208"/>
<stop offset="1" stop-color="#5BAC44"/>
</linearGradient>
</defs>
</svg>
