<svg width="104" height="135" viewBox="0 0 104 135" fill="none" xmlns="http://www.w3.org/2000/svg">
<path opacity="0.2" d="M45.5387 125.955L2.37457 101.034C-1.14304 99.0031 -0.701476 95.4566 3.36025 93.1114L44.205 69.5298C48.2667 67.1846 54.4098 66.9301 57.9278 68.961L101.092 93.8818C104.61 95.9126 104.168 99.4592 100.107 101.804L59.2615 125.386C55.1998 127.731 49.0567 127.986 45.5387 125.955Z" fill="url(#paint0_linear_1355_2745)"/>
<path opacity="0.1" d="M45.5387 133.631L2.37457 108.71C-1.14304 106.679 -0.701476 103.132 3.36025 100.787L44.205 77.2055C48.2667 74.8603 54.4098 74.6059 57.9278 76.6368L101.092 101.558C104.61 103.588 104.168 107.135 100.107 109.48L59.2615 133.062C55.1998 135.407 49.0567 135.661 45.5387 133.631Z" fill="url(#paint1_linear_1355_2745)"/>
<path d="M46.3887 114.764L9.14457 93.2602C6.11001 91.508 6.48972 88.4476 9.9952 86.4242L45.2367 66.076C48.741 64.053 54.0444 63.833 57.077 65.5851L94.3223 87.0885C97.3568 88.8407 96.9771 91.9011 93.4717 93.9245L58.229 114.273C54.7247 116.296 49.4213 116.516 46.3887 114.764Z" fill="url(#paint2_linear_1355_2745)"/>
<path d="M47.5483 106.24L18.3982 89.411C16.0233 88.0409 16.3212 85.6444 19.0637 84.0602L46.6479 68.1343C49.3904 66.5509 53.5395 66.3782 55.9156 67.7507L85.0656 84.5801C87.4406 85.9502 87.1427 88.3466 84.4002 89.9309L56.816 105.856C54.0734 107.44 49.9244 107.613 47.5483 106.24Z" fill="#E4EBED"/>
<path d="M86.6666 80.5781H16.873V86.9945H86.6666V80.5781Z" fill="#E4EBED"/>
<path d="M47.5483 99.8263L18.3982 82.9969C16.0233 81.6268 16.3212 79.2304 19.0637 77.6461L46.6479 61.7202C49.3904 60.1368 53.5395 59.9642 55.9156 61.3366L85.0656 78.166C87.4406 79.5361 87.1427 81.9326 84.4002 83.5168L56.816 99.4423C54.0734 101.026 49.924 101.198 47.5483 99.8263Z" fill="#F8FCFF"/>
<path d="M47.5483 99.8263L18.3982 82.9969C16.0233 81.6268 16.3212 79.2304 19.0637 77.6461L46.6479 61.7202C49.3904 60.1368 53.5395 59.9642 55.9156 61.3366L85.0656 78.166C87.4406 79.5361 87.1427 81.9326 84.4002 83.5168L56.816 99.4423C54.0734 101.026 49.924 101.198 47.5483 99.8263Z" fill="url(#paint3_radial_1355_2745)"/>
<path d="M47.5483 95.4709L18.3982 78.6415C16.0233 77.2714 16.3212 74.8749 19.0637 73.2907L46.6479 57.3648C49.3904 55.7813 53.5395 55.6087 55.9156 56.9811L85.0656 73.8105C87.4406 75.1806 87.1427 77.5771 84.4002 79.1613L56.816 95.0869C54.0734 96.6703 49.924 96.8429 47.5483 95.4709Z" fill="#E4EBED"/>
<path d="M86.6666 69.8086H16.873V76.2249H86.6666V69.8086Z" fill="#E4EBED"/>
<path d="M51.4287 49.8789C53.0775 49.8105 54.6615 50.1072 55.7998 50.7646L84.9492 67.5938C86.0813 68.2468 86.5275 69.1093 86.4219 69.959C86.314 70.8267 85.6221 71.7691 84.2842 72.542L56.7002 88.4678C55.367 89.2375 53.6817 89.669 52.0352 89.7373C50.3863 89.8057 48.8022 89.5088 47.6641 88.8516L18.5146 72.0225C17.3826 71.3694 16.9364 70.5068 17.042 69.6572C17.1499 68.7895 17.8419 67.8471 19.1797 67.0742L46.7637 51.1475C48.0969 50.3777 49.7822 49.9472 51.4287 49.8789Z" fill="#F8FCFF" stroke="#E6E6E6" stroke-width="0.464463"/>
<path opacity="0.64" d="M32.5633 66.0425H32.5117V0H70.9502V66.0425H70.8996C70.1797 71.1627 61.8714 75.2012 51.7303 75.2012C41.5892 75.2012 33.2832 71.1627 32.5633 66.0425Z" fill="url(#paint4_linear_1355_2745)"/>
<path d="M52.294 34.5483C52.5461 34.48 52.7124 34.2755 52.7278 34.0148C52.7433 33.7541 52.6025 33.5314 52.3603 33.4336L50.0267 32.4922C49.5455 32.2981 49.2366 31.8731 49.2005 31.3554C49.1644 30.8378 49.4112 30.3741 49.8608 30.115L50.6443 29.6635C51.1571 29.368 51.4129 28.8021 51.2959 28.222C51.2946 28.2155 50.8404 25.2982 50.8398 25.293L49.9797 26.5241L48.5579 27.2172C48.4688 27.2607 48.3968 27.3329 48.3537 27.4222L46.8938 30.4465L45.1046 31.5324C45.0059 31.5923 44.9345 31.6885 44.9059 31.8004L43.7677 36.2416C43.7338 36.3738 43.763 36.5142 43.8467 36.6221C43.9304 36.7299 44.0592 36.793 44.1957 36.793L45.2161 36.7929L52.276 34.5536C52.282 34.5517 52.288 34.55 52.294 34.5483Z" fill="black"/>
<path d="M58.7904 36.1772L56.9694 31.8266C56.9373 31.7499 56.8842 31.6838 56.8162 31.636L54.9052 30.2904L54.1478 28.3389C54.1313 28.2965 54.1084 28.2569 54.0798 28.2214L51.7367 25.3164L52.1635 28.0551C52.3519 29.0101 51.9293 29.9401 51.0851 30.4266L50.3015 30.8782C50.1472 30.9671 50.069 31.1139 50.0814 31.2916C50.0938 31.4693 50.1916 31.6039 50.3568 31.6705L52.6904 32.612C53.2868 32.8526 53.6475 33.4229 53.6094 34.0649C53.5714 34.7035 53.1499 35.2249 52.5345 35.396L48.1387 36.7903L58.3829 36.7894C58.5308 36.7894 58.6688 36.7155 58.7507 36.5924C58.8325 36.4693 58.8474 36.3135 58.7904 36.1772Z" fill="black"/>
<path d="M51.7272 24.3653H53.347C53.4936 24.3653 53.6306 24.2926 53.7128 24.1712C53.795 24.0498 53.8116 23.8956 53.7571 23.7595L53.4693 23.0401L53.7571 22.3206C53.8116 22.1845 53.7949 22.0303 53.7128 21.9089C53.6306 21.7876 53.4936 21.7148 53.347 21.7148H51.2855C51.0415 21.7148 50.8438 21.9126 50.8438 22.1566V24.7983H51.7272V24.3653Z" fill="black"/>
<defs>
<linearGradient id="paint0_linear_1355_2745" x1="7.89587" y1="85.693" x2="76.1719" y2="119.599" gradientUnits="userSpaceOnUse">
<stop stop-color="#ECBB0B"/>
<stop offset="1" stop-color="#53AB46"/>
</linearGradient>
<linearGradient id="paint1_linear_1355_2745" x1="5.57356" y1="102.649" x2="65.9538" y2="130.285" gradientUnits="userSpaceOnUse">
<stop stop-color="#ECBB0B"/>
<stop offset="1" stop-color="#4EAB49"/>
</linearGradient>
<linearGradient id="paint2_linear_1355_2745" x1="16.7215" y1="80.1215" x2="98.2348" y2="102.648" gradientUnits="userSpaceOnUse">
<stop stop-color="#ECBB0B"/>
<stop offset="1" stop-color="#40A94E"/>
</linearGradient>
<radialGradient id="paint3_radial_1355_2745" cx="0" cy="0" r="1" gradientUnits="userSpaceOnUse" gradientTransform="translate(8.194 16.2202) scale(28.5043 17.9689)">
<stop stop-color="#34A853"/>
<stop offset="1" stop-color="white"/>
</radialGradient>
<linearGradient id="paint4_linear_1355_2745" x1="51.731" y1="-2.68507e-09" x2="51.5547" y2="80.8166" gradientUnits="userSpaceOnUse">
<stop stop-color="#ECBB0B" stop-opacity="0"/>
<stop offset="0.464996" stop-color="#FFF372" stop-opacity="0.258208"/>
<stop offset="1" stop-color="#5BAC44"/>
</linearGradient>
</defs>
</svg>
