<svg width="104" height="136" viewBox="0 0 104 136" fill="none" xmlns="http://www.w3.org/2000/svg">
<path opacity="0.2" d="M45.7735 126.607L2.38682 101.558C-1.14893 99.5167 -0.705093 95.9518 3.37758 93.5945L44.4329 69.8913C48.5156 67.534 54.6904 67.2783 58.2265 69.3196L101.613 94.3689C105.149 96.4102 104.705 99.9751 100.623 102.332L59.5671 126.036C55.4844 128.393 49.3096 128.649 45.7735 126.607Z" fill="url(#paint0_linear_1355_2640)"/>
<path opacity="0.1" d="M45.7735 134.314L2.38682 109.265C-1.14893 107.224 -0.705093 103.659 3.37758 101.302L44.4329 77.5984C48.5156 75.2411 54.6904 74.9853 58.2265 77.0266L101.613 102.076C105.149 104.117 104.705 107.682 100.623 110.039L59.5671 133.743C55.4844 136.1 49.3096 136.356 45.7735 134.314Z" fill="url(#paint1_linear_1355_2640)"/>
<path d="M46.6265 115.351L9.19029 93.7371C6.14009 91.9759 6.52176 88.8997 10.0453 86.8659L45.4685 66.4128C48.9908 64.3793 54.3216 64.1582 57.3698 65.9194L94.8072 87.5336C97.8574 89.2948 97.4757 92.371 93.9522 94.4048L58.5278 114.858C55.0055 116.891 49.6747 117.113 46.6265 115.351Z" fill="url(#paint2_linear_1355_2640)"/>
<path d="M47.7967 106.787L18.4963 89.8712C16.1091 88.4941 16.4086 86.0852 19.1652 84.4928L46.8917 68.4848C49.6484 66.8932 53.8188 66.7197 56.2071 68.0992L85.5075 85.0154C87.8947 86.3925 87.5952 88.8014 84.8386 90.3937L57.1121 106.401C54.3555 107.993 50.185 108.167 47.7967 106.787Z" fill="#E4EBED"/>
<path d="M87.1144 80.9961H16.9609V87.4455H87.1144V80.9961Z" fill="#E4EBED"/>
<path d="M47.7967 100.342L18.4963 83.4259C16.1091 82.0487 16.4086 79.6399 19.1652 78.0475L46.8917 62.0395C49.6484 60.4479 53.8188 60.2744 56.2071 61.6539L85.5075 78.57C87.8947 79.9472 87.5952 82.356 84.8386 83.9484L57.1121 99.9561C54.3555 101.548 50.1847 101.721 47.7967 100.342Z" fill="#F8FCFF"/>
<path d="M47.7967 100.342L18.4963 83.4259C16.1091 82.0487 16.4086 79.6399 19.1652 78.0475L46.8917 62.0395C49.6484 60.4479 53.8188 60.2744 56.2071 61.6539L85.5075 78.57C87.8947 79.9472 87.5952 82.356 84.8386 83.9484L57.1121 99.9561C54.3555 101.548 50.1847 101.721 47.7967 100.342Z" fill="url(#paint3_radial_1355_2640)"/>
<path d="M47.7967 95.9593L18.4963 79.0431C16.1091 77.6659 16.4086 75.2571 19.1652 73.6647L46.8917 57.6567C49.6484 56.0651 53.8188 55.8915 56.2071 57.2711L85.5075 74.1872C87.8947 75.5644 87.5952 77.9732 84.8386 79.5656L57.1121 95.5733C54.3555 97.1649 50.1847 97.3384 47.7967 95.9593Z" fill="#E4EBED"/>
<path d="M87.1144 70.1641H16.9609V76.6135H87.1144V70.1641Z" fill="#E4EBED"/>
<path d="M51.6973 50.1377C53.3545 50.069 54.9467 50.3675 56.0908 51.0283L85.3906 67.9443C86.5285 68.6007 86.9762 69.4673 86.8701 70.3213C86.7616 71.1936 86.0666 72.1411 84.7217 72.918L56.9951 88.9258C55.655 89.6994 53.9616 90.1335 52.3066 90.2021C50.6493 90.2709 49.057 89.9722 47.9131 89.3115L18.6133 72.3955C17.4755 71.7391 17.0278 70.8725 17.1338 70.0186C17.2423 69.1463 17.9373 68.1988 19.2822 67.4219L47.0088 51.4131C48.3489 50.6395 50.0424 50.2063 51.6973 50.1377Z" fill="#F8FCFF" stroke="#E6E6E6" stroke-width="0.466858"/>
<path opacity="0.64" d="M32.7335 66.383H32.6816V0H71.3183V66.383H71.2674C70.5438 71.5296 62.1927 75.5889 51.9993 75.5889C41.8059 75.5889 33.4571 71.5296 32.7335 66.383Z" fill="url(#paint4_linear_1355_2640)"/>
<path d="M51.8777 27.9703C52.7562 27.9703 53.4683 27.2581 53.4683 26.3797C53.4683 25.5012 52.7562 24.7891 51.8777 24.7891C50.9992 24.7891 50.2871 25.5012 50.2871 26.3797C50.2871 27.2581 50.9992 27.9703 51.8777 27.9703Z" fill="black"/>
<path d="M59.6344 20.5859H44.1225C43.9435 20.5862 43.772 20.6575 43.6454 20.7841C43.5188 20.9106 43.4476 21.0822 43.4473 21.2612V31.493C43.4471 31.6724 43.518 31.8446 43.6447 31.9717C43.7713 32.0988 43.9431 32.1705 44.1225 32.171H59.6344C59.8139 32.1705 59.9858 32.0988 60.1124 31.9716C60.239 31.8444 60.31 31.6721 60.3097 31.4926V21.2612C60.3094 21.0822 60.2381 20.9106 60.1115 20.7841C59.985 20.6575 59.8134 20.5862 59.6344 20.5859ZM55.578 26.7946C55.5781 26.8276 55.5671 26.8597 55.5468 26.8857C55.5265 26.9117 55.498 26.9302 55.466 26.9382L54.7166 27.1256C54.6467 27.3918 54.5394 27.6467 54.3981 27.8828L54.7915 28.5386C54.8085 28.5669 54.8155 28.6 54.8115 28.6328C54.8075 28.6655 54.7926 28.696 54.7693 28.7193L54.2002 29.2884C54.1768 29.3117 54.1464 29.3266 54.1136 29.3306C54.0809 29.3347 54.0477 29.3276 54.0194 29.3107L53.3559 28.9129C53.1184 29.0524 52.8624 29.1575 52.5955 29.2252L52.4097 29.9668C52.4017 29.9988 52.3832 30.0273 52.3572 30.0476C52.3311 30.0679 52.2991 30.0789 52.2661 30.0788H51.4624C51.4294 30.0789 51.3973 30.0679 51.3713 30.0476C51.3452 30.0273 51.3267 29.9988 51.3187 29.9668L51.131 29.2174C50.8649 29.1474 50.6101 29.0402 50.3741 28.8989L49.7199 29.2915C49.6916 29.3085 49.6585 29.3155 49.6257 29.3115C49.593 29.3075 49.5625 29.2926 49.5392 29.2693L48.9701 28.7002C48.9468 28.6769 48.9319 28.6464 48.9279 28.6137C48.9238 28.5809 48.9309 28.5478 48.9478 28.5195L49.3452 27.8559C49.2057 27.6185 49.1006 27.3625 49.0329 27.0955L48.2913 26.9097C48.2593 26.9017 48.2309 26.8832 48.2106 26.8572C48.1903 26.8312 48.1792 26.7991 48.1793 26.7661V25.9624C48.1792 25.9294 48.1903 25.8973 48.2106 25.8713C48.2309 25.8453 48.2593 25.8268 48.2913 25.8187L49.0407 25.631C49.1107 25.3648 49.2179 25.1099 49.3593 24.8737L48.9658 24.218C48.9488 24.1897 48.9418 24.1565 48.9458 24.1238C48.9499 24.0911 48.9647 24.0606 48.988 24.0373L49.5568 23.4666C49.5801 23.4433 49.6106 23.4284 49.6433 23.4244C49.676 23.4203 49.7092 23.4274 49.7375 23.4443L50.4011 23.8417C50.6385 23.7022 50.8945 23.5971 51.1614 23.5294L51.3468 22.7878C51.3548 22.7558 51.3733 22.7274 51.3994 22.7071C51.4254 22.6868 51.4575 22.6758 51.4905 22.6758H52.2961C52.3291 22.6758 52.3612 22.6868 52.3872 22.7071C52.4133 22.7274 52.4318 22.7558 52.4398 22.7878L52.6275 23.5372C52.8937 23.6072 53.1486 23.7144 53.3848 23.8558L54.0405 23.4623C54.0688 23.4453 54.102 23.4383 54.1347 23.4423C54.1675 23.4464 54.1979 23.4612 54.2212 23.4846L54.7904 24.0537C54.8137 24.077 54.8285 24.1074 54.8326 24.1402C54.8366 24.1729 54.8296 24.2061 54.8126 24.2344L54.4152 24.8979C54.5547 25.1354 54.6598 25.3914 54.7275 25.6583L55.4691 25.8441C55.5012 25.8521 55.5296 25.8706 55.5499 25.8967C55.5702 25.9227 55.5812 25.9548 55.5812 25.9878L55.578 26.7946Z" fill="black"/>
<path d="M60.3097 19.7388V20.1483C60.1068 20.0229 59.8729 19.9568 59.6344 19.9574H44.1225C43.884 19.9568 43.6501 20.0229 43.4473 20.1483V18.519C43.4475 18.3451 43.5167 18.1783 43.6398 18.0553C43.7629 17.9323 43.9298 17.8633 44.1038 17.8633H48.7741C48.8676 17.8641 48.9599 17.8846 49.045 17.9234C49.1301 17.9622 49.206 18.0184 49.2679 18.0885L50.0369 18.9703C50.0672 19.006 50.1051 19.0347 50.1478 19.0541C50.1906 19.0735 50.237 19.0833 50.284 19.0827H59.652C59.7382 19.0827 59.8235 19.0997 59.9032 19.1327C59.9829 19.1657 60.0552 19.214 60.1162 19.275C60.1772 19.3359 60.2255 19.4083 60.2585 19.488C60.2915 19.5676 60.3085 19.653 60.3085 19.7392L60.3097 19.7388Z" fill="black"/>
<defs>
<linearGradient id="paint0_linear_1355_2640" x1="7.93658" y1="86.1379" x2="76.5647" y2="120.219" gradientUnits="userSpaceOnUse">
<stop stop-color="#ECBB0B"/>
<stop offset="1" stop-color="#53AB46"/>
</linearGradient>
<linearGradient id="paint1_linear_1355_2640" x1="5.60229" y1="103.173" x2="66.2938" y2="130.951" gradientUnits="userSpaceOnUse">
<stop stop-color="#ECBB0B"/>
<stop offset="1" stop-color="#4EAB49"/>
</linearGradient>
<linearGradient id="paint2_linear_1355_2640" x1="16.8063" y1="80.5307" x2="98.7398" y2="103.173" gradientUnits="userSpaceOnUse">
<stop stop-color="#ECBB0B"/>
<stop offset="1" stop-color="#40A94E"/>
</linearGradient>
<radialGradient id="paint3_radial_1355_2640" cx="0" cy="0" r="1" gradientUnits="userSpaceOnUse" gradientTransform="translate(8.2395 16.3048) scale(28.6513 18.0615)">
<stop stop-color="#34A853"/>
<stop offset="1" stop-color="white"/>
</radialGradient>
<linearGradient id="paint4_linear_1355_2640" x1="52" y1="-2.69892e-09" x2="51.8228" y2="81.2333" gradientUnits="userSpaceOnUse">
<stop stop-color="#ECBB0B" stop-opacity="0"/>
<stop offset="0.464996" stop-color="#FFF372" stop-opacity="0.258208"/>
<stop offset="1" stop-color="#5BAC44"/>
</linearGradient>
</defs>
</svg>
