<svg width="103" height="135" viewBox="0 0 103 135" fill="none" xmlns="http://www.w3.org/2000/svg">
<path opacity="0.2" d="M45.3333 125.387L2.36387 100.579C-1.13788 98.5568 -0.698313 95.0262 3.3451 92.6916L44.0057 69.2163C48.0491 66.8817 54.1645 66.6284 57.6666 68.6501L100.636 93.4585C104.138 95.4802 103.698 99.0108 99.6553 101.345L58.9943 124.821C54.9509 127.155 48.8355 127.409 45.3333 125.387Z" fill="url(#paint0_linear_1355_2666)"/>
<path opacity="0.1" d="M45.3333 133.028L2.36387 108.219C-1.13788 106.197 -0.698313 102.667 3.3451 100.332L44.0057 76.857C48.0491 74.5223 54.1645 74.269 57.6666 76.2907L100.636 101.099C104.138 103.121 103.698 106.651 99.6553 108.986L58.9943 132.461C54.9509 134.796 48.8355 135.049 45.3333 133.028Z" fill="url(#paint1_linear_1355_2666)"/>
<path d="M46.1803 114.247L9.10408 92.841C6.08321 91.0967 6.46121 88.0502 9.95087 86.0359L45.0334 65.7794C48.5219 63.7655 53.8014 63.5465 56.8204 65.2907L93.8977 86.6971C96.9186 88.4414 96.5406 91.488 93.0509 93.5023L57.9672 113.759C54.4787 115.773 49.1992 115.992 46.1803 114.247Z" fill="url(#paint2_linear_1355_2666)"/>
<path d="M47.3373 105.758L18.3187 89.0045C15.9545 87.6406 16.251 85.2549 18.9812 83.6778L46.441 67.8237C49.1712 66.2474 53.3015 66.0755 55.6669 67.4418L84.6855 84.1953C87.0498 85.5592 86.7532 87.9449 84.0231 89.522L56.5632 105.376C53.8331 106.952 49.7027 107.124 47.3373 105.758Z" fill="#E4EBED"/>
<path d="M86.2757 80.2148H16.7969V86.6022H86.2757V80.2148Z" fill="#E4EBED"/>
<path d="M47.3373 99.3791L18.3187 82.6256C15.9545 81.2617 16.251 78.876 18.9812 77.2989L46.441 61.4448C49.1712 59.8685 53.3015 59.6966 55.6669 61.0629L84.6855 77.8164C87.0498 79.1803 86.7532 81.566 84.0231 83.1431L56.5632 98.9968C53.8331 100.573 49.7023 100.745 47.3373 99.3791Z" fill="#F8FCFF"/>
<path d="M47.3373 99.3791L18.3187 82.6256C15.9545 81.2617 16.251 78.876 18.9812 77.2989L46.441 61.4448C49.1712 59.8685 53.3015 59.6966 55.6669 61.0629L84.6855 77.8164C87.0498 79.1803 86.7532 81.566 84.0231 83.1431L56.5632 98.9968C53.8331 100.573 49.7023 100.745 47.3373 99.3791Z" fill="url(#paint3_radial_1355_2666)"/>
<path d="M47.3373 95.0393L18.3187 78.2857C15.9545 76.9218 16.251 74.5361 18.9812 72.9591L46.441 57.1049C49.1712 55.5286 53.3015 55.3568 55.6669 56.723L84.6855 73.4766C87.0498 74.8405 86.7532 77.2262 84.0231 78.8032L56.5632 94.657C53.8331 96.2333 49.7023 96.4051 47.3373 95.0393Z" fill="#E4EBED"/>
<path d="M86.2757 69.4922H16.7969V75.8796H86.2757V69.4922Z" fill="#E4EBED"/>
<path d="M51.2002 49.6553C52.8415 49.5872 54.4186 49.8816 55.5518 50.5361L84.5703 67.29C85.6971 67.9401 86.1403 68.7988 86.0352 69.6445C85.9277 70.5084 85.2392 71.4464 83.9072 72.2158L56.4473 88.0703C55.1201 88.8365 53.4427 89.266 51.8037 89.334C50.1624 89.4021 48.5861 89.1064 47.4531 88.4521L18.4346 71.6992C17.3076 71.0491 16.8636 70.1896 16.9688 69.3438C17.0763 68.48 17.7649 67.5418 19.0967 66.7725L46.5566 50.918C47.8838 50.1518 49.5612 49.7233 51.2002 49.6553Z" fill="#F8FCFF" stroke="#E6E6E6" stroke-width="0.462369"/>
<path opacity="0.64" d="M32.4185 65.7447H32.3672V0H70.6324V65.7447H70.582C69.8653 70.8418 61.5944 74.8621 51.4991 74.8621C41.4037 74.8621 33.1352 70.8418 32.4185 65.7447Z" fill="url(#paint4_linear_1355_2666)"/>
<path d="M46.9119 17.0597L45.2544 15.4022C45.0254 15.1732 44.6545 15.1732 44.4256 15.4022C44.1967 15.6311 44.1967 16.002 44.4256 16.2309L46.0831 17.8885C46.3121 18.1174 46.683 18.1174 46.9119 17.8885C47.1408 17.6595 47.1408 17.2886 46.9119 17.0597Z" fill="black"/>
<path d="M44.4363 21.8633H42.0529C41.7289 21.8633 41.4668 22.1254 41.4668 22.4494C41.4668 22.7733 41.7289 23.0355 42.0529 23.0355H44.4363C44.7603 23.0355 45.0224 22.7733 45.0224 22.4494C45.0224 22.1254 44.7603 21.8633 44.4363 21.8633Z" fill="black"/>
<path d="M60.8875 21.8633H58.5041C58.1801 21.8633 57.918 22.1254 57.918 22.4494C57.918 22.7733 58.1801 23.0355 58.5041 23.0355H60.8875C61.2114 23.0355 61.4736 22.7733 61.4736 22.4494C61.4736 22.1254 61.2114 21.8633 60.8875 21.8633Z" fill="black"/>
<path d="M58.5154 15.4022C58.2865 15.1732 57.9156 15.1732 57.6867 15.4022L56.0291 17.0597C55.8002 17.2886 55.8002 17.6595 56.0291 17.8885C56.258 18.1174 56.629 18.1174 56.8579 17.8885L58.5154 16.2309C58.7444 16.002 58.7444 15.6311 58.5154 15.4022Z" fill="black"/>
<path d="M51.4709 12.4453C51.1469 12.4453 50.8848 12.7075 50.8848 13.0314V15.4148C50.8848 15.7388 51.1469 16.0009 51.4709 16.0009C51.7948 16.0009 52.0569 15.7388 52.0569 15.4148V13.0314C52.0569 12.7075 51.7948 12.4453 51.4709 12.4453Z" fill="black"/>
<path d="M54.7533 18.3079C53.4757 17.2998 51.8229 16.9365 50.2053 17.3233C48.3298 17.757 46.8177 19.2457 46.3605 21.1095C45.9034 22.9849 46.4309 24.8838 47.7788 26.2084C48.2594 26.689 48.5408 27.4431 48.5408 28.2168V28.3457C48.5408 28.6739 48.7986 28.9318 49.1269 28.9318H53.8156C54.1438 28.9318 54.4017 28.6739 54.4017 28.3457V28.2168C54.4017 27.4548 54.6947 26.6773 55.2105 26.1732C56.1951 25.1769 56.746 23.8524 56.746 22.4458C56.746 20.8281 56.0193 19.316 54.7533 18.3079ZM51.4712 20.6875C50.587 20.6875 49.9433 21.274 49.7748 21.953C49.6981 22.2618 49.3874 22.4588 49.0645 22.3811C48.7508 22.3033 48.5591 21.985 48.6369 21.6714C48.9273 20.4992 50.0283 19.5153 51.4712 19.5153C51.7952 19.5153 52.0573 19.7774 52.0573 20.1014C52.0573 20.4253 51.7952 20.6875 51.4712 20.6875Z" fill="black"/>
<path d="M49.125 30.1055V30.6916C49.125 31.6611 49.9137 32.4498 50.8833 32.4498H52.0554C53.025 32.4498 53.8137 31.6611 53.8137 30.6916V30.1055H49.125Z" fill="black"/>
<defs>
<linearGradient id="paint0_linear_1355_2666" x1="7.86027" y1="85.3067" x2="75.8285" y2="119.06" gradientUnits="userSpaceOnUse">
<stop stop-color="#ECBB0B"/>
<stop offset="1" stop-color="#53AB46"/>
</linearGradient>
<linearGradient id="paint1_linear_1355_2666" x1="5.54843" y1="102.186" x2="65.6564" y2="129.697" gradientUnits="userSpaceOnUse">
<stop stop-color="#ECBB0B"/>
<stop offset="1" stop-color="#4EAB49"/>
</linearGradient>
<linearGradient id="paint2_linear_1355_2666" x1="16.6469" y1="79.7616" x2="97.7926" y2="102.186" gradientUnits="userSpaceOnUse">
<stop stop-color="#ECBB0B"/>
<stop offset="1" stop-color="#40A94E"/>
</linearGradient>
<radialGradient id="paint3_radial_1355_2666" cx="0" cy="0" r="1" gradientUnits="userSpaceOnUse" gradientTransform="translate(8.16052 16.1499) scale(28.3758 17.8878)">
<stop stop-color="#34A853"/>
<stop offset="1" stop-color="white"/>
</radialGradient>
<linearGradient id="paint4_linear_1355_2666" x1="51.4998" y1="-2.67297e-09" x2="51.3243" y2="80.4522" gradientUnits="userSpaceOnUse">
<stop stop-color="#ECBB0B" stop-opacity="0"/>
<stop offset="0.464996" stop-color="#FFF372" stop-opacity="0.258208"/>
<stop offset="1" stop-color="#5BAC44"/>
</linearGradient>
</defs>
</svg>
