<svg width="62" height="38" viewBox="0 0 62 38" fill="none" xmlns="http://www.w3.org/2000/svg">
<rect x="1.94278" y="35.1909" width="33.2672" height="33.2672" transform="rotate(-90 1.94278 35.1909)" stroke="white" stroke-width="0.698059"/>
<rect x="1.94278" y="35.1909" width="33.2672" height="33.2672" transform="rotate(-90 1.94278 35.1909)" stroke="white" stroke-width="0.698059"/>
<rect x="1.62837e-06" y="37.2529" width="3.97942" height="3.97942" transform="rotate(-90 1.62837e-06 37.2529)" fill="white"/>
<rect x="33.0059" y="37.2529" width="3.97942" height="3.97942" transform="rotate(-90 33.0059 37.2529)" fill="white"/>
<rect x="1.62837e-06" y="3.97942" width="3.97942" height="3.97942" transform="rotate(-90 1.62837e-06 3.97942)" fill="white"/>
<rect x="33.0059" y="3.97942" width="3.97942" height="3.97942" transform="rotate(-90 33.0059 3.97942)" fill="white"/>
<path d="M57.9484 18.2079C57.9484 19.236 58.7819 20.0694 59.8099 20.0694C60.838 20.0694 61.6714 19.236 61.6714 18.2079C61.6714 17.1799 60.838 16.3464 59.8099 16.3464C58.7819 16.3464 57.9484 17.1799 57.9484 18.2079ZM34.9961 18.2079L34.9961 18.557L59.8099 18.557L59.8099 18.2079L59.8099 17.8589L34.9961 17.8589L34.9961 18.2079Z" fill="white"/>
<circle cx="18.5766" cy="18.2095" r="6.51602" transform="rotate(-90 18.5766 18.2095)" fill="white"/>
</svg>
