<svg width="62" height="1462" viewBox="0 0 62 1462" fill="none" xmlns="http://www.w3.org/2000/svg">
<path d="M18.2276 8L18.2275 228.998L18.2277 343.002V401.122L18.2275 533.011" stroke="url(#paint0_linear_700_889)" stroke-width="16" stroke-linecap="round"/>
<path d="M18.2276 8L18.2275 228.998L18.2277 343.002V401.122L18.2275 533.011" stroke="url(#paint1_linear_700_889)" stroke-width="16" stroke-linecap="round"/>
<path d="M26.2275 122.996V114.996H10.2275V122.996L18.2275 122.996L26.2275 122.996ZM18.2275 228.997H10.2275V228.997L18.2275 228.997ZM18.2277 343.001H26.2277V343.001L18.2277 343.001ZM10.2277 1453.09C10.2277 1457.51 13.8094 1461.09 18.2277 1461.09C22.646 1461.09 26.2277 1457.51 26.2277 1453.09H18.2277H10.2277ZM18.2275 122.996L10.2275 122.996V228.997H18.2275H26.2275V122.996L18.2275 122.996ZM18.2275 228.997L10.2275 228.997L10.2277 343.001L18.2277 343.001L26.2277 343.001L26.2275 228.997L18.2275 228.997ZM18.2277 343.001H10.2277V401.122H18.2277H26.2277V343.001H18.2277ZM18.2277 401.122H10.2277V1453.09H18.2277H26.2277V401.122H18.2277Z" fill="#525252"/>
<rect x="1.94278" y="48.7623" width="33.2672" height="33.2672" transform="rotate(-90 1.94278 48.7623)" stroke="white" stroke-width="0.698059"/>
<rect x="1.94278" y="48.7623" width="33.2672" height="33.2672" transform="rotate(-90 1.94278 48.7623)" stroke="white" stroke-width="0.698059"/>
<rect y="50.8242" width="3.97942" height="3.97942" transform="rotate(-90 0 50.8242)" fill="white"/>
<rect x="33.0059" y="50.8242" width="3.97942" height="3.97942" transform="rotate(-90 33.0059 50.8242)" fill="white"/>
<rect y="17.5508" width="3.97942" height="3.97942" transform="rotate(-90 0 17.5508)" fill="white"/>
<rect x="33.0059" y="17.5508" width="3.97942" height="3.97942" transform="rotate(-90 33.0059 17.5508)" fill="white"/>
<path d="M57.9484 31.7793C57.9484 32.8074 58.7819 33.6408 59.8099 33.6408C60.838 33.6408 61.6714 32.8074 61.6714 31.7793C61.6714 30.7512 60.838 29.9178 59.8099 29.9178C58.7819 29.9178 57.9484 30.7512 57.9484 31.7793ZM34.9961 31.7793L34.9961 32.1283L59.8099 32.1283L59.8099 31.7793L59.8099 31.4303L34.9961 31.4303L34.9961 31.7793Z" fill="white"/>
<rect x="1.94278" y="1244.47" width="33.2672" height="33.2672" transform="rotate(-90 1.94278 1244.47)" stroke="white" stroke-width="0.698059"/>
<rect x="1.94278" y="1244.47" width="33.2672" height="33.2672" transform="rotate(-90 1.94278 1244.47)" stroke="white" stroke-width="0.698059"/>
<rect y="1246.53" width="3.97942" height="3.97942" transform="rotate(-90 0 1246.53)" fill="white"/>
<rect x="33.0059" y="1246.53" width="3.97942" height="3.97942" transform="rotate(-90 33.0059 1246.53)" fill="white"/>
<rect y="1213.26" width="3.97942" height="3.97942" transform="rotate(-90 0 1213.26)" fill="white"/>
<rect x="33.0059" y="1213.26" width="3.97942" height="3.97942" transform="rotate(-90 33.0059 1213.26)" fill="white"/>
<path d="M57.9484 1227.49C57.9484 1228.51 58.7819 1229.35 59.8099 1229.35C60.838 1229.35 61.6714 1228.51 61.6714 1227.49C61.6714 1226.46 60.838 1225.62 59.8099 1225.62C58.7819 1225.62 57.9484 1226.46 57.9484 1227.49ZM34.9961 1227.49L34.9961 1227.84L59.8099 1227.84L59.8099 1227.49L59.8099 1227.14L34.9961 1227.14L34.9961 1227.49Z" fill="white"/>
<circle cx="18.5766" cy="1227.49" r="6.51602" transform="rotate(-90 18.5766 1227.49)" fill="white"/>
<rect x="1.94278" y="1322.32" width="33.2672" height="33.2672" transform="rotate(-90 1.94278 1322.32)" stroke="white" stroke-width="0.698059"/>
<rect x="1.94278" y="1322.32" width="33.2672" height="33.2672" transform="rotate(-90 1.94278 1322.32)" stroke="white" stroke-width="0.698059"/>
<rect y="1324.38" width="3.97942" height="3.97942" transform="rotate(-90 0 1324.38)" fill="white"/>
<rect x="33.0059" y="1324.38" width="3.97942" height="3.97942" transform="rotate(-90 33.0059 1324.38)" fill="white"/>
<rect y="1291.11" width="3.97942" height="3.97942" transform="rotate(-90 0 1291.11)" fill="white"/>
<rect x="33.0059" y="1291.11" width="3.97942" height="3.97942" transform="rotate(-90 33.0059 1291.11)" fill="white"/>
<path d="M57.9484 1305.33C57.9484 1306.36 58.7819 1307.2 59.8099 1307.2C60.838 1307.2 61.6714 1306.36 61.6714 1305.33C61.6714 1304.31 60.838 1303.47 59.8099 1303.47C58.7819 1303.47 57.9484 1304.31 57.9484 1305.33ZM34.9961 1305.33L34.9961 1305.68L59.8099 1305.68L59.8099 1305.33L59.8099 1304.98L34.9961 1304.98L34.9961 1305.33Z" fill="white"/>
<circle cx="18.5766" cy="1305.34" r="6.51602" transform="rotate(-90 18.5766 1305.34)" fill="white"/>
<rect x="1.94278" y="1400.16" width="33.2672" height="33.2672" transform="rotate(-90 1.94278 1400.16)" stroke="white" stroke-width="0.698059"/>
<rect x="1.94278" y="1400.16" width="33.2672" height="33.2672" transform="rotate(-90 1.94278 1400.16)" stroke="white" stroke-width="0.698059"/>
<rect y="1402.22" width="3.97942" height="3.97942" transform="rotate(-90 0 1402.22)" fill="white"/>
<rect x="33.0059" y="1402.22" width="3.97942" height="3.97942" transform="rotate(-90 33.0059 1402.22)" fill="white"/>
<rect y="1368.95" width="3.97942" height="3.97942" transform="rotate(-90 0 1368.95)" fill="white"/>
<rect x="33.0059" y="1368.95" width="3.97942" height="3.97942" transform="rotate(-90 33.0059 1368.95)" fill="white"/>
<path d="M57.9484 1383.18C57.9484 1384.21 58.7819 1385.04 59.8099 1385.04C60.838 1385.04 61.6714 1384.21 61.6714 1383.18C61.6714 1382.15 60.838 1381.32 59.8099 1381.32C58.7819 1381.32 57.9484 1382.15 57.9484 1383.18ZM34.9961 1383.18L34.9961 1383.53L59.8099 1383.53L59.8099 1383.18L59.8099 1382.83L34.9961 1382.83L34.9961 1383.18Z" fill="white"/>
<circle cx="18.5766" cy="1383.18" r="6.51602" transform="rotate(-90 18.5766 1383.18)" fill="white"/>
<defs>
<linearGradient id="paint0_linear_700_889" x1="18.2276" y1="166.684" x2="1139.25" y2="166.684" gradientUnits="userSpaceOnUse">
<stop stop-color="#EA4335"/>
<stop offset="0.504808" stop-color="#F09BBE"/>
<stop offset="1" stop-color="#F4C95E"/>
</linearGradient>
<linearGradient id="paint1_linear_700_889" x1="18.2276" y1="7.99897" x2="1093.94" y2="7.99993" gradientUnits="userSpaceOnUse">
<stop stop-color="#FBBC04"/>
<stop offset="0.15" stop-color="#EA4335"/>
</linearGradient>
</defs>
</svg>
