<svg width="38" height="62" viewBox="0 0 38 62" fill="none" xmlns="http://www.w3.org/2000/svg">
<rect x="2.06094" y="1.94278" width="33.2672" height="33.2672" stroke="white" stroke-width="0.698059"/>
<rect x="2.06094" y="1.94278" width="33.2672" height="33.2672" stroke="white" stroke-width="0.698059"/>
<rect width="3.97942" height="3.97942" fill="white"/>
<rect y="33.0059" width="3.97942" height="3.97942" fill="white"/>
<rect x="33.2734" width="3.97942" height="3.97942" fill="white"/>
<rect x="33.2734" y="33.0059" width="3.97942" height="3.97942" fill="white"/>
<path d="M19.0439 57.9484C18.0159 57.9484 17.1825 58.7819 17.1825 59.8099C17.1825 60.838 18.0159 61.6714 19.0439 61.6714C20.072 61.6714 20.9054 60.838 20.9054 59.8099C20.9054 58.7819 20.072 57.9484 19.0439 57.9484ZM19.0439 34.9961L18.6949 34.9961L18.6949 59.8099L19.0439 59.8099L19.393 59.8099L19.393 34.9961L19.0439 34.9961Z" fill="white"/>
<circle cx="19.0424" cy="18.5766" r="6.51602" fill="white"/>
</svg>
