<svg width="95" height="94" viewBox="0 0 95 94" fill="none" xmlns="http://www.w3.org/2000/svg">
<rect width="94.3457" height="93.1399" rx="18" fill="url(#paint0_linear_809_897)"/>
<path d="M61.2553 30.6659C61.2848 29.2945 61.2313 28.4326 61.2313 28.4326L47.2434 28.4258H47.1021L33.1094 28.4326C33.1094 28.4326 33.0573 29.2973 33.0868 30.6659H23.8267V32.1264C23.8267 32.4596 23.8849 40.3279 28.9631 44.6381C31.1724 46.4661 33.9719 47.427 36.8382 47.341C37.314 47.341 37.7906 47.3108 38.2843 47.2724C39.8112 49.4215 41.9373 51.0732 44.3971 52.0215V58.4395H37.6466V62.4596H35.4174V64.7141H58.9363V62.4576H56.6983V58.4374H49.9477V52.0208C52.4073 51.0721 54.5333 49.4204 56.0606 47.2718C56.5543 47.3129 57.0391 47.3403 57.5101 47.3403C60.3759 47.4254 63.1745 46.4641 65.3831 44.636C70.4572 40.3258 70.5196 32.459 70.5196 32.1244V30.6659H61.2553ZM31.001 42.4596C28.1005 40.0056 27.2434 35.7982 26.989 33.5883H33.2671C33.5163 36.7712 34.3046 39.8886 35.5985 42.8073C35.8624 43.3613 36.1401 43.8872 36.4213 44.4015C34.4458 44.3919 32.5331 43.7067 31.001 42.4596ZM63.3453 42.4596C61.8129 43.7086 59.8984 44.3943 57.9215 44.4022C58.2047 43.8893 58.4831 43.362 58.7443 42.808C60.039 39.8895 60.8274 36.772 61.0757 33.589H67.3538C67.1035 35.8024 66.2485 40.0035 63.3453 42.4596Z" fill="white"/>
<defs>
<linearGradient id="paint0_linear_809_897" x1="3.74542" y1="5.8672" x2="68.9721" y2="96.3931" gradientUnits="userSpaceOnUse">
<stop stop-color="#EA4335"/>
<stop offset="1" stop-color="#F09BBE"/>
</linearGradient>
</defs>
</svg>
