<svg width="95" height="94" viewBox="0 0 95 94" fill="none" xmlns="http://www.w3.org/2000/svg">
<rect width="94.3457" height="93.1399" rx="18" fill="url(#paint0_linear_281_1763)"/>
<path d="M69.1963 40.1222C68.9118 30.0289 60.8519 21.5792 50.7797 20.8628C39.6118 20.0726 30.2349 28.5223 29.5185 39.3425L29.4658 39.8904C29.4658 41.692 28.7915 44.484 27.9592 46.0855C27.0847 47.7606 26.1681 49.4042 25.4201 50.5632C24.6826 51.7116 25.5044 53.2077 26.8635 53.2077H29.4658V62.7425C29.4658 64.6706 31.0251 66.2299 32.9532 66.2299H38.3896V71.0131C38.3896 71.9087 39.2852 72.5514 40.1386 72.2564L63.0118 64.4704C63.8125 64.1965 64.3498 63.4484 64.3498 62.6056V53.6712C67.479 50.0574 69.3333 45.3163 69.1963 40.1222ZM63.5807 40.6384V41.966C63.5807 42.4611 63.2225 42.8826 62.7379 42.9669L60.0828 43.4304C59.83 44.4313 59.4401 45.3901 58.9028 46.3067L60.4727 48.4982C60.7677 48.909 60.715 49.4674 60.3673 49.8151L59.4296 50.7633L58.4919 51.7116C58.1337 52.0698 57.5858 52.1119 57.175 51.8275L54.9624 50.2576C54.088 50.7739 53.1397 51.1742 52.1705 51.4271L51.7279 54.1032C51.6437 54.5984 51.2222 54.9566 50.727 54.9566H49.3995H48.072C47.5768 54.9566 47.1554 54.5984 47.0711 54.1137L46.6181 51.4798C45.6277 51.2269 44.6584 50.8476 43.7418 50.3208L41.5293 51.9012C41.1184 52.1962 40.56 52.1435 40.2123 51.7959L39.2641 50.8582L38.3264 49.931C37.9682 49.5728 37.9261 49.0249 38.2105 48.614L39.7487 46.4331C39.2009 45.5376 38.8005 44.5788 38.5371 43.5779L35.861 43.1354C35.3659 43.0511 35.0076 42.6297 35.0076 42.1345V40.807V39.4795C35.0076 38.9843 35.3659 38.5629 35.8505 38.4786L38.495 38.0572C38.7478 37.0668 39.1271 36.0975 39.6539 35.1809L38.0736 32.9684C37.7786 32.5575 37.8312 31.9991 38.1789 31.6514L39.1166 30.7032L40.0543 29.755C40.4125 29.3968 40.9604 29.3546 41.3713 29.6391L43.5522 31.1773C44.4793 30.6084 45.4591 30.1975 46.4811 29.9341L46.9236 27.2791C47.0079 26.7839 47.4293 26.4257 47.9245 26.4257H49.252H50.5795C51.0747 26.4257 51.4962 26.7839 51.5804 27.2685L52.044 29.9235C53.0449 30.1764 54.0037 30.5662 54.9203 31.1035L57.1117 29.5337C57.5121 29.2493 58.06 29.2914 58.4182 29.618L59.3664 30.5557L60.3146 31.4934C60.6728 31.8516 60.715 32.3995 60.4305 32.8103L58.8712 35.0018C59.4085 35.9079 59.8089 36.8666 60.0723 37.8675L62.7273 38.31C63.2225 38.3943 63.5807 38.8158 63.5807 39.3109V40.6384Z" fill="white"/>
<path d="M53.8308 39.7083L49.49 34.4087C49.3425 34.2296 49.0791 34.2296 48.9422 34.4087L44.6014 39.7083C44.4434 39.8874 44.5803 40.1718 44.8227 40.1718H47.0773V46.1035C47.0773 46.3563 47.288 46.5671 47.5409 46.5671H50.8913C51.1441 46.5671 51.3548 46.3563 51.3548 46.1035V40.1718H53.6095C53.8518 40.1718 53.9783 39.8874 53.8308 39.7083Z" fill="white"/>
<defs>
<linearGradient id="paint0_linear_281_1763" x1="3.74542" y1="5.8672" x2="68.9721" y2="96.3931" gradientUnits="userSpaceOnUse">
<stop stop-color="#EA4335"/>
<stop offset="1" stop-color="#F09BBE"/>
</linearGradient>
</defs>
</svg>
