<svg width="95" height="94" viewBox="0 0 95 94" fill="none" xmlns="http://www.w3.org/2000/svg">
<rect width="94.3457" height="93.1399" rx="18" fill="url(#paint0_linear_281_1670)"/>
<path d="M60.4167 66.5011L57.2772 64.4111L54.1437 66.5011C53.9663 66.6204 53.7597 66.689 53.5462 66.6994C53.3327 66.7098 53.1204 66.6617 52.9323 66.5602C52.7435 66.4599 52.5857 66.3098 52.476 66.1263C52.3663 65.9428 52.3088 65.7329 52.3097 65.5191V59.5287C53.6615 60.7819 55.4368 61.4782 57.2802 61.4782C59.1235 61.4782 60.8989 60.7819 62.2507 59.5287V65.5191C62.2517 65.733 62.1944 65.9431 62.0848 66.1268C61.9752 66.3105 61.8175 66.4608 61.6287 66.5614C61.4406 66.6629 61.2283 66.711 61.0148 66.7006C60.8013 66.6902 60.5947 66.6216 60.4173 66.5023L60.4167 66.5011ZM52.3097 54.1496C52.3086 52.9984 52.7067 51.8825 53.4363 50.992C54.1659 50.1015 55.1818 49.4916 56.3107 49.2663C57.4397 49.041 58.6118 49.2143 59.6273 49.7565C60.6429 50.2987 61.4389 51.1763 61.8798 52.2398C62.3206 53.3032 62.379 54.4866 62.0449 55.5883C61.7109 56.69 61.0051 57.6417 60.0478 58.2812C59.0906 58.9207 57.9412 59.2085 56.7956 59.0954C55.6499 58.9823 54.579 58.4753 53.7653 57.661C52.8348 56.7291 52.3114 55.4665 52.3097 54.1496ZM31.377 59.116C30.2287 59.1127 29.1283 58.6553 28.316 57.8436C27.5037 57.0319 27.0456 55.9318 27.0415 54.7834V30.7734C27.0454 29.6248 27.5034 28.5244 28.3157 27.7122C29.1279 26.9001 30.2284 26.4422 31.377 26.4385H62.9673C64.1165 26.4407 65.2181 26.898 66.031 27.7104C66.8438 28.5228 67.3018 29.6242 67.3046 30.7734V54.7834C67.3029 55.6441 67.0458 56.4849 66.5658 57.1994C66.0859 57.9138 65.4047 58.4697 64.6085 58.7967V54.1532C64.6085 52.2088 63.8361 50.344 62.4613 48.9692C61.0864 47.5943 59.2216 46.8219 57.2772 46.8219C55.3328 46.8219 53.4681 47.5943 52.0932 48.9692C50.7183 50.344 49.9459 52.2088 49.9459 54.1532V59.1195L31.377 59.116ZM32.0912 51.6209C32.092 51.934 32.2169 52.234 32.4386 52.4551C32.6603 52.6763 32.9606 52.8004 33.2737 52.8004H46.0793C46.3874 52.7935 46.6807 52.6663 46.8962 52.4459C47.1117 52.2255 47.2324 51.9295 47.2324 51.6212C47.2324 51.313 47.1117 51.017 46.8962 50.7966C46.6807 50.5762 46.3874 50.4489 46.0793 50.442H33.2725C33.1174 50.4416 32.9637 50.4718 32.8202 50.5309C32.6768 50.59 32.5464 50.6769 32.4366 50.7864C32.3267 50.896 32.2396 51.0262 32.1801 51.1695C32.1207 51.3127 32.0901 51.4664 32.0901 51.6215L32.0912 51.6209ZM32.0912 42.8641C32.092 43.1772 32.2169 43.4773 32.4386 43.6984C32.6603 43.9195 32.9606 44.0437 33.2737 44.0437H61.0741C61.387 44.0437 61.687 43.9194 61.9082 43.6982C62.1294 43.477 62.2537 43.177 62.2537 42.8641C62.2537 42.5513 62.1294 42.2513 61.9082 42.0301C61.687 41.8089 61.387 41.6846 61.0741 41.6846H33.2725C33.117 41.6845 32.9629 41.7148 32.819 41.7739C32.6034 41.863 32.4191 42.0143 32.2896 42.2084C32.1601 42.4025 32.0907 42.6308 32.0912 42.8641ZM32.0912 37.8055C32.092 38.1186 32.2169 38.4187 32.4386 38.6398C32.6603 38.8609 32.9606 38.9851 33.2737 38.9851H61.0741C61.3823 38.9782 61.6755 38.8509 61.8911 38.6305C62.1066 38.4101 62.2272 38.1141 62.2272 37.8058C62.2272 37.4976 62.1066 37.2016 61.8911 36.9812C61.6755 36.7608 61.3823 36.6335 61.0741 36.6266H33.2725C33.1174 36.6262 32.9637 36.6565 32.8202 36.7156C32.6768 36.7747 32.5464 36.8615 32.4366 36.9711C32.3267 37.0806 32.2396 37.2108 32.1801 37.3541C32.1207 37.4974 32.0901 37.651 32.0901 37.8061L32.0912 37.8055ZM37.1516 32.7523C37.1511 32.907 37.1812 33.0604 37.2402 33.2035C37.2991 33.3466 37.3857 33.4767 37.495 33.5863C37.6043 33.6959 37.7342 33.7828 37.8771 33.8421C38.0201 33.9014 38.1734 33.9319 38.3282 33.9318H56.0179C56.173 33.9323 56.3267 33.9023 56.4701 33.8433C56.6136 33.7844 56.744 33.6977 56.8539 33.5883C57.0182 33.4228 57.1299 33.2123 57.1749 32.9835C57.22 32.7547 57.1963 32.5176 57.1069 32.3022C57.0176 32.0867 56.8665 31.9026 56.6727 31.7728C56.479 31.643 56.2511 31.5734 56.0179 31.5728H38.3264C38.1716 31.5728 38.0184 31.6033 37.8755 31.6626C37.7325 31.7219 37.6027 31.8088 37.4934 31.9184C37.3841 32.028 37.2975 32.158 37.2385 32.3011C37.1796 32.4442 37.1495 32.5975 37.1498 32.7523H37.1516Z" fill="white"/>
<defs>
<linearGradient id="paint0_linear_281_1670" x1="3.74542" y1="5.8672" x2="68.9721" y2="96.3931" gradientUnits="userSpaceOnUse">
<stop stop-color="#EA4335"/>
<stop offset="1" stop-color="#F09BBE"/>
</linearGradient>
</defs>
</svg>
