<svg width="95" height="94" viewBox="0 0 95 94" fill="none" xmlns="http://www.w3.org/2000/svg">
<rect width="94.3457" height="93.1399" rx="18" fill="white"/>
<rect width="94.3457" height="93.1399" rx="18" fill="url(#paint0_linear_281_1662)"/>
<path d="M52.0995 64.9962H34.2753C34.0392 64.9953 33.8092 64.9209 33.6173 64.7834C33.4271 64.6472 33.285 64.4541 33.2116 64.232L29.7039 53.4342C29.6499 53.2702 29.6361 53.0956 29.6639 52.9251C29.6916 52.7547 29.7599 52.5934 29.8632 52.455C29.9672 52.3152 30.1028 52.202 30.2589 52.1246C30.4159 52.0465 30.589 52.0061 30.7644 52.0066H42.129C42.3651 52.006 42.5955 52.0793 42.7878 52.2163C42.9792 52.3515 43.1223 52.5443 43.1963 52.7667L46.6591 63.4147H47.5571C47.4877 63.1635 47.4532 62.904 47.4546 62.6433C47.4658 62.3742 47.5303 62.11 47.6444 61.8659C47.7584 61.6219 47.9197 61.4029 48.1189 61.2216C48.5256 60.852 49.0603 60.6554 49.6096 60.6734L58.2714 60.6471C58.3611 60.6465 58.4497 60.6283 58.5323 60.5936C58.6147 60.559 58.6893 60.5084 58.752 60.4447C58.8142 60.3816 58.8631 60.3066 58.8958 60.2242C58.9283 60.1421 58.9437 60.0542 58.9412 59.966C58.9297 59.7921 58.8511 59.6294 58.722 59.5122C58.5911 59.3931 58.4198 59.3282 58.2428 59.3307H47.6197L50.0302 55.2503C50.262 54.8578 50.5928 54.5331 50.9895 54.3087C51.389 54.0825 51.8401 53.9633 52.2992 53.9629H57.5844C58.0753 53.9622 58.5605 54.0686 59.0061 54.2746C59.4492 54.4792 59.8416 54.779 60.1555 55.1527L64.2124 60.9611C64.4892 61.3399 64.6544 61.7886 64.6893 62.2564C64.7241 62.7242 64.6273 63.1925 64.4098 63.6081C64.1903 64.0262 63.8597 64.3757 63.4545 64.6182C63.0462 64.8629 62.5792 64.9923 62.1032 64.9926L52.0995 64.9962ZM44.4305 52.381C44.2855 51.9344 44.0108 51.541 43.6414 51.2511L43.7866 42.3442L38.5082 50.7283H33.8288L41.0984 38.5519C41.498 37.895 42.0087 37.3124 42.6077 36.8302C43.6839 37.7926 45.0779 38.3229 46.5216 38.3191C47.601 38.3187 48.6597 38.0232 49.5833 37.4646C50.5 36.911 51.2447 36.1133 51.7342 35.1608C52.6412 35.3354 53.504 35.6903 54.2713 36.2045L59.1141 39.4894C59.6222 39.8314 60.0046 40.33 60.2032 40.9093C60.3996 41.4857 60.3996 42.1109 60.2032 42.6872L59.395 45.0619C58.6362 44.1368 57.613 43.4655 56.4622 43.1379L56.4903 43.0544C56.5747 42.7914 56.5528 42.5059 56.4295 42.2589C56.3047 42.01 56.0894 41.8184 55.8278 41.7234L53.0937 40.7192L53.3892 43.0911C52.3682 43.3479 51.4353 43.8751 50.6887 44.6172C49.9483 45.3528 49.4242 46.2777 49.1735 47.2909C48.9247 48.3002 48.9604 49.3587 49.2765 50.3489C49.5952 51.3439 50.1805 52.2325 50.9687 52.9183C50.1027 53.2221 49.3711 53.8206 48.9017 54.6091L46.4966 58.6881C46.4965 58.6894 46.4962 58.6905 46.4957 58.6916C46.4951 58.6927 46.4944 58.6937 46.4934 58.6945C46.4917 58.696 46.4894 58.6968 46.4871 58.6968L44.4305 52.381ZM50.313 48.6395C50.3141 47.7581 50.5806 46.8975 51.0776 46.1696C51.5792 45.4356 52.2864 44.8662 53.1105 44.5328C53.9397 44.1963 54.8489 44.1087 55.7271 44.2805C56.6023 44.4505 57.4084 44.8737 58.0454 45.4975C58.6766 46.1156 59.1082 46.9086 59.2847 47.7742C59.4595 48.6368 59.3698 49.5322 59.0274 50.343C58.6821 51.1593 58.1018 51.8543 57.3602 52.3397C56.7379 52.7467 56.0262 52.9968 55.286 53.0685C54.5459 53.1401 53.7994 53.0313 53.1105 52.7513C52.5622 52.5286 52.0628 52.2009 51.6403 51.7865C51.2212 51.3743 50.888 50.8831 50.6601 50.3412C50.4324 49.8023 50.315 49.2232 50.3148 48.6382L50.313 48.6395ZM41.9974 32.5919C41.9983 31.7104 42.2646 30.8496 42.7615 30.1215C43.2629 29.3869 43.9702 28.8169 44.7945 28.4829C45.6237 28.1462 46.5331 28.0584 47.4115 28.2301C48.2868 28.4001 49.0931 28.8233 49.7303 29.4472C50.3616 30.0652 50.7934 30.8582 50.97 31.7238C51.145 32.5866 51.0555 33.4821 50.7132 34.2931C50.3678 35.1094 49.7875 35.8044 49.046 36.2898C48.4236 36.697 47.7118 36.9473 46.9714 37.0191C46.2311 37.091 45.4845 36.9823 44.7954 36.7023C44.2469 36.4797 43.7473 36.152 43.3247 35.7375C42.9049 35.3259 42.571 34.8351 42.3422 34.2936C42.1148 33.7551 41.9976 33.1765 41.9974 32.5919Z" fill="white"/>
<defs>
<linearGradient id="paint0_linear_281_1662" x1="3.74542" y1="5.8672" x2="68.9721" y2="96.3931" gradientUnits="userSpaceOnUse">
<stop stop-color="#EA4335"/>
<stop offset="1" stop-color="#FBBC04"/>
</linearGradient>
</defs>
</svg>
