<svg width="95" height="94" viewBox="0 0 95 94" fill="none" xmlns="http://www.w3.org/2000/svg">
<rect width="94.3457" height="93.1399" rx="18" fill="white"/>
<rect width="94.3457" height="93.1399" rx="18" fill="url(#paint0_linear_281_1676)"/>
<path fill-rule="evenodd" clip-rule="evenodd" d="M51.2016 21.6006C49.8768 21.6006 48.7862 22.6927 48.7862 24.0177C48.7862 25.0596 49.4643 25.9465 50.3971 26.2823V33.1785C50.3971 33.4635 50.4649 33.6761 50.6318 33.8612L55.4229 38.6542V43.1531H54.8165L53.3276 41.6642C53.4997 41.3327 53.608 40.9645 53.608 40.5684C53.608 39.2434 52.5159 38.1513 51.191 38.1513C49.8661 38.1513 48.7756 39.2434 48.7756 40.5684C48.7756 41.8934 49.8661 42.9855 51.191 42.9855C51.5355 42.9855 51.8624 42.9076 52.1603 42.7752L53.9127 44.5278C54.0638 44.679 54.2689 44.764 54.4827 44.764H56.1346L57.0337 46.5654V54.0955L55.2278 55.9014V53.0134C55.2278 52.7996 55.1429 52.5946 54.9916 52.4435L53.3732 50.825V50.8234C53.5245 50.5087 53.6156 50.1613 53.6156 49.7916C53.6156 48.4667 52.5234 47.3761 51.1986 47.3761C49.8737 47.3761 48.7832 48.4667 48.7832 49.7916C48.7832 51.1166 49.8737 52.2087 51.1986 52.2087C51.5684 52.2087 51.9171 52.1163 52.2319 51.9649C53.6157 53.3472 53.3464 53.0782 53.6157 53.3472V57.846V60.2631H55.2233V58.1828V58.1797L58.3866 55.0128C58.5474 54.8612 58.6389 54.6502 58.6396 54.4291V49.0707H60.7777C60.9912 49.0712 61.1963 48.9867 61.3477 48.836L63.8606 46.3199C64.1737 46.4695 64.5202 46.5607 64.8877 46.5607C66.2125 46.5607 67.3046 45.4686 67.3046 44.1436C67.3046 42.8186 66.2125 41.7281 64.8877 41.7281C63.5628 41.7281 62.4723 42.8186 62.4723 44.1436C62.4723 44.5167 62.5653 44.8676 62.7192 45.1845L60.4439 47.4598H58.6396V46.3749C58.6396 46.3575 58.6396 46.2073 58.5577 46.0152L57.3659 43.6316C57.3581 43.6141 57.3495 43.5968 57.3402 43.5798L57.0323 42.9626V38.3205H60.0848C60.2979 38.3201 60.5024 38.2351 60.6531 38.0842L62.1375 36.6014C62.4526 36.7531 62.8004 36.8468 63.1707 36.8468C64.4956 36.8468 65.5861 35.7546 65.5861 34.4297C65.5861 33.1047 64.4956 32.0141 63.1707 32.0141C61.8457 32.0141 60.7537 33.1047 60.7537 34.4297C60.7537 34.7998 60.8459 35.1465 60.9976 35.4614L59.751 36.7096H57.0323V32.2107C57.4935 31.7496 57.9549 31.287 58.4147 30.8254C58.4225 30.8172 58.8375 31.0708 59.451 31.0708C60.7759 31.0708 61.8664 29.9802 61.8664 28.6552C61.8664 27.3302 60.7759 26.2381 59.451 26.2381C58.1261 26.2381 57.0341 27.3302 57.0341 28.6552C57.0341 29.0266 57.1268 29.3743 57.2795 29.69V29.6916C57.2795 29.6931 57.2717 29.6947 57.2717 29.6963L55.6593 31.3071C55.508 31.4582 55.4231 31.6633 55.4231 31.8771V36.376L52.0065 32.9592V26.2823C52.9383 25.9461 53.6173 25.0591 53.6173 24.0177C53.6173 22.6927 52.525 21.6006 51.2003 21.6006H51.2016ZM44.8835 21.6571C34.9069 22.4173 27.0414 30.7652 27.0415 40.9312C27.0415 43.705 27.7438 51.8546 35.5233 57.0322C36.5089 57.6882 37.5069 59.1805 37.5044 60.2631H47.1736V23.8347C47.1736 22.4271 45.9328 21.5719 44.8835 21.6571ZM39.1216 61.874V64.2896C39.1216 64.744 39.4719 65.0958 39.9262 65.0958H52.8139C53.2682 65.0958 53.6186 64.744 53.6186 64.2896V61.874H39.1216ZM42.3431 66.7067V70.4527C42.3431 71.0623 42.8201 71.5393 43.4297 71.5393H49.3105C49.9201 71.5393 50.3971 71.0623 50.3971 70.4527V66.7067H42.3431Z" fill="white"/>
<defs>
<linearGradient id="paint0_linear_281_1676" x1="3.74542" y1="5.8672" x2="68.9721" y2="96.3931" gradientUnits="userSpaceOnUse">
<stop stop-color="#EA4335"/>
<stop offset="1" stop-color="#FBBC04"/>
</linearGradient>
</defs>
</svg>
