<svg width="68" height="72" viewBox="0 0 68 72" fill="none" xmlns="http://www.w3.org/2000/svg">
<path d="M41.6078 23.2426C45.8866 18.9638 45.8866 12.0264 41.6078 7.74761C37.3289 3.46878 30.3916 3.46878 26.1127 7.74761C21.8339 12.0264 21.8339 18.9638 26.1127 23.2426C30.3916 27.5215 37.3289 27.5215 41.6078 23.2426Z" fill="#5CDB6D"/>
<path d="M34.9018 10.4187L35.9817 12.6069C36.0657 12.777 36.228 12.895 36.4159 12.9223L38.8307 13.2731C39.7766 13.4105 40.1543 14.5729 39.4698 15.24L37.7224 16.9433C37.5866 17.0757 37.5245 17.2666 37.5567 17.4537L37.9692 19.8587C38.1307 20.8007 37.1419 21.5191 36.2959 21.0743L34.1227 19.9318C33.963 19.848 33.7724 19.848 33.6127 19.9318L31.4395 21.0743C30.5935 21.5191 29.6048 20.8007 29.7663 19.8587L30.1788 17.4537C30.2108 17.2666 30.1489 17.0757 30.0129 16.9433L28.2656 15.24C27.5811 14.5729 27.9588 13.4104 28.9047 13.2731L31.3194 12.9223C31.5073 12.895 31.6696 12.777 31.7536 12.6069L32.8335 10.4187C33.2566 9.5616 34.4787 9.5616 34.9018 10.4187Z" fill="#F7D8D8"/>
<path d="M64.1522 20.9719V14.5885C64.1522 14.2859 64.3975 14.0405 64.7002 14.0405H66.1941C66.6708 14.0405 66.9201 13.4738 66.598 13.1223L61.3844 7.43643C60.5157 6.48921 59.0223 6.48921 58.1536 7.43643L52.9401 13.1223C52.6178 13.4737 52.8672 14.0405 53.344 14.0405H54.8378C55.1404 14.0405 55.3858 14.2858 55.3858 14.5885V20.9719C55.3858 21.5772 55.8765 22.0677 56.4816 22.0677H63.0566C63.6616 22.0677 64.1522 21.5772 64.1522 20.9719Z" fill="#5CDB6D"/>
<path d="M12.3496 20.9719V14.5885C12.3496 14.2859 12.5949 14.0405 12.8976 14.0405H14.3915C14.8682 14.0405 15.1175 13.4738 14.7953 13.1223L9.58166 7.43655C8.71301 6.48933 7.21955 6.48933 6.35091 7.43655L1.13735 13.1224C0.815081 13.4738 1.06445 14.0407 1.54124 14.0407H3.03497C3.33752 14.0407 3.58293 14.2859 3.58293 14.5886V20.9721C3.58293 21.5773 4.07361 22.0678 4.67872 22.0678H11.2537C11.859 22.0677 12.3496 21.5772 12.3496 20.9719Z" fill="#5CDB6D"/>
<path d="M16.3323 26.4512C15.1218 26.4512 14.1406 27.4324 14.1406 28.6429V41.7238H22.9073L33.8656 33.7567L22.9073 26.4512H16.3323Z" fill="white"/>
<path d="M51.4005 26.4512H44.8255L33.8672 33.7567L44.8255 41.7237H53.5922V28.6427C53.5922 27.4324 52.611 26.4512 51.4005 26.4512Z" fill="white"/>
<path d="M14.1406 38.0194V41.7236H22.9073L28.0024 38.0194H14.1406Z" fill="#D4D4D4"/>
<path d="M39.7305 38.0194L44.8255 41.7236H53.5922V38.0194H39.7305Z" fill="#D4D4D4"/>
<path d="M22.9082 26.4512V41.7237H27.2915L33.8665 33.7567L27.2915 26.4512H22.9082Z" fill="#5CDB6D"/>
<path d="M40.4422 26.4512L33.8672 33.7567L40.4422 41.7237H44.8255V26.4512H40.4422Z" fill="#5CDB6D"/>
<path d="M37.3848 38.0194L40.4418 41.7236H44.8251V38.0194H37.3848Z" fill="#34A853"/>
<path d="M22.9082 38.0194V41.7236H27.2915L30.3485 38.0194H22.9082Z" fill="#34A853"/>
<path d="M27.293 26.4512H40.443V41.7238H27.293V26.4512Z" fill="#F7D8D8"/>
<path d="M27.293 38.0194H40.443V41.7236H27.293V38.0194Z" fill="#F7D8D8"/>
<path d="M51.4002 26.4512H48.3574C49.5679 26.4512 50.5491 27.4324 50.5491 28.6429V41.7238H53.5919V28.6429C53.5919 27.4324 52.6107 26.4512 51.4002 26.4512Z" fill="#D4D4D4"/>
<path d="M9.75812 41.0623C8.54763 41.0623 7.56641 42.0435 7.56641 43.254V56.0703H16.3331L33.8664 48.3678L16.3331 41.0623H9.75812Z" fill="white"/>
<path d="M57.9755 41.0623H51.4005L33.8672 48.3678L51.4005 56.0702H60.1672V43.2539C60.1672 42.0435 59.186 41.0623 57.9755 41.0623Z" fill="white"/>
<path d="M43.5703 52.6307L51.4001 56.0704H60.1668V52.6307H43.5703Z" fill="#D4D4D4"/>
<path d="M7.56641 52.6307V56.0704H16.3331L24.1629 52.6307H7.56641Z" fill="#D4D4D4"/>
<path d="M16.334 41.0623V56.0704H20.7173L33.8673 48.3678L20.7173 41.0623H16.334Z" fill="#5CDB6D"/>
<path d="M47.0172 41.0624L33.8672 48.3679L47.0172 56.0704H51.4005V41.0624H47.0172Z" fill="#5CDB6D"/>
<path d="M41.1465 52.6309L47.0189 56.0705H51.4022V52.6309H41.1465Z" fill="#34A853"/>
<path d="M16.334 52.6309V56.0705H20.7173L26.5897 52.6309H16.334Z" fill="#34A853"/>
<path d="M20.7188 41.0623H47.0187V56.0703H20.7188V41.0623Z" fill="#F7D8D8"/>
<path d="M20.7188 52.6307H47.0187V56.0704H20.7188V52.6307Z" fill="#F7D8D8"/>
<path d="M57.9744 41.0623H54.9316C56.142 41.0623 57.1233 42.0435 57.1233 43.254V56.0703H60.1661V43.254C60.1661 42.0435 59.1849 41.0623 57.9744 41.0623Z" fill="#D4D4D4"/>
<path d="M3.1839 55.6733C1.97354 55.6733 0.992188 56.6546 0.992188 57.865V68.0928C0.992188 69.3033 1.97341 70.2845 3.1839 70.2845H9.75889L33.8672 62.9789L9.75889 55.6733H3.1839Z" fill="white"/>
<path d="M64.5505 55.6733H57.9755L33.8672 62.9789L57.9755 70.2844H64.5505C65.761 70.2844 66.7422 69.3032 66.7422 68.0927V57.8649C66.7422 56.6546 65.761 55.6733 64.5505 55.6733Z" fill="white"/>
<path d="M9.75977 55.6733V70.2844H14.1431L33.868 62.9789L14.1431 55.6733H9.75977Z" fill="#5CDB6D"/>
<path d="M53.5922 55.6733L33.8672 62.9789L53.5922 70.2844H57.9755V55.6733H53.5922Z" fill="#5CDB6D"/>
<path d="M14.1406 55.6733H53.5906V70.2844H14.1406V55.6733Z" fill="#F7D8D8"/>
<path d="M64.5506 55.6733H61.5078C62.7183 55.6733 63.6995 56.6546 63.6995 57.865V68.0928C63.6995 69.3033 62.7183 70.2845 61.5078 70.2845H64.5506C65.7611 70.2845 66.7423 69.3033 66.7423 68.0928V57.865C66.7423 56.6546 65.7611 55.6733 64.5506 55.6733Z" fill="#D4D4D4"/>
<path d="M33.8671 4.53455C33.3506 4.53455 32.8433 4.57291 32.3457 4.6421C37.6773 5.38308 41.7826 9.95726 41.7826 15.493C41.7826 21.0285 37.6773 25.6028 32.3457 26.3438C32.8433 26.4129 33.3506 26.4514 33.8671 26.4514C39.9193 26.4514 44.8254 21.5451 44.8254 15.4931C44.8254 9.44105 39.9193 4.53455 33.8671 4.53455Z" fill="#34A853"/>
<path d="M66.5963 13.1224L61.3828 7.43655C60.5442 6.522 59.1249 6.49316 58.2461 7.34447C58.2776 7.37503 58.31 7.40387 58.34 7.43655L63.5536 13.1224C63.8759 13.4738 63.6265 14.0407 63.1497 14.0407H61.6558C61.3533 14.0407 61.1079 14.2859 61.1079 14.5886V20.972C61.1079 21.5773 60.6172 22.0678 60.0121 22.0678H63.0548C63.6601 22.0678 64.1506 21.5773 64.1506 20.972V14.5885C64.1506 14.2859 64.3959 14.0405 64.6986 14.0405H66.1924C66.6692 14.0407 66.9186 13.4738 66.5963 13.1224Z" fill="#34A853"/>
<path d="M14.7954 13.1224L9.582 7.43655C8.74339 6.522 7.32414 6.49316 6.44531 7.34447C6.4768 7.37503 6.50934 7.40387 6.53924 7.43655L11.7528 13.1224C12.0751 13.4738 11.8257 14.0407 11.3489 14.0407H9.85505C9.55249 14.0407 9.30709 14.2859 9.30709 14.5886V20.972C9.30709 21.5773 8.81641 22.0678 8.2113 22.0678H11.2541C11.8593 22.0678 12.3498 21.5773 12.3498 20.972V14.5885C12.3498 14.2859 12.5951 14.0405 12.8978 14.0405H14.3915C14.8685 14.0407 15.1177 13.4738 14.7954 13.1224Z" fill="#34A853"/>
<path d="M35.8345 21.9529C36.1511 22.1193 36.4939 22.2016 36.8348 22.2016C37.2779 22.2016 37.7179 22.0628 38.094 21.7895C38.7594 21.306 39.0865 20.5019 38.9473 19.6912L38.5717 17.5016L40.1627 15.9508C40.7516 15.3766 40.9597 14.5338 40.7056 13.7515C40.4513 12.9691 39.7877 12.4096 38.9736 12.2913L36.775 11.9718L35.7918 9.97964C35.4277 9.24197 34.6907 8.7837 33.868 8.78357C33.0454 8.78357 32.3081 9.24183 31.9441 9.9795L30.9608 11.9717L28.7623 12.2912C27.9483 12.4095 27.2845 12.9689 27.0304 13.7513C26.7763 14.5337 26.9842 15.3764 27.5733 15.9506L29.1642 17.5013L28.7886 19.6911C28.6495 20.5017 28.9766 21.3058 29.6421 21.7894C30.3076 22.2729 31.1734 22.3355 31.9016 21.9527L33.8681 20.919L35.8345 21.9529ZM30.9783 20.1963C30.9563 20.2078 30.8898 20.243 30.8087 20.184C30.7277 20.1252 30.7404 20.0509 30.7447 20.0265L31.1572 17.6216C31.2445 17.1125 31.0758 16.5934 30.7059 16.2329L28.9587 14.5297C28.941 14.5125 28.887 14.4599 28.918 14.3646C28.9488 14.2694 29.0234 14.2585 29.048 14.255L31.4629 13.9041C31.9739 13.8298 32.4154 13.509 32.644 13.0459L33.7239 10.8578C33.7349 10.8356 33.7683 10.768 33.8683 10.768C33.9683 10.768 34.0016 10.8356 34.0126 10.8577L35.0928 13.0463C35.3215 13.5091 35.763 13.8296 36.2739 13.904L38.6886 14.2548C38.7131 14.2584 38.7877 14.2693 38.8186 14.3644C38.8494 14.4596 38.7954 14.5123 38.7777 14.5295L37.0303 16.2328C36.6606 16.5933 36.492 17.1121 36.5792 17.6215L36.9917 20.0264C36.9958 20.0509 37.0087 20.1251 36.9277 20.1838C36.8467 20.2427 36.78 20.2077 36.7582 20.1961L34.5848 19.0535C34.3605 18.9357 34.1143 18.8767 33.8683 18.8767C33.6222 18.8767 33.376 18.9357 33.1515 19.0535L30.9783 20.1963Z" fill="black"/>
<path d="M64.5506 54.6812H61.1594V43.2539C61.1594 41.4984 59.7311 40.0701 57.9756 40.0701H54.5844V28.6428C54.5844 26.8873 53.1561 25.4589 51.4006 25.4589H40.4541C43.6836 23.3172 45.8177 19.6498 45.8177 15.4929C45.8177 8.90317 40.4567 3.54224 33.8672 3.54224C27.2776 3.54224 21.9166 8.90317 21.9166 15.4929C21.9166 19.6498 24.0506 23.3172 27.2802 25.4589H16.3338C14.5781 25.4589 13.1499 26.8872 13.1499 28.6428V30.711C13.1499 31.259 13.5941 31.7032 14.1421 31.7032C14.69 31.7032 15.1343 31.259 15.1343 30.711V28.6428C15.1343 27.9815 15.6723 27.4433 16.3338 27.4433H21.9166V40.0701H15.1344V35.3644C15.1344 34.8165 14.6902 34.3722 14.1422 34.3722C13.5942 34.3722 13.15 34.8165 13.15 35.3644V40.0701H9.75891C8.00337 40.0701 6.57513 41.4984 6.57513 43.2539V54.6812H3.18391C1.42824 54.6812 0 56.1094 0 57.8649V68.0927C0 69.8484 1.42824 71.2766 3.18391 71.2766H18.4021C18.95 71.2766 19.3943 70.8324 19.3943 70.2844C19.3943 69.7365 18.95 69.2922 18.4021 69.2922H15.1344V56.6656H52.6V69.2922H22.9088C22.3608 69.2922 21.9166 69.7365 21.9166 70.2844C21.9166 70.8324 22.3608 71.2766 22.9088 71.2766H64.5505C66.3061 71.2766 67.7344 69.8484 67.7344 68.0927V57.8649C67.7344 56.1094 66.3061 54.6812 64.5506 54.6812ZM52.6 28.6427V40.07H45.8177V27.4432H51.4005C52.0618 27.4433 52.6 27.9814 52.6 28.6427ZM50.4083 42.0544V54.681H48.0094V42.0544H50.4083ZM41.4344 40.07V27.4432H43.8333V40.07H41.4344ZM28.2844 27.4433H39.45V40.0701H28.2844V27.4433ZM23.901 15.4929C23.901 9.99738 28.3718 5.52664 33.8672 5.52664C39.3625 5.52664 43.8333 9.99738 43.8333 15.4929C43.8333 20.9882 39.3625 25.4589 33.8672 25.4589C28.3718 25.4589 23.901 20.9881 23.901 15.4929ZM23.901 27.4433H26.3V40.0701H23.9011V27.4433H23.901ZM19.725 42.0544V54.681H17.3261V42.0544H19.725ZM1.98441 68.0927V57.8649C1.98441 57.2036 2.52244 56.6656 3.18391 56.6656H8.76671V69.2922H3.18391C2.52244 69.2922 1.98441 68.7542 1.98441 68.0927ZM13.15 69.2922H10.7511V56.6656H13.15V69.2922ZM8.5594 54.6812V43.2539C8.5594 42.5926 9.09744 42.0545 9.75878 42.0545H15.3416V54.6812H8.5594ZM21.7094 54.6812V42.0545H46.025V54.6812H21.7094ZM52.3927 54.6812V42.0545H53.592H57.9755C58.6368 42.0545 59.1748 42.5926 59.1748 43.2539V54.6812H52.3927ZM56.9833 56.6656V69.2922H54.5844V56.6656H56.9833ZM65.75 68.0927C65.75 68.754 65.2119 69.2922 64.5506 69.2922H58.9678V56.6656H64.5506C65.2119 56.6656 65.75 57.2036 65.75 57.8649V68.0927Z" fill="black"/>
<path d="M53.3427 15.0328H54.3923V20.972C54.3923 22.1234 55.3289 23.06 56.4803 23.06H63.0553C64.2066 23.06 65.1433 22.1234 65.1433 20.972V15.0328H66.1929C66.8034 15.0328 67.357 14.6716 67.6026 14.1127C67.8484 13.5538 67.7406 12.9018 67.328 12.4518L62.1146 6.76604C61.5131 6.11013 60.6577 5.73389 59.7679 5.73389C58.8779 5.73389 58.0226 6.11013 57.4212 6.76604L52.2076 12.4519C51.795 12.902 51.6872 13.5539 51.9331 14.1128C52.1788 14.6718 52.7322 15.0328 53.3427 15.0328ZM58.8838 8.1071C59.1136 7.85641 59.4275 7.71829 59.7679 7.71829C60.1081 7.71829 60.422 7.85641 60.6519 8.10724L65.1827 13.0484H64.6992C63.85 13.0484 63.159 13.7392 63.159 14.5886V20.972C63.159 21.0292 63.1124 21.0756 63.0554 21.0756H56.4804C56.4233 21.0756 56.3768 21.029 56.3768 20.972V14.5886C56.3768 13.7394 55.6859 13.0484 54.8367 13.0484H54.353L58.8838 8.1071Z" fill="black"/>
<path d="M1.54198 15.0328H2.59147V20.972C2.59147 22.1233 3.52811 23.06 4.67946 23.06H11.2545C12.4058 23.06 13.3425 22.1233 13.3425 20.972V15.0328H14.3919C15.0025 15.0328 15.5559 14.6718 15.8017 14.1128C16.0475 13.5539 15.9398 12.9019 15.527 12.4518L10.3137 6.76616C9.71231 6.11025 8.8569 5.73401 7.96696 5.73401C7.07702 5.73401 6.22174 6.11025 5.62033 6.76616L0.40677 12.4519C-0.00585382 12.9019 -0.113541 13.5539 0.132261 14.1128C0.378063 14.6718 0.931447 15.0328 1.54198 15.0328ZM7.08297 8.10709C7.31277 7.8564 7.62683 7.71828 7.96696 7.71828C8.30709 7.71828 8.62115 7.8564 8.85108 8.10723L13.3819 13.0484H12.8982C12.049 13.0484 11.358 13.7392 11.358 14.5886V20.972C11.358 21.0291 11.3115 21.0756 11.2545 21.0756H4.67946C4.62231 21.0756 4.57587 21.029 4.57587 20.972V14.5886C4.57587 13.7394 3.88504 13.0484 3.03571 13.0484H2.55205L7.08297 8.10709Z" fill="black"/>
</svg>
