<svg width="83" height="83" viewBox="0 0 83 83" fill="none" xmlns="http://www.w3.org/2000/svg">
<path d="M41.427 70.6113C44.3195 70.6113 46.6645 68.2664 46.6645 65.3738C46.6645 62.4812 44.3195 60.1363 41.427 60.1363C38.5344 60.1363 36.1895 62.4812 36.1895 65.3738C36.1895 68.2664 38.5344 70.6113 41.427 70.6113Z" fill="#5CDB6D"/>
<path d="M68.9642 42.1578H67.6461C69.8524 40.5505 71.0156 37.4841 71.0156 34.5444C71.0156 30.7347 67.9161 27.6353 64.1065 27.6353C60.2969 27.6353 57.1927 30.7347 57.1927 34.5444C57.1927 37.4841 58.3567 40.5505 60.5645 42.1578H59.2443C58.6823 42.1578 58.1274 42.2127 57.5856 42.3216C55.5798 39.6458 52.263 37.8919 48.515 37.8919H45.874C46.9631 37.1829 47.9246 36.1999 48.7116 34.9627C50.112 32.7616 50.9151 29.8689 50.9151 27.0259C50.9151 21.7947 46.6592 17.539 41.4282 17.539C36.1971 17.539 31.9412 21.7949 31.9412 27.0259C31.9412 29.7585 32.7375 32.6817 34.0712 34.8455C34.8736 36.1473 35.8415 37.1656 36.9452 37.8917H34.3367C30.59 37.8917 27.2744 39.6458 25.2695 42.3219C24.7255 42.2128 24.1695 42.1576 23.6075 42.1576H22.2894C24.4957 40.5503 25.6589 37.4839 25.6589 34.5442C25.6589 30.7346 22.5594 27.6351 18.7498 27.6351C14.9402 27.6351 11.8407 30.7346 11.8407 34.5442C11.8407 37.4839 13.0039 40.5503 15.2102 42.1576H13.8875C9.4758 42.1576 5.88672 45.5307 5.88672 49.6769V58.1813C5.88672 58.8962 6.46634 59.4758 7.18125 59.4758C7.89615 59.4758 8.47577 58.8962 8.47577 58.1813V49.6769C8.47577 46.9584 10.9035 44.7467 13.8875 44.7467H23.6075C23.7109 44.7467 23.8132 44.7535 23.9159 44.7587C23.4939 45.8555 23.2625 47.037 23.2625 48.2685V58.1812C23.2625 58.8961 23.8421 59.4757 24.557 59.4757C25.272 59.4757 25.8516 58.8961 25.8516 58.1812V48.2685C25.8516 46.9317 26.2207 45.6728 26.8699 44.5724C26.9074 44.5215 26.9409 44.4669 26.971 44.4098C28.435 42.0651 31.1871 40.4807 34.3367 40.4807H48.5154C51.6692 40.4807 54.4247 42.0675 55.8885 44.4153C55.9175 44.4697 55.9494 44.5218 55.9851 44.5705C56.6353 45.6713 57.005 46.9309 57.005 48.2685V58.1812C57.005 58.8961 57.5847 59.4757 58.2996 59.4757C59.0145 59.4757 59.5941 58.8961 59.5941 58.1812V48.2685C59.5941 47.0369 59.3627 45.8553 58.9404 44.7585C59.0415 44.7533 59.1425 44.7467 59.2444 44.7467H68.9644C71.9484 44.7467 74.3762 46.9584 74.3762 49.6769V58.1813C74.3762 58.8962 74.9558 59.4758 75.6707 59.4758C76.3856 59.4758 76.9652 58.8962 76.9652 58.1813V49.6769C76.9652 45.5307 73.3761 42.1576 68.9644 42.1576L68.9642 42.1578ZM64.1065 30.2242C66.4886 30.2242 68.4265 32.1623 68.4265 34.5442C68.4265 37.1036 67.0862 40.7083 64.1065 40.7083C61.1268 40.7083 59.7818 37.1038 59.7818 34.5442C59.7818 32.1621 61.7218 30.2242 64.1065 30.2242ZM34.5301 27.0259C34.5301 23.2224 37.6245 20.128 41.428 20.128C45.2315 20.128 48.3259 23.2224 48.3259 27.0259C48.3259 30.7339 46.4532 36.6166 41.428 36.6166C39.2886 36.6166 37.5549 35.5636 36.275 33.4871C35.1824 31.7144 34.5299 29.2991 34.5299 27.0259H34.5301ZM18.7496 30.2242C21.1317 30.2242 23.0696 32.1623 23.0696 34.5442C23.0696 37.1036 21.7293 40.7083 18.7496 40.7083C15.77 40.7083 14.4296 37.1038 14.4296 34.5442C14.4296 32.1621 16.3677 30.2242 18.7496 30.2242ZM14.2625 17.71L13.7621 21.1617C13.6932 21.6371 13.8934 22.1116 14.2816 22.3941C14.6699 22.6768 15.1829 22.7211 15.6141 22.5091L18.7493 20.9687L21.88 22.5088C22.061 22.598 22.2565 22.6418 22.4512 22.6418C22.7198 22.6418 22.9869 22.5583 23.2122 22.3947C23.6007 22.1125 23.801 21.6384 23.7328 21.1632L23.2361 17.7102L25.6692 15.2033C26.0035 14.8588 26.1199 14.3575 25.9712 13.901C25.8224 13.4445 25.4334 13.1076 24.9603 13.0261L21.5201 12.4327L19.8951 9.34573C19.6713 8.92064 19.2307 8.65446 18.7503 8.65429H18.7496C18.2695 8.65429 17.8287 8.92016 17.6046 9.34476L15.9753 12.4327L12.5341 13.0261C12.0608 13.1078 11.6716 13.4447 11.5231 13.9015C11.3745 14.3583 11.4912 14.8598 11.826 15.2041L14.2623 17.7103L14.2625 17.71ZM17.0433 14.8755C17.4391 14.8072 17.7808 14.559 17.9682 14.2039L18.7485 12.7251L19.5264 14.2026C19.7136 14.5585 20.0557 14.807 20.4518 14.8755L22.1031 15.1603L20.9356 16.3632C20.6563 16.6511 20.5261 17.0521 20.5832 17.449L20.8209 19.1024L19.3212 18.3647C18.9611 18.1875 18.5391 18.1874 18.1789 18.3644L16.6768 19.1024L16.9163 17.4505C16.9739 17.0527 16.8434 16.6506 16.5633 16.3624L15.3942 15.1598L17.0433 14.8755ZM36.941 11.1558L36.4408 14.6069C36.3719 15.0823 36.5721 15.5567 36.9604 15.8392C37.1858 16.0033 37.4531 16.087 37.7222 16.087C37.9167 16.087 38.112 16.0431 38.293 15.9543L41.4282 14.4138L44.5588 15.954C44.9897 16.1661 45.5025 16.1221 45.891 15.8397C46.2796 15.5574 46.4799 15.0834 46.4116 14.6082L45.9151 11.1558L48.3476 8.65365C48.6824 8.3093 48.799 7.80784 48.6505 7.35103C48.5019 6.89422 48.1128 6.55732 47.6395 6.4756L44.1991 5.88222L42.5741 2.79526C42.3503 2.37017 41.9097 2.10398 41.4293 2.10382H41.4286C40.9485 2.10382 40.5077 2.36968 40.2836 2.79429L38.6543 5.88222L35.2133 6.4756C34.7398 6.55732 34.3505 6.89455 34.2021 7.35151C34.0537 7.80848 34.1707 8.31011 34.5058 8.65429L36.9413 11.1558H36.941ZM39.7218 8.32516C40.1176 8.25687 40.4594 8.00865 40.6467 7.65362L41.427 6.17479L42.2049 7.65249C42.3921 8.00833 42.7342 8.25687 43.1303 8.32516L44.7792 8.60947L43.6146 9.80756C43.3348 10.0954 43.2044 10.4967 43.2615 10.8942L43.4992 12.5474L41.9995 11.8097C41.8194 11.721 41.6238 11.6767 41.4282 11.6767C41.2325 11.6767 41.0372 11.7209 40.8573 11.8094L39.3553 12.5474L39.5948 10.8956C39.6524 10.4975 39.5218 10.0951 39.241 9.80675L38.0748 8.60915L39.7215 8.32516H39.7218ZM59.6195 17.2291L59.1192 20.6847C59.0504 21.1601 59.2504 21.6345 59.6388 21.9171C59.8643 22.0811 60.1315 22.1648 60.4006 22.1648C60.5951 22.1648 60.7904 22.1209 60.9713 22.0321L64.1065 20.4916L67.2372 22.0318C67.6682 22.2439 68.181 22.1997 68.5692 21.9177C68.9577 21.6355 69.1582 21.1614 69.0898 20.6861L68.5932 17.2291L71.0256 14.7269C71.3604 14.3826 71.4771 13.8811 71.3285 13.4243C71.18 12.9675 70.7908 12.6306 70.3175 12.5489L66.8773 11.9555L65.2523 8.86854C65.0285 8.44345 64.5879 8.17726 64.1075 8.1771H64.1068C63.6267 8.1771 63.1859 8.44296 62.9618 8.86757L61.3325 11.9555L57.8913 12.549C57.4178 12.6308 57.0285 12.968 56.8801 13.425C56.7317 13.8819 56.8487 14.3836 57.1838 14.7279L59.6195 17.2291ZM62.4003 14.3984C62.7961 14.3302 63.1379 14.0819 63.3253 13.7269L64.1055 12.2481L64.8834 13.7256C65.0706 14.0814 65.4127 14.33 65.8088 14.3984L67.4577 14.6829L66.2931 15.8808C66.0133 16.1685 65.8829 16.5698 65.94 16.9673L66.1782 18.6256L64.6782 17.8877C64.3182 17.7105 63.8961 17.7105 63.5359 17.8874L62.0335 18.6256L62.2733 16.9687C62.3309 16.5707 62.2001 16.1684 61.9196 15.88L60.7533 14.6824L62.4001 14.3984H62.4003ZM41.4283 57.5475C37.1128 57.5475 33.6018 61.0584 33.6018 65.374C33.6018 69.6897 37.1127 73.2006 41.4283 73.2006C45.7439 73.2006 49.2549 69.6897 49.2549 65.374C49.2549 61.0584 45.7439 57.5475 41.4283 57.5475ZM41.4283 70.6115C38.5404 70.6115 36.1908 68.262 36.1908 65.374C36.1908 62.4861 38.5404 60.1365 41.4283 60.1365C44.3162 60.1365 46.6658 62.4861 46.6658 65.374C46.6658 68.262 44.3162 70.6115 41.4283 70.6115ZM56.0481 62.3864L53.6831 61.2961L52.9783 59.5899L53.8771 57.1468C54.0514 56.6732 53.9344 56.1415 53.5776 55.7845L51.8376 54.0445V49.9293C51.8376 49.2144 51.258 48.6348 50.5431 48.6348C49.8282 48.6348 49.2486 49.2144 49.2486 49.9293V53.0751L47.2132 53.8239L45.5017 53.115L44.4112 50.7535C44.1996 50.2951 43.7407 50.0017 43.236 50.0017H39.6168C39.1119 50.0017 38.6532 50.2951 38.4415 50.7535L37.3509 53.1153L35.6435 53.8236L33.604 53.0733V49.9292C33.604 49.2143 33.0244 48.6347 32.3095 48.6347C31.5946 48.6347 31.015 49.2143 31.015 49.9292V54.0489L29.2795 55.7843C28.9225 56.1413 28.8057 56.673 28.98 57.1467L29.8784 59.5888L29.1701 61.2959L26.8082 62.3866C26.3498 62.5982 26.0564 63.0572 26.0564 63.5619V67.1857C26.0564 67.6906 26.3498 68.1493 26.8082 68.361L29.1701 69.4516L29.8784 71.1588L28.98 73.6009C28.8057 74.0746 28.9227 74.6063 29.2795 74.9632L31.8391 77.5229C32.1959 77.8798 32.7276 77.9968 33.2014 77.8224L35.6435 76.924L37.3509 77.6322L38.4415 79.9941C38.6532 80.4525 39.1121 80.7459 39.6168 80.7459H43.236C43.7408 80.7459 44.1996 80.4525 44.4112 79.9941L45.5017 77.6326L47.2132 76.9237L49.6557 77.8222C50.1295 77.9967 50.6612 77.8795 51.018 77.5227L53.5776 74.9631C53.9346 74.6061 54.0514 74.0744 53.8771 73.6008L52.9783 71.1577L53.6831 69.4515L56.0481 68.3612C56.5068 68.1497 56.8007 67.6906 56.8007 67.1856V63.5617C56.8007 63.0565 56.5068 62.5976 56.0481 62.3861V62.3864ZM54.2116 66.3572L52.1384 67.3129C51.8421 67.4495 51.6085 67.6927 51.484 67.9942L50.3923 70.6363C50.2682 70.9366 50.2615 71.2727 50.3738 71.5776L51.1614 73.7181L49.7725 75.1069L47.632 74.3194C47.3267 74.2069 46.9902 74.2139 46.6896 74.3383L44.0429 75.4346C43.7423 75.5592 43.4996 75.7924 43.363 76.0879L42.4075 78.1572H40.4446L39.4891 76.0879C39.3527 75.7926 39.1103 75.5595 38.81 75.435L36.1678 74.3386C35.8672 74.2139 35.5303 74.2069 35.2248 74.3194L33.0843 75.1069L31.6954 73.7181L32.483 71.5776C32.5954 71.2721 32.5886 70.9353 32.4637 70.6345L31.3674 67.9924C31.2428 67.6921 31.0096 67.4497 30.7145 67.3132L28.6452 66.3577V64.39L30.7145 63.4345C31.0096 63.2981 31.2428 63.0557 31.3674 62.7554L32.4637 60.1132C32.5885 59.8124 32.5953 59.4757 32.483 59.1702L31.6954 57.0297L33.0843 55.6408L35.2248 56.4284C35.5303 56.5408 35.867 56.5339 36.1678 56.4091L38.81 55.3128C39.1103 55.1882 39.3527 54.9552 39.4891 54.6599L40.4446 52.5906H42.4075L43.363 54.6599C43.4994 54.9554 43.7423 55.1887 44.0429 55.3131L46.6896 56.4094C46.9904 56.534 47.3268 56.5408 47.632 56.4284L49.7725 55.6408L51.1614 57.0297L50.3738 59.1702C50.2617 59.4752 50.2682 59.8111 50.3923 60.1115L51.484 62.7536C51.6086 63.0551 51.8423 63.2983 52.1384 63.4348L54.2116 64.3905V66.3571V66.3572ZM44.4695 62.8572C44.9983 63.3386 45.0366 64.1572 44.5554 64.6858L41.716 67.805C41.4809 68.0634 41.1513 68.2157 40.8022 68.2273C40.7877 68.2278 40.7733 68.228 40.7587 68.228C40.425 68.228 40.1037 68.099 39.8621 67.8671L38.3575 66.4223C37.8418 65.927 37.8253 65.1075 38.3205 64.5918C38.8158 64.0763 39.6352 64.0596 40.1509 64.5548L40.6966 65.0787L42.641 62.9427C43.1222 62.4141 43.941 62.3756 44.4696 62.8568L44.4695 62.8572Z" fill="#1E1E1E"/>
<path d="M18.7477 30.2245C16.3656 30.2245 14.4277 32.1626 14.4277 34.5445C14.4277 37.104 15.7681 40.7086 18.7477 40.7086C21.7274 40.7086 23.0677 37.1041 23.0677 34.5445C23.0677 32.1624 21.1297 30.2245 18.7477 30.2245Z" fill="#F6DCCD"/>
<path d="M41.4252 20.1282C37.6218 20.1282 34.5273 23.2226 34.5273 27.0261C34.5273 29.2992 35.1796 31.7146 36.2724 33.4873C37.5523 35.5639 39.286 36.6168 41.4254 36.6168C46.4506 36.6168 48.3233 30.7341 48.3233 27.0261C48.3233 23.2226 45.2289 20.1282 41.4254 20.1282H41.4252Z" fill="#F6DCCD"/>
<path d="M64.104 30.2245C61.7195 30.2245 59.7793 32.1626 59.7793 34.5445C59.7793 37.1039 61.1211 40.7085 64.104 40.7085C67.0869 40.7085 68.424 37.1041 68.424 34.5445C68.424 32.1624 66.4859 30.2245 64.104 30.2245Z" fill="#F6DCCD"/>
<path d="M28.6445 66.3581L30.7138 67.3137C31.009 67.4501 31.2422 67.6925 31.3668 67.9928L32.4631 70.6349C32.5878 70.9357 32.5946 71.2725 32.4823 71.578L31.6948 73.7185L33.0836 75.1074L35.2241 74.3198C35.5296 74.2073 35.8665 74.2143 36.1672 74.3391L38.8093 75.4354C39.1097 75.56 39.3521 75.793 39.4885 76.0883L40.444 78.1576H42.4068L43.3623 76.0883C43.4988 75.7928 43.7416 75.5595 44.0423 75.435L46.689 74.3387C46.9895 74.2143 47.326 74.2073 47.6314 74.3198L49.7719 75.1074L51.1607 73.7185L50.3732 71.578C50.261 71.273 50.2675 70.937 50.3916 70.6367L51.4834 67.9946C51.608 67.6931 51.8417 67.4499 52.1378 67.3133L54.211 66.3577V64.3911L52.1378 63.4354C51.8415 63.2988 51.6078 63.0556 51.4834 62.7542L50.3916 60.112C50.2675 59.8117 50.2609 59.4756 50.3732 59.1708L51.1607 57.0303L49.7719 55.6414L47.6314 56.4289C47.3262 56.5414 46.9898 56.5346 46.689 56.41L44.0423 55.3137C43.7416 55.1891 43.4989 54.9559 43.3623 54.6605L42.4068 52.5912H40.444L39.4885 54.6605C39.3521 54.9558 39.1097 55.1888 38.8093 55.3134L36.1672 56.4097C35.8664 56.5344 35.5296 56.5414 35.2241 56.4289L33.0836 55.6414L31.6948 57.0303L32.4823 59.1708C32.5948 59.4763 32.588 59.813 32.4631 60.1138L31.3668 62.756C31.2422 63.0563 31.009 63.2987 30.7138 63.4351L28.6445 64.3906V66.3583V66.3581ZM41.4277 57.5477C45.7431 57.5477 49.2542 61.0587 49.2542 65.3743C49.2542 69.6899 45.7433 73.2008 41.4277 73.2008C37.112 73.2008 33.6011 69.6899 33.6011 65.3743C33.6011 61.0587 37.112 57.5477 41.4277 57.5477Z" fill="#F8D8D8"/>
<path d="M19.5265 14.2031L18.7487 12.7255L17.9684 14.2044C17.781 14.5595 17.4392 14.8078 17.0434 14.8759L15.3945 15.1602L16.5637 16.3628C16.8438 16.651 16.9742 17.053 16.9166 17.4509L16.6771 19.1029L18.1792 18.3648C18.5394 18.1878 18.9614 18.1879 19.3215 18.3651L20.8212 19.1029L20.5835 17.4494C20.5264 17.0525 20.6566 16.6513 20.9359 16.3636L22.1034 15.1607L20.4521 14.8759C20.0558 14.8076 19.7137 14.5591 19.5265 14.2031Z" fill="#F8D8D8" fill-opacity="0.870588"/>
<path d="M42.2039 7.65263L41.4261 6.17493L40.6458 7.65376C40.4584 8.00895 40.1167 8.25718 39.7209 8.3253L38.0742 8.60929L39.2404 9.80689C39.521 10.0952 39.6518 10.4975 39.5942 10.8957L39.3547 12.5476L40.8566 11.8095C41.0366 11.7212 41.2321 11.6768 41.4275 11.6768C41.623 11.6768 41.8188 11.7212 41.9989 11.8098L43.4986 12.5476L43.2609 10.8943C43.2038 10.4969 43.3342 10.0956 43.614 9.8077L44.7786 8.60961L43.1297 8.3253C42.7334 8.25701 42.3915 8.00846 42.2042 7.65263H42.2039Z" fill="#F8D8D8" fill-opacity="0.870588"/>
<path d="M64.8838 13.7257L64.1059 12.2482L63.3256 13.727C63.1383 14.0822 62.7965 14.3303 62.4007 14.3985L60.7539 14.6825L61.9201 15.8801C62.2007 16.1683 62.3315 16.5706 62.2738 16.9688L62.034 18.6257L63.5365 17.8875C63.8967 17.7106 64.3187 17.7106 64.6788 17.8878L66.1788 18.6257L65.9406 16.9674C65.8835 16.57 66.0139 16.1686 66.2937 15.8809L67.4583 14.683L65.8094 14.3985C65.4131 14.3301 65.0712 14.0817 64.8839 13.7257H64.8838Z" fill="#F8D8D8" fill-opacity="0.870588"/>
<path d="M23.261 58.1817V48.269C23.261 47.0376 23.4924 45.856 23.9144 44.7592C23.8118 44.7539 23.7094 44.7472 23.606 44.7472H13.886C10.9019 44.7472 8.47422 46.9589 8.47422 49.6774V58.1818C8.47422 58.8967 7.89459 59.4764 7.17969 59.4764H24.5555C23.8406 59.4764 23.261 58.8966 23.261 58.1817Z" fill="#5CDB6D"/>
<path d="M74.3754 58.1813V49.6769C74.3754 46.9584 71.9477 44.7467 68.9636 44.7467H59.2437C59.1416 44.7467 59.0408 44.7533 58.9396 44.7585C59.362 45.8555 59.5934 47.037 59.5934 48.2685V58.1812C59.5934 58.8961 59.0137 59.4757 58.2988 59.4757H75.6701C74.9552 59.4757 74.3756 58.8961 74.3756 58.1812L74.3754 58.1813Z" fill="#5CDB6D"/>
<path d="M57.0046 58.1816V48.2689C57.0046 46.9313 56.6349 45.6718 55.9847 44.5709C55.9489 44.5222 55.9171 44.4701 55.8881 44.4158C54.4243 42.068 51.6688 40.4812 48.515 40.4812H34.3363C31.1867 40.4812 28.4346 42.0655 26.9706 44.4103C26.9405 44.4674 26.907 44.5219 26.8695 44.5729C26.2203 45.6732 25.8512 46.9323 25.8512 48.2689V58.1816C25.8512 58.8965 25.2715 59.4761 24.5566 59.4761H29.8361L28.9792 57.147C28.805 56.6733 28.922 56.1416 29.2788 55.7846L31.0142 54.0492V49.9295C31.0142 49.2146 31.5939 48.6349 32.3088 48.6349C33.0237 48.6349 33.6033 49.2146 33.6033 49.9295V53.0736L35.6428 53.8239L37.3501 53.1156L38.4408 50.7538C38.6524 50.2953 39.1113 50.002 39.616 50.002H43.2352C43.7401 50.002 44.1988 50.2953 44.4105 50.7538L45.501 53.1153L47.2125 53.8242L49.2478 53.0755V49.9298C49.2478 49.2149 49.8274 48.6353 50.5423 48.6353C51.2573 48.6353 51.8369 49.2149 51.8369 49.9298V54.0449L53.5769 55.7849C53.9338 56.1419 54.0507 56.6736 53.8764 57.1473L53.0196 59.4765H58.2992C57.5843 59.4765 57.0046 58.8968 57.0046 58.1819V58.1816Z" fill="#5CDB6D"/>
<path d="M64.8812 13.7255L64.1035 12.2481V17.7546C64.2995 17.7544 64.4956 17.7986 64.6762 17.8874L66.1762 18.6253L65.938 16.967C65.8809 16.5696 66.0113 16.1683 66.2911 15.8806L67.4557 14.6827L65.8068 14.3982C65.4105 14.3297 65.0686 14.0814 64.8814 13.7254L64.8812 13.7255Z" fill="#F8D8D8"/>
<path d="M19.5249 14.203L18.7471 12.7254L18.7461 12.7274V18.2324C18.9425 18.232 19.139 18.2762 19.3199 18.3652L20.8196 19.1029L20.5819 17.4495C20.5248 17.0526 20.655 16.6514 20.9343 16.3637L22.1018 15.1608L20.4505 14.876C20.0542 14.8077 19.7123 14.5591 19.5251 14.2031L19.5249 14.203Z" fill="#F8D8D8"/>
<path d="M42.2026 7.65254L41.4248 6.17484L41.4238 6.17661V11.6771C41.4238 11.6771 41.4253 11.6771 41.4261 11.6771C41.6217 11.6771 41.8174 11.7214 41.9975 11.8101L43.4972 12.5478L43.2595 10.8945C43.2023 10.4971 43.3328 10.0958 43.6126 9.80793L44.7771 8.60984L43.1282 8.32553C42.7319 8.25725 42.39 8.0087 42.2028 7.65286L42.2026 7.65254Z" fill="#F8D8D8"/>
</svg>
