<svg width="66" height="68" viewBox="0 0 66 68" fill="none" xmlns="http://www.w3.org/2000/svg">
<path fill-rule="evenodd" clip-rule="evenodd" d="M61.5746 66.9125V27.3876C61.5746 26.8995 61.1735 26.4985 60.6854 26.4985H57.7911H52.5852H48.1662L44.7422 47.1179L48.1662 66.9125H61.5746Z" fill="#B8ACAC"/>
<path fill-rule="evenodd" clip-rule="evenodd" d="M57.7407 27.3876V66.9125H61.5732V27.3876C61.5732 26.8995 61.1722 26.4985 60.6841 26.4985H57.7898H56.8516C57.3398 26.4984 57.7407 26.8995 57.7407 27.3876Z" fill="#9D9696"/>
<path fill-rule="evenodd" clip-rule="evenodd" d="M48.167 66.9125V55.7365V48.6086V41.4845V34.3603V26.4985V10.7976L28.2739 8.16431L10.878 10.7976V40.9132V56.1867L7.72266 61.8919L10.878 66.9124C20.6693 66.9125 39.7074 66.9125 48.167 66.9125Z" fill="#F7D8D8"/>
<path fill-rule="evenodd" clip-rule="evenodd" d="M29.5214 66.9124V51.6578L25.3446 49.6035L21.8828 51.6578V66.9124H29.5214Z" fill="#F7D8D8"/>
<path fill-rule="evenodd" clip-rule="evenodd" d="M37.1564 66.9124V51.6578L33.5357 49.6035L29.5215 51.6578V66.9124H37.1564Z" fill="#F7D8D8"/>
<path fill-rule="evenodd" clip-rule="evenodd" d="M10.8755 10.7975H48.1646H49.2692C49.5795 10.7975 49.8329 10.5441 49.8329 10.2338V6.09469C49.8329 5.78446 49.5795 5.53101 49.2692 5.53101H19.6681H14.4621H9.767C9.46049 5.53101 9.20703 5.78446 9.20703 6.09469V10.2337C9.20703 10.5439 9.46049 10.7974 9.767 10.7974H10.8755V10.7975Z" fill="#B8ACAC"/>
<path fill-rule="evenodd" clip-rule="evenodd" d="M18.0088 24.777H22.2575C22.4731 24.777 22.651 24.5991 22.651 24.3835V17.4486C22.651 17.2329 22.4731 17.0551 22.2575 17.0551H18.0088C17.7894 17.0551 17.6152 17.2329 17.6152 17.4486V24.3835C17.6152 24.5993 17.7892 24.777 18.0088 24.777Z" fill="#5CDB6D"/>
<path fill-rule="evenodd" clip-rule="evenodd" d="M31.9313 24.777C32.1469 24.777 32.3248 24.5991 32.3248 24.3835V17.4486C32.3248 17.2329 32.1469 17.0551 31.9313 17.0551H27.6826C27.4669 17.0551 27.2891 17.2329 27.2891 17.4486V24.3835C27.2891 24.5991 27.4669 24.777 27.6826 24.777H31.9313Z" fill="#5CDB6D"/>
<path fill-rule="evenodd" clip-rule="evenodd" d="M37.3564 24.777H41.6051C41.8208 24.777 41.9986 24.5991 41.9986 24.3835V17.4486C41.9986 17.2329 41.8208 17.0551 41.6051 17.0551H37.3564C37.1408 17.0551 36.9629 17.2329 36.9629 17.4486V24.3835C36.963 24.5993 37.1408 24.777 37.3564 24.777Z" fill="#5CDB6D"/>
<path fill-rule="evenodd" clip-rule="evenodd" d="M37.3564 38.469H41.6051C41.8208 38.469 41.9986 38.2911 41.9986 38.0755V31.1406C41.9986 30.9249 41.8208 30.7471 41.6051 30.7471H37.3564C37.1408 30.7471 36.9629 30.9249 36.9629 31.1406V38.0755C36.963 38.2911 37.1408 38.469 37.3564 38.469Z" fill="#5CDB6D"/>
<path fill-rule="evenodd" clip-rule="evenodd" d="M27.6826 38.469H31.9313C32.1469 38.469 32.3248 38.2911 32.3248 38.0755V31.1406C32.3248 30.9249 32.1469 30.7471 31.9313 30.7471H27.6826C27.4669 30.7471 27.2891 30.9249 27.2891 31.1406V38.0755C27.2892 38.2911 27.4671 38.469 27.6826 38.469Z" fill="#5CDB6D"/>
<path fill-rule="evenodd" clip-rule="evenodd" d="M22.6508 38.0757V31.1408C22.6508 30.9252 22.473 30.7473 22.2573 30.7473H18.0088C17.7894 30.7473 17.6152 30.9252 17.6152 31.1408V38.0757C17.6152 38.2914 17.7892 38.4692 18.0088 38.4692H22.2575C22.4731 38.4691 22.6508 38.2913 22.6508 38.0757Z" fill="#5CDB6D"/>
<path fill-rule="evenodd" clip-rule="evenodd" d="M10.877 14.3992H44.4924V59.3382V66.9125H48.166C48.166 48.2075 48.166 29.5025 48.166 10.7975H10.877V14.3992Z" fill="#D6BBB4"/>
<path fill-rule="evenodd" clip-rule="evenodd" d="M44.9272 6.09469V9.28023V10.2336C44.9272 10.5438 44.6737 10.7973 44.3672 10.7973H48.1657H49.2704C49.5807 10.7973 49.8341 10.5438 49.8341 10.2336V6.09469C49.8341 5.78446 49.5807 5.53101 49.2704 5.53101H44.3672C44.6737 5.53101 44.9272 5.78446 44.9272 6.09469Z" fill="#9D9696"/>
<path fill-rule="evenodd" clip-rule="evenodd" d="M41.8715 17.1573L37.0742 24.6561C37.1461 24.7317 37.2482 24.7772 37.3579 24.7772H41.6066C41.8223 24.7772 42.0001 24.5993 42.0001 24.3836V17.4487C42.0001 17.3352 41.9509 17.2292 41.8715 17.1573Z" fill="#5CDB6D"/>
<path fill-rule="evenodd" clip-rule="evenodd" d="M32.1957 17.1573L27.3984 24.6561C27.4703 24.7317 27.5687 24.7772 27.6821 24.7772H31.9308C32.1465 24.7772 32.3244 24.5993 32.3244 24.3836V17.4487C32.3244 17.3352 32.2753 17.2292 32.1957 17.1573Z" fill="#5CDB6D"/>
<path fill-rule="evenodd" clip-rule="evenodd" d="M22.5218 17.1573L17.7207 24.6561C17.7926 24.7317 17.8947 24.7772 18.0082 24.7772H22.257C22.4726 24.7772 22.6505 24.5993 22.6505 24.3836V17.4487C22.6503 17.3352 22.5974 17.2292 22.5218 17.1573Z" fill="#5CDB6D"/>
<path fill-rule="evenodd" clip-rule="evenodd" d="M22.5218 30.8494L17.7207 38.3442C17.7926 38.42 17.8947 38.469 18.0082 38.469H22.257C22.4726 38.469 22.6505 38.2912 22.6505 38.0755V31.1406C22.6503 31.0234 22.5974 30.9213 22.5218 30.8494Z" fill="#5CDB6D"/>
<path fill-rule="evenodd" clip-rule="evenodd" d="M32.1957 30.8494L27.3984 38.3442C27.4703 38.42 27.5687 38.469 27.6821 38.469H31.9308C32.1465 38.469 32.3244 38.2912 32.3244 38.0755V31.1406C32.3244 31.0234 32.2753 30.9213 32.1957 30.8494Z" fill="#5CDB6D"/>
<path fill-rule="evenodd" clip-rule="evenodd" d="M41.8715 30.8494L37.0742 38.3442C37.1461 38.42 37.2482 38.469 37.3579 38.469H41.6066C41.8223 38.469 42.0001 38.2912 42.0001 38.0755V31.1406C42.0001 31.0234 41.9509 30.9213 41.8715 30.8494Z" fill="#5CDB6D"/>
<path fill-rule="evenodd" clip-rule="evenodd" d="M29.5214 51.658L21.8828 66.9125H29.5214V51.658Z" fill="#F7D8D8"/>
<path fill-rule="evenodd" clip-rule="evenodd" d="M37.1564 51.658L29.5215 66.9125H37.1564V51.658Z" fill="#F7D8D8"/>
<path fill-rule="evenodd" clip-rule="evenodd" d="M10.8772 66.9124V56.1865L8.47475 54.6808L6.07227 56.1865V66.9124H10.8772Z" fill="#D87E49"/>
<path fill-rule="evenodd" clip-rule="evenodd" d="M10.8756 56.1866C13.5391 55.044 15.4383 52.0551 15.4383 48.548C15.4383 45.0445 13.5391 42.0557 10.8756 40.9131C10.1265 40.5914 9.31674 40.4137 8.47308 40.4137C4.62531 40.4137 1.50781 44.0571 1.50781 48.548C1.50781 52.0551 3.40709 55.044 6.07059 56.1866C6.8197 56.5082 7.62941 56.6823 8.47308 56.6823C9.31674 56.6823 10.1265 56.5082 10.8756 56.1866Z" fill="#80D261"/>
<path fill-rule="evenodd" clip-rule="evenodd" d="M8.47461 56.6823V60.5338V63.0876V66.9125H10.8771V56.1866C10.128 56.5083 9.31828 56.6823 8.47461 56.6823Z" fill="#C86D35"/>
<path fill-rule="evenodd" clip-rule="evenodd" d="M10.8768 43.2853C11.9096 44.7041 12.5301 46.5429 12.5301 48.548C12.5301 50.5569 11.9097 52.3956 10.8768 53.8145C10.4644 54.382 9.98388 54.8814 9.45415 55.2976C8.9963 55.6607 8.49695 55.9597 7.96722 56.1866C7.66071 56.319 7.34292 56.4249 7.01758 56.5082C7.48669 56.6218 7.97478 56.6823 8.47413 56.6823C9.3178 56.6823 10.1275 56.5082 10.8766 56.1866C13.5401 55.044 15.4394 52.0551 15.4394 48.548C15.4394 45.0445 13.5401 42.0557 10.8766 40.9131C10.1275 40.5914 9.3178 40.4137 8.47413 40.4137C7.97478 40.4137 7.48669 40.478 7.02129 40.5916C7.34292 40.6748 7.66071 40.7807 7.96709 40.9132C9.10612 41.4011 10.105 42.226 10.8768 43.2853Z" fill="#4FC122"/>
<path fill-rule="evenodd" clip-rule="evenodd" d="M21.8821 51.6579H29.5207H37.1556H38.1582C38.4458 51.6579 38.6841 51.4196 38.6841 51.1282V47.2351C38.6841 46.9438 38.4458 46.7053 38.1582 46.7053H20.8832C20.592 46.7053 20.3535 46.9437 20.3535 47.2351V51.1282C20.3535 51.4194 20.5919 51.6579 20.8832 51.6579H21.8821Z" fill="#B8ACAC"/>
<path fill-rule="evenodd" clip-rule="evenodd" d="M35.0942 47.2352V51.1283C35.0942 51.4196 34.8558 51.658 34.5645 51.658H37.1561H38.1586C38.4462 51.658 38.6845 51.4197 38.6845 51.1283V47.2352C38.6845 46.9439 38.4462 46.7054 38.1586 46.7054H34.5645C34.8558 46.7054 35.0942 46.9438 35.0942 47.2352Z" fill="#9D9696"/>
<path d="M64.6578 65.9177H62.5689V49.5014C62.5689 48.9521 62.1236 48.5067 61.5742 48.5067C61.0248 48.5067 60.5795 48.9521 60.5795 49.5014V65.9177H49.1606V56.7312H54.87C55.4193 56.7312 55.8647 56.2858 55.8647 55.7364C55.8647 55.1871 55.4193 54.7417 54.87 54.7417H49.1606V49.6033H54.87C55.4193 49.6033 55.8647 49.1579 55.8647 48.6086C55.8647 48.0592 55.4193 47.6138 54.87 47.6138H49.1606V42.4791H54.87C55.4193 42.4791 55.8647 42.0338 55.8647 41.4844C55.8647 40.9351 55.4193 40.4897 54.87 40.4897H49.1606V35.355H54.87C55.4193 35.355 55.8647 34.9096 55.8647 34.3603C55.8647 33.8109 55.4193 33.3655 54.87 33.3655H49.1606V27.4931H60.5795V45.1995C60.5795 45.7489 61.0248 46.1943 61.5742 46.1943C62.1236 46.1943 62.5689 45.7489 62.5689 45.1995V27.3876C62.5689 26.3488 61.7238 25.5037 60.6852 25.5037H58.7856V23.0064C58.7856 22.457 58.3403 22.0116 57.7909 22.0116C57.2415 22.0116 56.7962 22.457 56.7962 23.0064V25.5037H53.5797V21.3605C53.5797 20.8112 53.1343 20.3658 52.585 20.3658C52.0356 20.3658 51.5903 20.8112 51.5903 21.3605V25.5037H49.1607V11.7922H49.2708C50.1301 11.7922 50.8292 11.0931 50.8292 10.2338V6.09481C50.8292 5.23549 50.1301 4.53639 49.2708 4.53639H20.6642V2.44758C20.6642 1.89822 20.2188 1.45284 19.6695 1.45284C19.1201 1.45284 18.6748 1.89822 18.6748 2.44758V4.53639H15.4583V0.994735C15.4583 0.445376 15.0129 0 14.4636 0C13.9142 0 13.4688 0.445376 13.4688 0.994735V4.53626H9.76843C8.91123 4.53626 8.21372 5.23535 8.21372 6.09467V10.2337C8.21372 11.093 8.9111 11.7921 9.76843 11.7921H9.88223V39.5648C9.42491 39.4708 8.955 39.4189 8.47448 39.4189C4.08531 39.4189 0.514477 43.5142 0.514477 48.548C0.514477 52.1886 2.38285 55.3372 5.07726 56.8017V65.9177H0.994735C0.445376 65.9177 0 66.3631 0 66.9125C0 67.4618 0.445376 67.9072 0.994735 67.9072H6.07199H10.877H21.8828H37.1564H48.166H64.6578C65.2071 67.9072 65.6525 67.4618 65.6525 66.9125C65.6525 66.3631 65.2071 65.9177 64.6578 65.9177ZM2.50395 48.548C2.50395 44.6112 5.1823 41.4084 8.47448 41.4084C9.17344 41.4084 9.84416 41.554 10.4681 41.8192C10.4876 41.8279 10.5074 41.8359 10.5276 41.8434C12.8114 42.8467 14.445 45.4734 14.445 48.5478C14.445 52.4846 11.7666 55.6874 8.47448 55.6874C5.1823 55.6874 2.50395 52.4847 2.50395 48.548ZM7.06673 65.9177V57.5311C7.52404 57.6251 7.99395 57.677 8.47448 57.677C8.955 57.677 9.42491 57.6251 9.88223 57.5311V65.9177H7.06673ZM37.6901 50.6632H21.349V47.7002H37.6901V50.6632ZM22.8776 65.9177V52.6526H28.5267V65.9177H22.8776ZM30.5162 65.9177V52.6526H36.1615V65.9177H30.5162ZM38.151 65.9177V52.6526H38.159C38.9974 52.6526 39.6796 51.9688 39.6796 51.1282V47.235C39.6796 46.3946 38.9974 45.7106 38.159 45.7106H20.884C20.0435 45.7106 19.3595 46.3944 19.3595 47.235V51.1282C19.3595 51.9687 20.0434 52.6526 20.884 52.6526H20.8881V65.9177H11.8717V56.8017C14.5661 55.3372 16.4345 52.1887 16.4345 48.548C16.4345 44.9074 14.5661 41.7588 11.8717 40.2943V11.7922H27.9173C28.4667 11.7922 28.912 11.3469 28.912 10.7975C28.912 10.2482 28.4667 9.80278 27.9173 9.80278H10.2032V6.52572H48.8397V9.80278H32.3212C31.7718 9.80278 31.3264 10.2482 31.3264 10.7975C31.3264 11.3469 31.7718 11.7922 32.3212 11.7922H47.1712V65.9177H38.151Z" fill="black"/>
<path d="M22.2561 16.0604H18.0074C17.242 16.0604 16.6191 16.6831 16.6191 17.4487V24.3836C16.6191 25.149 17.2418 25.7718 18.0074 25.7718H22.2561C23.0215 25.7718 23.6442 25.1491 23.6442 24.3836V17.4487C23.6442 16.6831 23.0215 16.0604 22.2561 16.0604ZM21.6548 23.7824H18.6086V18.0499H21.6548V23.7824Z" fill="black"/>
<path d="M31.9319 16.0604H27.683C26.9176 16.0604 26.2949 16.6831 26.2949 17.4487V24.3836C26.2949 25.149 26.9176 25.7718 27.683 25.7718H31.9319C32.6973 25.7718 33.32 25.1491 33.32 24.3836V17.4487C33.32 16.6831 32.6973 16.0604 31.9319 16.0604ZM31.3305 23.7824H28.2844V18.0499H31.3305V23.7824Z" fill="black"/>
<path d="M22.2561 29.7524H18.0074C17.242 29.7524 16.6191 30.3751 16.6191 31.1407V38.0756C16.6191 38.841 17.2418 39.4638 18.0074 39.4638H22.2561C23.0215 39.4638 23.6442 38.8411 23.6442 38.0756V31.1407C23.6442 30.3751 23.0215 29.7524 22.2561 29.7524ZM21.6548 37.4742H18.6086V31.7418H21.6548V37.4742Z" fill="black"/>
<path d="M31.9319 29.7524H27.683C26.9176 29.7524 26.2949 30.3751 26.2949 31.1407V38.0756C26.2949 38.841 26.9176 39.4638 27.683 39.4638H31.9319C32.6973 39.4638 33.32 38.8411 33.32 38.0756V31.1407C33.32 30.3751 32.6973 29.7524 31.9319 29.7524ZM31.3305 37.4742H28.2844V31.7418H31.3305V37.4742Z" fill="black"/>
<path d="M41.6057 16.0604H37.3569C36.5915 16.0604 35.9688 16.6831 35.9688 17.4487V24.3836C35.9688 25.149 36.5915 25.7718 37.3569 25.7718H41.6057C42.3711 25.7718 42.9938 25.1491 42.9938 24.3836V17.4487C42.9938 16.6831 42.3711 16.0604 41.6057 16.0604ZM41.0044 23.7824H37.9582V18.0499H41.0044V23.7824Z" fill="black"/>
<path d="M41.6057 29.7524H37.3569C36.5915 29.7524 35.9688 30.3751 35.9688 31.1407V38.0756C35.9688 38.841 36.5915 39.4638 37.3569 39.4638H41.6057C42.3711 39.4638 42.9938 38.8411 42.9938 38.0756V31.1407C42.9938 30.3751 42.3711 29.7524 41.6057 29.7524ZM41.0044 37.4742H37.9582V31.7418H41.0044V37.4742Z" fill="black"/>
</svg>
