<svg width="75" height="75" viewBox="0 0 75 75" fill="none" xmlns="http://www.w3.org/2000/svg">
<g clip-path="url(#clip0_301_8752)">
<path d="M38.7258 71.5996C57.6994 71.5996 73.0805 56.1432 73.0805 37.0767C73.0805 18.0102 57.6994 2.55377 38.7258 2.55377C19.7522 2.55377 4.37109 18.0102 4.37109 37.0767C4.37109 56.1432 19.7522 71.5996 38.7258 71.5996Z" fill="#F7D8D8"/>
<path d="M38.7242 2.55383C37.9942 2.55383 37.2695 2.57687 36.5508 2.62193C54.5118 3.74879 68.732 18.7438 68.732 37.0766C68.732 55.4094 54.5118 70.4047 36.5508 71.5314C37.2695 71.5765 37.9942 71.5995 38.7242 71.5995C57.6978 71.5995 73.0789 56.143 73.0789 37.0766C73.0789 18.0102 57.6978 2.55383 38.7242 2.55383Z" fill="#DFB69F"/>
<path d="M20.141 7.22245C19.5526 7.10204 18.9787 7.48094 18.8582 8.06879C18.8032 8.33742 18.8526 8.60302 18.9784 8.82399C19.6707 8.33453 20.3817 7.87013 21.1102 7.43197C20.7883 7.35938 20.4654 7.28896 20.141 7.22245Z" fill="#3498AC"/>
<path d="M4.17673 32.5744C4.24309 32.8263 4.39263 33.034 4.58795 33.1762C4.65938 32.5378 4.74835 31.9047 4.85398 31.2775C4.33264 31.4677 4.03256 32.0272 4.17673 32.5744Z" fill="#3498AC"/>
<path d="M18.3428 65.4023C18.3431 65.5017 18.3567 65.6027 18.3859 65.703C18.3949 65.7338 18.4051 65.764 18.4166 65.7934C18.4167 65.7944 18.417 65.7956 18.4172 65.7966C18.5182 66.3156 18.973 66.6759 19.4827 66.6759C19.5516 66.6759 19.6214 66.6694 19.6915 66.6557C19.9555 66.6044 20.1781 66.4614 20.3334 66.2662C20.3425 66.2634 20.3517 66.2605 20.3608 66.2578C19.6324 65.7938 18.9223 65.3034 18.2324 64.7872C18.2679 64.9924 18.3046 65.1973 18.3428 65.4023Z" fill="#3498AC"/>
<path d="M57.7608 66.6552C57.831 66.6688 57.9008 66.6755 57.9696 66.6755C58.4792 66.6755 58.9342 66.3151 59.0352 65.7961C59.1007 65.4597 59.1624 65.1229 59.221 64.7862C58.535 65.2993 57.8294 65.787 57.1055 66.2486C57.2612 66.4524 57.4893 66.6023 57.7608 66.6552Z" fill="#3498AC"/>
<path d="M58.5938 8.06879C58.4732 7.4808 57.899 7.10205 57.311 7.22246C56.9867 7.28896 56.6638 7.35938 56.3418 7.43197C57.0703 7.87014 57.7813 8.33453 58.4737 8.82399C58.5994 8.60302 58.6488 8.33743 58.5938 8.06879Z" fill="#3498AC"/>
<path d="M66.9729 16.4469C67.1081 15.8621 66.7436 15.2785 66.159 15.1433C65.8743 15.0777 65.59 15.1305 65.3574 15.2692C65.8595 15.8876 66.3407 16.5236 66.7997 17.1765C66.8587 16.9339 66.9165 16.6906 66.9729 16.4469Z" fill="#3498AC"/>
<path d="M38.7257 19.5716C40.5503 19.5716 42.0294 18.0852 42.0294 16.2516C42.0294 14.418 40.5503 12.9316 38.7257 12.9316C36.901 12.9316 35.4219 14.418 35.4219 16.2516C35.4219 18.0852 36.901 19.5716 38.7257 19.5716Z" fill="#5CDB6D"/>
<path d="M25.8663 34.1586C27.6909 34.1586 29.17 32.6721 29.17 30.8386C29.17 29.005 27.6909 27.5186 25.8663 27.5186C24.0416 27.5186 22.5625 29.005 22.5625 30.8386C22.5625 32.6721 24.0416 34.1586 25.8663 34.1586Z" fill="#5CDB6D"/>
<path d="M55.9151 42.6329C57.7397 42.6329 59.2189 41.1465 59.2189 39.3129C59.2189 37.4793 57.7397 35.9929 55.9151 35.9929C54.0905 35.9929 52.6113 37.4793 52.6113 39.3129C52.6113 41.1465 54.0905 42.6329 55.9151 42.6329Z" fill="#5CDB6D"/>
<path d="M19.4288 68.7195C17.607 68.7195 16.125 67.2302 16.125 65.3995C16.125 63.5687 17.607 62.0795 19.4288 62.0795C21.2506 62.0795 22.7327 63.5687 22.7327 65.3995C22.7327 67.2302 21.2506 68.7195 19.4288 68.7195Z" fill="#5CDB6D"/>
<path d="M58.212 68.9084C56.3902 68.9084 54.9082 67.419 54.9082 65.5884C54.9082 63.7578 56.3902 62.2684 58.212 62.2684C60.0338 62.2684 61.5159 63.7577 61.5159 65.5884C61.5159 67.419 60.0338 68.9084 58.212 68.9084Z" fill="#5CDB6D"/>
<path d="M65.9152 19.403C64.0935 19.403 62.6113 17.9138 62.6113 16.083C62.6113 14.2522 64.0935 12.763 65.9152 12.763C67.737 12.763 69.219 14.2524 69.219 16.083C69.219 17.9136 67.737 19.403 65.9152 19.403Z" fill="#5CDB6D"/>
<path d="M57.5284 11.6069C55.7066 11.6069 54.2246 10.1177 54.2246 8.28692C54.2246 6.45616 55.7066 4.96692 57.5284 4.96692C59.3502 4.96692 60.8323 6.45616 60.8323 8.28692C60.8323 10.1177 59.35 11.6069 57.5284 11.6069Z" fill="#5CDB6D"/>
<path d="M19.4288 11.6069C17.607 11.6069 16.125 10.1177 16.125 8.28692C16.125 6.45616 17.607 4.96692 19.4288 4.96692C21.2506 4.96692 22.7327 6.45616 22.7327 8.28692C22.7327 10.1177 21.2506 11.6069 19.4288 11.6069Z" fill="#5CDB6D"/>
<path d="M4.37018 35.8691C6.1948 35.8691 7.67395 34.3827 7.67395 32.5491C7.67395 30.7155 6.1948 29.2291 4.37018 29.2291C2.54556 29.2291 1.06641 30.7155 1.06641 32.5491C1.06641 34.3827 2.54556 35.8691 4.37018 35.8691Z" fill="#5CDB6D"/>
<path d="M71.2806 51.1651C71.3023 51.1209 71.3216 51.0757 71.337 51.0294C75.7303 40.8894 74.9453 28.4582 69.2391 18.9568C72.2854 15.3151 68.3285 10.1 64.0013 12.1178C63.2409 11.3408 62.4425 10.596 61.6152 9.89179C63.2391 5.4771 57.8192 1.85557 54.4437 5.15398C44.6326 0.199839 32.4299 0.26258 22.673 5.32162C19.2022 1.64344 13.3732 5.58722 15.4746 10.2022C14.2711 11.2545 13.1319 12.3914 12.0816 13.5936C11.1747 14.6316 12.8177 16.0544 13.7183 15.0236C14.6955 13.9053 15.7543 12.8474 16.8726 11.867C19.0351 13.4268 22.1708 12.6322 23.3572 10.2513C27.2725 11.3783 31.0114 12.9958 34.4954 15.0717C34.2037 16.1235 34.3228 17.2982 34.8233 18.2691C31.9558 20.7461 29.3735 23.5481 27.1311 26.6189C25.0609 25.9934 22.7791 27.0404 21.8789 29.0008C17.3136 29.0253 12.7342 29.5164 8.23807 30.4667C7.84106 29.7269 7.23916 29.1138 6.50946 28.7032C7.35421 25.409 8.69218 22.2753 10.4944 19.3778C11.2125 18.223 9.39985 17.0226 8.64885 18.2298C6.73275 21.3103 5.30958 24.6416 4.40948 28.1435C-0.796628 28.2319 -1.67064 35.4341 3.28553 36.8196C3.2125 47.0698 7.64429 57.0355 15.3293 63.8241C13.7262 68.1546 18.9307 71.7266 22.3653 68.6722C32.3889 74.0022 45.057 74.0029 55.0812 68.6739C58.5745 72.1288 64.1695 68.2691 62.2018 63.7525C66.1626 60.2326 69.2394 55.9273 71.2806 51.1651ZM69.9113 48.7346C66.9031 45.746 63.6111 43.0349 60.0964 40.655C60.5955 39.0914 60.1617 37.3322 58.996 36.178C61.9516 31.2638 64.2718 25.9945 65.9051 20.4901C66.4493 20.492 66.9725 20.3915 67.4546 20.2098C72.4592 28.6621 73.3745 39.5597 69.9113 48.7346ZM19.9039 61.0195C18.9894 52.0613 20.5942 43.1243 24.5663 35.0479C27.0338 35.8179 29.7009 34.1952 30.1801 31.6623C37.6734 32.586 44.8902 34.7859 51.663 38.212C51.3372 39.4781 51.6069 40.8742 52.3828 41.9274C44.7487 51.5991 34.6716 58.8768 23.1385 63.0479C22.4396 61.9413 21.2644 61.1672 19.9039 61.0195ZM53.6976 39.3132C53.6976 38.0817 54.6922 37.0799 55.9147 37.0799C58.8558 37.2024 58.8549 41.4245 55.9147 41.5465C54.6922 41.5465 53.6976 40.5447 53.6976 39.3132ZM68.1317 16.0835C68.1317 17.315 67.1371 18.3168 65.9146 18.3168C62.9734 18.1943 62.9741 13.9722 65.9146 13.8502C67.1371 13.8502 68.1317 14.852 68.1317 16.0835ZM62.3406 13.5287C60.8387 15.6391 61.5357 18.6899 63.8002 19.9442C62.2181 25.2538 59.9751 30.3365 57.1216 35.0773C56.5251 34.9058 55.8629 34.8632 55.2496 34.9571C52.267 28.5882 47.9273 22.8516 42.6258 18.2694C43.1267 17.2979 43.2461 16.1252 42.954 15.072C46.3096 13.0727 49.9041 11.4971 53.6628 10.377C54.9121 12.789 58.2634 13.47 60.344 11.6644C61.0335 12.2577 61.7011 12.8809 62.3406 13.5287ZM36.5076 16.2517C36.5076 15.0202 37.5021 14.0184 38.7246 14.0184C41.6659 14.1409 41.665 18.3628 38.7246 18.4848C37.5021 18.4848 36.5076 17.483 36.5076 16.2517ZM57.5273 6.05407C58.75 6.05407 59.7445 7.05589 59.7445 8.28736C59.6225 11.25 55.4319 11.2493 55.3103 8.28736C55.3103 7.05589 56.3049 6.05407 57.5273 6.05407ZM19.4284 10.5205C18.2059 10.5205 17.2113 9.51868 17.2113 8.28721C17.3333 5.32438 21.524 5.32539 21.6456 8.28721C21.6456 9.51868 20.6509 10.5205 19.4284 10.5205ZM23.8148 8.12058C23.8035 7.81891 23.7621 7.5252 23.6931 7.24179C32.7901 2.53745 44.1547 2.45544 53.3219 7.02299C53.2041 7.41697 53.1396 7.83354 53.1374 8.2649C49.1838 9.4345 45.4033 11.0866 41.8739 13.1857C40.1775 11.4309 37.2725 11.4303 35.5755 13.1856C31.8976 10.9979 27.9496 9.29743 23.8148 8.12058ZM36.2621 19.898C37.7317 20.901 39.7172 20.9011 41.1868 19.8982C46.2483 24.2684 50.3947 29.7389 53.2507 35.8137C53.0572 35.9625 52.8763 36.1272 52.71 36.3056C45.5697 32.6839 37.9499 30.3812 30.0351 29.4548C29.8213 28.808 29.4626 28.2272 28.9969 27.7518C31.1211 24.8662 33.5588 22.2307 36.2621 19.898ZM25.8676 28.6055C27.0901 28.6055 28.0846 29.6074 28.0846 30.8388C27.9626 33.8017 23.7719 33.8008 23.6504 30.8388C23.6505 29.6074 24.6451 28.6055 25.8676 28.6055ZM2.15273 32.5493C2.15273 31.3179 3.1473 30.316 4.36978 30.316C7.31088 30.4385 7.31001 34.6605 4.36978 34.7825C3.14744 34.7826 2.15273 33.7808 2.15273 32.5493ZM5.45882 36.8187C5.45882 36.8187 8.7597 36.0988 8.7597 32.578C8.7597 32.578 17.2297 31.2241 21.4913 31.1766C21.5713 32.2294 22.0209 33.1795 22.7104 33.8964C18.4754 42.4165 16.7672 51.8625 17.7505 61.3283C17.3271 61.5048 16.9373 61.746 16.5928 62.0393C9.50287 55.6879 5.45882 45.0462 5.45882 36.8187ZM19.4284 67.633C18.2059 67.633 17.2113 66.6312 17.2113 65.3997C17.2113 64.1682 18.2059 63.1664 19.4284 63.1664C20.6345 63.1664 21.6456 64.2111 21.6456 65.3997C21.6456 66.6312 20.6509 67.633 19.4284 67.633ZM38.7246 70.5131C33.4503 70.5131 28.2346 69.2499 23.573 66.8517C23.7622 66.3094 23.8457 65.6915 23.8089 65.116C35.7393 60.8156 46.1647 53.3003 54.0625 43.3073C54.7113 43.6116 55.4313 43.7512 56.1466 43.7137C56.6294 45.5056 57.0109 47.3338 57.2813 49.1618C57.4884 50.5612 59.6391 50.2485 59.4314 48.8439C59.1444 46.9029 58.738 44.9616 58.222 43.0602C58.4818 42.8985 58.7232 42.71 58.9431 42.4992C62.5696 44.9611 65.9506 47.7873 69.0135 50.9152C67.114 55.1144 64.3492 58.9166 60.8365 62.0584C60.4892 61.7976 60.1019 61.5878 59.6861 61.4386C59.8997 59.4183 59.9927 57.3784 59.9615 55.3609C59.9394 53.9412 57.7661 53.9745 57.7883 55.3945C57.8184 57.3338 57.7286 59.2947 57.5223 61.2367C54.9592 61.6443 53.2829 64.302 53.9891 66.7928C49.2983 69.229 44.0422 70.5131 38.7246 70.5131ZM58.2117 67.8219C56.9892 67.8219 55.9946 66.8201 55.9946 65.5887C56.1166 62.6258 60.3073 62.6268 60.4289 65.5887C60.4289 66.8201 59.4343 67.8219 58.2117 67.8219Z" fill="black"/>
</g>
<defs>
<clipPath id="clip0_301_8752">
<rect width="74.1527" height="74.1527" fill="white"/>
</clipPath>
</defs>
</svg>
