<svg width="75" height="75" viewBox="0 0 75 75" fill="none" xmlns="http://www.w3.org/2000/svg">
<g clip-path="url(#clip0_301_9178)">
<path d="M54.5166 60.7121H68.1459C70.8831 60.7121 73.102 58.4931 73.102 55.756V11.1509C73.102 8.41369 70.8831 6.19476 68.1459 6.19476H6.1944C3.45721 6.19476 1.23828 8.41369 1.23828 11.1509V55.756C1.23828 58.4931 3.45721 60.7121 6.1944 60.7121H44.6043" fill="white"/>
<path d="M68.1448 6.19489H64.4277C67.1649 6.19489 69.3839 8.41382 69.3839 11.151V55.7561C69.3839 58.4933 67.1649 60.7122 64.4277 60.7122H68.1448C70.882 60.7122 73.1009 58.4933 73.1009 55.7561V11.151C73.1009 8.41382 70.882 6.19489 68.1448 6.19489Z" fill="#BFBFBF"/>
<path d="M47.0838 50.8H13.6299C10.8928 50.8 8.67383 48.581 8.67383 45.8438V21.0632C8.67383 18.326 10.8928 16.1071 13.6299 16.1071H47.0838V50.8Z" fill="#F5F5F5"/>
<path d="M43.3652 16.1071H47.0823V50.8H43.3652V16.1071Z" fill="#CFD8DC"/>
<path d="M67.6389 27.308C67.9669 27.6567 68.1488 28.1179 68.1469 28.5966C68.1489 29.3373 67.7177 30.0107 67.0442 30.3189C66.368 30.6325 65.9337 31.3082 65.929 32.0535C65.9269 32.2784 65.969 32.5015 66.0529 32.7102C66.1347 32.9195 66.1767 33.1422 66.1768 33.3669C66.1716 34.3878 65.3632 35.2235 64.3431 35.2626C63.3526 35.2989 62.558 36.0935 62.5217 37.084C62.5108 37.5722 62.3056 38.036 61.9517 38.3726C61.5988 38.7217 61.1224 38.9176 60.626 38.9177C60.4013 38.9176 60.1786 38.8756 59.9693 38.7938C59.7606 38.7099 59.5375 38.6678 59.3126 38.6699C58.5673 38.6746 57.8916 39.1089 57.578 39.7851C57.2698 40.4586 56.5964 40.8898 55.8557 40.8878C55.377 40.8897 54.9158 40.7079 54.5671 40.3798C53.8604 39.7169 52.7654 39.7008 52.0395 40.3426C52.0271 40.355 52.0023 40.3674 51.9899 40.3798C51.6413 40.7079 51.1801 40.8897 50.7013 40.8878C49.9607 40.8898 49.2872 40.4586 48.9791 39.7851C48.6654 39.1089 47.9898 38.6746 47.2445 38.6699C47.0196 38.6678 46.7964 38.7099 46.5878 38.7938C46.3785 38.8756 46.1558 38.9176 45.9311 38.9177C45.4346 38.9176 44.9583 38.7217 44.6053 38.3726C44.2514 38.036 44.0463 37.5722 44.0354 37.084C43.999 36.0935 43.2045 35.2989 42.214 35.2626C41.1938 35.2235 40.3854 34.3878 40.3802 33.3669C40.3804 33.1422 40.4224 32.9195 40.5041 32.7102C40.588 32.5015 40.6301 32.2784 40.628 32.0535C40.6234 31.3082 40.189 30.6325 39.5129 30.3189C38.8394 30.0107 38.4082 29.3373 38.4102 28.5966C38.4083 28.1179 38.5901 27.6567 38.9182 27.308C39.5955 26.5825 39.5955 25.4564 38.9182 24.7308C38.5901 24.3822 38.4083 23.921 38.4102 23.4423C38.4082 22.7016 38.8394 22.0281 39.5129 21.72C40.189 21.4063 40.6234 20.7307 40.628 19.9854C40.6301 19.7605 40.588 19.5373 40.5041 19.3287C40.4224 19.1194 40.3804 18.8967 40.3802 18.672C40.3854 17.6511 41.1938 16.8154 42.214 16.7763C43.2045 16.7399 43.999 15.9454 44.0354 14.9549C44.0745 13.9347 44.9102 13.1264 45.9311 13.1211C46.1558 13.1213 46.3785 13.1633 46.5878 13.245C46.7964 13.3289 47.0196 13.371 47.2445 13.3689C47.9898 13.3643 48.6654 12.9299 48.9791 12.2538C49.2872 11.5803 49.9607 11.1491 50.7013 11.1511C51.1801 11.1492 51.6413 11.331 51.9899 11.6591C52.7155 12.3364 53.8416 12.3364 54.5671 11.6591C55.0122 11.2459 55.6284 11.071 56.2242 11.1887C56.82 11.3064 57.3234 11.7024 57.578 12.2538C57.8916 12.9299 58.5673 13.3643 59.3126 13.3689C59.5375 13.371 59.7606 13.3289 59.9693 13.245C60.1786 13.1633 60.4013 13.1213 60.626 13.1211C61.6469 13.1264 62.4826 13.9347 62.5217 14.9549C62.558 15.9454 63.3526 16.7399 64.3431 16.7763C65.3632 16.8154 66.1716 17.6511 66.1768 18.672C66.1767 18.8967 66.1347 19.1194 66.0529 19.3287C65.969 19.5373 65.9269 19.7605 65.929 19.9854C65.9337 20.7307 66.368 21.4063 67.0442 21.72C67.7177 22.0281 68.1489 22.7016 68.1469 23.4423C68.1488 23.921 67.9669 24.3822 67.6389 24.7308C66.9615 25.4564 66.9615 26.5825 67.6389 27.308Z" fill="#5CDB6D"/>
<path d="M67.1301 26.0198C67.134 25.5422 67.315 25.083 67.6381 24.7312C67.9662 24.3826 68.148 23.9213 68.1461 23.4426C68.1481 22.7019 67.7169 22.0285 67.0434 21.7204C66.3673 21.4067 65.9329 20.731 65.9282 19.9857C65.9261 19.7608 65.9682 19.5377 66.0521 19.329C66.1339 19.1197 66.1759 18.897 66.176 18.6723C66.1708 17.6514 65.3625 16.8158 64.3423 16.7766C63.3518 16.7403 62.5572 15.9457 62.5209 14.9553C62.4818 13.9351 61.6461 13.1267 60.6252 13.1215C60.4005 13.1217 60.1778 13.1637 59.9685 13.2454C59.7598 13.3293 59.5367 13.3714 59.3118 13.3693C58.5665 13.3646 57.8908 12.9303 57.5772 12.2542C57.3226 11.7028 56.8192 11.3067 56.2234 11.189C55.6276 11.0713 55.0115 11.2462 54.5663 11.6594C54.3321 11.8621 54.0524 12.0054 53.7511 12.077C53.7907 12.1339 53.8271 12.1931 53.8601 12.2542C54.1737 12.9303 54.8494 13.3646 55.5947 13.3693C55.8196 13.3714 56.0427 13.3293 56.2514 13.2454C56.4607 13.1637 56.6834 13.1217 56.9081 13.1215C57.929 13.1267 58.7647 13.9351 58.8038 14.9553C58.8401 15.9457 59.6347 16.7403 60.6252 16.7766C61.6454 16.8158 62.4537 17.6514 62.459 18.6723C62.4588 18.897 62.4168 19.1197 62.3351 19.329C62.2511 19.5377 62.209 19.7608 62.2111 19.9857C62.2158 20.731 62.6502 21.4067 63.3263 21.7204C63.9998 22.0285 64.431 22.7019 64.429 23.4426C64.4309 23.9213 64.2491 24.3826 63.921 24.7312C63.2437 25.4567 63.2437 26.5828 63.921 27.3084C64.2491 27.657 64.4309 28.1183 64.429 28.597C64.431 29.3377 63.9998 30.0111 63.3263 30.3192C62.6502 30.6329 62.2158 31.3086 62.2111 32.0539C62.209 32.2788 62.2511 32.5019 62.3351 32.7106C62.4168 32.9199 62.4588 33.1426 62.459 33.3672C62.4537 34.3882 61.6454 35.2238 60.6252 35.263C59.6347 35.2993 58.8401 36.0939 58.8038 37.0843C58.7929 37.5726 58.5878 38.0364 58.2339 38.3729C57.8809 38.7221 57.4046 38.918 56.9081 38.9181C56.6834 38.9179 56.4607 38.8759 56.2514 38.7942C56.0427 38.7103 55.8196 38.6682 55.5947 38.6703C54.8494 38.6749 54.1737 39.1093 53.8601 39.7854C53.8254 39.8462 53.7874 39.9049 53.7461 39.9614C54.0494 40.0323 54.331 40.1761 54.5663 40.3802C54.915 40.7082 55.3762 40.89 55.8549 40.8882C56.5956 40.8902 57.2691 40.459 57.5772 39.7854C57.8908 39.1093 58.5665 38.6749 59.3118 38.6703C59.5367 38.6682 59.7598 38.7103 59.9685 38.7942C60.1778 38.8759 60.4005 38.9179 60.6252 38.9181C61.1216 38.918 61.598 38.7221 61.951 38.3729C62.3048 38.0364 62.51 37.5726 62.5209 37.0843C62.5572 36.0939 63.3518 35.2993 64.3423 35.263C65.3625 35.2238 66.1708 34.3882 66.176 33.3672C66.1759 33.1426 66.1339 32.9199 66.0521 32.7106C65.9682 32.5019 65.9261 32.2788 65.9282 32.0539C65.9329 31.3086 66.3673 30.6329 67.0434 30.3192C67.7169 30.0111 68.1481 29.3377 68.1461 28.597C68.148 28.1183 67.9662 27.657 67.6381 27.3084C67.315 26.9566 67.134 26.4974 67.1301 26.0198Z" fill="#34A853"/>
<path d="M53.2787 34.6929C58.0688 34.6929 61.9519 30.8097 61.9519 26.0196C61.9519 21.2296 58.0688 17.3464 53.2787 17.3464C48.4886 17.3464 44.6055 21.2296 44.6055 26.0196C44.6055 30.8097 48.4886 34.6929 53.2787 34.6929Z" fill="#F7D8D8"/>
<path d="M53.2785 17.3464C52.6534 17.3474 52.0303 17.416 51.4199 17.5509C55.3928 18.4291 58.2211 21.9509 58.2211 26.0197C58.2211 30.0884 55.3928 33.6102 51.4199 34.4884C54.6676 35.2063 58.0398 34.0037 60.1003 31.3928C62.1608 28.7818 62.5467 25.2225 61.0937 22.2306C59.6406 19.2387 56.6045 17.3413 53.2785 17.3464Z" fill="#F7D8D8"/>
<path d="M54.5177 53.2783V68.1467L49.5616 63.1906L44.6055 68.1467V38.3728C44.9584 38.722 45.4348 38.9178 45.9312 38.918C46.1559 38.9178 46.3786 38.8758 46.5879 38.7941C46.7966 38.7102 47.0197 38.6681 47.2446 38.6702C47.9899 38.6748 48.6656 39.1092 48.9792 39.7853C49.2874 40.4588 49.9608 40.89 50.7015 40.888C51.1802 40.8899 51.6414 40.7081 51.9901 40.38C52.0025 40.3676 52.0273 40.3553 52.0396 40.3429V55.7564L54.5177 53.2783Z" fill="#5CDB6D"/>
<path d="M61.9513 38.3728V55.7564L56.9952 50.8003L52.0391 55.7564V40.3429C52.7649 39.7011 53.86 39.7172 54.5667 40.38C54.9153 40.7081 55.3766 40.8899 55.8553 40.888C56.596 40.89 57.2694 40.4588 57.5775 39.7853C57.8912 39.1092 58.5669 38.6748 59.3122 38.6702C59.5371 38.6681 59.7602 38.7102 59.9689 38.7941C60.1782 38.8758 60.4009 38.9178 60.6255 38.918C61.122 38.9178 61.5984 38.722 61.9513 38.3728Z" fill="#5CDB6D"/>
<path d="M60.6238 38.918C60.3991 38.9178 60.1764 38.8758 59.9671 38.7941C59.7584 38.7102 59.5353 38.6681 59.3104 38.6702C58.924 38.6747 58.548 38.7966 58.2324 39.0196V52.0393L61.9495 55.7564V38.3728C61.5966 38.722 61.1202 38.9178 60.6238 38.918Z" fill="#34A853"/>
<path d="M68.1467 4.95618H6.19515C2.77536 4.96027 0.00409638 7.73154 0 11.1513V55.7564C0.00409638 59.1762 2.77536 61.9475 6.19515 61.9516H43.3661V68.1467C43.3662 68.6478 43.668 69.0994 44.131 69.2912C44.5939 69.4829 45.1267 69.3769 45.4811 69.0227L49.5612 64.9426L53.6413 69.0227C53.9957 69.3769 54.5285 69.4829 54.9914 69.2912C55.4544 69.0994 55.7562 68.6478 55.7564 68.1467V61.9516H68.1467C71.5664 61.9475 74.3377 59.1762 74.3418 55.7564V11.1513C74.3377 7.73154 71.5664 4.96027 68.1467 4.95618ZM40.0331 29.1978C39.8415 29.1094 39.7039 28.9348 39.6627 28.7279C39.6215 28.5211 39.6818 28.307 39.8249 28.1521C40.9336 26.9471 40.9336 25.0935 39.8249 23.8886C39.6814 23.7334 39.6209 23.5189 39.6624 23.3116C39.7038 23.1044 39.8421 22.9296 40.0343 22.8416C41.5185 22.1509 42.227 20.439 41.6649 18.9015C41.5917 18.7035 41.6178 18.4825 41.7349 18.307C41.8521 18.1315 42.0462 18.0226 42.2571 18.0143C43.8934 17.9456 45.2042 16.6348 45.2729 14.9985C45.2811 14.7873 45.3901 14.5929 45.5659 14.4756C45.7418 14.3584 45.9632 14.3326 46.1613 14.4063C47.6991 14.965 49.409 14.2569 50.1014 12.7745C50.189 12.5826 50.3635 12.4444 50.5704 12.4032C50.7773 12.362 50.9914 12.4227 51.1459 12.5663C52.3513 13.6751 54.2053 13.6751 55.4107 12.5663C55.5656 12.4227 55.78 12.3623 55.987 12.4037C56.1941 12.4452 56.3687 12.5836 56.4564 12.7757C57.1475 14.2588 58.8581 14.967 60.3953 14.4063C60.5934 14.3326 60.8148 14.3584 60.9906 14.4756C61.1665 14.5929 61.2755 14.7873 61.2837 14.9985C61.3532 16.637 62.667 17.9487 64.3057 18.0156C64.5164 18.0235 64.7106 18.132 64.8279 18.3074C64.9451 18.4827 64.9712 18.7036 64.8979 18.9015C64.3354 20.4393 65.0446 22.1518 66.5297 22.8416C66.7212 22.9299 66.8589 23.1046 66.9001 23.3114C66.9413 23.5183 66.881 23.7324 66.7379 23.8873C65.6292 25.0923 65.6292 26.9459 66.7379 28.1508C66.8814 28.306 66.9418 28.5205 66.9004 28.7278C66.859 28.935 66.7206 29.1098 66.5285 29.1978C65.0443 29.8885 64.3358 31.6004 64.8979 33.1379C64.9711 33.3359 64.945 33.5569 64.8278 33.7324C64.7107 33.9079 64.5165 34.0167 64.3057 34.0251C62.6647 34.0909 61.3495 35.4061 61.2837 37.0471C61.2755 37.2582 61.1665 37.4527 60.9906 37.5699C60.8148 37.6872 60.5934 37.713 60.3953 37.6393C58.8575 37.0799 57.1472 37.7882 56.4552 39.2711C56.3708 39.4648 56.1958 39.6041 55.988 39.6428C55.7806 39.6862 55.5651 39.6256 55.4107 39.4805C54.2051 38.3723 52.3515 38.3723 51.1459 39.4805C50.9914 39.6254 50.7759 39.686 50.5685 39.6428C50.3605 39.604 50.1852 39.4649 50.1002 39.2711C49.4095 37.7875 47.6985 37.0792 46.1613 37.6405C45.9632 37.7142 45.7418 37.6884 45.5659 37.5712C45.3901 37.4539 45.2811 37.2595 45.2729 37.0483C45.2072 35.4069 43.8923 34.0909 42.2509 34.0238C42.0401 34.0159 41.8459 33.9074 41.7287 33.732C41.6115 33.5567 41.5854 33.3357 41.6587 33.1379C42.2221 31.6017 41.5158 29.8898 40.0331 29.1978ZM53.6426 52.4011L53.2783 52.7654V41.1185C53.4441 41.1181 53.604 41.1805 53.7256 41.2932C54.2998 41.8314 55.0573 42.1309 55.8443 42.1308C56.0548 42.1304 56.2648 42.1096 56.4713 42.0688C57.4572 41.8764 58.2886 41.2177 58.7015 40.302C58.8467 39.9896 59.2072 39.8408 59.5304 39.96C59.9075 40.0936 60.3066 40.1537 60.7063 40.1372V52.7654L57.8652 49.9243C57.3813 49.4406 56.597 49.4406 56.1132 49.9243L53.6426 52.4011ZM53.2783 65.1557L50.4372 62.3146C49.9534 61.8309 49.169 61.8309 48.6852 62.3146L45.8441 65.1557V40.1347C46.2438 40.1513 46.6429 40.0912 47.02 39.9575C47.3425 39.8377 47.7029 39.9861 47.8476 40.2983C48.2617 41.2164 49.0963 41.8758 50.0853 42.0664C50.3206 42.1129 50.5604 42.1333 50.8002 42.1271V55.7564C50.8003 56.2575 51.1022 56.7091 51.5651 56.9009C52.0281 57.0926 52.5609 56.9866 52.9153 56.6324L53.2783 56.2694V65.1557ZM71.8637 55.7564C71.8637 57.8093 70.1995 59.4735 68.1467 59.4735H55.7564V53.7913L56.9954 52.5523L61.0755 56.6324C61.4299 56.9866 61.9627 57.0926 62.4256 56.9009C62.8885 56.7091 63.1904 56.2575 63.1905 55.7564V38.7904C63.5363 38.3048 63.7339 37.7294 63.7592 37.1338C63.7744 36.7901 64.0499 36.5151 64.3936 36.5006C65.3981 36.4619 66.3232 35.9442 66.8815 35.1083C67.4399 34.2724 67.5638 33.2195 67.2149 32.2768C67.0966 31.9543 67.2453 31.595 67.5569 31.4504C68.4707 31.0305 69.1279 30.198 69.3241 29.2116C69.5203 28.2252 69.2318 27.2046 68.5481 26.467C68.3152 26.2138 68.3152 25.8244 68.5481 25.5712C69.2318 24.8338 69.5204 23.8133 69.3242 22.8271C69.1279 21.8409 68.4707 21.0086 67.5569 20.589C67.2444 20.4453 67.0949 20.0854 67.2137 19.7626C67.5626 18.8199 67.4386 17.767 66.8803 16.9311C66.322 16.0952 65.3969 15.5775 64.3924 15.5387C64.0487 15.5243 63.7731 15.2493 63.758 14.9056C63.7204 13.9008 63.2033 12.9749 62.3674 12.4159C61.5316 11.857 60.4784 11.7327 59.5354 12.0818C59.2128 12.2036 58.851 12.0547 58.7077 11.7411C58.2879 10.8272 57.4553 10.17 56.469 9.97384C55.4826 9.77764 54.4619 10.0662 53.7243 10.7499C53.4716 10.9826 53.0826 10.9826 52.8298 10.7499C52.0924 10.0662 51.0719 9.77761 50.0857 9.97382C49.0995 10.17 48.2672 10.8273 47.8476 11.7411C47.7038 12.0549 47.3419 12.2042 47.0187 12.0831C46.0757 11.734 45.0225 11.8582 44.1867 12.4172C43.3508 12.9761 42.8337 13.902 42.7961 14.9068C42.781 15.2505 42.5054 15.5255 42.1617 15.54C41.1572 15.5787 40.2321 16.0964 39.6738 16.9323C39.1155 17.7683 38.9915 18.8211 39.3404 19.7638C39.4587 20.0863 39.31 20.4456 38.9985 20.5903C38.0846 21.0101 37.4274 21.8426 37.2312 22.829C37.035 23.8154 37.3236 24.836 38.0072 25.5736C38.2401 25.8268 38.2401 26.2163 38.0072 26.4695C37.3236 27.2068 37.035 28.2273 37.2312 29.2135C37.4274 30.1997 38.0846 31.0321 38.9985 31.4516C39.311 31.5953 39.4604 31.9552 39.3417 32.278C38.9928 33.2208 39.1167 34.2736 39.675 35.1095C40.2334 35.9454 41.1585 36.4631 42.163 36.5019C42.5067 36.5163 42.7822 36.7913 42.7973 37.135C42.8229 37.7302 43.0205 38.3052 43.3661 38.7904V59.4735H6.19515C4.14226 59.4735 2.47806 57.8093 2.47806 55.7564V11.1513C2.47806 9.09843 4.14226 7.43424 6.19515 7.43424H68.1467C70.1995 7.43424 71.8637 9.09843 71.8637 11.1513V55.7564Z" fill="#1E1E1E"/>
<path d="M13.6307 49.5611C11.5778 49.5611 9.91361 47.8969 9.91361 45.844V21.0634C9.91361 19.0105 11.5778 17.3463 13.6307 17.3463H35.9332C36.6175 17.3463 37.1723 16.7916 37.1723 16.1073C37.1723 15.423 36.6175 14.8682 35.9332 14.8682H13.6307C10.2109 14.8723 7.43964 17.6436 7.43555 21.0634V45.844C7.43964 49.2638 10.2109 52.035 13.6307 52.0391H37.1723C37.8566 52.0391 38.4113 51.4844 38.4113 50.8001C38.4113 50.1158 37.8566 49.5611 37.1723 49.5611H13.6307Z" fill="#1E1E1E"/>
<path d="M14.8699 34.6927H32.2163C32.9006 34.6927 33.4553 34.1379 33.4553 33.4536C33.4553 32.7693 32.9006 32.2146 32.2163 32.2146H14.8699C14.1856 32.2146 13.6309 32.7693 13.6309 33.4536C13.6309 34.1379 14.1856 34.6927 14.8699 34.6927Z" fill="#1E1E1E"/>
<path d="M14.8699 29.7367H32.2163C32.9006 29.7367 33.4553 29.1819 33.4553 28.4976C33.4553 27.8133 32.9006 27.2586 32.2163 27.2586H14.8699C14.1856 27.2586 13.6309 27.8133 13.6309 28.4976C13.6309 29.1819 14.1856 29.7367 14.8699 29.7367Z" fill="#1E1E1E"/>
<path d="M14.8699 24.7805H32.2163C32.9006 24.7805 33.4553 24.2258 33.4553 23.5415C33.4553 22.8572 32.9006 22.3024 32.2163 22.3024H14.8699C14.1856 22.3024 13.6309 22.8572 13.6309 23.5415C13.6309 24.2258 14.1856 24.7805 14.8699 24.7805Z" fill="#1E1E1E"/>
<path d="M13.7325 46.3396C13.9296 46.7913 14.3758 47.0832 14.8687 47.083C15.0392 47.0838 15.2081 47.0487 15.3643 46.9801C16.5114 46.554 17.5656 45.9108 18.4693 45.0857C18.8047 44.7509 19.0981 44.3764 19.3428 43.9705C19.8159 44.5025 20.372 44.9544 20.9895 45.3087C21.8506 45.8717 22.9224 46.0087 23.8975 45.6804C24.2712 45.5353 24.6093 45.3113 24.8887 45.0237C25.4494 45.3741 26.0671 45.6236 26.7138 45.7609L27.6505 45.9827C29.5624 46.5428 31.549 46.806 33.5408 46.7633C33.9824 46.7314 34.3734 46.4664 34.5666 46.0681C34.7598 45.6698 34.7258 45.1986 34.4774 44.8322C34.229 44.4657 33.804 44.2596 33.3624 44.2915C31.6243 44.3142 29.8929 44.0718 28.2279 43.5728L27.2701 43.3461C26.1141 43.0797 25.8167 42.6138 25.6941 42.2855C25.4781 41.709 24.8717 41.3784 24.2702 41.5094C23.6687 41.6403 23.2545 42.193 23.2978 42.8071C23.3116 43.0292 23.2064 43.242 23.0215 43.3659C22.732 43.4027 22.4394 43.3273 22.2037 43.1553C21.2017 42.5314 20.4482 41.5781 20.0726 40.4591C19.8594 39.8829 19.2562 39.55 18.655 39.6767C18.0539 39.8034 17.6364 40.3514 17.6738 40.9647C17.6947 41.851 17.3475 42.7064 16.7148 43.3275C16.0268 43.9292 15.2327 44.3972 14.373 44.7078C14.0716 44.8391 13.8347 45.0848 13.7146 45.3909C13.5944 45.697 13.6009 46.0383 13.7325 46.3396Z" fill="#1E1E1E"/>
<path d="M53.2775 35.9315C58.7519 35.9315 63.1897 31.4937 63.1897 26.0193C63.1897 20.5449 58.7519 16.1071 53.2775 16.1071C47.8031 16.1071 43.3652 20.5449 43.3652 26.0193C43.3714 31.4911 47.8056 35.9254 53.2775 35.9315ZM53.2775 18.5851C57.3833 18.5851 60.7117 21.9135 60.7117 26.0193C60.7117 30.1251 57.3833 33.4535 53.2775 33.4535C49.1717 33.4535 45.8433 30.1251 45.8433 26.0193C45.8474 21.9152 49.1734 18.5892 53.2775 18.5851Z" fill="#1E1E1E"/>
</g>
<defs>
<clipPath id="clip0_301_9178">
<rect width="74.3418" height="74.3418" fill="white"/>
</clipPath>
</defs>
</svg>
