<svg width="55" height="56" viewBox="0 0 55 56" fill="none" xmlns="http://www.w3.org/2000/svg">
<path d="M28.132 5.33379H25.648C25.2767 4.03314 24.4918 2.88887 23.4121 2.0742C22.3324 1.25954 21.0166 0.818848 19.664 0.818848C18.3114 0.818848 16.9956 1.25954 15.9159 2.0742C14.8362 2.88887 14.0513 4.03314 13.68 5.33379H11.196C10.7477 5.33693 10.3186 5.51641 10.0016 5.83342C9.68462 6.15043 9.50514 6.57948 9.502 7.02779V10.4178C9.50699 11.4644 9.92497 12.4667 10.665 13.2068C11.4051 13.9468 12.4074 14.3648 13.454 14.3698H25.874C26.9206 14.3648 27.9229 13.9468 28.663 13.2068C29.403 12.4667 29.821 11.4644 29.826 10.4178V7.02779C29.8229 6.57948 29.6434 6.15043 29.3264 5.83342C29.0094 5.51641 28.5803 5.33693 28.132 5.33379Z" fill="#FF9420"/>
<path d="M32.648 7.59277H32.083V10.4158C32.0835 11.2314 31.9233 12.0392 31.6114 12.7929C31.2995 13.5465 30.8421 14.2313 30.2653 14.8081C29.6885 15.3848 29.0038 15.8422 28.2501 16.1541C27.4964 16.466 26.6887 16.6263 25.873 16.6258H13.453C12.6373 16.6263 11.8296 16.466 11.0759 16.1541C10.3222 15.8422 9.63745 15.3848 9.06069 14.8081C8.48393 14.2313 8.02653 13.5465 7.71463 12.7929C7.40274 12.0392 7.24247 11.2314 7.243 10.4158V7.59277H6.679C5.86334 7.59225 5.05558 7.75252 4.30191 8.06441C3.54824 8.37631 2.86345 8.83371 2.28669 9.41047C1.70993 9.98723 1.25253 10.672 0.940632 11.4257C0.628737 12.1794 0.46847 12.9871 0.468995 13.8028V42.0298C0.46847 42.8454 0.628737 43.6532 0.940632 44.4069C1.25253 45.1605 1.70993 45.8453 2.28669 46.4221C2.86345 46.9988 3.54824 47.4562 4.30191 47.7681C5.05558 48.08 5.86334 48.2403 6.679 48.2398H23.344L23.844 45.4618C24.0663 44.2068 24.6647 43.049 25.56 42.1418L27.367 40.3348H8.937C8.49498 40.324 8.07467 40.1409 7.76585 39.8245C7.45702 39.508 7.28415 39.0834 7.28415 38.6413C7.28415 38.1991 7.45702 37.7745 7.76585 37.4581C8.07467 37.1417 8.49498 36.9585 8.937 36.9478H30.39C30.4973 36.9405 30.605 36.9558 30.706 36.9928H30.729L38.858 28.8638V13.8028C38.8585 12.9871 38.6983 12.1794 38.3864 11.4257C38.0745 10.672 37.6171 9.98723 37.0403 9.41047C36.4635 8.83371 35.7788 8.37631 35.0251 8.06441C34.2714 7.75252 33.4637 7.59225 32.648 7.59277ZM30.39 32.9928H8.937C8.49498 32.982 8.07467 32.7989 7.76585 32.4825C7.45702 32.1661 7.28415 31.7414 7.28415 31.2993C7.28415 30.8571 7.45702 30.4325 7.76585 30.1161C8.07467 29.7997 8.49498 29.6165 8.937 29.6058H30.39C30.832 29.6165 31.2523 29.7997 31.5611 30.1161C31.87 30.4325 32.0428 30.8571 32.0428 31.2993C32.0428 31.7414 31.87 32.1661 31.5611 32.4825C31.2523 32.7989 30.832 32.982 30.39 32.9928ZM30.39 25.6538H8.937C8.49498 25.643 8.07467 25.4599 7.76585 25.1435C7.45702 24.8271 7.28415 24.4024 7.28415 23.9603C7.28415 23.5181 7.45702 23.0935 7.76585 22.7771C8.07467 22.4607 8.49498 22.2775 8.937 22.2668H30.39C30.832 22.2775 31.2523 22.4607 31.5611 22.7771C31.87 23.0935 32.0428 23.5181 32.0428 23.9603C32.0428 24.4024 31.87 24.8271 31.5611 25.1435C31.2523 25.4599 30.832 25.643 30.39 25.6538Z" fill="#FF9420"/>
<path d="M28.757 55.0136C28.5094 55.0139 28.2647 54.9599 28.0403 54.8554C27.8158 54.751 27.617 54.5985 27.4577 54.4089C27.2985 54.2193 27.1828 53.9971 27.1188 53.7579C27.0547 53.5188 27.0439 53.2685 27.087 53.0246L28.287 46.2386C28.3483 45.8978 28.5123 45.5838 28.757 45.3386L45.524 28.5706C47.583 26.5066 49.607 27.0646 50.713 28.1706L53.506 30.9636C54.2466 31.705 54.6627 32.7102 54.6627 33.7581C54.6627 34.8061 54.2466 35.8112 53.506 36.5526L36.74 53.3206C36.4961 53.567 36.1815 53.7312 35.84 53.7906L29.054 54.9906C28.957 55.0086 28.8586 55.0176 28.76 55.0176L28.757 55.0136Z" fill="#FF9420"/>
</svg>
