<svg width="55" height="44" viewBox="0 0 55 44" fill="none" xmlns="http://www.w3.org/2000/svg">
<path d="M40.542 30.1571C40.1308 27.3599 38.7305 24.8028 36.5953 22.9497C34.46 21.0966 31.7312 20.0704 28.904 20.0571H26.269C23.4417 20.0704 20.7129 21.0966 18.5777 22.9497C16.4424 24.8028 15.0421 27.3599 14.631 30.1571L13.368 38.9871C13.3279 39.2728 13.355 39.5638 13.447 39.8372C13.539 40.1106 13.6934 40.3588 13.898 40.5621C14.398 41.0621 17.432 43.5831 27.591 43.5831C37.75 43.5831 40.782 41.0671 41.284 40.5621C41.488 40.3585 41.6419 40.1102 41.7333 39.8368C41.8248 39.5635 41.8514 39.2725 41.811 38.9871L40.542 30.1571Z" fill="#FF9420"/>
<path d="M16.5889 21.4212C14.1957 23.6272 12.6384 26.5926 12.181 29.8152L11.2649 36.1542C3.91295 36.1092 1.68195 33.4312 1.31295 32.8862C1.16932 32.6882 1.06682 32.4635 1.01152 32.2253C0.956213 31.987 0.949218 31.7401 0.99095 31.4992L1.53595 28.4292C1.81973 26.8245 2.48627 25.3119 3.47907 24.0196C4.47186 22.7273 5.76163 21.6935 7.23901 21.0058C8.71639 20.3181 10.3378 19.9968 11.9658 20.0691C13.5938 20.1414 15.1804 20.6052 16.591 21.4212H16.5889Z" fill="#FF9420"/>
<path d="M54.178 31.4989C54.2197 31.7399 54.2127 31.9868 54.1574 32.225C54.1021 32.4633 53.9996 32.688 53.856 32.8859C53.485 33.4309 51.256 36.1049 43.902 36.1549L42.986 29.8159C42.5285 26.5934 40.9713 23.628 38.578 21.4219C39.9887 20.6049 41.5756 20.1402 43.2042 20.0673C44.8328 19.9944 46.4549 20.3154 47.933 21.0031C49.411 21.6908 50.7014 22.7248 51.6946 24.0176C52.6877 25.3103 53.3544 26.8236 53.638 28.4289L54.178 31.4989Z" fill="#FF9420"/>
<path d="M17.01 15.9732C16.3867 16.8573 15.5593 17.5778 14.5979 18.0737C13.6365 18.5695 12.5697 18.8259 11.488 18.8212C10.4088 18.8215 9.3449 18.5654 8.38411 18.0739C7.42331 17.5824 6.59309 16.8695 5.96188 15.9941C5.33067 15.1187 4.91656 14.1059 4.75367 13.039C4.59078 11.9721 4.68379 10.8818 5.02502 9.85798C5.36625 8.83412 5.94594 7.90602 6.71629 7.15018C7.48665 6.39435 8.42561 5.83243 9.45577 5.51074C10.4859 5.18905 11.5778 5.1168 12.6414 5.29996C13.705 5.48311 14.7098 5.91643 15.573 6.56417C15.3249 7.53497 15.2002 8.53318 15.202 9.53517C15.204 11.8062 15.8294 14.0331 17.01 15.9732Z" fill="#FF9420"/>
<path d="M50.487 12.0119C50.4882 12.9065 50.3128 13.7925 49.971 14.6192C49.6292 15.4459 49.1276 16.1971 48.4949 16.8296C47.8623 17.4621 47.1111 17.9636 46.2844 18.3053C45.4576 18.647 44.5716 18.8222 43.677 18.8209C42.5953 18.8257 41.5284 18.5692 40.5671 18.0734C39.6057 17.5776 38.7782 16.857 38.155 15.9729C39.3355 14.0328 39.9609 11.8059 39.963 9.53489C39.9647 8.5329 39.8401 7.53468 39.592 6.56389C40.6037 5.80536 41.8067 5.34351 43.0661 5.23009C44.3256 5.11667 45.5917 5.35615 46.7227 5.9217C47.8537 6.48726 48.8049 7.35655 49.4698 8.4322C50.1346 9.50785 50.4868 10.7474 50.487 12.0119Z" fill="#FF9420"/>
<path d="M27.584 18.822C32.7125 18.822 36.87 14.6645 36.87 9.536C36.87 4.40748 32.7125 0.25 27.584 0.25C22.4555 0.25 18.298 4.40748 18.298 9.536C18.298 14.6645 22.4555 18.822 27.584 18.822Z" fill="#FF9420"/>
</svg>
