<svg width="43" height="44" viewBox="0 0 43 44" fill="none" xmlns="http://www.w3.org/2000/svg">
<path fill-rule="evenodd" clip-rule="evenodd" d="M13.989 33.124C13.8869 32.8837 13.723 32.6746 13.514 32.518L13.498 32.506C11.9388 31.2993 10.6778 29.7504 9.81223 27.9789C8.94668 26.2074 8.49979 24.2607 8.50604 22.289C8.5057 20.0752 9.06748 17.8975 10.1387 15.9601C11.21 14.0227 12.7556 12.3891 14.6308 11.2123C16.5059 10.0355 18.6492 9.35406 20.8596 9.23192C23.0701 9.10977 25.2754 9.55089 27.2688 10.5139C29.2622 11.477 30.9784 12.9304 32.2566 14.7379C33.5348 16.5455 34.3331 18.648 34.5767 20.8484C34.8202 23.0488 34.5011 25.275 33.6492 27.3184C32.7973 29.3617 31.4406 31.1553 29.7061 32.531L29.673 32.554C29.4767 32.7024 29.3212 32.8982 29.221 33.123L13.989 33.124ZM16.043 24.467L19.031 27.455C19.1795 27.6038 19.3578 27.7196 19.5541 27.7948C19.7504 27.87 19.9604 27.9029 20.1703 27.8914C20.3802 27.8799 20.5854 27.8242 20.7723 27.728C20.9592 27.6318 21.1237 27.4972 21.255 27.333L27.233 19.861C27.472 19.5507 27.5797 19.159 27.5329 18.7702C27.4861 18.3813 27.2885 18.0264 26.9828 17.7816C26.677 17.5369 26.2874 17.4219 25.8977 17.4615C25.508 17.501 25.1495 17.6919 24.899 17.993L19.9651 24.162L18.156 22.353C17.8757 22.0728 17.4955 21.9155 17.0992 21.9156C16.7028 21.9156 16.3227 22.0732 16.0425 22.3535C15.7623 22.6339 15.605 23.014 15.6051 23.4104C15.6052 23.8067 15.7627 24.1868 16.043 24.467ZM29.062 36.112C29.054 37.106 29.054 38.16 29.054 39.102C29.0542 39.6908 28.9383 40.2739 28.713 40.8178C28.4876 41.3618 28.1573 41.856 27.7409 42.2723C27.3244 42.6885 26.8301 43.0186 26.286 43.2437C25.7419 43.4688 25.1588 43.5844 24.57 43.584H18.5941C17.4058 43.5846 16.266 43.1131 15.4253 42.2733C14.5846 41.4336 14.1118 40.2943 14.1111 39.106V36.116L29.062 36.112ZM20.088 1.74302C20.088 1.34679 20.2455 0.966785 20.5256 0.686606C20.8058 0.406427 21.1858 0.249023 21.582 0.249023C21.9783 0.249023 22.3583 0.406427 22.6385 0.686606C22.9186 0.966785 23.076 1.34679 23.076 1.74302V4.73102C23.076 5.12726 22.9186 5.50726 22.6385 5.78744C22.3583 6.06762 21.9783 6.22502 21.582 6.22502C21.1858 6.22502 20.8058 6.06762 20.5256 5.78744C20.2455 5.50726 20.088 5.12726 20.088 4.73102V1.74302ZM38.019 24.158C37.6225 24.158 37.2423 24.0005 36.9619 23.7201C36.6815 23.4398 36.524 23.0595 36.524 22.663C36.524 22.2665 36.6815 21.8863 36.9619 21.6059C37.2423 21.3255 37.6225 21.168 38.019 21.168H41.009C41.4055 21.168 41.7858 21.3255 42.0662 21.6059C42.3465 21.8863 42.504 22.2665 42.504 22.663C42.504 23.0595 42.3465 23.4398 42.0662 23.7201C41.7858 24.0005 41.4055 24.158 41.009 24.158H38.019ZM2.15405 24.158C1.75755 24.158 1.37729 24.0005 1.09692 23.7201C0.816557 23.4398 0.659058 23.0595 0.659058 22.663C0.659058 22.2665 0.816557 21.8863 1.09692 21.6059C1.37729 21.3255 1.75755 21.168 2.15405 21.168H5.14404C5.54054 21.168 5.9208 21.3255 6.20117 21.6059C6.48154 21.8863 6.63904 22.2665 6.63904 22.663C6.63904 23.0595 6.48154 23.4398 6.20117 23.7201C5.9208 24.0005 5.54054 24.158 5.14404 24.158H2.15405ZM36.526 5.60602C36.6641 5.4637 36.829 5.35025 37.0113 5.27227C37.1936 5.1943 37.3895 5.15336 37.5878 5.15183C37.7861 5.15031 37.9826 5.18824 38.1661 5.2634C38.3495 5.33857 38.5162 5.44948 38.6564 5.58967C38.7966 5.72986 38.9075 5.89653 38.9827 6.07999C39.0578 6.26344 39.0958 6.46002 39.0942 6.65827C39.0927 6.85652 39.0518 7.05249 38.9738 7.23477C38.8958 7.41705 38.7824 7.582 38.64 7.72002L36.526 9.83202C36.246 10.1124 35.866 10.27 35.4698 10.2701C35.0735 10.2703 34.6934 10.1131 34.4131 9.83302C34.1327 9.55295 33.9751 9.17299 33.9749 8.77673C33.9747 8.38047 34.132 8.00036 34.412 7.72002L36.526 5.60602ZM4.52603 7.72002C4.2579 7.43736 4.11072 7.06118 4.11581 6.67161C4.12091 6.28204 4.27789 5.90984 4.55331 5.63428C4.82874 5.35872 5.20085 5.20157 5.59042 5.19629C5.98 5.19102 6.35625 5.33803 6.63904 5.60602L8.75305 7.72002C8.89173 7.85883 9.00169 8.02359 9.07669 8.2049C9.15169 8.38621 9.19025 8.58052 9.19016 8.77673C9.19006 8.97294 9.15131 9.16721 9.07614 9.34845C9.00097 9.52969 8.89085 9.69435 8.75204 9.83302C8.61324 9.9717 8.44846 10.0817 8.26715 10.1567C8.08584 10.2317 7.89155 10.2702 7.69534 10.2701C7.49913 10.27 7.30487 10.2313 7.12363 10.1561C6.94239 10.081 6.77771 9.97083 6.63904 9.83202L4.52603 7.72002Z" fill="#FF9420"/>
</svg>
