<svg width="45" height="44" viewBox="0 0 45 44" fill="none" xmlns="http://www.w3.org/2000/svg">
<path d="M44.079 41.45L29.446 14.85C29.1914 14.3919 28.8171 14.0116 28.363 13.75V10.361H37.03C37.413 10.361 37.7802 10.2089 38.051 9.93806C38.3218 9.66726 38.474 9.29997 38.474 8.917V1.694C38.474 1.50437 38.4366 1.3166 38.3641 1.14141C38.2915 0.966211 38.1851 0.807026 38.051 0.672938C37.917 0.53885 37.7578 0.432486 37.5826 0.359918C37.4074 0.28735 37.2196 0.25 37.03 0.25H26.918C26.535 0.25 26.1677 0.402135 25.8969 0.672938C25.6261 0.94374 25.474 1.31103 25.474 1.694V13.756C25.0199 14.0176 24.6455 14.3979 24.391 14.856L19.696 23.361L29.229 39.987C29.5332 40.531 29.7166 41.1342 29.7664 41.7555C29.8163 42.3767 29.7316 43.0015 29.518 43.587H42.807C43.0576 43.5867 43.3039 43.5214 43.5217 43.3974C43.7396 43.2734 43.9215 43.095 44.0497 42.8796C44.1779 42.6642 44.248 42.4193 44.2531 42.1687C44.2582 41.9181 44.1982 41.6705 44.079 41.45Z" fill="#FF9420"/>
<path d="M16.431 23.3622C16.179 22.9175 15.8136 22.5477 15.372 22.2903C14.9305 22.033 14.4285 21.8975 13.9175 21.8975C13.4064 21.8975 12.9045 22.033 12.4629 22.2903C12.0213 22.5477 11.6559 22.9175 11.404 23.3622L1.10597 41.4172C0.978708 41.6372 0.911772 41.8869 0.911927 42.1411C0.912082 42.3952 0.979323 42.6449 1.10686 42.8647C1.23439 43.0846 1.4177 43.2669 1.63825 43.3932C1.85881 43.5195 2.1088 43.5854 2.36297 43.5842H25.474C25.7281 43.5854 25.9781 43.5195 26.1987 43.3932C26.4193 43.2669 26.6026 43.0846 26.7301 42.8647C26.8576 42.6449 26.9249 42.3952 26.925 42.1411C26.9252 41.8869 26.8582 41.6372 26.731 41.4172L16.431 23.3622Z" fill="#FF9420"/>
</svg>
