<svg width="45" height="44" viewBox="0 0 45 44" fill="none" xmlns="http://www.w3.org/2000/svg">
<path d="M11.9391 11.9531L8.18506 12.2431C7.67303 12.2808 7.1765 12.4357 6.73384 12.6957C6.29117 12.9558 5.91421 13.3142 5.63206 13.7431L1.30206 20.2921C1.08762 20.6167 0.958207 20.99 0.925713 21.3777C0.89322 21.7653 0.95869 22.1549 1.11611 22.5107C1.27352 22.8664 1.51783 23.1769 1.82659 23.4136C2.13534 23.6503 2.49863 23.8055 2.88306 23.8651L6.32106 24.3971C7.23859 19.8809 9.15848 15.6283 11.9391 11.9531Z" fill="#FF9420"/>
<path d="M20.1011 38.181L20.6331 41.619C20.6922 42.0037 20.8472 42.3673 21.0837 42.6764C21.3203 42.9855 21.6309 43.23 21.9868 43.3875C22.3427 43.545 22.7326 43.6103 23.1204 43.5776C23.5083 43.5448 23.8816 43.415 24.2061 43.2L30.7551 38.87C31.184 38.5878 31.5424 38.2109 31.8024 37.7682C32.0625 37.3255 32.2174 36.829 32.2551 36.317L32.5451 32.563C28.8699 35.3436 24.6173 37.2635 20.1011 38.181Z" fill="#FF9420"/>
<path d="M18.809 35.7982C18.9293 35.7981 19.0494 35.7881 19.168 35.7682C20.934 35.4679 22.6624 34.9778 24.323 34.3062L10.199 20.1782C9.52749 21.8389 9.03732 23.5673 8.73705 25.3332C8.68016 25.6811 8.7071 26.0374 8.81563 26.3728C8.92416 26.7081 9.11115 27.0127 9.36105 27.2612L17.244 35.1442C17.6588 35.5605 18.2214 35.7956 18.809 35.7982Z" fill="#FF9420"/>
<path d="M40.7951 19.4631C43.3786 14.1641 44.5497 8.28769 44.1951 2.40312C44.1651 1.85591 43.9342 1.339 43.5467 0.95148C43.1592 0.56396 42.6423 0.33309 42.0951 0.303122C41.5561 0.274122 40.9161 0.252122 40.1951 0.252122C34.9405 0.200268 29.7473 1.38374 25.0341 3.70712C19.2003 6.95436 14.4345 11.8251 11.3151 17.7281C11.3564 17.759 11.3958 17.7924 11.4331 17.8281L26.6681 33.0631C26.7037 33.1004 26.7372 33.1398 26.7681 33.1811C32.6732 30.0629 37.5461 25.2973 40.7951 19.4631ZM26.1121 9.41112C27.1505 8.37257 28.5169 7.72621 29.9784 7.58216C31.44 7.43811 32.9063 7.80529 34.1275 8.62113C35.3486 9.43698 36.2492 10.651 36.6756 12.0564C37.102 13.4617 37.028 14.9715 36.466 16.3284C35.9041 17.6853 34.8891 18.8053 33.5939 19.4977C32.2988 20.1902 30.8036 20.4121 29.3632 20.1257C27.9227 19.8393 26.6261 19.0623 25.6944 17.9271C24.7626 16.7919 24.2532 15.3688 24.2531 13.9001C24.2537 12.2166 24.9223 10.6022 26.1121 9.41112Z" fill="#FF9420"/>
<path d="M27.908 16.5931C28.5312 17.2161 29.3512 17.6038 30.2282 17.6901C31.1052 17.7763 31.985 17.5558 32.7177 17.0661C33.4503 16.5764 33.9905 15.8478 34.2462 15.0045C34.5018 14.1611 34.4572 13.2552 34.1198 12.4411C33.7824 11.627 33.1732 10.9551 32.396 10.5398C31.6187 10.1245 30.7215 9.99158 29.8572 10.1637C28.993 10.3357 28.2151 10.8022 27.6562 11.4835C27.0972 12.1648 26.7918 13.0188 26.792 13.9001C26.7926 14.9101 27.194 15.8786 27.908 16.5931Z" fill="#FF9420"/>
<path d="M2.21097 35.9632C2.37812 35.9638 2.54372 35.9312 2.6982 35.8673C2.85268 35.8035 2.99297 35.7096 3.11097 35.5912L7.25597 31.4462C7.49466 31.2075 7.62876 30.8838 7.62876 30.5462C7.62876 30.2087 7.49466 29.8849 7.25597 29.6462C7.13778 29.5281 6.99747 29.4343 6.84304 29.3703C6.68862 29.3064 6.52311 29.2734 6.35597 29.2734C6.0184 29.2734 5.69466 29.4075 5.45597 29.6462L1.31297 33.7952C1.13559 33.973 1.0149 34.1994 0.966162 34.4458C0.917424 34.6921 0.942824 34.9474 1.03915 35.1794C1.13548 35.4113 1.2984 35.6095 1.50734 35.7488C1.71627 35.8882 1.96183 35.9624 2.21297 35.9622L2.21097 35.9632Z" fill="#FF9420"/>
<path d="M11.052 33.4481C10.934 33.3295 10.7938 33.2353 10.6394 33.1711C10.4849 33.1068 10.3193 33.0737 10.152 33.0737C9.98469 33.0737 9.81905 33.1068 9.6646 33.1711C9.51014 33.2353 9.36991 33.3295 9.25198 33.4481L1.28698 41.4171C1.04828 41.6558 0.914185 41.9795 0.914185 42.3171C0.914185 42.6547 1.04828 42.9784 1.28698 43.2171C1.52567 43.4558 1.84941 43.5899 2.18698 43.5899C2.52454 43.5899 2.84828 43.4558 3.08698 43.2171L11.056 35.2481C11.1744 35.1299 11.2682 34.9895 11.3321 34.8349C11.396 34.6803 11.4287 34.5146 11.4283 34.3473C11.428 34.18 11.3945 34.0144 11.3299 33.8601C11.2653 33.7058 11.1709 33.5658 11.052 33.4481Z" fill="#FF9420"/>
<path d="M13.055 37.2488L8.91003 41.3938C8.79184 41.512 8.69808 41.6523 8.63412 41.8067C8.57015 41.9611 8.53723 42.1266 8.53723 42.2938C8.53723 42.4609 8.57015 42.6264 8.63412 42.7809C8.69808 42.9353 8.79184 43.0756 8.91003 43.1938C9.02822 43.312 9.16852 43.4057 9.32294 43.4697C9.47737 43.5336 9.64287 43.5666 9.81002 43.5666C9.97717 43.5666 10.1427 43.5336 10.2971 43.4697C10.4515 43.4057 10.5918 43.312 10.71 43.1938L14.855 39.0488C15.0937 38.8101 15.2278 38.4863 15.2278 38.1488C15.2278 37.8112 15.0937 37.4875 14.855 37.2488C14.6163 37.0101 14.2926 36.876 13.955 36.876C13.6175 36.876 13.2937 37.0101 13.055 37.2488Z" fill="#FF9420"/>
</svg>
