<svg preserveAspectRatio="none" width="100%" height="100%" overflow="visible" style="display: block;" viewBox="0 0 110.51 25.1937" fill="none" xmlns="http://www.w3.org/2000/svg">
<path id="Path 77" fill-rule="evenodd" clip-rule="evenodd" d="M109.017 7.43963H108.726V7.79857H109.017C109.153 7.79857 109.241 7.73741 109.241 7.62259C109.241 7.50777 109.16 7.43963 109.017 7.43963ZM108.367 7.10753H109.024C109.383 7.10753 109.62 7.30388 109.62 7.60864C109.622 7.69339 109.6 7.77696 109.559 7.85077C109.517 7.92459 109.456 7.98601 109.383 8.02876L109.641 8.40166V8.47622H109.268L109.017 8.11727H108.726V8.47622H108.367V7.10753ZM110.203 7.81898C110.214 7.65162 110.19 7.48384 110.132 7.32629C110.075 7.16873 109.985 7.02483 109.869 6.90374C109.753 6.78266 109.613 6.68702 109.458 6.6229C109.303 6.55878 109.137 6.52757 108.969 6.53127C108.802 6.5269 108.635 6.55777 108.481 6.62185C108.326 6.68593 108.187 6.78181 108.072 6.90325C107.957 7.02469 107.869 7.16898 107.813 7.32675C107.757 7.48451 107.736 7.65222 107.749 7.81898C107.74 7.98533 107.766 8.15167 107.824 8.3079C107.881 8.46413 107.97 8.60696 108.085 8.72773C108.2 8.84849 108.338 8.94466 108.491 9.01037C108.644 9.07608 108.809 9.10996 108.975 9.10996C109.142 9.10996 109.307 9.07608 109.46 9.01037C109.613 8.94466 109.751 8.84849 109.866 8.72773C109.981 8.60696 110.07 8.46413 110.127 8.3079C110.185 8.15167 110.211 7.98533 110.202 7.81898H110.203ZM110.508 7.81898C110.499 8.1195 110.401 8.41064 110.227 8.65614C110.054 8.90163 109.812 9.09064 109.532 9.19955C109.251 9.30846 108.945 9.33247 108.651 9.26862C108.358 9.20477 108.089 9.05585 107.879 8.84044C107.67 8.62504 107.528 8.35268 107.472 8.05728C107.416 7.76188 107.448 7.45652 107.564 7.17925C107.68 6.90198 107.876 6.66506 108.126 6.49803C108.376 6.331 108.669 6.24125 108.97 6.23995C109.177 6.23398 109.383 6.27107 109.575 6.3489C109.767 6.42673 109.941 6.54358 110.086 6.69206C110.23 6.84054 110.343 7.01743 110.415 7.21151C110.488 7.40558 110.519 7.61208 110.508 7.81898ZM24.3075 10.881L21.3394 12.5979L24.3075 14.3095C24.4896 14.41 24.6499 14.5458 24.7788 14.7089C24.9078 14.8721 25.003 15.0593 25.0587 15.2597C25.1145 15.46 25.1298 15.6695 25.1036 15.8759C25.0775 16.0822 25.0105 16.2813 24.9065 16.4614C24.8025 16.6415 24.6637 16.7991 24.4981 16.9249C24.3325 17.0508 24.1435 17.1423 23.9421 17.1943C23.7407 17.2462 23.5309 17.2574 23.3251 17.2273C23.1193 17.1972 22.9216 17.1264 22.7435 17.019L17.428 13.95C17.0867 13.7534 16.833 13.4342 16.7187 13.0572C16.6667 12.8925 16.643 12.7201 16.6484 12.5475C16.651 12.4227 16.669 12.2987 16.7021 12.1784C16.8112 11.7824 17.0713 11.4451 17.4264 11.2389L22.7419 8.17203C23.1011 7.96463 23.528 7.90843 23.9287 8.01579C24.3294 8.12315 24.671 8.38526 24.8784 8.74449C25.0858 9.10373 25.142 9.53063 25.0346 9.9313C24.9273 10.332 24.6652 10.6736 24.3059 10.881H24.3075ZM21.4971 19.2011L16.1827 16.1358C15.909 15.9757 15.5924 15.9043 15.2765 15.9314C14.8828 15.9601 14.5145 16.1367 14.2457 16.4259C13.9769 16.7151 13.8276 17.0953 13.8278 17.4901V23.627C13.8278 24.042 13.9927 24.44 14.2862 24.7335C14.5796 25.027 14.9776 25.1918 15.3927 25.1918C15.8077 25.1918 16.2057 25.027 16.4992 24.7335C16.7926 24.44 16.9575 24.042 16.9575 23.627V20.1932L19.9337 21.9101C20.1118 22.0168 20.3095 22.087 20.515 22.1166C20.7206 22.1462 20.93 22.1346 21.131 22.0824C21.3321 22.0302 21.5207 21.9385 21.6859 21.8126C21.8511 21.6868 21.9896 21.5293 22.0933 21.3494C22.1971 21.1694 22.2639 20.9706 22.29 20.7646C22.3161 20.5585 22.3009 20.3494 22.2453 20.1492C22.1897 19.9491 22.0948 19.7621 21.9662 19.599C21.8375 19.436 21.6778 19.3001 21.4961 19.1995L21.4971 19.2011ZM15.3651 13.1978L13.1556 15.404C13.0799 15.4749 12.9817 15.5167 12.8782 15.5221H12.2284C12.1253 15.5159 12.0274 15.4742 11.9516 15.404L9.74319 13.1978C9.67469 13.1218 9.63434 13.0247 9.6289 12.9225V12.2717C9.634 12.1686 9.67434 12.0702 9.74319 11.9932L11.9516 9.78698C12.0276 9.71725 12.1255 9.6761 12.2284 9.67056H12.8782C12.9814 9.67576 13.0796 9.71694 13.1556 9.78698L15.3651 11.9932C15.4336 12.0704 15.4737 12.1687 15.4788 12.2717V12.9225C15.4732 13.0244 15.4331 13.1213 15.3651 13.1972V13.1978ZM13.5988 12.585C13.5916 12.4817 13.5505 12.3836 13.4818 12.306L12.8417 11.6692C12.7653 11.6006 12.6679 11.5601 12.5654 11.5543H12.5407C12.4385 11.5601 12.3414 11.6006 12.2654 11.6692L11.6254 12.306C11.5575 12.3837 11.5178 12.482 11.5127 12.585V12.6103C11.5177 12.7122 11.5574 12.8093 11.6254 12.8855L12.2654 13.524C12.3413 13.5928 12.4385 13.6335 12.5407 13.6394H12.5654C12.668 13.6336 12.7655 13.5929 12.8417 13.524L13.4818 12.8855C13.5506 12.8095 13.5918 12.7125 13.5988 12.6103V12.585ZM3.60895 5.98992L8.92443 9.05838C9.163 9.19531 9.43331 9.26728 9.70838 9.26708C9.98345 9.26688 10.2537 9.19453 10.492 9.05727C10.7304 8.92 10.9286 8.72261 11.0668 8.4848C11.2051 8.24699 11.2785 7.97707 11.2798 7.702V1.56455C11.2798 1.14961 11.115 0.751648 10.8216 0.458239C10.5282 0.164829 10.1302 0 9.71529 0C9.30034 0 8.90241 0.164829 8.609 0.458239C8.31559 0.751648 8.15073 1.14961 8.15073 1.56455V4.99838L5.17242 3.27824C4.81328 3.07711 4.38934 3.02557 3.99246 3.13478C3.59558 3.24398 3.2577 3.50515 3.05201 3.86171C2.84632 4.21827 2.78937 4.6415 2.89351 5.03974C2.99765 5.43798 3.25449 5.77918 3.60839 5.98939L3.60895 5.98992ZM15.2765 9.26279C15.5923 9.28868 15.9085 9.21755 16.1827 9.0589L21.4971 5.99044C21.6751 5.88785 21.8312 5.7512 21.9564 5.5883C22.0816 5.4254 22.1735 5.23944 22.2268 5.04102C22.2802 4.8426 22.2939 4.63564 22.2673 4.43191C22.2406 4.22819 22.1741 4.0317 22.0715 3.85369C21.9689 3.67567 21.8323 3.5196 21.6694 3.3944C21.5065 3.26919 21.3205 3.1773 21.1221 3.12397C20.9237 3.07063 20.7167 3.0569 20.513 3.08356C20.3092 3.11021 20.1128 3.17673 19.9347 3.27932L16.9586 4.99946V1.5656C16.9586 1.15059 16.7937 0.752583 16.5003 0.459123C16.2068 0.165663 15.8088 0.000818693 15.3937 0.000818693C14.9787 0.000818693 14.5807 0.165663 14.2873 0.459123C13.9938 0.752583 13.8289 1.15059 13.8289 1.5656V7.70361C13.8301 8.09754 13.9798 8.47654 14.2481 8.76496C14.5165 9.05338 14.8837 9.23001 15.2765 9.25958V9.26279ZM9.83278 15.932C9.51633 15.9048 9.19921 15.9762 8.92495 16.1364L3.60947 19.2017C3.43149 19.3044 3.27548 19.4411 3.15035 19.6041C3.02522 19.767 2.93342 19.9531 2.88018 20.1516C2.82695 20.35 2.81333 20.557 2.8401 20.7608C2.86687 20.9645 2.9335 21.161 3.03619 21.3389C3.13889 21.5169 3.27564 21.6729 3.43863 21.7981C3.60162 21.9232 3.78764 22.015 3.98611 22.0682C4.18457 22.1215 4.39158 22.1351 4.59531 22.1083C4.79904 22.0816 4.99552 22.0149 5.1735 21.9122L8.15181 20.1953V23.6291C8.15181 24.0441 8.31664 24.4421 8.61005 24.7355C8.90346 25.0289 9.30142 25.1937 9.71637 25.1937C10.1313 25.1937 10.5292 25.0289 10.8226 24.7355C11.1161 24.4421 11.2809 24.0441 11.2809 23.6291V17.4901C11.2809 17.0955 11.1316 16.7154 10.863 16.4263C10.5944 16.1372 10.2263 15.961 9.83278 15.932ZM8.39166 13.0583C8.44339 12.8935 8.4673 12.7212 8.46246 12.5486C8.45776 12.4237 8.4387 12.2999 8.40561 12.1794C8.2968 11.7823 8.03498 11.4444 7.67753 11.2399L2.36578 8.17308C2.00655 7.96561 1.57963 7.90936 1.17891 8.01667C0.778184 8.12399 0.436497 8.38608 0.229025 8.74531C0.0215535 9.10454 -0.0347224 9.53147 0.0725894 9.93219C0.179901 10.3329 0.441993 10.6746 0.801226 10.8821L3.76938 12.599L0.801226 14.3106C0.620269 14.4117 0.461235 14.5478 0.333327 14.7109C0.205418 14.8741 0.111193 15.061 0.05615 15.2609C0.00110693 15.4607 -0.0136566 15.6695 0.0126938 15.8751C0.0390443 16.0808 0.105977 16.2791 0.209639 16.4586C0.3133 16.6381 0.451617 16.7953 0.616529 16.9209C0.781441 17.0465 0.96968 17.1381 1.17029 17.1903C1.37091 17.2426 1.5799 17.2544 1.78513 17.2252C1.99036 17.196 2.18773 17.1262 2.36578 17.0201L7.67753 13.9511C8.02025 13.7545 8.27535 13.435 8.3911 13.0572L8.39166 13.0583ZM74.3253 3.88614H74.1793C74.16 3.88614 74.1412 3.88616 74.1214 3.88938C74.1015 3.8926 74.0844 3.88614 74.0677 3.88614C73.6995 3.87984 73.3326 3.93294 72.9812 4.04336C72.6371 4.15111 72.3291 4.35137 72.0911 4.62227C71.8433 4.90469 71.667 5.24254 71.5771 5.60736C71.4756 6.02892 71.4269 6.46149 71.4323 6.89506V7.83345H70.3978C70.2283 7.83344 70.0655 7.90032 69.945 8.01956C69.8244 8.1388 69.7558 8.30078 69.754 8.47033C69.7518 8.64982 69.8197 8.82309 69.9433 8.95323C70.0654 9.08046 70.2309 9.15706 70.4069 9.16782H71.4333V16.8012V16.8189C71.4336 16.9051 71.4512 16.9905 71.4849 17.0699C71.5186 17.1493 71.5678 17.2212 71.6297 17.2814C71.757 17.4019 71.9261 17.4683 72.1013 17.4665C72.2713 17.4644 72.4336 17.3951 72.5527 17.2737C72.6718 17.1524 72.7381 16.9889 72.7371 16.8189V9.16782H73.8494C74.0238 9.15884 74.1887 9.08519 74.3119 8.96125C74.4373 8.83488 74.5075 8.66394 74.5072 8.48588V8.46067C74.5024 8.29188 74.4315 8.13173 74.3098 8.01471C74.188 7.89769 74.0252 7.83316 73.8563 7.83506H72.7371V6.8988C72.7355 6.57955 72.7731 6.26132 72.8492 5.95128C72.8863 5.78515 72.9596 5.62924 73.0639 5.49467C73.1521 5.40237 73.2632 5.33503 73.3858 5.2994C73.599 5.23861 73.8203 5.21092 74.042 5.2173H74.0758C74.0929 5.2173 74.1106 5.21409 74.1267 5.21409C74.1428 5.21409 74.1659 5.2173 74.1868 5.2173H74.3328C74.5063 5.21238 74.6711 5.13999 74.7921 5.01551C74.9131 4.89103 74.9808 4.72426 74.9808 4.55066C74.9808 4.37705 74.9131 4.21029 74.7921 4.0858C74.6711 3.96132 74.5063 3.88893 74.3328 3.88401L74.3253 3.88614ZM97.2548 8.83786C97.3176 8.7765 97.3677 8.70335 97.4022 8.6226C97.4367 8.54186 97.455 8.45511 97.456 8.3673C97.4555 8.28154 97.4372 8.19681 97.4024 8.11842C97.3676 8.04003 97.317 7.96968 97.2537 7.91178C97.2537 7.90749 97.2499 7.90749 97.2499 7.90749C97.2493 7.90607 97.2484 7.90481 97.2472 7.90376C97.1876 7.84255 97.1163 7.79397 97.0375 7.76091C96.9587 7.72786 96.874 7.71102 96.7885 7.71137C96.7031 7.71172 96.6186 7.72925 96.54 7.76294C96.4615 7.79664 96.3906 7.8458 96.3314 7.90749L91.2128 12.8973V4.51123C91.2101 4.3351 91.1376 4.16724 91.0113 4.04451C90.8849 3.92178 90.7151 3.8542 90.5389 3.85663C90.4533 3.85692 90.3685 3.87415 90.2895 3.90729C90.2105 3.94044 90.1388 3.98885 90.0786 4.04978C89.9557 4.17212 89.8857 4.33784 89.8838 4.51123V16.7845C89.8863 16.9572 89.9562 17.122 90.0784 17.2439C90.2007 17.3657 90.3658 17.435 90.5384 17.437C90.7143 17.4397 90.884 17.3725 91.0103 17.2502C91.1367 17.1279 91.2093 16.9604 91.2123 16.7845V14.7591L92.8793 13.0958L96.2772 17.195C96.3353 17.2815 96.4178 17.3488 96.5144 17.3882C96.6034 17.4216 96.6978 17.4385 96.7928 17.438C96.9476 17.4414 97.0988 17.3922 97.222 17.2985L97.2301 17.2937L97.2387 17.2846C97.3055 17.2205 97.3589 17.1437 97.3957 17.0588C97.4326 16.9739 97.4521 16.8825 97.4533 16.7899C97.452 16.6307 97.395 16.4769 97.2923 16.3553L93.8338 12.1505L97.2575 8.83946L97.2548 8.83786ZM88.0118 7.99388C88.0742 8.05508 88.1237 8.12815 88.1575 8.20877C88.1912 8.2894 88.2085 8.37596 88.2082 8.46335V16.7856C88.2083 16.9148 88.17 17.0411 88.0981 17.1485C88.0263 17.2559 87.924 17.3396 87.8046 17.3888C87.6851 17.438 87.5537 17.4506 87.4271 17.425C87.3004 17.3993 87.1842 17.3367 87.0933 17.2449C87.032 17.1851 86.9833 17.1137 86.9499 17.0348C86.9166 16.9559 86.8992 16.8712 86.899 16.7856V15.9733C86.4908 16.4306 85.9913 16.7973 85.4326 17.0495C84.8739 17.3018 84.2685 17.4341 83.6555 17.4379C83.0425 17.4417 82.4355 17.3169 81.8737 17.0715C81.312 16.8262 80.8079 16.4658 80.3941 16.0135C79.5396 15.0916 79.0649 13.881 79.0649 12.624C79.0649 11.3669 79.5396 10.1563 80.3941 9.23437C80.8085 8.78422 81.3122 8.42531 81.8729 8.18045C82.4337 7.93558 83.0393 7.81013 83.6511 7.8121C84.263 7.81407 84.8678 7.94341 85.427 8.19187C85.9862 8.44034 86.4875 8.80249 86.899 9.25529V8.46335C86.8987 8.37594 86.9159 8.28935 86.9496 8.20871C86.9833 8.12806 87.0329 8.05501 87.0954 7.99388C87.2194 7.87688 87.3834 7.81171 87.5539 7.81171C87.7244 7.81171 87.8884 7.87688 88.0124 7.99388H88.0118ZM86.899 12.6247C86.9056 11.6984 86.5605 10.8041 85.9333 10.1223C85.6439 9.80058 85.29 9.54331 84.8947 9.36719C84.4994 9.19107 84.0715 9.10007 83.6388 9.10007C83.206 9.10007 82.7781 9.19107 82.3828 9.36719C81.9875 9.54331 81.6337 9.80058 81.3443 10.1223C80.715 10.8032 80.3679 11.6976 80.3731 12.6247C80.3671 13.5485 80.7145 14.4396 81.3443 15.1154C81.6358 15.4338 81.9904 15.6881 82.3856 15.8621C82.7808 16.0361 83.2078 16.126 83.6396 16.126C84.0714 16.126 84.4984 16.0361 84.8936 15.8621C85.2887 15.6881 85.6433 15.4338 85.9349 15.1154C86.5608 14.4373 86.9053 13.5465 86.8985 12.6237L86.899 12.6247ZM34.2147 12.3903C33.652 12.1463 33.0755 11.9354 32.4881 11.7588C31.9736 11.609 31.4699 11.4244 30.9805 11.2061C30.8064 11.1219 30.651 11.0037 30.5233 10.8585C30.4208 10.7379 30.3654 10.5843 30.3672 10.426C30.3653 10.2088 30.4313 9.99647 30.5561 9.81865C30.7635 9.54951 31.044 9.34575 31.3641 9.23168C31.6592 9.11308 31.9733 9.04838 32.2912 9.04066C32.857 9.02994 33.4103 9.20733 33.8644 9.54501C34.0425 9.67432 34.1927 9.80524 34.3349 9.91362C34.403 9.96957 34.4767 10.0183 34.5549 10.059C34.6352 10.101 34.724 10.124 34.8146 10.1261C34.8755 10.1266 34.9359 10.1147 34.9922 10.0912C35.051 10.0669 35.1054 10.033 35.1531 9.99087C35.2022 9.94507 35.2422 9.89048 35.2711 9.82992C35.2964 9.77016 35.3094 9.70593 35.3093 9.64106C35.306 9.52612 35.2751 9.41365 35.2191 9.31322C35.1014 9.11453 34.9508 8.93728 34.7738 8.78903C34.4502 8.50892 34.087 8.27822 33.6959 8.10441C33.2985 7.91457 32.8661 7.80918 32.4259 7.79484C31.5898 7.76053 30.7627 7.9787 30.0522 8.42098C29.7431 8.61652 29.4807 8.87751 29.2834 9.18554C29.071 9.56183 28.9618 9.98752 28.9668 10.4196C28.9668 10.4421 28.9668 10.4652 28.9668 10.4882C28.9589 10.9347 29.1046 11.3704 29.3794 11.7223C29.7847 12.1828 30.3086 12.5232 30.8941 12.7063C31.4526 12.9123 32.0112 13.0357 32.3637 13.1538C32.8527 13.2964 33.3249 13.4914 33.7721 13.7354C33.9457 13.8379 34.0988 13.9716 34.2238 14.1298C34.3279 14.2724 34.3842 14.4442 34.3848 14.6207V14.6346C34.3884 14.8803 34.3119 15.1204 34.167 15.3187C33.931 15.6059 33.6168 15.8184 33.2624 15.9304C32.9495 16.0408 32.6213 16.1015 32.2896 16.1101C31.6574 16.1227 31.0316 15.9823 30.4654 15.7007C30.2588 15.5972 30.0898 15.4952 29.9406 15.4094C29.8696 15.3694 29.7963 15.3336 29.7212 15.3021C29.6466 15.2701 29.5663 15.2535 29.4851 15.2533C29.4288 15.2531 29.373 15.2632 29.3204 15.2833C29.2673 15.3059 29.2187 15.3377 29.1766 15.3772C29.1189 15.4313 29.071 15.4951 29.035 15.5655C29.0003 15.635 28.9819 15.7116 28.9813 15.7892C28.9852 15.9152 29.0256 16.0373 29.0977 16.1407C29.2249 16.3096 29.3807 16.4549 29.5581 16.5699C29.7885 16.7208 30.0297 16.8544 30.2797 16.9696C30.9126 17.2516 31.5949 17.4056 32.2875 17.423C33.1508 17.4558 34.0011 17.2043 34.7078 16.7073C35.0382 16.4687 35.308 16.1558 35.4952 15.7938C35.6824 15.4318 35.782 15.0309 35.7857 14.6234C35.7943 14.2126 35.6916 13.8071 35.4885 13.4499C35.1801 12.9764 34.736 12.6068 34.2142 12.3897L34.2147 12.3903ZM77.0267 3.85932C76.8535 3.86044 76.6876 3.92975 76.5651 4.05227C76.4426 4.17478 76.3733 4.34066 76.3721 4.51391V16.7872C76.3723 16.8727 76.3894 16.9573 76.4225 17.0361C76.4555 17.115 76.5039 17.1865 76.5648 17.2465C76.6574 17.3382 76.7748 17.4008 76.9026 17.4265C77.0304 17.4522 77.1629 17.4398 77.2837 17.3909C77.4046 17.3421 77.5084 17.2588 77.5824 17.1515C77.6564 17.0442 77.6974 16.9176 77.7001 16.7872V4.51123C77.6973 4.335 77.6247 4.16708 77.4983 4.04428C77.3719 3.92148 77.2019 3.85381 77.0257 3.85611L77.0267 3.85932ZM107.162 12.3168V12.3817C107.162 12.4671 107.144 12.5515 107.109 12.6293C107.074 12.7071 107.022 12.7765 106.958 12.8329C106.832 12.9412 106.671 13.0003 106.505 12.9992H99.16C99.2296 13.8399 99.608 14.625 100.222 15.203C100.837 15.781 101.643 16.1111 102.487 16.1294H102.92C103.493 16.1204 104.05 15.9405 104.521 15.6127C105.009 15.2865 105.419 14.8563 105.721 14.3529C105.778 14.2534 105.862 14.1721 105.964 14.1185C106.058 14.0674 106.163 14.0408 106.27 14.0412C106.387 14.0408 106.502 14.0723 106.603 14.1324L106.61 14.1357L106.618 14.1415C106.709 14.2058 106.784 14.2907 106.836 14.3894C106.888 14.4881 106.916 14.5977 106.917 14.7092C106.917 14.8282 106.885 14.945 106.824 15.0472V15.0515C106.406 15.7224 105.849 16.2956 105.19 16.732C104.519 17.1824 103.732 17.428 102.924 17.4386H102.483C101.867 17.4334 101.258 17.3047 100.692 17.06C100.126 16.8153 99.615 16.4597 99.189 16.0141C98.3173 15.1089 97.8317 13.9002 97.8348 12.6435C97.8295 11.3707 98.3189 10.1456 99.1997 9.22687C99.6292 8.77964 100.145 8.42381 100.715 8.18077C101.286 7.93773 101.899 7.81247 102.519 7.81252C103.71 7.8106 104.854 8.27831 105.702 9.11418C106.561 9.9654 107.08 11.1002 107.164 12.3066L107.162 12.3168ZM105.728 11.6976C105.558 10.97 105.149 10.3203 104.567 9.85202C103.985 9.38371 103.263 9.12378 102.516 9.11366C101.761 9.11806 101.029 9.37484 100.438 9.84311C99.846 10.3114 99.4279 10.9642 99.2502 11.6976H105.728ZM41.1956 7.83024C40.2107 7.83174 39.2619 8.20169 38.536 8.86736V8.48588C38.5364 8.31561 38.472 8.15158 38.3557 8.02715C38.2972 7.96505 38.2266 7.9155 38.1483 7.88156C38.0699 7.84761 37.9856 7.82999 37.9002 7.82972C37.8125 7.82914 37.7256 7.84621 37.6447 7.87995C37.5637 7.91369 37.4904 7.96339 37.4291 8.02607C37.3105 8.14977 37.2444 8.31453 37.2446 8.48588V16.982L37.2719 17.0088V17.0126C37.2822 17.0444 37.2971 17.0745 37.3159 17.1022C37.4064 17.262 37.5558 17.3801 37.7323 17.4311L37.7586 17.4391H37.8997C37.9962 17.4392 38.0917 17.4182 38.1792 17.3774C38.2587 17.3381 38.3277 17.2803 38.3804 17.2089C38.3874 17.2014 38.3895 17.1928 38.397 17.1859C38.4004 17.1842 38.4032 17.1816 38.4051 17.1783C38.4381 17.1375 38.4657 17.0926 38.4872 17.0448C38.5034 17.0002 38.5168 16.9547 38.5274 16.9085L38.5333 16.8843V11.7813C38.5494 11.0783 38.8364 10.4086 39.3344 9.91201C39.7026 9.54296 40.1721 9.2915 40.6833 9.18947C41.1946 9.08743 41.7246 9.13941 42.2063 9.33883C42.688 9.53825 43.0997 9.87614 43.3892 10.3097C43.6788 10.7433 43.8331 11.253 43.8327 11.7743V16.7835C43.8337 16.9121 43.8724 17.0376 43.944 17.1445C44.0156 17.2514 44.117 17.3349 44.2356 17.3848C44.3542 17.4346 44.4848 17.4486 44.6113 17.425C44.7377 17.4013 44.8545 17.3412 44.9471 17.2519C45.0099 17.1912 45.0597 17.1184 45.0934 17.0379C45.1272 16.9573 45.1442 16.8708 45.1435 16.7835V11.7743C45.1398 10.7284 44.7225 9.72629 43.9827 8.98686C43.2428 8.24743 42.2405 7.83067 41.1946 7.82756L41.1956 7.83024ZM54.2147 9.24186C55.0704 10.161 55.5461 11.3703 55.5461 12.6261C55.5461 13.8819 55.0704 15.0911 54.2147 16.0103C53.8039 16.4606 53.3036 16.8202 52.746 17.0663C52.1883 17.3123 51.5854 17.4394 50.9759 17.4394C50.3664 17.4394 49.7635 17.3123 49.2059 17.0663C48.6482 16.8202 48.148 16.4606 47.7371 16.0103C46.8789 15.0924 46.4015 13.8827 46.4015 12.6261C46.4015 11.3695 46.8789 10.1598 47.7371 9.24186C48.1481 8.79183 48.6484 8.4324 49.206 8.18647C49.7637 7.94054 50.3664 7.81351 50.9759 7.81351C51.5854 7.81351 52.1882 7.94054 52.7458 8.18647C53.3035 8.4324 53.8037 8.79183 54.2147 9.24186ZM54.2319 12.6264C54.2361 11.7018 53.8894 10.81 53.2618 10.1309C52.9743 9.80724 52.6215 9.54812 52.2266 9.37069C51.8317 9.19326 51.4038 9.10154 50.9708 9.10154C50.5379 9.10154 50.1099 9.19326 49.715 9.37069C49.3201 9.54812 48.9673 9.80724 48.6798 10.1309C48.0515 10.8096 47.7044 11.7015 47.7087 12.6264C47.7037 13.5475 48.0512 14.4356 48.6798 15.1089C48.9688 15.43 49.3222 15.6868 49.7169 15.8626C50.1115 16.0384 50.5388 16.1292 50.9708 16.1292C51.4029 16.1292 51.8301 16.0384 52.2248 15.8626C52.6195 15.6868 52.9728 15.43 53.2618 15.1089C53.8898 14.4344 54.2363 13.5453 54.2303 12.6237L54.2319 12.6264ZM68.367 7.88657H68.3638H68.3595C68.285 7.85404 68.2047 7.83724 68.1234 7.83722C67.9963 7.83899 67.8722 7.87615 67.765 7.94453C67.6521 8.01506 67.5633 8.11839 67.5107 8.2407V8.24391L65.0104 15.0875L63.0832 10.5011H63.08C63.0254 10.3779 62.9342 10.2744 62.8187 10.205C62.7061 10.1345 62.5759 10.0973 62.4431 10.0977C62.3148 10.0988 62.1896 10.136 62.0815 10.205C61.9685 10.2755 61.8793 10.3783 61.8255 10.5001L59.894 15.0896L57.3798 8.24014C57.3373 8.11442 57.2528 8.00719 57.1405 7.93647C57.0316 7.86712 56.9053 7.82992 56.7762 7.82916C56.6916 7.82929 56.6079 7.84608 56.5299 7.87854H56.5262L56.5229 7.88175C56.3712 7.95268 56.2524 8.07894 56.1908 8.23468C56.1293 8.39041 56.1296 8.5638 56.1919 8.71928L59.2839 17.0222V17.0254C59.3094 17.0921 59.3457 17.1541 59.3912 17.2089C59.4322 17.2532 59.481 17.2895 59.535 17.3162C59.5503 17.3309 59.567 17.3438 59.585 17.3549C59.6137 17.3718 59.6454 17.383 59.6783 17.3882C59.7505 17.416 59.8269 17.4312 59.9042 17.4332C60.0278 17.4301 60.1479 17.3912 60.2497 17.3211C60.3552 17.2513 60.4364 17.1504 60.482 17.0324L60.4901 17.0265L62.4452 12.3522L64.4031 17.0072C64.4446 17.123 64.5193 17.2241 64.6177 17.298C64.7119 17.3695 64.8226 17.416 64.9396 17.4332H65.0211C65.0957 17.4333 65.1698 17.4199 65.2395 17.3935C65.2992 17.37 65.3552 17.3383 65.4059 17.2991C65.511 17.2178 65.5926 17.11 65.6425 16.9868L68.7158 8.72304C68.7454 8.64708 68.7608 8.56636 68.7613 8.48484C68.7612 8.35696 68.7236 8.23188 68.6533 8.1251C68.5829 8.01832 68.4828 7.93447 68.3654 7.88388L68.367 7.88657Z" fill="var(--fill-0, white)"/>
</svg>
