<svg width="119" height="119" viewBox="0 0 119 119" fill="none" xmlns="http://www.w3.org/2000/svg">
<g id="basil--user-outline 1">
<path id="Vector" fill-rule="evenodd" clip-rule="evenodd" d="M38.4264 37.1901C38.4264 34.4228 38.9715 31.6825 40.0305 29.1258C41.0895 26.5692 42.6417 24.2461 44.5985 22.2893C46.5553 20.3325 48.8784 18.7803 51.4351 17.7213C53.9918 16.6623 56.732 16.1172 59.4994 16.1172C62.2667 16.1172 65.0069 16.6623 67.5636 17.7213C70.1203 18.7803 72.4434 20.3325 74.4002 22.2893C76.357 24.2461 77.9092 26.5692 78.9682 29.1258C80.0272 31.6825 80.5723 34.4228 80.5723 37.1901C80.5723 42.779 78.3521 48.139 74.4002 52.0909C70.4482 56.0428 65.0882 58.263 59.4994 58.263C53.9105 58.263 48.5505 56.0428 44.5985 52.0909C40.6466 48.139 38.4264 42.779 38.4264 37.1901ZM59.4994 23.5547C55.883 23.5547 52.4148 24.9913 49.8577 27.5484C47.3005 30.1055 45.8639 33.5738 45.8639 37.1901C45.8639 40.8064 47.3005 44.2747 49.8577 46.8318C52.4148 49.3889 55.883 50.8255 59.4994 50.8255C63.1157 50.8255 66.5839 49.3889 69.141 46.8318C71.6982 44.2747 73.1348 40.8064 73.1348 37.1901C73.1348 33.5738 71.6982 30.1055 69.141 27.5484C66.5839 24.9913 63.1157 23.5547 59.4994 23.5547ZM39.666 73.138C36.7072 73.138 33.8696 74.3134 31.7774 76.4056C29.6852 78.4978 28.5098 81.3354 28.5098 84.2943V90.1848C28.5098 90.274 28.5742 90.3534 28.6635 90.3682C49.0869 93.7002 69.9168 93.7002 90.3352 90.3682C90.3786 90.3611 90.4179 90.3387 90.4461 90.305C90.4743 90.2714 90.4895 90.2287 90.4889 90.1848V84.2943C90.4889 81.3354 89.3135 78.4978 87.2213 76.4056C85.1291 74.3134 82.2915 73.138 79.3327 73.138H77.6469C77.514 73.137 77.3817 73.1571 77.2551 73.1975L72.9662 74.6007C64.2156 77.4577 54.7831 77.4577 46.0325 74.6007L41.7386 73.1975C41.6152 73.158 41.4864 73.1379 41.3568 73.138H39.666ZM21.0723 84.2943C21.0723 79.3629 23.0312 74.6335 26.5182 71.1465C30.0053 67.6595 34.7346 65.7005 39.666 65.7005H41.3519C42.2691 65.7005 43.1815 65.8493 44.0492 66.1269L48.3431 67.5302C55.5924 69.8964 63.4063 69.8964 70.6556 67.5302L74.9495 66.1269C75.8172 65.8443 76.7296 65.7005 77.6419 65.7005H79.3327C84.2641 65.7005 88.9935 67.6595 92.4805 71.1465C95.9675 74.6335 97.9264 79.3629 97.9264 84.2943V90.1848C97.9264 93.9234 95.2192 97.1066 91.5302 97.7066C70.3167 101.17 48.682 101.17 27.4685 97.7066C25.6831 97.4159 24.0594 96.4996 22.8876 95.1216C21.7157 93.7436 21.0723 91.9937 21.0723 90.1848V84.2943Z" fill="white"/>
</g>
</svg>
