<svg width="40" height="40" viewBox="0 0 40 40" fill="none" xmlns="http://www.w3.org/2000/svg">
<g id="bi--image" clip-path="url(#clip0_484_4207)">
<g id="Group">
<path id="Vector" d="M15.0059 13.75C15.0059 14.7446 14.6108 15.6984 13.9075 16.4017C13.2042 17.1049 12.2504 17.5 11.2559 17.5C10.2613 17.5 9.30747 17.1049 8.60421 16.4017C7.90095 15.6984 7.50586 14.7446 7.50586 13.75C7.50586 12.7554 7.90095 11.8016 8.60421 11.0983C9.30747 10.3951 10.2613 10 11.2559 10C12.2504 10 13.2042 10.3951 13.9075 11.0983C14.6108 11.8016 15.0059 12.7554 15.0059 13.75Z" fill="white"/>
<path id="Vector_2" d="M5.00586 2.5C3.67978 2.5 2.40801 3.02678 1.47033 3.96447C0.532644 4.90215 0.00585938 6.17392 0.00585938 7.5V32.5C0.00585938 33.8261 0.532644 35.0979 1.47033 36.0355C2.40801 36.9732 3.67978 37.5 5.00586 37.5H35.0059C36.3319 37.5 37.6037 36.9732 38.5414 36.0355C39.4791 35.0979 40.0059 33.8261 40.0059 32.5V7.5C40.0059 6.17392 39.4791 4.90215 38.5414 3.96447C37.6037 3.02678 36.3319 2.5 35.0059 2.5H5.00586ZM35.0059 5C35.6689 5 36.3048 5.26339 36.7736 5.73223C37.2425 6.20107 37.5059 6.83696 37.5059 7.5V23.75L28.0634 18.8825C27.8289 18.7651 27.5635 18.7243 27.3046 18.766C27.0457 18.8078 26.8065 18.9298 26.6209 19.115L17.3459 28.39L10.6959 23.96C10.4558 23.8001 10.1678 23.7283 9.88071 23.7565C9.59365 23.7848 9.32519 23.9114 9.12086 24.115L2.50586 30V7.5C2.50586 6.83696 2.76925 6.20107 3.23809 5.73223C3.70693 5.26339 4.34282 5 5.00586 5H35.0059Z" fill="white"/>
</g>
</g>
<defs>
<clipPath id="clip0_484_4207">
<rect width="40" height="40" fill="white"/>
</clipPath>
</defs>
</svg>
