<svg width="32" height="32" viewBox="0 0 32 32" fill="none" xmlns="http://www.w3.org/2000/svg">
<path d="M3.23 32C2.31 32 1.542 31.692 0.926 31.076C0.31 30.46 0.00133333 29.6913 0 28.77V3.23C0 2.31 0.308666 1.542 0.926 0.926C1.54333 0.31 2.31133 0.00133333 3.23 0H28.77C29.69 0 30.458 0.308666 31.074 0.926C31.69 1.54333 31.9987 2.31133 32 3.23V28.77C32 29.69 31.692 30.458 31.076 31.074C30.46 31.69 29.6913 31.9987 28.77 32H3.23ZM3.23 30H28.77C29.0767 30 29.3587 29.872 29.616 29.616C29.8733 29.36 30.0013 29.078 30 28.77V3.23C30 2.92333 29.872 2.64133 29.616 2.384C29.36 2.12667 29.078 1.99867 28.77 2H3.23C2.92333 2 2.64133 2.128 2.384 2.384C2.12667 2.64 1.99867 2.922 2 3.23V28.77C2 29.0767 2.128 29.3587 2.384 29.616C2.64 29.8733 2.922 30.0013 3.23 30ZM7 25H25.308L19.654 17.46L14.424 24.076L10.924 19.846L7 25Z" fill="#919EAB"/>
</svg>
