<svg width="439" height="340" viewBox="0 0 439 340" fill="none" xmlns="http://www.w3.org/2000/svg">
<path d="M430.516 340H27.4358C27.2282 340 27.029 339.917 26.8822 339.77C26.7353 339.623 26.6528 339.424 26.6528 339.217C26.6528 339.009 26.7353 338.81 26.8822 338.663C27.029 338.516 27.2282 338.434 27.4358 338.434H430.516C430.723 338.434 430.923 338.516 431.069 338.663C431.216 338.81 431.299 339.009 431.299 339.217C431.299 339.424 431.216 339.623 431.069 339.77C430.923 339.917 430.723 340 430.516 340Z" fill="#030047"/>
<path d="M146.317 142.037L127.318 132.199C125.962 131.502 124.458 131.142 122.932 131.149H10.761C5.39212 131.149 1.28998 126.892 1.42672 121.464L0 46.2712C0.147058 40.425 5.12638 35.5205 10.9081 35.5205H151.131C156.5 35.5205 160.602 39.7749 160.466 45.2005L162.308 104.307L161.601 132.333C161.405 140.125 152.968 145.481 146.317 142.037Z" fill="#EAEFF8"/>
<path d="M125.812 70.7867H37.3735C37.0242 70.7977 36.6763 70.7384 36.3504 70.6123C36.0245 70.4862 35.7272 70.296 35.4763 70.0528C35.2254 69.8096 35.0258 69.5185 34.8896 69.1967C34.7533 68.8749 34.6831 68.5291 34.6831 68.1796C34.6831 67.8302 34.7533 67.4843 34.8896 67.1625C35.0258 66.8408 35.2254 66.5496 35.4763 66.3065C35.7272 66.0633 36.0245 65.873 36.3504 65.747C36.6763 65.6209 37.0242 65.5616 37.3735 65.5726H125.812C126.161 65.5616 126.509 65.6209 126.835 65.747C127.161 65.873 127.458 66.0633 127.709 66.3065C127.96 66.5496 128.16 66.8408 128.296 67.1625C128.432 67.4843 128.502 67.8302 128.502 68.1796C128.502 68.5291 128.432 68.8749 128.296 69.1967C128.16 69.5185 127.96 69.8096 127.709 70.0528C127.458 70.296 127.161 70.4862 126.835 70.6123C126.509 70.7384 126.161 70.7977 125.812 70.7867Z" fill="white"/>
<path d="M58.9624 99.148H34.5844C34.2351 99.159 33.8872 99.0997 33.5613 98.9736C33.2354 98.8475 32.9382 98.6573 32.6872 98.4141C32.4363 98.1709 32.2368 97.8798 32.1005 97.558C31.9643 97.2363 31.894 96.8904 31.894 96.541C31.894 96.1915 31.9643 95.8456 32.1005 95.5239C32.2368 95.2021 32.4363 94.911 32.6872 94.6678C32.9382 94.4246 33.2354 94.2344 33.5613 94.1083C33.8872 93.9822 34.2351 93.9229 34.5844 93.9339H58.9624C59.3117 93.9229 59.6596 93.9822 59.9855 94.1083C60.3114 94.2344 60.6087 94.4246 60.8596 94.6678C61.1106 94.911 61.3101 95.2021 61.4463 95.5239C61.5826 95.8456 61.6528 96.1915 61.6528 96.541C61.6528 96.8904 61.5826 97.2363 61.4463 97.558C61.3101 97.8798 61.1106 98.1709 60.8596 98.4141C60.6087 98.6573 60.3114 98.8475 59.9855 98.9736C59.6596 99.0997 59.3117 99.159 58.9624 99.148Z" fill="white"/>
<path d="M241.742 106.516L260.744 96.6788C262.1 95.9813 263.605 95.6211 265.13 95.6288H403.913C409.285 95.6288 413.387 91.3744 413.248 85.9462L414.677 10.7507C414.527 4.90192 409.551 0 403.764 0H236.941C231.572 0 227.47 4.25435 227.607 9.68259L225.765 68.7869L226.472 96.8156C226.668 104.604 235.104 109.96 241.742 106.516Z" fill="#EAEFF8"/>
<path d="M377.302 35.2684H262.259C261.567 35.2684 260.904 34.9936 260.414 34.5045C259.925 34.0153 259.65 33.3519 259.65 32.6601C259.65 31.9683 259.925 31.3049 260.414 30.8157C260.904 30.3266 261.567 30.0518 262.259 30.0518H377.302C377.993 30.0518 378.657 30.3266 379.146 30.8157C379.635 31.3049 379.91 31.9683 379.91 32.6601C379.91 33.3519 379.635 34.0153 379.146 34.5045C378.657 34.9936 377.993 35.2684 377.302 35.2684Z" fill="white"/>
<path d="M376.813 63.6288H329.107C328.415 63.6288 327.752 63.354 327.263 62.8648C326.773 62.3757 326.499 61.7122 326.499 61.0204C326.499 60.3287 326.773 59.6652 327.263 59.1761C327.752 58.6869 328.415 58.4121 329.107 58.4121H376.813C377.505 58.4121 378.168 58.6869 378.657 59.1761C379.146 59.6652 379.421 60.3287 379.421 61.0204C379.421 61.7122 379.146 62.3757 378.657 62.8648C378.168 63.354 377.505 63.6288 376.813 63.6288Z" fill="white"/>
<path d="M155.146 291.874L163.033 339.959H61.5972V291.874H155.146Z" fill="#030047"/>
<path d="M229.064 183.874C228.356 185.104 227.447 186.207 226.376 187.138C222.506 190.593 215.618 198.823 214.101 200.654L188.559 182.724L188.913 182.961L220.148 145.472C220.754 144.766 221.552 144.253 222.446 143.995C223.339 143.737 224.288 143.746 225.176 144.019C225.932 144.253 226.619 144.67 227.176 145.232C227.908 145.975 228.376 146.938 228.508 147.974C228.64 149.009 228.429 150.059 227.906 150.962L219.986 164.677C219.986 164.677 224.114 165.518 224.431 169.507H224.521C225.099 169.543 228.076 169.992 228.448 174.605C229.374 174.906 231.74 179.156 229.064 183.874Z" fill="white"/>
<path d="M214.101 201.438C213.94 201.439 213.783 201.389 213.652 201.296L188.11 183.363C187.948 183.266 187.827 183.114 187.769 182.934C187.712 182.754 187.722 182.559 187.798 182.386C187.874 182.213 188.011 182.074 188.182 181.995C188.354 181.916 188.549 181.903 188.729 181.957L219.555 144.971C220.456 143.925 221.715 143.252 223.086 143.084C224.456 142.916 225.841 143.265 226.968 144.062C228.096 144.859 228.886 146.047 229.185 147.395C229.484 148.743 229.27 150.155 228.585 151.354L221.154 164.217C222.702 164.834 224.668 166.253 225.13 168.815C226.247 169.073 228.714 170.079 229.188 174.147C229.877 174.702 230.344 175.788 230.494 176.162C230.963 177.367 231.835 180.569 229.748 184.256C229 185.559 228.041 186.73 226.91 187.721C222.901 191.302 215.543 200.156 214.717 201.154C214.643 201.245 214.549 201.318 214.442 201.368C214.335 201.417 214.218 201.441 214.101 201.438ZM190.05 182.814L213.961 199.601C215.84 197.349 222.186 189.828 225.855 186.554C226.86 185.679 227.714 184.644 228.383 183.492C230.819 179.194 228.685 175.646 228.167 175.345C228.024 175.299 227.9 175.211 227.81 175.092C227.72 174.972 227.67 174.828 227.666 174.679C227.341 170.68 224.947 170.329 224.472 170.293C224.273 170.282 224.083 170.204 223.933 170.071C223.784 169.939 223.684 169.76 223.649 169.563C223.391 166.209 219.862 165.435 219.828 165.435C219.706 165.411 219.591 165.358 219.494 165.281C219.397 165.203 219.319 165.104 219.269 164.99C219.218 164.876 219.196 164.752 219.203 164.628C219.211 164.504 219.248 164.383 219.312 164.277L227.233 150.564C227.729 149.702 227.886 148.687 227.672 147.716C227.459 146.744 226.891 145.888 226.079 145.314C225.267 144.74 224.27 144.489 223.284 144.611C222.297 144.733 221.391 145.219 220.744 145.974L190.05 182.814Z" fill="#030047"/>
<path d="M216.794 183.1C216.794 183.1 214.116 191.8 222.374 188.26C222.374 188.26 224.9 187.373 229.082 183.874C231.752 179.158 229.389 174.901 228.463 174.617L216.794 183.1Z" fill="white"/>
<path d="M219.039 189.885C218.202 189.921 217.383 189.64 216.745 189.098C214.748 187.292 215.899 183.321 216.035 182.872C216.087 182.711 216.188 182.57 216.324 182.47L227.978 173.989C228.076 173.917 228.19 173.869 228.31 173.849C228.43 173.828 228.553 173.837 228.67 173.873C229.624 174.167 230.287 175.679 230.475 176.126C230.958 177.336 231.851 180.55 229.748 184.263C229.701 184.345 229.64 184.418 229.567 184.48C225.339 188.017 222.738 188.953 222.63 188.992C221.252 189.58 220.052 189.885 219.039 189.885ZM217.465 183.577C217.186 184.645 216.809 187.052 217.792 187.934C218.499 188.569 219.972 188.429 222.054 187.534C222.127 187.508 224.531 186.626 228.445 183.37C230.483 179.652 229.129 176.523 228.417 175.604L217.465 183.577Z" fill="#030047"/>
<path d="M211.851 178.016C211.888 178.019 211.925 178.019 211.962 178.016C215.726 177.804 224.428 169.502 224.428 169.502C224.121 165.508 219.988 164.67 219.988 164.67L209.882 172.263C207.408 174.118 208.752 178.13 211.851 178.016Z" fill="white"/>
<path d="M211.74 178.815C210.925 178.819 210.13 178.567 209.468 178.093C208.805 177.619 208.309 176.948 208.05 176.176C207.755 175.374 207.728 174.497 207.974 173.679C208.22 172.86 208.726 172.144 209.415 171.638L219.518 164.05C219.607 163.984 219.708 163.938 219.815 163.913C219.923 163.889 220.034 163.887 220.143 163.908C221.773 164.241 224.931 165.823 225.207 169.447C225.217 169.563 225.2 169.68 225.159 169.788C225.117 169.897 225.052 169.995 224.967 170.074C224.054 170.944 215.937 178.588 212.005 178.805H211.876L211.74 178.815ZM220.155 165.541L210.352 172.902C209.933 173.211 209.626 173.648 209.476 174.147C209.327 174.645 209.343 175.179 209.523 175.668C209.684 176.142 209.994 176.553 210.407 176.837C210.82 177.121 211.314 177.264 211.814 177.244H211.882C214.65 177.084 221.017 171.622 223.595 169.205C223.226 166.707 221.004 165.792 220.155 165.531V165.541Z" fill="#030047"/>
<path d="M213.75 182.548C217.798 185.698 228.456 174.617 228.456 174.617C228.082 169.996 225.102 169.55 224.529 169.514C224.524 169.503 209.736 179.426 213.75 182.548Z" fill="white"/>
<path d="M215.499 183.882C214.695 183.904 213.908 183.652 213.267 183.167C212.942 182.925 212.682 182.606 212.509 182.239C212.337 181.873 212.257 181.469 212.276 181.065C212.429 176.8 222.895 169.664 224.09 168.864C224.234 168.77 224.404 168.724 224.575 168.732C225.006 168.761 228.793 169.158 229.219 174.553C229.228 174.663 229.214 174.775 229.177 174.879C229.139 174.984 229.08 175.079 229.002 175.159C228.037 176.176 220.463 183.882 215.499 183.882ZM214.229 181.931C216.722 183.866 223.657 178.399 227.645 174.333C227.269 171.111 225.478 170.463 224.732 170.324C220.47 173.216 213.943 178.557 213.853 181.121C213.84 181.278 213.87 181.436 213.938 181.578C214.006 181.72 214.11 181.842 214.24 181.931H214.229Z" fill="#030047"/>
<path d="M188.033 184.096L194.917 164.911C195.31 163.339 196.298 161.981 197.672 161.122C199.046 160.263 200.699 159.969 202.285 160.304L213.154 162.589C213.417 162.645 213.664 162.755 213.88 162.915C214.096 163.074 214.275 163.277 214.405 163.512C214.535 163.746 214.613 164.006 214.634 164.273C214.655 164.541 214.619 164.809 214.527 165.061C214.065 166.325 213.192 167.398 212.047 168.106C210.903 168.815 209.554 169.119 208.216 168.97L202.749 168.358L203.474 171.454C205.345 174.253 204.906 176.145 202.979 179.857" fill="white"/>
<path d="M188.033 184.877C187.945 184.877 187.858 184.862 187.775 184.834C187.678 184.8 187.588 184.747 187.511 184.678C187.435 184.609 187.372 184.526 187.328 184.432C187.284 184.339 187.259 184.238 187.255 184.135C187.251 184.032 187.267 183.929 187.303 183.833L194.189 164.645C194.638 162.892 195.749 161.381 197.288 160.429C198.827 159.477 200.675 159.157 202.445 159.537L213.317 161.823C213.688 161.901 214.039 162.059 214.345 162.284C214.651 162.51 214.904 162.798 215.089 163.131C215.273 163.463 215.384 163.831 215.414 164.21C215.444 164.589 215.392 164.969 215.262 165.326C214.743 166.757 213.757 167.972 212.463 168.773C211.169 169.575 209.643 169.918 208.131 169.746L203.763 169.261L204.204 171.147C206.193 174.199 205.644 176.431 203.673 180.221C203.625 180.312 203.561 180.393 203.482 180.459C203.403 180.526 203.313 180.576 203.215 180.607C203.117 180.638 203.013 180.65 202.911 180.641C202.809 180.632 202.709 180.603 202.618 180.556C202.526 180.509 202.445 180.444 202.379 180.365C202.313 180.287 202.262 180.196 202.231 180.098C202.2 180 202.189 179.897 202.197 179.794C202.206 179.692 202.235 179.592 202.282 179.501C204.129 175.948 204.467 174.341 202.824 171.895C202.772 171.817 202.734 171.729 202.713 171.637L201.988 168.541C201.958 168.419 201.959 168.292 201.989 168.17C202.02 168.048 202.08 167.936 202.163 167.842C202.247 167.749 202.352 167.677 202.469 167.632C202.586 167.587 202.712 167.571 202.837 167.584L208.304 168.195C209.467 168.327 210.641 168.063 211.637 167.446C212.632 166.829 213.391 165.895 213.791 164.795C213.844 164.649 213.865 164.493 213.853 164.337C213.84 164.182 213.795 164.032 213.719 163.895C213.644 163.759 213.54 163.641 213.415 163.548C213.29 163.456 213.146 163.391 212.994 163.358L202.122 161.072C200.734 160.774 199.285 161.028 198.081 161.78C196.877 162.532 196.013 163.724 195.672 165.102L188.766 184.361C188.712 184.513 188.613 184.644 188.482 184.736C188.35 184.829 188.194 184.878 188.033 184.877Z" fill="#030047"/>
<path d="M218.221 203.301L184.403 253.664C182.731 256.862 180.297 259.597 177.315 261.629C174.334 263.66 170.897 264.925 167.31 265.31C163.723 265.695 160.096 265.19 156.751 263.838C153.406 262.486 150.446 260.33 148.134 257.56L117.69 218.659L114.687 184.947L138.572 185.004C141.7 185.222 144.713 186.273 147.299 188.047C149.884 189.821 151.949 192.254 153.278 195.094L166.049 210.316L187.563 180.659L218.221 203.301Z" fill="#3463AF"/>
<g opacity="0.4">
<path d="M200.043 231.164H199.924C198.284 230.911 196.735 230.248 195.419 229.237C194.103 228.227 193.064 226.9 192.397 225.381C191.73 223.861 191.458 222.198 191.605 220.546C191.751 218.893 192.313 217.304 193.237 215.926C194.161 214.548 195.418 213.426 196.891 212.663C198.364 211.899 200.006 211.52 201.665 211.561C203.324 211.601 204.946 212.059 206.38 212.892C207.815 213.726 209.016 214.908 209.872 216.329C209.979 216.506 210.012 216.719 209.962 216.921C209.912 217.122 209.784 217.295 209.607 217.402C209.429 217.509 209.216 217.541 209.015 217.492C208.814 217.442 208.64 217.314 208.533 217.136C207.813 215.941 206.803 214.947 205.596 214.246C204.389 213.545 203.025 213.16 201.63 213.127C200.235 213.093 198.854 213.411 197.615 214.053C196.376 214.695 195.319 215.639 194.541 216.798C193.764 217.956 193.292 219.293 193.168 220.683C193.044 222.073 193.273 223.471 193.833 224.749C194.393 226.027 195.267 227.143 196.373 227.994C197.479 228.844 198.782 229.402 200.161 229.616C200.367 229.631 200.557 229.728 200.691 229.884C200.825 230.041 200.892 230.244 200.876 230.449C200.86 230.654 200.764 230.845 200.607 230.979C200.451 231.113 200.248 231.179 200.043 231.164Z" fill="white"/>
</g>
<path d="M184.4 254.447C184.246 254.447 184.095 254.401 183.967 254.315C183.881 254.258 183.806 254.185 183.749 254.1C183.691 254.014 183.651 253.918 183.631 253.817C183.611 253.716 183.612 253.612 183.633 253.511C183.653 253.41 183.694 253.314 183.753 253.229L217.153 203.474L187.741 181.769L161.916 219.514C161.799 219.685 161.618 219.802 161.414 219.84C161.21 219.878 161 219.834 160.828 219.716C160.657 219.599 160.54 219.419 160.502 219.215C160.464 219.011 160.509 218.8 160.626 218.629L186.908 180.216C186.967 180.129 187.044 180.055 187.132 179.999C187.221 179.943 187.32 179.905 187.424 179.888C187.528 179.871 187.634 179.874 187.736 179.898C187.838 179.922 187.935 179.966 188.02 180.028L218.685 202.662C218.849 202.78 218.96 202.958 218.994 203.157C219.028 203.356 218.983 203.561 218.869 203.727L185.053 254.101C184.982 254.208 184.885 254.296 184.771 254.357C184.657 254.417 184.529 254.448 184.4 254.447Z" fill="#030047"/>
<path d="M159.279 297.505L86.7567 304.053L67.2729 305.818L58.6119 306.592L49.9484 208.585C49.4596 205.548 50.0835 202.436 51.7056 199.823C53.3276 197.209 55.8387 195.269 58.7771 194.359C69.7625 190.956 84.2877 186.877 93.6246 185.863C108.95 184.214 133.291 185.295 133.291 185.295C136.831 185.432 140.21 186.809 142.836 189.187C145.461 191.565 147.166 194.792 147.651 198.301L159.279 297.505Z" fill="#3463AF"/>
<g opacity="0.4">
<path d="M125.681 243.369C124.805 243.369 123.95 243.11 123.222 242.624C122.494 242.138 121.926 241.448 121.591 240.639C121.256 239.831 121.168 238.941 121.338 238.083C121.509 237.224 121.93 236.435 122.548 235.816C123.167 235.197 123.956 234.776 124.814 234.605C125.672 234.434 126.562 234.521 127.371 234.856C128.179 235.191 128.871 235.758 129.357 236.486C129.843 237.213 130.103 238.069 130.103 238.944C130.102 240.117 129.636 241.242 128.807 242.071C127.978 242.901 126.853 243.367 125.681 243.369ZM125.681 236.088C125.115 236.088 124.562 236.256 124.092 236.57C123.622 236.884 123.256 237.331 123.039 237.853C122.823 238.376 122.767 238.951 122.877 239.505C122.988 240.06 123.26 240.569 123.66 240.969C124.06 241.369 124.57 241.641 125.125 241.751C125.679 241.861 126.254 241.804 126.776 241.587C127.299 241.37 127.745 241.003 128.059 240.533C128.373 240.063 128.54 239.51 128.539 238.944C128.538 238.187 128.236 237.461 127.7 236.925C127.164 236.39 126.438 236.089 125.681 236.088Z" fill="white"/>
</g>
<g opacity="0.6">
<path d="M108.809 264.939C108.731 264.939 108.654 264.921 108.583 264.888C108.512 264.854 108.45 264.804 108.402 264.742L103.288 258.334C103.202 258.225 103.162 258.087 103.178 257.949C103.194 257.812 103.264 257.686 103.372 257.6C103.481 257.514 103.619 257.474 103.756 257.49C103.894 257.505 104.02 257.575 104.106 257.684L109.217 264.092C109.26 264.146 109.293 264.207 109.312 264.273C109.331 264.339 109.337 264.408 109.33 264.476C109.322 264.544 109.301 264.61 109.267 264.67C109.234 264.73 109.189 264.783 109.134 264.825C109.042 264.899 108.928 264.939 108.809 264.939Z" fill="white"/>
</g>
<path d="M98.5776 254.546L105.154 250.091C105.559 249.755 105.879 249.329 106.09 248.847C106.352 248.203 106.397 247.491 106.22 246.819C106.043 246.147 105.652 245.551 105.107 245.12C104.562 244.688 103.891 244.446 103.196 244.428C102.501 244.41 101.82 244.618 101.253 245.021L79.7207 254.582L86.457 281.112" fill="white"/>
<path d="M86.4496 281.896C86.2751 281.898 86.1052 281.84 85.9675 281.733C85.8298 281.626 85.7324 281.475 85.6911 281.305L78.9471 254.776C78.8997 254.597 78.9182 254.406 78.9992 254.24C79.0801 254.073 79.2182 253.941 79.3882 253.868L100.861 244.322C101.324 244.009 101.846 243.796 102.394 243.696C102.943 243.595 103.507 243.61 104.05 243.739C104.598 243.869 105.111 244.115 105.556 244.46C106.001 244.805 106.367 245.24 106.63 245.738C106.907 246.259 107.067 246.833 107.098 247.422C107.13 248.011 107.031 248.599 106.811 249.146C106.55 249.746 106.152 250.276 105.65 250.694L99.014 255.194C98.9293 255.251 98.8341 255.292 98.7338 255.312C98.6335 255.333 98.5301 255.334 98.4295 255.315C98.3288 255.296 98.233 255.257 98.1473 255.201C98.0617 255.145 97.988 255.072 97.9304 254.987C97.8728 254.903 97.8325 254.807 97.8117 254.707C97.7909 254.607 97.79 254.503 97.8092 254.403C97.8284 254.302 97.8672 254.206 97.9234 254.121C97.9796 254.035 98.0521 253.961 98.1368 253.904L104.713 249.448C104.998 249.195 105.224 248.883 105.374 248.532C105.503 248.203 105.558 247.85 105.538 247.497C105.517 247.144 105.419 246.8 105.252 246.489C105.094 246.187 104.873 245.922 104.604 245.713C104.335 245.503 104.023 245.355 103.691 245.276C103.351 245.197 102.998 245.191 102.656 245.258C102.313 245.324 101.988 245.463 101.702 245.663C101.661 245.695 101.616 245.721 101.568 245.741L80.6318 255.029L87.2029 280.921C87.2292 281.02 87.2353 281.124 87.221 281.226C87.2067 281.328 87.1723 281.426 87.1197 281.514C87.0671 281.603 86.9974 281.68 86.9147 281.741C86.8319 281.802 86.7379 281.846 86.6379 281.87C86.5766 281.887 86.5132 281.896 86.4496 281.896Z" fill="#030047"/>
<path d="M132.92 283.191L99.1401 288.674C98.1158 288.837 97.0671 288.751 96.0831 288.423C95.0991 288.095 94.2088 287.534 93.4877 286.788C92.7666 286.042 92.236 285.134 91.9409 284.139C91.6458 283.145 91.5948 282.094 91.7924 281.076L100.618 236.233C100.874 234.945 101.517 233.764 102.462 232.851C103.407 231.938 104.608 231.335 105.905 231.123L139.682 225.64C140.705 225.477 141.753 225.563 142.736 225.89C143.72 226.218 144.61 226.777 145.331 227.522C146.052 228.266 146.583 229.173 146.879 230.167C147.175 231.16 147.228 232.21 147.032 233.228L138.203 278.07C137.952 279.362 137.311 280.545 136.366 281.461C135.421 282.377 134.218 282.981 132.92 283.191Z" fill="#030047"/>
<path d="M86.4497 281.112L115.492 276.829C115.919 276.685 116.308 276.448 116.632 276.136C116.956 275.824 117.208 275.444 117.368 275.023C117.61 274.476 117.67 273.865 117.538 273.282C117.388 272.536 116.958 271.877 116.337 271.44C115.715 271.003 114.949 270.821 114.197 270.931L108.929 271.63L118.733 270.279C119.29 270.212 119.82 270.003 120.272 269.671C120.724 269.339 121.083 268.896 121.313 268.385C121.314 268.379 121.314 268.373 121.313 268.367C121.554 267.819 121.613 267.209 121.48 266.625C121.332 265.882 120.903 265.223 120.284 264.786C119.664 264.349 118.9 264.166 118.15 264.275L108.132 265.604L123.095 263.568C123.991 263.31 124.643 262.536 124.969 261.741C125.208 261.196 125.268 260.589 125.139 260.008C124.986 259.27 124.553 258.62 123.93 258.196C123.306 257.772 122.543 257.608 121.8 257.737L107.327 259.52L117.837 258.124C118.733 257.866 119.385 257.092 119.713 256.298C119.956 255.754 120.015 255.147 119.881 254.567C119.73 253.832 119.299 253.185 118.68 252.762C118.061 252.339 117.302 252.173 116.563 252.299L94.961 253.692" fill="white"/>
<path d="M86.4495 281.896C86.2443 281.911 86.0414 281.844 85.8856 281.71C85.7298 281.575 85.6338 281.384 85.6188 281.179C85.6037 280.974 85.6708 280.771 85.8053 280.615C85.9399 280.459 86.1307 280.363 86.336 280.348L115.324 276.071C115.629 275.953 115.904 275.772 116.132 275.54C116.361 275.307 116.536 275.028 116.648 274.722C116.827 274.324 116.872 273.88 116.777 273.455C116.674 272.904 116.362 272.413 115.906 272.086C115.451 271.759 114.887 271.62 114.331 271.698L109.034 272.4C108.933 272.414 108.829 272.409 108.729 272.383C108.63 272.358 108.536 272.312 108.454 272.25C108.372 272.188 108.304 272.11 108.252 272.021C108.201 271.932 108.168 271.833 108.155 271.731C108.139 271.629 108.145 271.525 108.171 271.425C108.196 271.325 108.242 271.231 108.304 271.149C108.367 271.067 108.445 270.998 108.535 270.946C108.624 270.895 108.723 270.862 108.826 270.849L118.629 269.5C119.048 269.452 119.448 269.297 119.79 269.051C120.132 268.805 120.406 268.475 120.585 268.094L120.6 268.055C120.776 267.661 120.821 267.22 120.727 266.798C120.625 266.248 120.315 265.758 119.861 265.43C119.406 265.103 118.843 264.964 118.289 265.042L108.242 266.373C108.037 266.4 107.829 266.346 107.665 266.22C107.5 266.094 107.392 265.909 107.364 265.703C107.336 265.498 107.391 265.29 107.517 265.125C107.642 264.961 107.828 264.853 108.033 264.825L122.928 262.8C123.231 262.677 123.505 262.492 123.733 262.257C123.96 262.022 124.136 261.742 124.249 261.435C124.423 261.039 124.467 260.598 124.375 260.176C124.266 259.636 123.95 259.16 123.495 258.849C123.04 258.539 122.482 258.419 121.939 258.514L107.43 260.3C107.224 260.326 107.017 260.27 106.853 260.143C106.69 260.017 106.583 259.83 106.556 259.625C106.53 259.42 106.586 259.212 106.713 259.049C106.839 258.885 107.026 258.778 107.231 258.752L117.68 257.366C117.983 257.247 118.258 257.064 118.485 256.83C118.712 256.596 118.886 256.316 118.996 256.009C119.176 255.616 119.222 255.175 119.127 254.753C119.024 254.211 118.711 253.732 118.258 253.419C117.804 253.105 117.245 252.983 116.702 253.078L95.0305 254.482C94.9278 254.489 94.8245 254.477 94.7269 254.444C94.6292 254.411 94.539 254.359 94.4616 254.291C94.3843 254.223 94.3212 254.141 94.2763 254.048C94.2313 253.955 94.2053 253.854 94.1997 253.752C94.192 253.649 94.2049 253.546 94.2376 253.448C94.2703 253.35 94.3222 253.26 94.3902 253.183C94.4582 253.105 94.5409 253.042 94.6336 252.997C94.7263 252.952 94.827 252.926 94.9299 252.921L116.529 251.528C117.458 251.381 118.406 251.601 119.176 252.14C119.946 252.679 120.477 253.495 120.657 254.417C120.824 255.155 120.747 255.927 120.438 256.618C120.365 256.804 120.279 256.985 120.18 257.16L121.728 256.971C122.66 256.82 123.615 257.034 124.393 257.569C125.171 258.105 125.712 258.92 125.902 259.845C126.065 260.585 125.988 261.356 125.683 262.049C125.481 262.579 125.164 263.058 124.753 263.45C124.342 263.842 123.849 264.137 123.309 264.314C123.273 264.324 123.236 264.332 123.198 264.337L121.271 264.595C121.767 265.111 122.107 265.757 122.252 266.458C122.415 267.189 122.344 267.953 122.048 268.641C122.048 268.641 122.048 268.669 122.03 268.684C121.746 269.32 121.302 269.87 120.743 270.284C120.183 270.698 119.526 270.96 118.836 271.045L117.329 271.251C117.825 271.768 118.166 272.413 118.312 273.114C118.476 273.854 118.4 274.627 118.095 275.32C117.892 275.851 117.573 276.329 117.162 276.721C116.75 277.113 116.256 277.408 115.717 277.585L115.613 277.606L86.5734 281.883L86.4495 281.896Z" fill="#030047"/>
<path d="M92.4835 281.533L44.7258 297.338C40.1171 298.913 35.1496 299.114 30.4285 297.916C25.7075 296.719 21.4366 294.174 18.1363 290.592C14.836 287.01 12.6486 282.545 11.8406 277.742C11.0326 272.939 11.639 268.005 13.5857 263.54L29.9117 212.423C31.1722 207.348 33.9462 202.776 37.8657 199.314C41.7852 195.852 46.6647 193.664 51.8568 193.04L66.3536 191.83L49.0679 259.167L83.8741 247.658L92.4835 281.533Z" fill="#3463AF"/>
<path d="M44.7265 298.638C44.5318 298.657 44.3373 298.601 44.1821 298.482C44.0269 298.363 43.9225 298.19 43.8898 297.997C43.8571 297.804 43.8986 297.606 44.006 297.443C44.1133 297.279 44.2786 297.163 44.4685 297.116L91.5424 281.025L83.333 248.659L49.3214 259.908C49.1873 259.955 49.0428 259.965 48.9037 259.935C48.7647 259.906 48.6364 259.839 48.533 259.741C48.4296 259.643 48.355 259.519 48.3175 259.382C48.28 259.245 48.281 259.1 48.3203 258.964L58.1706 222.135C58.2243 221.934 58.3555 221.763 58.5352 221.66C58.715 221.556 58.9286 221.528 59.1291 221.581C59.3296 221.635 59.5005 221.766 59.6043 221.946C59.7081 222.126 59.7362 222.339 59.6825 222.54L50.196 257.968L83.6297 246.902C83.7317 246.867 83.8399 246.854 83.9473 246.863C84.0548 246.873 84.1591 246.904 84.2536 246.956C84.3481 247.008 84.4307 247.08 84.4961 247.165C84.5614 247.251 84.6082 247.35 84.6333 247.454L93.2426 281.332C93.2921 281.524 93.2662 281.727 93.1702 281.9C93.0742 282.074 92.9154 282.204 92.7266 282.263L44.969 298.589C44.8912 298.618 44.8094 298.635 44.7265 298.638Z" fill="#030047"/>
<path d="M159.279 298.285C159.087 298.286 158.902 298.216 158.759 298.088C158.616 297.961 158.525 297.784 158.505 297.594L147.819 206.444C147.807 206.342 147.815 206.239 147.843 206.141C147.871 206.042 147.918 205.95 147.982 205.87C148.045 205.79 148.124 205.723 148.213 205.673C148.302 205.623 148.401 205.591 148.502 205.579C148.604 205.568 148.707 205.576 148.805 205.604C148.904 205.632 148.996 205.679 149.076 205.742C149.156 205.806 149.223 205.884 149.273 205.974C149.323 206.063 149.355 206.162 149.367 206.263L160.053 297.413C160.066 297.515 160.058 297.619 160.031 297.718C160.003 297.817 159.956 297.91 159.892 297.991C159.828 298.071 159.749 298.139 159.658 298.188C159.568 298.238 159.469 298.269 159.367 298.28C159.338 298.284 159.308 298.286 159.279 298.285Z" fill="#030047"/>
<path d="M113.178 183.482L107.502 153.925L78.9751 152.194L82.9715 187.733C82.9715 187.733 91.6556 197.88 104.385 195.285C114.604 193.2 113.178 183.482 113.178 183.482Z" fill="white"/>
<path d="M100.263 196.487C89.5767 196.487 82.4612 188.334 82.3812 188.231C82.279 188.112 82.2152 187.966 82.198 187.81L78.2042 152.282C78.1906 152.168 78.2023 152.053 78.2385 151.945C78.2746 151.836 78.3343 151.737 78.4132 151.655C78.493 151.573 78.5892 151.509 78.6955 151.467C78.8018 151.425 78.9157 151.407 79.0298 151.412L107.556 153.143C107.73 153.153 107.896 153.22 108.027 153.336C108.157 153.451 108.245 153.607 108.276 153.778L113.952 183.334C113.953 183.345 113.953 183.356 113.952 183.367C113.968 183.473 115.361 193.845 104.535 196.053C103.129 196.34 101.698 196.485 100.263 196.487ZM83.7253 187.392C84.9302 188.682 93.0132 196.809 104.223 194.518C113.511 192.624 112.479 184.157 112.407 183.613L106.855 154.671L79.8631 153.03L83.7253 187.392Z" fill="#030047"/>
<path d="M79.236 154.728C68.0055 138.732 74.1096 115.91 74.1096 115.91L115.758 104.765C116.408 105.464 129.638 119.571 128.895 144.254C128.281 164.589 107.541 173.275 88.0027 162.938" fill="white"/>
<path d="M104.687 168.107C99.1371 168.107 93.2677 166.608 87.6356 163.631C87.4519 163.534 87.3143 163.367 87.2531 163.169C87.1919 162.97 87.2121 162.755 87.3093 162.572C87.4064 162.388 87.5726 162.25 87.7712 162.189C87.9698 162.128 88.1846 162.148 88.3683 162.245C98.4689 167.591 109.328 167.973 117.414 163.277C124.059 159.407 127.857 152.65 128.113 144.24C128.786 121.897 117.834 108.293 115.499 105.654L74.7565 116.544C74.0083 119.751 69.8287 139.975 79.8751 154.278C79.9341 154.363 79.9757 154.459 79.9978 154.559C80.0198 154.66 80.0218 154.764 80.0036 154.866C79.9854 154.968 79.9474 155.065 79.8917 155.151C79.836 155.238 79.7637 155.313 79.679 155.372C79.5943 155.431 79.4988 155.473 79.398 155.495C79.2972 155.517 79.193 155.519 79.0915 155.501C78.9899 155.483 78.8929 155.445 78.806 155.389C78.7191 155.333 78.6441 155.261 78.5851 155.176C67.2746 139.075 73.0898 116.652 73.3426 115.703C73.3771 115.57 73.4464 115.448 73.5434 115.351C73.6405 115.253 73.7617 115.183 73.8948 115.148L115.556 104.008C115.693 103.972 115.838 103.974 115.974 104.014C116.11 104.053 116.233 104.129 116.33 104.232C117.78 105.78 130.406 120.076 129.676 144.276C129.405 153.249 125.331 160.473 118.2 164.619C114.196 166.949 109.565 168.107 104.687 168.107Z" fill="#030047"/>
<path d="M122.159 113.926C120.644 110.863 113.309 108.619 113.309 108.619C103.395 121.17 80.7116 132.174 80.7116 132.174C76.6147 140.205 73.64 148.203 80.1002 155.948L82.3473 187.792C82.3473 187.792 60.8563 211.765 46.7439 197.054C33.7615 183.528 48.0597 162.999 48.7898 159.991C50.2604 153.868 45.085 147.973 45.2372 141.673C45.3688 136.314 49.2903 131.89 53.039 128.033C56.1866 124.787 58.9549 121.583 60.5364 117.408C60.6757 117.04 60.8073 116.668 60.9285 116.286C61.0911 115.752 61.2768 115.231 61.4729 114.707C62.3037 112.481 63.4761 110.397 64.9481 108.531C70.7659 101.219 79.352 92.9015 88.2425 90.8968C95.8921 89.176 105.206 88.2059 112.626 91.3767C125.404 96.8694 122.159 113.926 122.159 113.926Z" fill="#030047"/>
<path d="M64.4187 122.615V122.664C64.2407 123.131 64.0756 123.601 63.9285 124.078C63.8227 124.419 63.7041 124.751 63.5776 125.082C63.8511 124.194 64.1349 123.376 64.4187 122.615Z" fill="#030047"/>
<path d="M116.614 133.154C116.872 134.63 117.904 135.68 118.89 135.502C119.875 135.324 120.466 133.982 120.2 132.507C119.935 131.031 118.91 129.978 117.925 130.156C116.939 130.334 116.356 131.676 116.614 133.154Z" fill="#030047"/>
<path d="M120.198 127.489C118.43 126.715 116.276 127.153 114.733 128.632L120.198 127.489Z" fill="white"/>
<path d="M114.734 129.414C114.575 129.418 114.42 129.374 114.288 129.288C114.155 129.201 114.053 129.076 113.994 128.929C113.935 128.783 113.922 128.621 113.958 128.467C113.993 128.313 114.075 128.174 114.192 128.067C115.969 126.365 118.451 125.859 120.515 126.777C120.705 126.862 120.853 127.018 120.928 127.211C121.002 127.405 120.997 127.62 120.913 127.809C120.828 127.999 120.672 128.147 120.479 128.222C120.285 128.296 120.07 128.291 119.881 128.207C118.4 127.551 116.591 127.949 115.275 129.2C115.129 129.338 114.935 129.415 114.734 129.414Z" fill="#030047"/>
<path d="M100.183 137.605C100.214 139.104 101.055 140.304 102.061 140.283C103.067 140.263 103.867 139.027 103.826 137.528C103.784 136.029 102.951 134.829 101.945 134.85C100.939 134.871 100.149 136.106 100.183 137.605Z" fill="#030047"/>
<path d="M103.946 132.282C102.205 131.444 100.038 131.828 98.4512 133.258L103.946 132.282Z" fill="white"/>
<path d="M98.4516 134.038C98.2923 134.041 98.136 133.995 98.0041 133.905C97.8723 133.816 97.7712 133.688 97.7147 133.539C97.6583 133.39 97.6492 133.227 97.6888 133.073C97.7283 132.918 97.8145 132.78 97.9356 132.676C99.7622 131.03 102.26 130.597 104.295 131.577C104.482 131.667 104.625 131.828 104.694 132.023C104.762 132.219 104.75 132.434 104.66 132.621C104.57 132.808 104.41 132.951 104.214 133.019C104.018 133.088 103.804 133.076 103.617 132.986C102.156 132.284 100.338 132.617 98.9728 133.84C98.8298 133.968 98.644 134.039 98.4516 134.038Z" fill="#030047"/>
<path d="M81.8341 133.42C81.8341 133.42 73.7872 124.759 69.0504 126.24C64.3136 127.721 65.4643 144.279 70.9622 146.031C74.2517 147.077 77.7987 146.977 81.024 145.747" fill="white"/>
<path d="M75.5926 147.527C73.9443 147.528 72.3057 147.275 70.7345 146.776C67.1536 145.633 65.2934 139.467 65.3166 133.967C65.3295 129.346 66.6427 126.18 68.8331 125.494C73.8976 123.918 81.5678 131.965 82.4269 132.888C82.5682 133.04 82.6432 133.243 82.6355 133.45C82.6278 133.658 82.5379 133.854 82.3856 133.995C82.2334 134.136 82.0312 134.211 81.8237 134.204C81.6161 134.196 81.4201 134.106 81.2788 133.954C79.1349 131.632 72.7985 125.891 69.3001 126.988C67.863 127.437 66.8904 130.244 66.8801 133.969C66.8672 138.848 68.4848 144.413 71.217 145.285C74.323 146.259 77.6653 146.168 80.7138 145.027C80.9034 144.942 81.1187 144.937 81.3125 145.011C81.5063 145.085 81.6626 145.233 81.7471 145.423C81.8316 145.612 81.8373 145.828 81.7631 146.022C81.6888 146.215 81.5406 146.372 81.3511 146.456C79.519 147.183 77.5633 147.546 75.5926 147.527Z" fill="#030047"/>
<path d="M71.9319 139.061C71.7771 139.062 71.6254 139.016 71.4967 138.93C71.3679 138.844 71.2679 138.722 71.2095 138.578C70.7404 137.444 70.5069 136.227 70.5233 135C70.5387 133.937 70.8354 133.194 71.4262 132.73C71.6934 132.53 72.0012 132.393 72.3277 132.327C72.6542 132.261 72.9913 132.268 73.3148 132.348C73.8561 132.486 74.3567 132.751 74.775 133.122C75.3896 133.635 75.8919 134.269 76.2508 134.984C76.2967 135.076 76.3241 135.176 76.3313 135.279C76.3386 135.381 76.3256 135.484 76.2932 135.581C76.2607 135.679 76.2094 135.769 76.1421 135.846C76.0749 135.924 75.993 135.987 75.9012 136.033C75.8094 136.079 75.7094 136.106 75.607 136.114C75.5046 136.121 75.4018 136.108 75.3044 136.076C75.207 136.043 75.117 135.992 75.0394 135.925C74.9619 135.857 74.8983 135.775 74.8524 135.684C74.5901 135.162 74.223 134.7 73.774 134.327C73.5439 134.117 73.2684 133.963 72.9691 133.878C72.8727 133.851 72.7718 133.844 72.6727 133.858C72.5737 133.873 72.4787 133.907 72.3937 133.96C72.2002 134.112 72.097 134.476 72.0893 135.026C72.0754 136.039 72.2676 137.045 72.6543 137.982C72.6963 138.078 72.7187 138.18 72.7201 138.284C72.7215 138.389 72.7018 138.492 72.6623 138.588C72.6228 138.685 72.5643 138.772 72.4902 138.845C72.4161 138.918 72.328 138.976 72.2312 139.014C72.1355 139.049 72.0338 139.065 71.9319 139.061Z" fill="#030047"/>
<path d="M111.576 136.893L114.292 142.806C114.837 143.995 115.389 145.231 115.27 146.498C115.199 147.187 114.902 147.833 114.427 148.336C113.951 148.839 113.322 149.172 112.639 149.282" fill="white"/>
<path d="M112.626 150.064C112.421 150.079 112.218 150.011 112.062 149.876C111.907 149.742 111.811 149.551 111.796 149.345C111.782 149.14 111.849 148.937 111.984 148.782C112.119 148.626 112.31 148.531 112.515 148.516C113.024 148.429 113.492 148.179 113.846 147.803C114.2 147.426 114.422 146.945 114.478 146.431C114.579 145.353 114.042 144.176 113.567 143.139L110.864 137.226C110.821 137.132 110.797 137.031 110.793 136.929C110.79 136.826 110.806 136.724 110.842 136.627C110.878 136.531 110.933 136.443 111.003 136.367C111.073 136.292 111.157 136.232 111.251 136.189C111.344 136.146 111.445 136.122 111.548 136.119C111.651 136.115 111.753 136.132 111.849 136.168C111.946 136.203 112.034 136.258 112.109 136.328C112.184 136.398 112.245 136.482 112.288 136.576L114.992 142.489C115.546 143.704 116.176 145.069 116.036 146.578C115.949 147.44 115.578 148.249 114.982 148.878C114.387 149.507 113.6 149.921 112.744 150.056L112.626 150.064Z" fill="#030047"/>
<path d="M106.24 158.126C104.604 158.138 103.021 157.54 101.803 156.447C100.585 155.354 99.818 153.846 99.6535 152.217C99.643 152.116 99.6526 152.013 99.6818 151.915C99.711 151.817 99.7592 151.726 99.8237 151.647C99.8881 151.567 99.9676 151.502 100.057 151.453C100.147 151.404 100.246 151.374 100.348 151.363C100.449 151.353 100.552 151.363 100.65 151.392C100.748 151.421 100.839 151.469 100.918 151.534C100.998 151.598 101.063 151.678 101.112 151.767C101.161 151.857 101.191 151.956 101.202 152.058C101.282 152.834 101.542 153.581 101.961 154.24C102.38 154.899 102.946 155.451 103.615 155.854C104.284 156.256 105.038 156.497 105.816 156.559C106.595 156.62 107.377 156.499 108.1 156.206C108.196 156.168 108.297 156.148 108.4 156.149C108.503 156.15 108.604 156.171 108.699 156.211C108.793 156.251 108.879 156.31 108.951 156.383C109.023 156.456 109.08 156.543 109.118 156.638C109.157 156.733 109.176 156.835 109.175 156.938C109.174 157.041 109.153 157.142 109.113 157.237C109.073 157.331 109.014 157.417 108.941 157.489C108.868 157.561 108.781 157.618 108.686 157.656C107.908 157.968 107.078 158.127 106.24 158.126Z" fill="#030047"/>
<path d="M41.4267 262.722C41.2343 262.736 41.0435 262.679 40.8915 262.56C40.7396 262.441 40.6374 262.27 40.6052 262.08C40.5729 261.889 40.6128 261.694 40.717 261.532C40.8212 261.37 40.9823 261.252 41.1687 261.202L48.8105 258.429C49.0055 258.358 49.2207 258.368 49.4086 258.455C49.5966 258.543 49.742 258.702 49.8128 258.897C49.8836 259.092 49.8741 259.307 49.7863 259.495C49.6985 259.683 49.5396 259.829 49.3446 259.899L41.7027 262.675C41.6141 262.707 41.5207 262.723 41.4267 262.722Z" fill="#030047"/>
<g opacity="0.4">
<path d="M81.1575 223.829C79.7738 223.83 78.4211 223.42 77.2704 222.652C76.1198 221.883 75.2229 220.791 74.6933 219.512C74.1637 218.234 74.0251 216.827 74.2951 215.47C74.5651 214.113 75.2316 212.867 76.2101 211.888C77.1887 210.91 78.4355 210.244 79.7926 209.975C81.1498 209.705 82.5564 209.844 83.8345 210.374C85.1126 210.905 86.2047 211.802 86.9728 212.953C87.7408 214.104 88.1502 215.457 88.1492 216.84C88.1458 218.693 87.408 220.469 86.0974 221.779C84.7869 223.089 83.0105 223.827 81.1575 223.829ZM81.1575 211.407C80.0866 211.407 79.0397 211.724 78.1491 212.319C77.2584 212.914 76.564 213.759 76.1535 214.748C75.743 215.737 75.6348 216.826 75.8426 217.876C76.0504 218.927 76.5649 219.892 77.321 220.65C78.0772 221.409 79.0411 221.926 80.0911 222.137C81.141 222.347 82.2299 222.242 83.2201 221.835C84.2104 221.427 85.0576 220.735 85.6548 219.846C86.252 218.957 86.5724 217.911 86.5754 216.84C86.5741 215.402 86.0033 214.023 84.988 213.005C83.9727 211.987 82.5954 211.412 81.1575 211.407Z" fill="white"/>
</g>
<g opacity="0.4">
<path d="M26.6822 234.135C25.4484 234.137 24.2305 233.856 23.1219 233.315C22.9358 233.223 22.7938 233.061 22.7273 232.864C22.6608 232.667 22.6751 232.452 22.7671 232.266C22.8592 232.08 23.0214 231.938 23.218 231.872C23.4147 231.805 23.6298 231.819 23.8159 231.911C24.7083 232.348 25.6889 232.574 26.6822 232.572C28.4524 232.57 30.1495 231.866 31.4013 230.614C32.653 229.362 33.3571 227.665 33.3592 225.895C33.3675 224.322 32.8153 222.798 31.8017 221.596C30.788 220.393 29.3791 219.592 27.8277 219.334C27.6225 219.3 27.4392 219.185 27.3182 219.016C27.1973 218.847 27.1485 218.636 27.1827 218.431C27.217 218.226 27.3313 218.043 27.5007 217.922C27.67 217.801 27.8805 217.752 28.0857 217.786C30.1191 218.135 31.9474 219.235 33.2085 220.868C34.4696 222.501 35.0717 224.547 34.8955 226.603C34.7193 228.659 33.7778 230.573 32.2572 231.968C30.7367 233.362 28.748 234.135 26.6848 234.133L26.6822 234.135Z" fill="white"/>
</g>
<g opacity="0.4">
<path d="M46.1352 223.112C44.8228 223.112 43.5398 222.723 42.4486 221.994C41.3574 221.265 40.5069 220.228 40.0046 219.016C39.5024 217.803 39.371 216.469 39.627 215.182C39.8831 213.895 40.515 212.712 41.4431 211.784C42.3711 210.856 43.5534 210.224 44.8406 209.968C46.1278 209.712 47.462 209.844 48.6745 210.346C49.887 210.848 50.9234 211.699 51.6525 212.79C52.3817 213.881 52.7708 215.164 52.7708 216.476C52.7688 218.236 52.069 219.922 50.825 221.166C49.581 222.41 47.8944 223.11 46.1352 223.112ZM46.1352 211.404C45.1319 211.404 44.151 211.701 43.3165 212.258C42.482 212.815 41.8315 213.607 41.4472 214.534C41.0629 215.46 40.9621 216.48 41.1575 217.464C41.353 218.449 41.8358 219.353 42.5451 220.062C43.2543 220.772 44.1581 221.255 45.1421 221.451C46.1261 221.647 47.1461 221.547 48.073 221.163C49 220.779 49.7923 220.129 50.3498 219.295C50.9072 218.461 51.2048 217.48 51.2048 216.476C51.2034 215.132 50.669 213.843 49.7186 212.892C48.7682 211.941 47.4795 211.406 46.1352 211.404Z" fill="white"/>
</g>
<g opacity="0.4">
<path d="M33.3508 250.471C32.7584 250.471 32.1793 250.295 31.6867 249.966C31.1941 249.637 30.8102 249.169 30.5835 248.622C30.3568 248.075 30.2974 247.472 30.413 246.891C30.5286 246.31 30.8139 245.777 31.2328 245.358C31.6517 244.939 32.1854 244.654 32.7664 244.538C33.3475 244.422 33.9497 244.482 34.4971 244.708C35.0444 244.935 35.5122 245.319 35.8413 245.812C36.1705 246.304 36.3461 246.883 36.3461 247.476C36.3455 248.27 36.0297 249.031 35.4681 249.593C34.9065 250.155 34.145 250.47 33.3508 250.471ZM33.3508 246.044C33.0676 246.044 32.7908 246.128 32.5553 246.285C32.3198 246.443 32.1363 246.666 32.0279 246.928C31.9195 247.189 31.8912 247.477 31.9464 247.755C32.0017 248.033 32.1381 248.288 32.3383 248.488C32.5386 248.689 32.7937 248.825 33.0715 248.88C33.3492 248.935 33.6371 248.907 33.8988 248.799C34.1604 248.69 34.384 248.507 34.5414 248.271C34.6987 248.036 34.7827 247.759 34.7827 247.476C34.7827 247.096 34.6318 246.732 34.3633 246.463C34.0948 246.195 33.7306 246.044 33.3508 246.044Z" fill="white"/>
</g>
<g opacity="0.4">
<path d="M32.2649 279.687C31.4332 279.687 30.6201 279.44 29.9285 278.978C29.237 278.516 28.698 277.859 28.3797 277.091C28.0614 276.323 27.9781 275.477 28.1404 274.661C28.3026 273.846 28.7032 273.096 29.2913 272.508C29.8794 271.92 30.6287 271.519 31.4445 271.357C32.2602 271.195 33.1058 271.278 33.8742 271.596C34.6426 271.915 35.2994 272.454 35.7615 273.145C36.2236 273.837 36.4702 274.65 36.4702 275.482C36.4689 276.597 36.0254 277.665 35.237 278.454C34.4487 279.242 33.3798 279.686 32.2649 279.687ZM32.2649 272.842C31.7423 272.842 31.2314 272.997 30.7969 273.288C30.3624 273.578 30.0238 273.991 29.8239 274.474C29.624 274.957 29.5718 275.488 29.674 276.001C29.7761 276.513 30.028 276.984 30.3977 277.353C30.7675 277.723 31.2384 277.974 31.7511 278.076C32.2637 278.177 32.795 278.125 33.2777 277.924C33.7604 277.724 34.1728 277.385 34.4628 276.95C34.7528 276.515 34.9073 276.004 34.9068 275.482C34.9054 274.782 34.6266 274.111 34.1313 273.616C33.6361 273.121 32.9649 272.843 32.2649 272.842Z" fill="white"/>
</g>
<g opacity="0.4">
<path d="M78.3581 279.767C77.2195 279.767 76.1063 279.43 75.1593 278.798C74.2124 278.165 73.4742 277.266 73.0382 276.215C72.6023 275.163 72.4881 274.005 72.7101 272.888C72.9321 271.772 73.4803 270.746 74.2855 269.941C75.0906 269.136 76.1164 268.587 77.2332 268.365C78.35 268.143 79.5075 268.258 80.5594 268.694C81.6112 269.129 82.5102 269.868 83.1424 270.815C83.7747 271.762 84.1119 272.875 84.1114 274.013C84.1093 275.539 83.5025 277.001 82.424 278.079C81.3455 279.158 79.8833 279.765 78.3581 279.767ZM78.3581 269.823C77.5299 269.826 76.7208 270.073 76.0331 270.535C75.3455 270.996 74.8101 271.651 74.4945 272.417C74.179 273.183 74.0975 274.025 74.2603 274.837C74.4231 275.649 74.823 276.395 75.4094 276.98C75.9957 277.565 76.7423 277.963 77.5548 278.123C78.3673 278.284 79.2092 278.201 79.9742 277.883C80.7392 277.566 81.3929 277.029 81.8528 276.34C82.3128 275.651 82.5583 274.842 82.5583 274.013C82.5576 273.462 82.4484 272.917 82.237 272.408C82.0255 271.9 81.7159 271.438 81.3259 271.049C80.9359 270.659 80.4731 270.351 79.9638 270.141C79.4546 269.931 78.909 269.823 78.3581 269.823Z" fill="white"/>
</g>
<g opacity="0.4">
<path d="M126.054 217.406C124.585 217.406 123.149 216.971 121.928 216.156C120.707 215.34 119.754 214.18 119.192 212.823C118.63 211.467 118.483 209.973 118.769 208.533C119.055 207.092 119.763 205.769 120.801 204.73C121.84 203.692 123.163 202.985 124.604 202.698C126.044 202.412 127.537 202.559 128.894 203.121C130.251 203.684 131.411 204.636 132.226 205.857C133.042 207.079 133.477 208.515 133.477 209.983C133.474 211.951 132.691 213.837 131.3 215.229C129.908 216.62 128.022 217.403 126.054 217.406ZM126.054 204.124C124.895 204.124 123.762 204.467 122.798 205.11C121.834 205.754 121.083 206.669 120.639 207.739C120.195 208.81 120.079 209.988 120.305 211.125C120.531 212.262 121.088 213.306 121.908 214.125C122.727 214.945 123.771 215.503 124.908 215.73C126.044 215.956 127.222 215.84 128.293 215.397C129.364 214.953 130.279 214.202 130.923 213.239C131.567 212.275 131.911 211.142 131.911 209.983C131.909 208.431 131.291 206.942 130.193 205.844C129.095 204.745 127.607 204.127 126.054 204.124Z" fill="white"/>
</g>
<g opacity="0.4">
<path d="M99.9364 212.175C99.0382 212.174 98.1606 211.906 97.4144 211.406C96.6683 210.906 96.0872 210.196 95.7445 209.365C95.4018 208.535 95.3129 207.622 95.4891 206.741C95.6653 205.86 96.0986 205.051 96.7343 204.417C97.37 203.782 98.1796 203.35 99.0607 203.176C99.9418 203.001 100.855 203.091 101.685 203.435C102.514 203.78 103.223 204.362 103.722 205.109C104.221 205.856 104.487 206.734 104.487 207.632C104.486 208.838 104.006 209.994 103.153 210.846C102.299 211.698 101.142 212.176 99.9364 212.175ZM99.9364 204.655C99.3476 204.655 98.772 204.83 98.2824 205.157C97.7928 205.484 97.4111 205.949 97.1858 206.493C96.9605 207.037 96.9015 207.635 97.0164 208.213C97.1313 208.791 97.4148 209.321 97.8312 209.737C98.2476 210.154 98.7781 210.437 99.3556 210.552C99.9331 210.667 100.532 210.608 101.076 210.383C101.62 210.157 102.085 209.776 102.412 209.286C102.739 208.797 102.914 208.221 102.914 207.632C102.913 206.843 102.599 206.086 102.041 205.528C101.483 204.969 100.726 204.656 99.9364 204.655Z" fill="white"/>
</g>
<g opacity="0.4">
<path d="M70.191 242.481C69.4035 242.482 68.6336 242.249 67.9786 241.812C67.3236 241.375 66.813 240.753 66.5113 240.026C66.2096 239.298 66.1304 238.498 66.2837 237.725C66.437 236.953 66.8159 236.243 67.3726 235.686C67.9292 235.129 68.6385 234.75 69.4108 234.596C70.1831 234.442 70.9837 234.521 71.7112 234.822C72.4388 235.124 73.0607 235.634 73.4982 236.288C73.9357 236.943 74.1693 237.713 74.1693 238.5C74.1686 239.556 73.7493 240.567 73.0035 241.314C72.2576 242.06 71.2461 242.48 70.191 242.481ZM70.191 236.088C69.7133 236.088 69.2463 236.23 68.8491 236.495C68.4519 236.761 68.1424 237.138 67.9597 237.579C67.777 238.021 67.7293 238.507 67.8227 238.975C67.9161 239.444 68.1464 239.874 68.4843 240.211C68.8223 240.549 69.2528 240.779 69.7214 240.872C70.1901 240.965 70.6757 240.916 71.1169 240.733C71.5581 240.55 71.9351 240.24 72.2001 239.843C72.4651 239.445 72.6063 238.978 72.6058 238.5C72.6051 237.86 72.3504 237.247 71.8976 236.795C71.4448 236.342 70.831 236.088 70.191 236.088Z" fill="white"/>
</g>
<g opacity="0.4">
<path d="M146.067 287.101C144.883 287.101 143.725 286.75 142.74 286.092C141.756 285.434 140.988 284.499 140.535 283.405C140.082 282.31 139.963 281.106 140.194 279.945C140.425 278.783 140.996 277.716 141.833 276.879C142.67 276.041 143.737 275.471 144.899 275.24C146.061 275.009 147.265 275.128 148.359 275.581C149.453 276.034 150.388 276.802 151.046 277.786C151.704 278.771 152.055 279.929 152.055 281.113C152.053 282.701 151.422 284.223 150.299 285.345C149.177 286.468 147.655 287.099 146.067 287.101ZM146.067 276.691C145.192 276.691 144.336 276.95 143.608 277.436C142.88 277.922 142.312 278.613 141.977 279.421C141.642 280.23 141.554 281.12 141.725 281.978C141.896 282.837 142.317 283.625 142.936 284.244C143.555 284.863 144.343 285.285 145.202 285.455C146.061 285.626 146.95 285.538 147.759 285.203C148.568 284.868 149.259 284.3 149.745 283.572C150.231 282.844 150.49 281.988 150.489 281.113C150.488 279.941 150.022 278.817 149.193 277.988C148.364 277.159 147.24 276.692 146.067 276.691Z" fill="white"/>
</g>
<g opacity="0.4">
<path d="M85.121 299.042C84.1074 299.042 83.1164 298.742 82.2734 298.179C81.4304 297.616 80.7733 296.816 80.3851 295.88C79.997 294.943 79.8953 293.913 80.093 292.919C80.2906 291.925 80.7786 291.011 81.4954 290.295C82.2121 289.578 83.1253 289.09 84.1195 288.892C85.1136 288.695 86.1441 288.796 87.0804 289.184C88.0168 289.573 88.817 290.23 89.3798 291.073C89.9426 291.916 90.2427 292.907 90.2422 293.92C90.2402 295.278 89.7 296.579 88.74 297.539C87.78 298.499 86.4786 299.039 85.121 299.042ZM85.121 290.363C84.4173 290.363 83.7295 290.571 83.1444 290.962C82.5593 291.353 82.1033 291.909 81.8341 292.559C81.5648 293.209 81.4943 293.924 81.6316 294.614C81.7689 295.305 82.1077 295.938 82.6053 296.436C83.1028 296.934 83.7368 297.272 84.4269 297.41C85.1171 297.547 85.8324 297.477 86.4825 297.207C87.1326 296.938 87.6882 296.482 88.0792 295.897C88.4701 295.312 88.6788 294.624 88.6788 293.92C88.6781 292.977 88.303 292.072 87.636 291.405C86.9689 290.738 86.0644 290.363 85.121 290.363Z" fill="white"/>
</g>
<g opacity="0.4">
<path d="M90.8156 239.261C90.0325 239.263 89.2665 239.032 88.6144 238.598C87.9624 238.165 87.4536 237.547 87.1523 236.824C86.8511 236.101 86.771 235.305 86.9221 234.537C87.0732 233.769 87.4487 233.062 88.0012 232.507C88.5537 231.952 89.2584 231.573 90.0261 231.419C90.7939 231.264 91.5902 231.341 92.3145 231.639C93.0387 231.937 93.6584 232.442 94.0951 233.093C94.5319 233.743 94.7661 234.508 94.7681 235.291C94.7702 236.341 94.355 237.35 93.6138 238.094C92.8727 238.839 91.8662 239.259 90.8156 239.261ZM90.8156 232.909C90.3419 232.909 89.8786 233.049 89.4845 233.312C89.0904 233.575 88.7831 233.949 88.6016 234.386C88.42 234.824 88.3724 235.305 88.4647 235.77C88.557 236.235 88.7851 236.662 89.1201 236.997C89.4551 237.332 89.8819 237.56 90.3466 237.652C90.8113 237.744 91.2929 237.697 91.7305 237.515C92.168 237.334 92.5419 237.026 92.8048 236.632C93.0677 236.238 93.2078 235.775 93.2072 235.301C93.2066 234.667 92.9544 234.059 92.506 233.611C92.0576 233.162 91.4497 232.91 90.8156 232.909Z" fill="white"/>
</g>
<g opacity="0.4">
<path d="M180.104 238.132C179.159 238.132 178.235 237.852 177.449 237.327C176.664 236.802 176.051 236.055 175.69 235.182C175.328 234.309 175.234 233.348 175.418 232.421C175.603 231.494 176.058 230.643 176.727 229.975C177.395 229.307 178.247 228.852 179.174 228.668C180.101 228.484 181.061 228.579 181.935 228.941C182.808 229.303 183.554 229.915 184.078 230.702C184.603 231.488 184.883 232.412 184.882 233.357C184.881 234.623 184.377 235.838 183.481 236.733C182.585 237.628 181.371 238.132 180.104 238.132ZM180.104 230.134C179.468 230.134 178.847 230.322 178.318 230.675C177.789 231.028 177.376 231.53 177.132 232.117C176.889 232.704 176.825 233.351 176.949 233.975C177.072 234.598 177.378 235.171 177.828 235.621C178.277 236.071 178.85 236.378 179.474 236.502C180.097 236.626 180.744 236.563 181.331 236.319C181.919 236.076 182.421 235.664 182.774 235.135C183.128 234.607 183.316 233.985 183.316 233.349C183.316 232.497 182.977 231.68 182.375 231.078C181.773 230.475 180.956 230.136 180.104 230.134Z" fill="white"/>
</g>
<g opacity="0.4">
<path d="M166.064 254.318C165.309 254.319 164.57 254.095 163.942 253.676C163.314 253.256 162.825 252.66 162.536 251.962C162.247 251.264 162.172 250.496 162.319 249.756C162.467 249.015 162.831 248.335 163.366 247.801C163.901 247.268 164.581 246.905 165.322 246.759C166.063 246.613 166.831 246.689 167.528 246.98C168.225 247.27 168.821 247.761 169.239 248.39C169.657 249.019 169.879 249.757 169.877 250.513C169.874 251.522 169.471 252.489 168.756 253.202C168.041 253.916 167.073 254.317 166.064 254.318ZM166.064 248.255C165.619 248.255 165.184 248.387 164.814 248.634C164.444 248.881 164.156 249.233 163.985 249.644C163.815 250.055 163.771 250.507 163.857 250.944C163.944 251.38 164.159 251.781 164.473 252.096C164.788 252.41 165.189 252.625 165.625 252.711C166.061 252.798 166.514 252.754 166.925 252.583C167.336 252.413 167.687 252.125 167.935 251.755C168.182 251.385 168.314 250.95 168.314 250.505C168.313 249.908 168.076 249.337 167.654 248.915C167.232 248.493 166.66 248.256 166.064 248.255Z" fill="white"/>
</g>
<g opacity="0.4">
<path d="M154.604 217.943C153.97 217.943 153.351 217.756 152.824 217.404C152.297 217.052 151.886 216.552 151.644 215.967C151.401 215.382 151.337 214.738 151.461 214.117C151.584 213.495 151.889 212.925 152.337 212.477C152.785 212.029 153.356 211.724 153.977 211.6C154.598 211.477 155.242 211.541 155.828 211.783C156.413 212.026 156.913 212.437 157.264 212.964C157.616 213.491 157.803 214.11 157.803 214.743C157.802 215.591 157.464 216.404 156.864 217.004C156.265 217.604 155.452 217.941 154.604 217.943ZM154.604 213.108C154.28 213.108 153.964 213.204 153.695 213.383C153.426 213.563 153.216 213.819 153.093 214.117C152.969 214.416 152.936 214.745 152.999 215.062C153.063 215.38 153.218 215.671 153.447 215.9C153.676 216.129 153.967 216.285 154.285 216.348C154.602 216.411 154.931 216.378 155.23 216.255C155.529 216.131 155.784 215.921 155.964 215.652C156.143 215.383 156.239 215.067 156.239 214.743C156.24 214.528 156.198 214.315 156.116 214.117C156.034 213.918 155.913 213.737 155.761 213.585C155.609 213.433 155.429 213.312 155.23 213.23C155.032 213.147 154.819 213.105 154.604 213.105V213.108Z" fill="white"/>
</g>
<g opacity="0.4">
<path d="M181.886 216.94C180.889 216.94 179.914 216.643 179.085 216.089C178.256 215.534 177.61 214.746 177.228 213.825C176.847 212.903 176.748 211.889 176.942 210.911C177.137 209.933 177.618 209.034 178.323 208.329C179.029 207.624 179.928 207.144 180.906 206.949C181.884 206.755 182.898 206.855 183.82 207.237C184.741 207.619 185.529 208.265 186.083 209.094C186.637 209.924 186.933 210.899 186.933 211.896C186.931 213.234 186.399 214.517 185.453 215.462C184.507 216.408 183.224 216.939 181.886 216.94ZM181.886 208.426C181.198 208.426 180.525 208.63 179.953 209.013C179.38 209.396 178.934 209.939 178.671 210.575C178.407 211.212 178.339 211.911 178.473 212.587C178.608 213.262 178.939 213.882 179.426 214.369C179.913 214.855 180.534 215.186 181.209 215.32C181.884 215.454 182.584 215.385 183.22 215.121C183.856 214.858 184.399 214.411 184.782 213.838C185.164 213.266 185.367 212.593 185.367 211.904C185.367 211.447 185.277 210.994 185.103 210.571C184.928 210.148 184.672 209.764 184.349 209.441C184.025 209.117 183.642 208.86 183.219 208.685C182.797 208.509 182.344 208.419 181.886 208.419V208.426Z" fill="white"/>
</g>
<path d="M398.137 291.742V338.081H311.251L314.562 291.742H398.137Z" fill="#030047"/>
<path d="M316.009 174.754C316.009 174.754 324.606 168.946 363.901 167.824C370.351 167.641 380.235 167.924 388.441 170.027C392.483 171.066 396.054 173.441 398.574 176.767C401.094 180.093 402.415 184.173 402.322 188.345L400 295.986H313.112L316.009 174.754Z" fill="#3463AF"/>
<g opacity="0.6">
<path d="M349.458 185.236L344.131 190.562L344.868 191.3L350.195 185.973L349.458 185.236Z" fill="white"/>
</g>
<g opacity="0.6">
<path d="M377.449 202.057L376.712 202.794L380.778 206.86L381.515 206.123L377.449 202.057Z" fill="white"/>
</g>
<g opacity="0.6">
<path d="M361.083 217.041L360.538 217.93L365.322 220.866L365.867 219.978L361.083 217.041Z" fill="white"/>
</g>
<g opacity="0.6">
<path d="M373.705 226.761L366.729 233.737L367.466 234.474L374.442 227.498L373.705 226.761Z" fill="white"/>
</g>
<g opacity="0.6">
<path d="M358.229 246.204L357.492 246.94L361.329 250.779L362.067 250.043L358.229 246.204Z" fill="white"/>
</g>
<g opacity="0.6">
<path d="M379.956 254.389L372.338 262.007L373.075 262.744L380.693 255.126L379.956 254.389Z" fill="white"/>
</g>
<g opacity="0.6">
<path d="M349.878 261.174L349.062 261.822L355.253 269.622L356.069 268.974L349.878 261.174Z" fill="white"/>
</g>
<g opacity="0.6">
<path d="M338.842 233.753L333.74 240.155L334.555 240.805L339.657 234.403L338.842 233.753Z" fill="white"/>
</g>
<g opacity="0.6">
<path d="M330.704 217.003L329.967 217.74L335.063 222.836L335.8 222.098L330.704 217.003Z" fill="white"/>
</g>
<g opacity="0.6">
<path d="M338.78 199.101H333.927V200.143H338.78V199.101Z" fill="white"/>
</g>
<g opacity="0.6">
<path d="M326.684 178.209L321.194 183.698L321.931 184.435L327.421 178.946L326.684 178.209Z" fill="white"/>
</g>
<g opacity="0.6">
<path d="M324.969 264.378H323.568V263.346H324.531C325.106 262.768 325.707 262.213 326.306 261.659C326.943 261.068 327.596 260.477 328.189 259.853L328.945 260.575C328.326 261.207 327.676 261.808 327.026 262.409C326.375 263.01 325.736 263.596 325.132 264.215L324.969 264.378Z" fill="white"/>
</g>
<g opacity="0.6">
<path d="M332.79 269.408L332.053 270.145L338.89 276.982L339.627 276.245L332.79 269.408Z" fill="white"/>
</g>
<g opacity="0.6">
<path d="M360.774 194.432L355.057 200.149L355.794 200.886L361.511 195.169L360.774 194.432Z" fill="white"/>
</g>
<g opacity="0.6">
<path d="M372.031 178.65L371.294 179.387L379.199 187.291L379.936 186.554L372.031 178.65Z" fill="white"/>
</g>
<g opacity="0.6">
<path d="M379.671 275.188L378.898 275.887L383.681 281.182L384.455 280.484L379.671 275.188Z" fill="white"/>
</g>
<g opacity="0.6">
<path d="M363.405 278.613L357.919 284.099L358.656 284.836L364.142 279.35L363.405 278.613Z" fill="white"/>
</g>
<g opacity="0.6">
<path d="M373.789 285.212L373.052 285.949L376.672 289.569L377.409 288.832L373.789 285.212Z" fill="white"/>
</g>
<g opacity="0.6">
<path d="M339.592 247.949L338.854 248.687L342.824 252.656L343.561 251.919L339.592 247.949Z" fill="white"/>
</g>
<g opacity="0.6">
<path d="M389.272 238.499L385.956 241.815L386.693 242.552L390.009 239.236L389.272 238.499Z" fill="white"/>
</g>
<g opacity="0.6">
<path d="M386.273 227.28L385.537 228.018L389.595 232.074L390.331 231.337L386.273 227.28Z" fill="white"/>
</g>
<g opacity="0.6">
<path d="M389.129 259.971L388.392 260.708L393.949 266.265L394.686 265.528L389.129 259.971Z" fill="white"/>
</g>
<g opacity="0.6">
<path d="M332.929 283.876L329.296 287.508L330.033 288.245L333.666 284.613L332.929 283.876Z" fill="white"/>
</g>
<g opacity="0.6">
<path d="M322.268 272.452L321.531 273.189L326.09 277.748L326.827 277.011L322.268 272.452Z" fill="white"/>
</g>
<path d="M235.419 117.47C235.909 117.205 236.452 117.052 237.008 117.022C237.564 116.992 238.12 117.086 238.636 117.296C239.152 117.507 239.614 117.829 239.991 118.239C240.367 118.65 240.648 119.139 240.814 119.671C240.199 117.682 238.907 113.541 242.589 112.705C244.624 112.248 246.685 113.19 247.31 115.169L246.177 111.544C245.997 110.965 245.959 110.351 246.066 109.755C246.173 109.158 246.421 108.596 246.791 108.115C247.16 107.635 247.64 107.25 248.189 106.994C248.738 106.737 249.341 106.617 249.947 106.642C250.725 106.67 251.475 106.941 252.091 107.418C252.707 107.895 253.158 108.553 253.38 109.299V109.317L254.335 112.426C254.254 111.851 254.305 111.264 254.484 110.712C254.662 110.159 254.964 109.653 255.366 109.234C255.768 108.814 256.26 108.491 256.805 108.29C257.35 108.088 257.934 108.012 258.512 108.069C259.249 108.137 259.948 108.426 260.52 108.896C261.091 109.367 261.508 109.998 261.716 110.708L268.424 132.56L273.004 128.316C273.95 127.431 275.201 126.945 276.496 126.959C277.791 126.974 279.031 127.488 279.957 128.394C280.883 129.3 281.423 130.529 281.465 131.823C281.508 133.118 281.048 134.379 280.184 135.344L275.968 140.112C274.785 141.451 273.957 143.066 273.559 144.809C273.162 146.552 273.209 148.366 273.695 150.086L245.246 159.25L243.44 153.507L233.667 122.065C233.12 120.318 233.801 118.332 235.419 117.47Z" fill="white"/>
<path d="M245.246 160.033C245.079 160.034 244.915 159.982 244.78 159.883C244.646 159.784 244.546 159.643 244.498 159.483L232.919 122.291C232.238 120.116 233.133 117.794 235.05 116.772C235.645 116.454 236.302 116.27 236.975 116.236C237.649 116.201 238.322 116.315 238.946 116.571C239.08 116.628 239.204 116.69 239.335 116.754C239.23 115.694 239.317 114.607 239.851 113.694C240.385 112.781 241.234 112.208 242.431 111.942C243.479 111.694 244.577 111.78 245.574 112.187L245.445 111.777C245.229 111.08 245.183 110.342 245.312 109.624C245.44 108.906 245.739 108.229 246.183 107.65C246.627 107.071 247.203 106.607 247.863 106.297C248.524 105.986 249.249 105.839 249.978 105.867C250.919 105.898 251.827 106.225 252.572 106.803C253.317 107.38 253.861 108.177 254.126 109.081C254.137 109.111 254.145 109.143 254.15 109.174L254.227 109.432C254.378 109.194 254.551 108.97 254.743 108.764C255.227 108.244 255.824 107.842 256.488 107.588C257.151 107.334 257.864 107.235 258.572 107.298C259.45 107.377 260.285 107.713 260.973 108.263C261.661 108.814 262.172 109.555 262.442 110.394C262.457 110.424 262.469 110.455 262.478 110.487L268.811 131.148L272.475 127.752C273.569 126.741 275.009 126.188 276.499 126.208C277.989 126.228 279.414 126.82 280.48 127.861C281.546 128.902 282.171 130.313 282.227 131.802C282.282 133.291 281.763 134.744 280.777 135.861L276.564 140.629C275.464 141.868 274.694 143.364 274.325 144.979C273.956 146.595 274 148.277 274.454 149.87C274.511 150.066 274.489 150.276 274.392 150.455C274.296 150.634 274.132 150.768 273.938 150.828L245.486 159.997C245.408 160.02 245.327 160.032 245.246 160.033ZM235.785 118.163C234.552 118.821 233.964 120.397 234.413 121.834L245.765 158.263L272.761 149.566C272.386 147.815 272.428 146 272.883 144.268C273.339 142.536 274.196 140.936 275.385 139.597L279.601 134.827C280.355 134.016 280.762 132.943 280.736 131.836C280.71 130.729 280.252 129.677 279.461 128.903C278.67 128.128 277.607 127.694 276.5 127.692C275.393 127.69 274.329 128.121 273.535 128.893L268.956 133.134C268.86 133.229 268.741 133.297 268.61 133.332C268.48 133.366 268.342 133.366 268.212 133.331C268.081 133.296 267.962 133.227 267.867 133.132C267.771 133.037 267.702 132.919 267.666 132.788L260.989 111.014C260.989 110.985 260.966 110.957 260.958 110.928C260.795 110.369 260.469 109.872 260.021 109.499C259.574 109.127 259.025 108.897 258.445 108.839C257.983 108.789 257.515 108.846 257.078 109.005C256.641 109.164 256.245 109.42 255.922 109.754C255.599 110.088 255.356 110.492 255.212 110.934C255.068 111.376 255.027 111.846 255.091 112.306C255.138 112.508 255.102 112.719 254.993 112.895C254.883 113.07 254.708 113.195 254.507 113.241C254.305 113.288 254.094 113.252 253.918 113.143C253.743 113.033 253.618 112.859 253.572 112.657L252.617 109.561C252.617 109.535 252.602 109.507 252.596 109.481C252.417 108.905 252.062 108.398 251.582 108.032C251.101 107.666 250.519 107.458 249.916 107.438C249.435 107.416 248.955 107.51 248.518 107.712C248.081 107.914 247.699 108.218 247.404 108.598C247.109 108.979 246.91 109.425 246.824 109.899C246.737 110.373 246.766 110.86 246.908 111.321L248.04 114.933C248.071 115.03 248.082 115.133 248.073 115.236C248.064 115.338 248.035 115.438 247.988 115.529C247.94 115.62 247.875 115.7 247.797 115.766C247.718 115.832 247.627 115.882 247.529 115.913C247.431 115.944 247.328 115.955 247.226 115.946C247.124 115.937 247.024 115.908 246.933 115.861C246.842 115.813 246.762 115.748 246.696 115.67C246.63 115.591 246.58 115.5 246.549 115.402C246.072 113.893 244.485 113.08 242.744 113.465C241.993 113.635 241.485 113.965 241.196 114.476C240.422 115.797 241.157 118.147 241.546 119.409V119.422C241.602 119.619 241.579 119.83 241.483 120.01C241.387 120.191 241.225 120.328 241.03 120.392C240.932 120.423 240.829 120.435 240.726 120.426C240.624 120.417 240.524 120.387 240.433 120.339C240.342 120.291 240.262 120.225 240.196 120.146C240.131 120.066 240.082 119.974 240.053 119.876C239.918 119.458 239.694 119.075 239.394 118.753C239.095 118.432 238.729 118.181 238.321 118.017C237.914 117.854 237.475 117.782 237.037 117.807C236.599 117.832 236.171 117.954 235.785 118.163Z" fill="#030047"/>
<path d="M250.063 124.816C249.896 124.815 249.734 124.762 249.6 124.663C249.465 124.564 249.365 124.425 249.315 124.267L246.557 115.407C246.526 115.309 246.515 115.206 246.525 115.103C246.534 115.001 246.564 114.902 246.611 114.811C246.659 114.72 246.724 114.639 246.803 114.574C246.882 114.508 246.973 114.458 247.071 114.428C247.17 114.397 247.273 114.386 247.375 114.396C247.477 114.405 247.577 114.435 247.668 114.482C247.759 114.53 247.839 114.595 247.905 114.674C247.971 114.753 248.02 114.844 248.051 114.943L250.811 123.802C250.843 123.9 250.854 124.004 250.845 124.106C250.836 124.209 250.807 124.308 250.759 124.399C250.71 124.49 250.645 124.571 250.565 124.636C250.486 124.702 250.394 124.751 250.295 124.78C250.22 124.803 250.142 124.815 250.063 124.816Z" fill="#030047"/>
<path d="M257.248 122.579C257.081 122.578 256.918 122.524 256.784 122.425C256.649 122.326 256.55 122.186 256.5 122.027L253.584 112.667C253.522 112.468 253.542 112.253 253.638 112.069C253.735 111.885 253.901 111.747 254.099 111.685C254.298 111.623 254.512 111.643 254.697 111.739C254.881 111.836 255.019 112.001 255.081 112.2L257.996 121.562C258.028 121.661 258.04 121.764 258.031 121.867C258.022 121.97 257.993 122.07 257.945 122.161C257.897 122.253 257.831 122.333 257.751 122.399C257.671 122.464 257.579 122.513 257.48 122.543C257.405 122.566 257.327 122.578 257.248 122.579Z" fill="#030047"/>
<path d="M242.87 127.054C242.703 127.056 242.54 127.003 242.406 126.904C242.271 126.805 242.173 126.665 242.124 126.505L239.369 117.661C239.338 117.563 239.327 117.46 239.337 117.357C239.346 117.255 239.376 117.156 239.423 117.065C239.471 116.974 239.536 116.893 239.615 116.827C239.694 116.762 239.785 116.712 239.883 116.682C239.982 116.651 240.085 116.64 240.187 116.65C240.289 116.659 240.389 116.689 240.48 116.736C240.571 116.784 240.651 116.849 240.717 116.928C240.783 117.007 240.832 117.098 240.863 117.196L243.618 126.041C243.649 126.139 243.661 126.242 243.652 126.344C243.643 126.447 243.613 126.547 243.565 126.638C243.517 126.729 243.452 126.809 243.372 126.875C243.292 126.94 243.201 126.989 243.102 127.018C243.027 127.043 242.949 127.055 242.87 127.054Z" fill="#030047"/>
<path d="M268.411 132.568C268.411 132.568 262.428 133.311 260.579 138.719L268.411 132.568Z" fill="white"/>
<path d="M260.576 139.5C260.451 139.502 260.328 139.474 260.216 139.418C260.105 139.361 260.009 139.279 259.936 139.178C259.863 139.076 259.816 138.959 259.799 138.835C259.781 138.712 259.794 138.586 259.835 138.468C261.819 132.666 268.047 131.828 268.313 131.794C268.518 131.768 268.725 131.825 268.889 131.952C269.052 132.079 269.158 132.266 269.184 132.471C269.209 132.677 269.153 132.884 269.026 133.047C268.898 133.21 268.712 133.316 268.507 133.342C268.282 133.37 262.98 134.103 261.316 138.969C261.265 139.125 261.166 139.26 261.033 139.355C260.899 139.451 260.74 139.502 260.576 139.5Z" fill="#030047"/>
<path d="M316.496 174.635L283.315 189.54L275.862 145.252L242.875 158.131L258.339 216.131C262.253 230.997 279.316 237.973 292.521 230.104L336.282 204.029L316.496 174.635Z" fill="#3463AF"/>
<g opacity="0.6">
<path d="M311.088 191.585L310.351 192.322L315.043 197.014L315.78 196.277L311.088 191.585Z" fill="white"/>
</g>
<g opacity="0.6">
<path d="M284.123 208.58L283.386 209.317L289.107 215.038L289.844 214.301L284.123 208.58Z" fill="white"/>
</g>
<g opacity="0.6">
<path d="M307.182 206.855H306.14V210.011H307.182V206.855Z" fill="white"/>
</g>
<g opacity="0.6">
<path d="M275.493 189.613L270.929 194.178L271.666 194.915L276.23 190.35L275.493 189.613Z" fill="white"/>
</g>
<g opacity="0.6">
<path d="M265.68 174.767H260.625V175.809H265.68V174.767Z" fill="white"/>
</g>
<g opacity="0.6">
<path d="M263.983 157.273L259.543 161.713L260.28 162.45L264.72 158.01L263.983 157.273Z" fill="white"/>
</g>
<g opacity="0.6">
<path d="M262.089 186.429L261.352 187.166L264.968 190.782L265.705 190.045L262.089 186.429Z" fill="white"/>
</g>
<g opacity="0.6">
<path d="M267.461 213.934L266.724 214.671L270.015 217.962L270.752 217.225L267.461 213.934Z" fill="white"/>
</g>
<path d="M284.559 199.755L275.256 146.319L243.809 158.605L253.409 194.598L251.897 195.001L241.938 157.658L276.469 144.165L286.1 199.487L284.559 199.755Z" fill="#030047"/>
<path d="M313.634 203.37L311.794 295.366L313.358 295.397L315.198 203.401L313.634 203.37Z" fill="#030047"/>
<path d="M344.37 230.648L337.807 226.201C337.402 225.866 337.081 225.441 336.87 224.96C336.609 224.316 336.563 223.606 336.74 222.935C336.917 222.263 337.307 221.668 337.851 221.237C338.396 220.806 339.065 220.564 339.759 220.546C340.453 220.528 341.134 220.736 341.7 221.139L363.204 230.685L356.478 257.173" fill="white"/>
<path d="M356.481 257.962C356.416 257.962 356.351 257.954 356.287 257.939C356.187 257.915 356.092 257.871 356.009 257.81C355.926 257.748 355.856 257.671 355.803 257.582C355.75 257.494 355.716 257.395 355.701 257.293C355.687 257.191 355.693 257.087 355.72 256.987L362.283 231.141L341.386 221.853C341.338 221.833 341.294 221.808 341.251 221.778C340.967 221.576 340.643 221.437 340.301 221.371C339.959 221.304 339.607 221.311 339.268 221.391C338.938 221.469 338.629 221.618 338.362 221.826C338.095 222.034 337.876 222.298 337.72 222.598C337.551 222.913 337.454 223.261 337.434 223.618C337.415 223.974 337.473 224.331 337.606 224.662C337.767 225.025 338.01 225.346 338.315 225.599L344.822 230.003C344.907 230.061 344.979 230.134 345.036 230.22C345.092 230.306 345.131 230.401 345.15 230.502C345.169 230.603 345.168 230.706 345.147 230.806C345.127 230.907 345.086 231.002 345.029 231.087C344.971 231.171 344.897 231.244 344.812 231.3C344.726 231.356 344.63 231.395 344.53 231.414C344.429 231.433 344.325 231.432 344.225 231.412C344.125 231.391 344.03 231.351 343.945 231.293L337.382 226.845C336.857 226.427 336.441 225.888 336.169 225.274C335.946 224.727 335.845 224.138 335.875 223.548C335.904 222.959 336.063 222.382 336.339 221.861C336.603 221.364 336.969 220.929 337.414 220.585C337.859 220.242 338.372 219.996 338.919 219.866C339.462 219.737 340.025 219.722 340.574 219.822C341.122 219.923 341.644 220.136 342.105 220.449L363.517 229.977C363.687 230.051 363.825 230.183 363.906 230.349C363.987 230.516 364.005 230.706 363.958 230.885L357.232 257.374C357.19 257.542 357.094 257.691 356.958 257.797C356.822 257.904 356.654 257.962 356.481 257.962Z" fill="#030047"/>
<path d="M306.791 261.736H351.094L340.348 208.803H296.042L306.791 261.736Z" fill="#030047"/>
<path d="M356.478 257.18L327.482 252.91C327.056 252.767 326.667 252.53 326.344 252.218C326.02 251.905 325.77 251.525 325.611 251.104C325.369 250.559 325.309 249.95 325.441 249.368C325.591 248.624 326.021 247.966 326.641 247.529C327.262 247.092 328.026 246.91 328.777 247.02L334.038 247.719L324.254 246.37C323.698 246.304 323.168 246.095 322.716 245.763C322.264 245.432 321.905 244.99 321.674 244.479C321.673 244.472 321.673 244.465 321.674 244.458C321.435 243.912 321.376 243.304 321.507 242.722C321.655 241.979 322.083 241.322 322.702 240.885C323.32 240.449 324.083 240.266 324.832 240.374L334.835 241.7L319.915 239.66C319.022 239.402 318.367 238.628 318.044 237.833C317.807 237.289 317.747 236.684 317.874 236.104C318.027 235.37 318.459 234.725 319.079 234.303C319.699 233.881 320.458 233.717 321.197 233.844L335.645 235.622L325.15 234.229C324.257 233.971 323.602 233.197 323.277 232.405C323.035 231.862 322.976 231.255 323.109 230.676C323.26 229.943 323.69 229.297 324.309 228.875C324.928 228.452 325.686 228.287 326.424 228.414L344.376 230.656" fill="white"/>
<path d="M356.481 257.962H356.365L327.369 253.687L327.266 253.664C326.725 253.486 326.231 253.19 325.82 252.798C325.408 252.405 325.089 251.925 324.887 251.394C324.583 250.697 324.511 249.921 324.68 249.18C324.824 248.488 325.162 247.851 325.653 247.343L324.149 247.134C323.46 247.049 322.804 246.786 322.246 246.373C321.688 245.96 321.246 245.41 320.963 244.776L320.947 244.737C320.647 244.043 320.577 243.271 320.746 242.534C320.89 241.841 321.227 241.204 321.719 240.695L319.799 240.437C319.762 240.432 319.725 240.424 319.688 240.413C319.148 240.236 318.654 239.939 318.243 239.546C317.831 239.153 317.513 238.673 317.312 238.14C317.01 237.448 316.935 236.677 317.098 235.94C317.293 235.009 317.841 234.19 318.627 233.656C319.413 233.121 320.376 232.912 321.314 233.073L322.823 233.262C322.72 233.082 322.629 232.896 322.549 232.704C322.243 232.012 322.17 231.238 322.343 230.501C322.535 229.571 323.082 228.753 323.868 228.22C324.653 227.687 325.616 227.481 326.551 227.645L344.469 229.882C344.571 229.894 344.67 229.926 344.759 229.976C344.849 230.027 344.928 230.094 344.991 230.176C345.054 230.257 345.101 230.35 345.127 230.449C345.154 230.548 345.161 230.652 345.147 230.754C345.12 230.96 345.013 231.146 344.85 231.274C344.686 231.401 344.479 231.459 344.273 231.435L326.321 229.193C325.779 229.09 325.217 229.204 324.758 229.512C324.3 229.819 323.981 230.295 323.87 230.837C323.771 231.258 323.813 231.701 323.992 232.096C324.211 232.632 324.668 233.257 325.31 233.466L335.743 234.848C335.949 234.875 336.135 234.982 336.261 235.145C336.388 235.309 336.444 235.516 336.418 235.722C336.392 235.927 336.285 236.113 336.121 236.24C335.957 236.366 335.75 236.423 335.545 236.396L321.097 234.619C320.554 234.52 319.994 234.636 319.535 234.942C319.075 235.248 318.753 235.72 318.636 236.26C318.542 236.682 318.584 237.122 318.757 237.519C318.869 237.827 319.044 238.108 319.272 238.344C319.499 238.58 319.774 238.766 320.078 238.889L334.949 240.911C335.154 240.939 335.34 241.047 335.465 241.212C335.591 241.377 335.646 241.584 335.618 241.79C335.59 241.995 335.482 242.181 335.318 242.306C335.153 242.432 334.945 242.487 334.74 242.459L324.737 241.136C324.184 241.052 323.62 241.185 323.162 241.507C322.705 241.829 322.389 242.315 322.281 242.864C322.185 243.291 322.228 243.738 322.402 244.139C322.408 244.149 322.412 244.159 322.415 244.17C322.593 244.551 322.866 244.881 323.207 245.128C323.549 245.374 323.947 245.529 324.366 245.578L334.151 246.928C334.357 246.955 334.543 247.064 334.668 247.228C334.794 247.393 334.849 247.601 334.821 247.806C334.793 248.012 334.685 248.197 334.52 248.323C334.356 248.448 334.148 248.503 333.942 248.476L328.682 247.779C328.127 247.694 327.561 247.826 327.102 248.148C326.642 248.47 326.325 248.957 326.215 249.508C326.118 249.934 326.16 250.38 326.337 250.78C326.448 251.088 326.624 251.368 326.853 251.603C327.082 251.837 327.358 252.02 327.663 252.139L356.6 256.399C356.805 256.414 356.996 256.509 357.131 256.665C357.265 256.82 357.333 257.023 357.318 257.228C357.303 257.434 357.208 257.625 357.052 257.759C356.897 257.894 356.694 257.961 356.489 257.947L356.481 257.962Z" fill="#030047"/>
<path d="M391.011 169.244C396.197 169.866 401.071 172.049 404.988 175.505C408.905 178.961 411.678 183.526 412.94 188.594L436.511 242.634C438.438 247.055 439.049 251.937 438.271 256.696C437.493 261.455 435.359 265.889 432.125 269.466C428.837 273.104 424.553 275.699 419.805 276.928C415.058 278.158 410.053 277.968 405.412 276.382L350.459 257.598L357.724 227.67L394.974 240.511L376.548 168.029" fill="#3463AF"/>
<g opacity="0.4">
<path d="M396.809 201.072L396.138 201.87L401.787 206.622L402.458 205.824L396.809 201.072Z" fill="white"/>
</g>
<g opacity="0.4">
<path d="M407.108 214.347L400.229 217.855L400.703 218.784L407.582 215.276L407.108 214.347Z" fill="white"/>
</g>
<g opacity="0.4">
<path d="M406.372 226.785L405.665 227.554L410.38 231.893L411.088 231.124L406.372 226.785Z" fill="white"/>
</g>
<g opacity="0.4">
<path d="M414.757 243.311L409.55 248.518L410.287 249.255L415.494 244.048L414.757 243.311Z" fill="white"/>
</g>
<g opacity="0.4">
<path d="M405.524 254.394L404.787 255.131L410.212 260.556L410.949 259.819L405.524 254.394Z" fill="white"/>
</g>
<g opacity="0.4">
<path d="M390.646 255.145L387.521 258.271L388.258 259.008L391.383 255.882L390.646 255.145Z" fill="white"/>
</g>
<g opacity="0.4">
<path d="M369.061 242.034H368.019V246.923H369.061V242.034Z" fill="white"/>
</g>
<g opacity="0.4">
<path d="M376.505 256.351L373.217 259.642L373.954 260.378L377.242 257.088L376.505 256.351Z" fill="white"/>
</g>
<g opacity="0.4">
<path d="M404.145 266.77L403.172 267.143L404.598 270.868L405.571 270.495L404.145 266.77Z" fill="white"/>
</g>
<g opacity="0.4">
<path d="M399.31 185.665L398.573 186.402L401.592 189.422L402.33 188.685L399.31 185.665Z" fill="white"/>
</g>
<path d="M397.884 274.636L349.525 258.106L357.162 226.664L393.815 239.298L383.771 203.271L385.281 202.854L396.122 241.749L358.276 228.705L351.382 257.089L398.389 273.155L397.884 274.636Z" fill="#030047"/>
<path d="M364.646 175.122L370.358 169.31L367.29 139.485L342.876 144.576L342.102 164.315C342 166.96 342.581 169.586 343.79 171.941C344.728 173.775 346.09 175.36 347.761 176.565C349.433 177.769 351.367 178.56 353.404 178.87C355.44 179.181 357.522 179.003 359.477 178.352C361.431 177.7 363.203 176.593 364.646 175.122Z" fill="white"/>
<path d="M355.425 179.803C354.711 179.802 353.998 179.748 353.292 179.64C351.129 179.322 349.075 178.488 347.302 177.211C345.528 175.933 344.088 174.248 343.101 172.298C341.834 169.823 341.223 167.065 341.328 164.287L342.082 144.548C342.087 144.373 342.151 144.204 342.264 144.07C342.377 143.936 342.532 143.844 342.704 143.81L367.128 138.72C367.236 138.696 367.347 138.695 367.455 138.718C367.562 138.74 367.664 138.785 367.753 138.85C367.842 138.915 367.916 138.998 367.97 139.094C368.024 139.19 368.057 139.296 368.067 139.406L371.132 169.23C371.144 169.345 371.131 169.46 371.093 169.568C371.055 169.677 370.994 169.776 370.913 169.857L365.203 175.672C363.932 176.979 362.412 178.018 360.733 178.728C359.053 179.437 357.249 179.803 355.425 179.803ZM343.622 145.231L342.892 164.344C342.797 166.854 343.349 169.347 344.494 171.583C345.376 173.308 346.656 174.798 348.227 175.931C349.799 177.064 351.617 177.807 353.532 178.099C355.447 178.392 357.404 178.224 359.242 177.611C361.08 176.998 362.746 175.957 364.102 174.573L369.553 169.021L366.612 140.43L343.622 145.231Z" fill="#030047"/>
<path d="M367.582 143.036C379.171 130.516 376.56 110.049 376.56 110.049L341.826 95.5342C341.182 96.0502 324.724 106.628 325.831 128.163C326.961 149.904 341.102 157.608 359.215 150.949" fill="white"/>
<path d="M347.327 154.069C342.884 154.069 338.906 152.955 335.536 150.731C329.231 146.569 325.609 138.78 325.059 128.203C324.056 108.853 337.121 97.9449 341.148 95.0605L341.334 94.9263C341.444 94.8386 341.576 94.7817 341.715 94.7613C341.855 94.7409 341.997 94.7578 342.128 94.8102L376.862 109.325C376.989 109.377 377.1 109.462 377.184 109.572C377.267 109.681 377.32 109.81 377.337 109.947C377.445 110.798 379.858 130.922 368.157 143.566C368.016 143.719 367.821 143.809 367.613 143.817C367.406 143.825 367.204 143.75 367.052 143.609C366.9 143.468 366.81 143.272 366.802 143.065C366.794 142.858 366.868 142.656 367.009 142.503C377.278 131.41 376.114 113.608 375.83 110.589L341.932 96.4227C336.912 100.055 325.694 110.236 326.623 128.123C327.139 138.185 330.526 145.548 336.398 149.423C342.18 153.239 349.982 153.512 358.955 150.212C359.051 150.177 359.154 150.16 359.256 150.164C359.359 150.169 359.46 150.193 359.553 150.236C359.646 150.279 359.73 150.34 359.8 150.415C359.87 150.491 359.924 150.579 359.96 150.675C359.995 150.772 360.011 150.874 360.007 150.977C360.003 151.08 359.979 151.18 359.936 151.274C359.893 151.367 359.832 151.451 359.757 151.521C359.681 151.591 359.593 151.645 359.497 151.68C355.165 153.275 351.081 154.069 347.327 154.069Z" fill="#030047"/>
<path d="M335.979 122.822C336.096 121.518 335.48 120.397 334.605 120.319C333.729 120.241 332.925 121.235 332.808 122.539C332.692 123.843 333.308 124.964 334.183 125.042C335.059 125.12 335.863 124.126 335.979 122.822Z" fill="#030047"/>
<path d="M332.444 118.183C333.92 117.363 335.829 117.587 337.286 118.751L332.444 118.183Z" fill="white"/>
<path d="M337.286 119.533C337.108 119.534 336.934 119.474 336.796 119.362C335.586 118.395 334.025 118.199 332.825 118.867C332.644 118.97 332.429 118.996 332.228 118.94C332.027 118.885 331.857 118.752 331.754 118.57C331.652 118.389 331.625 118.174 331.681 117.973C331.737 117.773 331.87 117.602 332.051 117.5C333.811 116.522 336.05 116.775 337.76 118.139C337.892 118.238 337.989 118.376 338.037 118.533C338.085 118.691 338.081 118.859 338.027 119.015C337.973 119.17 337.87 119.304 337.735 119.397C337.599 119.49 337.437 119.538 337.273 119.533H337.286Z" fill="#030047"/>
<path d="M371.917 89.3874C375.929 93.2264 372.505 100.799 372.505 100.799C372.505 100.799 379.904 98.8249 384.52 107.047C389.135 115.27 376.648 128.482 376.648 128.482L368.217 124.096C368.217 124.096 368.034 125.644 365.637 123.75C365.637 123.75 358.614 113.311 363.547 109.129C363.547 109.129 325.692 120.259 325.31 95.7754C325.01 76.6424 365.322 83.0742 371.917 89.3874Z" fill="#030047"/>
<path d="M350.642 125.417C350.73 126.725 350.092 127.832 349.215 127.891C348.338 127.951 347.556 126.942 347.466 125.634C347.376 124.326 348.016 123.219 348.893 123.16C349.77 123.1 350.552 124.109 350.642 125.417Z" fill="#030047"/>
<path d="M346.951 121.082C348.401 120.218 350.305 120.383 351.806 121.5L346.951 121.082Z" fill="white"/>
<path d="M351.806 122.291C351.637 122.291 351.472 122.236 351.337 122.133C350.096 121.202 348.532 121.058 347.351 121.759C347.263 121.812 347.165 121.847 347.064 121.862C346.962 121.877 346.858 121.872 346.759 121.847C346.659 121.821 346.566 121.777 346.483 121.716C346.401 121.655 346.331 121.578 346.279 121.49C346.226 121.402 346.191 121.304 346.176 121.202C346.161 121.101 346.167 120.997 346.192 120.898C346.217 120.798 346.261 120.705 346.322 120.622C346.383 120.54 346.46 120.47 346.548 120.418C348.277 119.386 350.524 119.566 352.276 120.882C352.413 120.978 352.516 121.115 352.568 121.274C352.621 121.432 352.621 121.604 352.568 121.762C352.515 121.921 352.412 122.058 352.275 122.153C352.138 122.248 351.973 122.297 351.806 122.291Z" fill="#030047"/>
<path d="M367.827 124.297C367.827 124.297 375.802 117.744 379.729 119.578C383.655 121.412 380.722 135.605 375.761 136.477C372.794 136.995 369.74 136.494 367.095 135.055" fill="white"/>
<path d="M373.475 137.461C371.099 137.474 368.759 136.875 366.682 135.722C366.506 135.613 366.38 135.438 366.332 135.236C366.284 135.034 366.319 134.821 366.428 134.645C366.537 134.468 366.712 134.342 366.914 134.294C367.116 134.247 367.329 134.281 367.505 134.39C369.989 135.721 372.847 136.185 375.624 135.709C378.013 135.288 380.077 130.606 380.619 126.509C381.04 123.325 380.549 120.833 379.399 120.288C376.54 118.949 370.436 123.165 368.323 124.901C368.162 125.033 367.956 125.096 367.75 125.075C367.543 125.055 367.353 124.953 367.221 124.793C367.09 124.632 367.027 124.426 367.047 124.22C367.068 124.013 367.169 123.823 367.33 123.691C368.186 122.99 375.807 116.885 380.062 118.869C381.917 119.739 382.706 122.67 382.17 126.715C381.535 131.514 379.177 136.671 375.895 137.249C375.096 137.389 374.286 137.46 373.475 137.461Z" fill="#030047"/>
<path d="M375.828 130.441C375.69 130.44 375.554 130.404 375.434 130.335C375.344 130.284 375.265 130.216 375.203 130.134C375.14 130.052 375.094 129.959 375.068 129.859C375.041 129.759 375.035 129.655 375.05 129.553C375.065 129.451 375.099 129.353 375.152 129.264C375.59 128.511 375.87 127.676 375.975 126.811C376.045 126.223 375.934 126.009 375.862 125.934C375.805 125.889 375.739 125.856 375.669 125.837C375.599 125.819 375.526 125.815 375.454 125.825C375.2 125.862 374.958 125.958 374.747 126.104C374.327 126.372 373.966 126.723 373.687 127.136C373.629 127.221 373.555 127.293 373.469 127.349C373.384 127.405 373.288 127.444 373.187 127.463C373.086 127.482 372.983 127.481 372.882 127.46C372.782 127.439 372.687 127.399 372.602 127.341C372.517 127.283 372.445 127.209 372.389 127.124C372.333 127.038 372.294 126.942 372.275 126.841C372.256 126.74 372.257 126.637 372.278 126.537C372.299 126.436 372.339 126.341 372.397 126.256C372.799 125.668 373.318 125.168 373.922 124.788C374.339 124.507 374.818 124.33 375.317 124.272C375.622 124.239 375.929 124.273 376.218 124.373C376.508 124.473 376.771 124.636 376.989 124.85C377.469 125.346 377.645 126.05 377.531 127.002C377.397 128.079 377.046 129.119 376.499 130.057C376.431 130.174 376.333 130.271 376.215 130.338C376.097 130.406 375.964 130.441 375.828 130.441Z" fill="#030047"/>
<path d="M340.676 125.688L338.788 131.042C338.408 132.118 338.014 133.237 338.225 134.329C338.341 134.922 338.649 135.461 339.102 135.861C339.555 136.262 340.127 136.502 340.73 136.545" fill="white"/>
<path d="M340.73 137.327H340.689C339.91 137.275 339.17 136.967 338.586 136.45C338.001 135.933 337.605 135.237 337.459 134.471C337.201 133.152 337.678 131.839 338.052 130.781L339.94 125.428C340.009 125.232 340.152 125.072 340.339 124.982C340.526 124.892 340.741 124.88 340.936 124.948C341.132 125.017 341.293 125.16 341.383 125.347C341.473 125.533 341.485 125.748 341.416 125.944L339.522 131.303C339.179 132.275 338.823 133.279 339.007 134.184C339.09 134.605 339.308 134.987 339.629 135.272C339.949 135.557 340.354 135.73 340.782 135.763C340.989 135.769 341.186 135.856 341.328 136.007C341.471 136.157 341.548 136.358 341.543 136.566C341.537 136.773 341.45 136.97 341.299 137.112C341.149 137.255 340.948 137.332 340.74 137.327H340.73Z" fill="#030047"/>
<path d="M345.514 143.244C344.993 143.244 344.474 143.188 343.966 143.076C343.763 143.031 343.587 142.907 343.476 142.732C343.364 142.557 343.327 142.345 343.372 142.142C343.417 141.94 343.541 141.763 343.716 141.652C343.891 141.541 344.104 141.504 344.306 141.549C345.736 141.868 347.234 141.61 348.474 140.829C349.713 140.049 350.594 138.81 350.924 137.382C350.971 137.18 351.096 137.005 351.272 136.895C351.448 136.785 351.661 136.75 351.863 136.797C352.065 136.843 352.24 136.969 352.35 137.145C352.46 137.321 352.495 137.533 352.449 137.736C352.087 139.306 351.202 140.706 349.94 141.707C348.677 142.708 347.112 143.25 345.501 143.244H345.514Z" fill="#030047"/>
<path d="M308.259 90.3991L301.293 86.7871C300.797 86.5342 300.248 86.4033 299.691 86.4053H239.653C239.192 86.41 238.735 86.3206 238.31 86.1424C237.885 85.9643 237.501 85.7012 237.181 85.3693C236.861 85.0374 236.612 84.6437 236.45 84.2122C236.288 83.7808 236.215 83.3208 236.237 82.8604L235.721 55.3477C235.758 54.3064 236.193 53.3187 236.935 52.5872C237.677 51.8557 238.671 51.4357 239.712 51.4133H310.024C310.485 51.4082 310.942 51.4973 311.367 51.6752C311.792 51.853 312.176 52.1159 312.496 52.4476C312.816 52.7793 313.065 53.1729 313.227 53.6041C313.389 54.0354 313.462 54.4953 313.44 54.9556L314.113 76.5834L313.855 86.8387C313.778 89.6999 310.692 91.6581 308.259 90.3991Z" fill="#3463AF"/>
<path d="M300.753 64.4166H249.389C249.113 64.4166 248.847 64.3068 248.652 64.1114C248.456 63.9159 248.347 63.6508 248.347 63.3743C248.347 63.0979 248.456 62.8328 248.652 62.6373C248.847 62.4418 249.113 62.332 249.389 62.332H300.753C301.03 62.332 301.295 62.4418 301.49 62.6373C301.686 62.8328 301.796 63.0979 301.796 63.3743C301.796 63.6508 301.686 63.9159 301.49 64.1114C301.295 64.3068 301.03 64.4166 300.753 64.4166Z" fill="white"/>
<path d="M276.296 74.7936H248.367C248.091 74.7936 247.826 74.6838 247.63 74.4883C247.435 74.2928 247.325 74.0277 247.325 73.7513C247.325 73.4748 247.435 73.2097 247.63 73.0143C247.826 72.8188 248.091 72.709 248.367 72.709H276.296C276.572 72.709 276.837 72.8188 277.033 73.0143C277.228 73.2097 277.338 73.4748 277.338 73.7513C277.338 74.0277 277.228 74.2928 277.033 74.4883C276.837 74.6838 276.572 74.7936 276.296 74.7936Z" fill="white"/>
<path d="M142.564 125.645L149.896 121.824C150.402 121.558 150.965 121.418 151.537 121.416H213.345C215.311 121.416 216.977 119.763 217.142 117.652L217.885 88.8107C218.061 86.5404 216.433 84.6338 214.317 84.6338H142.257C140.291 84.6338 138.624 86.2875 138.459 88.3954L138.201 110.988L137.36 121.876C137.12 124.902 139.996 126.984 142.564 125.645Z" fill="#3463AF"/>
<path d="M206.655 98.1048H153.547C153.27 98.1048 153.004 97.9948 152.809 97.7991C152.613 97.6034 152.503 97.3379 152.503 97.0612C152.503 96.7844 152.613 96.519 152.809 96.3232C153.004 96.1275 153.27 96.0176 153.547 96.0176H206.655C206.932 96.0176 207.197 96.1275 207.393 96.3232C207.589 96.519 207.699 96.7844 207.699 97.0612C207.699 97.3379 207.589 97.6034 207.393 97.7991C207.197 97.9948 206.932 98.1048 206.655 98.1048Z" fill="white"/>
<path d="M205.45 108.617H175.781C175.504 108.617 175.239 108.507 175.044 108.312C174.848 108.116 174.738 107.851 174.738 107.575C174.738 107.298 174.848 107.033 175.044 106.838C175.239 106.642 175.504 106.532 175.781 106.532H205.45C205.727 106.532 205.992 106.642 206.187 106.838C206.383 107.033 206.492 107.298 206.492 107.575C206.492 107.851 206.383 108.116 206.187 108.312C205.992 108.507 205.727 108.617 205.45 108.617Z" fill="white"/>
<path d="M230.184 266.144L225.914 268.832C224.954 269.432 223.796 269.629 222.692 269.378C221.588 269.127 220.628 268.449 220.022 267.493L217.333 263.22C216.733 262.263 216.536 261.107 216.786 260.006C217.037 258.904 217.714 257.946 218.67 257.343L222.945 254.642C223.905 254.039 225.065 253.841 226.171 254.092C227.276 254.343 228.237 255.022 228.842 255.981L231.528 260.266C232.129 261.224 232.325 262.381 232.073 263.483C231.821 264.585 231.141 265.542 230.184 266.144Z" fill="#3463AF"/>
<path d="M185.86 15.2556L181.59 17.9439C180.63 18.5453 179.471 18.742 178.366 18.4911C177.262 18.2401 176.301 17.562 175.695 16.6049L173.009 12.3325C172.407 11.3751 172.209 10.2177 172.46 9.11472C172.711 8.01171 173.389 7.05333 174.346 6.45017L178.621 3.74896C179.58 3.14785 180.738 2.95126 181.842 3.20221C182.946 3.45316 183.906 4.13121 184.511 5.08796L187.197 9.37327C187.799 10.3307 187.996 11.488 187.746 12.591C187.495 13.694 186.817 14.6524 185.86 15.2556Z" fill="#3463AF"/>
<path d="M403.209 149.38L398.217 152.522C397.095 153.224 395.741 153.454 394.451 153.16C393.16 152.867 392.039 152.074 391.331 150.956L388.189 145.964C387.484 144.847 387.251 143.496 387.541 142.207C387.832 140.919 388.621 139.798 389.737 139.091L394.734 135.933C395.856 135.231 397.21 135.001 398.5 135.295C399.791 135.588 400.912 136.381 401.62 137.499L404.76 142.507C405.464 143.624 405.697 144.975 405.406 146.264C405.115 147.552 404.325 148.673 403.209 149.38Z" fill="#3463AF"/>
<path d="M20.8825 172.161L17.9129 174.032C17.2455 174.449 16.44 174.585 15.6724 174.411C14.9047 174.236 14.2374 173.765 13.816 173.1L11.9455 170.131C11.5278 169.465 11.3913 168.66 11.5659 167.894C11.7405 167.127 12.2119 166.461 12.8769 166.042L15.849 164.163C16.5162 163.745 17.3219 163.609 18.0898 163.783C18.8576 163.958 19.525 164.429 19.9459 165.095L21.8113 168.075C22.2298 168.74 22.367 169.544 22.1928 170.31C22.0187 171.076 21.5474 171.742 20.8825 172.161Z" fill="#3463AF"/>
</svg>
