<svg width="461" height="468" viewBox="0 0 461 468" fill="none" xmlns="http://www.w3.org/2000/svg">
<g clip-path="url(#clip0_6326_58022)">
<path d="M98.5816 393.108C98.5816 393.108 34.6307 321.917 10.4983 230.214C-12.9705 141.045 38.3471 32.4128 173.392 3.36941C285.608 -20.763 419.688 89.0998 425.576 184.363C431.609 282.099 367.658 390.695 367.658 390.695L98.5816 393.108Z" fill="#DFEDF6"/>
<path d="M215.624 467.992C334.71 467.992 431.247 437.016 431.247 398.805C431.247 360.594 334.71 329.617 215.624 329.617C96.5388 329.617 0.000976562 360.594 0.000976562 398.805C0.000976562 437.016 96.5388 467.992 215.624 467.992Z" fill="#8CC5DF"/>
<path d="M432.165 45.2694C455.32 67.7729 468.906 109.425 445.112 136.478C432.056 151.331 411.097 156.99 392.491 161.153C370.199 165.988 347.359 167.81 324.582 166.571C324.362 166.556 324.142 166.593 323.939 166.678C323.735 166.764 323.555 166.895 323.412 167.063C323.269 167.231 323.167 167.43 323.115 167.644C323.062 167.858 323.061 168.082 323.11 168.296C322.94 168.463 322.808 168.665 322.724 168.888C319.131 179.29 312.995 188.629 304.873 196.055C296.752 203.481 286.902 208.759 276.221 211.409C288.854 200.405 297.735 183.391 295.913 166.511C296.083 166.4 296.217 166.243 296.3 166.058C296.383 165.874 296.412 165.669 296.383 165.469C296.354 165.268 296.268 165.081 296.135 164.927C296.003 164.774 295.83 164.662 295.635 164.604C263.057 155.41 241.772 121.6 251.534 88.4664C262.152 52.4608 297.735 33.3842 331.834 24.9981C350.754 20.3527 370.711 17.2999 389.945 21.9092C405.848 25.7968 420.423 33.8615 432.165 45.2694ZM426.856 50.0959C427.628 51.3025 429.595 50.0959 428.774 48.9737C427.522 47.1579 426.014 45.5323 424.298 44.1472C422.766 42.7253 420.904 41.7091 418.88 41.191C418.373 41.1186 417.854 41.7098 418.325 42.1442C419.712 43.4232 421.498 44.2437 422.934 45.5107C424.446 46.847 425.765 48.386 426.856 50.0838V50.0959ZM418.047 49.6373C418.699 50.3734 419.869 49.6373 419.64 48.7082C419.078 47.2391 418.117 45.9562 416.865 45.0039C415.702 43.9909 414.382 43.1756 412.955 42.5907C412.183 42.2649 411.64 43.568 412.388 43.9421C413.616 44.5577 414.734 45.3732 415.694 46.3553C416.623 47.393 417.154 48.6238 418.047 49.6253V49.6373ZM279.093 147.615C280.299 148.122 280.963 146.01 279.66 145.588C276.946 144.663 274.621 142.852 273.06 140.448C272.967 140.288 272.814 140.171 272.635 140.124C272.457 140.076 272.266 140.101 272.106 140.194C271.946 140.287 271.83 140.44 271.782 140.618C271.735 140.797 271.76 140.987 271.853 141.147C273.386 144.123 275.964 146.426 279.093 147.615ZM276.137 149.244C276.885 149.521 277.488 148.423 276.909 147.905C275.232 146.384 273.216 145.286 271.563 143.706C269.835 141.994 268.286 140.11 266.942 138.083C266.859 137.948 266.726 137.851 266.573 137.814C266.419 137.776 266.257 137.8 266.121 137.88C265.985 137.961 265.886 138.092 265.845 138.245C265.805 138.398 265.826 138.561 265.904 138.698C267.871 142.74 271.793 147.639 276.137 149.244Z" fill="#F5F5F5"/>
<path d="M442.156 51.5257C462.669 77.1302 470.138 119.386 442.82 143.289C428.63 155.705 409.179 160.906 391.152 164.731C369.546 169.298 347.428 170.974 325.379 169.714C321.307 181.506 314.114 191.972 304.565 200C295.017 208.027 283.47 213.315 271.154 215.3C270.828 215.372 270.488 215.328 270.192 215.175C269.896 215.021 269.664 214.769 269.534 214.462C269.405 214.155 269.388 213.812 269.485 213.494C269.583 213.175 269.789 212.901 270.068 212.718C285.863 201.521 292.439 185.05 294.2 166.468C276.379 162.656 261.441 150.095 253.042 134.047C248.766 125.812 246.37 116.731 246.026 107.459C245.681 98.1867 247.398 88.9534 251.052 80.4243C266.557 43.1639 306.291 26.3074 343.479 19.2848C363.074 15.5805 382.899 15.1099 401.771 22.2773C417.588 28.2737 431.526 38.3681 442.156 51.5257ZM445.112 136.472C468.907 109.419 455.32 67.7669 432.165 45.2634C420.42 33.8536 405.84 25.7889 389.934 21.9032C370.7 17.2939 350.743 20.3467 331.823 24.9921C297.724 33.4385 262.14 52.4548 251.522 88.4604C241.761 121.594 263.094 155.404 295.624 164.598C295.818 164.656 295.992 164.768 296.124 164.921C296.257 165.075 296.342 165.262 296.372 165.463C296.401 165.663 296.372 165.868 296.289 166.052C296.205 166.237 296.071 166.394 295.902 166.505C297.724 183.397 288.843 200.399 276.21 211.403C286.894 208.762 296.748 203.492 304.876 196.072C313.004 188.652 319.148 179.318 322.749 168.918C322.833 168.695 322.965 168.493 323.135 168.327C323.086 168.112 323.087 167.888 323.139 167.674C323.192 167.46 323.294 167.261 323.437 167.093C323.58 166.926 323.76 166.794 323.964 166.708C324.167 166.623 324.387 166.586 324.607 166.601C347.376 167.838 370.207 166.016 392.492 161.183C411.098 157.033 432.057 151.325 445.112 136.472Z" fill="black"/>
<path d="M428.774 48.9585C429.595 50.1651 427.567 51.2993 426.856 50.0806C425.771 48.3573 424.451 46.7937 422.934 45.4351C421.498 44.2285 419.712 43.3477 418.325 42.0687C417.854 41.6343 418.325 41.043 418.88 41.1154C420.904 41.6335 422.766 42.6498 424.297 44.0717C426.018 45.4752 427.526 47.1213 428.774 48.9585Z" fill="black"/>
<path d="M419.639 48.6829C419.868 49.5637 418.698 50.348 418.046 49.612C417.154 48.6105 416.623 47.3797 415.694 46.4024C414.733 45.4203 413.616 44.6047 412.387 43.9891C411.639 43.6151 412.182 42.3119 412.954 42.6377C414.381 43.2227 415.702 44.038 416.864 45.051C418.105 45.9835 419.065 47.2402 419.639 48.6829Z" fill="black"/>
<path d="M279.659 145.574C280.962 145.996 280.335 148.108 279.092 147.601C275.963 146.412 273.385 144.109 271.852 141.133C271.759 140.973 271.734 140.783 271.781 140.604C271.829 140.425 271.945 140.273 272.105 140.18C272.265 140.087 272.456 140.062 272.634 140.109C272.813 140.157 272.966 140.273 273.059 140.433C274.62 142.838 276.945 144.649 279.659 145.574Z" fill="black"/>
<path d="M276.909 147.898C277.488 148.416 276.909 149.514 276.136 149.237C271.793 147.632 267.871 142.733 265.904 138.691C265.826 138.554 265.805 138.391 265.845 138.238C265.886 138.085 265.985 137.954 266.121 137.873C266.257 137.793 266.419 137.769 266.573 137.807C266.726 137.844 266.859 137.941 266.942 138.076C268.286 140.103 269.835 141.987 271.563 143.699C273.216 145.279 275.232 146.377 276.909 147.898Z" fill="black"/>
<path d="M286.66 107.373C283.908 107.373 281.46 106.748 279.316 105.497C277.171 104.21 275.509 102.441 274.33 100.19C273.15 97.9023 272.561 95.2754 272.561 92.3089V68.1307H277.117V92.5234C277.117 95.6328 277.94 98.1703 279.584 100.136C281.228 102.066 283.586 103.031 286.66 103.031C289.734 103.031 292.093 102.066 293.737 100.136C295.416 98.1703 296.256 95.6328 296.256 92.5234V68.1307H300.76V92.3089C300.76 95.2754 300.188 97.9023 299.044 100.19C297.936 102.477 296.31 104.246 294.166 105.497C292.057 106.748 289.555 107.373 286.66 107.373ZM308.23 68.1307H313.805L333.051 98.6885H333.266L333.051 91.2903V68.1307H337.608V106.516H332.891L312.733 74.5103H312.519L312.733 81.9086V106.516H308.23V68.1307ZM346.186 68.1307H357.766C361.697 68.1307 365.129 68.9528 368.059 70.5968C370.99 72.2051 373.242 74.4567 374.814 77.3517C376.387 80.2466 377.173 83.5705 377.173 87.3232C377.173 91.0759 376.387 94.3997 374.814 97.2947C373.242 100.19 370.99 102.459 368.059 104.103C365.129 105.711 361.697 106.516 357.766 106.516H346.186V68.1307ZM357.766 102.173C362.305 102.173 365.897 100.869 368.542 98.2597C371.222 95.6506 372.562 92.0051 372.562 87.3232C372.562 82.6412 371.222 78.9957 368.542 76.3867C365.897 73.7777 362.305 72.4732 357.766 72.4732H350.69V102.173H357.766ZM383.881 68.1307H406.076V72.4732H388.384V85.1788H404.36V89.4676H388.384V102.173H406.076V106.516H383.881V68.1307ZM413.408 68.1307H426.382C428.491 68.1307 430.456 68.6132 432.279 69.5782C434.102 70.5432 435.549 71.9013 436.622 73.6526C437.73 75.3681 438.284 77.3159 438.284 79.4961C438.284 81.2831 437.872 82.945 437.05 84.4818C436.264 86.0187 435.156 87.3053 433.727 88.3418C432.333 89.3782 430.778 90.0752 429.063 90.4326L428.955 90.5934L439.785 106.301V106.516H434.424L423.97 90.8615H417.912V106.516H413.408V68.1307ZM426.114 86.6262C427.436 86.6262 428.669 86.3225 429.813 85.7149C430.993 85.1073 431.922 84.2674 432.601 83.1952C433.316 82.0873 433.673 80.8542 433.673 79.4961C433.673 78.3167 433.369 77.1909 432.762 76.1187C432.154 75.0465 431.296 74.1708 430.188 73.4918C429.116 72.8127 427.865 72.4732 426.436 72.4732H417.912V86.6262H426.114Z" fill="black"/>
<path d="M314.881 120.162H320.572C321.497 120.162 322.36 120.373 323.159 120.797C323.959 121.22 324.594 121.816 325.064 122.584C325.55 123.337 325.793 124.191 325.793 125.147C325.793 125.931 325.613 126.66 325.252 127.334C324.907 128.009 324.421 128.573 323.794 129.028C323.183 129.482 322.501 129.788 321.748 129.945L321.701 130.015L326.452 136.906V137H324.1L319.514 130.133H316.857V137H314.881V120.162ZM320.455 128.275C321.035 128.275 321.576 128.142 322.078 127.875C322.595 127.609 323.003 127.24 323.3 126.77C323.614 126.284 323.771 125.743 323.771 125.147C323.771 124.63 323.638 124.136 323.371 123.666C323.104 123.195 322.728 122.811 322.242 122.513C321.772 122.216 321.223 122.067 320.596 122.067H316.857V128.275H320.455ZM328.661 120.162H338.397V122.067H330.636V127.64H337.644V129.522H330.636V135.095H338.397V137H328.661V120.162ZM340.062 120.162H342.272L346.435 132.367L346.999 134.037H347.093L347.681 132.367L352.032 120.162H354.242L348.081 137H346.011L340.062 120.162ZM356.427 120.162H358.402V137H356.427V120.162ZM362.168 120.162H371.904V122.067H364.144V127.64H371.152V129.522H364.144V135.095H371.904V137H362.168V120.162ZM373.639 120.162H375.85L378.907 132.532L379.189 133.684H379.283L379.636 132.532L383.399 120.162H385.468L389.066 132.532L389.419 133.684H389.513L392.829 120.162H395.04L390.501 137H388.431L384.857 124.818L384.481 123.501H384.387L383.987 124.818L380.271 137H378.202L373.639 120.162Z" fill="black"/>
<path d="M170.522 263.485C169.597 266.124 168.672 268.758 167.747 271.389C145.629 267.383 135.168 247.498 135.071 226.623C135.528 226.588 135.98 226.511 136.423 226.394C136.613 226.343 136.781 226.231 136.901 226.075C137.021 225.919 137.085 225.728 137.085 225.531C137.085 225.334 137.021 225.143 136.901 224.987C136.781 224.831 136.613 224.719 136.423 224.668L139.874 223.703C139.982 223.81 140.114 223.888 140.26 223.932C141.078 224.157 141.921 224.274 142.77 224.282C142.263 241.175 153.376 259.274 170.329 263.485H170.522Z" fill="#CF752F"/>
<path d="M138.508 196.68C138.502 197.196 138.526 197.711 138.581 198.224C138.568 199.463 138.484 200.7 138.327 201.929C138.308 202 138.308 202.075 138.327 202.146C135.759 202.16 133.195 202.349 130.653 202.713C130.708 202.596 130.737 202.468 130.738 202.339C130.569 199.069 129.531 193 134.249 192.227C137.265 191.781 138.267 194.098 138.508 196.68Z" fill="#CF752F"/>
<path d="M158.212 202.009C160.819 201.744 164.933 202.371 163.509 205.979C162.086 209.587 157.657 211.928 153.856 212.76C153.722 212.632 153.557 212.542 153.377 212.498C153.197 212.454 153.008 212.457 152.83 212.509C152.652 212.56 152.49 212.657 152.361 212.79C152.232 212.923 152.14 213.088 152.095 213.267C151.921 214.62 151.481 215.925 150.801 217.107C150.121 218.289 149.213 219.325 148.131 220.155C147.049 220.985 145.813 221.592 144.495 221.943C143.177 222.293 141.802 222.379 140.451 222.196C139.606 222.112 139.353 223.186 139.836 223.704L136.385 224.67H136.192L134.985 224.525C134.895 224.371 134.771 224.238 134.623 224.137C134.475 224.037 134.307 223.97 134.13 223.942C133.954 223.915 133.773 223.927 133.602 223.977C133.43 224.028 133.272 224.116 133.139 224.235C131.942 224.005 130.804 223.533 129.796 222.848C128.025 221.577 126.666 219.815 125.887 217.78C125.742 216.127 125.573 214.474 125.344 212.797C125.337 212.688 125.3 212.584 125.239 212.495C125.177 212.406 125.093 212.335 124.994 212.29C123.86 209.141 121.965 206.389 121.266 203.035C120.759 200.622 120.421 196.314 124.041 196.29C127.202 196.29 128.348 199.91 127.926 202.444C127.902 202.581 127.917 202.723 127.968 202.852C128.019 202.982 128.105 203.096 128.216 203.18C127.19 203.385 126.152 203.602 125.139 203.868C124.125 204.133 124.584 205.509 125.549 205.352C131.843 204.237 138.249 203.897 144.626 204.338C145.832 204.423 145.832 202.649 144.626 202.516C143.419 202.383 142.213 202.311 140.934 202.251C140.997 202.137 141.026 202.007 141.018 201.877C140.739 199.926 140.586 197.959 140.559 195.988C140.861 192.924 144.179 189.424 147.051 192.272C150.128 195.349 150.08 200.308 148.982 204.169C148.952 204.303 148.959 204.442 149.002 204.572C149.046 204.701 149.124 204.817 149.229 204.905C149.333 204.993 149.46 205.051 149.595 205.073C149.73 205.094 149.869 205.078 149.995 205.026C150.153 205.182 150.363 205.276 150.585 205.289C150.807 205.302 151.026 205.235 151.202 205.098C153.174 203.386 155.618 202.309 158.212 202.009Z" fill="#CF752F"/>
<path d="M222.236 426.727C222.074 428.332 222.074 429.949 222.236 431.553C199.841 420.356 177.145 409.762 154.666 398.709C132.186 387.656 109.622 375.614 86.5881 365.322C86.6305 365.218 86.6549 365.108 86.6605 364.996C86.731 362.199 86.3729 359.408 85.5986 356.719C109.506 370.281 133.638 383.421 157.996 396.139C170.311 402.574 182.712 408.873 195.196 415.035C201.072 417.943 206.961 420.863 212.885 423.698C215.781 425.294 218.955 426.322 222.236 426.727Z" fill="#CF752F"/>
<path d="M360.406 359.859C360.568 361.18 360.644 362.51 360.636 363.841C338.112 376.101 315.403 388.046 292.51 399.678C270.175 411.056 246.803 421.011 224.939 433.27C224.89 433.129 224.812 432.999 224.71 432.889C224.609 432.779 224.485 432.691 224.348 432.631L224.155 432.534C223.917 430.613 223.8 428.678 223.805 426.742C225.033 426.688 226.25 426.477 227.425 426.115C232.758 424.462 237.934 421.288 242.966 418.875C249.594 415.714 256.219 412.544 262.839 409.367C274.994 403.519 287.128 397.59 299.243 391.581C311.695 385.379 324.079 379.049 336.395 372.589C342.211 369.524 347.998 366.419 353.758 363.274C356.042 362.274 358.263 361.133 360.406 359.859Z" fill="#CF752F"/>
<path d="M355.436 351.513C360.866 356.726 357.367 357.631 353.156 359.959L346.036 363.833C340.245 366.946 334.437 370.019 328.613 373.051C317.995 378.594 307.32 384.019 296.589 389.329C274.786 400.188 252.909 410.903 230.84 421.147C225.748 423.56 222.816 424.345 217.399 422.293C214.611 421.244 211.957 419.76 209.29 418.456C203.394 415.585 197.501 412.681 191.613 409.745C180.882 404.411 170.204 398.994 159.577 393.491C135.525 381.087 111.739 368.217 88.2178 354.88C110.227 339.592 133.43 325.703 154.715 309.414C150.274 322.687 145.955 335.96 141.912 349.353C141.857 349.295 141.797 349.243 141.731 349.196C141.694 349.174 141.651 349.164 141.608 349.169C141.565 349.174 141.525 349.194 141.494 349.224C141.463 349.255 141.444 349.295 141.439 349.338C141.434 349.381 141.443 349.425 141.466 349.462C141.575 349.611 141.715 349.734 141.876 349.824C141.904 350.077 142.011 350.315 142.182 350.503C142.354 350.692 142.58 350.822 142.829 350.874C142.851 351.011 142.9 351.142 142.974 351.26C150.395 363.097 167.71 365.474 180.259 367.742C197.385 370.724 214.767 371.981 232.144 371.495C248.288 371.133 264.952 370.119 280.807 366.849C292.076 364.533 303.732 359.875 309.162 349.015C309.261 348.825 309.32 348.616 309.335 348.402C309.35 348.188 309.321 347.973 309.25 347.771C309.179 347.568 309.067 347.383 308.921 347.225C308.775 347.068 308.598 346.942 308.402 346.856C308.113 345.08 307.611 343.346 306.906 341.691C305.225 336.575 303.543 331.455 301.862 326.331C301.005 323.725 300.137 321.106 299.268 318.5C308.583 323.133 317.777 327.972 326.767 333.209C331.521 335.984 336.215 338.848 340.848 341.8C345.506 344.756 351.418 347.652 355.436 351.513ZM239.335 411.241C239.58 411.082 239.754 410.835 239.821 410.551C239.888 410.267 239.843 409.968 239.695 409.716C239.548 409.464 239.309 409.279 239.028 409.199C238.748 409.119 238.447 409.15 238.189 409.286C233.229 411.904 228.475 414.668 223.347 416.996C222.503 417.37 223.094 418.806 223.975 418.493C229.369 416.704 234.526 414.269 239.335 411.241ZM236.282 408.164C237.489 407.464 236.427 405.606 235.16 406.245C232.131 407.79 229.199 409.6 226.243 411.301C225.302 411.844 226.135 413.22 227.088 412.749C230.153 411.241 233.302 409.817 236.282 408.164Z" fill="#CF752F"/>
<path d="M336.552 313.195C336.914 316.755 336.806 321.388 332.413 322.076C328.021 322.764 325.886 318.118 327.454 314.486C327.514 314.32 327.523 314.139 327.481 313.967C327.438 313.795 327.344 313.64 327.213 313.521C330.324 313.901 333.475 313.791 336.552 313.195Z" fill="#CF752F"/>
<path d="M343.14 305.783C345.794 308.354 350.5 312.504 347.894 316.643C347.31 317.46 346.486 318.075 345.537 318.401C344.587 318.728 343.56 318.75 342.597 318.465C341.724 318.151 340.936 317.637 340.297 316.965C339.658 316.292 339.186 315.48 338.917 314.592C338.917 313.952 338.808 313.325 338.736 312.709C339.532 312.504 340.316 312.287 341.149 312.034C342.476 311.611 341.897 309.5 340.57 309.934C334.644 311.774 328.369 312.187 322.253 311.141C322.093 311.098 321.923 311.12 321.779 311.202C321.635 311.285 321.53 311.421 321.487 311.581C321.444 311.741 321.466 311.912 321.549 312.056C321.631 312.199 321.767 312.304 321.927 312.347C322.87 312.665 323.828 312.931 324.799 313.144C324.684 313.261 324.6 313.405 324.553 313.563C324.507 313.721 324.5 313.888 324.534 314.049C325.039 315.819 324.875 317.713 324.075 319.37C323.623 320.231 322.858 320.886 321.938 321.2C321.018 321.514 320.012 321.464 319.128 321.059C315.798 319.273 317.173 314.519 317.74 311.551C317.906 311.457 318.039 311.315 318.122 311.143C318.205 310.972 318.234 310.779 318.205 310.591C318.176 310.403 318.091 310.228 317.961 310.089C317.83 309.95 317.661 309.854 317.475 309.814C314.108 309.102 309.668 311.02 306.736 308.836C304.045 306.894 306.386 304.215 308.546 303.298C309.581 302.853 310.697 302.63 311.824 302.642C312.95 302.654 314.061 302.903 315.086 303.37C315.19 303.419 315.304 303.444 315.419 303.446C315.535 303.448 315.649 303.425 315.755 303.379C315.861 303.334 315.956 303.266 316.034 303.182C316.112 303.097 316.171 302.997 316.208 302.888C316.618 303.129 317.173 303.069 317.27 302.477C317.467 300.772 318.113 299.149 319.14 297.773C320.168 296.398 321.542 295.319 323.122 294.646C324.087 294.188 323.4 292.716 322.41 292.969C321.608 293.176 320.845 293.515 320.154 293.971C313.566 278.755 298.434 271.407 282.664 269.416C281.457 266.049 280.323 262.683 279.141 259.329C300.208 259.244 317.016 272.034 327.924 289.301L327.273 289.482C327.097 289.53 326.947 289.646 326.857 289.804C326.766 289.963 326.742 290.151 326.79 290.327C326.838 290.503 326.954 290.652 327.112 290.743C327.271 290.833 327.459 290.857 327.635 290.809C330.19 290.362 332.821 290.735 335.151 291.875C337.482 293.015 339.391 294.864 340.606 297.156C340.571 297.27 340.559 297.389 340.572 297.507C340.584 297.626 340.62 297.74 340.678 297.844C341.7 299.966 342.098 302.334 341.825 304.673C341.825 305.277 342.452 305.421 342.85 305.144C342.872 305.384 342.974 305.609 343.14 305.783ZM336.95 301.488C337.408 302.441 338.844 301.753 338.603 300.788C337.638 296.782 333.185 294.079 329.252 294.2C329.059 294.224 328.881 294.317 328.753 294.463C328.624 294.608 328.553 294.796 328.553 294.99C328.553 295.185 328.624 295.372 328.753 295.518C328.881 295.663 329.059 295.757 329.252 295.781C333.028 295.998 335.345 298.242 336.95 301.488Z" fill="#CF752F"/>
<path d="M288.515 296.433C288.612 296.71 288.696 296.988 288.793 297.277C267.677 304.202 245.604 307.765 223.382 307.835C203.243 307.835 180.631 306.411 163.051 295.769C168.155 280.336 173.223 264.892 178.52 249.531C190.707 258.364 207.285 258.436 221.765 258.484C238.995 258.484 256.395 256.518 272.576 250.4C274.812 256.61 277.016 262.84 279.188 269.091H279.104C278.223 269.018 277.993 270.526 278.898 270.659L279.791 270.816C282.719 279.303 285.627 287.841 288.515 296.433ZM275.363 278.333C275.677 279.19 277.221 279.142 277.089 278.092C276.242 272.897 274.455 267.901 271.816 263.347C271.502 262.792 270.549 263.166 270.766 263.794C271.586 266.207 272.54 268.548 273.3 271.033C274.06 273.519 274.506 275.944 275.363 278.333ZM269.801 281.953C269.84 282.08 269.906 282.197 269.994 282.296C270.081 282.396 270.189 282.476 270.309 282.532C270.429 282.588 270.56 282.618 270.693 282.62C270.826 282.623 270.957 282.597 271.08 282.546C271.202 282.494 271.312 282.418 271.403 282.322C271.494 282.225 271.564 282.111 271.608 281.985C271.653 281.86 271.67 281.727 271.66 281.595C271.65 281.463 271.613 281.334 271.55 281.217C270.204 277.989 269.048 274.686 268.087 271.323C267.918 270.804 267.001 270.852 267.074 271.468C267.556 275.072 268.472 278.605 269.801 281.989V281.953Z" fill="#CF752F"/>
<path d="M250.326 192.395C251.46 195.146 252.57 197.909 253.681 200.672C244.423 203.055 234.882 204.155 225.325 203.942C215.322 203.653 205.935 201.384 196.27 199.116C196.813 197.632 197.331 196.135 197.874 194.651C200.971 186.149 204.117 177.654 207.31 169.167C210.146 161.602 212.426 150.139 220.909 146.953C221.177 146.849 221.4 146.652 221.536 146.398C231.491 146.772 235.123 157.258 238.67 165.137C242.7 174.171 246.586 183.257 250.326 192.395ZM211.509 181.234C212.209 180.111 210.484 179.146 209.747 180.208C207.637 183.287 206.191 186.772 205.5 190.44C205.498 190.583 205.543 190.722 205.628 190.837C205.713 190.951 205.833 191.035 205.97 191.075C206.107 191.114 206.253 191.108 206.387 191.057C206.52 191.005 206.632 190.912 206.707 190.79C207.977 187.449 209.586 184.246 211.509 181.234ZM206.924 182.621C207.479 181.547 205.802 180.618 205.319 181.692C203.739 185.191 202.061 188.654 200.601 192.202C200.336 192.853 201.398 193.276 201.723 192.672C203.57 189.427 205.199 185.976 206.924 182.621Z" fill="#CF752F"/>
<path d="M304.901 346.477C304.723 346.59 304.577 346.748 304.479 346.935L304.238 347.358C304.083 347.644 304.023 347.971 304.064 348.294C304.105 348.616 304.246 348.917 304.467 349.156C304.638 349.366 304.833 349.556 305.046 349.723C298.796 359.086 287.466 362.537 276.666 364.395C261.544 366.861 246.257 368.18 230.936 368.341C215.382 368.719 199.827 367.697 184.457 365.288C170.375 362.996 155.003 360.546 144.638 349.892C144.581 349.844 144.52 349.799 144.457 349.759C150.707 332.553 156.523 315.165 162.279 297.766C177.82 309.337 201.542 310.375 220.028 310.701C243.677 311.111 267.223 307.479 289.65 299.962C291.371 305.126 293.093 310.298 294.814 315.479C294.811 315.739 294.891 315.992 295.043 316.203L296.865 321.645C298.297 326.037 299.737 330.429 301.185 334.821C301.909 337.017 302.621 339.213 303.345 341.409C303.707 342.507 304.069 343.605 304.419 344.703C304.44 345.324 304.605 345.931 304.901 346.477ZM166.381 353.813C167.588 353.97 167.757 352.076 166.659 351.762C164.439 351.11 162.194 350.664 160.022 349.843C157.851 349.023 155.932 347.804 153.808 346.972C153.217 346.742 152.795 347.599 153.217 347.997C156.439 351.122 162.001 353.234 166.381 353.813ZM160.107 355.539C160.242 355.576 160.382 355.586 160.521 355.569C160.66 355.552 160.794 355.508 160.915 355.439C161.037 355.37 161.144 355.278 161.229 355.167C161.315 355.057 161.379 354.931 161.416 354.797C161.453 354.662 161.464 354.521 161.447 354.383C161.429 354.244 161.385 354.11 161.316 353.988C161.247 353.867 161.155 353.76 161.045 353.674C160.935 353.588 160.809 353.525 160.674 353.487C156.069 352 151.873 349.464 148.415 346.079C147.691 345.367 146.665 346.429 147.305 347.189C150.647 351.183 155.104 354.091 160.107 355.539Z" fill="#F5F5F5"/>
<path d="M260.39 225.627C261.958 230.731 261.995 236.486 257.977 240.456C253.959 244.426 244.125 247.189 241.373 239.672C241.269 239.37 241.058 239.117 240.781 238.96C240.503 238.802 240.178 238.751 239.865 238.815L239.202 236.486C239.966 236.492 240.707 236.222 241.289 235.726C241.622 235.395 241.874 234.992 242.027 234.548C242.179 234.104 242.228 233.631 242.17 233.165C242.112 232.699 241.948 232.253 241.691 231.86C241.433 231.468 241.09 231.139 240.686 230.9C240.245 230.622 239.734 230.476 239.214 230.477C239.105 230.466 238.996 230.466 238.888 230.477L238.104 228.933C238.233 228.938 238.363 228.916 238.483 228.868C238.604 228.82 238.713 228.746 238.803 228.653C238.893 228.559 238.962 228.448 239.006 228.325C239.05 228.203 239.067 228.073 239.057 227.943C238.948 222.007 242.894 216.131 249.325 216.07C255.238 216.107 258.785 220.462 260.39 225.627Z" fill="#F5F5F5"/>
<path d="M355.254 347.501C349.221 343.35 343.079 339.328 336.829 335.434C330.394 331.493 323.878 327.716 317.282 324.104C310.847 320.629 304.363 317.331 297.831 314.21C295.764 307.984 293.688 301.766 291.605 295.556C288.894 287.511 286.135 279.467 283.328 271.423C297.807 274.295 311.973 280.34 318.078 294.916C318.157 295.088 318.272 295.24 318.416 295.363C317.553 296.228 316.871 297.258 316.413 298.392C315.955 299.526 315.73 300.74 315.75 301.963C311.659 299.73 304.033 300.527 303.321 306.246C303.249 307.33 303.539 308.407 304.146 309.307C304.754 310.207 305.644 310.879 306.676 311.218C309.704 312.497 312.914 311.386 316.063 311.64C314.664 315.332 314.253 320.858 317.97 322.861C318.507 323.146 319.085 323.346 319.683 323.453C320.849 323.717 322.07 323.58 323.148 323.063C324.225 322.546 325.097 321.68 325.62 320.605C326.106 321.621 326.843 322.496 327.762 323.148C328.68 323.801 329.749 324.208 330.868 324.333C332.098 324.467 333.342 324.283 334.48 323.799C335.619 323.316 336.615 322.548 337.372 321.57C338.102 320.554 338.581 319.38 338.772 318.144C339.783 319.546 341.301 320.5 343.003 320.804C344.706 321.108 346.459 320.738 347.894 319.772C354.422 315.598 348.811 307.622 344.696 304.243C344.491 304.068 344.23 303.972 343.96 303.972C343.691 303.972 343.43 304.068 343.224 304.243C343.723 302.233 343.554 300.115 342.742 298.21C342.882 298.09 342.979 297.926 343.016 297.745C343.053 297.563 343.029 297.375 342.947 297.209C341.943 294.659 340.161 292.492 337.854 291.014C335.546 289.537 332.832 288.825 330.096 288.98C330.109 288.765 330.059 288.551 329.951 288.364C318.839 270.41 300.558 256.184 278.513 257.716C277.367 254.494 276.221 251.285 275.062 248.063C275.027 247.89 274.966 247.723 274.881 247.568C273.449 243.611 272.006 239.661 270.55 235.719C263.422 216.47 255.813 197.413 247.72 178.55C243.907 169.717 240.674 159.497 234.918 151.702C231.298 146.876 226.098 143.449 219.932 144.885C219.777 144.92 219.64 145.01 219.546 145.138C214.454 147.165 211.582 151.461 209.326 156.408C205.911 163.913 203.292 171.877 200.469 179.599C193.479 198.423 186.685 217.326 180.089 236.311C177.081 244.902 174.06 253.505 171.027 262.12C170.994 262.089 170.957 262.061 170.919 262.036C155.474 254.977 144.783 241.632 145.23 224.087C147.494 223.567 149.553 222.385 151.145 220.692C152.737 218.999 153.79 216.872 154.171 214.579C157.142 214.146 159.933 212.892 162.231 210.959C164.282 209.222 166.672 206.278 165.779 203.382C164.886 200.486 161.543 200.22 159.046 200.317C156.131 200.44 153.322 201.441 150.985 203.189C152.59 198.362 151.504 190.966 146.219 189.288C143.685 188.48 141.079 190.049 139.74 192.172C139.542 192.487 139.373 192.818 139.233 193.162C138.759 192.306 138.057 191.598 137.205 191.116C136.353 190.635 135.384 190.399 134.406 190.435C130.606 190.688 129.061 193.849 128.723 197.228C128.381 196.638 127.936 196.115 127.408 195.684C126.472 194.91 125.308 194.464 124.094 194.414C122.881 194.364 121.684 194.712 120.687 195.406C115.861 199.026 120.084 209.403 123.933 212.685C123.813 212.857 123.765 213.069 123.8 213.276C124.005 214.724 124.259 216.148 124.536 217.572C124.588 218.214 124.721 218.846 124.934 219.454C125.043 219.973 125.14 220.504 125.26 221.035C125.275 221.087 125.301 221.137 125.336 221.179C125.37 221.222 125.413 221.257 125.461 221.283C125.509 221.309 125.563 221.325 125.617 221.33C125.672 221.335 125.727 221.329 125.779 221.312C126.528 222.596 127.524 223.72 128.708 224.619C129.892 225.517 131.243 226.173 132.681 226.549C131.921 247.46 144.289 271.423 167.202 272.992C163.309 284.101 159.46 295.262 155.655 306.475C143.529 313.534 131.993 321.763 120.349 329.582C108.44 337.582 96.4462 345.498 84.6937 353.715C84.4133 353.915 84.2023 354.197 84.0904 354.523C83.9672 354.541 83.8493 354.585 83.744 354.652C83.6388 354.718 83.5487 354.806 83.4793 354.909C83.41 355.013 83.3631 355.129 83.3416 355.252C83.3201 355.375 83.3244 355.5 83.3543 355.621C83.9466 358.686 84.2936 361.792 84.392 364.912C84.27 364.99 84.1709 365.099 84.1046 365.228C84.0383 365.357 84.0072 365.501 84.0146 365.645C84.0219 365.79 84.0674 365.93 84.1464 366.051C84.2254 366.172 84.3351 366.271 84.4644 366.336C84.8626 366.553 85.2608 366.782 85.671 366.988L86.5639 365.347C86.6063 365.243 86.6308 365.133 86.6363 365.021C86.7069 362.224 86.3488 359.432 85.5745 356.743C109.482 370.306 133.614 383.446 157.972 396.164C170.287 402.599 182.687 408.897 195.172 415.059C201.048 417.967 206.936 420.887 212.861 423.723C215.753 425.317 218.923 426.345 222.2 426.751H223.769C224.997 426.697 226.214 426.486 227.389 426.124C232.722 424.471 237.898 421.298 242.93 418.884C249.558 415.723 256.183 412.554 262.803 409.376C274.982 403.52 287.128 397.587 299.243 391.578C311.695 385.376 324.079 379.046 336.395 372.586C342.211 369.521 347.998 366.416 353.758 363.271C356.038 362.27 358.255 361.13 360.395 359.856C360.556 361.177 360.632 362.507 360.624 363.838C338.1 376.098 315.392 388.043 292.498 399.675C270.163 411.053 246.791 421.008 224.927 433.267L225.555 434.872C248.565 425.931 270.779 413.648 292.824 402.523C316.152 390.77 339.283 378.635 362.217 366.119C362.437 366.009 362.619 365.835 362.737 365.619C362.856 365.404 362.906 365.157 362.88 364.912C362.967 364.752 363.016 364.575 363.025 364.393C363.148 362.189 362.957 359.979 362.458 357.829C362.766 357.368 362.983 356.852 363.097 356.309C363.882 352.122 357.885 349.274 355.254 347.501ZM327.888 289.305L327.237 289.486C327.061 289.534 326.911 289.65 326.82 289.809C326.73 289.967 326.706 290.155 326.754 290.331C326.802 290.507 326.918 290.657 327.076 290.747C327.235 290.838 327.423 290.862 327.599 290.814C330.154 290.366 332.785 290.739 335.115 291.88C337.445 293.02 339.355 294.868 340.57 297.16C340.535 297.274 340.523 297.393 340.536 297.512C340.548 297.63 340.584 297.744 340.642 297.848C341.664 299.97 342.062 302.338 341.788 304.678C341.788 305.281 342.416 305.426 342.814 305.148C342.838 305.405 342.954 305.645 343.14 305.824C345.794 308.394 350.5 312.545 347.894 316.684C347.31 317.5 346.486 318.115 345.537 318.442C344.587 318.768 343.56 318.791 342.597 318.506C341.724 318.192 340.936 317.678 340.297 317.005C339.658 316.333 339.186 315.52 338.917 314.632V314.319C338.192 314.533 337.449 314.678 336.696 314.753C336.829 317.999 336.226 321.51 332.449 322.101C328.009 322.801 325.921 318.144 327.49 314.512C327.534 314.409 327.557 314.298 327.557 314.186C327.557 314.074 327.534 313.963 327.49 313.86C326.549 313.691 325.608 313.534 324.654 313.414C324.557 313.608 324.528 313.828 324.57 314.041C325.075 315.811 324.912 317.705 324.111 319.362C323.659 320.223 322.895 320.878 321.974 321.192C321.054 321.507 320.048 321.456 319.164 321.051C315.834 319.266 317.21 314.512 317.777 311.543C317.942 311.449 318.075 311.307 318.158 311.135C318.241 310.964 318.27 310.772 318.241 310.583C318.213 310.395 318.127 310.22 317.997 310.081C317.867 309.942 317.697 309.846 317.511 309.806C314.145 309.094 309.704 311.012 306.772 308.828C304.082 306.886 306.422 304.207 308.582 303.29C309.617 302.845 310.734 302.622 311.86 302.634C312.986 302.647 314.097 302.895 315.122 303.362C315.227 303.411 315.34 303.437 315.456 303.438C315.571 303.44 315.685 303.417 315.791 303.372C315.897 303.326 315.992 303.259 316.07 303.174C316.148 303.089 316.207 302.989 316.244 302.88C316.654 303.121 317.21 303.061 317.306 302.469C317.503 300.764 318.149 299.141 319.177 297.765C320.205 296.39 321.578 295.311 323.158 294.639C324.123 294.18 323.436 292.708 322.446 292.961C321.644 293.169 320.882 293.507 320.19 293.963C313.602 278.747 298.471 271.399 282.7 269.408C281.494 266.042 280.359 262.675 279.177 259.321C300.172 259.212 316.98 272.002 327.888 289.269V289.305ZM197.887 194.682C200.984 186.179 204.129 177.685 207.323 169.198C210.158 161.633 212.439 150.17 220.921 146.984C221.19 146.88 221.412 146.683 221.549 146.429C231.503 146.803 235.135 157.289 238.683 165.168C242.705 174.186 246.59 183.263 250.339 192.402C251.473 195.153 252.583 197.916 253.693 200.679C244.435 203.062 234.894 204.162 225.337 203.949C215.335 203.659 205.947 201.391 196.282 199.122C196.813 197.662 197.332 196.166 197.887 194.682ZM179.679 245.903C180.556 243.369 181.445 240.835 182.346 238.301C182.34 237.57 182.492 236.845 182.792 236.178C184.216 233.36 185.488 230.468 186.605 227.514C187.208 225.535 187.269 223.46 188.065 221.541C188.258 221.095 188.487 220.612 188.753 220.13C191.013 213.783 193.286 207.444 195.57 201.113C213.669 208.908 235.956 208.474 254.779 203.418C260.16 216.884 265.321 230.438 270.26 244.081C270.694 245.288 271.117 246.494 271.551 247.701C256.554 252.839 240.816 255.484 224.963 255.532C209.531 255.737 192.759 255.532 179.22 247.279C179.377 246.784 179.522 246.338 179.679 245.903ZM134.274 192.257C137.266 191.774 138.268 194.091 138.509 196.709C138.503 197.225 138.527 197.741 138.581 198.254C138.569 199.492 138.484 200.729 138.328 201.958C138.309 202.029 138.309 202.104 138.328 202.175C135.76 202.189 133.196 202.379 130.654 202.742C130.709 202.625 130.738 202.498 130.738 202.368C130.594 199.086 129.568 193.053 134.274 192.257ZM135.07 226.633C135.527 226.598 135.979 226.521 136.422 226.404C136.612 226.353 136.78 226.241 136.899 226.085C137.019 225.929 137.084 225.738 137.084 225.541C137.084 225.345 137.019 225.153 136.899 224.997C136.78 224.841 136.612 224.729 136.422 224.679H136.228L135.022 224.534C134.932 224.38 134.808 224.247 134.66 224.146C134.512 224.046 134.344 223.979 134.167 223.951C133.991 223.924 133.81 223.935 133.639 223.986C133.467 224.037 133.309 224.125 133.176 224.244C131.979 224.014 130.841 223.542 129.833 222.857C128.062 221.586 126.703 219.824 125.924 217.789C125.779 216.136 125.61 214.483 125.381 212.806C125.374 212.697 125.337 212.593 125.276 212.504C125.214 212.415 125.129 212.344 125.031 212.299C123.897 209.149 122.002 206.398 121.303 203.044C120.796 200.631 120.458 196.323 124.078 196.299C127.239 196.299 128.385 199.919 127.963 202.453C127.939 202.59 127.954 202.732 128.005 202.861C128.056 202.991 128.142 203.104 128.253 203.189C127.227 203.394 126.189 203.611 125.176 203.877C124.162 204.142 124.621 205.518 125.586 205.361C131.88 204.246 138.286 203.906 144.663 204.347C145.869 204.432 145.869 202.658 144.663 202.525C143.456 202.392 142.25 202.32 140.97 202.26C141.034 202.145 141.063 202.016 141.055 201.886C140.776 199.935 140.623 197.968 140.596 195.997C140.898 192.932 144.216 189.433 147.088 192.281C150.165 195.358 150.117 200.317 149.019 204.178C148.989 204.312 148.996 204.451 149.039 204.581C149.083 204.71 149.161 204.826 149.266 204.914C149.37 205.002 149.497 205.06 149.632 205.082C149.767 205.103 149.906 205.087 150.032 205.035C150.19 205.191 150.4 205.285 150.622 205.298C150.844 205.311 151.063 205.244 151.239 205.107C153.209 203.412 155.643 202.349 158.225 202.055C160.831 201.789 164.946 202.417 163.522 206.024C162.098 209.632 157.67 211.973 153.869 212.806C153.735 212.678 153.57 212.587 153.39 212.543C153.21 212.499 153.021 212.502 152.843 212.554C152.665 212.605 152.503 212.702 152.374 212.835C152.245 212.968 152.153 213.133 152.108 213.312C151.934 214.665 151.494 215.97 150.814 217.152C150.133 218.334 149.226 219.37 148.144 220.2C147.061 221.03 145.826 221.637 144.508 221.988C143.19 222.338 141.815 222.424 140.464 222.241C139.619 222.157 139.366 223.231 139.848 223.75C139.957 223.856 140.089 223.935 140.234 223.979C141.052 224.203 141.896 224.321 142.744 224.329C142.237 241.221 153.35 259.321 170.303 263.532H170.545C169.62 266.17 168.695 268.805 167.77 271.435C145.628 267.393 135.227 247.508 135.07 226.633ZM178.508 249.475C190.695 258.307 207.274 258.38 221.754 258.428C238.984 258.428 256.384 256.461 272.565 250.343C274.801 256.554 277.005 262.784 279.177 269.034H279.092C278.212 268.962 277.982 270.47 278.887 270.603L279.78 270.76C282.748 279.302 285.677 287.865 288.564 296.448C288.661 296.726 288.745 297.004 288.842 297.293C267.726 304.218 245.653 307.78 223.431 307.851C203.292 307.851 180.68 306.427 163.1 295.785C168.095 280.28 173.163 264.835 178.46 249.475H178.508ZM162.364 297.74C177.905 309.311 201.627 310.349 220.113 310.675C243.762 311.084 267.308 307.453 289.735 299.936C291.456 305.1 293.178 310.272 294.899 315.453C294.896 315.712 294.976 315.966 295.128 316.177L296.95 321.619C298.382 326.011 299.822 330.403 301.27 334.795C301.994 336.991 302.706 339.187 303.43 341.383C303.792 342.481 304.154 343.579 304.504 344.677C304.514 345.295 304.667 345.902 304.95 346.451C304.772 346.564 304.626 346.722 304.528 346.909L304.287 347.332C304.132 347.618 304.071 347.945 304.113 348.267C304.154 348.59 304.295 348.891 304.516 349.13C304.687 349.34 304.881 349.53 305.095 349.697C298.845 359.06 287.515 362.511 276.715 364.369C261.593 366.835 246.306 368.154 230.984 368.315C215.431 368.693 199.876 367.671 184.505 365.262C170.424 362.969 155.052 360.52 144.687 349.866C144.629 349.817 144.569 349.773 144.506 349.733C150.744 332.551 156.56 315.163 162.316 297.764L162.364 297.74ZM353.155 359.929L346.036 363.802C340.244 366.915 334.436 369.988 328.612 373.021C317.994 378.563 307.319 383.989 296.588 389.298C274.785 400.158 252.909 410.872 230.84 421.117C225.748 423.53 222.816 424.314 217.398 422.263C214.611 421.213 211.956 419.729 209.289 418.426C203.393 415.554 197.501 412.65 191.612 409.714C180.881 404.381 170.203 398.963 159.577 393.461C135.525 381.057 111.738 368.186 88.217 354.849C110.226 339.561 133.429 325.673 154.714 309.383C150.274 322.656 145.954 335.929 141.912 349.323C141.857 349.264 141.796 349.212 141.731 349.166C141.694 349.143 141.65 349.134 141.607 349.139C141.564 349.144 141.524 349.163 141.493 349.194C141.463 349.225 141.443 349.265 141.438 349.308C141.433 349.351 141.443 349.394 141.465 349.431C141.574 349.58 141.714 349.704 141.875 349.793C141.903 350.046 142.01 350.284 142.182 350.473C142.353 350.661 142.579 350.791 142.829 350.843C142.85 350.98 142.899 351.112 142.973 351.229C150.394 363.066 167.709 365.443 180.258 367.712C197.384 370.693 214.766 371.95 232.143 371.464C248.287 371.102 264.951 370.089 280.806 366.819C292.076 364.502 303.732 359.844 309.161 348.985C309.26 348.794 309.319 348.586 309.335 348.372C309.35 348.157 309.321 347.943 309.249 347.74C309.178 347.538 309.066 347.352 308.92 347.195C308.774 347.037 308.598 346.911 308.401 346.825C308.113 345.049 307.61 343.315 306.905 341.661C305.224 336.544 303.543 331.424 301.861 326.3C301.005 323.694 300.136 321.076 299.267 318.469C308.582 323.103 317.777 327.941 326.766 333.178C331.52 335.953 336.214 338.817 340.847 341.769C345.553 344.774 351.466 347.67 355.484 351.531C360.865 356.719 357.366 357.624 353.155 359.929Z" fill="black"/>
<path d="M338.603 300.795C338.844 301.76 337.396 302.448 336.95 301.495C335.345 298.249 333.028 296.005 329.251 295.788C329.058 295.764 328.881 295.67 328.752 295.525C328.624 295.379 328.553 295.192 328.553 294.997C328.553 294.803 328.624 294.615 328.752 294.47C328.881 294.324 329.058 294.231 329.251 294.207C333.185 294.086 337.637 296.825 338.603 300.795Z" fill="black"/>
<path d="M277.09 278.091C277.223 279.141 275.678 279.189 275.364 278.333C274.508 275.919 274.061 273.398 273.301 270.972C272.541 268.547 271.588 266.146 270.767 263.733C270.55 263.105 271.503 262.731 271.817 263.286C274.463 267.858 276.25 272.876 277.09 278.091Z" fill="black"/>
<path d="M271.551 281.25C271.614 281.367 271.651 281.496 271.661 281.628C271.671 281.761 271.654 281.894 271.609 282.019C271.565 282.144 271.495 282.258 271.404 282.355C271.313 282.451 271.203 282.528 271.08 282.579C270.958 282.631 270.826 282.656 270.694 282.654C270.561 282.651 270.43 282.621 270.31 282.565C270.189 282.51 270.082 282.429 269.994 282.329C269.907 282.23 269.841 282.113 269.801 281.986C268.475 278.613 267.56 275.093 267.074 271.501C267.002 270.885 267.919 270.837 268.088 271.356C269.049 274.719 270.205 278.022 271.551 281.25Z" fill="black"/>
<path d="M238.189 409.279C238.447 409.143 238.747 409.112 239.028 409.192C239.309 409.272 239.547 409.457 239.695 409.709C239.843 409.961 239.888 410.259 239.82 410.543C239.753 410.827 239.579 411.075 239.335 411.234C234.525 414.257 229.368 416.688 223.975 418.473C223.094 418.787 222.502 417.351 223.347 416.977C228.475 414.66 233.229 411.897 238.189 409.279Z" fill="black"/>
<path d="M235.158 406.242C236.425 405.602 237.571 407.448 236.28 408.16C233.3 409.813 230.151 411.237 227.086 412.746C226.133 413.216 225.3 411.841 226.241 411.298C229.258 409.596 232.13 407.835 235.158 406.242Z" fill="black"/>
<path d="M224.94 433.26L225.568 434.865C225.061 435.082 224.554 435.275 224.047 435.468C223.923 435.52 223.786 435.53 223.655 435.497C223.525 435.465 223.409 435.391 223.323 435.287C223.149 435.285 222.981 435.219 222.851 435.101C222.722 434.983 222.641 434.822 222.624 434.648C199.215 424.186 176.301 412.422 153.339 401.007C130.788 389.798 107.777 379.131 85.7686 366.993L86.6615 365.352C109.696 375.644 132.091 387.59 154.727 398.739C177.363 409.888 199.879 420.386 222.298 431.583C222.135 429.978 222.135 428.361 222.298 426.757H223.866C223.862 428.693 223.979 430.627 224.216 432.548L224.409 432.645C224.659 432.774 224.85 432.994 224.94 433.26Z" fill="black"/>
<path d="M209.748 180.209C210.484 179.147 212.161 180.112 211.51 181.235C209.603 184.249 208.01 187.452 206.756 190.791C206.681 190.913 206.568 191.006 206.435 191.058C206.302 191.109 206.156 191.115 206.019 191.076C205.882 191.036 205.762 190.952 205.677 190.838C205.592 190.723 205.547 190.584 205.549 190.441C206.225 186.776 207.655 183.292 209.748 180.209Z" fill="black"/>
<path d="M205.32 181.695C205.802 180.622 207.479 181.551 206.924 182.625C205.199 185.979 203.57 189.394 201.724 192.676C201.398 193.279 200.336 192.857 200.602 192.205C202.062 188.658 203.739 185.195 205.32 181.695Z" fill="black"/>
<path d="M166.659 351.754C167.757 352.068 167.576 353.962 166.381 353.805C162.001 353.226 156.439 351.078 153.217 347.989C152.795 347.591 153.217 346.783 153.808 346.964C155.932 347.796 157.874 349.015 160.022 349.835C162.17 350.656 164.438 351.114 166.659 351.754Z" fill="black"/>
<path d="M160.675 353.534C160.809 353.572 160.935 353.635 161.046 353.721C161.156 353.807 161.248 353.914 161.317 354.035C161.386 354.157 161.43 354.291 161.447 354.429C161.464 354.568 161.454 354.709 161.417 354.843C161.38 354.978 161.316 355.104 161.23 355.214C161.144 355.325 161.037 355.417 160.916 355.486C160.794 355.555 160.66 355.599 160.522 355.616C160.383 355.633 160.242 355.623 160.108 355.586C155.109 354.135 150.656 351.228 147.317 347.236C146.678 346.476 147.704 345.414 148.428 346.126C151.882 349.509 156.074 352.045 160.675 353.534Z" fill="black"/>
<path d="M270.284 244.077C265.329 230.458 260.169 216.904 254.803 203.414C235.98 208.47 213.718 208.904 195.594 201.109C193.229 207.625 190.888 214.153 188.572 220.693C187.172 224.313 185.833 227.933 184.505 231.552C183.83 233.423 182.406 235.872 182.466 237.984C181.533 240.614 180.608 243.253 179.691 245.899C179.534 246.334 179.389 246.78 179.232 247.226C192.771 255.516 209.543 255.673 224.975 255.48C240.828 255.432 256.566 252.787 271.563 247.649C271.117 246.454 270.694 245.26 270.284 244.077Z" fill="#F5F5F5"/>
<path d="M230.308 242.896C230.646 241.544 232.552 242.148 232.347 243.463C230.863 253.056 216.794 254.648 213.801 245.176C213.596 244.537 214.537 244.187 214.863 244.73C218.99 251.644 228.269 250.968 230.308 242.896Z" fill="black"/>
<path d="M254.502 224.285C255.455 228.4 254.02 232.514 249.857 234.131C246.888 235.338 242.919 234.626 241.917 231.247C241.888 231.162 241.878 231.07 241.888 230.98C241.899 230.89 241.93 230.804 241.979 230.727C242.027 230.65 242.093 230.586 242.17 230.538C242.247 230.49 242.334 230.461 242.424 230.451C242.585 230.419 242.752 230.447 242.894 230.529C243.036 230.611 243.144 230.742 243.196 230.897C244.608 234.759 249.688 233.311 251.727 231.296C253.766 229.281 253.742 226.3 252.934 223.682C252.125 221.063 250.291 218.783 247.275 218.855C243.981 218.855 241.953 221.908 242.014 224.949C242.019 225.016 242.01 225.083 241.987 225.146C241.964 225.209 241.928 225.266 241.881 225.314C241.834 225.362 241.778 225.4 241.715 225.424C241.653 225.449 241.586 225.459 241.519 225.456C241.378 225.459 241.24 225.409 241.135 225.315C241.03 225.22 240.964 225.09 240.952 224.949C240.831 224.071 240.89 223.178 241.125 222.324C241.36 221.47 241.766 220.673 242.319 219.981C242.873 219.289 243.561 218.716 244.342 218.299C245.123 217.881 245.982 217.627 246.864 217.552C251.088 217.178 253.633 220.508 254.502 224.285Z" fill="black"/>
<path d="M242.846 226.397C243.05 226.521 243.225 226.69 243.355 226.891C243.486 227.093 243.569 227.32 243.599 227.558C243.629 227.796 243.605 228.037 243.529 228.265C243.453 228.492 243.327 228.699 243.159 228.871C242.858 229.121 242.478 229.258 242.085 229.257C241.82 229.264 241.558 229.199 241.327 229.07C241.095 228.94 240.903 228.751 240.77 228.521C240.597 228.151 240.577 227.728 240.715 227.343C240.853 226.959 241.137 226.645 241.506 226.469C241.619 226.348 241.76 226.257 241.917 226.204H242.085C242.352 226.195 242.616 226.262 242.846 226.397Z" fill="black"/>
<path d="M195.246 225.628C194.292 229.754 195.728 233.869 199.891 235.486C202.859 236.632 206.829 235.968 207.831 232.602C207.86 232.516 207.87 232.425 207.859 232.335C207.849 232.245 207.818 232.158 207.769 232.082C207.72 232.005 207.655 231.94 207.578 231.893C207.501 231.845 207.414 231.815 207.324 231.805C207.164 231.77 206.997 231.795 206.855 231.875C206.712 231.955 206.604 232.085 206.552 232.24C205.128 236.101 200.06 234.653 198.021 232.65C195.982 230.647 196.006 227.655 196.814 225.036C197.623 222.418 199.469 220.137 202.473 220.21C205.779 220.21 207.806 223.251 207.746 226.303C207.743 226.37 207.753 226.436 207.777 226.498C207.8 226.56 207.836 226.617 207.883 226.665C207.929 226.712 207.985 226.75 208.047 226.775C208.108 226.8 208.174 226.812 208.241 226.81C208.382 226.814 208.519 226.763 208.625 226.669C208.73 226.575 208.796 226.444 208.808 226.303C208.929 225.426 208.87 224.533 208.635 223.679C208.4 222.824 207.994 222.027 207.44 221.335C206.887 220.643 206.199 220.071 205.418 219.653C204.636 219.236 203.778 218.982 202.895 218.907C198.648 218.569 196.114 221.863 195.246 225.628Z" fill="black"/>
<path d="M206.9 227.765C206.7 227.886 206.53 228.05 206.402 228.246C206.275 228.442 206.193 228.664 206.162 228.896C206.132 229.128 206.155 229.363 206.228 229.585C206.302 229.807 206.424 230.01 206.586 230.178C206.884 230.436 207.266 230.578 207.66 230.576C207.924 230.585 208.186 230.521 208.415 230.391C208.645 230.262 208.835 230.071 208.964 229.84C209.051 229.658 209.102 229.46 209.114 229.258C209.125 229.057 209.096 228.854 209.029 228.664C208.961 228.473 208.857 228.298 208.722 228.147C208.586 227.997 208.422 227.875 208.24 227.789C208.131 227.657 207.983 227.564 207.817 227.523H207.648C207.381 227.53 207.121 227.614 206.9 227.765Z" fill="black"/>
<path d="M341.704 307.25C341.02 306.136 339.963 305.3 338.722 304.892C337.48 304.483 336.134 304.528 334.923 305.018H334.645L333.656 304.824C332.449 304.619 331.339 304.306 330.193 304.04C327.921 303.487 325.615 303.084 323.291 302.834C320.395 302.532 317.909 305.524 317.909 308.227C317.909 311.389 320.322 313.307 323.291 313.609C328.346 314.14 335.055 317.844 339.773 314.61C340.979 313.866 341.852 312.687 342.211 311.316C342.571 309.946 342.389 308.49 341.704 307.25Z" fill="#CF752F"/>
</g>
<defs>
<clipPath id="clip0_6326_58022">
<rect width="460.543" height="468" fill="white"/>
</clipPath>
</defs>
</svg>
