<svg width="912" height="536" viewBox="0 0 912 536" fill="none" xmlns="http://www.w3.org/2000/svg">
<path opacity="0.13" d="M861.462 360.168C494.167 678.178 160.038 492.672 38.8862 360.168C0.141013 319.591 -43.5432 215.897 91.6815 125.738C450.301 -143.416 760.952 99.2202 808.92 125.738C856.889 152.255 979.303 241.693 861.462 360.168Z" fill="url(#paint0_radial_256_761)"/>
<path opacity="0.13" d="M679.765 340.703C389.938 591.639 126.283 445.259 30.6844 340.703C0.111271 308.684 -34.3591 226.861 72.3443 155.718C355.325 -56.6666 600.454 134.793 638.305 155.718C676.156 176.643 772.751 247.216 679.765 340.703Z" fill="url(#paint1_radial_256_761)"/>
<path opacity="0.13" d="M509.105 322.42C292.042 510.357 94.5792 400.727 22.9809 322.42C0.0833354 298.44 -25.7331 237.159 54.1818 183.877C266.118 24.8126 449.706 168.205 478.054 183.877C506.402 199.548 578.747 252.403 509.105 322.42Z" fill="url(#paint2_radial_256_761)"/>
<path opacity="0.13" d="M333.987 303.659C191.587 426.951 62.0466 355.031 15.0761 303.659C0.0546703 287.928 -16.8816 247.726 35.5447 212.771C174.581 108.421 295.02 202.49 313.617 212.771C332.214 223.052 379.674 257.727 333.987 303.659Z" fill="url(#paint3_radial_256_761)"/>
<path opacity="0.13" d="M171.514 286.253C98.3869 349.568 31.8631 312.634 7.7421 286.253C0.0280751 278.175 -8.66929 257.53 18.2535 239.579C89.6534 185.992 151.503 234.3 161.053 239.579C170.604 244.859 194.976 262.665 171.514 286.253Z" fill="url(#paint4_radial_256_761)"/>
<defs>
<radialGradient id="paint0_radial_256_761" cx="0" cy="0" r="1" gradientUnits="userSpaceOnUse" gradientTransform="translate(455.584 267.879) rotate(90) scale(267.879 455.584)">
<stop stop-color="white" stop-opacity="0"/>
<stop offset="1" stop-color="#34A853"/>
</radialGradient>
<radialGradient id="paint1_radial_256_761" cx="0" cy="0" r="1" gradientUnits="userSpaceOnUse" gradientTransform="translate(359.493 267.879) rotate(90) scale(211.379 359.493)">
<stop stop-color="white" stop-opacity="0"/>
<stop offset="1" stop-color="#34A853"/>
</radialGradient>
<radialGradient id="paint2_radial_256_761" cx="0" cy="0" r="1" gradientUnits="userSpaceOnUse" gradientTransform="translate(269.24 267.879) rotate(90) scale(158.311 269.24)">
<stop stop-color="white" stop-opacity="0"/>
<stop offset="1" stop-color="#34A853"/>
</radialGradient>
<radialGradient id="paint3_radial_256_761" cx="0" cy="0" r="1" gradientUnits="userSpaceOnUse" gradientTransform="translate(176.629 267.879) rotate(90) scale(103.856 176.629)">
<stop stop-color="white" stop-opacity="0"/>
<stop offset="1" stop-color="#34A853"/>
</radialGradient>
<radialGradient id="paint4_radial_256_761" cx="0" cy="0" r="1" gradientUnits="userSpaceOnUse" gradientTransform="translate(90.7052 267.879) rotate(90) scale(53.3338 90.7052)">
<stop stop-color="white" stop-opacity="0"/>
<stop offset="1" stop-color="#34A853"/>
</radialGradient>
</defs>
</svg>
