<svg width="75" height="75" viewBox="0 0 75 75" fill="none" xmlns="http://www.w3.org/2000/svg">
<g clip-path="url(#clip0_238_2039)">
<path d="M38.7238 71.5996C57.6974 71.5996 73.0785 56.1431 73.0785 37.0766C73.0785 18.0102 57.6974 2.55371 38.7238 2.55371C19.7503 2.55371 4.36914 18.0102 4.36914 37.0766C4.36914 56.1431 19.7503 71.5996 38.7238 71.5996Z" fill="#FDE67E"/>
<path d="M38.7242 2.55377C37.9942 2.55377 37.2695 2.57681 36.5508 2.62187C54.5118 3.74873 68.732 18.7437 68.732 37.0766C68.732 55.4094 54.5118 70.4047 36.5508 71.5314C37.2695 71.5764 37.9942 71.5995 38.7242 71.5995C57.6978 71.5995 73.0789 56.143 73.0789 37.0766C73.0789 18.0101 57.6978 2.55377 38.7242 2.55377Z" fill="#CFB337"/>
<path d="M20.14 7.22239C19.5516 7.10198 18.9777 7.48088 18.8573 8.06873C18.8022 8.33736 18.8516 8.60296 18.9774 8.82392C19.6697 8.33447 20.3807 7.87007 21.1092 7.43191C20.7873 7.35932 20.4645 7.2889 20.14 7.22239Z" fill="#3498AC"/>
<path d="M4.17576 32.5744C4.24212 32.8262 4.39165 33.034 4.58697 33.1761C4.6584 32.5377 4.74737 31.9047 4.853 31.2774C4.33166 31.4677 4.03158 32.0271 4.17576 32.5744Z" fill="#3498AC"/>
<path d="M18.3419 65.4022C18.3421 65.5016 18.3558 65.6026 18.3849 65.7028C18.3939 65.7337 18.4042 65.7639 18.4156 65.7933C18.4158 65.7943 18.416 65.7954 18.4162 65.7965C18.5172 66.3155 18.972 66.6758 19.4818 66.6758C19.5506 66.6758 19.6204 66.6693 19.6905 66.6555C19.9545 66.6042 20.1771 66.4612 20.3324 66.2661C20.3416 66.2633 20.3507 66.2604 20.3598 66.2577C19.6314 65.7937 18.9213 65.3032 18.2314 64.7871C18.2669 64.9923 18.3036 65.1972 18.3419 65.4022Z" fill="#3498AC"/>
<path d="M57.7589 66.6551C57.829 66.6688 57.8989 66.6754 57.9677 66.6754C58.4773 66.6754 58.9323 66.3151 59.0332 65.7961C59.0987 65.4596 59.1605 65.1229 59.219 64.7861C58.5331 65.2992 57.8274 65.7869 57.1035 66.2486C57.2593 66.4523 57.4873 66.6023 57.7589 66.6551Z" fill="#3498AC"/>
<path d="M58.5918 8.06873C58.4713 7.48074 57.897 7.10199 57.3091 7.22239C56.9848 7.2889 56.6618 7.35932 56.3398 7.43191C57.0684 7.87008 57.7794 8.33447 58.4717 8.82393C58.5975 8.60296 58.6469 8.33737 58.5918 8.06873Z" fill="#3498AC"/>
<path d="M66.9729 16.4468C67.1081 15.862 66.7436 15.2784 66.159 15.1432C65.8743 15.0775 65.59 15.1304 65.3574 15.2691C65.8595 15.8875 66.3407 16.5235 66.7997 17.1764C66.8587 16.9338 66.9165 16.6905 66.9729 16.4468Z" fill="#3498AC"/>
<path d="M38.7257 19.5716C40.5503 19.5716 42.0294 18.0852 42.0294 16.2516C42.0294 14.418 40.5503 12.9316 38.7257 12.9316C36.901 12.9316 35.4219 14.418 35.4219 16.2516C35.4219 18.0852 36.901 19.5716 38.7257 19.5716Z" fill="#5CDB6D"/>
<path d="M25.8672 34.1586C27.6919 34.1586 29.171 32.6722 29.171 30.8386C29.171 29.005 27.6919 27.5186 25.8672 27.5186C24.0426 27.5186 22.5635 29.005 22.5635 30.8386C22.5635 32.6722 24.0426 34.1586 25.8672 34.1586Z" fill="#5CDB6D"/>
<path d="M55.9151 42.6329C57.7397 42.6329 59.2189 41.1465 59.2189 39.3129C59.2189 37.4793 57.7397 35.9929 55.9151 35.9929C54.0905 35.9929 52.6113 37.4793 52.6113 39.3129C52.6113 41.1465 54.0905 42.6329 55.9151 42.6329Z" fill="#5CDB6D"/>
<path d="M19.4288 68.7195C17.607 68.7195 16.125 67.2302 16.125 65.3995C16.125 63.5687 17.607 62.0795 19.4288 62.0795C21.2506 62.0795 22.7327 63.5687 22.7327 65.3995C22.7327 67.2302 21.2506 68.7195 19.4288 68.7195Z" fill="#5CDB6D"/>
<path d="M58.212 68.9084C56.3902 68.9084 54.9082 67.419 54.9082 65.5884C54.9082 63.7578 56.3902 62.2684 58.212 62.2684C60.0338 62.2684 61.5159 63.7577 61.5159 65.5884C61.5159 67.419 60.0338 68.9084 58.212 68.9084Z" fill="#5CDB6D"/>
<path d="M65.9152 19.403C64.0935 19.403 62.6113 17.9138 62.6113 16.083C62.6113 14.2522 64.0935 12.763 65.9152 12.763C67.737 12.763 69.219 14.2524 69.219 16.083C69.219 17.9136 67.737 19.403 65.9152 19.403Z" fill="#5CDB6D"/>
<path d="M57.5284 11.6069C55.7066 11.6069 54.2246 10.1177 54.2246 8.28692C54.2246 6.45616 55.7066 4.96692 57.5284 4.96692C59.3502 4.96692 60.8323 6.45616 60.8323 8.28692C60.8323 10.1177 59.35 11.6069 57.5284 11.6069Z" fill="#5CDB6D"/>
<path d="M19.4288 11.6069C17.607 11.6069 16.125 10.1177 16.125 8.28692C16.125 6.45616 17.607 4.96692 19.4288 4.96692C21.2506 4.96692 22.7327 6.45616 22.7327 8.28692C22.7327 10.1177 21.2506 11.6069 19.4288 11.6069Z" fill="#5CDB6D"/>
<path d="M4.37018 35.8691C6.1948 35.8691 7.67395 34.3827 7.67395 32.5491C7.67395 30.7155 6.1948 29.2291 4.37018 29.2291C2.54556 29.2291 1.06641 30.7155 1.06641 32.5491C1.06641 34.3827 2.54556 35.8691 4.37018 35.8691Z" fill="#5CDB6D"/>
<path d="M71.2816 51.1651C71.3033 51.1209 71.3226 51.0757 71.3379 51.0294C75.7313 40.8894 74.9463 28.4582 69.2401 18.9568C72.2864 15.3151 68.3295 10.1 64.0023 12.1178C63.2419 11.3408 62.4435 10.596 61.6161 9.89179C63.2401 5.4771 57.8201 1.85557 54.4446 5.15398C44.6336 0.199839 32.4309 0.26258 22.674 5.32162C19.2032 1.64344 13.3742 5.58722 15.4756 10.2022C14.2721 11.2545 13.1329 12.3914 12.0826 13.5936C11.1757 14.6316 12.8186 16.0544 13.7193 15.0236C14.6965 13.9053 15.7552 12.8474 16.8735 11.867C19.0361 13.4268 22.1718 12.6322 23.3582 10.2513C27.2735 11.3783 31.0124 12.9958 34.4964 15.0717C34.2047 16.1235 34.3238 17.2982 34.8243 18.2691C31.9568 20.7461 29.3744 23.5481 27.132 26.6189C25.0619 25.9934 22.7801 27.0404 21.8798 29.0008C17.3146 29.0253 12.7352 29.5164 8.23905 30.4667C7.84203 29.7269 7.24014 29.1138 6.51044 28.7032C7.35518 25.409 8.69315 22.2753 10.4954 19.3778C11.2135 18.223 9.40083 17.0226 8.64983 18.2298C6.73372 21.3103 5.31056 24.6416 4.41046 28.1435C-0.795652 28.2319 -1.66966 35.4341 3.2865 36.8196C3.21348 47.0698 7.64526 57.0355 15.3303 63.8241C13.7271 68.1546 18.9316 71.7266 22.3663 68.6722C32.3899 74.0022 45.058 74.0029 55.0822 68.6739C58.5755 72.1288 64.1705 68.2691 62.2028 63.7525C66.1635 60.2326 69.2404 55.9273 71.2816 51.1651ZM69.9123 48.7346C66.9041 45.746 63.6121 43.0349 60.0973 40.655C60.5965 39.0914 60.1627 37.3322 58.997 36.178C61.9526 31.2638 64.2728 25.9945 65.9061 20.4901C66.4503 20.492 66.9735 20.3915 67.4556 20.2098C72.4601 28.6621 73.3755 39.5597 69.9123 48.7346ZM19.9049 61.0195C18.9903 52.0613 20.5952 43.1243 24.5672 35.0479C27.0348 35.8179 29.7019 34.1952 30.1811 31.6623C37.6744 32.586 44.8912 34.7859 51.6639 38.212C51.3382 39.4781 51.6079 40.8742 52.3838 41.9274C44.7497 51.5991 34.6726 58.8768 23.1394 63.0479C22.4406 61.9413 21.2653 61.1672 19.9049 61.0195ZM53.6986 39.3132C53.6986 38.0817 54.6931 37.0799 55.9156 37.0799C58.8567 37.2024 58.8559 41.4245 55.9156 41.5465C54.6931 41.5465 53.6986 40.5447 53.6986 39.3132ZM68.1327 16.0835C68.1327 17.315 67.1381 18.3168 65.9156 18.3168C62.9744 18.1943 62.9751 13.9722 65.9156 13.8502C67.1381 13.8502 68.1327 14.852 68.1327 16.0835ZM62.3416 13.5287C60.8396 15.6391 61.5367 18.6899 63.8012 19.9442C62.219 25.2538 59.976 30.3365 57.1226 35.0773C56.5261 34.9058 55.8639 34.8632 55.2506 34.9571C52.268 28.5882 47.9282 22.8516 42.6268 18.2694C43.1277 17.2979 43.2471 16.1252 42.955 15.072C46.3106 13.0727 49.9051 11.4971 53.6638 10.377C54.9131 12.789 58.2644 13.47 60.345 11.6644C61.0345 12.2577 61.7021 12.8809 62.3416 13.5287ZM36.5085 16.2517C36.5085 15.0202 37.5031 14.0184 38.7256 14.0184C41.6668 14.1409 41.666 18.3628 38.7256 18.4848C37.5031 18.4848 36.5085 17.483 36.5085 16.2517ZM57.5283 6.05407C58.751 6.05407 59.7455 7.05589 59.7455 8.28736C59.6235 11.25 55.4328 11.2493 55.3113 8.28736C55.3113 7.05589 56.3058 6.05407 57.5283 6.05407ZM19.4294 10.5205C18.2069 10.5205 17.2123 9.51868 17.2123 8.28721C17.3343 5.32438 21.525 5.32539 21.6466 8.28721C21.6466 9.51868 20.6519 10.5205 19.4294 10.5205ZM23.8158 8.12058C23.8045 7.81891 23.7631 7.5252 23.6941 7.24179C32.7911 2.53745 44.1557 2.45544 53.3229 7.02299C53.2051 7.41697 53.1406 7.83354 53.1384 8.2649C49.1848 9.4345 45.4043 11.0866 41.8749 13.1857C40.1785 11.4309 37.2735 11.4303 35.5764 13.1856C31.8985 10.9979 27.9506 9.29743 23.8158 8.12058ZM36.2631 19.898C37.7326 20.901 39.7181 20.9011 41.1878 19.8982C46.2493 24.2684 50.3957 29.7389 53.2517 35.8137C53.0581 35.9625 52.8773 36.1272 52.711 36.3056C45.5706 32.6839 37.9508 30.3812 30.036 29.4548C29.8223 28.808 29.4636 28.2272 28.9979 27.7518C31.122 24.8662 33.5598 22.2307 36.2631 19.898ZM25.8685 28.6055C27.091 28.6055 28.0856 29.6074 28.0856 30.8388C27.9636 33.8017 23.7729 33.8008 23.6513 30.8388C23.6515 29.6074 24.6461 28.6055 25.8685 28.6055ZM2.15371 32.5493C2.15371 31.3179 3.14827 30.316 4.37076 30.316C7.31186 30.4385 7.31099 34.6605 4.37076 34.7825C3.14842 34.7826 2.15371 33.7808 2.15371 32.5493ZM5.4598 36.8187C5.4598 36.8187 8.76067 36.0988 8.76067 32.578C8.76067 32.578 17.2307 31.2241 21.4923 31.1766C21.5722 32.2294 22.0218 33.1795 22.7114 33.8964C18.4764 42.4165 16.7682 51.8625 17.7515 61.3283C17.3281 61.5048 16.9383 61.746 16.5938 62.0393C9.50385 55.6879 5.4598 45.0462 5.4598 36.8187ZM19.4294 67.633C18.2069 67.633 17.2123 66.6312 17.2123 65.3997C17.2123 64.1682 18.2069 63.1664 19.4294 63.1664C20.6355 63.1664 21.6466 64.2111 21.6466 65.3997C21.6466 66.6312 20.6519 67.633 19.4294 67.633ZM38.7256 70.5131C33.4512 70.5131 28.2356 69.2499 23.574 66.8517C23.7632 66.3094 23.8467 65.6915 23.8099 65.116C35.7403 60.8156 46.1657 53.3003 54.0634 43.3073C54.7123 43.6116 55.4323 43.7512 56.1476 43.7137C56.6304 45.5056 57.0119 47.3338 57.2823 49.1618C57.4893 50.5612 59.64 50.2485 59.4324 48.8439C59.1454 46.9029 58.7389 44.9616 58.223 43.0602C58.4828 42.8985 58.7242 42.71 58.9441 42.4992C62.5706 44.9611 65.9516 47.7873 69.0145 50.9152C67.1149 55.1144 64.3502 58.9166 60.8375 62.0584C60.4901 61.7976 60.1028 61.5878 59.6871 61.4386C59.9007 59.4183 59.9937 57.3784 59.9624 55.3609C59.9404 53.9412 57.7671 53.9745 57.7893 55.3945C57.8194 57.3338 57.7296 59.2947 57.5233 61.2367C54.9602 61.6443 53.2839 64.302 53.9901 66.7928C49.2992 69.229 44.0431 70.5131 38.7256 70.5131ZM58.2127 67.8219C56.9902 67.8219 55.9956 66.8201 55.9956 65.5887C56.1176 62.6258 60.3083 62.6268 60.4299 65.5887C60.4299 66.8201 59.4353 67.8219 58.2127 67.8219Z" fill="black"/>
</g>
<defs>
<clipPath id="clip0_238_2039">
<rect width="74.1527" height="74.1527" fill="white"/>
</clipPath>
</defs>
</svg>
