<svg width="74" height="74" viewBox="0 0 74 74" fill="none" xmlns="http://www.w3.org/2000/svg">
<path fill-rule="evenodd" clip-rule="evenodd" d="M14.3573 28.7565C9.98973 28.7565 6.44922 32.297 6.44922 36.6645C6.44922 41.0321 9.98973 44.5726 14.3573 44.5726H14.3786C18.7363 44.5611 22.2653 41.0249 22.2653 36.6645C22.2653 32.2971 18.7248 28.7565 14.3573 28.7565Z" fill="white"/>
<path fill-rule="evenodd" clip-rule="evenodd" d="M45.7136 11.2015V18.9876C45.7136 21.1931 43.908 22.9999 41.7014 22.9999H35.9772L30.1185 28.2226V22.9999H23.3199C21.1131 22.9999 19.3076 21.1944 19.3076 18.9876V11.2015C19.3076 8.99469 21.115 7.18921 23.3199 7.18921H41.7014C43.9061 7.18921 45.7136 8.99469 45.7136 11.2015Z" fill="#5CDB6D"/>
<path fill-rule="evenodd" clip-rule="evenodd" d="M45.7133 11.2015V18.9876C45.7133 20.4607 44.9078 21.7556 43.7154 22.4533L43.5219 22.281H37.6386C32.2579 22.281 27.875 17.8979 27.875 12.5174V7.18921H41.701C43.9058 7.18921 45.7133 8.99469 45.7133 11.2015Z" fill="#5CDB6D"/>
<path fill-rule="evenodd" clip-rule="evenodd" d="M37.6382 16.5296H45.7129L51.5717 21.7524V16.5296H58.3703C60.5771 16.5296 62.3826 14.7241 62.3826 12.5173V5.45013C62.3826 3.24335 60.5754 1.43787 58.3703 1.43787H37.6382C35.4332 1.43787 33.626 3.24507 33.626 5.45013V7.18918V12.5172C33.626 14.7231 35.4315 16.5296 37.6382 16.5296Z" fill="white"/>
<path fill-rule="evenodd" clip-rule="evenodd" d="M1.43848 64.7024V71.8915H71.8921V64.7024C48.4075 64.7024 24.923 64.7024 1.43848 64.7024Z" fill="#FDE0BE"/>
<path fill-rule="evenodd" clip-rule="evenodd" d="M40.6328 60.3889C40.6328 62.7712 42.5641 64.7024 44.9463 64.7024H69.7348V55.5017C69.7348 49.4979 64.8937 44.5845 58.9723 44.5728C58.9653 44.5728 58.9581 44.5728 58.951 44.5728C53.02 44.5728 48.1673 49.4908 48.1673 55.5017V56.0752H44.9463C42.564 56.0752 40.6328 58.0065 40.6328 60.3889Z" fill="#FDE67E"/>
<path fill-rule="evenodd" clip-rule="evenodd" d="M51.0645 36.6645C51.0645 41.0249 54.5935 44.5611 58.9512 44.5726H58.9725C63.3401 44.5726 66.8806 41.0319 66.8806 36.6645C66.8806 32.297 63.3401 28.7565 58.9725 28.7565C54.605 28.7565 51.0645 32.2971 51.0645 36.6645Z" fill="white"/>
<path fill-rule="evenodd" clip-rule="evenodd" d="M28.8319 40.4816L24.7823 47.4958H14.3574V56.0753H26.9417C28.6026 56.0753 30.1097 55.5226 31.0191 53.9473L36.3032 44.7951C37.4942 42.732 36.7874 40.0938 34.7243 38.9027C32.6613 37.7116 30.0231 38.4186 28.8319 40.4816Z" fill="#FDCB50"/>
<path fill-rule="evenodd" clip-rule="evenodd" d="M26.6218 44.3095L24.7823 47.4957H14.3574V56.0753H26.9417C28.6026 56.0753 30.1097 55.5226 31.0191 53.9473L32.582 51.2401C31.8158 50.8877 30.9983 50.6283 30.1432 50.4774C29.4292 48.2066 28.2338 46.1015 26.6218 44.3095Z" fill="#FD8F01"/>
<path fill-rule="evenodd" clip-rule="evenodd" d="M28.3833 64.7024C30.7655 64.7024 32.6968 62.7711 32.6968 60.3889C32.6968 58.0067 30.7655 56.0754 28.3833 56.0754H26.9415H25.1622V55.5018C25.1622 52.3482 23.8264 49.4954 21.7002 47.4959C19.7735 45.6841 17.1979 44.5728 14.3784 44.5728C14.3714 44.5728 14.3642 44.5728 14.3572 44.5728C8.43575 44.5845 3.59473 49.4979 3.59473 55.5017V64.7024H28.3833Z" fill="#E3CD6A"/>
<path d="M71.8915 63.2645H71.1727V55.5017C71.1727 50.6076 68.3486 46.3685 64.2629 44.3651C66.7107 42.6781 68.3182 39.8557 68.3182 36.6646C68.3182 31.5112 64.1256 27.3187 58.9723 27.3187C53.819 27.3187 49.6265 31.5112 49.6265 36.6646C49.6265 39.8479 51.2263 42.6646 53.6641 44.3529C49.8078 46.2329 47.0699 50.1025 46.7591 54.6374H44.9461C41.7748 54.6374 39.1948 57.2175 39.1948 60.3887C39.1948 61.4356 39.476 62.4179 39.9668 63.2644H33.3621C33.8531 62.4178 34.1343 61.4353 34.1343 60.3887C34.1343 58.4019 33.1217 56.6474 31.5855 55.6137C31.8373 55.3287 32.0639 55.0127 32.2639 54.6663L37.5479 45.5141C39.1335 42.7677 38.1892 39.2433 35.4428 37.6577C32.6962 36.072 29.1718 37.0164 27.5863 39.7628L23.9518 46.058H22.2609C21.4744 45.3848 20.6029 44.8101 19.6653 44.3531C22.1032 42.6648 23.7029 39.8481 23.7029 36.6647C23.7029 31.5114 19.5103 27.3188 14.357 27.3188C9.20369 27.3188 5.01112 31.5114 5.01112 36.6647C5.01112 39.8557 6.61862 42.6783 9.06638 44.3653C4.98078 46.3686 2.15674 50.6078 2.15674 55.5017V63.2645H1.43783C0.643716 63.2645 0 63.9083 0 64.7024V71.8915C0 72.6856 0.643716 73.3293 1.43783 73.3293H71.8915C72.6854 73.3293 73.3293 72.6856 73.3293 71.8915V64.7024C73.3293 63.9083 72.6854 63.2645 71.8915 63.2645ZM58.9723 30.1945C62.54 30.1945 65.4425 33.097 65.4425 36.6647C65.4425 40.2324 62.54 43.1349 58.9723 43.1349C55.4047 43.1349 52.5022 40.2324 52.5022 36.6647C52.5022 33.097 55.4047 30.1945 58.9723 30.1945ZM42.0704 60.3889C42.0704 58.8032 43.3605 57.5132 44.9461 57.5132H53.7643C54.2779 57.5132 54.7527 57.2392 55.0095 56.7943L57.2357 52.9383C57.6328 52.2506 57.3971 51.3712 56.7094 50.9743C56.0216 50.5771 55.1423 50.8128 54.7453 51.5005L52.9343 54.6376H49.6436C50.075 49.8076 54.0847 46.0106 58.9511 46.0106C64.1045 46.0106 68.297 50.2683 68.297 55.5017V63.2645H61.1691C61.2314 63.1679 61.2929 63.0683 61.3535 62.9655L64.5124 57.6078C64.9157 56.9237 64.6882 56.0423 64.0041 55.639C63.3198 55.2356 62.4386 55.4635 62.0353 56.1473L58.8764 61.5048C57.9464 63.0818 56.9229 63.2644 56.2341 63.2645H44.946C43.3603 63.2644 42.0704 61.9742 42.0704 60.3889ZM26.0272 48.2146L30.0768 41.2005C30.4608 40.5353 31.081 40.0594 31.823 39.8607C32.565 39.6619 33.34 39.7639 34.0051 40.148C35.3782 40.9408 35.8504 42.7031 35.0577 44.0763L29.7737 53.2285C29.4291 53.8255 28.7661 54.6212 26.996 54.6373C26.9916 54.6373 26.9873 54.6374 26.983 54.6376H26.5705C26.4276 52.5527 25.7717 50.6086 24.7301 48.9337H24.7823C25.2956 48.9335 25.7704 48.6595 26.0272 48.2146ZM14.3572 30.1945C17.9248 30.1945 20.8274 33.097 20.8274 36.6647C20.8274 40.2324 17.9248 43.1349 14.3572 43.1349C10.7895 43.1349 7.88692 40.2324 7.88692 36.6647C7.88692 33.097 10.7895 30.1945 14.3572 30.1945ZM5.0324 55.5017C5.0324 50.2683 9.22497 46.0106 14.3783 46.0106C19.2448 46.0106 23.2544 49.8076 23.6856 54.6376H20.395L18.5838 51.5005C18.1867 50.8128 17.3073 50.5771 16.6197 50.9743C15.932 51.3712 15.6963 52.2506 16.0935 52.9383L18.3198 56.7943C18.5766 57.2392 19.0512 57.5132 19.565 57.5132H28.3832C29.9688 57.5132 31.2588 58.8032 31.2588 60.3889C31.2588 61.9734 29.9698 63.2634 28.3855 63.2645H17.0833C17.0808 63.2645 17.0782 63.2644 17.0758 63.2644C16.3928 63.2602 15.378 63.0733 14.4532 61.5049L11.2943 56.1473C10.8908 55.4633 10.0092 55.2357 9.32547 55.639C8.6415 56.0423 8.41389 56.9239 8.8172 57.6078L11.9761 62.9655C12.0368 63.0683 12.0982 63.1679 12.1604 63.2645H5.0324V55.5017ZM70.4536 70.4537H2.87566V66.1402H70.4536V70.4537Z" fill="#1E1E1E"/>
<path d="M23.3194 24.4377H28.6802V28.2226C28.6802 28.7891 29.0129 29.303 29.5299 29.5347C29.7186 29.6192 29.9189 29.6605 30.1177 29.6605C30.4641 29.6605 30.8062 29.5354 31.0747 29.2958L36.5244 24.4375H41.7007C44.4657 24.4375 46.7561 22.3679 47.1047 19.6965L50.6148 22.8255C50.8834 23.065 51.2255 23.1899 51.5719 23.1899C51.7707 23.1899 51.971 23.1487 52.1596 23.0641C52.6767 22.8324 53.0094 22.3186 53.0094 21.7521V17.9672H58.3702C61.3754 17.9672 63.8203 15.5223 63.8203 12.5171V5.45015C63.8206 2.44495 61.3757 6.10352e-05 58.3705 6.10352e-05H37.6384C34.6332 6.10352e-05 32.1883 2.44495 32.1883 5.45015V5.75138H23.3192C20.314 5.75138 17.8691 8.19626 17.8691 11.2015V18.9876C17.8693 21.9928 20.3142 24.4377 23.3194 24.4377ZM35.064 5.45015C35.064 4.03058 36.2189 2.87572 37.6384 2.87572H58.3703C59.7899 2.87572 60.9448 4.03058 60.9448 5.45015V12.5174C60.9448 13.9369 59.7899 15.0918 58.3703 15.0918H51.5717C50.7777 15.0918 50.1339 15.7355 50.1339 16.5296V18.5445L46.6697 15.4563C46.4063 15.2215 46.0658 15.0918 45.713 15.0918H37.6384C36.2189 15.0918 35.064 13.9369 35.064 12.5174V5.45015ZM20.7449 11.2015C20.7449 9.7819 21.8998 8.62704 23.3194 8.62704H32.1885V12.5174C32.1885 15.5226 34.6334 17.9675 37.6386 17.9675H44.2753V18.9876C44.2753 20.4072 43.1204 21.562 41.701 21.562H35.9767C35.6239 21.562 35.2833 21.6917 35.02 21.9267L31.556 25.0147V22.9999C31.556 22.2058 30.9123 21.562 30.1181 21.562H23.3195C21.9 21.562 20.7451 20.4072 20.7451 18.9876L20.7449 11.2015Z" fill="#1E1E1E"/>
<path d="M54.4761 10.4216H54.4749C53.681 10.4216 53.0371 9.77784 53.0371 8.98373C53.0371 8.18961 53.681 7.5459 54.4749 7.5459C55.2689 7.5459 55.9133 8.18961 55.9133 8.98373C55.9133 9.77784 55.2701 10.4216 54.4761 10.4216Z" fill="#6864F7"/>
<path d="M48.0062 10.4216H48.0052C47.2112 10.4216 46.5674 9.77784 46.5674 8.98373C46.5674 8.18961 47.2112 7.5459 48.0052 7.5459C48.7992 7.5459 49.4436 8.18961 49.4436 8.98373C49.4436 9.77784 48.8002 10.4216 48.0062 10.4216Z" fill="#6864F7"/>
<path d="M41.5336 10.4216H41.5326C40.7386 10.4216 40.0947 9.77784 40.0947 8.98373C40.0947 8.18961 40.7386 7.5459 41.5326 7.5459C42.3265 7.5459 42.9708 8.18961 42.9708 8.98373C42.9708 9.77784 42.3275 10.4216 41.5336 10.4216Z" fill="#6864F7"/>
</svg>
