<svg width="82" height="71" viewBox="0 0 82 71" fill="none" xmlns="http://www.w3.org/2000/svg">
<path d="M59.514 60.8662H74.3925C77.3806 60.8662 79.8029 58.4439 79.8029 55.4558V6.76248C79.8029 3.77442 77.3806 1.35211 74.3925 1.35211H6.76291C3.77484 1.35211 1.35254 3.77442 1.35254 6.76248V55.4558C1.35254 58.4439 3.77484 60.8662 6.76291 60.8662H48.6933" fill="white"/>
<path d="M74.3927 1.35229H70.335C73.323 1.35229 75.7453 3.7746 75.7453 6.76266V55.456C75.7453 58.444 73.323 60.8663 70.335 60.8663H74.3927C77.3808 60.8663 79.8031 58.444 79.8031 55.456V6.76266C79.8031 3.7746 77.3808 1.35229 74.3927 1.35229Z" fill="#BFBFBF"/>
<path d="M51.3991 50.0456H14.8791C11.8911 50.0456 9.46875 47.6233 9.46875 44.6352V17.5834C9.46875 14.5953 11.8911 12.173 14.8791 12.173H51.3991V50.0456Z" fill="#F5F5F5"/>
<path d="M47.3398 12.173H51.3976V50.0456H47.3398V12.173Z" fill="#CFD8DC"/>
<path d="M73.8374 24.4005C74.1955 24.7811 74.394 25.2846 74.3919 25.8072C74.3941 26.6158 73.9234 27.3509 73.1881 27.6873C72.45 28.0297 71.9758 28.7673 71.9708 29.5809C71.9685 29.8265 72.0144 30.07 72.106 30.2978C72.1953 30.5263 72.2411 30.7694 72.2413 31.0147C72.2356 32.1292 71.3531 33.0414 70.2395 33.0842C69.1582 33.1238 68.2908 33.9912 68.2511 35.0725C68.2392 35.6055 68.0153 36.1117 67.629 36.4792C67.2437 36.8603 66.7236 37.0742 66.1817 37.0743C65.9364 37.0741 65.6933 37.0283 65.4648 36.939C65.237 36.8474 64.9934 36.8015 64.7479 36.8038C63.9343 36.8089 63.1967 37.283 62.8543 38.0211C62.5179 38.7564 61.7828 39.2271 60.9742 39.2249C60.4516 39.227 59.9481 39.0285 59.5675 38.6704C58.7961 37.9467 57.6006 37.9292 56.8082 38.6298C56.7947 38.6433 56.7676 38.6568 56.7541 38.6704C56.3735 39.0285 55.87 39.227 55.3474 39.2249C54.5389 39.2271 53.8037 38.7564 53.4673 38.0211C53.1249 37.283 52.3873 36.8089 51.5737 36.8038C51.3282 36.8015 51.0846 36.8474 50.8568 36.939C50.6283 37.0283 50.3852 37.0741 50.1399 37.0743C49.598 37.0742 49.0779 36.8603 48.6927 36.4792C48.3063 36.1117 48.0824 35.6055 48.0705 35.0725C48.0308 33.9912 47.1634 33.1238 46.0822 33.0842C44.9685 33.0414 44.086 32.1292 44.0803 31.0147C44.0805 30.7694 44.1264 30.5263 44.2156 30.2978C44.3072 30.07 44.3531 29.8265 44.3508 29.5809C44.3458 28.7673 43.8716 28.0297 43.1335 27.6873C42.3982 27.3509 41.9275 26.6158 41.9297 25.8072C41.9277 25.2846 42.1261 24.7811 42.4843 24.4005C43.2237 23.6085 43.2237 22.3792 42.4843 21.5871C42.1261 21.2065 41.9277 20.703 41.9297 20.1804C41.9275 19.3719 42.3982 18.6367 43.1335 18.3003C43.8716 17.9579 44.3458 17.2203 44.3508 16.4067C44.3531 16.1612 44.3072 15.9176 44.2156 15.6898C44.1264 15.4613 44.0805 15.2182 44.0803 14.9729C44.086 13.8585 44.9685 12.9462 46.0822 12.9035C47.1634 12.8638 48.0308 11.9964 48.0705 10.9152C48.1132 9.80149 49.0255 8.91903 50.1399 8.91333C50.3852 8.91351 50.6283 8.95938 50.8568 9.04859C51.0846 9.14019 51.3282 9.18614 51.5737 9.18385C52.3873 9.17877 53.1249 8.7046 53.4673 7.96652C53.8037 7.23124 54.5389 6.76052 55.3474 6.76271C55.87 6.76066 56.3735 6.95915 56.7541 7.31727C57.5462 8.05671 58.7755 8.05671 59.5675 7.31727C60.0534 6.86621 60.726 6.67528 61.3765 6.80376C62.0269 6.93224 62.5764 7.36458 62.8543 7.96652C63.1967 8.7046 63.9343 9.17877 64.7479 9.18385C64.9934 9.18614 65.237 9.14019 65.4648 9.04859C65.6933 8.95938 65.9364 8.91351 66.1817 8.91333C67.2962 8.91903 68.2084 9.80149 68.2511 10.9152C68.2908 11.9964 69.1582 12.8638 70.2395 12.9035C71.3531 12.9462 72.2356 13.8585 72.2413 14.9729C72.2411 15.2182 72.1953 15.4613 72.106 15.6898C72.0144 15.9176 71.9685 16.1612 71.9708 16.4067C71.9758 17.2203 72.45 17.9579 73.1881 18.3003C73.9234 18.6367 74.3941 19.3719 74.3919 20.1804C74.394 20.703 74.1955 21.2065 73.8374 21.5871C73.0979 22.3792 73.0979 23.6085 73.8374 24.4005Z" fill="#5CDB6D"/>
<path d="M73.2845 22.9942C73.2887 22.4728 73.4864 21.9715 73.8391 21.5875C74.1972 21.2069 74.3957 20.7034 74.3937 20.1808C74.3958 19.3723 73.9251 18.6371 73.1898 18.3007C72.4518 17.9583 71.9776 17.2207 71.9725 16.4071C71.9702 16.1616 72.0162 15.918 72.1078 15.6902C72.197 15.4617 72.2429 15.2186 72.243 14.9733C72.2373 13.8589 71.3549 12.9466 70.2412 12.9039C69.1599 12.8642 68.2925 11.9968 68.2529 10.9156C68.2102 9.80188 67.2979 8.91942 66.1834 8.91372C65.9381 8.9139 65.695 8.95977 65.4665 9.04898C65.2388 9.14058 64.9952 9.18653 64.7497 9.18424C63.9361 9.17917 63.1984 8.70499 62.856 7.96691C62.5781 7.36497 62.0286 6.93263 61.3782 6.80415C60.7278 6.67567 60.0552 6.8666 59.5692 7.31766C59.3135 7.53894 59.0082 7.6953 58.6792 7.77349C58.7225 7.83566 58.7623 7.90023 58.7983 7.96691C59.1407 8.70499 59.8783 9.17917 60.6919 9.18424C60.9374 9.18653 61.181 9.14058 61.4088 9.04898C61.6373 8.95977 61.8804 8.9139 62.1256 8.91372C63.2401 8.91942 64.1524 9.80188 64.1951 10.9156C64.2348 11.9968 65.1022 12.8642 66.1834 12.9039C67.2971 12.9466 68.1796 13.8589 68.1853 14.9733C68.1851 15.2186 68.1392 15.4617 68.05 15.6902C67.9584 15.918 67.9124 16.1616 67.9147 16.4071C67.9198 17.2207 68.394 17.9583 69.1321 18.3007C69.8673 18.6371 70.3381 19.3723 70.3359 20.1808C70.3379 20.7034 70.1394 21.2069 69.7813 21.5875C69.0419 22.3796 69.0419 23.6089 69.7813 24.4009C70.1394 24.7815 70.3379 25.285 70.3359 25.8076C70.3381 26.6162 69.8673 27.3513 69.1321 27.6877C68.394 28.0301 67.9198 28.7677 67.9147 29.5813C67.9124 29.8268 67.9584 30.0704 68.05 30.2982C68.1392 30.5267 68.1851 30.7698 68.1853 31.0151C68.1796 32.1296 67.2971 33.0418 66.1834 33.0845C65.1022 33.1242 64.2348 33.9916 64.1951 35.0729C64.1832 35.6059 63.9592 36.1121 63.5729 36.4796C63.1876 36.8607 62.6676 37.0746 62.1256 37.0747C61.8804 37.0745 61.6373 37.0286 61.4088 36.9394C61.181 36.8478 60.9374 36.8019 60.6919 36.8042C59.8783 36.8093 59.1407 37.2834 58.7983 38.0215C58.7604 38.0878 58.7189 38.1519 58.6738 38.2136C59.005 38.291 59.3123 38.4479 59.5692 38.6708C59.9499 39.0289 60.4533 39.2274 60.9759 39.2253C61.7845 39.2275 62.5197 38.7568 62.856 38.0215C63.1984 37.2834 63.9361 36.8093 64.7497 36.8042C64.9952 36.8019 65.2388 36.8478 65.4665 36.9394C65.695 37.0286 65.9381 37.0745 66.1834 37.0747C66.7254 37.0746 67.2454 36.8607 67.6307 36.4796C68.017 36.1121 68.2409 35.6059 68.2529 35.0729C68.2925 33.9916 69.1599 33.1242 70.2412 33.0845C71.3549 33.0418 72.2373 32.1296 72.243 31.0151C72.2429 30.7698 72.197 30.5267 72.1078 30.2982C72.0162 30.0704 71.9702 29.8268 71.9725 29.5813C71.9776 28.7677 72.4518 28.0301 73.1898 27.6877C73.9251 27.3513 74.3958 26.6162 74.3937 25.8076C74.3957 25.285 74.1972 24.7815 73.8391 24.4009C73.4864 24.0169 73.2887 23.5156 73.2845 22.9942Z" fill="#34A853"/>
<path d="M58.1615 32.4622C63.3906 32.4622 67.6296 28.2231 67.6296 22.994C67.6296 17.7649 63.3906 13.5259 58.1615 13.5259C52.9324 13.5259 48.6934 17.7649 48.6934 22.994C48.6934 28.2231 52.9324 32.4622 58.1615 32.4622Z" fill="#FDE67E"/>
<path d="M58.1617 13.5259C57.4793 13.527 56.7991 13.6018 56.1328 13.7491C60.4698 14.7078 63.5573 18.5524 63.5573 22.994C63.5573 27.4357 60.4698 31.2803 56.1328 32.239C59.6782 33.0227 63.3594 31.7098 65.6088 28.8596C67.8582 26.0094 68.2794 22.1238 66.6932 18.8577C65.107 15.5916 61.7926 13.5203 58.1617 13.5259Z" fill="#FDE67E"/>
<path d="M59.5141 52.7511V68.9822L54.1037 63.5719L48.6934 68.9822V36.4794C49.0786 36.8606 49.5987 37.0744 50.1406 37.0746C50.3859 37.0744 50.629 37.0285 50.8575 36.9393C51.0853 36.8477 51.3289 36.8018 51.5744 36.8041C52.388 36.8091 53.1256 37.2833 53.468 38.0214C53.8044 38.7567 54.5396 39.2274 55.3481 39.2252C55.8707 39.2272 56.3742 39.0288 56.7548 38.6706C56.7683 38.6571 56.7954 38.6436 56.8089 38.6301V55.4563L59.5141 52.7511Z" fill="#5CDB6D"/>
<path d="M67.6293 36.4794V55.4563L62.219 50.0459L56.8086 55.4563V38.6301C57.601 37.9294 58.7964 37.947 59.5679 38.6706C59.9485 39.0288 60.452 39.2272 60.9746 39.2252C61.7831 39.2274 62.5183 38.7567 62.8547 38.0214C63.1971 37.2833 63.9347 36.8091 64.7483 36.8041C64.9938 36.8018 65.2374 36.8477 65.4652 36.9393C65.6937 37.0285 65.9368 37.0744 66.1821 37.0746C66.724 37.0744 67.2441 36.8606 67.6293 36.4794Z" fill="#5CDB6D"/>
<path d="M66.1818 37.0746C65.9365 37.0744 65.6934 37.0285 65.4649 36.9393C65.2371 36.8477 64.9936 36.8018 64.748 36.8041C64.3262 36.809 63.9158 36.942 63.5713 37.1855V51.3985L67.6291 55.4563V36.4794C67.2438 36.8606 66.7237 37.0744 66.1818 37.0746Z" fill="#34A853"/>
<path d="M74.3926 0H6.76296C3.02973 0.00447183 0.00447183 3.02973 0 6.76296V55.4563C0.00447183 59.1895 3.02973 62.2148 6.76296 62.2192H47.3407V68.9822C47.3408 69.5292 47.6704 70.0222 48.1757 70.2316C48.6811 70.4409 49.2628 70.3252 49.6496 69.9385L54.1037 65.4844L58.5578 69.9385C58.9446 70.3252 59.5263 70.4409 60.0316 70.2316C60.537 70.0222 60.8665 69.5292 60.8666 68.9822V62.2192H74.3926C78.1258 62.2148 81.151 59.1895 81.1555 55.4563V6.76296C81.151 3.02973 78.1258 0.00447183 74.3926 0ZM43.7022 26.4635C43.4932 26.367 43.3429 26.1763 43.2979 25.9505C43.253 25.7247 43.3188 25.491 43.475 25.3219C44.6853 24.0065 44.6853 21.983 43.475 20.6676C43.3183 20.4983 43.2523 20.264 43.2976 20.0378C43.3428 19.8115 43.4938 19.6207 43.7036 19.5247C45.3238 18.7707 46.0972 16.9019 45.4836 15.2234C45.4037 15.0073 45.4322 14.7661 45.5601 14.5744C45.688 14.3828 45.8999 14.2641 46.1301 14.255C47.9164 14.1799 49.3473 12.749 49.4224 10.9628C49.4313 10.7322 49.5503 10.5199 49.7422 10.392C49.9342 10.264 50.1759 10.2358 50.3922 10.3162C52.0709 10.9262 53.9375 10.1531 54.6934 8.53486C54.7891 8.32537 54.9796 8.17459 55.2054 8.12958C55.4313 8.08457 55.665 8.15081 55.8336 8.30762C57.1495 9.51809 59.1734 9.51809 60.4893 8.30762C60.6584 8.15091 60.8924 8.0849 61.1185 8.13017C61.3445 8.17544 61.5351 8.32647 61.6309 8.53621C62.3853 10.1553 64.2527 10.9283 65.9307 10.3162C66.147 10.2358 66.3887 10.264 66.5807 10.392C66.7726 10.5199 66.8916 10.7322 66.9006 10.9628C66.9764 12.7514 68.4107 14.1834 70.1995 14.2563C70.4296 14.265 70.6416 14.3834 70.7696 14.5749C70.8976 14.7663 70.926 15.0075 70.8461 15.2234C70.2319 16.9022 71.0062 18.7716 72.6274 19.5247C72.8365 19.6211 72.9868 19.8118 73.0317 20.0376C73.0767 20.2634 73.0109 20.4971 72.8547 20.6663C71.6444 21.9816 71.6444 24.0051 72.8547 25.3205C73.0114 25.4899 73.0773 25.7241 73.0321 25.9503C72.9868 26.1766 72.8358 26.3674 72.6261 26.4635C71.0058 27.2175 70.2324 29.0863 70.8461 30.7647C70.9259 30.9808 70.8975 31.2221 70.7696 31.4137C70.6417 31.6053 70.4297 31.7241 70.1995 31.7332C68.4082 31.805 66.9724 33.2408 66.9006 35.0321C66.8916 35.2627 66.7726 35.4749 66.5807 35.6029C66.3887 35.7309 66.147 35.7591 65.9307 35.6787C64.252 35.068 62.3849 35.8413 61.6295 37.46C61.5374 37.6715 61.3463 37.8235 61.1196 37.8658C60.8931 37.9131 60.6579 37.847 60.4893 37.6886C59.1732 36.4788 57.1497 36.4788 55.8336 37.6886C55.6649 37.8468 55.4298 37.9129 55.2033 37.8658C54.9763 37.8235 54.7848 37.6716 54.6921 37.46C53.9381 35.8405 52.0702 35.0672 50.3922 35.68C50.1759 35.7604 49.9342 35.7323 49.7422 35.6043C49.5503 35.4763 49.4313 35.264 49.4224 35.0335C49.3506 33.2416 47.9152 31.8051 46.1234 31.7318C45.8933 31.7232 45.6813 31.6047 45.5533 31.4133C45.4253 31.2218 45.3969 30.9806 45.4769 30.7647C46.0919 29.0877 45.3209 27.2189 43.7022 26.4635ZM58.5591 51.7935L58.1615 52.1911V39.4768C58.3425 39.4763 58.517 39.5444 58.6497 39.6675C59.2766 40.255 60.1035 40.5819 60.9627 40.5818C61.1925 40.5814 61.4217 40.5587 61.6471 40.5142C62.7234 40.3041 63.631 39.5851 64.0817 38.5854C64.2402 38.2444 64.6338 38.082 64.9866 38.2121C65.3982 38.3579 65.8339 38.4235 66.2702 38.4055V52.1911L63.1688 49.0896C62.6406 48.5616 61.7844 48.5616 61.2562 49.0896L58.5591 51.7935ZM58.1615 65.717L55.06 62.6155C54.5318 62.0875 53.6756 62.0875 53.1474 62.6155L50.0459 65.717V38.4028C50.4822 38.4209 50.9179 38.3553 51.3295 38.2094C51.6816 38.0785 52.0751 38.2405 52.233 38.5813C52.6851 39.5836 53.5962 40.3035 54.6758 40.5115C54.9327 40.5623 55.1945 40.5845 55.4563 40.5778V55.4563C55.4564 56.0033 55.7859 56.4963 56.2913 56.7056C56.7966 56.9149 57.3783 56.7993 57.7651 56.4126L58.1615 56.0162V65.717ZM78.4503 55.4563C78.4503 57.6973 76.6336 59.514 74.3926 59.514H60.8666V53.3111L62.2192 51.9585L66.6733 56.4126C67.0601 56.7993 67.6418 56.9149 68.1472 56.7056C68.6525 56.4963 68.9821 56.0033 68.9822 55.4563V36.9352C69.3597 36.4052 69.5754 35.777 69.603 35.1268C69.6195 34.7516 69.9203 34.4514 70.2956 34.4356C71.3921 34.3934 72.402 33.8282 73.0115 32.9156C73.621 32.0031 73.7563 30.8538 73.3754 29.8247C73.2463 29.4726 73.4086 29.0803 73.7487 28.9225C74.7464 28.4641 75.4638 27.5553 75.678 26.4785C75.8921 25.4017 75.5771 24.2876 74.8308 23.4823C74.5766 23.2059 74.5766 22.7808 74.8308 22.5044C75.5771 21.6995 75.8922 20.5854 75.678 19.5088C75.4638 18.4322 74.7463 17.5236 73.7487 17.0657C73.4076 16.9088 73.2444 16.5159 73.3741 16.1635C73.755 15.1343 73.6196 13.985 73.0101 13.0725C72.4006 12.16 71.3908 11.5948 70.2942 11.5525C69.919 11.5367 69.6182 11.2365 69.6017 10.8613C69.5607 9.76438 68.9961 8.75364 68.0837 8.14345C67.1712 7.53326 66.0215 7.39763 64.992 7.77876C64.6399 7.91172 64.245 7.74913 64.0885 7.40679C63.6302 6.40916 62.7214 5.69173 61.6446 5.47755C60.5678 5.26337 59.4536 5.57841 58.6484 6.32472C58.3724 6.57877 57.9478 6.57877 57.6718 6.32472C56.8669 5.57839 55.7528 5.26333 54.6762 5.47753C53.5996 5.69172 52.691 6.4092 52.233 7.40679C52.076 7.74933 51.681 7.9123 51.3282 7.78011C50.2988 7.39899 49.149 7.53461 48.2365 8.1448C47.3241 8.75499 46.7595 9.76573 46.7185 10.8627C46.702 11.2379 46.4012 11.5381 46.026 11.5538C44.9295 11.5961 43.9196 12.1613 43.3101 13.0738C42.7006 13.9864 42.5652 15.1357 42.9461 16.1648C43.0753 16.5169 42.913 16.9091 42.5728 17.067C41.5752 17.5253 40.8578 18.4342 40.6436 19.5109C40.4294 20.5877 40.7444 21.7019 41.4908 22.5071C41.745 22.7835 41.745 23.2087 41.4908 23.4851C40.7444 24.29 40.4294 25.404 40.6436 26.4806C40.8578 27.5572 41.5752 28.4658 42.5728 28.9238C42.914 29.0807 43.0771 29.4736 42.9475 29.826C42.5666 30.8551 42.7019 32.0045 43.3114 32.917C43.9209 33.8295 44.9308 34.3947 46.0274 34.437C46.4026 34.4528 46.7034 34.753 46.7199 35.1282C46.7478 35.7779 46.9635 36.4055 47.3407 36.9352V59.514H6.76296C4.52191 59.514 2.70518 57.6973 2.70518 55.4563V6.76296C2.70518 4.52191 4.52191 2.70518 6.76296 2.70518H74.3926C76.6336 2.70518 78.4503 4.52191 78.4503 6.76296V55.4563Z" fill="#1E1E1E"/>
<path d="M14.8801 48.6931C12.6391 48.6931 10.8224 46.8764 10.8224 44.6354V17.5835C10.8224 15.3425 12.6391 13.5257 14.8801 13.5257H39.2268C39.9738 13.5257 40.5794 12.9202 40.5794 12.1731C40.5794 11.4261 39.9738 10.8206 39.2268 10.8206H14.8801C11.1469 10.825 8.12166 13.8503 8.11719 17.5835V44.6354C8.12166 48.3686 11.1469 51.3938 14.8801 51.3983H40.5794C41.3264 51.3983 41.932 50.7927 41.932 50.0457C41.932 49.2987 41.3264 48.6931 40.5794 48.6931H14.8801Z" fill="#1E1E1E"/>
<path d="M16.2325 32.462H35.1688C35.9158 32.462 36.5214 31.8564 36.5214 31.1094C36.5214 30.3624 35.9158 29.7568 35.1688 29.7568H16.2325C15.4855 29.7568 14.8799 30.3624 14.8799 31.1094C14.8799 31.8564 15.4855 32.462 16.2325 32.462Z" fill="#1E1E1E"/>
<path d="M16.2325 27.0517H35.1688C35.9158 27.0517 36.5214 26.4462 36.5214 25.6991C36.5214 24.9521 35.9158 24.3466 35.1688 24.3466H16.2325C15.4855 24.3466 14.8799 24.9521 14.8799 25.6991C14.8799 26.4462 15.4855 27.0517 16.2325 27.0517Z" fill="#1E1E1E"/>
<path d="M16.2325 21.6413H35.1688C35.9158 21.6413 36.5214 21.0358 36.5214 20.2887C36.5214 19.5417 35.9158 18.9362 35.1688 18.9362H16.2325C15.4855 18.9362 14.8799 19.5417 14.8799 20.2887C14.8799 21.0358 15.4855 21.6413 16.2325 21.6413Z" fill="#1E1E1E"/>
<path d="M14.992 45.1763C15.2072 45.6695 15.6942 45.9882 16.2323 45.9879C16.4185 45.9887 16.6028 45.9505 16.7733 45.8756C18.0256 45.4104 19.1764 44.7082 20.1629 43.8075C20.5291 43.442 20.8494 43.0332 21.1165 42.5902C21.633 43.1709 22.2401 43.6642 22.9141 44.051C23.8542 44.6656 25.0242 44.8152 26.0886 44.4568C26.4967 44.2984 26.8657 44.0538 27.1707 43.7399C27.7828 44.1224 28.4571 44.3947 29.1631 44.5447L30.1856 44.7868C32.2728 45.3981 34.4415 45.6855 36.6159 45.6389C37.0979 45.6041 37.5247 45.3148 37.7356 44.88C37.9465 44.4451 37.9094 43.9308 37.6382 43.5308C37.3671 43.1307 36.9031 42.9057 36.4211 42.9405C34.5237 42.9653 32.6336 42.7007 30.8159 42.156L29.7704 41.9085C28.5084 41.6177 28.1838 41.1091 28.0499 40.7507C27.8142 40.1213 27.1522 39.7605 26.4955 39.9034C25.8389 40.0464 25.3868 40.6497 25.434 41.3201C25.4491 41.5626 25.3342 41.7949 25.1323 41.9301C24.8163 41.9703 24.4969 41.888 24.2396 41.7002C23.1458 41.0192 22.3232 39.9785 21.9132 38.7569C21.6805 38.1279 21.022 37.7645 20.3657 37.9028C19.7095 38.0411 19.2537 38.6394 19.2946 39.3088C19.3173 40.2764 18.9383 41.2102 18.2477 41.8882C17.4966 42.545 16.6296 43.056 15.6913 43.395C15.3622 43.5383 15.1036 43.8066 14.9724 44.1407C14.8413 44.4748 14.8483 44.8474 14.992 45.1763Z" fill="#1E1E1E"/>
<path d="M58.1606 33.8144C64.1367 33.8144 68.9813 28.9698 68.9813 22.9937C68.9813 17.0176 64.1367 12.173 58.1606 12.173C52.1845 12.173 47.3398 17.0176 47.3398 22.9937C47.3466 28.9671 52.1872 33.8077 58.1606 33.8144ZM58.1606 14.8782C62.6427 14.8782 66.2761 18.5116 66.2761 22.9937C66.2761 27.4758 62.6427 31.1093 58.1606 31.1093C53.6785 31.1093 50.045 27.4758 50.045 22.9937C50.0495 18.5135 53.6803 14.8826 58.1606 14.8782Z" fill="#1E1E1E"/>
</svg>
