<svg width="107" height="111" viewBox="0 0 107 111" fill="none" xmlns="http://www.w3.org/2000/svg">
<path d="M3.14262 55.3235C3.14261 68.3414 25.5671 78.8946 53.229 78.8946C80.891 78.8946 103.315 68.3414 103.315 55.3235C103.315 42.3055 80.891 31.7524 53.229 31.7524C25.5671 31.7524 3.14262 42.3055 3.14262 55.3235Z" stroke="#1E1E1E" stroke-width="2.07054" stroke-linejoin="round"/>
<path d="M32.3489 66.3281C45.2544 90.795 65.0505 105.706 76.5648 99.6326C88.0792 93.5592 86.9515 68.8013 74.0461 44.3343C61.1406 19.8674 41.3445 4.95642 29.8301 11.0298C18.3158 17.1032 19.4435 41.8611 32.3489 66.3281Z" stroke="#1E1E1E" stroke-width="2.07054" stroke-linejoin="round"/>
<path d="M29.8824 99.5999C41.3967 105.673 61.1929 90.7624 74.0984 66.2954C87.0038 41.8284 88.1315 17.0705 76.6171 10.9971C65.1028 4.9237 45.3066 19.8347 32.4012 44.3017C19.4957 68.7686 18.368 93.5265 29.8824 99.5999Z" stroke="#1E1E1E" stroke-width="2.07054" stroke-linejoin="round"/>
<path d="M101.224 53.2613C101.791 52.694 102.487 52.4124 103.311 52.4124C104.135 52.4124 104.835 52.694 105.398 53.2613C105.965 53.8286 106.247 54.5243 106.247 55.3484C106.247 56.1725 105.965 56.8226 105.398 57.3899C104.831 57.9573 104.135 58.2389 103.311 58.2389C102.487 58.2389 101.787 57.9573 101.224 57.3899C100.657 56.8226 100.375 56.1435 100.375 55.3484C100.375 54.5533 100.657 53.8245 101.224 53.2613Z" fill="black" stroke="#1E1E1E" stroke-width="0.414108" stroke-miterlimit="10"/>
<path d="M1.05597 53.2613C1.62329 52.694 2.31899 52.4124 3.14306 52.4124C3.96714 52.4124 4.667 52.694 5.23018 53.2613C5.79751 53.8286 6.0791 54.5243 6.0791 55.3484C6.0791 56.1725 5.79751 56.8226 5.23018 57.3899C4.66286 57.9573 3.96714 58.2389 3.14306 58.2389C2.31899 58.2389 1.61915 57.9573 1.05597 57.3899C0.488637 56.8226 0.207049 56.1435 0.207049 55.3484C0.207049 54.5533 0.488637 53.8245 1.05597 53.2613Z" fill="black" stroke="#1E1E1E" stroke-width="0.414108" stroke-miterlimit="10"/>
<path d="M74.5101 97.5584C75.0774 96.9911 75.7731 96.7095 76.5972 96.7095C77.4212 96.7095 78.1211 96.9911 78.6843 97.5584C79.2516 98.1257 79.5332 98.8215 79.5332 99.6455C79.5332 100.47 79.2516 101.12 78.6843 101.687C78.117 102.254 77.4212 102.536 76.5972 102.536C75.7731 102.536 75.0733 102.254 74.5101 101.687C73.9427 101.12 73.6612 100.441 73.6612 99.6455C73.6612 98.8505 73.9427 98.1216 74.5101 97.5584Z" fill="black" stroke="#1E1E1E" stroke-width="0.414108" stroke-miterlimit="10"/>
</svg>
