<svg width="67" height="67" viewBox="0 0 67 67" fill="none" xmlns="http://www.w3.org/2000/svg">
<g clip-path="url(#clip0_238_1971)">
<path d="M30.028 36.7018H18.9062V53.5402H30.028V36.7018Z" fill="#E3CD6A"/>
<path d="M37.8152 58.9455H10.0107V54.4968C10.0125 53.9074 10.2474 53.3427 10.6642 52.9259C11.081 52.5091 11.6457 52.2742 12.2351 52.2725H35.5909L37.8152 58.9455Z" fill="#C7B459"/>
<path d="M42.2616 58.9454V64.5063C42.2616 64.8013 42.1444 65.0842 41.9358 65.2928C41.7273 65.5013 41.4444 65.6185 41.1494 65.6185H7.78405C7.48909 65.6185 7.2062 65.5013 6.99762 65.2928C6.78905 65.0842 6.67188 64.8013 6.67188 64.5063V61.1698C6.67364 60.5804 6.90855 60.0156 7.32532 59.5989C7.74209 59.1821 8.30684 58.9472 8.89623 58.9454H42.2616Z" fill="#E3CD6A"/>
<path d="M41.1394 22.8663C41.1505 22.6661 41.1505 22.4548 41.1505 22.2435V4.44861H7.78516V22.2435C7.78525 26.2731 9.24388 30.1665 11.8915 33.2043C14.5392 36.2421 18.1969 38.2188 22.1887 38.7693C26.1806 39.3199 30.2368 38.4069 33.6079 36.1991C36.9789 33.9914 39.4369 30.6381 40.5277 26.7589L41.1394 22.8663Z" fill="#FDE67E"/>
<path d="M41.1512 1.11212H7.78588C6.5574 1.11212 5.56152 2.108 5.56152 3.33648C5.56152 4.56496 6.5574 5.56084 7.78588 5.56084H41.1512C42.3797 5.56084 43.3756 4.56496 43.3756 3.33648C43.3756 2.108 42.3797 1.11212 41.1512 1.11212Z" fill="#E3CD6A"/>
<path d="M26.1163 13.2994L27.5255 16.2645L30.6752 16.7394C31.0206 16.8034 31.342 16.9604 31.6049 17.1934C31.8678 17.4265 32.0621 17.7268 32.167 18.0621C32.2719 18.3974 32.2834 18.7549 32.2002 19.0962C32.1171 19.4376 31.9424 19.7498 31.695 19.9992L29.4151 22.307L29.9534 25.5668C30.0222 25.9093 29.9929 26.2644 29.8688 26.591C29.7447 26.9177 29.5309 27.2026 29.252 27.4131C28.9731 27.6235 28.6404 27.751 28.2923 27.7806C27.9441 27.8103 27.5947 27.7411 27.2841 27.5809L24.467 26.0417L21.6498 27.582C21.3393 27.7422 20.9898 27.8115 20.6417 27.7818C20.2936 27.7521 19.9609 27.6247 19.682 27.4142C19.403 27.2037 19.1892 26.9188 19.0652 26.5921C18.9411 26.2655 18.9118 25.9104 18.9806 25.5679L19.5189 22.3081L17.2378 19.9992C16.9905 19.7498 16.8158 19.4376 16.7326 19.0962C16.6495 18.7549 16.661 18.3974 16.7659 18.0621C16.8708 17.7268 17.0651 17.4265 17.328 17.1934C17.5908 16.9604 17.9123 16.8034 18.2577 16.7394L21.4074 16.2645L22.8165 13.2994C22.9596 12.9817 23.1914 12.712 23.4841 12.5228C23.7768 12.3336 24.1179 12.233 24.4664 12.233C24.8149 12.233 25.156 12.3336 25.4487 12.5228C25.7414 12.712 25.9732 12.9817 26.1163 13.2994Z" fill="#E3CD6A"/>
<path d="M55.6099 33.3654C61.133 37.3915 65.6195 45.9998 65.6195 51.7164C65.6195 59.3904 58.6484 65.6186 50.049 65.6186C41.4497 65.6186 34.4785 59.3904 34.4785 51.7164C34.4785 45.9998 38.965 37.3915 44.4881 33.3654L50.049 32.2532L55.6099 33.3654Z" fill="#5CDB6D"/>
<path d="M59.6459 26.6367L55.6087 33.3654H44.4869L40.4497 26.6367C40.1858 26.1962 40.0435 25.6935 40.0373 25.18C40.0312 24.6665 40.1614 24.1606 40.4147 23.7139C40.668 23.2672 41.0354 22.8957 41.4792 22.6374C41.923 22.3791 42.4275 22.2432 42.941 22.2436H44.4869C44.4869 22.2436 45.5991 18.907 50.0478 18.907C54.4966 18.907 55.6087 22.2436 55.6087 22.2436H57.1547C57.4028 22.2425 57.6499 22.2762 57.8887 22.3437C58.3251 22.4558 58.7293 22.6684 59.069 22.9645C59.4087 23.2605 59.6746 23.6319 59.8453 24.049C60.016 24.466 60.0868 24.9171 60.0522 25.3664C60.0176 25.8157 59.8785 26.2507 59.6459 26.6367Z" fill="#5CDB6D"/>
<path d="M30.841 15.6405L28.2764 15.2535L27.1219 12.8222C26.8882 12.3148 26.5139 11.8849 26.0434 11.5836C25.5729 11.2823 25.0259 11.1221 24.4671 11.1221C23.9084 11.1221 23.3614 11.2823 22.8909 11.5836C22.4204 11.8849 22.0461 12.3148 21.8124 12.8222L20.6579 15.2535L18.0932 15.6405C17.5512 15.7239 17.0431 15.9564 16.6257 16.3121C16.2083 16.6678 15.8981 17.1327 15.7299 17.6547C15.5482 18.1913 15.5191 18.7679 15.646 19.3202C15.7729 19.8724 16.0506 20.3785 16.4483 20.7821L18.329 22.6884L17.8842 25.3876C17.7861 25.9517 17.8497 26.532 18.0675 27.0614C18.2854 27.5908 18.6487 28.0478 19.1153 28.3794C19.5577 28.6958 20.0805 28.8807 20.6234 28.9127C21.1664 28.9448 21.7073 28.8228 22.1838 28.5607L24.4671 27.3095L26.7516 28.5573C27.2283 28.8187 27.7691 28.9403 28.3119 28.9082C28.8546 28.8761 29.3774 28.6917 29.8201 28.3761C30.2867 28.0444 30.65 27.5875 30.8679 27.058C31.0857 26.5286 31.1493 25.9483 31.0512 25.3843L30.6064 22.685L32.4871 20.7821C32.8848 20.3785 33.1625 19.8724 33.2894 19.3202C33.4162 18.7679 33.3872 18.1913 33.2055 17.6547C33.0372 17.1325 32.7269 16.6676 32.3093 16.3119C31.8917 15.9561 31.3833 15.7237 30.841 15.6405ZM30.9033 19.2173L28.6245 21.525C28.5007 21.65 28.4083 21.8026 28.355 21.9702C28.3016 22.1379 28.2888 22.3157 28.3175 22.4893L28.8558 25.7469C28.886 25.8992 28.8717 26.057 28.8145 26.2014C28.7573 26.3458 28.6596 26.4707 28.5333 26.561C28.4313 26.6371 28.3092 26.6818 28.1822 26.6895C28.0551 26.6972 27.9286 26.6676 27.8181 26.6044L24.9999 25.0651C24.8365 24.9759 24.6533 24.9292 24.4671 24.9292C24.281 24.9292 24.0978 24.9759 23.9344 25.0651L21.1161 26.6044C21.0059 26.6683 20.8792 26.6983 20.752 26.6906C20.6248 26.6829 20.5027 26.6378 20.401 26.561C20.2746 26.4707 20.177 26.3458 20.1198 26.2014C20.0626 26.057 20.0482 25.8992 20.0785 25.7469L20.6168 22.4893C20.6455 22.3157 20.6327 22.1379 20.5793 21.9702C20.526 21.8026 20.4336 21.65 20.3098 21.525L18.031 19.2173C17.9227 19.1057 17.8475 18.9662 17.814 18.8144C17.7804 18.6626 17.7897 18.5044 17.8408 18.3576C17.8799 18.2253 17.9554 18.1067 18.0586 18.0153C18.1618 17.9239 18.2887 17.8633 18.4247 17.8404L21.5744 17.3644C21.7545 17.3372 21.9251 17.2661 22.0713 17.1575C22.2175 17.0489 22.3348 16.9061 22.4129 16.7416L23.8221 13.7765C23.875 13.649 23.9645 13.5401 24.0793 13.4634C24.1941 13.3868 24.3291 13.3459 24.4671 13.3459C24.6052 13.3459 24.7401 13.3868 24.8549 13.4634C24.9697 13.5401 25.0593 13.649 25.1122 13.7765L26.5213 16.7416C26.5994 16.9061 26.7167 17.0489 26.863 17.1575C27.0092 17.2661 27.1798 17.3372 27.3599 17.3644L30.5096 17.8404C30.6456 17.8633 30.7724 17.9239 30.8757 18.0153C30.9789 18.1067 31.0544 18.2253 31.0935 18.3576C31.1446 18.5044 31.1539 18.6626 31.1203 18.8144C31.0867 18.9662 31.0116 19.1057 30.9033 19.2173Z" fill="#1E1E1E"/>
<path d="M57.0648 33.0986L60.5937 27.204C60.9602 26.5967 61.1588 25.9028 61.1691 25.1936C61.1794 24.4843 61.0011 23.785 60.6524 23.1672C60.3037 22.5495 59.7971 22.0355 59.1845 21.6778C58.572 21.3201 57.8753 21.1316 57.166 21.1315H56.3096C55.6766 20.0507 54.7562 19.1666 53.6507 18.5776C52.5453 17.9886 51.2982 17.7177 50.048 17.795C49.676 17.7983 49.3046 17.8247 48.9359 17.8739V8.89755C48.9359 7.71768 48.4672 6.58613 47.6329 5.75183C46.7986 4.91754 45.667 4.44884 44.4871 4.44884H44.2825C44.4142 4.09265 44.4835 3.7164 44.4871 3.33666C44.4871 2.45175 44.1356 1.60309 43.5099 0.977371C42.8842 0.351649 42.0355 0.00012207 41.1506 0.00012207L7.78525 0.00012207C6.90035 0.00012207 6.05168 0.351649 5.42596 0.977371C4.80024 1.60309 4.44871 2.45175 4.44871 3.33666C4.4524 3.7164 4.52163 4.09265 4.65336 4.44884H4.44871C3.26884 4.44884 2.13729 4.91754 1.303 5.75183C0.468703 6.58613 0 7.71768 0 8.89755L0 20.0193C0.00176662 21.7886 0.705388 23.4849 1.95645 24.736C3.20751 25.987 4.9038 26.6906 6.67307 26.6924H7.25919C7.83766 28.956 8.8576 31.083 10.2604 32.9513C11.6633 34.8196 13.4214 36.3923 15.4338 37.5792C17.4462 38.7661 19.6732 39.5438 21.987 39.8675C24.3008 40.1913 26.6558 40.0547 28.9166 39.4658V51.1603H20.0192V42.2629C20.0192 41.9679 19.902 41.6851 19.6935 41.4765C19.4849 41.2679 19.202 41.1507 18.907 41.1507C18.6121 41.1507 18.3292 41.2679 18.1206 41.4765C17.912 41.6851 17.7949 41.9679 17.7949 42.2629V51.1603H12.234C11.3491 51.1603 10.5004 51.5119 9.87468 52.1376C9.24895 52.7633 8.89743 53.612 8.89743 54.4969V57.8334C8.01252 57.8334 7.16386 58.1849 6.53814 58.8107C5.91242 59.4364 5.56089 60.285 5.56089 61.1699V64.5065C5.56089 65.0964 5.79524 65.6622 6.21239 66.0793C6.62954 66.4965 7.19531 66.7308 7.78525 66.7308H41.1506C41.5845 66.7304 42.0087 66.6031 42.3711 66.3645C42.7336 66.126 43.0183 65.7867 43.1903 65.3884C45.3676 66.2762 47.6967 66.7321 50.048 66.7308C59.2469 66.7308 66.7307 59.9955 66.7307 51.7164C66.7307 45.7184 62.3799 37.4461 57.0648 33.0986ZM54.4367 22.3471L53.4179 26.4233C53.3466 26.7094 53.3919 27.0121 53.5437 27.2649C53.6955 27.5176 53.9415 27.6998 54.2276 27.7712C54.3157 27.7931 54.406 27.8043 54.4967 27.8046C54.7446 27.8043 54.9853 27.7211 55.1806 27.5684C55.3758 27.4157 55.5145 27.2021 55.5745 26.9616L56.4764 23.3559H57.166C57.4818 23.3568 57.7918 23.4415 58.0643 23.6012C58.3368 23.7609 58.5621 23.9899 58.7172 24.265C58.8724 24.5401 58.9519 24.8514 58.9477 25.1672C58.9434 25.4831 58.8555 25.7921 58.693 26.0629L54.9794 32.2533H45.1166L41.4086 26.0629C41.2463 25.7925 41.1585 25.484 41.154 25.1686C41.1495 24.8533 41.2285 24.5424 41.383 24.2674C41.5375 23.9925 41.762 23.7633 42.0338 23.6033C42.3055 23.4432 42.6147 23.3578 42.9301 23.3559H43.6141L44.5149 26.9616C44.5752 27.2032 44.7148 27.4176 44.9114 27.5705C45.1081 27.7233 45.3503 27.8058 45.5993 27.8046C45.6904 27.8044 45.7812 27.7932 45.8696 27.7712C46.1557 27.6998 46.4016 27.5176 46.5535 27.2649C46.7053 27.0121 46.7505 26.7094 46.6792 26.4233L45.6594 22.346C46.0907 21.5781 46.7337 20.9504 47.5119 20.5379C48.29 20.1254 49.1704 19.9453 50.048 20.0193C50.9263 19.9415 51.8083 20.12 52.5872 20.5331C53.3661 20.9463 54.0085 21.5764 54.4367 22.3471ZM46.7115 8.89755V18.479C45.4847 19.0354 44.4638 19.9633 43.7931 21.1315H42.9301C42.7064 21.1341 42.4832 21.1546 42.2628 21.1927V6.67319H44.4871C45.0771 6.67319 45.6429 6.90754 46.06 7.32469C46.4771 7.74184 46.7115 8.30761 46.7115 8.89755ZM6.67307 3.33666C6.67307 3.04169 6.79025 2.7588 6.99882 2.55023C7.2074 2.34165 7.49028 2.22448 7.78525 2.22448H41.1506C41.4456 2.22448 41.7285 2.34165 41.937 2.55023C42.1456 2.7588 42.2628 3.04169 42.2628 3.33666C42.2628 3.63163 42.1456 3.91451 41.937 4.12309C41.7285 4.33166 41.4456 4.44884 41.1506 4.44884H7.78525C7.49028 4.44884 7.2074 4.33166 6.99882 4.12309C6.79025 3.91451 6.67307 3.63163 6.67307 3.33666ZM6.67307 24.4681C5.4932 24.4681 4.36165 23.9993 3.52736 23.1651C2.69306 22.3308 2.22436 21.1992 2.22436 20.0193V8.89755C2.22436 8.30761 2.45871 7.74184 2.87586 7.32469C3.293 6.90754 3.85878 6.67319 4.44871 6.67319H6.67307V22.2437C6.67776 22.9877 6.72939 23.7306 6.82766 24.4681H6.67307ZM8.89743 22.2437V6.67319H40.0384V22.2437C40.0384 22.2893 40.0384 22.3316 40.0384 22.3772C39.813 22.6145 39.617 22.8782 39.4545 23.1624C39.1334 23.7221 38.9539 24.3518 38.9318 24.9967C38.9097 25.6416 39.0457 26.2822 39.3277 26.8626C38.2252 30.4208 35.8829 33.4656 32.7265 35.4439C29.57 37.4222 25.8086 38.2027 22.1256 37.6436C18.4427 37.0846 15.0823 35.2231 12.655 32.3973C10.2277 29.5715 8.89447 25.9689 8.89743 22.2437ZM31.141 38.7184C35.4524 36.9635 38.9091 33.5958 40.7758 29.3316L43.0313 33.0974C37.8764 37.3137 33.6423 45.2146 33.3909 51.1603H31.141V38.7184ZM11.1218 54.4969C11.1218 54.2019 11.239 53.919 11.4475 53.7104C11.6561 53.5019 11.939 53.3847 12.234 53.3847H33.4766C33.6719 54.9337 34.1296 56.4381 34.8301 57.8334H11.1218V54.4969ZM41.1506 64.5065H7.78525V61.1699C7.78525 60.875 7.90243 60.5921 8.111 60.3835C8.31957 60.1749 8.60246 60.0578 8.89743 60.0578H36.1858C37.5248 61.8297 39.215 63.3063 41.1506 64.3953V64.5065ZM50.048 64.5065C42.0759 64.5065 35.5897 58.7687 35.5897 51.7164C35.5897 46.2334 39.8872 38.2791 44.8564 34.4777H55.2386C60.2089 38.2791 64.5064 46.2345 64.5064 51.7164C64.5064 58.7687 58.0201 64.5065 50.048 64.5065Z" fill="#1E1E1E"/>
<path d="M53.3835 44.487C53.3835 44.782 53.5006 45.0649 53.7092 45.2735C53.9178 45.482 54.2007 45.5992 54.4957 45.5992C54.7906 45.5992 55.0735 45.482 55.2821 45.2735C55.4907 45.0649 55.6078 44.782 55.6078 44.487C55.6062 43.2056 55.1629 41.9639 54.3525 40.9712C53.5421 39.9785 52.4143 39.2955 51.1591 39.0374V38.9261C51.1591 38.6312 51.0419 38.3483 50.8334 38.1397C50.6248 37.9311 50.3419 37.814 50.0469 37.814C49.752 37.814 49.4691 37.9311 49.2605 38.1397C49.0519 38.3483 48.9348 38.6312 48.9348 38.9261V39.0374C47.6777 39.2926 46.5475 39.9746 45.7357 40.9678C44.9239 41.961 44.4805 43.2043 44.4805 44.487C44.4805 45.7698 44.9239 47.0131 45.7357 48.0063C46.5475 48.9994 47.6777 49.6815 48.9348 49.9367V56.5175C48.2863 56.2882 47.7245 55.8641 47.3263 55.3033C46.9281 54.7425 46.713 54.0723 46.7104 53.3845C46.7104 53.0895 46.5932 52.8066 46.3847 52.598C46.1761 52.3895 45.8932 52.2723 45.5982 52.2723C45.3033 52.2723 45.0204 52.3895 44.8118 52.598C44.6032 52.8066 44.486 53.0895 44.486 53.3845C44.4877 54.6659 44.931 55.9076 45.7414 56.9003C46.5517 57.893 47.6796 58.576 48.9348 58.8341V58.9454C48.9348 59.2403 49.0519 59.5232 49.2605 59.7318C49.4691 59.9404 49.752 60.0575 50.0469 60.0575C50.3419 60.0575 50.6248 59.9404 50.8334 59.7318C51.0419 59.5232 51.1591 59.2403 51.1591 58.9454V58.8341C52.4162 58.5789 53.5464 57.8969 54.3582 56.9037C55.1699 55.9105 55.6134 54.6672 55.6134 53.3845C55.6134 52.1017 55.1699 50.8584 54.3582 49.8652C53.5464 48.8721 52.4162 48.19 51.1591 47.9348V41.3551C51.8074 41.5843 52.3691 42.0082 52.7672 42.5689C53.1654 43.1295 53.3806 43.7994 53.3835 44.487ZM46.7104 44.487C46.7133 43.7994 46.9285 43.1295 47.3266 42.5689C47.7248 42.0082 48.2865 41.5843 48.9348 41.3551V47.6189C48.2865 47.3897 47.7248 46.9658 47.3266 46.4052C46.9285 45.8446 46.7133 45.1747 46.7104 44.487ZM53.3835 53.3845C53.3806 54.0721 53.1654 54.742 52.7672 55.3026C52.3691 55.8633 51.8074 56.2872 51.1591 56.5164V50.2526C51.8074 50.4818 52.3691 50.9057 52.7672 51.4663C53.1654 52.0269 53.3806 52.6968 53.3835 53.3845Z" fill="#1E1E1E"/>
</g>
<defs>
<clipPath id="clip0_238_1971">
<rect width="66.7307" height="66.7307" fill="white"/>
</clipPath>
</defs>
</svg>
