<svg width="99" height="99" viewBox="0 0 99 99" fill="none" xmlns="http://www.w3.org/2000/svg">
<path d="M83.2815 75.5787L83.2815 23.0325C83.2815 18.7786 79.833 15.3301 75.579 15.3301L23.0328 15.3301C18.7789 15.3301 15.3304 18.7786 15.3304 23.0325L15.3304 75.5787C15.3304 79.8326 18.7789 83.2812 23.0328 83.2812L75.579 83.2812C79.833 83.2812 83.2815 79.8326 83.2815 75.5787Z" stroke="#1E1E1E" stroke-width="2.07054" stroke-linejoin="round"/>
<path d="M73.384 70.3068L73.384 28.308C73.384 26.6064 72.0046 25.2271 70.303 25.2271L28.3042 25.2271C26.6026 25.2271 25.2232 26.6064 25.2232 28.308L25.2232 70.3068C25.2232 72.0084 26.6026 73.3879 28.3042 73.3879L70.303 73.3879C72.0046 73.3879 73.384 72.0084 73.384 70.3068Z" stroke="#1E1E1E" stroke-width="2.07054" stroke-linejoin="round"/>
<path d="M83.2812 49.3079L98.6115 49.3079" stroke="#1E1E1E" stroke-width="2.07054" stroke-linejoin="round"/>
<path d="M83.2812 61.6939L98.6115 61.6939" stroke="#1E1E1E" stroke-width="2.07054" stroke-linejoin="round"/>
<path d="M83.2812 36.9219L98.6115 36.9219" stroke="#1E1E1E" stroke-width="2.07054" stroke-linejoin="round"/>
<path d="M49.3039 83.2813L49.3039 98.6157" stroke="#1E1E1E" stroke-width="2.07054" stroke-linejoin="round"/>
<path d="M36.9221 83.2813L36.9221 98.6157" stroke="#1E1E1E" stroke-width="2.07054" stroke-linejoin="round"/>
<path d="M61.6897 83.2813L61.6897 98.6157" stroke="#1E1E1E" stroke-width="2.07054" stroke-linejoin="round"/>
<path d="M49.3039 4.31045e-06L49.3039 15.3303" stroke="#1E1E1E" stroke-width="2.07054" stroke-linejoin="round"/>
<path d="M36.9221 4.31045e-06L36.9221 15.3303" stroke="#1E1E1E" stroke-width="2.07054" stroke-linejoin="round"/>
<path d="M61.6897 4.31045e-06L61.6897 15.3303" stroke="#1E1E1E" stroke-width="2.07054" stroke-linejoin="round"/>
<path d="M15.3303 49.3079L3.48442e-06 49.3079" stroke="#1E1E1E" stroke-width="2.07054" stroke-linejoin="round"/>
<path d="M15.3303 36.9219L3.48442e-06 36.9219" stroke="#1E1E1E" stroke-width="2.07054" stroke-linejoin="round"/>
<path d="M15.3303 61.6939L3.48442e-06 61.6939" stroke="#1E1E1E" stroke-width="2.07054" stroke-linejoin="round"/>
</svg>
