<svg width="20" height="29" viewBox="0 0 20 29" fill="none" xmlns="http://www.w3.org/2000/svg">
<path d="M5.04357 1.33787C6.57118 0.447805 8.31039 -0.0142333 10.0783 0.000334112C11.8463 0.0149015 13.5776 0.505537 15.0904 1.42065C16.6034 2.37017 17.8483 3.69104 18.7067 5.2576C19.5651 6.82417 20.0083 8.58431 19.9942 10.3706C19.9228 13.9985 17.9247 17.4071 15.4349 20.0459C13.9994 21.5715 12.3896 22.9233 10.6387 24.0733C10.4593 24.1776 10.2621 24.2478 10.0571 24.2802C9.85989 24.2716 9.66803 24.2132 9.49938 24.1105C6.82258 22.3797 4.48078 20.1792 2.58698 17.6151C0.993265 15.4586 0.0912225 12.8694 0 10.1895L0.00724354 9.79832C0.0655476 8.07791 0.557833 6.40015 1.43835 4.92099C2.31886 3.44183 3.55902 2.20927 5.04357 1.33787ZM11.2927 7.19065C10.6722 6.92737 9.98675 6.85733 9.32585 6.9897C8.66496 7.12206 8.05934 7.45067 7.58812 7.93259C7.11075 8.42063 6.78624 9.03742 6.65444 9.70726C6.52264 10.3771 6.58928 11.0709 6.84618 11.7034C7.09692 12.332 7.52975 12.8713 8.08914 13.2523C8.64853 13.6332 9.30897 13.8383 9.98573 13.8413C10.4331 13.8438 10.8764 13.7564 11.2893 13.5843C11.7022 13.4122 12.0764 13.159 12.3896 12.8396C12.7836 12.4342 13.0738 11.9396 13.2353 11.3978C13.3969 10.8561 13.425 10.2833 13.3174 9.72836C13.2098 9.17339 12.9695 8.65267 12.6171 8.21062C12.2648 7.76856 11.8107 7.41827 11.2937 7.18961L11.2927 7.19065Z" fill="#FBD428"/>
<path opacity="0.4" d="M9.98432 28.5703C13.7745 28.5703 16.8471 27.8721 16.8471 27.0108C16.8471 26.1496 13.7745 25.4514 9.98432 25.4514C6.19413 25.4514 3.12158 26.1496 3.12158 27.0108C3.12158 27.8721 6.19413 28.5703 9.98432 28.5703Z" fill="#FBD428"/>
</svg>
