<svg width="275" height="58" viewBox="0 0 275 58" fill="none" xmlns="http://www.w3.org/2000/svg">
<path d="M254.59 0.123047C255.764 0.194021 256.884 0.307717 257.947 0.466797C259.867 0.754048 261.53 1.3288 262.936 2.19043C264.326 3.05211 265.415 4.32939 266.201 6.02246C266.972 7.70045 267.357 9.93783 267.357 12.7344V17.7461C267.357 20.074 267.864 21.7597 268.877 22.8027C269.89 23.8457 271.704 24.3672 274.319 24.3672V33.0742C271.704 33.0742 269.89 33.5966 268.877 34.6396C267.864 35.6827 267.357 37.3682 267.357 39.6963V44.7305C267.357 47.527 266.972 49.7644 266.201 51.4424C265.415 53.1355 264.326 54.4127 262.936 55.2744C261.53 56.136 259.867 56.7108 257.947 56.998C256.874 57.1586 255.744 57.272 254.558 57.3428L254.534 57.3975H253.417C252.838 57.4176 252.247 57.4287 251.643 57.4287V57.3975H22.6768V57.4287C22.0727 57.4287 21.481 57.4176 20.9023 57.3975H19.2236L19.1836 57.3047C18.207 57.2332 17.2694 57.1323 16.3721 56.998C14.4523 56.7108 12.7896 56.136 11.3838 55.2744C9.993 54.4127 8.90426 53.1355 8.11816 51.4424C7.34721 49.7644 6.96194 47.527 6.96191 44.7305V39.6963C6.96191 37.3682 6.45522 35.6827 5.44238 34.6396C4.42952 33.5966 2.6153 33.0742 0 33.0742V24.3672C2.61507 24.3672 4.42947 23.8457 5.44238 22.8027C6.45519 21.7597 6.96186 20.074 6.96191 17.7461V12.7344C6.96191 9.93783 7.34727 7.70045 8.11816 6.02246C8.90423 4.32939 9.99308 3.05211 11.3838 2.19043C12.7896 1.3288 14.4523 0.754048 16.3721 0.466797C17.2593 0.334064 18.1857 0.232528 19.1504 0.161133L19.2236 0H254.534L254.59 0.123047Z" fill="#E5E5E5"/>
</svg>
