<svg width="27" height="27" viewBox="0 0 27 27" fill="none" xmlns="http://www.w3.org/2000/svg">
<circle cx="13.4875" cy="13.4875" r="13.4875" fill="#C1A968"/>
<circle cx="13.4875" cy="13.4875" r="13.4875" fill="#4C52D1"/>
<path d="M7.49129 19.4811C7.07917 19.4811 6.7265 19.3345 6.43327 19.0412C6.14004 18.748 5.99318 18.3951 5.99268 17.9825V8.9908C5.99268 8.57868 6.13954 8.22601 6.43327 7.93278C6.727 7.63955 7.07967 7.49269 7.49129 7.49219H19.4802C19.8923 7.49219 20.2452 7.63905 20.5389 7.93278C20.8327 8.22651 20.9793 8.57918 20.9788 8.9908V17.9825C20.9788 18.3946 20.8322 18.7475 20.5389 19.0412C20.2457 19.335 19.8928 19.4816 19.4802 19.4811H7.49129ZM13.4857 14.2359L19.4802 10.4894V8.9908L13.4857 12.7373L7.49129 8.9908V10.4894L13.4857 14.2359Z" fill="white"/>
</svg>
