<svg width="145" height="26" viewBox="0 0 145 26" fill="none" xmlns="http://www.w3.org/2000/svg">
<path d="M44.1615 20.9145C43.0856 20.9145 42.1556 20.6473 41.3717 20.1129C40.595 19.5784 39.9928 18.8515 39.5652 17.9323C39.1448 17.0059 38.9346 15.9655 38.9346 14.8111C38.9346 13.6495 39.1484 12.6126 39.5759 11.7005C40.0035 10.7813 40.6092 10.0579 41.3931 9.53064C42.1841 8.99619 43.1212 8.72896 44.2043 8.72896C45.2946 8.72896 46.2103 8.99619 46.9514 9.53064C47.6996 10.0579 48.2626 10.7813 48.6403 11.7005C49.0251 12.6198 49.2175 13.6566 49.2175 14.8111C49.2175 15.9655 49.0251 17.0023 48.6403 17.9216C48.2555 18.8409 47.6889 19.5712 46.9407 20.1129C46.1925 20.6473 45.2661 20.9145 44.1615 20.9145ZM44.4715 18.8943C45.2055 18.8943 45.8041 18.7197 46.2673 18.3705C46.7305 18.0213 47.069 17.5403 47.2828 16.9275C47.4965 16.3146 47.6034 15.6091 47.6034 14.8111C47.6034 14.0129 47.493 13.3074 47.2721 12.6946C47.0583 12.0817 46.7234 11.6043 46.2673 11.2623C45.8184 10.9202 45.2448 10.7492 44.5463 10.7492C43.8053 10.7492 43.196 10.9309 42.7185 11.2943C42.2411 11.6578 41.8848 12.1459 41.6496 12.7588C41.4216 13.3716 41.3075 14.0557 41.3075 14.8111C41.3075 15.5735 41.4216 16.2648 41.6496 16.8847C41.8848 17.4976 42.234 17.9857 42.6971 18.3492C43.1675 18.7126 43.759 18.8943 44.4715 18.8943ZM47.6034 20.5939V12.2884H47.3469V5.20153H49.5916V20.5939H47.6034ZM52.1549 20.5939V9.04963H54.143V11.8502L53.8651 11.4868C54.0076 11.1162 54.1929 10.7777 54.4209 10.4713C54.6489 10.1577 54.9126 9.90115 55.2119 9.70167C55.5041 9.48789 55.8283 9.32393 56.1846 9.20997C56.5481 9.08877 56.9186 9.01757 57.2963 8.99619C57.674 8.96766 58.0374 8.9855 58.3866 9.04963V11.1447C58.0089 11.0449 57.5885 11.0164 57.1253 11.0592C56.6692 11.1019 56.2488 11.248 55.864 11.4974C55.5005 11.7326 55.2119 12.0176 54.9982 12.3526C54.7914 12.6875 54.6418 13.0616 54.5492 13.4749C54.4566 13.8811 54.4103 14.3122 54.4103 14.7683V20.5939H52.1549ZM64.906 20.9145C63.7586 20.9145 62.7503 20.6651 61.881 20.1663C61.0187 19.6603 60.3453 18.9584 59.8607 18.0606C59.3832 17.1555 59.1445 16.108 59.1445 14.918C59.1445 13.6566 59.3797 12.5627 59.85 11.6364C60.3274 10.71 60.9901 9.99381 61.8382 9.48789C62.6862 8.98188 63.6731 8.72896 64.7991 8.72896C65.9749 8.72896 66.976 9.00326 67.8027 9.55202C68.6293 10.0935 69.2457 10.8668 69.6519 11.8716C70.0652 12.8763 70.2291 14.0699 70.1436 15.4524H67.9096V14.64C67.8953 13.3003 67.6388 12.3098 67.14 11.6685C66.6483 11.0271 65.8964 10.7064 64.8846 10.7064C63.7658 10.7064 62.9249 11.0592 62.362 11.7647C61.799 12.4701 61.5175 13.4891 61.5175 14.8218C61.5175 16.0901 61.799 17.0735 62.362 17.7719C62.9249 18.4631 63.7372 18.8088 64.7991 18.8088C65.4974 18.8088 66.0995 18.652 66.6055 18.3385C67.1186 18.0178 67.5176 17.5617 67.8027 16.9703L69.994 17.6651C69.545 18.6983 68.8645 19.5 67.9524 20.0701C67.0402 20.633 66.0247 20.9145 64.906 20.9145ZM60.7907 15.4524V13.7101H69.032V15.4524H60.7907ZM75.1656 20.9145C74.3105 20.9145 73.5943 20.7577 73.0171 20.4442C72.4399 20.1235 72.0016 19.7031 71.7024 19.1829C71.4102 18.6555 71.2641 18.0783 71.2641 17.4513C71.2641 16.8669 71.3675 16.3538 71.5741 15.912C71.7808 15.4702 72.0872 15.0961 72.4933 14.7897C72.8995 14.4761 73.3984 14.2232 73.9898 14.0308C74.5029 13.8811 75.0837 13.7492 75.7321 13.6353C76.3806 13.5212 77.0612 13.4143 77.7738 13.3146C78.4936 13.2148 79.2061 13.115 79.9116 13.0153L79.0992 13.4642C79.1135 12.5592 78.9211 11.8893 78.522 11.4547C78.1301 11.0128 77.4531 10.792 76.4911 10.792C75.8854 10.792 75.3296 10.9345 74.8236 11.2195C74.3176 11.4974 73.9649 11.9606 73.7654 12.6091L71.681 11.9678C71.966 10.9772 72.5076 10.1898 73.3057 9.60547C74.111 9.0211 75.1799 8.72896 76.5124 8.72896C77.5458 8.72896 78.4436 8.90706 79.2061 9.26342C79.9757 9.61254 80.5387 10.1684 80.895 10.9309C81.0803 11.3086 81.1943 11.7076 81.237 12.1281C81.2798 12.5485 81.3012 13.001 81.3012 13.4856V20.5939H79.3237V17.9537L79.7085 18.2957C79.2311 19.1793 78.6218 19.8385 77.8807 20.2732C77.1467 20.7008 76.2417 20.9145 75.1656 20.9145ZM75.5611 19.0867C76.1954 19.0867 76.7405 18.9762 77.1965 18.7553C77.6526 18.5273 78.0196 18.2386 78.2975 17.8895C78.5754 17.5403 78.7572 17.1769 78.8427 16.7992C78.9639 16.4572 79.0315 16.0724 79.0458 15.6448C79.0671 15.2172 79.0778 14.8752 79.0778 14.6187L79.8047 14.8859C79.0992 14.9928 78.4579 15.089 77.8807 15.1745C77.3034 15.26 76.7797 15.3455 76.3094 15.431C75.8462 15.5094 75.4328 15.6056 75.0694 15.7196C74.7631 15.8265 74.4887 15.9548 74.2464 16.1044C74.0112 16.2541 73.8224 16.4358 73.6798 16.6496C73.5445 16.8634 73.4767 17.1234 73.4767 17.4299C73.4767 17.7292 73.5516 18.0071 73.7012 18.2636C73.8509 18.513 74.0789 18.7126 74.3853 18.8622C74.6918 19.0119 75.0837 19.0867 75.5611 19.0867ZM97.4809 20.5939L97.4915 13.4001C97.4915 12.5663 97.2778 11.9179 96.8502 11.4547C96.4226 10.9844 95.8594 10.7492 95.1613 10.7492C94.7338 10.7492 94.3415 10.8489 93.9855 11.0485C93.6361 11.2409 93.3516 11.533 93.1304 11.925C92.9166 12.3098 92.8097 12.7944 92.8097 13.3787L91.7301 12.8336C91.7161 12.0212 91.8872 11.3086 92.2432 10.6958C92.6066 10.0829 93.0983 9.609 93.7183 9.27411C94.3383 8.93205 95.0331 8.76103 95.8027 8.76103C97.05 8.76103 98.0153 9.13515 98.6994 9.88339C99.3835 10.6316 99.7256 11.6257 99.7256 12.8656L99.7149 20.5939H97.4809ZM83.6385 20.5939V9.04963H85.6266V12.3846H85.8832V20.5939H83.6385ZM90.565 20.5939L90.5757 13.4429C90.5757 12.602 90.3619 11.9428 89.9343 11.4654C89.5142 10.9879 88.9477 10.7492 88.2348 10.7492C87.5293 10.7492 86.9595 10.9914 86.5245 11.4761C86.097 11.9606 85.8832 12.5948 85.8832 13.3787L84.8143 12.6946C84.8143 11.9392 84.996 11.2658 85.3594 10.6744C85.7228 10.0829 86.2145 9.61616 86.8345 9.27411C87.4545 8.93205 88.1567 8.76103 88.9403 8.76103C89.76 8.76103 90.4581 8.93559 91.0353 9.2848C91.6125 9.62685 92.0508 10.1079 92.3501 10.7278C92.6568 11.3478 92.8097 12.0675 92.8097 12.887L92.799 20.5939H90.565ZM108.049 10.8454V9.04963H111.042V10.8454H108.049ZM103.132 20.5939V8.64345C103.132 8.35123 103.143 8.04127 103.164 7.71347C103.186 7.37855 103.246 7.05075 103.346 6.73007C103.453 6.40228 103.627 6.10299 103.87 5.83219C104.162 5.51152 104.482 5.28348 104.832 5.14809C105.181 5.0127 105.526 4.9343 105.869 4.91293C106.218 4.89155 106.539 4.88086 106.831 4.88086H108.284V6.71939H106.937C106.41 6.71939 106.015 6.85122 105.751 7.11488C105.494 7.37142 105.366 7.73842 105.366 8.21586V20.5939H103.132ZM101.219 10.8454V9.04963H108.284V10.8454H101.219ZM110.903 20.5939V4.88086H113.137V20.5939H110.903ZM120.939 20.9145C119.785 20.9145 118.783 20.6544 117.936 20.1342C117.088 19.614 116.432 18.8978 115.969 17.9857C115.513 17.0665 115.285 16.0082 115.285 14.8111C115.285 13.6067 115.52 12.5485 115.99 11.6364C116.461 10.7171 117.12 10.0045 117.968 9.49858C118.815 8.9855 119.806 8.72896 120.939 8.72896C122.094 8.72896 123.095 8.98904 123.943 9.50927C124.791 10.0294 125.447 10.7456 125.91 11.6578C126.373 12.5699 126.605 13.621 126.605 14.8111C126.605 16.0153 126.369 17.0772 125.899 17.9964C125.436 18.9085 124.78 19.6247 123.932 20.1449C123.085 20.658 122.086 20.9145 120.939 20.9145ZM120.939 18.8088C122.044 18.8088 122.867 18.4382 123.409 17.6971C123.957 16.9489 124.232 15.9869 124.232 14.8111C124.232 13.6067 123.954 12.6447 123.398 11.925C122.849 11.1981 122.03 10.8347 120.939 10.8347C120.191 10.8347 119.574 11.0057 119.09 11.3478C118.606 11.6827 118.246 12.1495 118.011 12.7481C117.775 13.3395 117.658 14.0271 117.658 14.8111C117.658 16.0225 117.936 16.9916 118.492 17.7185C119.047 18.4454 119.863 18.8088 120.939 18.8088ZM130.567 20.5939L127.04 9.03895L129.252 9.04963L131.668 16.9703L134.105 9.04963H136.029L138.466 16.9703L140.882 9.04963H143.084L139.556 20.5939H137.761L135.067 12.235L132.363 20.5939H130.567Z" fill="white"/>
<path d="M17.4173 10.2276L13.5751 5.38426C13.3171 5.05893 12.8569 4.97709 12.5025 5.1935L1.09602 12.158C0.741015 12.3748 0.603796 12.8225 0.776376 13.201L5.92799 24.4978C6.06163 24.7908 6.35404 24.9789 6.67611 24.9789H18.6683C19.1224 24.9789 19.4905 24.6108 19.4905 24.1566V20.2712C19.4905 19.8172 19.8587 19.449 20.3128 19.449H24.2781C24.6536 19.449 24.9814 19.1946 25.0747 18.8308L29.4856 1.61222C29.6188 1.09212 29.2259 0.585938 28.689 0.585938H22.3635C21.9902 0.585938 21.6638 0.837361 21.5685 1.19825L17.2776 17.4476C17.1823 17.8085 16.8558 18.0599 16.4825 18.0599H9.41211C8.58444 18.0599 8.27545 16.9749 8.97879 16.5388L17.2064 11.4374C17.6244 11.1783 17.7229 10.6128 17.4173 10.2276Z" fill="white"/>
</svg>
