<svg width="213" height="71" viewBox="0 0 213 71" fill="none" xmlns="http://www.w3.org/2000/svg">
<path d="M64.9237 64.0777C63.3418 64.0777 61.9746 63.6848 60.8222 62.8991C59.6803 62.1134 58.795 61.0448 58.1664 59.6933C57.5483 58.3314 57.2393 56.8019 57.2393 55.1047C57.2393 53.397 57.5535 51.8727 58.1821 50.5318C58.8107 49.1803 59.7012 48.1169 60.8536 47.3417C62.0165 46.556 63.3942 46.1631 64.9865 46.1631C66.5894 46.1631 67.9357 46.556 69.0252 47.3417C70.1252 48.1169 70.9528 49.1803 71.508 50.5318C72.0738 51.8832 72.3566 53.4075 72.3566 55.1047C72.3566 56.8019 72.0738 58.3262 71.508 59.6776C70.9423 61.0291 70.1095 62.1029 69.0094 62.8991C67.9094 63.6848 66.5476 64.0777 64.9237 64.0777ZM65.3794 61.1076C66.4585 61.1076 67.3385 60.8509 68.0194 60.3376C68.7005 59.8243 69.198 59.1171 69.5123 58.2162C69.8266 57.3151 69.9837 56.278 69.9837 55.1047C69.9837 53.9313 69.8214 52.8941 69.4966 51.9932C69.1823 51.0922 68.69 50.3903 68.0194 49.8875C67.3594 49.3846 66.5161 49.1332 65.4894 49.1332C64.3999 49.1332 63.5042 49.4003 62.8022 49.9346C62.1004 50.4689 61.5765 51.1865 61.2307 52.0875C60.8955 52.9884 60.7279 53.9942 60.7279 55.1047C60.7279 56.2256 60.8955 57.2419 61.2307 58.1533C61.5765 59.0542 62.0898 59.7719 62.7708 60.3062C63.4622 60.8405 64.3318 61.1076 65.3794 61.1076ZM69.9837 63.6063V51.3961H69.6066V40.9773H72.9066V63.6063H69.9837ZM76.675 63.6063V46.6346H79.5979V50.7518L79.1893 50.2175C79.3988 49.6727 79.6711 49.175 80.0065 48.7246C80.3417 48.2636 80.7293 47.8864 81.1693 47.5931C81.5988 47.2789 82.0755 47.0378 82.5994 46.8703C83.1337 46.6921 83.6783 46.5874 84.2337 46.556C84.7889 46.514 85.3232 46.5403 85.8366 46.6346V49.7146C85.2812 49.5679 84.6632 49.526 83.9822 49.5889C83.3117 49.6518 82.6937 49.8664 82.1279 50.2332C81.5936 50.5789 81.1693 50.9979 80.8551 51.4904C80.5512 51.9827 80.3312 52.5327 80.195 53.1404C80.0588 53.7375 79.9907 54.3713 79.9907 55.0418V63.6063H76.675ZM95.421 64.0777C93.7342 64.0777 92.2518 63.7109 90.9738 62.9777C89.7061 62.2338 88.7161 61.2019 88.0037 59.8819C87.3018 58.5514 86.9508 57.0114 86.9508 55.2618C86.9508 53.4075 87.2966 51.7993 87.988 50.4375C88.6898 49.0755 89.6641 48.0226 90.9109 47.2789C92.1576 46.535 93.6085 46.1631 95.2638 46.1631C96.9924 46.1631 98.4643 46.5664 99.6796 47.3731C100.895 48.1693 101.801 49.306 102.398 50.7832C103.006 52.2604 103.247 54.0151 103.121 56.0476H99.8368V54.8533C99.8157 52.8836 99.4386 51.4275 98.7053 50.4846C97.9824 49.5418 96.8771 49.0703 95.3895 49.0703C93.7447 49.0703 92.5085 49.5889 91.6809 50.6261C90.8532 51.6632 90.4395 53.1613 90.4395 55.1204C90.4395 56.9851 90.8532 58.4309 91.6809 59.4576C92.5085 60.4737 93.7028 60.9819 95.2638 60.9819C96.2905 60.9819 97.1757 60.7514 97.9196 60.2905C98.6739 59.8191 99.2605 59.1485 99.6796 58.279L102.901 59.3005C102.241 60.8195 101.241 61.9981 99.8996 62.8362C98.5586 63.6638 97.0657 64.0777 95.421 64.0777ZM89.3709 56.0476V53.4861H101.487V56.0476H89.3709ZM110.504 64.0777C109.247 64.0777 108.194 63.8472 107.346 63.3863C106.497 62.9148 105.853 62.2966 105.413 61.5319C104.983 60.7566 104.768 59.908 104.768 58.9862C104.768 58.1271 104.92 57.3728 105.224 56.7233C105.528 56.0737 105.978 55.5237 106.576 55.0733C107.173 54.6122 107.906 54.2404 108.776 53.9575C109.53 53.7375 110.384 53.5436 111.337 53.3761C112.29 53.2084 113.291 53.0513 114.338 52.9047C115.397 52.7579 116.444 52.6113 117.481 52.4647L116.287 53.1247C116.308 51.7941 116.025 50.8093 115.438 50.1703C114.862 49.5207 113.867 49.196 112.453 49.196C111.562 49.196 110.745 49.4055 110.001 49.8246C109.257 50.2332 108.739 50.9141 108.446 51.8675L105.381 50.9246C105.8 49.4684 106.597 48.3107 107.77 47.4517C108.954 46.5926 110.525 46.1631 112.484 46.1631C114.003 46.1631 115.323 46.425 116.444 46.9489C117.576 47.4621 118.403 48.2793 118.927 49.4003C119.2 49.9555 119.367 50.5422 119.43 51.1603C119.493 51.7784 119.524 52.4436 119.524 53.1561V63.6063H116.617V59.7248L117.183 60.2276C116.481 61.5266 115.585 62.4957 114.496 63.1348C113.417 63.7634 112.086 64.0777 110.504 64.0777ZM111.086 61.3905C112.018 61.3905 112.819 61.228 113.49 60.9034C114.16 60.568 114.7 60.1437 115.108 59.6305C115.517 59.1171 115.784 58.5828 115.91 58.0276C116.088 57.5247 116.188 56.959 116.209 56.3304C116.24 55.7018 116.256 55.199 116.256 54.8218L117.324 55.2147C116.287 55.3718 115.344 55.5133 114.496 55.639C113.647 55.7647 112.877 55.8904 112.186 56.0161C111.505 56.1313 110.897 56.2728 110.363 56.4404C109.912 56.5976 109.509 56.7861 109.153 57.0062C108.807 57.2262 108.529 57.4933 108.32 57.8076C108.121 58.1219 108.021 58.5042 108.021 58.9548C108.021 59.3948 108.131 59.8033 108.351 60.1805C108.571 60.5471 108.907 60.8405 109.357 61.0605C109.807 61.2805 110.384 61.3905 111.086 61.3905ZM143.311 63.6063L143.326 53.0304C143.326 51.8046 143.012 50.8513 142.384 50.1703C141.755 49.4789 140.927 49.1332 139.901 49.1332C139.272 49.1332 138.696 49.2798 138.172 49.5732C137.658 49.856 137.24 50.2855 136.915 50.8618C136.601 51.4275 136.444 52.1398 136.444 52.9989L134.856 52.1975C134.836 51.0032 135.087 49.9555 135.611 49.0546C136.145 48.1536 136.868 47.4569 137.779 46.9646C138.691 46.4617 139.712 46.2103 140.844 46.2103C142.677 46.2103 144.096 46.7603 145.102 47.8603C146.108 48.9603 146.611 50.4218 146.611 52.2446L146.595 63.6063H143.311ZM122.96 63.6063V46.6346H125.883V51.5375H126.26V63.6063H122.96ZM133.143 63.6063L133.159 53.0932C133.159 51.857 132.845 50.8879 132.216 50.186C131.599 49.4841 130.766 49.1332 129.718 49.1332C128.681 49.1332 127.843 49.4893 127.203 50.2018C126.575 50.9141 126.26 51.8465 126.26 52.9989L124.689 51.9932C124.689 50.8827 124.956 49.8927 125.49 49.0232C126.025 48.1536 126.748 47.4674 127.659 46.9646C128.571 46.4617 129.603 46.2103 130.755 46.2103C131.96 46.2103 132.986 46.4669 133.835 46.9803C134.683 47.4831 135.328 48.1903 135.768 49.1017C136.219 50.0132 136.444 51.0713 136.444 52.2761L136.428 63.6063H133.143ZM158.848 49.2746V46.6346H163.248V49.2746H158.848ZM151.619 63.6063V46.0374C151.619 45.6078 151.635 45.1521 151.666 44.6702C151.697 44.1778 151.787 43.6959 151.933 43.2245C152.09 42.7426 152.347 42.3026 152.703 41.9045C153.132 41.433 153.604 41.0978 154.118 40.8987C154.631 40.6997 155.139 40.5844 155.642 40.553C156.156 40.5216 156.627 40.5059 157.056 40.5059H159.193V43.2088H157.213C156.438 43.2088 155.857 43.4026 155.469 43.7902C155.092 44.1673 154.903 44.7069 154.903 45.4088V63.6063H151.619ZM148.806 49.2746V46.6346H159.193V49.2746H148.806ZM163.043 63.6063V40.5059H166.328V63.6063H163.043ZM177.798 64.0777C176.101 64.0777 174.629 63.6952 173.382 62.9305C172.136 62.1657 171.171 61.1128 170.491 59.7719C169.82 58.4205 169.485 56.8647 169.485 55.1047C169.485 53.3342 169.831 51.7784 170.522 50.4375C171.214 49.086 172.183 48.0384 173.429 47.2946C174.676 46.5403 176.132 46.1631 177.798 46.1631C179.495 46.1631 180.968 46.5455 182.214 47.3103C183.46 48.075 184.425 49.1279 185.105 50.4689C185.786 51.8098 186.127 53.3551 186.127 55.1047C186.127 56.8751 185.781 58.4362 185.09 59.7876C184.409 61.1286 183.444 62.1814 182.198 62.9462C180.952 63.7005 179.484 64.0777 177.798 64.0777ZM177.798 60.9819C179.422 60.9819 180.632 60.4371 181.428 59.3476C182.234 58.2476 182.638 56.8333 182.638 55.1047C182.638 53.3342 182.23 51.9198 181.412 50.8618C180.606 49.7932 179.401 49.2589 177.798 49.2589C176.698 49.2589 175.791 49.5103 175.079 50.0132C174.368 50.5055 173.838 51.1918 173.492 52.0718C173.147 52.9413 172.974 53.9522 172.974 55.1047C172.974 56.8856 173.382 58.3105 174.199 59.379C175.017 60.4476 176.216 60.9819 177.798 60.9819ZM191.952 63.6063L186.766 46.6188L190.019 46.6346L193.571 58.279L197.154 46.6346H199.982L203.565 58.279L207.117 46.6346H210.354L205.168 63.6063H202.528L198.568 51.3175L194.592 63.6063H191.952Z" fill="white"/>
<path d="M25.606 48.367L19.9573 41.2466C19.578 40.7683 18.9014 40.648 18.3804 40.9662L1.61127 51.205C1.08937 51.5237 0.887634 52.1819 1.14135 52.7383L8.71497 69.3463C8.91143 69.7771 9.34132 70.0535 9.81481 70.0535H27.4451C28.1127 70.0535 28.6539 69.5123 28.6539 68.8447V63.1326C28.6539 62.4651 29.1951 61.9238 29.8627 61.9238H35.6923C36.2444 61.9238 36.7263 61.5498 36.8634 61.015L43.348 35.7012C43.5439 34.9365 42.9663 34.1924 42.177 34.1924H32.8776C32.3288 34.1924 31.8489 34.562 31.7088 35.0926L25.4005 58.9814C25.2604 59.512 24.7805 59.8816 24.2317 59.8816H13.8371C12.6203 59.8816 12.1661 58.2866 13.2001 57.6455L25.2959 50.1456C25.9104 49.7647 26.0552 48.9333 25.606 48.367Z" fill="white"/>
<path d="M66.4719 14V4.46255H69.6945C70.4427 4.46255 71.0543 4.59761 71.5293 4.86771C72.0074 5.13471 72.3614 5.4964 72.5911 5.95278C72.8209 6.40916 72.9357 6.91832 72.9357 7.48026C72.9357 8.0422 72.8209 8.55291 72.5911 9.0124C72.3645 9.47189 72.0137 9.83823 71.5386 10.1114C71.0636 10.3815 70.4551 10.5166 69.7131 10.5166H67.4033V9.49207H69.6759C70.1881 9.49207 70.5995 9.40358 70.91 9.22662C71.2204 9.04966 71.4455 8.8106 71.5852 8.50945C71.728 8.20519 71.7994 7.86213 71.7994 7.48026C71.7994 7.09839 71.728 6.75688 71.5852 6.45573C71.4455 6.15458 71.2189 5.91863 70.9053 5.74787C70.5917 5.57401 70.1757 5.48708 69.6572 5.48708H67.6268V14H66.4719ZM74.6472 14V6.84692H75.7089V7.92733H75.7835C75.9139 7.5734 76.1498 7.28622 76.4913 7.06579C76.8328 6.84536 77.2178 6.73515 77.6462 6.73515C77.727 6.73515 77.8279 6.7367 77.9489 6.73981C78.07 6.74291 78.1616 6.74757 78.2237 6.75378V7.87145C78.1864 7.86213 78.1011 7.84816 77.9676 7.82953C77.8372 7.8078 77.699 7.79693 77.5531 7.79693C77.2054 7.79693 76.8949 7.86989 76.6217 8.01581C76.3516 8.15862 76.1374 8.35732 75.979 8.6119C75.8238 8.86338 75.7462 9.15056 75.7462 9.47344V14H74.6472ZM82.3079 14.149C81.6186 14.149 81.0241 13.9969 80.5242 13.6926C80.0275 13.3853 79.6441 12.9568 79.374 12.4073C79.107 11.8547 78.9735 11.212 78.9735 10.4793C78.9735 9.74665 79.107 9.10088 79.374 8.54205C79.6441 7.98011 80.0197 7.54235 80.501 7.22879C80.9853 6.91211 81.5503 6.75378 82.1961 6.75378C82.5686 6.75378 82.9365 6.81587 83.2998 6.94005C83.663 7.06424 83.9937 7.26604 84.2917 7.54546C84.5898 7.82177 84.8273 8.18812 85.0042 8.6445C85.1812 9.10088 85.2697 9.66282 85.2697 10.3303V10.796H79.7558V9.846H84.152C84.152 9.44239 84.0713 9.08225 83.9098 8.76558C83.7515 8.44891 83.5249 8.19898 83.2299 8.01581C82.9381 7.83264 82.5935 7.74105 82.1961 7.74105C81.7583 7.74105 81.3796 7.84971 81.0598 8.06704C80.7431 8.28126 80.4994 8.56068 80.3286 8.90529C80.1579 9.2499 80.0725 9.61936 80.0725 10.0136V10.647C80.0725 11.1872 80.1657 11.6451 80.3519 12.0208C80.5413 12.3934 80.8037 12.6774 81.139 12.873C81.4743 13.0655 81.8639 13.1617 82.3079 13.1617C82.5966 13.1617 82.8574 13.1214 83.0902 13.0407C83.3262 12.9568 83.5295 12.8327 83.7003 12.6681C83.871 12.5005 84.003 12.2924 84.0961 12.0441L85.1579 12.3421C85.0461 12.7023 84.8583 13.0189 84.5944 13.2921C84.3305 13.5622 84.0045 13.7734 83.6165 13.9255C83.2284 14.0745 82.7922 14.149 82.3079 14.149ZM92.0083 8.44891L91.021 8.72833C90.9589 8.56378 90.8673 8.40389 90.7463 8.24866C90.6283 8.09032 90.4668 7.95993 90.2619 7.85747C90.057 7.75502 89.7947 7.7038 89.4749 7.7038C89.0372 7.7038 88.6724 7.8047 88.3805 8.0065C88.0918 8.20519 87.9474 8.45822 87.9474 8.76558C87.9474 9.03879 88.0468 9.25456 88.2455 9.4129C88.4442 9.57123 88.7546 9.70318 89.1769 9.80874L90.2386 10.0695C90.8782 10.2248 91.3548 10.4623 91.6683 10.782C91.9819 11.0987 92.1387 11.507 92.1387 12.0068C92.1387 12.4166 92.0207 12.783 91.7848 13.1059C91.5519 13.4287 91.2259 13.6833 90.8068 13.8696C90.3877 14.0559 89.9002 14.149 89.3445 14.149C88.6149 14.149 88.0111 13.9907 87.533 13.674C87.0548 13.3573 86.7521 12.8947 86.6248 12.2862L87.668 12.0255C87.7674 12.4104 87.9552 12.6992 88.2315 12.8916C88.5109 13.0841 88.8757 13.1804 89.3259 13.1804C89.8381 13.1804 90.2449 13.0717 90.546 12.8544C90.8503 12.634 91.0024 12.3701 91.0024 12.0627C91.0024 11.8143 90.9155 11.6063 90.7416 11.4387C90.5677 11.2679 90.3007 11.1406 89.9406 11.0568L88.7484 10.7774C88.0933 10.6222 87.6121 10.3815 87.3048 10.0556C87.0005 9.72647 86.8484 9.3151 86.8484 8.82146C86.8484 8.41786 86.9617 8.06083 87.1883 7.75037C87.4181 7.4399 87.7301 7.19619 88.1244 7.01922C88.5218 6.84226 88.972 6.75378 89.4749 6.75378C90.1828 6.75378 90.7385 6.90901 91.1421 7.21947C91.5488 7.52994 91.8375 7.93975 92.0083 8.44891ZM96.7921 14.149C96.1029 14.149 95.5084 13.9969 95.0085 13.6926C94.5118 13.3853 94.1284 12.9568 93.8583 12.4073C93.5913 11.8547 93.4578 11.212 93.4578 10.4793C93.4578 9.74665 93.5913 9.10088 93.8583 8.54205C94.1284 7.98011 94.504 7.54235 94.9852 7.22879C95.4696 6.91211 96.0346 6.75378 96.6804 6.75378C97.0529 6.75378 97.4208 6.81587 97.7841 6.94005C98.1473 7.06424 98.478 7.26604 98.776 7.54546C99.0741 7.82177 99.3116 8.18812 99.4885 8.6445C99.6655 9.10088 99.754 9.66282 99.754 10.3303V10.796H94.2401V9.846H98.6363C98.6363 9.44239 98.5556 9.08225 98.3941 8.76558C98.2358 8.44891 98.0092 8.19898 97.7142 8.01581C97.4224 7.83264 97.0778 7.74105 96.6804 7.74105C96.2426 7.74105 95.8639 7.84971 95.5441 8.06704C95.2274 8.28126 94.9837 8.56068 94.8129 8.90529C94.6422 9.2499 94.5568 9.61936 94.5568 10.0136V10.647C94.5568 11.1872 94.6499 11.6451 94.8362 12.0208C95.0256 12.3934 95.288 12.6774 95.6233 12.873C95.9586 13.0655 96.3482 13.1617 96.7921 13.1617C97.0809 13.1617 97.3417 13.1214 97.5745 13.0407C97.8105 12.9568 98.0138 12.8327 98.1846 12.6681C98.3553 12.5005 98.4873 12.2924 98.5804 12.0441L99.6422 12.3421C99.5304 12.7023 99.3426 13.0189 99.0787 13.2921C98.8148 13.5622 98.4888 13.7734 98.1008 13.9255C97.7127 14.0745 97.2765 14.149 96.7921 14.149ZM102.525 9.69697V14H101.426V6.84692H102.488V7.96458H102.581C102.748 7.60134 103.003 7.30951 103.344 7.08908C103.686 6.86554 104.127 6.75378 104.667 6.75378C105.151 6.75378 105.575 6.85312 105.938 7.05182C106.302 7.24741 106.584 7.54546 106.786 7.94596C106.988 8.34335 107.089 8.8463 107.089 9.45481V14H105.99V9.52932C105.99 8.96738 105.844 8.52963 105.552 8.21606C105.26 7.89939 104.86 7.74105 104.35 7.74105C104 7.74105 103.686 7.81711 103.41 7.96924C103.136 8.12137 102.921 8.34335 102.762 8.63519C102.604 8.92702 102.525 9.28095 102.525 9.69697ZM112.208 6.84692V7.77831H108.501V6.84692H112.208ZM109.581 5.13316H110.68V11.9509C110.68 12.2614 110.725 12.4943 110.815 12.6495C110.909 12.8016 111.027 12.9041 111.169 12.9568C111.315 13.0065 111.469 13.0314 111.63 13.0314C111.751 13.0314 111.851 13.0251 111.928 13.0127C112.006 12.9972 112.068 12.9848 112.115 12.9755L112.338 13.9627C112.264 13.9907 112.16 14.0186 112.026 14.0466C111.893 14.0776 111.724 14.0931 111.519 14.0931C111.208 14.0931 110.904 14.0264 110.606 13.8929C110.311 13.7594 110.066 13.556 109.87 13.2828C109.678 13.0096 109.581 12.665 109.581 12.249V5.13316ZM116.783 14.149C116.094 14.149 115.5 13.9969 115 13.6926C114.503 13.3853 114.12 12.9568 113.849 12.4073C113.582 11.8547 113.449 11.212 113.449 10.4793C113.449 9.74665 113.582 9.10088 113.849 8.54205C114.12 7.98011 114.495 7.54235 114.976 7.22879C115.461 6.91211 116.026 6.75378 116.672 6.75378C117.044 6.75378 117.412 6.81587 117.775 6.94005C118.138 7.06424 118.469 7.26604 118.767 7.54546C119.065 7.82177 119.303 8.18812 119.48 8.6445C119.657 9.10088 119.745 9.66282 119.745 10.3303V10.796H114.231V9.846H118.627C118.627 9.44239 118.547 9.08225 118.385 8.76558C118.227 8.44891 118 8.19898 117.705 8.01581C117.414 7.83264 117.069 7.74105 116.672 7.74105C116.234 7.74105 115.855 7.84971 115.535 8.06704C115.219 8.28126 114.975 8.56068 114.804 8.90529C114.633 9.2499 114.548 9.61936 114.548 10.0136V10.647C114.548 11.1872 114.641 11.6451 114.827 12.0208C115.017 12.3934 115.279 12.6774 115.614 12.873C115.95 13.0655 116.339 13.1617 116.783 13.1617C117.072 13.1617 117.333 13.1214 117.566 13.0407C117.802 12.9568 118.005 12.8327 118.176 12.6681C118.346 12.5005 118.478 12.2924 118.572 12.0441L119.633 12.3421C119.522 12.7023 119.334 13.0189 119.07 13.2921C118.806 13.5622 118.48 13.7734 118.092 13.9255C117.704 14.0745 117.268 14.149 116.783 14.149ZM124.118 14.149C123.522 14.149 122.996 13.9984 122.539 13.6973C122.083 13.393 121.726 12.9646 121.468 12.412C121.211 11.8562 121.082 11.1996 121.082 10.4421C121.082 9.69076 121.211 9.03879 121.468 8.48616C121.726 7.93354 122.084 7.50665 122.544 7.2055C123.003 6.90435 123.534 6.75378 124.137 6.75378C124.602 6.75378 124.97 6.83139 125.24 6.98662C125.514 7.13875 125.722 7.31261 125.864 7.5082C126.01 7.70069 126.124 7.85903 126.204 7.98321H126.297V4.46255H127.396V14H126.335V12.901H126.204C126.124 13.0314 126.009 13.1959 125.86 13.3946C125.711 13.5902 125.498 13.7656 125.222 13.9208C124.945 14.073 124.577 14.149 124.118 14.149ZM124.267 13.1617C124.708 13.1617 125.08 13.0469 125.385 12.8171C125.689 12.5843 125.92 12.263 126.079 11.8531C126.237 11.4402 126.316 10.9637 126.316 10.4235C126.316 9.88946 126.238 9.42221 126.083 9.02171C125.928 8.61811 125.698 8.30454 125.394 8.08101C125.09 7.85437 124.714 7.74105 124.267 7.74105C123.801 7.74105 123.413 7.86058 123.103 8.09964C122.795 8.33559 122.564 8.65692 122.409 9.06363C122.257 9.46723 122.181 9.92051 122.181 10.4235C122.181 10.9326 122.258 11.3952 122.414 11.8112C122.572 12.2241 122.805 12.5532 123.112 12.7985C123.423 13.0407 123.808 13.1617 124.267 13.1617ZM133.399 14V4.46255H134.498V7.98321H134.591C134.672 7.85903 134.784 7.70069 134.927 7.5082C135.073 7.31261 135.281 7.13875 135.551 6.98662C135.824 6.83139 136.193 6.75378 136.659 6.75378C137.261 6.75378 137.792 6.90435 138.252 7.2055C138.711 7.50665 139.07 7.93354 139.328 8.48616C139.585 9.03879 139.714 9.69076 139.714 10.4421C139.714 11.1996 139.585 11.8562 139.328 12.412C139.07 12.9646 138.713 13.393 138.257 13.6973C137.8 13.9984 137.274 14.149 136.678 14.149C136.218 14.149 135.85 14.073 135.574 13.9208C135.298 13.7656 135.085 13.5902 134.936 13.3946C134.787 13.1959 134.672 13.0314 134.591 12.901H134.461V14H133.399ZM134.48 10.4235C134.48 10.9637 134.559 11.4402 134.717 11.8531C134.876 12.263 135.107 12.5843 135.411 12.8171C135.715 13.0469 136.088 13.1617 136.529 13.1617C136.988 13.1617 137.372 13.0407 137.679 12.7985C137.99 12.5532 138.222 12.2241 138.378 11.8112C138.536 11.3952 138.615 10.9326 138.615 10.4235C138.615 9.92051 138.537 9.46723 138.382 9.06363C138.23 8.65692 137.999 8.33559 137.688 8.09964C137.381 7.86058 136.994 7.74105 136.529 7.74105C136.082 7.74105 135.706 7.85437 135.402 8.08101C135.098 8.30454 134.868 8.61811 134.713 9.02171C134.557 9.42221 134.48 9.88946 134.48 10.4235ZM141.847 16.6824C141.661 16.6824 141.495 16.6669 141.349 16.6358C141.203 16.6079 141.102 16.58 141.046 16.552L141.325 15.5834C141.592 15.6517 141.828 15.6765 142.033 15.6579C142.238 15.6392 142.42 15.5477 142.578 15.3831C142.74 15.2217 142.887 14.9593 143.021 14.5961L143.225 14.0373L140.58 6.84692H141.773L143.747 12.547H143.822L145.796 6.84692H146.988L143.952 15.0432C143.815 15.4126 143.646 15.7184 143.444 15.9606C143.243 16.2058 143.008 16.3875 142.741 16.5054C142.477 16.6234 142.179 16.6824 141.847 16.6824Z" fill="white"/>
</svg>
