<svg width="27" height="27" viewBox="0 0 27 27" fill="none" xmlns="http://www.w3.org/2000/svg">
<circle cx="13.4875" cy="13.4875" r="13.4875" fill="#C1A968"/>
<circle cx="13.4875" cy="13.4875" r="13.4875" fill="#4C52D1"/>
<path fill-rule="evenodd" clip-rule="evenodd" d="M13.4857 5.99512C9.34732 5.99512 5.99268 9.34976 5.99268 13.4882C5.99268 14.9044 6.38606 16.2306 7.07018 17.3606L6.4018 19.6325C6.36342 19.7629 6.3609 19.9013 6.39449 20.033C6.42808 20.1648 6.49654 20.2851 6.59269 20.3812C6.68883 20.4774 6.80911 20.5458 6.94086 20.5794C7.07261 20.613 7.21098 20.6105 7.34143 20.5721L9.61332 19.9037C10.7813 20.6103 12.1207 20.983 13.4857 20.9812C17.6241 20.9812 20.9788 17.6266 20.9788 13.4882C20.9788 9.34976 17.6241 5.99512 13.4857 5.99512ZM11.7908 15.1839C13.3066 16.6989 14.7536 16.899 15.2646 16.9177C16.0416 16.9462 16.7984 16.3528 17.0929 15.6642C17.1298 15.5784 17.1431 15.4844 17.1315 15.3918C17.1199 15.2992 17.0838 15.2114 17.027 15.1374C16.6163 14.6129 16.0611 14.236 15.5186 13.8613C15.4054 13.7828 15.2661 13.7513 15.1302 13.7734C14.9942 13.7955 14.8721 13.8694 14.7895 13.9797L14.3399 14.6653C14.3162 14.7021 14.2794 14.7284 14.2369 14.7389C14.1945 14.7495 14.1496 14.7436 14.1114 14.7223C13.8064 14.5477 13.3621 14.251 13.0429 13.9318C12.7237 13.6126 12.4449 13.1885 12.2883 12.903C12.2694 12.8666 12.264 12.8247 12.2732 12.7847C12.2824 12.7447 12.3056 12.7093 12.3385 12.6849L13.0309 12.1709C13.13 12.0852 13.194 11.9659 13.2106 11.8359C13.2272 11.7059 13.1952 11.5744 13.1208 11.4665C12.7851 10.975 12.394 10.3501 11.8268 9.93572C11.7534 9.88301 11.6677 9.85014 11.5779 9.84029C11.4881 9.83045 11.3973 9.84396 11.3142 9.87952C10.6249 10.1747 10.0284 10.9315 10.0569 11.7101C10.0756 12.2211 10.2757 13.668 11.7908 15.1839Z" fill="white"/>
</svg>
