<svg width="27" height="27" viewBox="0 0 27 27" fill="none" xmlns="http://www.w3.org/2000/svg">
<circle cx="13.4875" cy="13.4875" r="13.4875" fill="#C1A968"/>
<circle cx="13.4875" cy="13.4875" r="13.4875" fill="#4C52D1"/>
<path d="M18.6763 8.78307C17.7036 8.33821 16.6706 8.01398 15.5923 7.83301C15.4566 8.06675 15.3058 8.38344 15.2002 8.63227C14.0534 8.46638 12.9148 8.46638 11.7838 8.63227C11.6782 8.38344 11.5198 8.06675 11.3916 7.83301C10.3059 8.01398 9.27287 8.3382 8.30697 8.78307C6.35407 11.6634 5.82625 14.4759 6.09016 17.2507C7.38707 18.1932 8.63876 18.7663 9.86856 19.1433C10.1702 18.7361 10.4416 18.2988 10.6754 17.8388C10.2305 17.6729 9.80824 17.4694 9.40107 17.2281C9.50664 17.1527 9.6122 17.0698 9.71022 16.9868C12.1683 18.1103 14.8308 18.1103 17.2587 16.9868C17.3642 17.0698 17.4623 17.1527 17.5679 17.2281C17.1607 17.4693 16.7384 17.6729 16.2935 17.8388C16.5273 18.2988 16.7988 18.7361 17.1003 19.1433C18.3294 18.7663 19.5886 18.1932 20.8787 17.2507C21.2029 14.0386 20.3652 11.2487 18.6763 8.78307ZM11.0147 15.5391C10.2757 15.5391 9.67249 14.868 9.67249 14.0461C9.67249 13.2243 10.2606 12.5532 11.0147 12.5532C11.7611 12.5532 12.3719 13.2243 12.3568 14.0461C12.3568 14.868 11.7611 15.5391 11.0147 15.5391ZM15.9693 15.5391C15.2304 15.5391 14.6264 14.868 14.6264 14.0461C14.6264 13.2243 15.2153 12.5532 15.9693 12.5532C16.7158 12.5532 17.3265 13.2243 17.3115 14.0461C17.3115 14.868 16.7234 15.5391 15.9693 15.5391Z" fill="white"/>
<path d="M18.6763 8.78307C17.7036 8.33821 16.6706 8.01398 15.5923 7.83301C15.4566 8.06675 15.3058 8.38344 15.2002 8.63227C14.0534 8.46638 12.9148 8.46638 11.7838 8.63227C11.6782 8.38344 11.5198 8.06675 11.3916 7.83301C10.3059 8.01398 9.27287 8.3382 8.30697 8.78307C6.35407 11.6634 5.82625 14.4759 6.09016 17.2507C7.38707 18.1932 8.63876 18.7663 9.86856 19.1433C10.1702 18.7361 10.4416 18.2988 10.6754 17.8388C10.2305 17.6729 9.80824 17.4694 9.40107 17.2281C9.50664 17.1527 9.6122 17.0698 9.71022 16.9868C12.1683 18.1103 14.8308 18.1103 17.2587 16.9868C17.3642 17.0698 17.4623 17.1527 17.5679 17.2281C17.1607 17.4693 16.7384 17.6729 16.2935 17.8388C16.5273 18.2988 16.7988 18.7361 17.1003 19.1433C18.3294 18.7663 19.5886 18.1932 20.8787 17.2507C21.2029 14.0386 20.3652 11.2487 18.6763 8.78307ZM11.0147 15.5391C10.2757 15.5391 9.67249 14.868 9.67249 14.0461C9.67249 13.2243 10.2606 12.5532 11.0147 12.5532C11.7611 12.5532 12.3719 13.2243 12.3568 14.0461C12.3568 14.868 11.7611 15.5391 11.0147 15.5391ZM15.9693 15.5391C15.2304 15.5391 14.6264 14.868 14.6264 14.0461C14.6264 13.2243 15.2153 12.5532 15.9693 12.5532C16.7158 12.5532 17.3265 13.2243 17.3115 14.0461C17.3115 14.868 16.7234 15.5391 15.9693 15.5391Z" fill="white"/>
</svg>
