<svg width="367" height="196" viewBox="0 0 367 196" fill="none" xmlns="http://www.w3.org/2000/svg">
<rect x="0.634325" y="0.634203" width="364.935" height="194.293" rx="17.4064" fill="#191A21" fill-opacity="0.36"/>
<rect x="0.634325" y="0.634203" width="364.935" height="194.293" rx="17.4064" stroke="black" stroke-width="1.2687"/>
<rect x="0.634325" y="0.634203" width="364.935" height="194.293" rx="17.4064" stroke="url(#paint0_linear_126_213)" stroke-width="1.2687"/>
<path d="M55.8443 69.623L49.9747 48.1571H52.616L57.1021 65.6401H57.3117L61.8816 48.1571H64.8164L69.3863 65.6401H69.5959L74.082 48.1571H76.7233L70.8537 69.623H68.1704L63.4328 52.5174H63.2651L58.5275 69.623H55.8443ZM79.6266 69.623V53.5236H82.1003V69.623H79.6266ZM80.8844 50.8404C80.4023 50.8404 79.9865 50.6761 79.6371 50.3477C79.2947 50.0193 79.1235 49.6245 79.1235 49.1633C79.1235 48.7021 79.2947 48.3073 79.6371 47.9789C79.9865 47.6505 80.4023 47.4863 80.8844 47.4863C81.3666 47.4863 81.7788 47.6505 82.1212 47.9789C82.4706 48.3073 82.6453 48.7021 82.6453 49.1633C82.6453 49.6245 82.4706 50.0193 82.1212 50.3477C81.7788 50.6761 81.3666 50.8404 80.8844 50.8404ZM89.1045 59.9382V69.623H86.6308V53.5236H89.0206V56.0391H89.2302C89.6076 55.2216 90.1805 54.5647 90.9492 54.0686C91.7178 53.5655 92.7101 53.314 93.9259 53.314C95.016 53.314 95.9698 53.5376 96.7873 53.9848C97.6049 54.425 98.2408 55.0958 98.695 55.9972C99.1491 56.8916 99.3762 58.0236 99.3762 59.3932V69.623H96.9026V59.5609C96.9026 58.2961 96.5742 57.3109 95.9174 56.6051C95.2605 55.8924 94.3591 55.536 93.2132 55.536C92.4236 55.536 91.7178 55.7072 91.0959 56.0496C90.481 56.392 89.9954 56.8916 89.639 57.5485C89.2826 58.2053 89.1045 59.0019 89.1045 59.9382ZM106.37 59.9382V69.623H103.896V53.5236H106.286V56.0391H106.496C106.873 55.2216 107.446 54.5647 108.215 54.0686C108.983 53.5655 109.976 53.314 111.191 53.314C112.281 53.314 113.235 53.5376 114.053 53.9848C114.87 54.425 115.506 55.0958 115.96 55.9972C116.415 56.8916 116.642 58.0236 116.642 59.3932V69.623H114.168V59.5609C114.168 58.2961 113.84 57.3109 113.183 56.6051C112.526 55.8924 111.625 55.536 110.479 55.536C109.689 55.536 108.983 55.7072 108.361 56.0496C107.747 56.392 107.261 56.8916 106.905 57.5485C106.548 58.2053 106.37 59.0019 106.37 59.9382ZM127.912 69.9585C126.361 69.9585 125.023 69.6161 123.898 68.9313C122.779 68.2395 121.917 67.2752 121.309 66.0384C120.708 64.7946 120.407 63.3482 120.407 61.6991C120.407 60.05 120.708 58.5966 121.309 57.3388C121.917 56.0741 122.762 55.0888 123.845 54.3831C124.935 53.6703 126.207 53.314 127.66 53.314C128.499 53.314 129.327 53.4537 130.144 53.7332C130.962 54.0127 131.706 54.4669 132.377 55.0958C133.048 55.7177 133.582 56.5422 133.981 57.5694C134.379 58.5966 134.578 59.8614 134.578 61.3637V62.4118H122.168V60.2736H132.063C132.063 59.3652 131.881 58.5547 131.518 57.8419C131.161 57.1292 130.651 56.5667 129.987 56.1544C129.33 55.7422 128.555 55.536 127.66 55.536C126.675 55.536 125.823 55.7806 125.103 56.2697C124.39 56.7519 123.842 57.3808 123.457 58.1564C123.073 58.932 122.881 59.7635 122.881 60.651V62.0764C122.881 63.2923 123.09 64.3229 123.51 65.1684C123.936 66.007 124.526 66.6463 125.281 67.0865C126.036 67.5198 126.913 67.7364 127.912 67.7364C128.562 67.7364 129.149 67.6456 129.673 67.4639C130.204 67.2752 130.662 66.9957 131.046 66.6254C131.43 66.248 131.727 65.7799 131.937 65.2209L134.327 65.8917C134.075 66.7022 133.652 67.415 133.058 68.0299C132.464 68.6378 131.731 69.113 130.857 69.4553C129.984 69.7907 129.002 69.9585 127.912 69.9585ZM138.341 69.623V53.5236H140.731V55.9553H140.898C141.192 55.1587 141.723 54.5123 142.492 54.0162C143.26 53.5201 144.127 53.272 145.091 53.272C145.273 53.272 145.5 53.2755 145.772 53.2825C146.045 53.2895 146.251 53.3 146.391 53.314V55.8295C146.307 55.8085 146.115 55.7771 145.814 55.7352C145.521 55.6863 145.21 55.6618 144.881 55.6618C144.099 55.6618 143.4 55.826 142.785 56.1544C142.177 56.4759 141.695 56.9231 141.339 57.496C140.989 58.062 140.815 58.7084 140.815 59.4351V69.623H138.341Z" fill="#1C1C1C"/>
<path d="M55.8443 69.623L49.9747 48.1571H52.616L57.1021 65.6401H57.3117L61.8816 48.1571H64.8164L69.3863 65.6401H69.5959L74.082 48.1571H76.7233L70.8537 69.623H68.1704L63.4328 52.5174H63.2651L58.5275 69.623H55.8443ZM79.6266 69.623V53.5236H82.1003V69.623H79.6266ZM80.8844 50.8404C80.4023 50.8404 79.9865 50.6761 79.6371 50.3477C79.2947 50.0193 79.1235 49.6245 79.1235 49.1633C79.1235 48.7021 79.2947 48.3073 79.6371 47.9789C79.9865 47.6505 80.4023 47.4863 80.8844 47.4863C81.3666 47.4863 81.7788 47.6505 82.1212 47.9789C82.4706 48.3073 82.6453 48.7021 82.6453 49.1633C82.6453 49.6245 82.4706 50.0193 82.1212 50.3477C81.7788 50.6761 81.3666 50.8404 80.8844 50.8404ZM89.1045 59.9382V69.623H86.6308V53.5236H89.0206V56.0391H89.2302C89.6076 55.2216 90.1805 54.5647 90.9492 54.0686C91.7178 53.5655 92.7101 53.314 93.9259 53.314C95.016 53.314 95.9698 53.5376 96.7873 53.9848C97.6049 54.425 98.2408 55.0958 98.695 55.9972C99.1491 56.8916 99.3762 58.0236 99.3762 59.3932V69.623H96.9026V59.5609C96.9026 58.2961 96.5742 57.3109 95.9174 56.6051C95.2605 55.8924 94.3591 55.536 93.2132 55.536C92.4236 55.536 91.7178 55.7072 91.0959 56.0496C90.481 56.392 89.9954 56.8916 89.639 57.5485C89.2826 58.2053 89.1045 59.0019 89.1045 59.9382ZM106.37 59.9382V69.623H103.896V53.5236H106.286V56.0391H106.496C106.873 55.2216 107.446 54.5647 108.215 54.0686C108.983 53.5655 109.976 53.314 111.191 53.314C112.281 53.314 113.235 53.5376 114.053 53.9848C114.87 54.425 115.506 55.0958 115.96 55.9972C116.415 56.8916 116.642 58.0236 116.642 59.3932V69.623H114.168V59.5609C114.168 58.2961 113.84 57.3109 113.183 56.6051C112.526 55.8924 111.625 55.536 110.479 55.536C109.689 55.536 108.983 55.7072 108.361 56.0496C107.747 56.392 107.261 56.8916 106.905 57.5485C106.548 58.2053 106.37 59.0019 106.37 59.9382ZM127.912 69.9585C126.361 69.9585 125.023 69.6161 123.898 68.9313C122.779 68.2395 121.917 67.2752 121.309 66.0384C120.708 64.7946 120.407 63.3482 120.407 61.6991C120.407 60.05 120.708 58.5966 121.309 57.3388C121.917 56.0741 122.762 55.0888 123.845 54.3831C124.935 53.6703 126.207 53.314 127.66 53.314C128.499 53.314 129.327 53.4537 130.144 53.7332C130.962 54.0127 131.706 54.4669 132.377 55.0958C133.048 55.7177 133.582 56.5422 133.981 57.5694C134.379 58.5966 134.578 59.8614 134.578 61.3637V62.4118H122.168V60.2736H132.063C132.063 59.3652 131.881 58.5547 131.518 57.8419C131.161 57.1292 130.651 56.5667 129.987 56.1544C129.33 55.7422 128.555 55.536 127.66 55.536C126.675 55.536 125.823 55.7806 125.103 56.2697C124.39 56.7519 123.842 57.3808 123.457 58.1564C123.073 58.932 122.881 59.7635 122.881 60.651V62.0764C122.881 63.2923 123.09 64.3229 123.51 65.1684C123.936 66.007 124.526 66.6463 125.281 67.0865C126.036 67.5198 126.913 67.7364 127.912 67.7364C128.562 67.7364 129.149 67.6456 129.673 67.4639C130.204 67.2752 130.662 66.9957 131.046 66.6254C131.43 66.248 131.727 65.7799 131.937 65.2209L134.327 65.8917C134.075 66.7022 133.652 67.415 133.058 68.0299C132.464 68.6378 131.731 69.113 130.857 69.4553C129.984 69.7907 129.002 69.9585 127.912 69.9585ZM138.341 69.623V53.5236H140.731V55.9553H140.898C141.192 55.1587 141.723 54.5123 142.492 54.0162C143.26 53.5201 144.127 53.272 145.091 53.272C145.273 53.272 145.5 53.2755 145.772 53.2825C146.045 53.2895 146.251 53.3 146.391 53.314V55.8295C146.307 55.8085 146.115 55.7771 145.814 55.7352C145.521 55.6863 145.21 55.6618 144.881 55.6618C144.099 55.6618 143.4 55.826 142.785 56.1544C142.177 56.4759 141.695 56.9231 141.339 57.496C140.989 58.062 140.815 58.7084 140.815 59.4351V69.623H138.341Z" fill="url(#paint1_linear_126_213)"/>
<path d="M57.2712 148.322V112.522H60.5912V148.322H57.2712ZM58.9912 145.002C56.8045 145.002 54.9512 144.615 53.4312 143.842C51.9112 143.068 50.7378 141.935 49.9112 140.442C49.1112 138.948 48.6312 137.095 48.4712 134.882L54.6312 134.602C54.7912 135.748 55.0578 136.708 55.4312 137.482C55.8045 138.228 56.2978 138.788 56.9112 139.162C57.5245 139.535 58.2978 139.722 59.2312 139.722C60.1645 139.722 60.9378 139.628 61.5512 139.442C62.1645 139.228 62.6178 138.922 62.9112 138.522C63.2045 138.095 63.3512 137.588 63.3512 137.002C63.3512 136.282 63.1778 135.682 62.8312 135.202C62.5112 134.695 61.9112 134.242 61.0312 133.842C60.1778 133.442 58.9512 133.068 57.3512 132.722C55.6445 132.348 54.1778 131.828 52.9512 131.162C51.7245 130.468 50.7778 129.575 50.1112 128.482C49.4445 127.388 49.1112 126.042 49.1112 124.442C49.1112 122.762 49.4845 121.295 50.2312 120.042C50.9778 118.788 52.0712 117.815 53.5112 117.122C54.9778 116.428 56.7645 116.082 58.8712 116.082C60.9245 116.082 62.6712 116.442 64.1112 117.162C65.5778 117.882 66.7112 118.935 67.5112 120.322C68.3378 121.708 68.8178 123.402 68.9512 125.402L62.7912 125.682C62.6578 124.748 62.4445 123.962 62.1512 123.322C61.8845 122.682 61.4578 122.202 60.8712 121.882C60.3112 121.535 59.5512 121.362 58.5912 121.362C57.3378 121.362 56.3912 121.615 55.7512 122.122C55.1378 122.602 54.8312 123.282 54.8312 124.162C54.8312 124.828 54.9778 125.375 55.2712 125.802C55.5645 126.228 56.1112 126.615 56.9112 126.962C57.7378 127.282 58.8978 127.628 60.3912 128.002C62.6312 128.562 64.3912 129.242 65.6712 130.042C66.9512 130.815 67.8578 131.748 68.3912 132.842C68.9245 133.935 69.1912 135.215 69.1912 136.682C69.1912 138.468 68.7912 139.975 67.9912 141.202C67.1912 142.428 66.0312 143.375 64.5112 144.042C62.9912 144.682 61.1512 145.002 58.9912 145.002ZM84.0556 144.682V139.162H71.7756V133.962L83.0956 116.282H90.4956V133.682H93.8556V139.162H90.4956V144.682H84.0556ZM77.7356 133.682H84.0556V124.202L77.7356 133.682ZM100.16 139.882L110.24 120.722L113.44 121.082L103.36 140.242L100.16 139.882ZM106.8 145.322C104.64 145.322 102.787 144.735 101.24 143.562C99.7199 142.362 98.5466 140.655 97.7199 138.442C96.8933 136.228 96.4799 133.588 96.4799 130.522C96.4799 127.455 96.8933 124.815 97.7199 122.602C98.5466 120.362 99.7199 118.642 101.24 117.442C102.787 116.242 104.64 115.642 106.8 115.642C108.96 115.642 110.8 116.242 112.32 117.442C113.867 118.642 115.053 120.362 115.88 122.602C116.707 124.815 117.12 127.455 117.12 130.522C117.12 133.588 116.707 136.228 115.88 138.442C115.053 140.655 113.867 142.362 112.32 143.562C110.8 144.735 108.96 145.322 106.8 145.322ZM106.8 139.722C107.6 139.722 108.267 139.402 108.8 138.762C109.36 138.122 109.787 137.122 110.08 135.762C110.373 134.375 110.52 132.628 110.52 130.522C110.52 128.388 110.373 126.642 110.08 125.282C109.787 123.895 109.36 122.882 108.8 122.242C108.267 121.575 107.6 121.242 106.8 121.242C106.027 121.242 105.36 121.575 104.8 122.242C104.24 122.882 103.813 123.895 103.52 125.282C103.227 126.642 103.08 128.388 103.08 130.522C103.08 132.628 103.227 134.375 103.52 135.762C103.813 137.122 104.24 138.122 104.8 138.762C105.36 139.402 106.027 139.722 106.8 139.722ZM124.144 139.882L134.224 120.722L137.424 121.082L127.344 140.242L124.144 139.882ZM130.784 145.322C128.624 145.322 126.771 144.735 125.224 143.562C123.704 142.362 122.531 140.655 121.704 138.442C120.878 136.228 120.464 133.588 120.464 130.522C120.464 127.455 120.878 124.815 121.704 122.602C122.531 120.362 123.704 118.642 125.224 117.442C126.771 116.242 128.624 115.642 130.784 115.642C132.944 115.642 134.784 116.242 136.304 117.442C137.851 118.642 139.038 120.362 139.864 122.602C140.691 124.815 141.104 127.455 141.104 130.522C141.104 133.588 140.691 136.228 139.864 138.442C139.038 140.655 137.851 142.362 136.304 143.562C134.784 144.735 132.944 145.322 130.784 145.322ZM130.784 139.722C131.584 139.722 132.251 139.402 132.784 138.762C133.344 138.122 133.771 137.122 134.064 135.762C134.358 134.375 134.504 132.628 134.504 130.522C134.504 128.388 134.358 126.642 134.064 125.282C133.771 123.895 133.344 122.882 132.784 122.242C132.251 121.575 131.584 121.242 130.784 121.242C130.011 121.242 129.344 121.575 128.784 122.242C128.224 122.882 127.798 123.895 127.504 125.282C127.211 126.642 127.064 128.388 127.064 130.522C127.064 132.628 127.211 134.375 127.504 135.762C127.798 137.122 128.224 138.122 128.784 138.762C129.344 139.402 130.011 139.722 130.784 139.722ZM148.129 139.882L158.209 120.722L161.409 121.082L151.329 140.242L148.129 139.882ZM154.769 145.322C152.609 145.322 150.755 144.735 149.209 143.562C147.689 142.362 146.515 140.655 145.689 138.442C144.862 136.228 144.449 133.588 144.449 130.522C144.449 127.455 144.862 124.815 145.689 122.602C146.515 120.362 147.689 118.642 149.209 117.442C150.755 116.242 152.609 115.642 154.769 115.642C156.929 115.642 158.769 116.242 160.289 117.442C161.835 118.642 163.022 120.362 163.849 122.602C164.675 124.815 165.089 127.455 165.089 130.522C165.089 133.588 164.675 136.228 163.849 138.442C163.022 140.655 161.835 142.362 160.289 143.562C158.769 144.735 156.929 145.322 154.769 145.322ZM154.769 139.722C155.569 139.722 156.235 139.402 156.769 138.762C157.329 138.122 157.755 137.122 158.049 135.762C158.342 134.375 158.489 132.628 158.489 130.522C158.489 128.388 158.342 126.642 158.049 125.282C157.755 123.895 157.329 122.882 156.769 122.242C156.235 121.575 155.569 121.242 154.769 121.242C153.995 121.242 153.329 121.575 152.769 122.242C152.209 122.882 151.782 123.895 151.489 125.282C151.195 126.642 151.049 128.388 151.049 130.522C151.049 132.628 151.195 134.375 151.489 135.762C151.782 137.122 152.209 138.122 152.769 138.762C153.329 139.402 153.995 139.722 154.769 139.722Z" fill="#1C1C1C"/>
<path d="M57.2712 148.322V112.522H60.5912V148.322H57.2712ZM58.9912 145.002C56.8045 145.002 54.9512 144.615 53.4312 143.842C51.9112 143.068 50.7378 141.935 49.9112 140.442C49.1112 138.948 48.6312 137.095 48.4712 134.882L54.6312 134.602C54.7912 135.748 55.0578 136.708 55.4312 137.482C55.8045 138.228 56.2978 138.788 56.9112 139.162C57.5245 139.535 58.2978 139.722 59.2312 139.722C60.1645 139.722 60.9378 139.628 61.5512 139.442C62.1645 139.228 62.6178 138.922 62.9112 138.522C63.2045 138.095 63.3512 137.588 63.3512 137.002C63.3512 136.282 63.1778 135.682 62.8312 135.202C62.5112 134.695 61.9112 134.242 61.0312 133.842C60.1778 133.442 58.9512 133.068 57.3512 132.722C55.6445 132.348 54.1778 131.828 52.9512 131.162C51.7245 130.468 50.7778 129.575 50.1112 128.482C49.4445 127.388 49.1112 126.042 49.1112 124.442C49.1112 122.762 49.4845 121.295 50.2312 120.042C50.9778 118.788 52.0712 117.815 53.5112 117.122C54.9778 116.428 56.7645 116.082 58.8712 116.082C60.9245 116.082 62.6712 116.442 64.1112 117.162C65.5778 117.882 66.7112 118.935 67.5112 120.322C68.3378 121.708 68.8178 123.402 68.9512 125.402L62.7912 125.682C62.6578 124.748 62.4445 123.962 62.1512 123.322C61.8845 122.682 61.4578 122.202 60.8712 121.882C60.3112 121.535 59.5512 121.362 58.5912 121.362C57.3378 121.362 56.3912 121.615 55.7512 122.122C55.1378 122.602 54.8312 123.282 54.8312 124.162C54.8312 124.828 54.9778 125.375 55.2712 125.802C55.5645 126.228 56.1112 126.615 56.9112 126.962C57.7378 127.282 58.8978 127.628 60.3912 128.002C62.6312 128.562 64.3912 129.242 65.6712 130.042C66.9512 130.815 67.8578 131.748 68.3912 132.842C68.9245 133.935 69.1912 135.215 69.1912 136.682C69.1912 138.468 68.7912 139.975 67.9912 141.202C67.1912 142.428 66.0312 143.375 64.5112 144.042C62.9912 144.682 61.1512 145.002 58.9912 145.002ZM84.0556 144.682V139.162H71.7756V133.962L83.0956 116.282H90.4956V133.682H93.8556V139.162H90.4956V144.682H84.0556ZM77.7356 133.682H84.0556V124.202L77.7356 133.682ZM100.16 139.882L110.24 120.722L113.44 121.082L103.36 140.242L100.16 139.882ZM106.8 145.322C104.64 145.322 102.787 144.735 101.24 143.562C99.7199 142.362 98.5466 140.655 97.7199 138.442C96.8933 136.228 96.4799 133.588 96.4799 130.522C96.4799 127.455 96.8933 124.815 97.7199 122.602C98.5466 120.362 99.7199 118.642 101.24 117.442C102.787 116.242 104.64 115.642 106.8 115.642C108.96 115.642 110.8 116.242 112.32 117.442C113.867 118.642 115.053 120.362 115.88 122.602C116.707 124.815 117.12 127.455 117.12 130.522C117.12 133.588 116.707 136.228 115.88 138.442C115.053 140.655 113.867 142.362 112.32 143.562C110.8 144.735 108.96 145.322 106.8 145.322ZM106.8 139.722C107.6 139.722 108.267 139.402 108.8 138.762C109.36 138.122 109.787 137.122 110.08 135.762C110.373 134.375 110.52 132.628 110.52 130.522C110.52 128.388 110.373 126.642 110.08 125.282C109.787 123.895 109.36 122.882 108.8 122.242C108.267 121.575 107.6 121.242 106.8 121.242C106.027 121.242 105.36 121.575 104.8 122.242C104.24 122.882 103.813 123.895 103.52 125.282C103.227 126.642 103.08 128.388 103.08 130.522C103.08 132.628 103.227 134.375 103.52 135.762C103.813 137.122 104.24 138.122 104.8 138.762C105.36 139.402 106.027 139.722 106.8 139.722ZM124.144 139.882L134.224 120.722L137.424 121.082L127.344 140.242L124.144 139.882ZM130.784 145.322C128.624 145.322 126.771 144.735 125.224 143.562C123.704 142.362 122.531 140.655 121.704 138.442C120.878 136.228 120.464 133.588 120.464 130.522C120.464 127.455 120.878 124.815 121.704 122.602C122.531 120.362 123.704 118.642 125.224 117.442C126.771 116.242 128.624 115.642 130.784 115.642C132.944 115.642 134.784 116.242 136.304 117.442C137.851 118.642 139.038 120.362 139.864 122.602C140.691 124.815 141.104 127.455 141.104 130.522C141.104 133.588 140.691 136.228 139.864 138.442C139.038 140.655 137.851 142.362 136.304 143.562C134.784 144.735 132.944 145.322 130.784 145.322ZM130.784 139.722C131.584 139.722 132.251 139.402 132.784 138.762C133.344 138.122 133.771 137.122 134.064 135.762C134.358 134.375 134.504 132.628 134.504 130.522C134.504 128.388 134.358 126.642 134.064 125.282C133.771 123.895 133.344 122.882 132.784 122.242C132.251 121.575 131.584 121.242 130.784 121.242C130.011 121.242 129.344 121.575 128.784 122.242C128.224 122.882 127.798 123.895 127.504 125.282C127.211 126.642 127.064 128.388 127.064 130.522C127.064 132.628 127.211 134.375 127.504 135.762C127.798 137.122 128.224 138.122 128.784 138.762C129.344 139.402 130.011 139.722 130.784 139.722ZM148.129 139.882L158.209 120.722L161.409 121.082L151.329 140.242L148.129 139.882ZM154.769 145.322C152.609 145.322 150.755 144.735 149.209 143.562C147.689 142.362 146.515 140.655 145.689 138.442C144.862 136.228 144.449 133.588 144.449 130.522C144.449 127.455 144.862 124.815 145.689 122.602C146.515 120.362 147.689 118.642 149.209 117.442C150.755 116.242 152.609 115.642 154.769 115.642C156.929 115.642 158.769 116.242 160.289 117.442C161.835 118.642 163.022 120.362 163.849 122.602C164.675 124.815 165.089 127.455 165.089 130.522C165.089 133.588 164.675 136.228 163.849 138.442C163.022 140.655 161.835 142.362 160.289 143.562C158.769 144.735 156.929 145.322 154.769 145.322ZM154.769 139.722C155.569 139.722 156.235 139.402 156.769 138.762C157.329 138.122 157.755 137.122 158.049 135.762C158.342 134.375 158.489 132.628 158.489 130.522C158.489 128.388 158.342 126.642 158.049 125.282C157.755 123.895 157.329 122.882 156.769 122.242C156.235 121.575 155.569 121.242 154.769 121.242C153.995 121.242 153.329 121.575 152.769 122.242C152.209 122.882 151.782 123.895 151.489 125.282C151.195 126.642 151.049 128.388 151.049 130.522C151.049 132.628 151.195 134.375 151.489 135.762C151.782 137.122 152.209 138.122 152.769 138.762C153.329 139.402 153.995 139.722 154.769 139.722Z" fill="url(#paint2_linear_126_213)"/>
<defs>
<linearGradient id="paint0_linear_126_213" x1="1.26868" y1="97.7808" x2="364.935" y2="97.7808" gradientUnits="userSpaceOnUse">
<stop stop-color="#CFA944"/>
<stop offset="0.05" stop-color="#F7EF8A"/>
<stop offset="0.0629" stop-color="#F5EB86"/>
<stop offset="0.1744" stop-color="#E4CE69"/>
<stop offset="0.2854" stop-color="#D8BA55"/>
<stop offset="0.3946" stop-color="#D1AD48"/>
<stop offset="0.5" stop-color="#CFA944"/>
<stop offset="0.6054" stop-color="#D1AD48"/>
<stop offset="0.7146" stop-color="#D8BA55"/>
<stop offset="0.8256" stop-color="#E4CE69"/>
<stop offset="0.9371" stop-color="#F5EB86"/>
<stop offset="0.95" stop-color="#F7EF8A"/>
<stop offset="1" stop-color="#CFA944"/>
</linearGradient>
<linearGradient id="paint1_linear_126_213" x1="49.3458" y1="58.6231" x2="147.346" y2="58.6231" gradientUnits="userSpaceOnUse">
<stop stop-color="#CFA944"/>
<stop offset="0.05" stop-color="#F7EF8A"/>
<stop offset="0.0629" stop-color="#F5EB86"/>
<stop offset="0.1744" stop-color="#E4CE69"/>
<stop offset="0.2854" stop-color="#D8BA55"/>
<stop offset="0.3946" stop-color="#D1AD48"/>
<stop offset="0.5" stop-color="#CFA944"/>
<stop offset="0.6054" stop-color="#D1AD48"/>
<stop offset="0.7146" stop-color="#D8BA55"/>
<stop offset="0.8256" stop-color="#E4CE69"/>
<stop offset="0.9371" stop-color="#F5EB86"/>
<stop offset="0.95" stop-color="#F7EF8A"/>
<stop offset="1" stop-color="#CFA944"/>
</linearGradient>
<linearGradient id="paint2_linear_126_213" x1="46.8312" y1="130.682" x2="166.831" y2="130.682" gradientUnits="userSpaceOnUse">
<stop stop-color="#CFA944"/>
<stop offset="0.05" stop-color="#F7EF8A"/>
<stop offset="0.0629" stop-color="#F5EB86"/>
<stop offset="0.1744" stop-color="#E4CE69"/>
<stop offset="0.2854" stop-color="#D8BA55"/>
<stop offset="0.3946" stop-color="#D1AD48"/>
<stop offset="0.5" stop-color="#CFA944"/>
<stop offset="0.6054" stop-color="#D1AD48"/>
<stop offset="0.7146" stop-color="#D8BA55"/>
<stop offset="0.8256" stop-color="#E4CE69"/>
<stop offset="0.9371" stop-color="#F5EB86"/>
<stop offset="0.95" stop-color="#F7EF8A"/>
<stop offset="1" stop-color="#CFA944"/>
</linearGradient>
</defs>
</svg>
