<svg width="575" height="143" viewBox="0 0 575 143" fill="none" xmlns="http://www.w3.org/2000/svg">
<path d="M5.24552 80.4095H53.5595V101.806L14.6322 114.298V119.337H53.5595V128.724H5.24552V107.396L44.1038 94.9037V89.8653H5.24552V80.4095ZM93.1921 80.4095C105.064 80.4785 114.726 90.1413 114.795 102.013V107.189C114.726 119.061 105.064 128.724 93.1921 128.724H83.3222C71.4508 128.724 61.788 119.061 61.788 107.189V102.013C61.788 90.1413 71.4508 80.4785 83.3222 80.4095H93.1921ZM105.34 108.087V101.116C105.34 94.9037 100.301 89.8653 94.0894 89.8653H82.425C76.2132 89.8653 71.1747 94.9037 71.1747 101.116V108.087C71.1747 114.298 76.2132 119.337 82.425 119.337H94.0894C100.301 119.337 105.34 114.298 105.34 108.087ZM123.065 80.4095H171.379V101.806L132.452 114.298V119.337H171.379V128.724H123.065V107.396L161.923 94.9037V89.8653H123.065V80.4095ZM181.164 94.9037V80.4095H229.478V89.8653H190.551V94.9037C190.551 97.6645 192.759 99.8732 195.589 99.8732H214.984C222.99 99.8732 229.409 106.361 229.409 114.298C229.409 122.305 222.99 128.724 214.984 128.724H181.164V119.337H214.984C216.847 119.406 218.504 118.44 219.401 116.852C220.298 115.265 220.298 113.332 219.401 111.814C218.504 110.226 216.847 109.26 214.984 109.329H195.589C187.583 109.26 181.164 102.841 181.164 94.9037Z" fill="white"/>
<path d="M39.343 13.1401H14.9089V23.1484H39.343C42.173 23.1484 44.3817 20.9397 44.3817 18.1788C44.3817 15.3488 42.173 13.1401 39.343 13.1401ZM43.7605 35.0894C42.8632 33.5019 41.2067 32.5355 39.343 32.6046H14.9089V42.6129H39.343C41.2067 42.6819 42.8632 41.7156 43.7605 40.1281C44.6578 38.5405 44.6578 36.6079 43.7605 35.0894ZM5.52183 52V3.68398H39.343C45.0719 3.68398 50.2487 7.0661 52.5954 12.3118C54.8732 17.5576 53.9069 23.6316 50.0416 27.842C53.9069 32.1214 54.8732 38.1954 52.5954 43.4412C50.2487 48.6869 45.0719 52.069 39.343 52H5.52183ZM62.5223 30.4649V3.68398H71.9094V31.3622C71.9094 37.5742 76.9481 42.6129 83.1602 42.6129H90.1315C96.3435 42.6129 101.382 37.5742 101.382 31.3622V3.68398H110.838V30.4649C110.769 42.3368 101.106 52 89.2342 52H84.0575C72.1855 52 62.5223 42.3368 62.5223 30.4649ZM130.239 52H120.852V3.68398H130.239V52ZM141.343 52V3.68398H150.73V42.6129H189.659V52H141.343ZM224.359 13.1401H206.137V42.6129H224.359C230.571 42.6129 235.61 37.5742 235.61 31.3622V24.3908C235.61 18.1788 230.571 13.1401 224.359 13.1401ZM196.75 52V3.68398H223.462C235.334 3.753 244.997 13.4162 245.066 25.2881V30.4649C244.997 42.3368 235.334 52 223.462 52H196.75ZM271.447 3.68398H282.836L308.098 52H297.469L277.176 13.1401L256.814 52H246.254L271.447 3.68398ZM302.953 3.68398H351.269V13.1401H331.804V52H322.348V13.1401H302.953V3.68398ZM358.253 52V3.68398H367.64V23.1484H397.113V3.68398H406.569V52H397.113V32.6046H367.64V52H358.253ZM447.108 3.68398C458.98 3.753 468.643 13.4162 468.712 25.2881V30.4649C468.643 42.3368 458.98 52 447.108 52H437.238C425.366 52 415.703 42.3368 415.703 30.4649V25.2881C415.703 13.4162 425.366 3.753 437.238 3.68398H447.108ZM459.256 31.3622V24.3908C459.256 18.1788 454.217 13.1401 448.005 13.1401H436.341C430.128 13.1401 425.09 18.1788 425.09 24.3908V31.3622C425.09 37.5742 430.128 42.6129 436.341 42.6129H448.005C454.217 42.6129 459.256 37.5742 459.256 31.3622ZM477.83 52V3.68398H499.158L511.651 42.6129H516.69V3.68398H526.146V52H504.749L492.256 13.1401H487.217V52H477.83Z" fill="url(#paint0_linear_91_218)"/>
<defs>
<linearGradient id="paint0_linear_91_218" x1="287.205" y1="0" x2="287.205" y2="66" gradientUnits="userSpaceOnUse">
<stop stop-color="white"/>
<stop offset="1" stop-color="#4C52D1"/>
</linearGradient>
</defs>
</svg>
