<svg width="35" height="35" viewBox="0 0 35 35" fill="none" xmlns="http://www.w3.org/2000/svg">
<path d="M24.8367 22.0906C24.5971 20.4628 23.782 18.9747 22.5392 17.8964C21.2965 16.8181 19.7084 16.221 18.063 16.2134H16.5296C14.8842 16.221 13.2961 16.8181 12.0533 17.8964C10.8106 18.9747 9.99547 20.4628 9.75591 22.0906L9.02089 27.2299C8.99741 27.3961 9.01293 27.5654 9.06621 27.7245C9.11949 27.8836 9.20907 28.0281 9.32787 28.1466C9.61611 28.4348 11.3845 29.9048 17.2977 29.9048C23.211 29.9048 24.975 28.4406 25.2676 28.1466C25.3864 28.0281 25.476 27.8836 25.5293 27.7245C25.5825 27.5654 25.598 27.3961 25.5746 27.2299L24.8367 22.0906Z" fill="#D0D0D0"/>
<path d="M10.895 17.0062C9.50212 18.2903 8.59585 20.0163 8.32966 21.8919L7.79641 25.5814C3.51603 25.5526 2.21895 23.9961 2.00277 23.679C1.9192 23.5638 1.85957 23.4331 1.82739 23.2944C1.79521 23.1558 1.79114 23.0121 1.81541 22.8719L2.13248 21.0848C2.29767 20.1509 2.68564 19.2705 3.2635 18.5184C3.84135 17.7663 4.59204 17.1646 5.45193 16.7643C6.31181 16.3641 7.25553 16.1771 8.20307 16.2192C9.1506 16.2613 10.074 16.5313 10.895 17.0062Z" fill="#D0D0D0"/>
<path d="M32.7729 22.8719C32.7972 23.0121 32.7931 23.1558 32.761 23.2944C32.7288 23.4331 32.6692 23.5638 32.5856 23.679C32.3694 23.9961 31.0723 25.5526 26.7919 25.5814L26.2587 21.8919C25.9925 20.0163 25.0862 18.2903 23.6934 17.0062C24.5143 16.5313 25.4378 16.2613 26.3853 16.2192C27.3328 16.1771 28.2765 16.3641 29.1364 16.7643C29.9963 17.1646 30.747 17.7663 31.3249 18.5184C31.9027 19.2705 32.2907 20.1509 32.4559 21.0848L32.7729 22.8719Z" fill="#D0D0D0"/>
<path d="M11.1406 13.8354C10.7778 14.3499 10.2962 14.7692 9.73666 15.0578C9.17714 15.3463 8.55623 15.4956 7.92669 15.4928C7.2987 15.4928 6.67969 15.3436 6.12069 15.0574C5.56168 14.7712 5.07868 14.3563 4.71149 13.8469C4.34429 13.3374 4.10341 12.748 4.00871 12.1272C3.914 11.5064 3.96817 10.8719 4.16676 10.2762C4.36535 9.6804 4.70267 9.14035 5.15093 8.70052C5.59918 8.2607 6.14553 7.93369 6.74496 7.74644C7.34439 7.55919 7.97973 7.51707 8.59864 7.62354C9.21754 7.73001 9.80228 7.98203 10.3047 8.35883C10.1602 8.92392 10.0875 9.50499 10.0885 10.0883C10.0896 11.4101 10.4535 12.7062 11.1406 13.8354Z" fill="#D0D0D0"/>
<path d="M30.6254 11.5295C30.6258 12.0501 30.5236 12.5656 30.3245 13.0466C30.1255 13.5276 29.8336 13.9647 29.4655 14.3328C29.0974 14.7009 28.6603 14.9928 28.1793 15.1919C27.6982 15.3909 27.1827 15.4932 26.6621 15.4928C26.0326 15.4956 25.4117 15.3463 24.8522 15.0578C24.2926 14.7692 23.811 14.3499 23.4482 13.8354C24.1353 12.7062 24.4992 11.4101 24.5003 10.0883C24.5013 9.50499 24.4286 8.92392 24.2841 8.35883C24.873 7.91721 25.5731 7.64828 26.3062 7.58218C27.0393 7.51608 27.7762 7.65542 28.4346 7.98458C29.0929 8.31375 29.6466 8.81973 30.0335 9.44584C30.4205 10.0719 30.6254 10.7934 30.6254 11.5295Z" fill="#D0D0D0"/>
<path d="M17.2947 15.4931C20.2795 15.4931 22.6992 13.0734 22.6992 10.0886C22.6992 7.10377 20.2795 4.68408 17.2947 4.68408C14.3098 4.68408 11.8901 7.10377 11.8901 10.0886C11.8901 13.0734 14.3098 15.4931 17.2947 15.4931Z" fill="#D0D0D0"/>
</svg>
