<svg width="28" height="28" viewBox="0 0 28 28" fill="none" xmlns="http://www.w3.org/2000/svg">
<g clip-path="url(#clip0_265_414)">
<path d="M18.4436 13.556C18.4436 12.6729 18.412 11.8195 18.3529 10.9997C17.3832 10.8138 16.5981 10.1019 16.308 9.1731H8.9433C8.7677 10.5261 8.66895 11.9945 8.66895 13.556C8.66895 14.5138 8.70633 15.4364 8.77549 16.3193C9.73792 16.5099 10.516 17.2193 10.8045 18.1431H18.1422C18.3348 16.7342 18.4436 15.1962 18.4436 13.556Z" fill="#D0D0D0"/>
<path d="M19.1384 5.7246C20.2091 5.8375 21.0932 6.58579 21.4051 7.58454H25.724C23.9841 4.05349 20.7521 1.38484 16.856 0.406738C17.3939 1.12786 17.8842 2.03496 18.3123 3.11627C18.6293 3.91693 18.9054 4.79182 19.1384 5.7246Z" fill="#D0D0D0"/>
<path d="M7.19651 16.4881C7.11999 15.5324 7.08065 14.5514 7.08065 13.556C7.08065 12.0493 7.17072 10.5757 7.34383 9.1731H0.727912C0.256731 10.5486 0.000488281 12.0228 0.000488281 13.556C0.000488281 15.1653 0.282996 16.7097 0.800034 18.1431H5.70783C5.93997 17.3996 6.48931 16.7953 7.19651 16.4881Z" fill="#D0D0D0"/>
<path d="M8.02741 21.5962C6.9328 21.5029 6.02438 20.747 5.70725 19.7317H1.49023C3.25285 23.1614 6.43552 25.746 10.2564 26.7051C9.71843 25.984 9.22813 25.0769 8.8 23.9956C8.50685 23.2551 8.24886 22.4507 8.02741 21.5962Z" fill="#D0D0D0"/>
<path d="M9.19336 7.58465H16.3076C16.5154 6.91923 16.9773 6.36497 17.579 6.0357C16.6283 2.28823 15.0378 0 13.5558 0C11.8794 0 10.0644 2.92854 9.19336 7.58465Z" fill="#D0D0D0"/>
<path d="M6.0649 2.79334C6.0649 4.26513 4.86751 5.46257 3.39567 5.46257C3.17263 5.46257 2.95605 5.43466 2.74878 5.38287C2.22867 6.06894 1.77243 6.80584 1.38867 7.58473H7.58048C7.86982 5.94301 8.28032 4.43013 8.80037 3.11651C9.2285 2.0352 9.7188 1.1281 10.2568 0.406982C8.72423 0.79169 7.29432 1.43767 6.01761 2.29515C6.04822 2.45666 6.0649 2.62304 6.0649 2.79334Z" fill="#D0D0D0"/>
<path d="M21.0478 24.3188C21.0478 22.847 22.2452 21.6496 23.717 21.6496C23.9401 21.6496 24.1567 21.6775 24.3639 21.7293C24.8384 21.1033 25.2604 20.4355 25.6221 19.7317H19.4951C19.2081 21.2946 18.8107 22.7368 18.3123 23.9956C17.8842 25.0769 17.3939 25.984 16.856 26.7051C18.3885 26.3204 19.8184 25.6745 21.0952 24.8169C21.0645 24.6555 21.0478 24.4891 21.0478 24.3188Z" fill="#D0D0D0"/>
<path d="M17.8806 19.7317H10.8053C10.6029 20.3798 10.1591 20.922 9.58008 21.2541C10.5356 24.8957 12.0988 27.1121 13.5571 27.1121C15.2089 27.1121 16.9952 24.2691 17.8806 19.7317Z" fill="#D0D0D0"/>
<path d="M26.3132 18.1431C26.8302 16.7097 27.1127 15.1653 27.1127 13.556C27.1127 12.0228 26.8565 10.5486 26.3853 9.1731H21.4054C21.1749 9.91116 20.6316 10.512 19.9317 10.8213C19.9981 11.7145 20.0326 12.6289 20.0326 13.556C20.0326 15.1359 19.9337 16.6796 19.7437 18.1431H26.3132Z" fill="#D0D0D0"/>
<path d="M18.8564 9.45959C19.4523 9.45959 19.9371 8.97485 19.9371 8.37896C19.9371 7.78308 19.4523 7.29834 18.8564 7.29834C18.2606 7.29834 17.7759 7.78308 17.7759 8.37896C17.7759 8.97485 18.2606 9.45959 18.8564 9.45959Z" fill="#D0D0D0"/>
<path d="M8.25592 20.0182C8.85273 20.0182 9.33654 19.5344 9.33654 18.9376C9.33654 18.3407 8.85273 17.8569 8.25592 17.8569C7.6591 17.8569 7.17529 18.3407 7.17529 18.9376C7.17529 19.5344 7.6591 20.0182 8.25592 20.0182Z" fill="#D0D0D0"/>
<path d="M3.39557 3.87365C3.99238 3.87365 4.47619 3.38984 4.47619 2.79303C4.47619 2.19621 3.99238 1.7124 3.39557 1.7124C2.79875 1.7124 2.31494 2.19621 2.31494 2.79303C2.31494 3.38984 2.79875 3.87365 3.39557 3.87365Z" fill="#D0D0D0"/>
<path d="M23.7173 23.2383C23.1215 23.2383 22.6367 23.723 22.6367 24.3189C22.6367 24.9148 23.1215 25.3995 23.7173 25.3995C24.3132 25.3995 24.7979 24.9148 24.7979 24.3189C24.7979 23.723 24.3132 23.2383 23.7173 23.2383Z" fill="#D0D0D0"/>
</g>
<defs>
<clipPath id="clip0_265_414">
<rect width="27.1122" height="27.1122" fill="white"/>
</clipPath>
</defs>
</svg>
