<svg width="31" height="31" viewBox="0 0 31 31" fill="none" xmlns="http://www.w3.org/2000/svg">
<g clip-path="url(#clip0_265_430)">
<path d="M15.1184 3.98462C8.97906 3.98462 3.98438 8.9793 3.98438 15.1187C3.98438 21.2581 8.97906 26.2528 15.1184 26.2528C21.2578 26.2528 26.2525 21.2581 26.2525 15.1187C26.2525 8.9793 21.2578 3.98462 15.1184 3.98462ZM10.3833 19.3664H8.6116V11.8396H7.26481V10.0679H10.3833V19.3664ZM17.6228 16.6763C17.6228 18.2316 16.3575 19.4969 14.8022 19.4969H14.7707C13.2154 19.4969 11.9502 18.2316 11.9502 16.6763C11.9502 15.9275 12.244 15.2465 12.7217 14.741C12.244 14.2355 11.9502 13.5545 11.9502 12.8057C11.9502 11.2505 13.2154 9.98516 14.7707 9.98516H14.8022C16.3575 9.98516 17.6228 11.2505 17.6228 12.8057C17.6228 13.5545 17.3289 14.2355 16.8512 14.741C17.3289 15.2465 17.6228 15.9275 17.6228 16.6763ZM22.4559 15.8224V17.4967H20.6842V15.8224H19.0099V14.0507H20.6842V12.3764H22.4559V14.0507H24.1302V15.8224H22.4559Z" fill="#D0D0D0"/>
<path d="M14.771 13.8545H14.8025C15.3808 13.8545 15.8513 13.384 15.8513 12.8057C15.8513 12.2273 15.3808 11.7568 14.8025 11.7568H14.771C14.1927 11.7568 13.7222 12.2273 13.7222 12.8057C13.7222 13.384 14.1927 13.8545 14.771 13.8545Z" fill="#D0D0D0"/>
<path d="M14.8025 15.6272H14.771C14.1927 15.6272 13.7222 16.0977 13.7222 16.676C13.7222 17.2544 14.1927 17.7249 14.771 17.7249H14.8025C15.3808 17.7249 15.8513 17.2544 15.8513 16.676C15.8513 16.0977 15.3808 15.6272 14.8025 15.6272Z" fill="#D0D0D0"/>
<path d="M25.8091 4.42809C22.9535 1.57263 19.1569 0 15.1186 0C11.0803 0 7.28367 1.57257 4.42809 4.42809C1.57263 7.28367 0 11.0803 0 15.1186C0 19.1569 1.57257 22.9535 4.42809 25.8091C7.28367 28.6645 11.0803 30.2372 15.1186 30.2372C19.1569 30.2372 22.9535 28.6646 25.809 25.8091C28.6645 22.9535 30.2372 19.1569 30.2372 15.1186C30.2372 11.0803 28.6646 7.28367 25.8091 4.42809ZM15.1186 28.0244C8.00228 28.0244 2.21281 22.2348 2.21281 15.1186C2.21281 8.00233 8.00228 2.21281 15.1186 2.21281C22.2349 2.21281 28.0244 8.00228 28.0244 15.1186C28.0244 22.2349 22.2349 28.0244 15.1186 28.0244Z" fill="#D0D0D0"/>
</g>
<defs>
<clipPath id="clip0_265_430">
<rect width="30.2372" height="30.2372" fill="white"/>
</clipPath>
</defs>
</svg>
