<svg width="27" height="27" viewBox="0 0 27 27" fill="none" xmlns="http://www.w3.org/2000/svg">
<path d="M13.2823 24.8205C19.7121 24.8205 24.9245 19.6081 24.9245 13.1783C24.9245 6.74851 19.7121 1.53613 13.2823 1.53613C6.85251 1.53613 1.64014 6.74851 1.64014 13.1783C1.64014 19.6081 6.85251 24.8205 13.2823 24.8205Z" fill="white"/>
<path d="M13.2917 26.5828C5.96274 26.5828 0 20.6201 0 13.2917C0 5.96275 5.96274 0 13.2917 0C20.6206 0 26.5833 5.96275 26.5833 13.2917C26.5833 20.6201 20.6206 26.5828 13.2917 26.5828ZM17.7735 7.89853C17.2304 7.89853 16.7902 8.33873 16.7902 8.88187C16.7902 9.425 17.2304 9.8652 17.7735 9.8652C18.3167 9.8652 18.7569 9.425 18.7569 8.88187C18.7573 8.33922 18.3167 7.89853 17.7735 7.89853ZM13.401 9.15981C11.123 9.15981 9.2696 11.0132 9.2696 13.2912C9.2696 15.5691 11.123 17.4226 13.401 17.4226C15.6789 17.4226 17.5324 15.5691 17.5324 13.2912C17.5324 11.0132 15.6789 9.15981 13.401 9.15981ZM13.401 15.9382C11.9417 15.9382 10.7544 14.751 10.7544 13.2917C10.7544 11.8324 11.9417 10.6451 13.401 10.6451C14.8603 10.6451 16.0476 11.8324 16.0476 13.2917C16.0476 14.751 14.8603 15.9382 13.401 15.9382ZM21.7373 9.85785C21.7373 7.075 19.4809 4.81863 16.698 4.81863H10.047C7.26371 4.81863 5.00785 7.07451 5.00785 9.85785V16.5093C5.00785 19.2922 7.2642 21.5485 10.047 21.5485H16.698C19.4814 21.5485 21.7373 19.2927 21.7373 16.5093V9.85785ZM20.1593 16.5093C20.1593 18.4206 18.6098 19.9701 16.698 19.9701H10.047C8.13577 19.9701 6.58578 18.4206 6.58578 16.5093V9.85785C6.58578 7.94657 8.13528 6.39706 10.047 6.39706H16.698C18.6093 6.39706 20.1593 7.94657 20.1593 9.85785V16.5093Z" fill="#4C52D1"/>
</svg>
