<svg width="27" height="27" viewBox="0 0 27 27" fill="none" xmlns="http://www.w3.org/2000/svg">
<path d="M13.3564 26.7118C5.99167 26.7118 0 20.7201 0 13.3559C0 5.99118 5.99167 0 13.3564 0C20.7211 0 26.7123 5.99167 26.7123 13.3559C26.7123 20.7206 20.7211 26.7118 13.3564 26.7118Z" fill="#4C52D1"/>
<path d="M20.9074 14.3744V19.3611C20.9074 19.4842 20.8074 19.5842 20.6843 19.5842H18.1098C17.9868 19.5842 17.8868 19.4842 17.8868 19.3611V14.7234C17.8868 13.5028 17.4505 12.6695 16.3569 12.6695C15.5221 12.6695 15.0265 13.2307 14.8074 13.7739C14.728 13.968 14.7074 14.2376 14.7074 14.5102V19.3611C14.7074 19.4842 14.6074 19.5842 14.4843 19.5842H11.9108C11.7873 19.5842 11.6873 19.4847 11.6878 19.3611C11.6937 18.1263 11.7196 12.1337 11.6932 10.7249C11.6907 10.6004 11.7912 10.4989 11.9162 10.4989H14.4848C14.6079 10.4989 14.7079 10.5989 14.7079 10.7219V11.7861C14.702 11.7964 14.6932 11.8062 14.6878 11.816H14.7079V11.7861C15.1093 11.1685 15.825 10.2852 17.4304 10.2852C19.4172 10.2856 20.9074 11.5842 20.9074 14.3744ZM7.21914 19.5842H9.79267C9.91571 19.5842 10.0157 19.4842 10.0157 19.3611V10.7219C10.0157 10.5989 9.91571 10.4989 9.79267 10.4989H7.21914C7.0961 10.4989 6.99609 10.5989 6.99609 10.7219V19.3611C6.99609 19.4847 7.0961 19.5842 7.21914 19.5842Z" fill="white"/>
<path d="M8.41596 9.34272C9.30909 9.34272 10.0331 8.61869 10.0331 7.72556C10.0331 6.83243 9.30909 6.1084 8.41596 6.1084C7.52283 6.1084 6.79883 6.83243 6.79883 7.72556C6.79883 8.61869 7.52283 9.34272 8.41596 9.34272Z" fill="white"/>
</svg>
