<svg width="27" height="27" viewBox="0 0 27 27" fill="none" xmlns="http://www.w3.org/2000/svg">
<path d="M13.3789 26.7578C6.00198 26.7578 0 20.7564 0 13.3789C0 6.00196 6.00149 0 13.3789 0C20.7559 0 26.7574 6.00147 26.7574 13.3789C26.7579 20.7564 20.7564 26.7578 13.3789 26.7578Z" fill="#4C52D1"/>
<path d="M21.3834 12.7209C21.3834 11.7533 20.599 10.969 19.6314 10.969C19.1592 10.969 18.7314 11.1567 18.4163 11.4606C17.2189 10.5964 15.5689 10.0383 13.7312 9.97416L14.5292 6.21949L17.1366 6.77374C17.1683 7.43664 17.7113 7.96564 18.382 7.96564C19.0731 7.96564 19.6334 7.40539 19.6334 6.71427C19.6334 6.02314 19.0732 5.46289 18.382 5.46289C17.8904 5.46289 17.4694 5.74896 17.2647 6.16134L14.3533 5.54243C14.2723 5.52484 14.1875 5.54072 14.1179 5.58608C14.0483 5.63129 13.9995 5.7023 13.9823 5.78342L13.0911 9.97299C11.2264 10.0247 9.55 10.5836 8.33709 11.4574C8.02235 11.1555 7.59606 10.9689 7.12548 10.9689C6.15793 10.9689 5.37354 11.7533 5.37354 12.7209C5.37354 13.4328 5.79885 14.0442 6.40863 14.3183C6.38162 14.4924 6.36682 14.6691 6.36682 14.8482C6.36682 17.5436 9.50428 19.7286 13.3745 19.7286C17.2448 19.7286 20.3823 17.5436 20.3823 14.8482C20.3823 14.6703 20.3677 14.4948 20.3411 14.3218C20.9548 14.0493 21.3834 13.4356 21.3834 12.7209ZM9.37208 13.9724C9.37208 13.2824 9.93369 12.7209 10.624 12.7209C11.3137 12.7209 11.8749 13.2824 11.8749 13.9724C11.8749 14.6622 11.3137 15.2236 10.624 15.2236C9.93371 15.2236 9.37208 14.6623 9.37208 13.9724ZM16.3499 17.2791C15.4958 18.1319 13.8592 18.1983 13.378 18.1983C12.8966 18.1983 11.2599 18.1319 10.4068 17.2789C10.2802 17.1522 10.2802 16.9469 10.4069 16.8203C10.5335 16.6937 10.7389 16.6937 10.8655 16.8203C11.4038 17.3587 12.5554 17.5497 13.378 17.5497C14.2005 17.5497 15.3523 17.3586 15.8916 16.8201C16.0184 16.6936 16.2237 16.6938 16.3502 16.8204C16.4767 16.9472 16.4766 17.1525 16.3499 17.2791ZM16.1295 15.2239C15.4396 15.2239 14.8782 14.6625 14.8782 13.9726C14.8782 13.2824 15.4395 12.7209 16.1295 12.7209C16.8195 12.7209 17.3809 13.2824 17.3809 13.9726C17.3809 14.6625 16.8195 15.2239 16.1295 15.2239Z" fill="white"/>
</svg>
