<svg width="27" height="27" viewBox="0 0 27 27" fill="none" xmlns="http://www.w3.org/2000/svg">
<circle cx="13.4875" cy="13.4875" r="13.4875" fill="#C1A968"/>
<circle cx="13.4875" cy="13.4875" r="13.4875" fill="#4C52D1"/>
<path d="M16.3396 14.7286L15.9987 15.068C15.9987 15.068 15.1872 15.8742 12.973 13.6728C10.7588 11.4713 11.5703 10.6651 11.5703 10.6651L11.7846 10.4508C12.3143 9.92475 12.3645 9.07954 11.9022 8.46211L10.9581 7.20103C10.3856 6.43674 9.28038 6.33558 8.62474 6.98748L7.44833 8.15639C7.12388 8.48009 6.90658 8.89821 6.9328 9.36278C7.00024 10.5519 7.53824 13.1093 10.5385 16.093C13.7208 19.2566 16.7067 19.3825 17.9274 19.2686C18.314 19.2326 18.6497 19.0363 18.9202 18.7666L19.9842 17.7085C20.7035 16.9945 20.5012 15.7693 19.5811 15.2696L18.1499 14.491C17.546 14.1636 16.8117 14.2595 16.3396 14.7286Z" fill="white"/>
</svg>
