<svg width="136" height="138" viewBox="0 0 136 138" fill="none" xmlns="http://www.w3.org/2000/svg">
<path d="M53.2595 89.1835C52.5301 88.6307 51.8599 88.24 51.1475 87.9835C50.4302 87.7344 49.7008 87.5977 48.923 87.565C47.3772 87.4961 45.6934 87.7839 44.0847 88.1734C42.4711 88.5714 40.9397 89.0504 39.7918 89.4435C38.6511 89.8245 37.9061 90.1185 37.9061 90.1185C37.9061 90.1185 38.6342 90.5418 39.8063 91.0426C40.9772 91.541 42.6005 92.1107 44.3689 92.4155C46.124 92.7239 48.0425 92.7614 49.7129 92.2812C51.3737 91.8131 52.7889 90.7946 53.2595 89.1835ZM104.114 14.8212C102.967 13.9672 101.464 13.4567 99.9704 13.239C99.2338 13.1193 98.491 13.0757 97.8016 13.0721C97.1145 13.0697 96.4892 13.0963 95.9509 13.1495C94.8659 13.2596 94.1752 13.4084 94.1752 13.4084C94.1752 13.4084 94.272 13.5233 94.457 13.7168C94.6433 13.9128 94.9276 14.1752 95.2481 14.5091C95.5771 14.8357 95.9932 15.1973 96.4408 15.588C96.8762 15.9812 97.3891 16.3803 97.9249 16.771C98.4547 17.169 99.0402 17.5403 99.6523 17.8645C100.252 18.2008 100.887 18.4826 101.566 18.6689C102.898 19.0596 104.354 19.1213 105.903 18.4439C105.941 17.6794 105.785 16.9827 105.475 16.3719C105.145 15.7731 104.674 15.2578 104.114 14.8212ZM109.608 17.6117C110.947 16.6077 111.563 15.1986 111.662 13.6261C111.705 12.8471 111.615 12.0282 111.443 11.2057C111.264 10.3868 110.978 9.58967 110.654 8.80585C110.326 8.02929 109.922 7.312 109.536 6.64914C109.15 5.98628 108.724 5.41414 108.373 4.92546C108.019 4.43195 107.694 4.05214 107.459 3.78724C107.233 3.52718 107.097 3.38082 107.097 3.38082C107.097 3.38082 106.968 4.1598 106.846 5.31859C106.778 5.90888 106.707 6.59835 106.651 7.33378C106.626 7.70513 106.601 8.08372 106.588 8.472C106.565 8.86512 106.546 9.26671 106.541 9.67193C106.522 11.271 106.592 12.9269 107.02 14.3168C107.224 15.0244 107.518 15.6618 107.949 16.2122C108.358 16.7759 108.894 17.25 109.608 17.6117ZM110.658 25.9059C110.499 25.5974 110.317 25.2987 110.075 25.0314C109.61 24.4858 109.047 23.9972 108.428 23.575C107.81 23.1565 107.092 22.8275 106.405 22.5481C106.057 22.409 105.706 22.2844 105.368 22.1767C105.026 22.0691 104.668 21.982 104.332 21.9082C103.664 21.7534 103.043 21.6542 102.514 21.5876C101.982 21.5223 101.548 21.4897 101.23 21.48C100.908 21.4631 100.734 21.4655 100.734 21.4655C100.734 21.4655 100.806 21.5949 100.953 21.8187C101.087 22.0461 101.27 22.3739 101.53 22.7549C101.653 22.946 101.793 23.1504 101.95 23.3645C102.033 23.4722 102.115 23.5835 102.2 23.6935C102.272 23.8109 102.354 23.9258 102.439 24.0468C102.775 24.5197 103.171 25.0156 103.615 25.5043C104.026 26.0075 104.494 26.4974 105.017 26.9461C105.149 27.0586 105.288 27.1699 105.417 27.2752C105.548 27.3876 105.678 27.4893 105.818 27.5969C106.087 27.8013 106.375 27.9924 106.678 28.1618C107.273 28.5077 107.957 28.7726 108.655 28.9311C109.353 29.0859 110.115 29.1234 110.946 28.9831C111.059 28.6154 111.131 28.2513 111.146 27.8921C111.146 27.5437 111.101 27.2002 111.019 26.8687C110.938 26.5361 110.811 26.2143 110.658 25.9059ZM115.635 14.1111C115.635 14.1111 115.361 14.8381 114.971 15.9739C114.58 17.1121 114.14 18.6012 113.731 20.1881C113.531 20.9792 113.397 21.7667 113.274 22.5589C113.154 23.3549 113.097 24.1254 113.154 24.8524C113.192 25.214 113.218 25.5769 113.288 25.9253C113.358 26.2748 113.46 26.6099 113.601 26.9316C113.74 27.2522 113.916 27.557 114.135 27.8521C114.339 28.1461 114.587 28.4328 114.879 28.7001C115.659 28.3711 116.281 27.9029 116.775 27.3223C117.281 26.7417 117.593 26.0643 117.824 25.3035C117.941 24.9225 118.024 24.527 118.091 24.1157C118.146 23.7069 118.193 23.2799 118.183 22.8638C118.178 22.0195 118.091 21.1474 117.955 20.3006C117.621 18.6302 117.084 17.0408 116.553 15.9352C116.304 15.3727 116.075 14.9131 115.913 14.5926C115.744 14.2817 115.635 14.1111 115.635 14.1111ZM113.351 36.4403C113.052 35.7871 112.603 35.1702 112.109 34.6065C111.857 34.3247 111.591 34.0513 111.319 33.7997C111.043 33.5433 110.721 33.3098 110.421 33.0873C109.179 32.2055 107.931 31.5728 106.888 31.1979C105.878 30.8168 105.19 30.6524 105.19 30.6524C105.19 30.6524 105.335 31.2318 105.664 32.0761C105.808 32.5055 105.97 33.0123 106.201 33.5481C106.306 33.8142 106.433 34.0936 106.568 34.3767C106.702 34.6609 106.814 34.9573 106.963 35.25C107.235 35.8379 107.581 36.4282 107.977 36.9991C108.33 37.5737 108.756 38.124 109.256 38.6175C110.285 39.5888 111.492 40.3606 113.17 40.5178C113.374 40.1864 113.532 39.8501 113.642 39.5114C113.755 39.1655 113.778 38.8207 113.788 38.4772C113.788 37.7853 113.623 37.0971 113.351 36.4403ZM116.524 36.6519C116.354 37.3813 116.31 38.0914 116.417 38.7917C116.467 39.1425 116.579 39.4836 116.7 39.8259C116.818 40.1695 116.986 40.5106 117.199 40.8468C118.855 40.6122 120.133 39.6638 120.919 38.3018C121.331 37.622 121.643 36.8418 121.898 36.0133C122.117 35.1895 122.227 34.3223 122.302 33.455C122.332 33.022 122.361 32.5865 122.365 32.1656C122.35 31.747 122.327 31.3382 122.302 30.9451C122.24 30.1528 122.156 29.4186 122.065 28.7956C121.813 27.5679 121.575 26.7756 121.575 26.7756C121.575 26.7756 121.121 27.4264 120.49 28.44C120.182 28.9383 119.82 29.5299 119.419 30.183C119.03 30.835 118.63 31.5329 118.258 32.2526C117.905 32.9651 117.514 33.7102 117.207 34.4468C116.89 35.1908 116.668 35.9274 116.524 36.6519ZM113.542 50.5212C113.634 50.1825 113.693 49.8365 113.709 49.4882C113.719 49.135 113.669 48.7757 113.604 48.4177C113.467 47.7028 113.213 46.9903 112.882 46.313C112.799 46.1436 112.71 45.9743 112.623 45.8098C112.524 45.6453 112.413 45.4832 112.305 45.3199C112.086 44.9994 111.849 44.6873 111.612 44.3958C111.134 43.8031 110.626 43.2708 110.132 42.8088C109.894 42.5753 109.639 42.3612 109.388 42.1641C109.142 41.9717 108.902 41.7903 108.685 41.633C107.801 41.0004 107.183 40.6545 107.183 40.6545C107.183 40.6545 107.174 41.2593 107.27 42.1762C107.31 42.406 107.32 42.6552 107.334 42.9213C107.355 43.1886 107.379 43.4716 107.417 43.7656C107.483 44.3534 107.616 44.9909 107.741 45.6477C107.853 46.3033 108.018 46.9807 108.254 47.6447C108.369 47.9737 108.505 48.3052 108.659 48.6281C108.794 48.9487 108.943 49.2656 109.12 49.5668C109.815 50.78 110.877 51.836 112.469 52.3839C113.012 51.8299 113.356 51.1937 113.542 50.5212ZM119.559 45.1663C119.283 45.465 119.018 45.7759 118.764 46.0916C118.51 46.4013 118.256 46.7218 117.999 47.0387C117.508 47.6835 117.083 48.3415 116.772 49.0164C116.613 49.3503 116.496 49.6962 116.395 50.0373C116.278 50.3809 116.198 50.7292 116.16 51.0824C116.082 51.7876 116.16 52.5194 116.449 53.279C118.114 53.4363 119.507 52.7964 120.657 51.686C120.94 51.409 121.214 51.1006 121.468 50.774C121.718 50.4425 121.927 50.0845 122.135 49.7132C122.544 48.9668 122.895 48.1637 123.189 47.3472C123.347 46.9444 123.447 46.5283 123.547 46.117C123.642 45.7118 123.727 45.3126 123.801 44.9219C123.946 44.1442 124.073 43.4148 124.118 42.7894C124.19 41.5339 124.168 40.7029 124.168 40.7029C124.168 40.7029 123.555 41.2206 122.694 42.0383C121.856 42.8608 120.647 43.9615 119.559 45.1663ZM109.214 63.9876C109.854 63.54 110.317 62.9727 110.629 62.3413C110.788 62.028 110.903 61.6942 110.992 61.3543C111.075 61.0083 111.143 60.6576 111.137 60.2862C111.147 58.8093 110.721 57.2562 110.067 55.876C109.369 54.4886 108.515 53.2936 107.838 52.4565C107.494 52.0356 107.205 51.7066 106.973 51.478C106.749 51.2493 106.616 51.1247 106.616 51.1247C106.616 51.1247 106.582 51.2784 106.541 51.5481C106.479 51.8191 106.392 52.2037 106.312 52.6791C106.136 53.6226 106.053 54.9156 105.963 56.2946C105.936 56.9864 105.963 57.7062 106.058 58.4259C106.084 58.6097 106.113 58.7887 106.136 58.9641C106.157 59.1407 106.188 59.3173 106.216 59.4939C106.278 59.8496 106.367 60.1943 106.479 60.5354C106.923 61.8913 107.753 63.1493 109.214 63.9876ZM123.14 55.3148C123.227 54.9664 123.26 54.7644 123.26 54.7644C123.26 54.7644 122.583 55.1249 121.507 55.7031C120.456 56.2837 119.078 57.0893 117.776 58.0267C116.423 58.9484 115.089 59.9923 114.227 61.1934C114.015 61.497 113.799 61.797 113.619 62.1127C113.443 62.4296 113.295 62.755 113.194 63.0961C112.98 63.7759 112.922 64.5113 113.057 65.3169C114.663 65.785 116.148 65.4246 117.478 64.5718C117.812 64.3601 118.132 64.1146 118.449 63.8485C118.755 63.5812 119.068 63.2957 119.334 62.974C119.874 62.3389 120.373 61.6313 120.818 60.9092C121.742 59.477 122.302 57.9082 122.702 56.7385C122.897 56.153 123.046 55.6583 123.14 55.3148ZM106.187 67.0309C105.763 65.5298 105.149 64.1799 104.645 63.211C104.391 62.7248 104.165 62.3389 103.985 62.0655C103.806 61.7934 103.702 61.6397 103.702 61.6397C103.702 61.6397 103.64 61.7922 103.542 62.0559C103.43 62.322 103.268 62.703 103.096 63.1663C102.922 63.6344 102.731 64.1872 102.563 64.8041C102.396 65.4016 102.209 66.1685 102.161 66.6221C102.019 67.6902 101.845 68.9663 101.921 70.3126C102.009 71.6576 102.342 73.0849 103.406 74.3828C104.937 74.0284 105.936 72.8878 106.372 71.4907C106.47 71.1411 106.559 70.7807 106.597 70.4081C106.63 70.0344 106.644 69.663 106.621 69.2868C106.588 68.9106 106.536 68.5393 106.461 68.1788C106.381 67.7893 106.288 67.4035 106.187 67.0309ZM115.919 73.7708C116.086 73.5712 116.248 73.3656 116.409 73.1612L116.641 72.8515L116.827 72.5999C117.062 72.2733 117.286 71.9467 117.494 71.6286C117.912 70.9912 118.275 70.3803 118.573 69.8553C118.864 69.3268 119.092 68.884 119.245 68.5695C119.393 68.249 119.464 68.0591 119.464 68.0591C119.464 68.0591 118.724 68.2732 117.575 68.6336C116.441 68.9941 114.948 69.5227 113.497 70.2049C113.128 70.3767 112.77 70.5545 112.414 70.7529C112.032 70.9694 111.654 71.1907 111.296 71.4109C110.934 71.6322 110.574 71.8463 110.24 72.0786C109.904 72.3047 109.569 72.5261 109.27 72.7729C108.047 73.7272 107.138 74.8231 106.763 76.4392C108.109 77.448 109.685 77.6197 111.31 77.0972C112.925 76.5867 114.584 75.3687 115.919 73.7708ZM94.0288 82.0468C95.6146 82.1315 96.898 81.3671 97.8185 80.2034C98.7257 79.0362 99.2785 77.4891 99.495 75.9795C99.7188 74.4615 99.6462 73.0136 99.4696 71.9576C99.3898 71.4314 99.2954 71.0032 99.2156 70.702C99.1382 70.4033 99.0813 70.2364 99.0813 70.2364C99.0813 70.2364 98.9846 70.3343 98.8152 70.5206C98.6386 70.7008 98.3943 70.9657 98.11 71.302C97.5197 71.9673 96.7202 72.889 95.9267 73.9716C95.1453 75.0578 94.3699 76.3 93.9248 77.6572C93.4954 79.0204 93.3829 80.4973 94.0288 82.0468ZM105.14 81.2521C103.47 81.309 101.764 81.4239 100.314 81.8702C98.8576 82.3214 97.6395 83.098 96.8448 84.5253C97.8391 85.8752 99.2748 86.5006 100.886 86.5731C102.502 86.653 104.29 86.1837 105.926 85.4398C107.563 84.6995 109.047 83.6895 110.093 82.8222C110.62 82.3964 111.039 82.0033 111.328 81.7324C111.616 81.4505 111.769 81.2836 111.769 81.2836C111.769 81.2836 110.969 81.2691 109.699 81.2461C108.457 81.24 106.805 81.2038 105.14 81.2521ZM84.5807 87.4126C85.2907 87.2783 85.9524 86.9397 86.5535 86.4982C87.7462 85.597 88.6595 84.2241 89.2885 82.8174C89.9187 81.4082 90.2598 79.9603 90.446 78.8801C90.5355 78.3382 90.5852 77.8871 90.6178 77.5726C90.6456 77.2593 90.6553 77.0766 90.6553 77.0766C90.6553 77.0766 90.0952 77.3754 89.2787 77.8883C88.4574 78.4035 87.3736 79.1232 86.308 79.9869C85.252 80.8517 84.2203 81.8557 83.4957 83.0181C82.7736 84.1854 82.3176 85.5184 82.3599 87.2046C83.0977 87.5166 83.8634 87.5541 84.5807 87.4126ZM93.2559 93.2005C95.0195 92.8969 96.6452 92.3308 97.8185 91.8276C98.9845 91.3268 99.7139 90.9083 99.7139 90.9083C99.7139 90.9083 98.97 90.6096 97.8245 90.2285C96.679 89.8378 95.1502 89.354 93.5354 88.9585C91.9218 88.5702 90.2428 88.2787 88.697 88.3488C87.9204 88.3827 87.185 88.5158 86.4725 88.7698C85.7565 89.0238 85.0911 89.4169 84.3617 89.9649C84.8298 91.5785 86.2463 92.5994 87.9071 93.0675C89.5763 93.5489 91.4935 93.5114 93.2559 93.2005ZM36.7206 79.1729C41.1163 82.821 46.4773 85.3164 51.7378 87.4404C56.0415 89.181 61.5645 92.0224 67.1879 94.6726C62.1342 96.2463 57.1459 97.5321 53.1348 98.2046C52.6075 98.2893 55.3049 101.039 55.8141 100.884C60.4711 99.4819 65.1957 97.7813 69.8551 95.9028C74.9451 98.2143 79.9709 100.197 84.1078 100.889C84.6303 100.976 86.2499 98.2058 85.7286 98.1187C81.8071 97.4619 77.2518 96.2959 72.5101 94.8093C80.3205 91.5289 87.8405 87.8166 94.3433 84.2797C101.401 80.4344 106.701 74.9755 110.184 67.7192C113.413 60.9999 115.69 53.5693 116.027 46.1061C116.49 35.7702 113.018 25.6325 107.634 16.9186C106.058 14.3688 104.295 11.8238 102.34 9.46024C102.514 8.80585 102.535 8.16839 102.422 7.56722C102.29 6.85477 102.013 6.17014 101.588 5.55929C100.769 4.30494 99.4418 3.29856 98.0858 2.54619C96.719 1.79866 95.2977 1.32814 94.2381 1.07412C93.7047 0.942275 93.2644 0.872125 92.9584 0.82737C92.806 0.808017 92.6838 0.794703 92.6051 0.792283C92.5326 0.785026 92.4927 0.78503 92.4927 0.78503C92.4927 0.78503 92.5072 0.822514 92.5374 0.892671C92.5773 0.961618 92.6245 1.06928 92.6922 1.20354C92.8314 1.47933 93.0309 1.86398 93.2849 2.33451C93.7905 3.26832 94.4801 4.49848 95.2929 5.6984C95.6933 6.30199 96.1541 6.87655 96.6246 7.4245C96.8593 7.69182 97.1133 7.94945 97.377 8.18411C97.631 8.42845 97.8995 8.65223 98.1838 8.84939C98.7547 9.23525 99.3547 9.55459 100.03 9.72636C100.54 9.85094 101.08 9.90659 101.658 9.87272C105.411 14.3107 108.482 19.466 110.823 24.6407C113.798 31.2305 115.385 38.4119 115.215 45.6489C115.033 53.5379 112.401 61.5454 108.865 68.5526C106.11 74.0043 102.1 78.4519 96.973 81.771C92.3862 84.7346 87.3555 86.9578 82.355 89.1206C78.6113 90.7438 74.1636 92.407 69.6543 93.8864C59.9969 90.6616 49.9028 86.2962 42.9077 82.3468C39.2499 80.2869 35.9429 77.7564 33.2044 74.5619C30.4695 71.3697 28.4954 67.5813 26.912 63.7118C23.9086 56.3708 22.0035 48.7745 22.4692 40.8009C23.0147 31.5015 26.6677 22.6073 31.7577 14.8962C33.0629 12.9209 34.4793 10.9493 36.0167 9.09374C36.5719 9.12156 37.092 9.0635 37.5903 8.94254C38.2629 8.77078 38.8604 8.45265 39.4362 8.06558C39.7132 7.86842 39.9866 7.64464 40.2406 7.40272C40.5055 7.16806 40.7583 6.91163 40.993 6.64068C41.4708 6.09274 41.9195 5.52181 42.3259 4.91459C43.14 3.71709 43.827 2.48209 44.329 1.5507C44.5806 1.08258 44.7862 0.689471 44.9193 0.417312C44.9894 0.283047 45.0415 0.176599 45.079 0.104023C45.1056 0.0374957 45.1188 0 45.1188 0C45.1188 0 45.0838 -1.32902e-06 45.0088 0.00241786C44.9289 0.00725624 44.8116 0.0241963 44.6604 0.0423403C44.352 0.0846761 43.9105 0.159665 43.3807 0.289091C42.3199 0.543106 40.8998 1.01363 39.5305 1.75875C38.1733 2.51353 36.8488 3.5187 36.0275 4.77426C35.6042 5.38874 35.3199 6.07216 35.1978 6.77978C35.0804 7.37006 35.101 7.99543 35.2655 8.64015C31.6718 12.9088 28.701 17.8246 26.3968 22.7476C23.5554 28.8319 21.839 35.4157 21.5777 42.1375C21.2838 49.8595 23.3849 57.2586 26.2867 64.3396C28.6212 70.038 31.9536 75.2175 36.7206 79.1729ZM39.6938 15.9848C40.2321 15.5941 40.745 15.1998 41.1829 14.8018C41.634 14.4111 42.0441 14.0494 42.3682 13.7216C42.6948 13.3926 42.9766 13.1265 43.1629 12.9318C43.3492 12.7407 43.4472 12.627 43.4472 12.627C43.4472 12.627 42.7529 12.4721 41.6715 12.3657C41.1308 12.3137 40.5067 12.2859 39.8184 12.2907C39.129 12.2955 38.3863 12.3379 37.652 12.4576C36.1582 12.6766 34.6547 13.1846 33.5056 14.0349C32.9479 14.474 32.4774 14.9893 32.1484 15.5868C31.8399 16.1977 31.6803 16.8944 31.7178 17.6589C33.2624 18.3314 34.7236 18.2733 36.0542 17.8851C36.734 17.694 37.3762 17.417 37.9713 17.0807C38.581 16.7565 39.1664 16.3864 39.6938 15.9848ZM28.0115 16.8315C28.7288 16.4698 29.2586 15.9921 29.6675 15.4296C30.1017 14.8816 30.3993 14.2418 30.5989 13.5317C31.0319 12.1468 31.0997 10.4884 31.0839 8.88931C31.0791 8.4841 31.0598 8.08251 31.0368 7.68697C31.0223 7.30111 30.9969 6.92009 30.9702 6.55359C30.9146 5.81331 30.8408 5.12505 30.7755 4.53476C30.6557 3.37113 30.5239 2.597 30.5239 2.597C30.5239 2.597 30.3896 2.7482 30.1574 3.00584C29.9288 3.26712 29.6046 3.64813 29.249 4.14165C28.8921 4.63274 28.4724 5.20005 28.0805 5.86533C27.6995 6.52939 27.2943 7.24306 26.9701 8.02204C26.6508 8.80465 26.3568 9.60177 26.1802 10.4231C26.0012 11.2432 25.919 12.0621 25.9565 12.8386C26.0569 14.416 26.6773 15.8227 28.0115 16.8315ZM36.6723 21.0373C36.8126 20.8111 36.8888 20.6816 36.8888 20.6816C36.8888 20.6816 36.7073 20.6817 36.3953 20.6913C36.0747 20.7034 35.6381 20.7361 35.107 20.805C34.5772 20.8704 33.9591 20.972 33.2842 21.1244C32.9527 21.203 32.5947 21.284 32.256 21.3929C31.9173 21.5006 31.569 21.6227 31.2194 21.7618C30.5299 22.0424 29.815 22.3787 29.1921 22.79C28.5752 23.2133 28.0091 23.6984 27.5446 24.2476C27.3051 24.5161 27.1237 24.8148 26.9665 25.1245C26.8141 25.4305 26.6919 25.7511 26.6024 26.0837C26.5201 26.4163 26.4754 26.7587 26.4754 27.1095C26.4923 27.4663 26.5625 27.8316 26.6798 28.2005C27.4999 28.3372 28.2704 28.2997 28.9708 28.1449C29.6651 27.9864 30.3449 27.7263 30.9449 27.3828C31.2485 27.2111 31.5303 27.0187 31.8049 26.8119C31.9464 26.7103 32.0734 26.6002 32.2004 26.4913C32.3358 26.3861 32.4701 26.2748 32.5996 26.1623C33.1269 25.7124 33.5927 25.2188 34.0063 24.7181C34.4466 24.233 34.8482 23.7347 35.1845 23.2605C35.2667 23.1456 35.3442 23.0259 35.424 22.9122C35.5111 22.7972 35.5885 22.6884 35.6707 22.5795C35.8231 22.3654 35.9695 22.1586 36.0917 21.9699C36.3445 21.5864 36.5356 21.2598 36.6723 21.0373ZM23.4792 27.0659C23.703 26.7768 23.8796 26.4684 24.0211 26.1454C24.1602 25.8237 24.263 25.4898 24.3308 25.139C24.4009 24.7943 24.4275 24.4302 24.4674 24.0673C24.5182 23.3404 24.4674 22.5686 24.3441 21.7739C24.2243 20.9816 24.0901 20.1954 23.8832 19.4007C23.478 17.8173 23.0389 16.3283 22.6482 15.1901C22.2551 14.0543 21.9853 13.3273 21.9853 13.3273C21.9853 13.3273 21.8777 13.4967 21.7083 13.8124C21.5414 14.1293 21.3153 14.5853 21.0661 15.1478C20.529 16.263 20.0004 17.8512 19.6641 19.518C19.525 20.3672 19.4367 21.2369 19.4367 22.0799C19.427 22.4985 19.4694 22.9242 19.5359 23.3331C19.5976 23.7443 19.6786 24.1399 19.7923 24.5185C20.0222 25.2805 20.3403 25.9555 20.8435 26.5373C21.3394 27.1203 21.9648 27.5884 22.7365 27.9175C23.0341 27.6477 23.2784 27.3635 23.4792 27.0659ZM28.3635 37.8277C28.8667 37.339 29.2901 36.7874 29.6433 36.2116C30.0328 35.6419 30.3836 35.0541 30.6594 34.4614C30.8045 34.1699 30.9134 33.8759 31.0537 33.5941C31.1879 33.3098 31.3125 33.0316 31.4214 32.7631C31.6488 32.2248 31.8061 31.7216 31.9573 31.2934C32.2863 30.4419 32.4254 29.8673 32.4254 29.8673C32.4254 29.8673 31.7432 30.0343 30.7271 30.4153C29.6893 30.7866 28.441 31.4192 27.2011 32.301C26.8975 32.5224 26.5782 32.757 26.3024 33.0159C26.0266 33.2675 25.7593 33.536 25.5101 33.8179C25.019 34.3852 24.5679 35.0021 24.2703 35.6552C23.9909 36.3108 23.8336 36.9979 23.8336 37.6898C23.836 38.0333 23.8638 38.3792 23.9727 38.7191C24.09 39.0627 24.2401 39.4013 24.4529 39.7304C26.1331 39.5779 27.3366 38.8038 28.3635 37.8277ZM19.363 31.4676C18.9904 30.7503 18.5888 30.0512 18.1981 29.4004C17.7941 28.7436 17.4312 28.1533 17.1276 27.655C16.4998 26.6486 16.0438 25.9894 16.0438 25.9894C16.0438 25.9894 15.8068 26.7817 15.5576 28.0118C15.4632 28.6384 15.3761 29.369 15.3181 30.1588C15.2878 30.5556 15.2636 30.9656 15.2552 31.3842C15.2552 31.8051 15.283 32.2381 15.3181 32.6712C15.3955 33.5336 15.5056 34.4069 15.7245 35.2295C15.9713 36.058 16.2906 36.8382 16.7007 37.5156C17.4905 38.88 18.7666 39.8271 20.4214 40.0606C20.6379 39.7243 20.7975 39.3856 20.9197 39.0421C21.037 38.6974 21.1519 38.3551 21.2003 38.0091C21.3152 37.31 21.262 36.5927 21.0927 35.8657C20.9536 35.1387 20.7298 34.4045 20.4177 33.6642C20.1045 32.9288 19.7186 32.1825 19.363 31.4676ZM25.1497 51.6038C26.7415 51.0534 27.8072 49.9962 28.5063 48.783C28.6829 48.4769 28.8329 48.1649 28.9647 47.8431C29.1195 47.5214 29.2538 47.1912 29.3711 46.8597C29.6046 46.1969 29.7715 45.5219 29.8816 44.8651C30.0086 44.2107 30.1428 43.5732 30.2069 42.9842C30.2444 42.6902 30.2675 42.4072 30.2893 42.1399C30.3062 41.8738 30.3158 41.6222 30.3485 41.3911C30.4525 40.4767 30.4356 39.8743 30.4356 39.8743C30.4356 39.8743 29.8163 40.2154 28.9369 40.8505C28.7204 41.0053 28.4833 41.1867 28.2353 41.3815C27.9837 41.5786 27.7297 41.7939 27.4902 42.0262C26.9991 42.4895 26.4911 43.0241 26.0109 43.6107C25.7714 43.9071 25.5428 44.2155 25.3166 44.5349C25.2114 44.6945 25.1049 44.8615 25.0033 45.026C24.9089 45.1905 24.8207 45.3598 24.7396 45.5292C24.4106 46.2065 24.1542 46.9166 24.0151 47.6351C23.9534 47.9919 23.9049 48.3512 23.9134 48.7019C23.9328 49.0527 23.986 49.4011 24.078 49.7349C24.2667 50.4111 24.6102 51.0485 25.1497 51.6038ZM15.4874 48.9293C15.6919 49.2983 15.9059 49.6587 16.1527 49.9902C16.4067 50.3167 16.6825 50.6203 16.9667 50.901C18.1171 52.015 19.502 52.6561 21.1749 52.4976C21.4568 51.7332 21.5414 51.0026 21.4616 50.2986C21.4193 49.9454 21.3394 49.5982 21.2293 49.2571C21.1217 48.9112 21.0056 48.5701 20.8483 48.2362C20.5399 47.5613 20.1117 46.8996 19.6206 46.2585C19.3642 45.9416 19.1125 45.6211 18.8609 45.3054C18.6045 44.9921 18.3408 44.6849 18.0699 44.3861C16.9764 43.1789 15.7681 42.0782 14.9274 41.2532C14.0649 40.4368 13.4529 39.9166 13.4529 39.9166C13.4529 39.9166 13.4323 40.7488 13.5049 42.0056C13.5472 42.631 13.6767 43.3579 13.8218 44.1393C13.892 44.5288 13.9802 44.9316 14.0782 45.3393C14.1738 45.7433 14.273 46.1594 14.4302 46.5646C14.7266 47.3762 15.0774 48.183 15.4874 48.9293ZM26.9906 61.5587C27.3027 62.1913 27.7648 62.7514 28.4022 63.2001C29.8634 62.3631 30.6993 61.1088 31.142 59.7504C31.2545 59.4093 31.3367 59.0609 31.4032 58.7065C31.4371 58.5347 31.4649 58.3557 31.4855 58.1815C31.5085 58.0025 31.5399 57.8211 31.5677 57.6408C31.6597 56.9211 31.6815 56.2014 31.6597 55.5095C31.5678 54.133 31.4855 52.8351 31.3089 51.8892C31.2315 51.4187 31.142 51.0316 31.0839 50.7631C31.0368 50.4909 31.0089 50.3421 31.0089 50.3421C31.0089 50.3421 30.8746 50.4643 30.6509 50.6929C30.4162 50.9215 30.1247 51.2481 29.7861 51.6667C29.1026 52.5073 28.2487 53.7036 27.5592 55.0934C26.9012 56.4699 26.4802 58.0219 26.4875 59.4988C26.4851 59.8725 26.5431 60.2257 26.6302 60.5656C26.7137 60.9128 26.8346 61.2442 26.9906 61.5587ZM18.2876 62.1889C18.5513 62.5143 18.8598 62.7961 19.1767 63.0647C19.4876 63.3332 19.8093 63.5727 20.1432 63.788C21.4749 64.642 22.9543 65.0024 24.563 64.5319C24.6985 63.7275 24.638 62.9909 24.4263 62.3087C24.3235 61.9724 24.1772 61.6434 23.9957 61.3277C23.824 61.0108 23.6013 60.7132 23.3969 60.4084C22.5321 59.2061 21.1955 58.167 19.8504 57.2405C18.5453 56.3042 17.1688 55.4999 16.1152 54.9168C15.0399 54.3399 14.3601 53.9806 14.3601 53.9806C14.3601 53.9806 14.3927 54.185 14.4822 54.5334C14.5741 54.8781 14.7206 55.3668 14.9177 55.9547C15.3181 57.1243 15.8769 58.6932 16.8034 60.1217C17.251 60.8451 17.7505 61.5551 18.2876 62.1889ZM31.2496 70.7093C31.6802 72.1016 32.6866 73.247 34.2131 73.6002C35.2788 72.2975 35.6126 70.8738 35.6997 69.5287C35.7771 68.1837 35.603 66.9088 35.4602 65.8383C35.4082 65.3847 35.2268 64.6202 35.0599 64.0202C34.8881 63.4046 34.6982 62.8482 34.524 62.3849C34.3523 61.9168 34.1902 61.5382 34.0765 61.2745C33.9809 61.006 33.9217 60.8559 33.9217 60.8559C33.9217 60.8559 33.8079 61.0072 33.6337 61.2793C33.4475 61.5551 33.2322 61.9421 32.9733 62.4272C32.4677 63.3937 31.8581 64.7484 31.4347 66.2471C31.3258 66.6233 31.2352 67.0068 31.159 67.395C31.0864 67.7579 31.0295 68.1292 30.9944 68.5054C30.9775 68.8792 30.9896 69.2517 31.0247 69.6279C31.0646 69.998 31.1516 70.3561 31.2496 70.7093ZM20.0403 67.8438C18.8973 67.4857 18.1558 67.2741 18.1558 67.2741C18.1558 67.2741 18.226 67.4627 18.3699 67.7821C18.5259 68.0954 18.7557 68.5417 19.0496 69.0691C19.346 69.5941 19.7065 70.2037 20.125 70.8423C20.3343 71.1629 20.5581 71.4895 20.7951 71.8185L20.9826 72.0701L21.2136 72.3786C21.3781 72.583 21.5402 72.7874 21.6999 72.9894C23.0389 74.5812 24.6888 75.8005 26.3121 76.3097C27.9378 76.8311 29.5126 76.6654 30.8589 75.6517C30.4827 74.0405 29.5744 72.9422 28.3491 71.9854C28.0503 71.7411 27.7164 71.5221 27.3826 71.2911C27.0487 71.0625 26.6895 70.846 26.3266 70.6307C25.965 70.4021 25.5936 70.1831 25.2101 69.9678C24.8472 69.7694 24.4952 69.5941 24.1275 69.4211C22.6748 68.7352 21.1834 68.2079 20.0403 67.8438ZM39.8063 79.4208C40.7208 80.582 42.0005 81.3465 43.5936 81.2642C44.2383 79.7147 44.1282 78.2318 43.6891 76.8722C43.2512 75.5174 42.4759 74.2728 41.692 73.189C40.9022 72.1052 40.1027 71.1798 39.5124 70.517C39.2233 70.1831 38.9765 69.917 38.7999 69.7368C38.6354 69.5505 38.5363 69.455 38.5363 69.455C38.5363 69.455 38.4794 69.6195 38.3995 69.9182C38.3221 70.2194 38.2326 70.6464 38.1479 71.1738C37.9762 72.2298 37.9012 73.6788 38.1262 75.1957C38.3487 76.704 38.8895 78.2535 39.8063 79.4208ZM36.7352 85.7917C38.3488 85.7143 39.7785 85.095 40.7825 83.7451C39.9829 82.313 38.7624 81.5388 37.3061 81.0876C35.8497 80.6413 34.1515 80.5203 32.4822 80.4695C30.8166 80.4199 29.1631 80.4586 27.9245 80.4623C26.6496 80.4889 25.8524 80.4974 25.8524 80.4974C25.8524 80.4974 26.0048 80.6715 26.2939 80.951C26.5806 81.2171 27.0016 81.6126 27.5217 82.0408C28.5728 82.9057 30.057 83.9205 31.6948 84.6584C33.3338 85.3999 35.1192 85.8692 36.7352 85.7917ZM48.3351 82.0287C48.9605 83.4379 49.8726 84.8156 51.0713 85.7143C51.6652 86.1558 52.3317 86.4933 53.0465 86.6312C53.759 86.7703 54.5211 86.7328 55.2662 86.4195C55.3013 84.7334 54.8428 83.3992 54.1207 82.2307C53.3961 81.0707 52.3704 80.0643 51.3096 79.2019C50.2488 78.3419 49.1601 77.6185 48.3412 77.1069C47.5235 76.5916 46.9635 76.2904 46.9635 76.2904C46.9635 76.2904 46.9683 76.4766 47.001 76.7911C47.0312 77.1068 47.0856 77.558 47.1727 78.0987C47.3566 79.1753 47.7001 80.6219 48.3351 82.0287Z" fill="#BDBDBD"/>
<path d="M53.2595 89.1835C52.5301 88.6307 51.8599 88.24 51.1475 87.9835C50.4302 87.7344 49.7008 87.5977 48.923 87.565C47.3772 87.4961 45.6934 87.7839 44.0847 88.1734C42.4711 88.5714 40.9397 89.0504 39.7918 89.4435C38.6511 89.8245 37.9061 90.1185 37.9061 90.1185C37.9061 90.1185 38.6342 90.5418 39.8063 91.0426C40.9772 91.541 42.6005 92.1107 44.3689 92.4155C46.124 92.7239 48.0425 92.7614 49.7129 92.2812C51.3737 91.8131 52.7889 90.7946 53.2595 89.1835ZM104.114 14.8212C102.967 13.9672 101.464 13.4567 99.9704 13.239C99.2338 13.1193 98.491 13.0757 97.8016 13.0721C97.1145 13.0697 96.4892 13.0963 95.9509 13.1495C94.8659 13.2596 94.1752 13.4084 94.1752 13.4084C94.1752 13.4084 94.272 13.5233 94.457 13.7168C94.6433 13.9128 94.9276 14.1752 95.2481 14.5091C95.5771 14.8357 95.9932 15.1973 96.4408 15.588C96.8762 15.9812 97.3891 16.3803 97.9249 16.771C98.4547 17.169 99.0402 17.5403 99.6523 17.8645C100.252 18.2008 100.887 18.4826 101.566 18.6689C102.898 19.0596 104.354 19.1213 105.903 18.4439C105.941 17.6794 105.785 16.9827 105.475 16.3719C105.145 15.7731 104.674 15.2578 104.114 14.8212ZM109.608 17.6117C110.947 16.6077 111.563 15.1986 111.662 13.6261C111.705 12.8471 111.615 12.0282 111.443 11.2057C111.264 10.3868 110.978 9.58967 110.654 8.80585C110.326 8.02929 109.922 7.312 109.536 6.64914C109.15 5.98628 108.724 5.41414 108.373 4.92546C108.019 4.43195 107.694 4.05214 107.459 3.78724C107.233 3.52718 107.097 3.38082 107.097 3.38082C107.097 3.38082 106.968 4.1598 106.846 5.31859C106.778 5.90888 106.707 6.59835 106.651 7.33378C106.626 7.70513 106.601 8.08372 106.588 8.472C106.565 8.86512 106.546 9.26671 106.541 9.67193C106.522 11.271 106.592 12.9269 107.02 14.3168C107.224 15.0244 107.518 15.6618 107.949 16.2122C108.358 16.7759 108.894 17.25 109.608 17.6117ZM110.658 25.9059C110.499 25.5974 110.317 25.2987 110.075 25.0314C109.61 24.4858 109.047 23.9972 108.428 23.575C107.81 23.1565 107.092 22.8275 106.405 22.5481C106.057 22.409 105.706 22.2844 105.368 22.1767C105.026 22.0691 104.668 21.982 104.332 21.9082C103.664 21.7534 103.043 21.6542 102.514 21.5876C101.982 21.5223 101.548 21.4897 101.23 21.48C100.908 21.4631 100.734 21.4655 100.734 21.4655C100.734 21.4655 100.806 21.5949 100.953 21.8187C101.087 22.0461 101.27 22.3739 101.53 22.7549C101.653 22.946 101.793 23.1504 101.95 23.3645C102.033 23.4722 102.115 23.5835 102.2 23.6935C102.272 23.8109 102.354 23.9258 102.439 24.0468C102.775 24.5197 103.171 25.0156 103.615 25.5043C104.026 26.0075 104.494 26.4974 105.017 26.9461C105.149 27.0586 105.288 27.1699 105.417 27.2752C105.548 27.3876 105.678 27.4893 105.818 27.5969C106.087 27.8013 106.375 27.9924 106.678 28.1618C107.273 28.5077 107.957 28.7726 108.655 28.9311C109.353 29.0859 110.115 29.1234 110.946 28.9831C111.059 28.6154 111.131 28.2513 111.146 27.8921C111.146 27.5437 111.101 27.2002 111.019 26.8687C110.938 26.5361 110.811 26.2143 110.658 25.9059ZM115.635 14.1111C115.635 14.1111 115.361 14.8381 114.971 15.9739C114.58 17.1121 114.14 18.6012 113.731 20.1881C113.531 20.9792 113.397 21.7667 113.274 22.5589C113.154 23.3549 113.097 24.1254 113.154 24.8524C113.192 25.214 113.218 25.5769 113.288 25.9253C113.358 26.2748 113.46 26.6099 113.601 26.9316C113.74 27.2522 113.916 27.557 114.135 27.8521C114.339 28.1461 114.587 28.4328 114.879 28.7001C115.659 28.3711 116.281 27.9029 116.775 27.3223C117.281 26.7417 117.593 26.0643 117.824 25.3035C117.941 24.9225 118.024 24.527 118.091 24.1157C118.146 23.7069 118.193 23.2799 118.183 22.8638C118.178 22.0195 118.091 21.1474 117.955 20.3006C117.621 18.6302 117.084 17.0408 116.553 15.9352C116.304 15.3727 116.075 14.9131 115.913 14.5926C115.744 14.2817 115.635 14.1111 115.635 14.1111ZM113.351 36.4403C113.052 35.7871 112.603 35.1702 112.109 34.6065C111.857 34.3247 111.591 34.0513 111.319 33.7997C111.043 33.5433 110.721 33.3098 110.421 33.0873C109.179 32.2055 107.931 31.5728 106.888 31.1979C105.878 30.8168 105.19 30.6524 105.19 30.6524C105.19 30.6524 105.335 31.2318 105.664 32.0761C105.808 32.5055 105.97 33.0123 106.201 33.5481C106.306 33.8142 106.433 34.0936 106.568 34.3767C106.702 34.6609 106.814 34.9573 106.963 35.25C107.235 35.8379 107.581 36.4282 107.977 36.9991C108.33 37.5737 108.756 38.124 109.256 38.6175C110.285 39.5888 111.492 40.3606 113.17 40.5178C113.374 40.1864 113.532 39.8501 113.642 39.5114C113.755 39.1655 113.778 38.8207 113.788 38.4772C113.788 37.7853 113.623 37.0971 113.351 36.4403ZM116.524 36.6519C116.354 37.3813 116.31 38.0914 116.417 38.7917C116.467 39.1425 116.579 39.4836 116.7 39.8259C116.818 40.1695 116.986 40.5106 117.199 40.8468C118.855 40.6122 120.133 39.6638 120.919 38.3018C121.331 37.622 121.643 36.8418 121.898 36.0133C122.117 35.1895 122.227 34.3223 122.302 33.455C122.332 33.022 122.361 32.5865 122.365 32.1656C122.35 31.747 122.327 31.3382 122.302 30.9451C122.24 30.1528 122.156 29.4186 122.065 28.7956C121.813 27.5679 121.575 26.7756 121.575 26.7756C121.575 26.7756 121.121 27.4264 120.49 28.44C120.182 28.9383 119.82 29.5299 119.419 30.183C119.03 30.835 118.63 31.5329 118.258 32.2526C117.905 32.9651 117.514 33.7102 117.207 34.4468C116.89 35.1908 116.668 35.9274 116.524 36.6519ZM113.542 50.5212C113.634 50.1825 113.693 49.8365 113.709 49.4882C113.719 49.135 113.669 48.7757 113.604 48.4177C113.467 47.7028 113.213 46.9903 112.882 46.313C112.799 46.1436 112.71 45.9743 112.623 45.8098C112.524 45.6453 112.413 45.4832 112.305 45.3199C112.086 44.9994 111.849 44.6873 111.612 44.3958C111.134 43.8031 110.626 43.2708 110.132 42.8088C109.894 42.5753 109.639 42.3612 109.388 42.1641C109.142 41.9717 108.902 41.7903 108.685 41.633C107.801 41.0004 107.183 40.6545 107.183 40.6545C107.183 40.6545 107.174 41.2593 107.27 42.1762C107.31 42.406 107.32 42.6552 107.334 42.9213C107.355 43.1886 107.379 43.4716 107.417 43.7656C107.483 44.3534 107.616 44.9909 107.741 45.6477C107.853 46.3033 108.018 46.9807 108.254 47.6447C108.369 47.9737 108.505 48.3052 108.659 48.6281C108.794 48.9487 108.943 49.2656 109.12 49.5668C109.815 50.78 110.877 51.836 112.469 52.3839C113.012 51.8299 113.356 51.1937 113.542 50.5212ZM119.559 45.1663C119.283 45.465 119.018 45.7759 118.764 46.0916C118.51 46.4013 118.256 46.7218 117.999 47.0387C117.508 47.6835 117.083 48.3415 116.772 49.0164C116.613 49.3503 116.496 49.6962 116.395 50.0373C116.278 50.3809 116.198 50.7292 116.16 51.0824C116.082 51.7876 116.16 52.5194 116.449 53.279C118.114 53.4363 119.507 52.7964 120.657 51.686C120.94 51.409 121.214 51.1006 121.468 50.774C121.718 50.4425 121.927 50.0845 122.135 49.7132C122.544 48.9668 122.895 48.1637 123.189 47.3472C123.347 46.9444 123.447 46.5283 123.547 46.117C123.642 45.7118 123.727 45.3126 123.801 44.9219C123.946 44.1442 124.073 43.4148 124.118 42.7894C124.19 41.5339 124.168 40.7029 124.168 40.7029C124.168 40.7029 123.555 41.2206 122.694 42.0383C121.856 42.8608 120.647 43.9615 119.559 45.1663ZM109.214 63.9876C109.854 63.54 110.317 62.9727 110.629 62.3413C110.788 62.028 110.903 61.6942 110.992 61.3543C111.075 61.0083 111.143 60.6576 111.137 60.2862C111.147 58.8093 110.721 57.2562 110.067 55.876C109.369 54.4886 108.515 53.2936 107.838 52.4565C107.494 52.0356 107.205 51.7066 106.973 51.478C106.749 51.2493 106.616 51.1247 106.616 51.1247C106.616 51.1247 106.582 51.2784 106.541 51.5481C106.479 51.8191 106.392 52.2037 106.312 52.6791C106.136 53.6226 106.053 54.9156 105.963 56.2946C105.936 56.9864 105.963 57.7062 106.058 58.4259C106.084 58.6097 106.113 58.7887 106.136 58.9641C106.157 59.1407 106.188 59.3173 106.216 59.4939C106.278 59.8496 106.367 60.1943 106.479 60.5354C106.923 61.8913 107.753 63.1493 109.214 63.9876ZM123.14 55.3148C123.227 54.9664 123.26 54.7644 123.26 54.7644C123.26 54.7644 122.583 55.1249 121.507 55.7031C120.456 56.2837 119.078 57.0893 117.776 58.0267C116.423 58.9484 115.089 59.9923 114.227 61.1934C114.015 61.497 113.799 61.797 113.619 62.1127C113.443 62.4296 113.295 62.755 113.194 63.0961C112.98 63.7759 112.922 64.5113 113.057 65.3169C114.663 65.785 116.148 65.4246 117.478 64.5718C117.812 64.3601 118.132 64.1146 118.449 63.8485C118.755 63.5812 119.068 63.2957 119.334 62.974C119.874 62.3389 120.373 61.6313 120.818 60.9092C121.742 59.477 122.302 57.9082 122.702 56.7385C122.897 56.153 123.046 55.6583 123.14 55.3148ZM106.187 67.0309C105.763 65.5298 105.149 64.1799 104.645 63.211C104.391 62.7248 104.165 62.3389 103.985 62.0655C103.806 61.7934 103.702 61.6397 103.702 61.6397C103.702 61.6397 103.64 61.7922 103.542 62.0559C103.43 62.322 103.268 62.703 103.096 63.1663C102.922 63.6344 102.731 64.1872 102.563 64.8041C102.396 65.4016 102.209 66.1685 102.161 66.6221C102.019 67.6902 101.845 68.9663 101.921 70.3126C102.009 71.6576 102.342 73.0849 103.406 74.3828C104.937 74.0284 105.936 72.8878 106.372 71.4907C106.47 71.1411 106.559 70.7807 106.597 70.4081C106.63 70.0344 106.644 69.663 106.621 69.2868C106.588 68.9106 106.536 68.5393 106.461 68.1788C106.381 67.7893 106.288 67.4035 106.187 67.0309ZM115.919 73.7708C116.086 73.5712 116.248 73.3656 116.409 73.1612L116.641 72.8515L116.827 72.5999C117.062 72.2733 117.286 71.9467 117.494 71.6286C117.912 70.9912 118.275 70.3803 118.573 69.8553C118.864 69.3268 119.092 68.884 119.245 68.5695C119.393 68.249 119.464 68.0591 119.464 68.0591C119.464 68.0591 118.724 68.2732 117.575 68.6336C116.441 68.9941 114.948 69.5227 113.497 70.2049C113.128 70.3767 112.77 70.5545 112.414 70.7529C112.032 70.9694 111.654 71.1907 111.296 71.4109C110.934 71.6322 110.574 71.8463 110.24 72.0786C109.904 72.3047 109.569 72.5261 109.27 72.7729C108.047 73.7272 107.138 74.8231 106.763 76.4392C108.109 77.448 109.685 77.6197 111.31 77.0972C112.925 76.5867 114.584 75.3687 115.919 73.7708ZM94.0288 82.0468C95.6146 82.1315 96.898 81.3671 97.8185 80.2034C98.7257 79.0362 99.2785 77.4891 99.495 75.9795C99.7188 74.4615 99.6462 73.0136 99.4696 71.9576C99.3898 71.4314 99.2954 71.0032 99.2156 70.702C99.1382 70.4033 99.0813 70.2364 99.0813 70.2364C99.0813 70.2364 98.9846 70.3343 98.8152 70.5206C98.6386 70.7008 98.3943 70.9657 98.11 71.302C97.5197 71.9673 96.7202 72.889 95.9267 73.9716C95.1453 75.0578 94.3699 76.3 93.9248 77.6572C93.4954 79.0204 93.3829 80.4973 94.0288 82.0468ZM105.14 81.2521C103.47 81.309 101.764 81.4239 100.314 81.8702C98.8576 82.3214 97.6395 83.098 96.8448 84.5253C97.8391 85.8752 99.2748 86.5006 100.886 86.5731C102.502 86.653 104.29 86.1837 105.926 85.4398C107.563 84.6995 109.047 83.6895 110.093 82.8222C110.62 82.3964 111.039 82.0033 111.328 81.7324C111.616 81.4505 111.769 81.2836 111.769 81.2836C111.769 81.2836 110.969 81.2691 109.699 81.2461C108.457 81.24 106.805 81.2038 105.14 81.2521ZM84.5807 87.4126C85.2907 87.2783 85.9524 86.9397 86.5535 86.4982C87.7462 85.597 88.6595 84.2241 89.2885 82.8174C89.9187 81.4082 90.2598 79.9603 90.446 78.8801C90.5355 78.3382 90.5852 77.8871 90.6178 77.5726C90.6456 77.2593 90.6553 77.0766 90.6553 77.0766C90.6553 77.0766 90.0952 77.3754 89.2787 77.8883C88.4574 78.4035 87.3736 79.1232 86.308 79.9869C85.252 80.8517 84.2203 81.8557 83.4957 83.0181C82.7736 84.1854 82.3176 85.5184 82.3599 87.2046C83.0977 87.5166 83.8634 87.5541 84.5807 87.4126ZM93.2559 93.2005C95.0195 92.8969 96.6452 92.3308 97.8185 91.8276C98.9845 91.3268 99.7139 90.9083 99.7139 90.9083C99.7139 90.9083 98.97 90.6096 97.8245 90.2285C96.679 89.8378 95.1502 89.354 93.5354 88.9585C91.9218 88.5702 90.2428 88.2787 88.697 88.3488C87.9204 88.3827 87.185 88.5158 86.4725 88.7698C85.7565 89.0238 85.0911 89.4169 84.3617 89.9649C84.8298 91.5785 86.2463 92.5994 87.9071 93.0675C89.5763 93.5489 91.4935 93.5114 93.2559 93.2005ZM36.7206 79.1729C41.1163 82.821 46.4773 85.3164 51.7378 87.4404C56.0415 89.181 61.5645 92.0224 67.1879 94.6726C62.1342 96.2463 57.1459 97.5321 53.1348 98.2046C52.6075 98.2893 55.3049 101.039 55.8141 100.884C60.4711 99.4819 65.1957 97.7813 69.8551 95.9028C74.9451 98.2143 79.9709 100.197 84.1078 100.889C84.6303 100.976 86.2499 98.2058 85.7286 98.1187C81.8071 97.4619 77.2518 96.2959 72.5101 94.8093C80.3205 91.5289 87.8405 87.8166 94.3433 84.2797C101.401 80.4344 106.701 74.9755 110.184 67.7192C113.413 60.9999 115.69 53.5693 116.027 46.1061C116.49 35.7702 113.018 25.6325 107.634 16.9186C106.058 14.3688 104.295 11.8238 102.34 9.46024C102.514 8.80585 102.535 8.16839 102.422 7.56722C102.29 6.85477 102.013 6.17014 101.588 5.55929C100.769 4.30494 99.4418 3.29856 98.0858 2.54619C96.719 1.79866 95.2977 1.32814 94.2381 1.07412C93.7047 0.942275 93.2644 0.872125 92.9584 0.82737C92.806 0.808017 92.6838 0.794703 92.6051 0.792283C92.5326 0.785026 92.4927 0.78503 92.4927 0.78503C92.4927 0.78503 92.5072 0.822514 92.5374 0.892671C92.5773 0.961618 92.6245 1.06928 92.6922 1.20354C92.8314 1.47933 93.0309 1.86398 93.2849 2.33451C93.7905 3.26832 94.4801 4.49848 95.2929 5.6984C95.6933 6.30199 96.1541 6.87655 96.6246 7.4245C96.8593 7.69182 97.1133 7.94945 97.377 8.18411C97.631 8.42845 97.8995 8.65223 98.1838 8.84939C98.7547 9.23525 99.3547 9.55459 100.03 9.72636C100.54 9.85094 101.08 9.90659 101.658 9.87272C105.411 14.3107 108.482 19.466 110.823 24.6407C113.798 31.2305 115.385 38.4119 115.215 45.6489C115.033 53.5379 112.401 61.5454 108.865 68.5526C106.11 74.0043 102.1 78.4519 96.973 81.771C92.3862 84.7346 87.3555 86.9578 82.355 89.1206C78.6113 90.7438 74.1636 92.407 69.6543 93.8864C59.9969 90.6616 49.9028 86.2962 42.9077 82.3468C39.2499 80.2869 35.9429 77.7564 33.2044 74.5619C30.4695 71.3697 28.4954 67.5813 26.912 63.7118C23.9086 56.3708 22.0035 48.7745 22.4692 40.8009C23.0147 31.5015 26.6677 22.6073 31.7577 14.8962C33.0629 12.9209 34.4793 10.9493 36.0167 9.09374C36.5719 9.12156 37.092 9.0635 37.5903 8.94254C38.2629 8.77078 38.8604 8.45265 39.4362 8.06558C39.7132 7.86842 39.9866 7.64464 40.2406 7.40272C40.5055 7.16806 40.7583 6.91163 40.993 6.64068C41.4708 6.09274 41.9195 5.52181 42.3259 4.91459C43.14 3.71709 43.827 2.48209 44.329 1.5507C44.5806 1.08258 44.7862 0.689471 44.9193 0.417312C44.9894 0.283047 45.0415 0.176599 45.079 0.104023C45.1056 0.0374957 45.1188 0 45.1188 0C45.1188 0 45.0838 -1.32902e-06 45.0088 0.00241786C44.9289 0.00725624 44.8116 0.0241963 44.6604 0.0423403C44.352 0.0846761 43.9105 0.159665 43.3807 0.289091C42.3199 0.543106 40.8998 1.01363 39.5305 1.75875C38.1733 2.51353 36.8488 3.5187 36.0275 4.77426C35.6042 5.38874 35.3199 6.07216 35.1978 6.77978C35.0804 7.37006 35.101 7.99543 35.2655 8.64015C31.6718 12.9088 28.701 17.8246 26.3968 22.7476C23.5554 28.8319 21.839 35.4157 21.5777 42.1375C21.2838 49.8595 23.3849 57.2586 26.2867 64.3396C28.6212 70.038 31.9536 75.2175 36.7206 79.1729ZM39.6938 15.9848C40.2321 15.5941 40.745 15.1998 41.1829 14.8018C41.634 14.4111 42.0441 14.0494 42.3682 13.7216C42.6948 13.3926 42.9766 13.1265 43.1629 12.9318C43.3492 12.7407 43.4472 12.627 43.4472 12.627C43.4472 12.627 42.7529 12.4721 41.6715 12.3657C41.1308 12.3137 40.5067 12.2859 39.8184 12.2907C39.129 12.2955 38.3863 12.3379 37.652 12.4576C36.1582 12.6766 34.6547 13.1846 33.5056 14.0349C32.9479 14.474 32.4774 14.9893 32.1484 15.5868C31.8399 16.1977 31.6803 16.8944 31.7178 17.6589C33.2624 18.3314 34.7236 18.2733 36.0542 17.8851C36.734 17.694 37.3762 17.417 37.9713 17.0807C38.581 16.7565 39.1664 16.3864 39.6938 15.9848ZM28.0115 16.8315C28.7288 16.4698 29.2586 15.9921 29.6675 15.4296C30.1017 14.8816 30.3993 14.2418 30.5989 13.5317C31.0319 12.1468 31.0997 10.4884 31.0839 8.88931C31.0791 8.4841 31.0598 8.08251 31.0368 7.68697C31.0223 7.30111 30.9969 6.92009 30.9702 6.55359C30.9146 5.81331 30.8408 5.12505 30.7755 4.53476C30.6557 3.37113 30.5239 2.597 30.5239 2.597C30.5239 2.597 30.3896 2.7482 30.1574 3.00584C29.9288 3.26712 29.6046 3.64813 29.249 4.14165C28.8921 4.63274 28.4724 5.20005 28.0805 5.86533C27.6995 6.52939 27.2943 7.24306 26.9701 8.02204C26.6508 8.80465 26.3568 9.60177 26.1802 10.4231C26.0012 11.2432 25.919 12.0621 25.9565 12.8386C26.0569 14.416 26.6773 15.8227 28.0115 16.8315ZM36.6723 21.0373C36.8126 20.8111 36.8888 20.6816 36.8888 20.6816C36.8888 20.6816 36.7073 20.6817 36.3953 20.6913C36.0747 20.7034 35.6381 20.7361 35.107 20.805C34.5772 20.8704 33.9591 20.972 33.2842 21.1244C32.9527 21.203 32.5947 21.284 32.256 21.3929C31.9173 21.5006 31.569 21.6227 31.2194 21.7618C30.5299 22.0424 29.815 22.3787 29.1921 22.79C28.5752 23.2133 28.0091 23.6984 27.5446 24.2476C27.3051 24.5161 27.1237 24.8148 26.9665 25.1245C26.8141 25.4305 26.6919 25.7511 26.6024 26.0837C26.5201 26.4163 26.4754 26.7587 26.4754 27.1095C26.4923 27.4663 26.5625 27.8316 26.6798 28.2005C27.4999 28.3372 28.2704 28.2997 28.9708 28.1449C29.6651 27.9864 30.3449 27.7263 30.9449 27.3828C31.2485 27.2111 31.5303 27.0187 31.8049 26.8119C31.9464 26.7103 32.0734 26.6002 32.2004 26.4913C32.3358 26.3861 32.4701 26.2748 32.5996 26.1623C33.1269 25.7124 33.5927 25.2188 34.0063 24.7181C34.4466 24.233 34.8482 23.7347 35.1845 23.2605C35.2667 23.1456 35.3442 23.0259 35.424 22.9122C35.5111 22.7972 35.5885 22.6884 35.6707 22.5795C35.8231 22.3654 35.9695 22.1586 36.0917 21.9699C36.3445 21.5864 36.5356 21.2598 36.6723 21.0373ZM23.4792 27.0659C23.703 26.7768 23.8796 26.4684 24.0211 26.1454C24.1602 25.8237 24.263 25.4898 24.3308 25.139C24.4009 24.7943 24.4275 24.4302 24.4674 24.0673C24.5182 23.3404 24.4674 22.5686 24.3441 21.7739C24.2243 20.9816 24.0901 20.1954 23.8832 19.4007C23.478 17.8173 23.0389 16.3283 22.6482 15.1901C22.2551 14.0543 21.9853 13.3273 21.9853 13.3273C21.9853 13.3273 21.8777 13.4967 21.7083 13.8124C21.5414 14.1293 21.3153 14.5853 21.0661 15.1478C20.529 16.263 20.0004 17.8512 19.6641 19.518C19.525 20.3672 19.4367 21.2369 19.4367 22.0799C19.427 22.4985 19.4694 22.9242 19.5359 23.3331C19.5976 23.7443 19.6786 24.1399 19.7923 24.5185C20.0222 25.2805 20.3403 25.9555 20.8435 26.5373C21.3394 27.1203 21.9648 27.5884 22.7365 27.9175C23.0341 27.6477 23.2784 27.3635 23.4792 27.0659ZM28.3635 37.8277C28.8667 37.339 29.2901 36.7874 29.6433 36.2116C30.0328 35.6419 30.3836 35.0541 30.6594 34.4614C30.8045 34.1699 30.9134 33.8759 31.0537 33.5941C31.1879 33.3098 31.3125 33.0316 31.4214 32.7631C31.6488 32.2248 31.8061 31.7216 31.9573 31.2934C32.2863 30.4419 32.4254 29.8673 32.4254 29.8673C32.4254 29.8673 31.7432 30.0343 30.7271 30.4153C29.6893 30.7866 28.441 31.4192 27.2011 32.301C26.8975 32.5224 26.5782 32.757 26.3024 33.0159C26.0266 33.2675 25.7593 33.536 25.5101 33.8179C25.019 34.3852 24.5679 35.0021 24.2703 35.6552C23.9909 36.3108 23.8336 36.9979 23.8336 37.6898C23.836 38.0333 23.8638 38.3792 23.9727 38.7191C24.09 39.0627 24.2401 39.4013 24.4529 39.7304C26.1331 39.5779 27.3366 38.8038 28.3635 37.8277ZM19.363 31.4676C18.9904 30.7503 18.5888 30.0512 18.1981 29.4004C17.7941 28.7436 17.4312 28.1533 17.1276 27.655C16.4998 26.6486 16.0438 25.9894 16.0438 25.9894C16.0438 25.9894 15.8068 26.7817 15.5576 28.0118C15.4632 28.6384 15.3761 29.369 15.3181 30.1588C15.2878 30.5556 15.2636 30.9656 15.2552 31.3842C15.2552 31.8051 15.283 32.2381 15.3181 32.6712C15.3955 33.5336 15.5056 34.4069 15.7245 35.2295C15.9713 36.058 16.2906 36.8382 16.7007 37.5156C17.4905 38.88 18.7666 39.8271 20.4214 40.0606C20.6379 39.7243 20.7975 39.3856 20.9197 39.0421C21.037 38.6974 21.1519 38.3551 21.2003 38.0091C21.3152 37.31 21.262 36.5927 21.0927 35.8657C20.9536 35.1387 20.7298 34.4045 20.4177 33.6642C20.1045 32.9288 19.7186 32.1825 19.363 31.4676ZM25.1497 51.6038C26.7415 51.0534 27.8072 49.9962 28.5063 48.783C28.6829 48.4769 28.8329 48.1649 28.9647 47.8431C29.1195 47.5214 29.2538 47.1912 29.3711 46.8597C29.6046 46.1969 29.7715 45.5219 29.8816 44.8651C30.0086 44.2107 30.1428 43.5732 30.2069 42.9842C30.2444 42.6902 30.2675 42.4072 30.2893 42.1399C30.3062 41.8738 30.3158 41.6222 30.3485 41.3911C30.4525 40.4767 30.4356 39.8743 30.4356 39.8743C30.4356 39.8743 29.8163 40.2154 28.9369 40.8505C28.7204 41.0053 28.4833 41.1867 28.2353 41.3815C27.9837 41.5786 27.7297 41.7939 27.4902 42.0262C26.9991 42.4895 26.4911 43.0241 26.0109 43.6107C25.7714 43.9071 25.5428 44.2155 25.3166 44.5349C25.2114 44.6945 25.1049 44.8615 25.0033 45.026C24.9089 45.1905 24.8207 45.3598 24.7396 45.5292C24.4106 46.2065 24.1542 46.9166 24.0151 47.6351C23.9534 47.9919 23.9049 48.3512 23.9134 48.7019C23.9328 49.0527 23.986 49.4011 24.078 49.7349C24.2667 50.4111 24.6102 51.0485 25.1497 51.6038ZM15.4874 48.9293C15.6919 49.2983 15.9059 49.6587 16.1527 49.9902C16.4067 50.3167 16.6825 50.6203 16.9667 50.901C18.1171 52.015 19.502 52.6561 21.1749 52.4976C21.4568 51.7332 21.5414 51.0026 21.4616 50.2986C21.4193 49.9454 21.3394 49.5982 21.2293 49.2571C21.1217 48.9112 21.0056 48.5701 20.8483 48.2362C20.5399 47.5613 20.1117 46.8996 19.6206 46.2585C19.3642 45.9416 19.1125 45.6211 18.8609 45.3054C18.6045 44.9921 18.3408 44.6849 18.0699 44.3861C16.9764 43.1789 15.7681 42.0782 14.9274 41.2532C14.0649 40.4368 13.4529 39.9166 13.4529 39.9166C13.4529 39.9166 13.4323 40.7488 13.5049 42.0056C13.5472 42.631 13.6767 43.3579 13.8218 44.1393C13.892 44.5288 13.9802 44.9316 14.0782 45.3393C14.1738 45.7433 14.273 46.1594 14.4302 46.5646C14.7266 47.3762 15.0774 48.183 15.4874 48.9293ZM26.9906 61.5587C27.3027 62.1913 27.7648 62.7514 28.4022 63.2001C29.8634 62.3631 30.6993 61.1088 31.142 59.7504C31.2545 59.4093 31.3367 59.0609 31.4032 58.7065C31.4371 58.5347 31.4649 58.3557 31.4855 58.1815C31.5085 58.0025 31.5399 57.8211 31.5677 57.6408C31.6597 56.9211 31.6815 56.2014 31.6597 55.5095C31.5678 54.133 31.4855 52.8351 31.3089 51.8892C31.2315 51.4187 31.142 51.0316 31.0839 50.7631C31.0368 50.4909 31.0089 50.3421 31.0089 50.3421C31.0089 50.3421 30.8746 50.4643 30.6509 50.6929C30.4162 50.9215 30.1247 51.2481 29.7861 51.6667C29.1026 52.5073 28.2487 53.7036 27.5592 55.0934C26.9012 56.4699 26.4802 58.0219 26.4875 59.4988C26.4851 59.8725 26.5431 60.2257 26.6302 60.5656C26.7137 60.9128 26.8346 61.2442 26.9906 61.5587ZM18.2876 62.1889C18.5513 62.5143 18.8598 62.7961 19.1767 63.0647C19.4876 63.3332 19.8093 63.5727 20.1432 63.788C21.4749 64.642 22.9543 65.0024 24.563 64.5319C24.6985 63.7275 24.638 62.9909 24.4263 62.3087C24.3235 61.9724 24.1772 61.6434 23.9957 61.3277C23.824 61.0108 23.6013 60.7132 23.3969 60.4084C22.5321 59.2061 21.1955 58.167 19.8504 57.2405C18.5453 56.3042 17.1688 55.4999 16.1152 54.9168C15.0399 54.3399 14.3601 53.9806 14.3601 53.9806C14.3601 53.9806 14.3927 54.185 14.4822 54.5334C14.5741 54.8781 14.7206 55.3668 14.9177 55.9547C15.3181 57.1243 15.8769 58.6932 16.8034 60.1217C17.251 60.8451 17.7505 61.5551 18.2876 62.1889ZM31.2496 70.7093C31.6802 72.1016 32.6866 73.247 34.2131 73.6002C35.2788 72.2975 35.6126 70.8738 35.6997 69.5287C35.7771 68.1837 35.603 66.9088 35.4602 65.8383C35.4082 65.3847 35.2268 64.6202 35.0599 64.0202C34.8881 63.4046 34.6982 62.8482 34.524 62.3849C34.3523 61.9168 34.1902 61.5382 34.0765 61.2745C33.9809 61.006 33.9217 60.8559 33.9217 60.8559C33.9217 60.8559 33.8079 61.0072 33.6337 61.2793C33.4475 61.5551 33.2322 61.9421 32.9733 62.4272C32.4677 63.3937 31.8581 64.7484 31.4347 66.2471C31.3258 66.6233 31.2352 67.0068 31.159 67.395C31.0864 67.7579 31.0295 68.1292 30.9944 68.5054C30.9775 68.8792 30.9896 69.2517 31.0247 69.6279C31.0646 69.998 31.1516 70.3561 31.2496 70.7093ZM20.0403 67.8438C18.8973 67.4857 18.1558 67.2741 18.1558 67.2741C18.1558 67.2741 18.226 67.4627 18.3699 67.7821C18.5259 68.0954 18.7557 68.5417 19.0496 69.0691C19.346 69.5941 19.7065 70.2037 20.125 70.8423C20.3343 71.1629 20.5581 71.4895 20.7951 71.8185L20.9826 72.0701L21.2136 72.3786C21.3781 72.583 21.5402 72.7874 21.6999 72.9894C23.0389 74.5812 24.6888 75.8005 26.3121 76.3097C27.9378 76.8311 29.5126 76.6654 30.8589 75.6517C30.4827 74.0405 29.5744 72.9422 28.3491 71.9854C28.0503 71.7411 27.7164 71.5221 27.3826 71.2911C27.0487 71.0625 26.6895 70.846 26.3266 70.6307C25.965 70.4021 25.5936 70.1831 25.2101 69.9678C24.8472 69.7694 24.4952 69.5941 24.1275 69.4211C22.6748 68.7352 21.1834 68.2079 20.0403 67.8438ZM39.8063 79.4208C40.7208 80.582 42.0005 81.3465 43.5936 81.2642C44.2383 79.7147 44.1282 78.2318 43.6891 76.8722C43.2512 75.5174 42.4759 74.2728 41.692 73.189C40.9022 72.1052 40.1027 71.1798 39.5124 70.517C39.2233 70.1831 38.9765 69.917 38.7999 69.7368C38.6354 69.5505 38.5363 69.455 38.5363 69.455C38.5363 69.455 38.4794 69.6195 38.3995 69.9182C38.3221 70.2194 38.2326 70.6464 38.1479 71.1738C37.9762 72.2298 37.9012 73.6788 38.1262 75.1957C38.3487 76.704 38.8895 78.2535 39.8063 79.4208ZM36.7352 85.7917C38.3488 85.7143 39.7785 85.095 40.7825 83.7451C39.9829 82.313 38.7624 81.5388 37.3061 81.0876C35.8497 80.6413 34.1515 80.5203 32.4822 80.4695C30.8166 80.4199 29.1631 80.4586 27.9245 80.4623C26.6496 80.4889 25.8524 80.4974 25.8524 80.4974C25.8524 80.4974 26.0048 80.6715 26.2939 80.951C26.5806 81.2171 27.0016 81.6126 27.5217 82.0408C28.5728 82.9057 30.057 83.9205 31.6948 84.6584C33.3338 85.3999 35.1192 85.8692 36.7352 85.7917ZM48.3351 82.0287C48.9605 83.4379 49.8726 84.8156 51.0713 85.7143C51.6652 86.1558 52.3317 86.4933 53.0465 86.6312C53.759 86.7703 54.5211 86.7328 55.2662 86.4195C55.3013 84.7334 54.8428 83.3992 54.1207 82.2307C53.3961 81.0707 52.3704 80.0643 51.3096 79.2019C50.2488 78.3419 49.1601 77.6185 48.3412 77.1069C47.5235 76.5916 46.9635 76.2904 46.9635 76.2904C46.9635 76.2904 46.9683 76.4766 47.001 76.7911C47.0312 77.1068 47.0856 77.558 47.1727 78.0987C47.3566 79.1753 47.7001 80.6219 48.3351 82.0287Z" fill="url(#paint0_linear_310_453)"/>
<path d="M1.58452 124.793H3.05611L6.51634 133.244H6.63565L10.0959 124.793H11.5675V134.975H10.4141V127.239H10.3146L7.13281 134.975H6.01918L2.83736 127.239H2.73793V134.975H1.58452V124.793ZM16.9828 135.134C16.2934 135.134 15.6885 134.97 15.1681 134.642C14.6511 134.313 14.2467 133.854 13.9551 133.264C13.6667 132.674 13.5225 131.985 13.5225 131.196C13.5225 130.401 13.6667 129.706 13.9551 129.113C14.2467 128.52 14.6511 128.059 15.1681 127.731C15.6885 127.403 16.2934 127.239 16.9828 127.239C17.6722 127.239 18.2754 127.403 18.7924 127.731C19.3128 128.059 19.7172 128.52 20.0055 129.113C20.2972 129.706 20.443 130.401 20.443 131.196C20.443 131.985 20.2972 132.674 20.0055 133.264C19.7172 133.854 19.3128 134.313 18.7924 134.642C18.2754 134.97 17.6722 135.134 16.9828 135.134ZM16.9828 134.08C17.5065 134.08 17.9373 133.945 18.2754 133.677C18.6135 133.409 18.8637 133.056 19.0261 132.618C19.1885 132.181 19.2697 131.707 19.2697 131.196C19.2697 130.686 19.1885 130.21 19.0261 129.769C18.8637 129.329 18.6135 128.972 18.2754 128.7C17.9373 128.429 17.5065 128.293 16.9828 128.293C16.4591 128.293 16.0282 128.429 15.6902 128.7C15.3521 128.972 15.1019 129.329 14.9395 129.769C14.777 130.21 14.6958 130.686 14.6958 131.196C14.6958 131.707 14.777 132.181 14.9395 132.618C15.1019 133.056 15.3521 133.409 15.6902 133.677C16.0282 133.945 16.4591 134.08 16.9828 134.08ZM27.6431 129.048L26.5891 129.347C26.5228 129.171 26.4251 129 26.2958 128.835C26.1699 128.666 25.9975 128.526 25.7788 128.417C25.56 128.308 25.2799 128.253 24.9386 128.253C24.4712 128.253 24.0818 128.361 23.7702 128.576C23.462 128.788 23.3079 129.058 23.3079 129.387C23.3079 129.678 23.4139 129.909 23.6261 130.078C23.8382 130.247 24.1696 130.387 24.6204 130.5L25.7539 130.779C26.4367 130.944 26.9454 131.198 27.2802 131.539C27.6149 131.877 27.7823 132.313 27.7823 132.847C27.7823 133.284 27.6564 133.675 27.4045 134.02C27.1559 134.365 26.8079 134.637 26.3604 134.835C25.913 135.034 25.3926 135.134 24.7994 135.134C24.0205 135.134 23.3758 134.965 22.8654 134.627C22.355 134.289 22.0318 133.795 21.896 133.145L23.0096 132.867C23.1156 133.278 23.3162 133.586 23.6112 133.791C23.9094 133.997 24.2989 134.1 24.7795 134.1C25.3263 134.1 25.7605 133.984 26.082 133.752C26.4068 133.516 26.5692 133.235 26.5692 132.906C26.5692 132.641 26.4764 132.419 26.2908 132.24C26.1052 132.058 25.8202 131.922 25.4357 131.833L24.163 131.534C23.4637 131.369 22.9499 131.112 22.6218 130.764C22.297 130.412 22.1346 129.973 22.1346 129.446C22.1346 129.015 22.2556 128.634 22.4975 128.303C22.7428 127.971 23.0759 127.711 23.4968 127.522C23.921 127.333 24.4016 127.239 24.9386 127.239C25.6942 127.239 26.2875 127.405 26.7184 127.736C27.1526 128.067 27.4608 128.505 27.6431 129.048ZM32.8695 127.338V128.333H28.9121V127.338H32.8695ZM30.0655 125.509H31.2388V132.787C31.2388 133.119 31.2869 133.367 31.383 133.533C31.4824 133.695 31.6084 133.805 31.7608 133.861C31.9166 133.914 32.0807 133.941 32.253 133.941C32.3823 133.941 32.4883 133.934 32.5712 133.921C32.6541 133.904 32.7203 133.891 32.7701 133.881L33.0087 134.935C32.9292 134.965 32.8181 134.994 32.6756 135.024C32.5331 135.057 32.3525 135.074 32.1337 135.074C31.8023 135.074 31.4775 135.003 31.1593 134.86C30.8444 134.718 30.5826 134.501 30.3738 134.209C30.1683 133.917 30.0655 133.549 30.0655 133.105V125.509ZM39.964 124.793V134.975H38.731V124.793H39.964ZM43.4503 130.381V134.975H42.277V127.338H43.4105V128.531H43.5099C43.6889 128.144 43.9607 127.832 44.3253 127.597C44.6899 127.358 45.1605 127.239 45.7372 127.239C46.2543 127.239 46.7067 127.345 47.0945 127.557C47.4822 127.766 47.7839 128.084 47.9993 128.512C48.2147 128.936 48.3224 129.473 48.3224 130.122V134.975H47.1491V130.202C47.1491 129.602 46.9934 129.135 46.6818 128.8C46.3703 128.462 45.9427 128.293 45.3991 128.293C45.0246 128.293 44.6899 128.374 44.3949 128.536C44.1032 128.699 43.8729 128.936 43.7038 129.247C43.5348 129.559 43.4503 129.937 43.4503 130.381ZM51.6397 130.381V134.975H50.4664V127.338H51.6V128.531H51.6994C51.8784 128.144 52.1502 127.832 52.5147 127.597C52.8793 127.358 53.35 127.239 53.9267 127.239C54.4437 127.239 54.8961 127.345 55.2839 127.557C55.6717 127.766 55.9733 128.084 56.1887 128.512C56.4042 128.936 56.5119 129.473 56.5119 130.122V134.975H55.3386V130.202C55.3386 129.602 55.1828 129.135 54.8713 128.8C54.5597 128.462 54.1322 128.293 53.5886 128.293C53.2141 128.293 52.8793 128.374 52.5843 128.536C52.2927 128.699 52.0623 128.936 51.8933 129.247C51.7243 129.559 51.6397 129.937 51.6397 130.381ZM61.7582 135.134C61.0688 135.134 60.4639 134.97 59.9435 134.642C59.4265 134.313 59.0221 133.854 58.7305 133.264C58.4421 132.674 58.2979 131.985 58.2979 131.196C58.2979 130.401 58.4421 129.706 58.7305 129.113C59.0221 128.52 59.4265 128.059 59.9435 127.731C60.4639 127.403 61.0688 127.239 61.7582 127.239C62.4476 127.239 63.0508 127.403 63.5678 127.731C64.0882 128.059 64.4925 128.52 64.7809 129.113C65.0726 129.706 65.2184 130.401 65.2184 131.196C65.2184 131.985 65.0726 132.674 64.7809 133.264C64.4925 133.854 64.0882 134.313 63.5678 134.642C63.0508 134.97 62.4476 135.134 61.7582 135.134ZM61.7582 134.08C62.2818 134.08 62.7127 133.945 63.0508 133.677C63.3888 133.409 63.6391 133.056 63.8015 132.618C63.9639 132.181 64.0451 131.707 64.0451 131.196C64.0451 130.686 63.9639 130.21 63.8015 129.769C63.6391 129.329 63.3888 128.972 63.0508 128.7C62.7127 128.429 62.2818 128.293 61.7582 128.293C61.2345 128.293 60.8036 128.429 60.4656 128.7C60.1275 128.972 59.8772 129.329 59.7148 129.769C59.5524 130.21 59.4712 130.686 59.4712 131.196C59.4712 131.707 59.5524 132.181 59.7148 132.618C59.8772 133.056 60.1275 133.409 60.4656 133.677C60.8036 133.945 61.2345 134.08 61.7582 134.08ZM72.9803 127.338L70.1564 134.975H68.9632L66.1394 127.338H67.4121L69.5201 133.423H69.5996L71.7076 127.338H72.9803ZM76.5437 135.154C76.0598 135.154 75.6206 135.062 75.2262 134.88C74.8318 134.695 74.5186 134.428 74.2866 134.08C74.0546 133.728 73.9386 133.304 73.9386 132.807C73.9386 132.369 74.0247 132.015 74.1971 131.743C74.3694 131.468 74.5998 131.253 74.8881 131.097C75.1765 130.941 75.4947 130.825 75.8427 130.749C76.194 130.669 76.547 130.606 76.9016 130.56C77.3656 130.5 77.7418 130.455 78.0302 130.426C78.3219 130.392 78.534 130.338 78.6665 130.262C78.8024 130.185 78.8704 130.053 78.8704 129.864V129.824C78.8704 129.334 78.7362 128.952 78.4677 128.681C78.2025 128.409 77.7998 128.273 77.2596 128.273C76.6995 128.273 76.2603 128.396 75.9421 128.641C75.6239 128.886 75.4002 129.148 75.271 129.426L74.1573 129.029C74.3562 128.565 74.6213 128.203 74.9528 127.945C75.2875 127.683 75.6521 127.501 76.0465 127.398C76.4442 127.292 76.8353 127.239 77.2198 127.239C77.4651 127.239 77.7468 127.269 78.065 127.328C78.3865 127.385 78.6964 127.502 78.9947 127.681C79.2963 127.86 79.5465 128.13 79.7454 128.492C79.9442 128.853 80.0437 129.337 80.0437 129.943V134.975H78.8704V133.941H78.8107C78.7312 134.106 78.5986 134.284 78.413 134.472C78.2274 134.661 77.9805 134.822 77.6722 134.955C77.364 135.087 76.9878 135.154 76.5437 135.154ZM76.7227 134.1C77.1867 134.1 77.5778 134.008 77.896 133.826C78.2174 133.644 78.4594 133.409 78.6218 133.12C78.7875 132.832 78.8704 132.529 78.8704 132.21V131.137C78.8207 131.196 78.7113 131.251 78.5423 131.301C78.3765 131.347 78.1843 131.388 77.9656 131.425C77.7501 131.458 77.5397 131.488 77.3342 131.514C77.132 131.538 76.9679 131.557 76.842 131.574C76.5371 131.614 76.252 131.678 75.9869 131.768C75.725 131.854 75.5129 131.985 75.3505 132.161C75.1914 132.333 75.1119 132.568 75.1119 132.867C75.1119 133.274 75.2627 133.583 75.5643 133.791C75.8692 133.997 76.2553 134.1 76.7227 134.1ZM85.5062 127.338V128.333H81.5488V127.338H85.5062ZM82.7022 125.509H83.8755V132.787C83.8755 133.119 83.9236 133.367 84.0197 133.533C84.1191 133.695 84.2451 133.805 84.3975 133.861C84.5533 133.914 84.7174 133.941 84.8897 133.941C85.019 133.941 85.1251 133.934 85.2079 133.921C85.2908 133.904 85.3571 133.891 85.4068 133.881L85.6454 134.935C85.5659 134.965 85.4548 134.994 85.3123 135.024C85.1698 135.057 84.9892 135.074 84.7704 135.074C84.439 135.074 84.1142 135.003 83.796 134.86C83.4811 134.718 83.2193 134.501 83.0105 134.209C82.805 133.917 82.7022 133.549 82.7022 133.105V125.509ZM87.2711 134.975V127.338H88.4444V134.975H87.2711ZM87.8677 126.066C87.639 126.066 87.4418 125.988 87.2761 125.832C87.1137 125.676 87.0325 125.489 87.0325 125.27C87.0325 125.051 87.1137 124.864 87.2761 124.708C87.4418 124.552 87.639 124.475 87.8677 124.475C88.0964 124.475 88.292 124.552 88.4544 124.708C88.6201 124.864 88.7029 125.051 88.7029 125.27C88.7029 125.489 88.6201 125.676 88.4544 125.832C88.292 125.988 88.0964 126.066 87.8677 126.066ZM96.8377 127.338L94.0138 134.975H92.8207L89.9968 127.338H91.2695L93.3775 133.423H93.457L95.565 127.338H96.8377ZM101.315 135.134C100.579 135.134 99.9441 134.971 99.4105 134.646C98.8802 134.318 98.4709 133.861 98.1825 133.274C97.8975 132.684 97.755 131.998 97.755 131.216C97.755 130.434 97.8975 129.744 98.1825 129.148C98.4709 128.548 98.8719 128.081 99.3857 127.746C99.9027 127.408 100.506 127.239 101.195 127.239C101.593 127.239 101.986 127.305 102.374 127.438C102.761 127.57 103.114 127.786 103.433 128.084C103.751 128.379 104.004 128.77 104.193 129.257C104.382 129.744 104.477 130.344 104.477 131.057V131.554H98.5902V130.54H103.283C103.283 130.109 103.197 129.725 103.025 129.387C102.856 129.048 102.614 128.782 102.299 128.586C101.987 128.391 101.62 128.293 101.195 128.293C100.728 128.293 100.324 128.409 99.9822 128.641C99.6442 128.869 99.384 129.168 99.2017 129.536C99.0194 129.904 98.9283 130.298 98.9283 130.719V131.395C98.9283 131.972 99.0277 132.461 99.2266 132.862C99.4287 133.259 99.7088 133.563 100.067 133.771C100.425 133.977 100.841 134.08 101.315 134.08C101.623 134.08 101.901 134.037 102.15 133.95C102.402 133.861 102.619 133.728 102.801 133.553C102.983 133.374 103.124 133.152 103.224 132.887L104.357 133.205C104.238 133.589 104.037 133.927 103.756 134.219C103.474 134.507 103.126 134.733 102.712 134.895C102.297 135.054 101.832 135.134 101.315 135.134ZM110.776 134.975H109.483L113.222 124.793H114.494L118.233 134.975H116.94L113.898 126.404H113.818L110.776 134.975ZM111.253 130.997H116.463V132.091H111.253V130.997ZM119.66 137.838V127.338H120.793V128.551H120.933C121.019 128.419 121.138 128.25 121.29 128.044C121.446 127.835 121.668 127.65 121.957 127.487C122.248 127.322 122.643 127.239 123.14 127.239C123.783 127.239 124.35 127.4 124.84 127.721C125.331 128.043 125.714 128.498 125.989 129.088C126.264 129.678 126.401 130.374 126.401 131.176C126.401 131.985 126.264 132.686 125.989 133.279C125.714 133.869 125.332 134.327 124.845 134.651C124.358 134.973 123.796 135.134 123.16 135.134C122.669 135.134 122.277 135.052 121.982 134.89C121.687 134.724 121.46 134.537 121.3 134.328C121.141 134.116 121.019 133.941 120.933 133.801H120.833V137.838H119.66ZM120.813 131.156C120.813 131.733 120.898 132.242 121.067 132.683C121.236 133.12 121.483 133.463 121.808 133.712C122.132 133.957 122.53 134.08 123.001 134.08C123.491 134.08 123.901 133.95 124.229 133.692C124.56 133.43 124.809 133.079 124.974 132.638C125.143 132.194 125.228 131.7 125.228 131.156C125.228 130.619 125.145 130.136 124.979 129.705C124.817 129.271 124.57 128.927 124.239 128.676C123.911 128.42 123.498 128.293 123.001 128.293C122.523 128.293 122.122 128.414 121.798 128.656C121.473 128.894 121.228 129.229 121.062 129.66C120.896 130.088 120.813 130.586 120.813 131.156ZM128.191 137.838V127.338H129.325V128.551H129.464C129.55 128.419 129.669 128.25 129.822 128.044C129.978 127.835 130.2 127.65 130.488 127.487C130.78 127.322 131.174 127.239 131.671 127.239C132.314 127.239 132.881 127.4 133.371 127.721C133.862 128.043 134.245 128.498 134.52 129.088C134.795 129.678 134.933 130.374 134.933 131.176C134.933 131.985 134.795 132.686 134.52 133.279C134.245 133.869 133.864 134.327 133.376 134.651C132.889 134.973 132.327 135.134 131.691 135.134C131.201 135.134 130.808 135.052 130.513 134.89C130.218 134.724 129.991 134.537 129.832 134.328C129.673 134.116 129.55 133.941 129.464 133.801H129.364V137.838H128.191ZM129.344 131.156C129.344 131.733 129.429 132.242 129.598 132.683C129.767 133.12 130.014 133.463 130.339 133.712C130.664 133.957 131.061 134.08 131.532 134.08C132.022 134.08 132.432 133.95 132.76 133.692C133.091 133.43 133.34 133.079 133.506 132.638C133.675 132.194 133.759 131.7 133.759 131.156C133.759 130.619 133.676 130.136 133.511 129.705C133.348 129.271 133.101 128.927 132.77 128.676C132.442 128.42 132.029 128.293 131.532 128.293C131.055 128.293 130.654 128.414 130.329 128.656C130.004 128.894 129.759 129.229 129.593 129.66C129.427 130.088 129.344 130.586 129.344 131.156Z" fill="#C0C0C0"/>
<g clip-path="url(#clip0_310_453)">
<path d="M87.997 40.5305H84.1347C83.7627 39.0682 83.1859 37.6761 82.4143 36.3783L85.1457 33.6471C85.4242 33.3686 85.4242 32.917 85.1457 32.6384L80.6178 28.1104C80.4841 27.9767 80.3027 27.9015 80.1135 27.9015C79.9244 27.9015 79.743 27.9767 79.6092 28.1104L76.8777 30.8418C75.5797 30.0701 74.1873 29.4931 72.7255 29.1213V25.2591C72.7255 24.8652 72.4062 24.5459 72.0123 24.5459H65.6089C65.215 24.5459 64.8957 24.8652 64.8957 25.2591V29.1213C63.4335 29.4933 62.0412 30.0701 60.7435 30.8417L58.0121 28.1104C57.7337 27.8319 57.2821 27.8318 57.0035 28.1104L52.4755 32.6383C52.3417 32.772 52.2666 32.9534 52.2666 33.1426C52.2666 33.3317 52.3417 33.5131 52.4755 33.6469L55.207 36.3783C54.4353 37.6764 53.8582 39.0687 53.4864 40.5305H49.6243C49.2304 40.5305 48.9111 40.8499 48.9111 41.2437V47.6472C48.9111 48.0411 49.2304 48.3604 49.6243 48.3604H53.4865C53.8585 49.8226 54.4354 51.2148 55.207 52.5126L52.4756 55.2439C52.1971 55.5224 52.1971 55.974 52.4756 56.2525L57.0035 60.7805C57.1373 60.9143 57.3187 60.9894 57.5078 60.9894C57.697 60.9894 57.8784 60.9143 58.0121 60.7805L60.7436 58.0491C61.5441 58.5245 62.3857 58.9274 63.256 59.2538V59.4542C63.256 60.4891 63.9349 61.368 64.8707 61.67V61.706C64.8707 63.4128 66.2593 64.8015 67.9661 64.8015H69.6555C71.3623 64.8015 72.7509 63.4129 72.7509 61.706V61.67C73.6867 61.368 74.3656 60.4891 74.3656 59.4542V59.2538C75.2359 58.9272 76.0777 58.5242 76.8778 58.049L79.6093 60.7805C79.8878 61.0591 80.3394 61.0591 80.6179 60.7805L85.1459 56.2525C85.2797 56.1187 85.3548 55.9374 85.3548 55.7482C85.3548 55.559 85.2797 55.3777 85.1459 55.2439L82.4146 52.5125C83.1863 51.2145 83.7632 49.8221 84.135 48.3603H87.9973C88.3912 48.3603 88.7104 48.041 88.7104 47.6471V41.2436C88.7102 40.8499 88.3909 40.5305 87.997 40.5305ZM72.9391 56.59V57.5612H70.8788V48.7931C73.4084 48.2698 75.1859 46.8047 75.1859 45.0327C75.1859 43.452 73.8999 42.166 72.3192 42.166C70.7385 42.166 69.4525 43.452 69.4525 45.0327V47.5501C69.0331 47.579 68.5882 47.579 68.1688 47.5501V45.0327C68.1688 43.452 66.8828 42.166 65.3021 42.166C63.7214 42.166 62.4353 43.452 62.4353 45.0327C62.4353 46.8047 64.2128 48.2698 66.7424 48.7931V57.5611H64.6823V56.5899C64.6823 55.4724 64.1315 54.5032 63.1712 53.9308C59.8441 51.9485 57.7773 48.3138 57.7773 44.4452C57.7773 38.3613 62.7268 33.4118 68.8107 33.4118C74.8946 33.4118 79.8442 38.3613 79.8442 44.4452C79.8442 48.3138 77.7773 51.9486 74.4502 53.9309C73.4898 54.5033 72.9391 55.4724 72.9391 56.59ZM68.1688 57.5612V48.9808C68.3797 48.9934 68.5936 49.0001 68.8107 49.0001C69.0277 49.0001 69.2417 48.9934 69.4525 48.9808V57.5612H68.1688ZM66.7424 47.3297C64.9777 46.8891 63.8617 45.9232 63.8617 45.0327C63.8617 44.2385 64.5078 43.5924 65.3021 43.5924C66.0963 43.5924 66.7424 44.2385 66.7424 45.0327V47.3297ZM70.8788 45.0327C70.8788 44.2385 71.525 43.5924 72.3192 43.5924C73.1134 43.5924 73.7596 44.2385 73.7596 45.0327C73.7596 45.9232 72.6436 46.8891 70.8788 47.3297V45.0327ZM69.6554 63.375H67.9659C67.0714 63.375 66.3411 62.667 66.3008 61.7821H71.3205C71.2803 62.667 70.55 63.375 69.6554 63.375ZM72.0375 60.3557H65.5838C65.0867 60.3557 64.6823 59.9513 64.6823 59.4541V58.9875H72.9391V59.4541C72.9391 59.9513 72.5347 60.3557 72.0375 60.3557ZM87.2838 46.9339H83.5699C83.234 46.9339 82.9437 47.1683 82.8728 47.4966C82.5084 49.1845 81.8485 50.7774 80.9113 52.231C80.7293 52.5133 80.7689 52.8843 81.0063 53.1218L83.6329 55.7482L80.1134 59.2675L77.4869 56.641C77.2494 56.4035 76.8783 56.3639 76.5961 56.5459C75.8883 57.0023 75.1408 57.3942 74.3655 57.719V56.59C74.3655 55.9786 74.6549 55.4694 75.1803 55.1563C77.002 54.0709 78.5278 52.528 79.5926 50.6945C80.6904 48.8042 81.2707 46.6432 81.2707 44.4453C81.2707 37.5749 75.6811 31.9855 68.8107 31.9855C61.9404 31.9855 56.351 37.575 56.351 44.4453C56.351 46.6432 56.9312 48.8041 58.0289 50.6945C59.0938 52.528 60.6195 54.0709 62.4411 55.1563C62.9666 55.4694 63.256 55.9786 63.256 56.59V57.7191C62.4807 57.3945 61.7331 57.0025 61.0251 56.5461C60.7428 56.3642 60.3719 56.4039 60.1344 56.6413L57.5079 59.2677L53.9886 55.7483L56.6152 53.1218C56.8526 52.8844 56.8923 52.5133 56.7102 52.2311C55.7733 50.7779 55.1133 49.185 54.7485 47.4966C54.6776 47.1683 54.3872 46.934 54.0514 46.934H50.3375V41.9569H54.0512C54.3871 41.9569 54.6774 41.7225 54.7483 41.3943C55.1129 39.7064 55.7729 38.1135 56.7101 36.6599C56.892 36.3776 56.8525 36.0066 56.615 35.7691L53.9884 33.1425L57.5078 29.6232L60.1343 32.2497C60.3718 32.4872 60.7428 32.5269 61.0251 32.3448C62.4781 31.4078 64.071 30.7479 65.7595 30.3833C66.0878 30.3123 66.3222 30.022 66.3222 29.6862V25.9723H71.2992V29.6862C71.2992 30.022 71.5336 30.3123 71.8619 30.3833C73.5499 30.7478 75.1427 31.4077 76.5962 32.3449C76.8786 32.527 77.2495 32.4872 77.487 32.2498L80.1137 29.6232L83.6329 33.1427L81.0064 35.7692C80.7689 36.0067 80.7293 36.3777 80.9113 36.66C81.8482 38.1129 82.5082 39.7057 82.8729 41.3943C82.9438 41.7226 83.2342 41.9569 83.57 41.9569H87.2839V46.9339H87.2838Z" fill="#818181"/>
</g>
<defs>
<linearGradient id="paint0_linear_310_453" x1="68.8108" y1="0" x2="68.8108" y2="100.891" gradientUnits="userSpaceOnUse">
<stop stop-color="#BDBDBD"/>
<stop offset="1" stop-color="#575757"/>
</linearGradient>
<clipPath id="clip0_310_453">
<rect width="40.5725" height="40.5725" fill="white" transform="translate(48.5244 24.3877)"/>
</clipPath>
</defs>
</svg>
