<svg width="111" height="101" viewBox="0 0 111 101" fill="none" xmlns="http://www.w3.org/2000/svg">
<path d="M39.8093 89.1835C39.0799 88.6307 38.4097 88.24 37.6973 87.9835C36.98 87.7344 36.2506 87.5977 35.4728 87.565C33.927 87.4961 32.2432 87.7839 30.6345 88.1734C29.0209 88.5714 27.4895 89.0504 26.3416 89.4435C25.2009 89.8245 24.4559 90.1185 24.4559 90.1185C24.4559 90.1185 25.184 90.5418 26.3561 91.0426C27.527 91.541 29.1503 92.1107 30.9187 92.4155C32.6738 92.7239 34.5923 92.7614 36.2627 92.2812C37.9235 91.8131 39.3387 90.7946 39.8093 89.1835ZM90.6643 14.8212C89.5163 13.9672 88.0141 13.4567 86.5202 13.239C85.7836 13.1193 85.0408 13.0757 84.3514 13.0721C83.6643 13.0697 83.039 13.0963 82.5007 13.1495C81.4157 13.2596 80.725 13.4084 80.725 13.4084C80.725 13.4084 80.8218 13.5233 81.0068 13.7168C81.1931 13.9128 81.4774 14.1752 81.7979 14.5091C82.1269 14.8357 82.543 15.1973 82.9906 15.588C83.426 15.9812 83.9389 16.3803 84.4747 16.771C85.0045 17.169 85.59 17.5403 86.2021 17.8645C86.8021 18.2008 87.4371 18.4826 88.1156 18.6689C89.4474 19.0596 90.9038 19.1213 92.4532 18.4439C92.4907 17.6794 92.3347 16.9827 92.025 16.3719C91.6948 15.7731 91.2243 15.2578 90.6643 14.8212ZM96.1582 17.6117C97.4972 16.6077 98.1129 15.1986 98.2121 13.6261C98.2544 12.8471 98.165 12.0282 97.9932 11.2057C97.8142 10.3868 97.5275 9.58967 97.2033 8.80585C96.8755 8.02929 96.4715 7.312 96.0856 6.64914C95.6998 5.98628 95.274 5.41414 94.9232 4.92546C94.5688 4.43195 94.2435 4.05214 94.0088 3.78724C93.7826 3.52718 93.6471 3.38082 93.6471 3.38082C93.6471 3.38082 93.5177 4.1598 93.3955 5.31859C93.3278 5.90888 93.2564 6.59835 93.2008 7.33378C93.1754 7.70513 93.1512 8.08372 93.1379 8.472C93.1149 8.86512 93.0956 9.26671 93.0908 9.67193C93.0714 11.271 93.1415 12.9269 93.5697 14.3168C93.7742 15.0244 94.068 15.6618 94.4986 16.2122C94.9075 16.7759 95.4434 17.25 96.1582 17.6117ZM97.2082 25.9059C97.0485 25.5974 96.8671 25.2987 96.6252 25.0314C96.1595 24.4858 95.597 23.9972 94.9777 23.575C94.3596 23.1565 93.6423 22.8275 92.9552 22.5481C92.6068 22.409 92.2561 22.2844 91.9174 22.1767C91.5763 22.0691 91.2182 21.982 90.882 21.9082C90.2143 21.7534 89.5926 21.6542 89.064 21.5876C88.5317 21.5223 88.0975 21.4897 87.7794 21.48C87.4576 21.4631 87.2835 21.4655 87.2835 21.4655C87.2835 21.4655 87.356 21.5949 87.5023 21.8187C87.6366 22.0461 87.8193 22.3739 88.0794 22.7549C88.2028 22.946 88.343 23.1504 88.5003 23.3645C88.5825 23.4722 88.6648 23.5835 88.7495 23.6935C88.822 23.8109 88.9043 23.9258 88.989 24.0468C89.3252 24.5197 89.7208 25.0156 90.1647 25.5043C90.576 26.0075 91.0441 26.4974 91.5667 26.9461C91.6985 27.0586 91.8376 27.1699 91.967 27.2752C92.0977 27.3876 92.2283 27.4893 92.3674 27.5969C92.6371 27.8013 92.925 27.9924 93.2274 28.1618C93.8225 28.5077 94.5072 28.7726 95.2051 28.9311C95.903 29.0859 96.6651 29.1234 97.4961 28.9831C97.6086 28.6154 97.6811 28.2513 97.6956 27.8921C97.6956 27.5437 97.6509 27.2002 97.5686 26.8687C97.4876 26.5361 97.3606 26.2143 97.2082 25.9059ZM102.184 14.1111C102.184 14.1111 101.911 14.8381 101.52 15.9739C101.13 17.1121 100.689 18.6012 100.281 20.1881C100.081 20.9792 99.9467 21.7667 99.8233 22.5589C99.7036 23.3549 99.6467 24.1254 99.7036 24.8524C99.7423 25.214 99.7676 25.5769 99.8378 25.9253C99.908 26.2748 100.01 26.6099 100.151 26.9316C100.29 27.2522 100.466 27.557 100.685 27.8521C100.889 28.1461 101.137 28.4328 101.428 28.7001C102.209 28.3711 102.83 27.9029 103.325 27.3223C103.831 26.7417 104.143 26.0643 104.374 25.3035C104.491 24.9225 104.573 24.527 104.641 24.1157C104.696 23.7069 104.743 23.2799 104.733 22.8638C104.728 22.0195 104.641 21.1474 104.504 20.3006C104.171 18.6302 103.634 17.0408 103.103 15.9352C102.853 15.3727 102.625 14.9131 102.463 14.5926C102.293 14.2817 102.184 14.1111 102.184 14.1111ZM99.9007 36.4403C99.6019 35.7871 99.1532 35.1702 98.6585 34.6065C98.4069 34.3247 98.1408 34.0513 97.8686 33.7997C97.5928 33.5433 97.271 33.3098 96.9711 33.0873C95.7288 32.2055 94.4806 31.5728 93.4379 31.1979C92.4279 30.8168 91.7396 30.6524 91.7396 30.6524C91.7396 30.6524 91.8847 31.2318 92.2138 32.0761C92.3577 32.5055 92.5198 33.0123 92.7508 33.5481C92.8561 33.8142 92.9831 34.0936 93.1173 34.3767C93.2516 34.6609 93.3641 34.9573 93.5129 35.25C93.7851 35.8379 94.1309 36.4282 94.5265 36.9991C94.8797 37.5737 95.3055 38.124 95.8063 38.6175C96.8344 39.5888 98.0416 40.3606 99.7193 40.5178C99.9237 40.1864 100.082 39.8501 100.192 39.5114C100.305 39.1655 100.328 38.8207 100.337 38.4772C100.337 37.7853 100.173 37.0971 99.9007 36.4403ZM103.074 36.6519C102.904 37.3813 102.859 38.0914 102.967 38.7917C103.017 39.1425 103.129 39.4836 103.25 39.8259C103.367 40.1695 103.536 40.5106 103.748 40.8468C105.404 40.6122 106.683 39.6638 107.469 38.3018C107.88 37.622 108.193 36.8418 108.448 36.0133C108.667 35.1895 108.777 34.3223 108.852 33.455C108.882 33.022 108.911 32.5865 108.915 32.1656C108.9 31.747 108.877 31.3382 108.852 30.9451C108.79 30.1528 108.705 29.4186 108.615 28.7956C108.363 27.5679 108.125 26.7756 108.125 26.7756C108.125 26.7756 107.671 27.4264 107.04 28.44C106.731 28.9383 106.37 29.5299 105.969 30.183C105.58 30.835 105.179 31.5329 104.808 32.2526C104.455 32.9651 104.064 33.7102 103.757 34.4468C103.44 35.1908 103.217 35.9274 103.074 36.6519ZM100.092 50.5212C100.184 50.1825 100.243 49.8365 100.259 49.4882C100.268 49.135 100.219 48.7757 100.154 48.4177C100.017 47.7028 99.7628 46.9903 99.4314 46.313C99.3491 46.1436 99.2596 45.9743 99.1725 45.8098C99.0734 45.6453 98.9633 45.4832 98.8544 45.3199C98.6355 44.9994 98.3984 44.6873 98.1613 44.3958C97.6835 43.8031 97.1755 43.2708 96.682 42.8088C96.4437 42.5753 96.1885 42.3612 95.9381 42.1641C95.6913 41.9717 95.4518 41.7903 95.2353 41.633C94.3511 41.0004 93.733 40.6545 93.733 40.6545C93.733 40.6545 93.7233 41.2593 93.8201 42.1762C93.86 42.406 93.8697 42.6552 93.8842 42.9213C93.9047 43.1886 93.929 43.4716 93.9665 43.7656C94.033 44.3534 94.166 44.9909 94.2906 45.6477C94.4031 46.3033 94.5676 46.9807 94.8035 47.6447C94.9184 47.9737 95.0551 48.3052 95.2087 48.6281C95.3442 48.9487 95.493 49.2656 95.6696 49.5668C96.3651 50.78 97.4271 51.836 99.0189 52.3839C99.562 51.8299 99.9056 51.1937 100.092 50.5212ZM106.108 45.1663C105.833 45.465 105.568 45.7759 105.314 46.0916C105.06 46.4013 104.806 46.7218 104.549 47.0387C104.058 47.6835 103.632 48.3415 103.321 49.0164C103.163 49.3503 103.046 49.6962 102.945 50.0373C102.828 50.3809 102.748 50.7292 102.709 51.0824C102.632 51.7876 102.709 52.5194 102.999 53.279C104.664 53.4363 106.056 52.7964 107.207 51.686C107.49 51.409 107.764 51.1006 108.018 50.774C108.267 50.4425 108.477 50.0845 108.685 49.7132C109.094 48.9668 109.444 48.1637 109.738 47.3472C109.897 46.9444 109.997 46.5283 110.096 46.117C110.192 45.7118 110.277 45.3126 110.35 44.9219C110.496 44.1442 110.623 43.4148 110.667 42.7894C110.74 41.5339 110.718 40.7029 110.718 40.7029C110.718 40.7029 110.105 41.2206 109.244 42.0383C108.405 42.8608 107.197 43.9615 106.108 45.1663ZM95.7639 63.9876C96.4038 63.54 96.867 62.9727 97.1791 62.3413C97.3376 62.028 97.4525 61.6942 97.5421 61.3543C97.6243 61.0083 97.6932 60.6576 97.6872 60.2862C97.6969 58.8093 97.2711 57.2562 96.6167 55.876C95.9188 54.4886 95.0648 53.2936 94.3874 52.4565C94.0439 52.0356 93.7548 51.7066 93.5226 51.478C93.2988 51.2493 93.1657 51.1247 93.1657 51.1247C93.1657 51.1247 93.1319 51.2784 93.0908 51.5481C93.0291 51.8191 92.9419 52.2037 92.8621 52.6791C92.6855 53.6226 92.6032 54.9156 92.5125 56.2946C92.4859 56.9864 92.5125 57.7062 92.6081 58.4259C92.6335 58.6097 92.6625 58.7887 92.6855 58.9641C92.7073 59.1407 92.7375 59.3173 92.7653 59.4939C92.8282 59.8496 92.9165 60.1943 93.029 60.5354C93.473 61.8913 94.3027 63.1493 95.7639 63.9876ZM109.69 55.3148C109.777 54.9664 109.81 54.7644 109.81 54.7644C109.81 54.7644 109.132 55.1249 108.057 55.7031C107.006 56.2837 105.628 57.0893 104.325 58.0267C102.973 58.9484 101.639 59.9923 100.776 61.1934C100.565 61.497 100.348 61.797 100.169 62.1127C99.9927 62.4296 99.8451 62.755 99.7435 63.0961C99.5294 63.7759 99.4713 64.5113 99.6068 65.3169C101.213 65.785 102.697 65.4246 104.028 64.5718C104.362 64.3601 104.682 64.1146 104.999 63.8485C105.305 63.5812 105.617 63.2957 105.883 62.974C106.424 62.3389 106.922 61.6313 107.368 60.9092C108.292 59.477 108.852 57.9082 109.252 56.7385C109.447 56.153 109.596 55.6583 109.69 55.3148ZM92.7363 67.0309C92.3129 65.5298 91.6985 64.1799 91.1953 63.211C90.9413 62.7248 90.7151 62.3389 90.5348 62.0655C90.3558 61.7934 90.2518 61.6397 90.2518 61.6397C90.2518 61.6397 90.1901 61.7922 90.0922 62.0559C89.9797 62.322 89.8176 62.703 89.6458 63.1663C89.4716 63.6344 89.2805 64.1872 89.1124 64.8041C88.9455 65.4016 88.7591 66.1685 88.7108 66.6221C88.5692 67.6902 88.3951 68.9663 88.4713 70.3126C88.5584 71.6576 88.8922 73.0849 89.9554 74.3828C91.4868 74.0284 92.4859 72.8878 92.9214 71.4907C93.0194 71.1411 93.1088 70.7807 93.1463 70.4081C93.1802 70.0344 93.1935 69.663 93.1706 69.2868C93.1379 68.9106 93.0859 68.5393 93.0109 68.1788C92.931 67.7893 92.8379 67.4035 92.7363 67.0309ZM102.469 73.7708C102.636 73.5712 102.798 73.3656 102.959 73.1612L103.191 72.8515L103.377 72.5999C103.612 72.2733 103.836 71.9467 104.044 71.6286C104.462 70.9912 104.825 70.3803 105.123 69.8553C105.414 69.3268 105.642 68.884 105.795 68.5695C105.943 68.249 106.014 68.0591 106.014 68.0591C106.014 68.0591 105.274 68.2732 104.125 68.6336C102.991 68.9941 101.497 69.5227 100.047 70.2049C99.6782 70.3767 99.3201 70.5545 98.9633 70.7529C98.5823 70.9694 98.2037 71.1907 97.8456 71.4109C97.484 71.6322 97.1235 71.8463 96.7897 72.0786C96.4534 72.3047 96.1183 72.5261 95.8196 72.7729C94.5967 73.7272 93.6882 74.8231 93.3133 76.4392C94.6583 77.448 96.2345 77.6197 97.8602 77.0972C99.475 76.5867 101.133 75.3687 102.469 73.7708ZM80.5786 82.0468C82.1644 82.1315 83.4478 81.3671 84.3683 80.2034C85.2755 79.0362 85.8283 77.4891 86.0448 75.9795C86.2686 74.4615 86.196 73.0136 86.0194 71.9576C85.9396 71.4314 85.8452 71.0032 85.7654 70.702C85.688 70.4033 85.6311 70.2364 85.6311 70.2364C85.6311 70.2364 85.5344 70.3343 85.365 70.5206C85.1884 70.7008 84.9441 70.9657 84.6598 71.302C84.0695 71.9673 83.27 72.889 82.4765 73.9716C81.6951 75.0578 80.9197 76.3 80.4746 77.6572C80.0452 79.0204 79.9327 80.4973 80.5786 82.0468ZM91.69 81.2521C90.0196 81.309 88.314 81.4239 86.8637 81.8702C85.4074 82.3214 84.1893 83.098 83.3946 84.5253C84.3889 85.8752 85.8247 86.5006 87.4358 86.5731C89.0518 86.653 90.8396 86.1837 92.4762 85.4398C94.1128 84.6995 95.597 83.6895 96.6433 82.8222C97.1694 82.3964 97.5892 82.0033 97.8783 81.7324C98.1661 81.4505 98.3186 81.2836 98.3186 81.2836C98.3186 81.2836 97.519 81.2691 96.249 81.2461C95.0067 81.24 93.3544 81.2038 91.69 81.2521ZM71.1305 87.4126C71.8405 87.2783 72.5022 86.9397 73.1033 86.4982C74.296 85.597 75.2093 84.2241 75.8383 82.8174C76.4685 81.4082 76.8096 79.9603 76.9958 78.8801C77.0853 78.3382 77.135 77.8871 77.1676 77.5726C77.1954 77.2593 77.2051 77.0766 77.2051 77.0766C77.2051 77.0766 76.645 77.3754 75.8285 77.8883C75.0072 78.4035 73.9234 79.1232 72.8578 79.9869C71.8018 80.8517 70.7701 81.8557 70.0455 83.0181C69.3234 84.1854 68.8674 85.5184 68.9097 87.2046C69.6475 87.5166 70.4132 87.5541 71.1305 87.4126ZM79.8057 93.2005C81.5693 92.8969 83.195 92.3308 84.3683 91.8276C85.5343 91.3268 86.2637 90.9083 86.2637 90.9083C86.2637 90.9083 85.5198 90.6096 84.3743 90.2285C83.2289 89.8378 81.7 89.354 80.0852 88.9585C78.4716 88.5702 76.7926 88.2787 75.2468 88.3488C74.4702 88.3827 73.7348 88.5158 73.0223 88.7698C72.3063 89.0238 71.6409 89.4169 70.9115 89.9649C71.3796 91.5785 72.7961 92.5994 74.4569 93.0675C76.1261 93.5489 78.0433 93.5114 79.8057 93.2005ZM23.2704 79.1729C27.6661 82.821 33.0271 85.3164 38.2876 87.4404C42.5913 89.181 48.1143 92.0224 53.7377 94.6726C48.684 96.2463 43.6957 97.5321 39.6846 98.2046C39.1573 98.2893 41.8547 101.039 42.3639 100.884C47.0209 99.4819 51.7455 97.7813 56.4049 95.9028C61.4949 98.2143 66.5208 100.197 70.6576 100.889C71.1801 100.976 72.7997 98.2058 72.2784 98.1187C68.3569 97.4619 63.8016 96.2959 59.06 94.8093C66.8703 91.5289 74.3904 87.8166 80.8931 84.2797C87.9511 80.4344 93.2504 74.9755 96.734 67.7192C99.9624 60.9999 102.24 53.5693 102.576 46.1061C103.04 35.7702 99.5681 25.6325 94.1842 16.9186C92.6081 14.3688 90.8445 11.8238 88.8898 9.46024C89.064 8.80585 89.0845 8.16839 88.972 7.56722C88.8402 6.85477 88.5632 6.17014 88.1374 5.55929C87.3185 4.30494 85.9916 3.29856 84.6356 2.54619C83.2688 1.79866 81.8475 1.32814 80.7879 1.07412C80.2545 0.942275 79.8142 0.872125 79.5082 0.82737C79.3558 0.808017 79.2336 0.794703 79.1549 0.792283C79.0824 0.785026 79.0425 0.78503 79.0425 0.78503C79.0425 0.78503 79.057 0.822514 79.0872 0.892671C79.1272 0.961618 79.1743 1.06928 79.2421 1.20354C79.3812 1.47933 79.5807 1.86398 79.8347 2.33451C80.3403 3.26832 81.0299 4.49848 81.8427 5.6984C82.2431 6.30199 82.7039 6.87655 83.1744 7.4245C83.4091 7.69182 83.6631 7.94945 83.9268 8.18411C84.1808 8.42845 84.4493 8.65223 84.7336 8.84939C85.3045 9.23525 85.9045 9.55459 86.5794 9.72636C87.0899 9.85094 87.6294 9.90659 88.2076 9.87272C91.9609 14.3107 95.0321 19.466 97.3727 24.6407C100.348 31.2305 101.935 38.4119 101.765 45.6489C101.583 53.5379 98.9512 61.5454 95.4143 68.5526C92.6601 74.0043 88.6503 78.4519 83.5228 81.771C78.936 84.7346 73.9053 86.9578 68.9048 89.1206C65.1611 90.7438 60.7134 92.407 56.2041 93.8864C46.5467 90.6616 36.4526 86.2962 29.4575 82.3468C25.7997 80.2869 22.4927 77.7564 19.7542 74.5619C17.0193 71.3697 15.0452 67.5813 13.4618 63.7118C10.4584 56.3708 8.55331 48.7745 9.019 40.8009C9.56453 31.5015 13.2175 22.6073 18.3075 14.8962C19.6127 12.9209 21.0291 10.9493 22.5665 9.09374C23.1217 9.12156 23.6418 9.0635 24.1401 8.94254C24.8127 8.77078 25.4102 8.45265 25.986 8.06558C26.263 7.86842 26.5364 7.64464 26.7904 7.40272C27.0553 7.16806 27.3081 6.91163 27.5428 6.64068C28.0206 6.09274 28.4693 5.52181 28.8757 4.91459C29.6898 3.71709 30.3769 2.48209 30.8788 1.5507C31.1304 1.08258 31.336 0.689471 31.4691 0.417312C31.5392 0.283047 31.5913 0.176599 31.6288 0.104023C31.6554 0.0374957 31.6686 0 31.6686 0C31.6686 0 31.6336 -1.32902e-06 31.5586 0.00241786C31.4787 0.00725624 31.3614 0.0241963 31.2102 0.0423403C30.9018 0.0846761 30.4603 0.159665 29.9305 0.289091C28.8697 0.543106 27.4496 1.01363 26.0803 1.75875C24.7232 2.51353 23.3987 3.5187 22.5773 4.77426C22.154 5.38874 21.8698 6.07216 21.7476 6.77978C21.6303 7.37006 21.6508 7.99543 21.8153 8.64015C18.2216 12.9088 15.2508 17.8246 12.9466 22.7476C10.1052 28.8319 8.3888 35.4157 8.12753 42.1375C7.8336 49.8595 9.93467 57.2586 12.8365 64.3396C15.171 70.038 18.5034 75.2175 23.2704 79.1729ZM26.2436 15.9848C26.7819 15.5941 27.2948 15.1998 27.7327 14.8018C28.1838 14.4111 28.5939 14.0494 28.918 13.7216C29.2446 13.3926 29.5264 13.1265 29.7127 12.9318C29.899 12.7407 29.997 12.627 29.997 12.627C29.997 12.627 29.3027 12.4721 28.2213 12.3657C27.6806 12.3137 27.0565 12.2859 26.3682 12.2907C25.6788 12.2955 24.9361 12.3379 24.2018 12.4576C22.708 12.6766 21.2045 13.1846 20.0554 14.0349C19.4978 14.474 19.0272 14.9893 18.6982 15.5868C18.3898 16.1977 18.2301 16.8944 18.2676 17.6589C19.8122 18.3314 21.2734 18.2733 22.604 17.8851C23.2838 17.694 23.926 17.417 24.5211 17.0807C25.1308 16.7565 25.7162 16.3864 26.2436 15.9848ZM14.5613 16.8315C15.2786 16.4698 15.8084 15.9921 16.2173 15.4296C16.6515 14.8816 16.9491 14.2418 17.1487 13.5317C17.5817 12.1468 17.6495 10.4884 17.6337 8.88931C17.6289 8.4841 17.6096 8.08251 17.5866 7.68697C17.5721 7.30111 17.5467 6.92009 17.5201 6.55359C17.4644 5.81331 17.3906 5.12505 17.3253 4.53476C17.2055 3.37113 17.0737 2.597 17.0737 2.597C17.0737 2.597 16.9395 2.7482 16.7072 3.00584C16.4786 3.26712 16.1544 3.64813 15.7988 4.14165C15.4419 4.63274 15.0222 5.20005 14.6303 5.86533C14.2493 6.52939 13.8441 7.24306 13.5199 8.02204C13.2006 8.80465 12.9066 9.60177 12.73 10.4231C12.551 11.2432 12.4688 12.0621 12.5063 12.8386C12.6067 14.416 13.2271 15.8227 14.5613 16.8315ZM23.2221 21.0373C23.3624 20.8111 23.4386 20.6816 23.4386 20.6816C23.4386 20.6816 23.2571 20.6817 22.9451 20.6913C22.6245 20.7034 22.1879 20.7361 21.6569 20.805C21.127 20.8704 20.5089 20.972 19.834 21.1244C19.5025 21.203 19.1445 21.284 18.8058 21.3929C18.4672 21.5006 18.1188 21.6227 17.7692 21.7618C17.0798 22.0424 16.3649 22.3787 15.7419 22.79C15.125 23.2133 14.5589 23.6984 14.0944 24.2476C13.8549 24.5161 13.6735 24.8148 13.5163 25.1245C13.3639 25.4305 13.2417 25.7511 13.1522 26.0837C13.0699 26.4163 13.0252 26.7587 13.0252 27.1095C13.0421 27.4663 13.1123 27.8316 13.2296 28.2005C14.0497 28.3372 14.8202 28.2997 15.5206 28.1449C16.2149 27.9864 16.8947 27.7263 17.4947 27.3828C17.7983 27.2111 18.0801 27.0187 18.3547 26.8119C18.4962 26.7103 18.6232 26.6002 18.7502 26.4913C18.8856 26.3861 19.0199 26.2748 19.1494 26.1623C19.6767 25.7124 20.1425 25.2188 20.5562 24.7181C20.9964 24.233 21.398 23.7347 21.7343 23.2605C21.8165 23.1456 21.894 23.0259 21.9738 22.9122C22.0609 22.7972 22.1383 22.6884 22.2205 22.5795C22.3729 22.3654 22.5193 22.1586 22.6415 21.9699C22.8943 21.5864 23.0854 21.2598 23.2221 21.0373ZM10.029 27.0659C10.2528 26.7768 10.4294 26.4684 10.5709 26.1454C10.71 25.8237 10.8128 25.4898 10.8806 25.139C10.9507 24.7943 10.9773 24.4302 11.0172 24.0673C11.068 23.3404 11.0172 22.5686 10.8939 21.7739C10.7741 20.9816 10.6399 20.1954 10.433 19.4007C10.0278 17.8173 9.58873 16.3283 9.19803 15.1901C8.80491 14.0543 8.53513 13.3273 8.53513 13.3273C8.53513 13.3273 8.42747 13.4967 8.25813 13.8124C8.09121 14.1293 7.86508 14.5853 7.6159 15.1478C7.07884 16.263 6.55018 17.8512 6.21391 19.518C6.07481 20.3672 5.98652 21.2369 5.98652 22.0799C5.97685 22.4985 6.01922 22.9242 6.08575 23.3331C6.14744 23.7443 6.22845 24.1399 6.34215 24.5185C6.57197 25.2805 6.89012 25.9555 7.39331 26.5373C7.88925 27.1203 8.51461 27.5884 9.28633 27.9175C9.58389 27.6477 9.82825 27.3635 10.029 27.0659ZM14.9133 37.8277C15.4165 37.339 15.8399 36.7874 16.1931 36.2116C16.5826 35.6419 16.9334 35.0541 17.2092 34.4614C17.3543 34.1699 17.4632 33.8759 17.6035 33.5941C17.7377 33.3098 17.8624 33.0316 17.9712 32.7631C18.1986 32.2248 18.3559 31.7216 18.5071 31.2934C18.8361 30.4419 18.9752 29.8673 18.9752 29.8673C18.9752 29.8673 18.293 30.0343 17.2769 30.4153C16.2391 30.7866 14.9908 31.4192 13.7509 32.301C13.4473 32.5224 13.128 32.757 12.8522 33.0159C12.5764 33.2675 12.3091 33.536 12.0599 33.8179C11.5688 34.3852 11.1177 35.0021 10.8201 35.6552C10.5407 36.3108 10.3834 36.9979 10.3834 37.6898C10.3858 38.0333 10.4136 38.3792 10.5225 38.7191C10.6398 39.0627 10.7899 39.4013 11.0028 39.7304C12.6829 39.5779 13.8864 38.8038 14.9133 37.8277ZM5.91277 31.4676C5.54021 30.7503 5.13861 30.0512 4.74791 29.4004C4.34391 28.7436 3.98102 28.1533 3.67741 27.655C3.04963 26.6486 2.59362 25.9894 2.59362 25.9894C2.59362 25.9894 2.35656 26.7817 2.10739 28.0118C2.01304 28.6384 1.92595 29.369 1.86789 30.1588C1.83765 30.5556 1.81345 30.9656 1.80499 31.3842C1.80499 31.8051 1.83281 32.2381 1.86789 32.6712C1.9453 33.5336 2.05537 34.4069 2.27431 35.2295C2.52107 36.058 2.84041 36.8382 3.25046 37.5156C4.04033 38.88 5.31644 39.8271 6.97116 40.0606C7.18768 39.7243 7.34733 39.3856 7.4695 39.0421C7.58683 38.6974 7.70174 38.3551 7.75012 38.0091C7.86503 37.31 7.81182 36.5927 7.64248 35.8657C7.50338 35.1387 7.27962 34.4045 6.96755 33.6642C6.65426 32.9288 6.26839 32.1825 5.91277 31.4676ZM11.6995 51.6038C13.2913 51.0534 14.357 49.9962 15.0561 48.783C15.2327 48.4769 15.3827 48.1649 15.5145 47.8431C15.6693 47.5214 15.8036 47.1912 15.9209 46.8597C16.1544 46.1969 16.3213 45.5219 16.4314 44.8651C16.5584 44.2107 16.6926 43.5732 16.7567 42.9842C16.7942 42.6902 16.8173 42.4072 16.8391 42.1399C16.856 41.8738 16.8656 41.6222 16.8983 41.3911C17.0023 40.4767 16.9854 39.8743 16.9854 39.8743C16.9854 39.8743 16.3661 40.2154 15.4867 40.8505C15.2702 41.0053 15.0331 41.1867 14.7851 41.3815C14.5335 41.5786 14.2795 41.7939 14.04 42.0262C13.5489 42.4895 13.0409 43.0241 12.5607 43.6107C12.3212 43.9071 12.0926 44.2155 11.8664 44.5349C11.7612 44.6945 11.6547 44.8615 11.5531 45.026C11.4587 45.1905 11.3705 45.3598 11.2894 45.5292C10.9604 46.2065 10.704 46.9166 10.5649 47.6351C10.5032 47.9919 10.4548 48.3512 10.4632 48.7019C10.4826 49.0527 10.5359 49.4011 10.6278 49.7349C10.8165 50.4111 11.16 51.0485 11.6995 51.6038ZM2.03725 48.9293C2.24167 49.2983 2.45575 49.6587 2.70251 49.9902C2.95653 50.3167 3.23228 50.6203 3.51654 50.901C4.66686 52.015 6.05185 52.6561 7.72472 52.4976C8.00656 51.7332 8.09123 51.0026 8.0114 50.2986C7.96906 49.9454 7.88921 49.5982 7.77914 49.2571C7.67148 48.9112 7.55536 48.5701 7.39811 48.2362C7.08966 47.5613 6.66152 46.8996 6.17043 46.2585C5.91399 45.9416 5.66233 45.6211 5.41074 45.3054C5.1543 44.9921 4.89062 44.6849 4.61967 44.3861C3.5262 43.1789 2.31786 42.0782 1.47719 41.2532C0.61475 40.4368 0.00270151 39.9166 0.00270151 39.9166C0.00270151 39.9166 -0.0178994 40.7488 0.0546763 42.0056C0.0970121 42.631 0.226468 43.3579 0.371619 44.1393C0.441776 44.5288 0.530046 44.9316 0.628023 45.3393C0.723581 45.7433 0.822787 46.1594 0.980034 46.5646C1.27639 47.3762 1.6272 48.183 2.03725 48.9293ZM13.5404 61.5587C13.8525 62.1913 14.3146 62.7514 14.952 63.2001C16.4132 62.3631 17.2491 61.1088 17.6918 59.7504C17.8043 59.4093 17.8865 59.0609 17.9531 58.7065C17.9869 58.5347 18.0147 58.3557 18.0353 58.1815C18.0583 58.0025 18.0897 57.8211 18.1175 57.6408C18.2095 56.9211 18.2313 56.2014 18.2095 55.5095C18.1176 54.133 18.0353 52.8351 17.8587 51.8892C17.7813 51.4187 17.6918 51.0316 17.6337 50.7631C17.5866 50.4909 17.5587 50.3421 17.5587 50.3421C17.5587 50.3421 17.4244 50.4643 17.2007 50.6929C16.966 50.9215 16.6745 51.2481 16.3359 51.6667C15.6524 52.5073 14.7985 53.7036 14.109 55.0934C13.451 56.4699 13.03 58.0219 13.0373 59.4988C13.0349 59.8725 13.0929 60.2257 13.18 60.5656C13.2635 60.9128 13.3844 61.2442 13.5404 61.5587ZM4.83739 62.1889C5.10108 62.5143 5.40959 62.7961 5.7265 63.0647C6.03737 63.3332 6.35913 63.5727 6.69298 63.788C8.02474 64.642 9.50407 65.0024 11.1128 64.5319C11.2483 63.7275 11.1878 62.9909 10.9761 62.3087C10.8733 61.9724 10.727 61.6434 10.5455 61.3277C10.3738 61.0108 10.1511 60.7132 9.94672 60.4084C9.08186 59.2061 7.74532 58.167 6.40025 57.2405C5.0951 56.3042 3.71856 55.4999 2.66501 54.9168C1.58968 54.3399 0.909898 53.9806 0.909898 53.9806C0.909898 53.9806 0.942499 54.185 1.03201 54.5334C1.12394 54.8781 1.27036 55.3668 1.46752 55.9547C1.8679 57.1243 2.42668 58.6932 3.35323 60.1217C3.80078 60.8451 4.30033 61.5551 4.83739 62.1889ZM17.7994 70.7093C18.23 72.1016 19.2364 73.247 20.7629 73.6002C21.8286 72.2975 22.1624 70.8738 22.2495 69.5287C22.327 68.1837 22.1528 66.9088 22.01 65.8383C21.958 65.3847 21.7766 64.6202 21.6097 64.0202C21.4379 63.4046 21.248 62.8482 21.0738 62.3849C20.9021 61.9168 20.74 61.5382 20.6263 61.2745C20.5307 61.006 20.4715 60.8559 20.4715 60.8559C20.4715 60.8559 20.3577 61.0072 20.1835 61.2793C19.9973 61.5551 19.782 61.9421 19.5232 62.4272C19.0175 63.3937 18.4079 64.7484 17.9845 66.2471C17.8756 66.6233 17.785 67.0068 17.7088 67.395C17.6362 67.7579 17.5793 68.1292 17.5442 68.5054C17.5273 68.8792 17.5394 69.2517 17.5745 69.6279C17.6144 69.998 17.7014 70.3561 17.7994 70.7093ZM6.59014 67.8438C5.44707 67.4857 4.70561 67.2741 4.70561 67.2741C4.70561 67.2741 4.77577 67.4627 4.91971 67.7821C5.07575 68.0954 5.30551 68.5417 5.59944 69.0691C5.89579 69.5941 6.2563 70.2037 6.67482 70.8423C6.88408 71.1629 7.10787 71.4895 7.34495 71.8185L7.5324 72.0701L7.76341 72.3786C7.92792 72.583 8.09005 72.7874 8.24971 72.9894C9.58874 74.5812 11.2386 75.8005 12.8619 76.3097C14.4876 76.8311 16.0624 76.6654 17.4087 75.6517C17.0325 74.0405 16.1242 72.9422 14.8989 71.9854C14.6001 71.7411 14.2662 71.5221 13.9324 71.2911C13.5985 71.0625 13.2393 70.846 12.8764 70.6307C12.5148 70.4021 12.1434 70.1831 11.7599 69.9678C11.3971 69.7694 11.045 69.5941 10.6773 69.4211C9.2246 68.7352 7.73321 68.2079 6.59014 67.8438ZM26.3561 79.4208C27.2706 80.582 28.5503 81.3465 30.1434 81.2642C30.7881 79.7147 30.678 78.2318 30.2389 76.8722C29.801 75.5174 29.0257 74.2728 28.2418 73.189C27.452 72.1052 26.6525 71.1798 26.0622 70.517C25.7731 70.1831 25.5263 69.917 25.3497 69.7368C25.1852 69.5505 25.0861 69.455 25.0861 69.455C25.0861 69.455 25.0292 69.6195 24.9494 69.9182C24.8719 70.2194 24.7824 70.6464 24.6977 71.1738C24.526 72.2298 24.451 73.6788 24.676 75.1957C24.8985 76.704 25.4393 78.2535 26.3561 79.4208ZM23.285 85.7917C24.8986 85.7143 26.3283 85.095 27.3323 83.7451C26.5327 82.313 25.3122 81.5388 23.8559 81.0876C22.3995 80.6413 20.7013 80.5203 19.032 80.4695C17.3664 80.4199 15.7129 80.4586 14.4743 80.4623C13.1994 80.4889 12.4022 80.4974 12.4022 80.4974C12.4022 80.4974 12.5546 80.6715 12.8437 80.951C13.1304 81.2171 13.5514 81.6126 14.0715 82.0408C15.1226 82.9057 16.6068 83.9205 18.2446 84.6584C19.8836 85.3999 21.669 85.8692 23.285 85.7917ZM34.885 82.0287C35.5103 83.4379 36.4224 84.8156 37.6211 85.7143C38.215 86.1558 38.8815 86.4933 39.5963 86.6312C40.3088 86.7703 41.0709 86.7328 41.816 86.4195C41.8511 84.7334 41.3926 83.3992 40.6705 82.2307C39.9459 81.0707 38.9202 80.0643 37.8594 79.2019C36.7986 78.3419 35.7099 77.6185 34.891 77.1069C34.0733 76.5916 33.5133 76.2904 33.5133 76.2904C33.5133 76.2904 33.5182 76.4766 33.5508 76.7911C33.5811 77.1068 33.6354 77.558 33.7225 78.0987C33.9064 79.1753 34.2499 80.6219 34.885 82.0287Z" fill="url(#paint0_linear_691_657)"/>
<path d="M54.9417 61.1382C55.1542 61.1382 55.3579 61.0538 55.5082 60.9036C55.6584 60.7534 55.7428 60.5496 55.7428 60.3372C55.7428 60.1247 55.6584 59.921 55.5082 59.7708C55.3579 59.6205 55.1542 59.5361 54.9417 59.5361H51.7376C51.5251 59.5361 51.3214 59.6205 51.1711 59.7708C51.0209 59.921 50.9365 60.1247 50.9365 60.3372C50.9365 60.5496 51.0209 60.7534 51.1711 60.9036C51.3214 61.0538 51.5251 61.1382 51.7376 61.1382H54.9417Z" fill="#818181"/>
<path d="M64.5545 57.9341C64.7669 57.9341 64.9707 57.8497 65.1209 57.6995C65.2711 57.5493 65.3555 57.3455 65.3555 57.1331C65.3555 56.9206 65.2711 56.7169 65.1209 56.5667C64.9707 56.4164 64.7669 56.332 64.5545 56.332H42.1253C41.9128 56.332 41.7091 56.4164 41.5588 56.5667C41.4086 56.7169 41.3242 56.9206 41.3242 57.1331C41.3242 57.3455 41.4086 57.5493 41.5588 57.6995C41.7091 57.8497 41.9128 57.9341 42.1253 57.9341H64.5545Z" fill="#818181"/>
<path d="M71.1598 54.7291C71.2028 54.7293 71.2457 54.7257 71.288 54.7183C71.4136 54.6983 71.5325 54.6486 71.6349 54.5732C71.7372 54.4978 71.82 54.3989 71.8763 54.2849L73.1998 51.6267L75.8455 50.3C75.9584 50.2428 76.0563 50.1596 76.1311 50.0574C76.2058 49.9552 76.2554 49.8367 76.2758 49.7117C76.2965 49.5868 76.2872 49.4588 76.2486 49.3382C76.2099 49.2177 76.1431 49.1081 76.0536 49.0185L69.5651 42.5007C69.4907 42.4259 69.4022 42.3665 69.3047 42.326C69.2072 42.2855 69.1027 42.2646 68.9972 42.2646C68.8916 42.2646 68.7871 42.2855 68.6896 42.326C68.5922 42.3665 68.5037 42.4259 68.4292 42.5007L64.1036 46.8454C63.9541 46.9954 63.8701 47.1985 63.8701 47.4103C63.8701 47.622 63.9541 47.8251 64.1036 47.9751L70.592 54.4928C70.6664 54.5678 70.7548 54.6273 70.8523 54.6679C70.9497 54.7084 71.0543 54.7293 71.1598 54.7291ZM68.997 44.2014L74.1365 49.3644L72.2419 50.314C72.0872 50.3923 71.962 50.5186 71.8851 50.6739L70.9399 52.5716L65.8004 47.4102L68.997 44.2014Z" fill="#818181"/>
<path d="M55.343 51.627L56.6665 54.2852C56.7227 54.3992 56.8055 54.4981 56.9079 54.5735C57.0102 54.6489 57.1292 54.6987 57.2547 54.7186C57.2971 54.726 57.34 54.7297 57.3829 54.7295C57.4885 54.7296 57.5931 54.7088 57.6906 54.6682C57.7881 54.6277 57.8765 54.5682 57.9509 54.4932L64.4393 47.9754C64.5888 47.8254 64.6728 47.6223 64.6728 47.4106C64.6728 47.1988 64.5888 46.9957 64.4393 46.8458L60.1137 42.5011C59.9607 42.3549 59.7573 42.2734 59.5457 42.2734C59.3342 42.2734 59.1308 42.3549 58.9778 42.5011L52.4893 49.0188C52.3998 49.1084 52.333 49.218 52.2943 49.3386C52.2557 49.4591 52.2464 49.5872 52.2671 49.7121C52.2875 49.8371 52.3371 49.9555 52.4118 50.0577C52.4866 50.16 52.5845 50.2431 52.6974 50.3003L55.343 51.627ZM59.5452 44.2017L62.7416 47.4105L57.6021 52.5719L56.6568 50.6743C56.5799 50.5189 56.4547 50.3926 56.3001 50.3143L54.4054 49.3647L59.5452 44.2017Z" fill="#818181"/>
<path d="M73.2283 39.6929C73.2209 37.923 72.6893 36.195 71.7006 34.7269C70.7119 33.2589 69.3105 32.1167 67.6732 31.4445C66.0359 30.7724 64.2361 30.6003 62.5011 30.9501C60.7661 31.3 59.1736 32.156 57.9247 33.4101C56.6758 34.6642 55.8265 36.2603 55.4839 37.9967C55.1413 39.7332 55.3209 41.5322 55.9999 43.1667C56.6789 44.8012 57.827 46.1978 59.2991 47.1804C60.7712 48.1629 62.5015 48.6873 64.2714 48.6873C66.6511 48.6797 68.9305 47.7284 70.6097 46.0422C72.2889 44.356 73.2306 42.0726 73.2283 39.6929ZM56.9165 39.6929C56.9239 38.2398 57.3615 36.8215 58.1742 35.6169C58.9868 34.4123 60.1381 33.4754 61.4827 32.9244C62.8273 32.3734 64.305 32.2331 65.7293 32.5211C67.1535 32.8091 68.4606 33.5126 69.4854 34.5427C70.5103 35.5728 71.2071 36.8834 71.4879 38.3091C71.7686 39.7348 71.6208 41.2118 71.063 42.5535C70.5052 43.8953 69.5625 45.0418 68.3538 45.8483C67.145 46.6549 65.7245 47.0853 64.2714 47.0853C62.3165 47.0779 60.4444 46.2955 59.0656 44.9097C57.6868 43.5239 56.9139 41.6478 56.9165 39.6929Z" fill="#818181"/>
<path d="M69.1463 38.1017C69.1001 37.9596 69.0151 37.8334 68.9009 37.7371C68.7867 37.6409 68.6478 37.5785 68.5 37.5569L66.0767 37.2035L64.9892 34.9944C64.9156 34.8694 64.8107 34.7657 64.6848 34.6937C64.5588 34.6216 64.4162 34.5837 64.2712 34.5837C64.1261 34.5837 63.9835 34.6216 63.8576 34.6937C63.7316 34.7657 63.6267 34.8694 63.5531 34.9944L62.4656 37.2035L60.0416 37.5573C59.8938 37.5788 59.7549 37.6412 59.6407 37.7375C59.5265 37.8337 59.4414 37.96 59.3952 38.1021C59.349 38.2442 59.3434 38.3963 59.3791 38.5414C59.4148 38.6865 59.4904 38.8187 59.5972 38.923L61.3533 40.6424L60.9388 43.0737C60.9136 43.2212 60.9301 43.3728 60.9866 43.5114C61.0431 43.6499 61.1372 43.7699 61.2584 43.8577C61.3796 43.9455 61.5229 43.9976 61.6722 44.008C61.8214 44.0185 61.9706 43.987 62.1029 43.9171L64.2712 42.7717L66.4396 43.9171C66.5718 43.987 66.7211 44.0185 66.8703 44.008C67.0196 43.9976 67.1629 43.9455 67.2841 43.8577C67.4052 43.7699 67.4994 43.6499 67.5559 43.5114C67.6124 43.3728 67.6289 43.2212 67.6037 43.0737L67.189 40.6424L68.9444 38.923C69.0511 38.8184 69.1265 38.6861 69.1621 38.541C69.1978 38.396 69.1923 38.2438 69.1463 38.1017ZM65.7685 39.7914C65.676 39.882 65.6069 39.9937 65.5668 40.1168C65.5268 40.2399 65.517 40.3709 65.5384 40.4985L65.7512 41.7408L64.6457 41.1572C64.5304 41.0966 64.4021 41.0649 64.2718 41.0649C64.1415 41.0649 64.0132 41.0966 63.8979 41.1572L62.7924 41.7408L63.0052 40.4985C63.0266 40.3709 63.0168 40.2399 62.9768 40.1168C62.9367 39.9937 62.8676 39.882 62.7751 39.7914L61.8756 38.9089L63.1162 38.729C63.2447 38.71 63.3666 38.66 63.4715 38.5834C63.5765 38.5068 63.6612 38.406 63.7186 38.2894L64.2712 37.1644L64.825 38.2894C64.8824 38.406 64.9671 38.5068 65.072 38.5834C65.177 38.66 65.2989 38.71 65.4274 38.729L66.668 38.9089L65.7685 39.7914Z" fill="#818181"/>
<path d="M61.3506 27.4941C62.4124 27.4952 63.4308 27.9171 64.1816 28.668C64.7591 29.2455 65.1415 29.9815 65.2881 30.7734H63.6396C63.5241 30.41 63.3235 30.0754 63.0488 29.8008C62.5984 29.3503 61.9876 29.0975 61.3506 29.0967H45.3291C44.6921 29.0975 44.0813 29.3503 43.6309 29.8008C43.1804 30.2512 42.9276 30.862 42.9268 31.499V60.3369C42.9275 60.974 43.1804 61.5847 43.6309 62.0352C44.0813 62.4856 44.6921 62.7394 45.3291 62.7402H61.3506C61.9876 62.7394 62.5984 62.4856 63.0488 62.0352C63.4993 61.5847 63.7532 60.974 63.7539 60.3369V48.7656H65.3555V60.3369C65.3545 61.3988 64.9325 62.4171 64.1816 63.168C63.4308 63.9188 62.4124 64.3407 61.3506 64.3418H45.3291C44.2673 64.3407 43.2489 63.9188 42.498 63.168C41.7472 62.4171 41.3252 61.3988 41.3242 60.3369V31.499C41.3253 30.4372 41.7472 29.4188 42.498 28.668C43.2489 27.9171 44.2673 27.4952 45.3291 27.4941H61.3506Z" fill="#818181"/>
<defs>
<linearGradient id="paint0_linear_691_657" x1="55.3606" y1="0" x2="55.3606" y2="100.891" gradientUnits="userSpaceOnUse">
<stop stop-color="#BDBDBD"/>
<stop offset="1" stop-color="#575757"/>
</linearGradient>
</defs>
</svg>
