<svg width="186" height="138" viewBox="0 0 186 138" fill="none" xmlns="http://www.w3.org/2000/svg">
<path d="M76.9733 89.1835C76.2439 88.6307 75.5738 88.24 74.8613 87.9835C74.1441 87.7344 73.4147 87.5977 72.6369 87.565C71.091 87.4961 69.4073 87.7839 67.7985 88.1734C66.1849 88.5714 64.6536 89.0504 63.5057 89.4435C62.365 89.8245 61.6199 90.1185 61.6199 90.1185C61.6199 90.1185 62.3481 90.5418 63.5202 91.0426C64.6911 91.541 66.3143 92.1107 68.0828 92.4155C69.8379 92.7239 71.7563 92.7614 73.4268 92.2812C75.0876 91.8131 76.5028 90.7946 76.9733 89.1835ZM127.828 14.8212C126.68 13.9672 125.178 13.4567 123.684 13.239C122.948 13.1193 122.205 13.0757 121.515 13.0721C120.828 13.0697 120.203 13.0963 119.665 13.1495C118.58 13.2596 117.889 13.4084 117.889 13.4084C117.889 13.4084 117.986 13.5233 118.171 13.7168C118.357 13.9128 118.641 14.1752 118.962 14.5091C119.291 14.8357 119.707 15.1973 120.155 15.588C120.59 15.9812 121.103 16.3803 121.639 16.771C122.169 17.169 122.754 17.5403 123.366 17.8645C123.966 18.2008 124.601 18.4826 125.28 18.6689C126.611 19.0596 128.068 19.1213 129.617 18.4439C129.655 17.6794 129.499 16.9827 129.189 16.3719C128.859 15.7731 128.388 15.2578 127.828 14.8212ZM133.322 17.6117C134.661 16.6077 135.277 15.1986 135.376 13.6261C135.419 12.8471 135.329 12.0282 135.157 11.2057C134.978 10.3868 134.692 9.58967 134.367 8.80585C134.04 8.02929 133.636 7.312 133.25 6.64914C132.864 5.98628 132.438 5.41414 132.087 4.92546C131.733 4.43195 131.408 4.05214 131.173 3.78724C130.947 3.52718 130.811 3.38082 130.811 3.38082C130.811 3.38082 130.682 4.1598 130.56 5.31859C130.492 5.90888 130.42 6.59835 130.365 7.33378C130.339 7.70513 130.315 8.08372 130.302 8.472C130.279 8.86512 130.26 9.26671 130.255 9.67193C130.235 11.271 130.306 12.9269 130.734 14.3168C130.938 15.0244 131.232 15.6618 131.663 16.2122C132.072 16.7759 132.607 17.25 133.322 17.6117ZM134.372 25.9059C134.213 25.5974 134.031 25.2987 133.789 25.0314C133.324 24.4858 132.761 23.9972 132.142 23.575C131.524 23.1565 130.806 22.8275 130.119 22.5481C129.771 22.409 129.42 22.2844 129.081 22.1767C128.74 22.0691 128.382 21.982 128.046 21.9082C127.378 21.7534 126.757 21.6542 126.228 21.5876C125.696 21.5223 125.262 21.4897 124.943 21.48C124.622 21.4631 124.448 21.4655 124.448 21.4655C124.448 21.4655 124.52 21.5949 124.666 21.8187C124.801 22.0461 124.983 22.3739 125.243 22.7549C125.367 22.946 125.507 23.1504 125.664 23.3645C125.747 23.4722 125.829 23.5835 125.914 23.6935C125.986 23.8109 126.068 23.9258 126.153 24.0468C126.489 24.5197 126.885 25.0156 127.329 25.5043C127.74 26.0075 128.208 26.4974 128.731 26.9461C128.863 27.0586 129.002 27.1699 129.131 27.2752C129.262 27.3876 129.392 27.4893 129.531 27.5969C129.801 27.8013 130.089 27.9924 130.391 28.1618C130.987 28.5077 131.671 28.7726 132.369 28.9311C133.067 29.0859 133.829 29.1234 134.66 28.9831C134.773 28.6154 134.845 28.2513 134.86 27.8921C134.86 27.5437 134.815 27.2002 134.733 26.8687C134.652 26.5361 134.525 26.2143 134.372 25.9059ZM139.348 14.1111C139.348 14.1111 139.075 14.8381 138.684 15.9739C138.294 17.1121 137.853 18.6012 137.445 20.1881C137.245 20.9792 137.111 21.7667 136.987 22.5589C136.868 23.3549 136.811 24.1254 136.868 24.8524C136.906 25.214 136.932 25.5769 137.002 25.9253C137.072 26.2748 137.174 26.6099 137.315 26.9316C137.454 27.2522 137.63 27.557 137.849 27.8521C138.053 28.1461 138.301 28.4328 138.592 28.7001C139.373 28.3711 139.994 27.9029 140.489 27.3223C140.995 26.7417 141.307 26.0643 141.538 25.3035C141.655 24.9225 141.737 24.527 141.805 24.1157C141.86 23.7069 141.907 23.2799 141.897 22.8638C141.892 22.0195 141.805 21.1474 141.669 20.3006C141.335 18.6302 140.798 17.0408 140.267 15.9352C140.017 15.3727 139.789 14.9131 139.627 14.5926C139.457 14.2817 139.348 14.1111 139.348 14.1111ZM137.065 36.4403C136.766 35.7871 136.317 35.1702 135.823 34.6065C135.571 34.3247 135.305 34.0513 135.033 33.7997C134.757 33.5433 134.435 33.3098 134.135 33.0873C132.893 32.2055 131.645 31.5728 130.602 31.1979C129.592 30.8168 128.904 30.6524 128.904 30.6524C128.904 30.6524 129.049 31.2318 129.378 32.0761C129.522 32.5055 129.684 33.0123 129.915 33.5481C130.02 33.8142 130.147 34.0936 130.281 34.3767C130.416 34.6609 130.528 34.9573 130.677 35.25C130.949 35.8379 131.295 36.4282 131.691 36.9991C132.044 37.5737 132.47 38.124 132.97 38.6175C133.999 39.5888 135.206 40.3606 136.883 40.5178C137.088 40.1864 137.246 39.8501 137.356 39.5114C137.469 39.1655 137.492 38.8207 137.501 38.4772C137.501 37.7853 137.337 37.0971 137.065 36.4403ZM140.238 36.6519C140.068 37.3813 140.023 38.0914 140.131 38.7917C140.181 39.1425 140.293 39.4836 140.414 39.8259C140.532 40.1695 140.7 40.5106 140.913 40.8468C142.568 40.6122 143.847 39.6638 144.633 38.3018C145.044 37.622 145.357 36.8418 145.612 36.0133C145.831 35.1895 145.941 34.3223 146.016 33.455C146.046 33.022 146.075 32.5865 146.079 32.1656C146.064 31.747 146.041 31.3382 146.016 30.9451C145.954 30.1528 145.869 29.4186 145.779 28.7956C145.527 27.5679 145.289 26.7756 145.289 26.7756C145.289 26.7756 144.835 27.4264 144.204 28.44C143.895 28.9383 143.534 29.5299 143.133 30.183C142.744 30.835 142.343 31.5329 141.972 32.2526C141.619 32.9651 141.228 33.7102 140.921 34.4468C140.604 35.1908 140.382 35.9274 140.238 36.6519ZM137.256 50.5212C137.348 50.1825 137.407 49.8365 137.423 49.4882C137.433 49.135 137.383 48.7757 137.318 48.4177C137.181 47.7028 136.927 46.9903 136.595 46.313C136.513 46.1436 136.424 45.9743 136.337 45.8098C136.237 45.6453 136.127 45.4832 136.018 45.3199C135.8 44.9994 135.562 44.6873 135.325 44.3958C134.848 43.8031 134.34 43.2708 133.846 42.8088C133.608 42.5753 133.353 42.3612 133.102 42.1641C132.855 41.9717 132.616 41.7903 132.399 41.633C131.515 41.0004 130.897 40.6545 130.897 40.6545C130.897 40.6545 130.887 41.2593 130.984 42.1762C131.024 42.406 131.034 42.6552 131.048 42.9213C131.069 43.1886 131.093 43.4716 131.131 43.7656C131.197 44.3534 131.33 44.9909 131.455 45.6477C131.567 46.3033 131.732 46.9807 131.968 47.6447C132.082 47.9737 132.219 48.3052 132.373 48.6281C132.508 48.9487 132.657 49.2656 132.834 49.5668C133.529 50.78 134.591 51.836 136.183 52.3839C136.726 51.8299 137.07 51.1937 137.256 50.5212ZM143.272 45.1663C142.997 45.465 142.732 45.7759 142.478 46.0916C142.224 46.4013 141.97 46.7218 141.713 47.0387C141.222 47.6835 140.796 48.3415 140.486 49.0164C140.327 49.3503 140.21 49.6962 140.109 50.0373C139.992 50.3809 139.912 50.7292 139.873 51.0824C139.796 51.7876 139.873 52.5194 140.163 53.279C141.828 53.4363 143.22 52.7964 144.371 51.686C144.654 51.409 144.928 51.1006 145.182 50.774C145.432 50.4425 145.641 50.0845 145.849 49.7132C146.258 48.9668 146.608 48.1637 146.902 47.3472C147.061 46.9444 147.161 46.5283 147.26 46.117C147.356 45.7118 147.441 45.3126 147.515 44.9219C147.66 44.1442 147.787 43.4148 147.831 42.7894C147.904 41.5339 147.882 40.7029 147.882 40.7029C147.882 40.7029 147.269 41.2206 146.408 42.0383C145.569 42.8608 144.361 43.9615 143.272 45.1663ZM132.928 63.9876C133.568 63.54 134.031 62.9727 134.343 62.3413C134.502 62.028 134.617 61.6942 134.706 61.3543C134.788 61.0083 134.857 60.6576 134.851 60.2862C134.861 58.8093 134.435 57.2562 133.781 55.876C133.083 54.4886 132.229 53.2936 131.551 52.4565C131.208 52.0356 130.919 51.7066 130.687 51.478C130.463 51.2493 130.33 51.1247 130.33 51.1247C130.33 51.1247 130.296 51.2784 130.255 51.5481C130.193 51.8191 130.106 52.2037 130.026 52.6791C129.85 53.6226 129.767 54.9156 129.677 56.2946C129.65 56.9864 129.677 57.7062 129.772 58.4259C129.798 58.6097 129.827 58.7887 129.85 58.9641C129.871 59.1407 129.902 59.3173 129.929 59.4939C129.992 59.8496 130.081 60.1943 130.193 60.5354C130.637 61.8913 131.467 63.1493 132.928 63.9876ZM146.854 55.3148C146.941 54.9664 146.974 54.7644 146.974 54.7644C146.974 54.7644 146.296 55.1249 145.221 55.7031C144.17 56.2837 142.792 57.0893 141.489 58.0267C140.137 58.9484 138.803 59.9923 137.941 61.1934C137.729 61.497 137.512 61.797 137.333 62.1127C137.157 62.4296 137.009 62.755 136.908 63.0961C136.693 63.7759 136.635 64.5113 136.771 65.3169C138.377 65.785 139.861 65.4246 141.192 64.5718C141.526 64.3601 141.846 64.1146 142.163 63.8485C142.469 63.5812 142.781 63.2957 143.047 62.974C143.588 62.3389 144.087 61.6313 144.532 60.9092C145.456 59.477 146.016 57.9082 146.416 56.7385C146.611 56.153 146.76 55.6583 146.854 55.3148ZM129.9 67.0309C129.477 65.5298 128.863 64.1799 128.359 63.211C128.105 62.7248 127.879 62.3389 127.699 62.0655C127.52 61.7934 127.416 61.6397 127.416 61.6397C127.416 61.6397 127.354 61.7922 127.256 62.0559C127.144 62.322 126.982 62.703 126.81 63.1663C126.636 63.6344 126.445 64.1872 126.276 64.8041C126.11 65.4016 125.923 66.1685 125.875 66.6221C125.733 67.6902 125.559 68.9663 125.635 70.3126C125.722 71.6576 126.056 73.0849 127.119 74.3828C128.651 74.0284 129.65 72.8878 130.085 71.4907C130.183 71.1411 130.273 70.7807 130.31 70.4081C130.344 70.0344 130.358 69.663 130.335 69.2868C130.302 68.9106 130.25 68.5393 130.175 68.1788C130.095 67.7893 130.002 67.4035 129.9 67.0309ZM139.633 73.7708C139.8 73.5712 139.962 73.3656 140.123 73.1612L140.355 72.8515L140.541 72.5999C140.776 72.2733 141 71.9467 141.208 71.6286C141.626 70.9912 141.989 70.3803 142.287 69.8553C142.578 69.3268 142.806 68.884 142.959 68.5695C143.107 68.249 143.178 68.0591 143.178 68.0591C143.178 68.0591 142.438 68.2732 141.289 68.6336C140.155 68.9941 138.661 69.5227 137.211 70.2049C136.842 70.3767 136.484 70.5545 136.127 70.7529C135.746 70.9694 135.368 71.1907 135.01 71.4109C134.648 71.6322 134.288 71.8463 133.954 72.0786C133.617 72.3047 133.282 72.5261 132.984 72.7729C131.761 73.7272 130.852 74.8231 130.477 76.4392C131.822 77.448 133.399 77.6197 135.024 77.0972C136.639 76.5867 138.297 75.3687 139.633 73.7708ZM117.743 82.0468C119.328 82.1315 120.612 81.3671 121.532 80.2034C122.44 79.0362 122.992 77.4891 123.209 75.9795C123.433 74.4615 123.36 73.0136 123.184 71.9576C123.104 71.4314 123.009 71.0032 122.929 70.702C122.852 70.4033 122.795 70.2364 122.795 70.2364C122.795 70.2364 122.698 70.3343 122.529 70.5206C122.353 70.7008 122.108 70.9657 121.824 71.302C121.234 71.9673 120.434 72.889 119.641 73.9716C118.859 75.0578 118.084 76.3 117.639 77.6572C117.209 79.0204 117.097 80.4973 117.743 82.0468ZM128.854 81.2521C127.184 81.309 125.478 81.4239 124.028 81.8702C122.571 82.3214 121.353 83.098 120.559 84.5253C121.553 85.8752 122.989 86.5006 124.6 86.5731C126.216 86.653 128.004 86.1837 129.64 85.4398C131.277 84.6995 132.761 83.6895 133.807 82.8222C134.334 82.3964 134.753 82.0033 135.042 81.7324C135.33 81.4505 135.483 81.2836 135.483 81.2836C135.483 81.2836 134.683 81.2691 133.413 81.2461C132.171 81.24 130.518 81.2038 128.854 81.2521ZM108.295 87.4126C109.005 87.2783 109.666 86.9397 110.267 86.4982C111.46 85.597 112.373 84.2241 113.002 82.8174C113.633 81.4082 113.974 79.9603 114.16 78.8801C114.249 78.3382 114.299 77.8871 114.332 77.5726C114.36 77.2593 114.369 77.0766 114.369 77.0766C114.369 77.0766 113.809 77.3754 112.993 77.8883C112.171 78.4035 111.088 79.1232 110.022 79.9869C108.966 80.8517 107.934 81.8557 107.21 83.0181C106.487 84.1854 106.031 85.5184 106.074 87.2046C106.812 87.5166 107.577 87.5541 108.295 87.4126ZM116.97 93.2005C118.733 92.8969 120.359 92.3308 121.532 91.8276C122.698 91.3268 123.428 90.9083 123.428 90.9083C123.428 90.9083 122.684 90.6096 121.538 90.2285C120.393 89.8378 118.864 89.354 117.249 88.9585C115.636 88.5702 113.957 88.2787 112.411 88.3488C111.634 88.3827 110.899 88.5158 110.186 88.7698C109.47 89.0238 108.805 89.4169 108.076 89.9649C108.544 91.5785 109.96 92.5994 111.621 93.0675C113.29 93.5489 115.207 93.5114 116.97 93.2005ZM60.4345 79.1729C64.8302 82.821 70.1911 85.3164 75.4517 87.4404C79.7554 89.181 85.2784 92.0224 90.9018 94.6726C85.8481 96.2463 80.8597 97.5321 76.8487 98.2046C76.3213 98.2893 79.0188 101.039 79.528 100.884C84.1849 99.4819 88.9096 97.7813 93.5689 95.9028C98.6589 98.2143 103.685 100.197 107.822 100.889C108.344 100.976 109.964 98.2058 109.442 98.1187C105.521 97.4619 100.966 96.2959 96.224 94.8093C104.034 91.5289 111.554 87.8166 118.057 84.2797C125.115 80.4344 130.414 74.9755 133.898 67.7192C137.126 60.9999 139.404 53.5693 139.74 46.1061C140.204 35.7702 136.732 25.6325 131.348 16.9186C129.772 14.3688 128.009 11.8238 126.054 9.46024C126.228 8.80585 126.249 8.16839 126.136 7.56722C126.004 6.85477 125.727 6.17014 125.301 5.55929C124.483 4.30494 123.156 3.29856 121.8 2.54619C120.433 1.79866 119.012 1.32814 117.952 1.07412C117.419 0.942275 116.978 0.872125 116.672 0.82737C116.52 0.808017 116.398 0.794703 116.319 0.792283C116.246 0.785026 116.207 0.78503 116.207 0.78503C116.207 0.78503 116.221 0.822514 116.251 0.892671C116.291 0.961618 116.338 1.06928 116.406 1.20354C116.545 1.47933 116.745 1.86398 116.999 2.33451C117.504 3.26832 118.194 4.49848 119.007 5.6984C119.407 6.30199 119.868 6.87655 120.338 7.4245C120.573 7.69182 120.827 7.94945 121.091 8.18411C121.345 8.42845 121.613 8.65223 121.898 8.84939C122.469 9.23525 123.069 9.55459 123.743 9.72636C124.254 9.85094 124.793 9.90659 125.372 9.87272C129.125 14.3107 132.196 19.466 134.537 24.6407C137.512 31.2305 139.099 38.4119 138.929 45.6489C138.747 53.5379 136.115 61.5454 132.578 68.5526C129.824 74.0043 125.814 78.4519 120.687 81.771C116.1 84.7346 111.069 86.9578 106.069 89.1206C102.325 90.7438 97.8775 92.407 93.3681 93.8864C83.7107 90.6616 73.6167 86.2962 66.6216 82.3468C62.9637 80.2869 59.6567 77.7564 56.9182 74.5619C54.1833 71.3697 52.2092 67.5813 50.6259 63.7118C47.6224 56.3708 45.7174 48.7745 46.1831 40.8009C46.7286 31.5015 50.3816 22.6073 55.4716 14.8962C56.7767 12.9209 58.1931 10.9493 59.7305 9.09374C60.2857 9.12156 60.8058 9.0635 61.3042 8.94254C61.9767 8.77078 62.5743 8.45265 63.15 8.06558C63.427 7.86842 63.7004 7.64464 63.9545 7.40272C64.2194 7.16806 64.4722 6.91163 64.7068 6.64068C65.1846 6.09274 65.6334 5.52181 66.0398 4.91459C66.8539 3.71709 67.5409 2.48209 68.0429 1.5507C68.2945 1.08258 68.5001 0.689471 68.6331 0.417312C68.7033 0.283047 68.7553 0.176599 68.7928 0.104023C68.8195 0.0374957 68.8327 0 68.8327 0C68.8327 0 68.7976 -1.32902e-06 68.7226 0.00241786C68.6428 0.00725624 68.5255 0.0241963 68.3743 0.0423403C68.0659 0.0846761 67.6244 0.159665 67.0946 0.289091C66.0338 0.543106 64.6136 1.01363 63.2444 1.75875C61.8872 2.51353 60.5627 3.5187 59.7414 4.77426C59.318 5.38874 59.0338 6.07216 58.9116 6.77978C58.7943 7.37006 58.8148 7.99543 58.9793 8.64015C55.3856 12.9088 52.4149 17.8246 50.1106 22.7476C47.2693 28.8319 45.5529 35.4157 45.2916 42.1375C44.9977 49.8595 47.0987 57.2586 50.0006 64.3396C52.3351 70.038 55.6675 75.2175 60.4345 79.1729ZM63.4077 15.9848C63.946 15.5941 64.4588 15.1998 64.8967 14.8018C65.3479 14.4111 65.7579 14.0494 66.0821 13.7216C66.4087 13.3926 66.6905 13.1265 66.8768 12.9318C67.0631 12.7407 67.1611 12.627 67.1611 12.627C67.1611 12.627 66.4668 12.4721 65.3854 12.3657C64.8447 12.3137 64.2206 12.2859 63.5323 12.2907C62.8428 12.2955 62.1001 12.3379 61.3659 12.4576C59.8721 12.6766 58.3686 13.1846 57.2194 14.0349C56.6618 14.474 56.1913 14.9893 55.8623 15.5868C55.5538 16.1977 55.3941 16.8944 55.4316 17.6589C56.9763 18.3314 58.4375 18.2733 59.768 17.8851C60.4478 17.694 61.0901 17.417 61.6852 17.0807C62.2948 16.7565 62.8803 16.3864 63.4077 15.9848ZM51.7254 16.8315C52.4427 16.4698 52.9725 15.9921 53.3814 15.4296C53.8156 14.8816 54.1132 14.2418 54.3128 13.5317C54.7458 12.1468 54.8135 10.4884 54.7978 8.88931C54.793 8.4841 54.7736 8.08251 54.7506 7.68697C54.7361 7.30111 54.7107 6.92009 54.6841 6.55359C54.6285 5.81331 54.5547 5.12505 54.4894 4.53476C54.3696 3.37113 54.2378 2.597 54.2378 2.597C54.2378 2.597 54.1035 2.7482 53.8713 3.00584C53.6427 3.26712 53.3184 3.64813 52.9628 4.14165C52.606 4.63274 52.1863 5.20005 51.7943 5.86533C51.4133 6.52939 51.0081 7.24306 50.684 8.02204C50.3646 8.80465 50.0707 9.60177 49.8941 10.4231C49.7151 11.2432 49.6328 12.0621 49.6703 12.8386C49.7707 14.416 50.3912 15.8227 51.7254 16.8315ZM60.3861 21.0373C60.5264 20.8111 60.6027 20.6816 60.6027 20.6816C60.6027 20.6816 60.4212 20.6817 60.1091 20.6913C59.7886 20.7034 59.3519 20.7361 58.8209 20.805C58.2911 20.8704 57.673 20.972 56.998 21.1244C56.6666 21.203 56.3086 21.284 55.9699 21.3929C55.6312 21.5006 55.2829 21.6227 54.9333 21.7618C54.2438 22.0424 53.5289 22.3787 52.906 22.79C52.2891 23.2133 51.723 23.6984 51.2585 24.2476C51.019 24.5161 50.8376 24.8148 50.6804 25.1245C50.528 25.4305 50.4058 25.7511 50.3162 26.0837C50.234 26.4163 50.1893 26.7587 50.1893 27.1095C50.2062 27.4663 50.2764 27.8316 50.3937 28.2005C51.2138 28.3372 51.9843 28.2997 52.6846 28.1449C53.3789 27.9864 54.0588 27.7263 54.6587 27.3828C54.9623 27.2111 55.2442 27.0187 55.5187 26.8119C55.6603 26.7103 55.7872 26.6002 55.9142 26.4913C56.0497 26.3861 56.184 26.2748 56.3134 26.1623C56.8408 25.7124 57.3065 25.2188 57.7202 24.7181C58.1605 24.233 58.5621 23.7347 58.8984 23.2605C58.9806 23.1456 59.058 23.0259 59.1379 22.9122C59.2249 22.7972 59.3023 22.6884 59.3846 22.5795C59.537 22.3654 59.6834 22.1586 59.8056 21.9699C60.0584 21.5864 60.2495 21.2598 60.3861 21.0373ZM47.1931 27.0659C47.4169 26.7768 47.5935 26.4684 47.735 26.1454C47.8741 25.8237 47.9769 25.4898 48.0446 25.139C48.1148 24.7943 48.1414 24.4302 48.1813 24.0673C48.2321 23.3404 48.1813 22.5686 48.0579 21.7739C47.9382 20.9816 47.8039 20.1954 47.5971 19.4007C47.1919 17.8173 46.7528 16.3283 46.3621 15.1901C45.969 14.0543 45.6992 13.3273 45.6992 13.3273C45.6992 13.3273 45.5915 13.4967 45.4222 13.8124C45.2553 14.1293 45.0291 14.5853 44.78 15.1478C44.2429 16.263 43.7142 17.8512 43.378 19.518C43.2389 20.3672 43.1506 21.2369 43.1506 22.0799C43.1409 22.4985 43.1833 22.9242 43.2498 23.3331C43.3115 23.7443 43.3925 24.1399 43.5062 24.5185C43.736 25.2805 44.0542 25.9555 44.5574 26.5373C45.0533 27.1203 45.6787 27.5884 46.4504 27.9175C46.748 27.6477 46.9923 27.3635 47.1931 27.0659ZM52.0774 37.8277C52.5806 37.339 53.0039 36.7874 53.3571 36.2116C53.7466 35.6419 54.0974 35.0541 54.3732 34.4614C54.5184 34.1699 54.6272 33.8759 54.7675 33.5941C54.9018 33.3098 55.0264 33.0316 55.1353 32.7631C55.3627 32.2248 55.5199 31.7216 55.6711 31.2934C56.0001 30.4419 56.1393 29.8673 56.1393 29.8673C56.1393 29.8673 55.4571 30.0343 54.441 30.4153C53.4032 30.7866 52.1548 31.4192 50.915 32.301C50.6114 32.5224 50.2921 32.757 50.0163 33.0159C49.7405 33.2675 49.4731 33.536 49.224 33.8179C48.7329 34.3852 48.2817 35.0021 47.9842 35.6552C47.7048 36.3108 47.5475 36.9979 47.5475 37.6898C47.5499 38.0333 47.5777 38.3792 47.6866 38.7191C47.8039 39.0627 47.9539 39.4013 48.1668 39.7304C49.8469 39.5779 51.0505 38.8038 52.0774 37.8277ZM43.0768 31.4676C42.7043 30.7503 42.3027 30.0512 41.912 29.4004C41.508 28.7436 41.1451 28.1533 40.8415 27.655C40.2137 26.6486 39.7577 25.9894 39.7577 25.9894C39.7577 25.9894 39.5206 26.7817 39.2714 28.0118C39.1771 28.6384 39.09 29.369 39.032 30.1588C39.0017 30.5556 38.9775 30.9656 38.969 31.3842C38.969 31.8051 38.9969 32.2381 39.032 32.6712C39.1094 33.5336 39.2194 34.4069 39.4384 35.2295C39.6851 36.058 40.0045 36.8382 40.4145 37.5156C41.2044 38.88 42.4805 39.8271 44.1352 40.0606C44.3517 39.7243 44.5114 39.3856 44.6336 39.0421C44.7509 38.6974 44.8658 38.3551 44.9142 38.0091C45.0291 37.31 44.9759 36.5927 44.8065 35.8657C44.6674 35.1387 44.4437 34.4045 44.1316 33.6642C43.8183 32.9288 43.4325 32.1825 43.0768 31.4676ZM48.8635 51.6038C50.4554 51.0534 51.521 49.9962 52.2202 48.783C52.3968 48.4769 52.5467 48.1649 52.6786 47.8431C52.8334 47.5214 52.9677 47.1912 53.085 46.8597C53.3185 46.1969 53.4854 45.5219 53.5955 44.8651C53.7225 44.2107 53.8567 43.5732 53.9208 42.9842C53.9583 42.6902 53.9814 42.4072 54.0031 42.1399C54.0201 41.8738 54.0297 41.6222 54.0623 41.3911C54.1664 40.4767 54.1495 39.8743 54.1495 39.8743C54.1495 39.8743 53.5301 40.2154 52.6508 40.8505C52.4342 41.0053 52.1971 41.1867 51.9492 41.3815C51.6976 41.5786 51.4436 41.7939 51.2041 42.0262C50.713 42.4895 50.2049 43.0241 49.7247 43.6107C49.4852 43.9071 49.2566 44.2155 49.0305 44.5349C48.9252 44.6945 48.8187 44.8615 48.7171 45.026C48.6228 45.1905 48.5345 45.3598 48.4535 45.5292C48.1245 46.2065 47.868 46.9166 47.7289 47.6351C47.6673 47.9919 47.6188 48.3512 47.6273 48.7019C47.6466 49.0527 47.6999 49.4011 47.7918 49.7349C47.9805 50.4111 48.3241 51.0485 48.8635 51.6038ZM39.2013 48.9293C39.4057 49.2983 39.6198 49.6587 39.8666 49.9902C40.1206 50.3167 40.3963 50.6203 40.6806 50.901C41.8309 52.015 43.2159 52.6561 44.8888 52.4976C45.1706 51.7332 45.2553 51.0026 45.1755 50.2986C45.1331 49.9454 45.0533 49.5982 44.9432 49.2571C44.8355 48.9112 44.7194 48.5701 44.5622 48.2362C44.2537 47.5613 43.8256 46.8996 43.3345 46.2585C43.0781 45.9416 42.8264 45.6211 42.5748 45.3054C42.3184 44.9921 42.0547 44.6849 41.7837 44.3861C40.6903 43.1789 39.4819 42.0782 38.6413 41.2532C37.7788 40.4368 37.1668 39.9166 37.1668 39.9166C37.1668 39.9166 37.1462 40.7488 37.2187 42.0056C37.2611 42.631 37.3905 43.3579 37.5357 44.1393C37.6058 44.5288 37.6941 44.9316 37.7921 45.3393C37.8876 45.7433 37.9868 46.1594 38.1441 46.5646C38.4404 47.3762 38.7913 48.183 39.2013 48.9293ZM50.7045 61.5587C51.0166 62.1913 51.4786 62.7514 52.1161 63.2001C53.5773 62.3631 54.4131 61.1088 54.8558 59.7504C54.9683 59.4093 55.0506 59.0609 55.1171 58.7065C55.151 58.5347 55.1788 58.3557 55.1994 58.1815C55.2223 58.0025 55.2538 57.8211 55.2816 57.6408C55.3735 56.9211 55.3954 56.2014 55.3736 55.5095C55.2817 54.133 55.1994 52.8351 55.0228 51.8892C54.9454 51.4187 54.8559 51.0316 54.7978 50.7631C54.7506 50.4909 54.7228 50.3421 54.7228 50.3421C54.7228 50.3421 54.5885 50.4643 54.3647 50.6929C54.1301 50.9215 53.8386 51.2481 53.4999 51.6667C52.8165 52.5073 51.9625 53.7036 51.273 55.0934C50.615 56.4699 50.1941 58.0219 50.2014 59.4988C50.1989 59.8725 50.257 60.2257 50.3441 60.5656C50.4275 60.9128 50.5485 61.2442 50.7045 61.5587ZM42.0015 62.1889C42.2651 62.5143 42.5736 62.7961 42.8906 63.0647C43.2014 63.3332 43.5232 63.5727 43.857 63.788C45.1888 64.642 46.6681 65.0024 48.2769 64.5319C48.4124 63.7275 48.3518 62.9909 48.1402 62.3087C48.0373 61.9724 47.891 61.6434 47.7096 61.3277C47.5378 61.0108 47.3152 60.7132 47.1108 60.4084C46.2459 59.2061 44.9094 58.167 43.5643 57.2405C42.2592 56.3042 40.8826 55.4999 39.8291 54.9168C38.7537 54.3399 38.074 53.9806 38.074 53.9806C38.074 53.9806 38.1066 54.185 38.1961 54.5334C38.288 54.8781 38.4344 55.3668 38.6316 55.9547C39.032 57.1243 39.5907 58.6932 40.5173 60.1217C40.9648 60.8451 41.4644 61.5551 42.0015 62.1889ZM54.9635 70.7093C55.3941 72.1016 56.4005 73.247 57.927 73.6002C58.9927 72.2975 59.3265 70.8738 59.4136 69.5287C59.491 68.1837 59.3168 66.9088 59.1741 65.8383C59.1221 65.3847 58.9407 64.6202 58.7737 64.0202C58.602 63.4046 58.4121 62.8482 58.2379 62.3849C58.0661 61.9168 57.9041 61.5382 57.7903 61.2745C57.6948 61.006 57.6355 60.8559 57.6355 60.8559C57.6355 60.8559 57.5218 61.0072 57.3476 61.2793C57.1613 61.5551 56.9461 61.9421 56.6872 62.4272C56.1816 63.3937 55.5719 64.7484 55.1486 66.2471C55.0397 66.6233 54.949 67.0068 54.8728 67.395C54.8002 67.7579 54.7433 68.1292 54.7083 68.5054C54.6913 68.8792 54.7034 69.2517 54.7385 69.6279C54.7784 69.998 54.8655 70.3561 54.9635 70.7093ZM43.7542 67.8438C42.6111 67.4857 41.8697 67.2741 41.8697 67.2741C41.8697 67.2741 41.9398 67.4627 42.0838 67.7821C42.2398 68.0954 42.4696 68.5417 42.7635 69.0691C43.0599 69.5941 43.4204 70.2037 43.8389 70.8423C44.0481 71.1629 44.2719 71.4895 44.509 71.8185L44.6965 72.0701L44.9275 72.3786C45.092 72.583 45.2541 72.7874 45.4138 72.9894C46.7528 74.5812 48.4027 75.8005 50.0259 76.3097C51.6516 76.8311 53.2265 76.6654 54.5728 75.6517C54.1966 74.0405 53.2883 72.9422 52.0629 71.9854C51.7642 71.7411 51.4303 71.5221 51.0965 71.2911C50.7626 71.0625 50.4034 70.846 50.0405 70.6307C49.6788 70.4021 49.3074 70.1831 48.924 69.9678C48.5611 69.7694 48.2091 69.5941 47.8414 69.4211C46.3887 68.7352 44.8973 68.2079 43.7542 67.8438ZM63.5202 79.4208C64.4347 80.582 65.7144 81.3465 67.3074 81.2642C67.9521 79.7147 67.842 78.2318 67.403 76.8722C66.9651 75.5174 66.1897 74.2728 65.4059 73.189C64.616 72.1052 63.8166 71.1798 63.2263 70.517C62.9372 70.1831 62.6904 69.917 62.5138 69.7368C62.3493 69.5505 62.2501 69.455 62.2501 69.455C62.2501 69.455 62.1932 69.6195 62.1134 69.9182C62.036 70.2194 61.9465 70.6464 61.8618 71.1738C61.69 72.2298 61.615 73.6788 61.84 75.1957C62.0626 76.704 62.6033 78.2535 63.5202 79.4208ZM60.449 85.7917C62.0626 85.7143 63.4924 85.095 64.4964 83.7451C63.6968 82.313 62.4763 81.5388 61.0199 81.0876C59.5636 80.6413 57.8654 80.5203 56.1961 80.4695C54.5305 80.4199 52.877 80.4586 51.6383 80.4623C50.3634 80.4889 49.5663 80.4974 49.5663 80.4974C49.5663 80.4974 49.7187 80.6715 50.0078 80.951C50.2945 81.2171 50.7154 81.6126 51.2355 82.0408C52.2867 82.9057 53.7709 83.9205 55.4087 84.6584C57.0477 85.3999 58.833 85.8692 60.449 85.7917ZM72.049 82.0287C72.6744 83.4379 73.5864 84.8156 74.7851 85.7143C75.3791 86.1558 76.0455 86.4933 76.7604 86.6312C77.4729 86.7703 78.2349 86.7328 78.98 86.4195C79.0151 84.7334 78.5567 83.3992 77.8345 82.2307C77.11 81.0707 76.0843 80.0643 75.0235 79.2019C73.9627 78.3419 72.874 77.6185 72.0551 77.1069C71.2374 76.5916 70.6774 76.2904 70.6774 76.2904C70.6774 76.2904 70.6822 76.4766 70.7149 76.7911C70.7451 77.1068 70.7995 77.558 70.8866 78.0987C71.0705 79.1753 71.414 80.6219 72.049 82.0287Z" fill="#BDBDBD"/>
<path d="M76.9733 89.1835C76.2439 88.6307 75.5738 88.24 74.8613 87.9835C74.1441 87.7344 73.4147 87.5977 72.6369 87.565C71.091 87.4961 69.4073 87.7839 67.7985 88.1734C66.1849 88.5714 64.6536 89.0504 63.5057 89.4435C62.365 89.8245 61.6199 90.1185 61.6199 90.1185C61.6199 90.1185 62.3481 90.5418 63.5202 91.0426C64.6911 91.541 66.3143 92.1107 68.0828 92.4155C69.8379 92.7239 71.7563 92.7614 73.4268 92.2812C75.0876 91.8131 76.5028 90.7946 76.9733 89.1835ZM127.828 14.8212C126.68 13.9672 125.178 13.4567 123.684 13.239C122.948 13.1193 122.205 13.0757 121.515 13.0721C120.828 13.0697 120.203 13.0963 119.665 13.1495C118.58 13.2596 117.889 13.4084 117.889 13.4084C117.889 13.4084 117.986 13.5233 118.171 13.7168C118.357 13.9128 118.641 14.1752 118.962 14.5091C119.291 14.8357 119.707 15.1973 120.155 15.588C120.59 15.9812 121.103 16.3803 121.639 16.771C122.169 17.169 122.754 17.5403 123.366 17.8645C123.966 18.2008 124.601 18.4826 125.28 18.6689C126.611 19.0596 128.068 19.1213 129.617 18.4439C129.655 17.6794 129.499 16.9827 129.189 16.3719C128.859 15.7731 128.388 15.2578 127.828 14.8212ZM133.322 17.6117C134.661 16.6077 135.277 15.1986 135.376 13.6261C135.419 12.8471 135.329 12.0282 135.157 11.2057C134.978 10.3868 134.692 9.58967 134.367 8.80585C134.04 8.02929 133.636 7.312 133.25 6.64914C132.864 5.98628 132.438 5.41414 132.087 4.92546C131.733 4.43195 131.408 4.05214 131.173 3.78724C130.947 3.52718 130.811 3.38082 130.811 3.38082C130.811 3.38082 130.682 4.1598 130.56 5.31859C130.492 5.90888 130.42 6.59835 130.365 7.33378C130.339 7.70513 130.315 8.08372 130.302 8.472C130.279 8.86512 130.26 9.26671 130.255 9.67193C130.235 11.271 130.306 12.9269 130.734 14.3168C130.938 15.0244 131.232 15.6618 131.663 16.2122C132.072 16.7759 132.607 17.25 133.322 17.6117ZM134.372 25.9059C134.213 25.5974 134.031 25.2987 133.789 25.0314C133.324 24.4858 132.761 23.9972 132.142 23.575C131.524 23.1565 130.806 22.8275 130.119 22.5481C129.771 22.409 129.42 22.2844 129.081 22.1767C128.74 22.0691 128.382 21.982 128.046 21.9082C127.378 21.7534 126.757 21.6542 126.228 21.5876C125.696 21.5223 125.262 21.4897 124.943 21.48C124.622 21.4631 124.448 21.4655 124.448 21.4655C124.448 21.4655 124.52 21.5949 124.666 21.8187C124.801 22.0461 124.983 22.3739 125.243 22.7549C125.367 22.946 125.507 23.1504 125.664 23.3645C125.747 23.4722 125.829 23.5835 125.914 23.6935C125.986 23.8109 126.068 23.9258 126.153 24.0468C126.489 24.5197 126.885 25.0156 127.329 25.5043C127.74 26.0075 128.208 26.4974 128.731 26.9461C128.863 27.0586 129.002 27.1699 129.131 27.2752C129.262 27.3876 129.392 27.4893 129.531 27.5969C129.801 27.8013 130.089 27.9924 130.391 28.1618C130.987 28.5077 131.671 28.7726 132.369 28.9311C133.067 29.0859 133.829 29.1234 134.66 28.9831C134.773 28.6154 134.845 28.2513 134.86 27.8921C134.86 27.5437 134.815 27.2002 134.733 26.8687C134.652 26.5361 134.525 26.2143 134.372 25.9059ZM139.348 14.1111C139.348 14.1111 139.075 14.8381 138.684 15.9739C138.294 17.1121 137.853 18.6012 137.445 20.1881C137.245 20.9792 137.111 21.7667 136.987 22.5589C136.868 23.3549 136.811 24.1254 136.868 24.8524C136.906 25.214 136.932 25.5769 137.002 25.9253C137.072 26.2748 137.174 26.6099 137.315 26.9316C137.454 27.2522 137.63 27.557 137.849 27.8521C138.053 28.1461 138.301 28.4328 138.592 28.7001C139.373 28.3711 139.994 27.9029 140.489 27.3223C140.995 26.7417 141.307 26.0643 141.538 25.3035C141.655 24.9225 141.737 24.527 141.805 24.1157C141.86 23.7069 141.907 23.2799 141.897 22.8638C141.892 22.0195 141.805 21.1474 141.669 20.3006C141.335 18.6302 140.798 17.0408 140.267 15.9352C140.017 15.3727 139.789 14.9131 139.627 14.5926C139.457 14.2817 139.348 14.1111 139.348 14.1111ZM137.065 36.4403C136.766 35.7871 136.317 35.1702 135.823 34.6065C135.571 34.3247 135.305 34.0513 135.033 33.7997C134.757 33.5433 134.435 33.3098 134.135 33.0873C132.893 32.2055 131.645 31.5728 130.602 31.1979C129.592 30.8168 128.904 30.6524 128.904 30.6524C128.904 30.6524 129.049 31.2318 129.378 32.0761C129.522 32.5055 129.684 33.0123 129.915 33.5481C130.02 33.8142 130.147 34.0936 130.281 34.3767C130.416 34.6609 130.528 34.9573 130.677 35.25C130.949 35.8379 131.295 36.4282 131.691 36.9991C132.044 37.5737 132.47 38.124 132.97 38.6175C133.999 39.5888 135.206 40.3606 136.883 40.5178C137.088 40.1864 137.246 39.8501 137.356 39.5114C137.469 39.1655 137.492 38.8207 137.501 38.4772C137.501 37.7853 137.337 37.0971 137.065 36.4403ZM140.238 36.6519C140.068 37.3813 140.023 38.0914 140.131 38.7917C140.181 39.1425 140.293 39.4836 140.414 39.8259C140.532 40.1695 140.7 40.5106 140.913 40.8468C142.568 40.6122 143.847 39.6638 144.633 38.3018C145.044 37.622 145.357 36.8418 145.612 36.0133C145.831 35.1895 145.941 34.3223 146.016 33.455C146.046 33.022 146.075 32.5865 146.079 32.1656C146.064 31.747 146.041 31.3382 146.016 30.9451C145.954 30.1528 145.869 29.4186 145.779 28.7956C145.527 27.5679 145.289 26.7756 145.289 26.7756C145.289 26.7756 144.835 27.4264 144.204 28.44C143.895 28.9383 143.534 29.5299 143.133 30.183C142.744 30.835 142.343 31.5329 141.972 32.2526C141.619 32.9651 141.228 33.7102 140.921 34.4468C140.604 35.1908 140.382 35.9274 140.238 36.6519ZM137.256 50.5212C137.348 50.1825 137.407 49.8365 137.423 49.4882C137.433 49.135 137.383 48.7757 137.318 48.4177C137.181 47.7028 136.927 46.9903 136.595 46.313C136.513 46.1436 136.424 45.9743 136.337 45.8098C136.237 45.6453 136.127 45.4832 136.018 45.3199C135.8 44.9994 135.562 44.6873 135.325 44.3958C134.848 43.8031 134.34 43.2708 133.846 42.8088C133.608 42.5753 133.353 42.3612 133.102 42.1641C132.855 41.9717 132.616 41.7903 132.399 41.633C131.515 41.0004 130.897 40.6545 130.897 40.6545C130.897 40.6545 130.887 41.2593 130.984 42.1762C131.024 42.406 131.034 42.6552 131.048 42.9213C131.069 43.1886 131.093 43.4716 131.131 43.7656C131.197 44.3534 131.33 44.9909 131.455 45.6477C131.567 46.3033 131.732 46.9807 131.968 47.6447C132.082 47.9737 132.219 48.3052 132.373 48.6281C132.508 48.9487 132.657 49.2656 132.834 49.5668C133.529 50.78 134.591 51.836 136.183 52.3839C136.726 51.8299 137.07 51.1937 137.256 50.5212ZM143.272 45.1663C142.997 45.465 142.732 45.7759 142.478 46.0916C142.224 46.4013 141.97 46.7218 141.713 47.0387C141.222 47.6835 140.796 48.3415 140.486 49.0164C140.327 49.3503 140.21 49.6962 140.109 50.0373C139.992 50.3809 139.912 50.7292 139.873 51.0824C139.796 51.7876 139.873 52.5194 140.163 53.279C141.828 53.4363 143.22 52.7964 144.371 51.686C144.654 51.409 144.928 51.1006 145.182 50.774C145.432 50.4425 145.641 50.0845 145.849 49.7132C146.258 48.9668 146.608 48.1637 146.902 47.3472C147.061 46.9444 147.161 46.5283 147.26 46.117C147.356 45.7118 147.441 45.3126 147.515 44.9219C147.66 44.1442 147.787 43.4148 147.831 42.7894C147.904 41.5339 147.882 40.7029 147.882 40.7029C147.882 40.7029 147.269 41.2206 146.408 42.0383C145.569 42.8608 144.361 43.9615 143.272 45.1663ZM132.928 63.9876C133.568 63.54 134.031 62.9727 134.343 62.3413C134.502 62.028 134.617 61.6942 134.706 61.3543C134.788 61.0083 134.857 60.6576 134.851 60.2862C134.861 58.8093 134.435 57.2562 133.781 55.876C133.083 54.4886 132.229 53.2936 131.551 52.4565C131.208 52.0356 130.919 51.7066 130.687 51.478C130.463 51.2493 130.33 51.1247 130.33 51.1247C130.33 51.1247 130.296 51.2784 130.255 51.5481C130.193 51.8191 130.106 52.2037 130.026 52.6791C129.85 53.6226 129.767 54.9156 129.677 56.2946C129.65 56.9864 129.677 57.7062 129.772 58.4259C129.798 58.6097 129.827 58.7887 129.85 58.9641C129.871 59.1407 129.902 59.3173 129.929 59.4939C129.992 59.8496 130.081 60.1943 130.193 60.5354C130.637 61.8913 131.467 63.1493 132.928 63.9876ZM146.854 55.3148C146.941 54.9664 146.974 54.7644 146.974 54.7644C146.974 54.7644 146.296 55.1249 145.221 55.7031C144.17 56.2837 142.792 57.0893 141.489 58.0267C140.137 58.9484 138.803 59.9923 137.941 61.1934C137.729 61.497 137.512 61.797 137.333 62.1127C137.157 62.4296 137.009 62.755 136.908 63.0961C136.693 63.7759 136.635 64.5113 136.771 65.3169C138.377 65.785 139.861 65.4246 141.192 64.5718C141.526 64.3601 141.846 64.1146 142.163 63.8485C142.469 63.5812 142.781 63.2957 143.047 62.974C143.588 62.3389 144.087 61.6313 144.532 60.9092C145.456 59.477 146.016 57.9082 146.416 56.7385C146.611 56.153 146.76 55.6583 146.854 55.3148ZM129.9 67.0309C129.477 65.5298 128.863 64.1799 128.359 63.211C128.105 62.7248 127.879 62.3389 127.699 62.0655C127.52 61.7934 127.416 61.6397 127.416 61.6397C127.416 61.6397 127.354 61.7922 127.256 62.0559C127.144 62.322 126.982 62.703 126.81 63.1663C126.636 63.6344 126.445 64.1872 126.276 64.8041C126.11 65.4016 125.923 66.1685 125.875 66.6221C125.733 67.6902 125.559 68.9663 125.635 70.3126C125.722 71.6576 126.056 73.0849 127.119 74.3828C128.651 74.0284 129.65 72.8878 130.085 71.4907C130.183 71.1411 130.273 70.7807 130.31 70.4081C130.344 70.0344 130.358 69.663 130.335 69.2868C130.302 68.9106 130.25 68.5393 130.175 68.1788C130.095 67.7893 130.002 67.4035 129.9 67.0309ZM139.633 73.7708C139.8 73.5712 139.962 73.3656 140.123 73.1612L140.355 72.8515L140.541 72.5999C140.776 72.2733 141 71.9467 141.208 71.6286C141.626 70.9912 141.989 70.3803 142.287 69.8553C142.578 69.3268 142.806 68.884 142.959 68.5695C143.107 68.249 143.178 68.0591 143.178 68.0591C143.178 68.0591 142.438 68.2732 141.289 68.6336C140.155 68.9941 138.661 69.5227 137.211 70.2049C136.842 70.3767 136.484 70.5545 136.127 70.7529C135.746 70.9694 135.368 71.1907 135.01 71.4109C134.648 71.6322 134.288 71.8463 133.954 72.0786C133.617 72.3047 133.282 72.5261 132.984 72.7729C131.761 73.7272 130.852 74.8231 130.477 76.4392C131.822 77.448 133.399 77.6197 135.024 77.0972C136.639 76.5867 138.297 75.3687 139.633 73.7708ZM117.743 82.0468C119.328 82.1315 120.612 81.3671 121.532 80.2034C122.44 79.0362 122.992 77.4891 123.209 75.9795C123.433 74.4615 123.36 73.0136 123.184 71.9576C123.104 71.4314 123.009 71.0032 122.929 70.702C122.852 70.4033 122.795 70.2364 122.795 70.2364C122.795 70.2364 122.698 70.3343 122.529 70.5206C122.353 70.7008 122.108 70.9657 121.824 71.302C121.234 71.9673 120.434 72.889 119.641 73.9716C118.859 75.0578 118.084 76.3 117.639 77.6572C117.209 79.0204 117.097 80.4973 117.743 82.0468ZM128.854 81.2521C127.184 81.309 125.478 81.4239 124.028 81.8702C122.571 82.3214 121.353 83.098 120.559 84.5253C121.553 85.8752 122.989 86.5006 124.6 86.5731C126.216 86.653 128.004 86.1837 129.64 85.4398C131.277 84.6995 132.761 83.6895 133.807 82.8222C134.334 82.3964 134.753 82.0033 135.042 81.7324C135.33 81.4505 135.483 81.2836 135.483 81.2836C135.483 81.2836 134.683 81.2691 133.413 81.2461C132.171 81.24 130.518 81.2038 128.854 81.2521ZM108.295 87.4126C109.005 87.2783 109.666 86.9397 110.267 86.4982C111.46 85.597 112.373 84.2241 113.002 82.8174C113.633 81.4082 113.974 79.9603 114.16 78.8801C114.249 78.3382 114.299 77.8871 114.332 77.5726C114.36 77.2593 114.369 77.0766 114.369 77.0766C114.369 77.0766 113.809 77.3754 112.993 77.8883C112.171 78.4035 111.088 79.1232 110.022 79.9869C108.966 80.8517 107.934 81.8557 107.21 83.0181C106.487 84.1854 106.031 85.5184 106.074 87.2046C106.812 87.5166 107.577 87.5541 108.295 87.4126ZM116.97 93.2005C118.733 92.8969 120.359 92.3308 121.532 91.8276C122.698 91.3268 123.428 90.9083 123.428 90.9083C123.428 90.9083 122.684 90.6096 121.538 90.2285C120.393 89.8378 118.864 89.354 117.249 88.9585C115.636 88.5702 113.957 88.2787 112.411 88.3488C111.634 88.3827 110.899 88.5158 110.186 88.7698C109.47 89.0238 108.805 89.4169 108.076 89.9649C108.544 91.5785 109.96 92.5994 111.621 93.0675C113.29 93.5489 115.207 93.5114 116.97 93.2005ZM60.4345 79.1729C64.8302 82.821 70.1911 85.3164 75.4517 87.4404C79.7554 89.181 85.2784 92.0224 90.9018 94.6726C85.8481 96.2463 80.8597 97.5321 76.8487 98.2046C76.3213 98.2893 79.0188 101.039 79.528 100.884C84.1849 99.4819 88.9096 97.7813 93.5689 95.9028C98.6589 98.2143 103.685 100.197 107.822 100.889C108.344 100.976 109.964 98.2058 109.442 98.1187C105.521 97.4619 100.966 96.2959 96.224 94.8093C104.034 91.5289 111.554 87.8166 118.057 84.2797C125.115 80.4344 130.414 74.9755 133.898 67.7192C137.126 60.9999 139.404 53.5693 139.74 46.1061C140.204 35.7702 136.732 25.6325 131.348 16.9186C129.772 14.3688 128.009 11.8238 126.054 9.46024C126.228 8.80585 126.249 8.16839 126.136 7.56722C126.004 6.85477 125.727 6.17014 125.301 5.55929C124.483 4.30494 123.156 3.29856 121.8 2.54619C120.433 1.79866 119.012 1.32814 117.952 1.07412C117.419 0.942275 116.978 0.872125 116.672 0.82737C116.52 0.808017 116.398 0.794703 116.319 0.792283C116.246 0.785026 116.207 0.78503 116.207 0.78503C116.207 0.78503 116.221 0.822514 116.251 0.892671C116.291 0.961618 116.338 1.06928 116.406 1.20354C116.545 1.47933 116.745 1.86398 116.999 2.33451C117.504 3.26832 118.194 4.49848 119.007 5.6984C119.407 6.30199 119.868 6.87655 120.338 7.4245C120.573 7.69182 120.827 7.94945 121.091 8.18411C121.345 8.42845 121.613 8.65223 121.898 8.84939C122.469 9.23525 123.069 9.55459 123.743 9.72636C124.254 9.85094 124.793 9.90659 125.372 9.87272C129.125 14.3107 132.196 19.466 134.537 24.6407C137.512 31.2305 139.099 38.4119 138.929 45.6489C138.747 53.5379 136.115 61.5454 132.578 68.5526C129.824 74.0043 125.814 78.4519 120.687 81.771C116.1 84.7346 111.069 86.9578 106.069 89.1206C102.325 90.7438 97.8775 92.407 93.3681 93.8864C83.7107 90.6616 73.6167 86.2962 66.6216 82.3468C62.9637 80.2869 59.6567 77.7564 56.9182 74.5619C54.1833 71.3697 52.2092 67.5813 50.6259 63.7118C47.6224 56.3708 45.7174 48.7745 46.1831 40.8009C46.7286 31.5015 50.3816 22.6073 55.4716 14.8962C56.7767 12.9209 58.1931 10.9493 59.7305 9.09374C60.2857 9.12156 60.8058 9.0635 61.3042 8.94254C61.9767 8.77078 62.5743 8.45265 63.15 8.06558C63.427 7.86842 63.7004 7.64464 63.9545 7.40272C64.2194 7.16806 64.4722 6.91163 64.7068 6.64068C65.1846 6.09274 65.6334 5.52181 66.0398 4.91459C66.8539 3.71709 67.5409 2.48209 68.0429 1.5507C68.2945 1.08258 68.5001 0.689471 68.6331 0.417312C68.7033 0.283047 68.7553 0.176599 68.7928 0.104023C68.8195 0.0374957 68.8327 0 68.8327 0C68.8327 0 68.7976 -1.32902e-06 68.7226 0.00241786C68.6428 0.00725624 68.5255 0.0241963 68.3743 0.0423403C68.0659 0.0846761 67.6244 0.159665 67.0946 0.289091C66.0338 0.543106 64.6136 1.01363 63.2444 1.75875C61.8872 2.51353 60.5627 3.5187 59.7414 4.77426C59.318 5.38874 59.0338 6.07216 58.9116 6.77978C58.7943 7.37006 58.8148 7.99543 58.9793 8.64015C55.3856 12.9088 52.4149 17.8246 50.1106 22.7476C47.2693 28.8319 45.5529 35.4157 45.2916 42.1375C44.9977 49.8595 47.0987 57.2586 50.0006 64.3396C52.3351 70.038 55.6675 75.2175 60.4345 79.1729ZM63.4077 15.9848C63.946 15.5941 64.4588 15.1998 64.8967 14.8018C65.3479 14.4111 65.7579 14.0494 66.0821 13.7216C66.4087 13.3926 66.6905 13.1265 66.8768 12.9318C67.0631 12.7407 67.1611 12.627 67.1611 12.627C67.1611 12.627 66.4668 12.4721 65.3854 12.3657C64.8447 12.3137 64.2206 12.2859 63.5323 12.2907C62.8428 12.2955 62.1001 12.3379 61.3659 12.4576C59.8721 12.6766 58.3686 13.1846 57.2194 14.0349C56.6618 14.474 56.1913 14.9893 55.8623 15.5868C55.5538 16.1977 55.3941 16.8944 55.4316 17.6589C56.9763 18.3314 58.4375 18.2733 59.768 17.8851C60.4478 17.694 61.0901 17.417 61.6852 17.0807C62.2948 16.7565 62.8803 16.3864 63.4077 15.9848ZM51.7254 16.8315C52.4427 16.4698 52.9725 15.9921 53.3814 15.4296C53.8156 14.8816 54.1132 14.2418 54.3128 13.5317C54.7458 12.1468 54.8135 10.4884 54.7978 8.88931C54.793 8.4841 54.7736 8.08251 54.7506 7.68697C54.7361 7.30111 54.7107 6.92009 54.6841 6.55359C54.6285 5.81331 54.5547 5.12505 54.4894 4.53476C54.3696 3.37113 54.2378 2.597 54.2378 2.597C54.2378 2.597 54.1035 2.7482 53.8713 3.00584C53.6427 3.26712 53.3184 3.64813 52.9628 4.14165C52.606 4.63274 52.1863 5.20005 51.7943 5.86533C51.4133 6.52939 51.0081 7.24306 50.684 8.02204C50.3646 8.80465 50.0707 9.60177 49.8941 10.4231C49.7151 11.2432 49.6328 12.0621 49.6703 12.8386C49.7707 14.416 50.3912 15.8227 51.7254 16.8315ZM60.3861 21.0373C60.5264 20.8111 60.6027 20.6816 60.6027 20.6816C60.6027 20.6816 60.4212 20.6817 60.1091 20.6913C59.7886 20.7034 59.3519 20.7361 58.8209 20.805C58.2911 20.8704 57.673 20.972 56.998 21.1244C56.6666 21.203 56.3086 21.284 55.9699 21.3929C55.6312 21.5006 55.2829 21.6227 54.9333 21.7618C54.2438 22.0424 53.5289 22.3787 52.906 22.79C52.2891 23.2133 51.723 23.6984 51.2585 24.2476C51.019 24.5161 50.8376 24.8148 50.6804 25.1245C50.528 25.4305 50.4058 25.7511 50.3162 26.0837C50.234 26.4163 50.1893 26.7587 50.1893 27.1095C50.2062 27.4663 50.2764 27.8316 50.3937 28.2005C51.2138 28.3372 51.9843 28.2997 52.6846 28.1449C53.3789 27.9864 54.0588 27.7263 54.6587 27.3828C54.9623 27.2111 55.2442 27.0187 55.5187 26.8119C55.6603 26.7103 55.7872 26.6002 55.9142 26.4913C56.0497 26.3861 56.184 26.2748 56.3134 26.1623C56.8408 25.7124 57.3065 25.2188 57.7202 24.7181C58.1605 24.233 58.5621 23.7347 58.8984 23.2605C58.9806 23.1456 59.058 23.0259 59.1379 22.9122C59.2249 22.7972 59.3023 22.6884 59.3846 22.5795C59.537 22.3654 59.6834 22.1586 59.8056 21.9699C60.0584 21.5864 60.2495 21.2598 60.3861 21.0373ZM47.1931 27.0659C47.4169 26.7768 47.5935 26.4684 47.735 26.1454C47.8741 25.8237 47.9769 25.4898 48.0446 25.139C48.1148 24.7943 48.1414 24.4302 48.1813 24.0673C48.2321 23.3404 48.1813 22.5686 48.0579 21.7739C47.9382 20.9816 47.8039 20.1954 47.5971 19.4007C47.1919 17.8173 46.7528 16.3283 46.3621 15.1901C45.969 14.0543 45.6992 13.3273 45.6992 13.3273C45.6992 13.3273 45.5915 13.4967 45.4222 13.8124C45.2553 14.1293 45.0291 14.5853 44.78 15.1478C44.2429 16.263 43.7142 17.8512 43.378 19.518C43.2389 20.3672 43.1506 21.2369 43.1506 22.0799C43.1409 22.4985 43.1833 22.9242 43.2498 23.3331C43.3115 23.7443 43.3925 24.1399 43.5062 24.5185C43.736 25.2805 44.0542 25.9555 44.5574 26.5373C45.0533 27.1203 45.6787 27.5884 46.4504 27.9175C46.748 27.6477 46.9923 27.3635 47.1931 27.0659ZM52.0774 37.8277C52.5806 37.339 53.0039 36.7874 53.3571 36.2116C53.7466 35.6419 54.0974 35.0541 54.3732 34.4614C54.5184 34.1699 54.6272 33.8759 54.7675 33.5941C54.9018 33.3098 55.0264 33.0316 55.1353 32.7631C55.3627 32.2248 55.5199 31.7216 55.6711 31.2934C56.0001 30.4419 56.1393 29.8673 56.1393 29.8673C56.1393 29.8673 55.4571 30.0343 54.441 30.4153C53.4032 30.7866 52.1548 31.4192 50.915 32.301C50.6114 32.5224 50.2921 32.757 50.0163 33.0159C49.7405 33.2675 49.4731 33.536 49.224 33.8179C48.7329 34.3852 48.2817 35.0021 47.9842 35.6552C47.7048 36.3108 47.5475 36.9979 47.5475 37.6898C47.5499 38.0333 47.5777 38.3792 47.6866 38.7191C47.8039 39.0627 47.9539 39.4013 48.1668 39.7304C49.8469 39.5779 51.0505 38.8038 52.0774 37.8277ZM43.0768 31.4676C42.7043 30.7503 42.3027 30.0512 41.912 29.4004C41.508 28.7436 41.1451 28.1533 40.8415 27.655C40.2137 26.6486 39.7577 25.9894 39.7577 25.9894C39.7577 25.9894 39.5206 26.7817 39.2714 28.0118C39.1771 28.6384 39.09 29.369 39.032 30.1588C39.0017 30.5556 38.9775 30.9656 38.969 31.3842C38.969 31.8051 38.9969 32.2381 39.032 32.6712C39.1094 33.5336 39.2194 34.4069 39.4384 35.2295C39.6851 36.058 40.0045 36.8382 40.4145 37.5156C41.2044 38.88 42.4805 39.8271 44.1352 40.0606C44.3517 39.7243 44.5114 39.3856 44.6336 39.0421C44.7509 38.6974 44.8658 38.3551 44.9142 38.0091C45.0291 37.31 44.9759 36.5927 44.8065 35.8657C44.6674 35.1387 44.4437 34.4045 44.1316 33.6642C43.8183 32.9288 43.4325 32.1825 43.0768 31.4676ZM48.8635 51.6038C50.4554 51.0534 51.521 49.9962 52.2202 48.783C52.3968 48.4769 52.5467 48.1649 52.6786 47.8431C52.8334 47.5214 52.9677 47.1912 53.085 46.8597C53.3185 46.1969 53.4854 45.5219 53.5955 44.8651C53.7225 44.2107 53.8567 43.5732 53.9208 42.9842C53.9583 42.6902 53.9814 42.4072 54.0031 42.1399C54.0201 41.8738 54.0297 41.6222 54.0623 41.3911C54.1664 40.4767 54.1495 39.8743 54.1495 39.8743C54.1495 39.8743 53.5301 40.2154 52.6508 40.8505C52.4342 41.0053 52.1971 41.1867 51.9492 41.3815C51.6976 41.5786 51.4436 41.7939 51.2041 42.0262C50.713 42.4895 50.2049 43.0241 49.7247 43.6107C49.4852 43.9071 49.2566 44.2155 49.0305 44.5349C48.9252 44.6945 48.8187 44.8615 48.7171 45.026C48.6228 45.1905 48.5345 45.3598 48.4535 45.5292C48.1245 46.2065 47.868 46.9166 47.7289 47.6351C47.6673 47.9919 47.6188 48.3512 47.6273 48.7019C47.6466 49.0527 47.6999 49.4011 47.7918 49.7349C47.9805 50.4111 48.3241 51.0485 48.8635 51.6038ZM39.2013 48.9293C39.4057 49.2983 39.6198 49.6587 39.8666 49.9902C40.1206 50.3167 40.3963 50.6203 40.6806 50.901C41.8309 52.015 43.2159 52.6561 44.8888 52.4976C45.1706 51.7332 45.2553 51.0026 45.1755 50.2986C45.1331 49.9454 45.0533 49.5982 44.9432 49.2571C44.8355 48.9112 44.7194 48.5701 44.5622 48.2362C44.2537 47.5613 43.8256 46.8996 43.3345 46.2585C43.0781 45.9416 42.8264 45.6211 42.5748 45.3054C42.3184 44.9921 42.0547 44.6849 41.7837 44.3861C40.6903 43.1789 39.4819 42.0782 38.6413 41.2532C37.7788 40.4368 37.1668 39.9166 37.1668 39.9166C37.1668 39.9166 37.1462 40.7488 37.2187 42.0056C37.2611 42.631 37.3905 43.3579 37.5357 44.1393C37.6058 44.5288 37.6941 44.9316 37.7921 45.3393C37.8876 45.7433 37.9868 46.1594 38.1441 46.5646C38.4404 47.3762 38.7913 48.183 39.2013 48.9293ZM50.7045 61.5587C51.0166 62.1913 51.4786 62.7514 52.1161 63.2001C53.5773 62.3631 54.4131 61.1088 54.8558 59.7504C54.9683 59.4093 55.0506 59.0609 55.1171 58.7065C55.151 58.5347 55.1788 58.3557 55.1994 58.1815C55.2223 58.0025 55.2538 57.8211 55.2816 57.6408C55.3735 56.9211 55.3954 56.2014 55.3736 55.5095C55.2817 54.133 55.1994 52.8351 55.0228 51.8892C54.9454 51.4187 54.8559 51.0316 54.7978 50.7631C54.7506 50.4909 54.7228 50.3421 54.7228 50.3421C54.7228 50.3421 54.5885 50.4643 54.3647 50.6929C54.1301 50.9215 53.8386 51.2481 53.4999 51.6667C52.8165 52.5073 51.9625 53.7036 51.273 55.0934C50.615 56.4699 50.1941 58.0219 50.2014 59.4988C50.1989 59.8725 50.257 60.2257 50.3441 60.5656C50.4275 60.9128 50.5485 61.2442 50.7045 61.5587ZM42.0015 62.1889C42.2651 62.5143 42.5736 62.7961 42.8906 63.0647C43.2014 63.3332 43.5232 63.5727 43.857 63.788C45.1888 64.642 46.6681 65.0024 48.2769 64.5319C48.4124 63.7275 48.3518 62.9909 48.1402 62.3087C48.0373 61.9724 47.891 61.6434 47.7096 61.3277C47.5378 61.0108 47.3152 60.7132 47.1108 60.4084C46.2459 59.2061 44.9094 58.167 43.5643 57.2405C42.2592 56.3042 40.8826 55.4999 39.8291 54.9168C38.7537 54.3399 38.074 53.9806 38.074 53.9806C38.074 53.9806 38.1066 54.185 38.1961 54.5334C38.288 54.8781 38.4344 55.3668 38.6316 55.9547C39.032 57.1243 39.5907 58.6932 40.5173 60.1217C40.9648 60.8451 41.4644 61.5551 42.0015 62.1889ZM54.9635 70.7093C55.3941 72.1016 56.4005 73.247 57.927 73.6002C58.9927 72.2975 59.3265 70.8738 59.4136 69.5287C59.491 68.1837 59.3168 66.9088 59.1741 65.8383C59.1221 65.3847 58.9407 64.6202 58.7737 64.0202C58.602 63.4046 58.4121 62.8482 58.2379 62.3849C58.0661 61.9168 57.9041 61.5382 57.7903 61.2745C57.6948 61.006 57.6355 60.8559 57.6355 60.8559C57.6355 60.8559 57.5218 61.0072 57.3476 61.2793C57.1613 61.5551 56.9461 61.9421 56.6872 62.4272C56.1816 63.3937 55.5719 64.7484 55.1486 66.2471C55.0397 66.6233 54.949 67.0068 54.8728 67.395C54.8002 67.7579 54.7433 68.1292 54.7083 68.5054C54.6913 68.8792 54.7034 69.2517 54.7385 69.6279C54.7784 69.998 54.8655 70.3561 54.9635 70.7093ZM43.7542 67.8438C42.6111 67.4857 41.8697 67.2741 41.8697 67.2741C41.8697 67.2741 41.9398 67.4627 42.0838 67.7821C42.2398 68.0954 42.4696 68.5417 42.7635 69.0691C43.0599 69.5941 43.4204 70.2037 43.8389 70.8423C44.0481 71.1629 44.2719 71.4895 44.509 71.8185L44.6965 72.0701L44.9275 72.3786C45.092 72.583 45.2541 72.7874 45.4138 72.9894C46.7528 74.5812 48.4027 75.8005 50.0259 76.3097C51.6516 76.8311 53.2265 76.6654 54.5728 75.6517C54.1966 74.0405 53.2883 72.9422 52.0629 71.9854C51.7642 71.7411 51.4303 71.5221 51.0965 71.2911C50.7626 71.0625 50.4034 70.846 50.0405 70.6307C49.6788 70.4021 49.3074 70.1831 48.924 69.9678C48.5611 69.7694 48.2091 69.5941 47.8414 69.4211C46.3887 68.7352 44.8973 68.2079 43.7542 67.8438ZM63.5202 79.4208C64.4347 80.582 65.7144 81.3465 67.3074 81.2642C67.9521 79.7147 67.842 78.2318 67.403 76.8722C66.9651 75.5174 66.1897 74.2728 65.4059 73.189C64.616 72.1052 63.8166 71.1798 63.2263 70.517C62.9372 70.1831 62.6904 69.917 62.5138 69.7368C62.3493 69.5505 62.2501 69.455 62.2501 69.455C62.2501 69.455 62.1932 69.6195 62.1134 69.9182C62.036 70.2194 61.9465 70.6464 61.8618 71.1738C61.69 72.2298 61.615 73.6788 61.84 75.1957C62.0626 76.704 62.6033 78.2535 63.5202 79.4208ZM60.449 85.7917C62.0626 85.7143 63.4924 85.095 64.4964 83.7451C63.6968 82.313 62.4763 81.5388 61.0199 81.0876C59.5636 80.6413 57.8654 80.5203 56.1961 80.4695C54.5305 80.4199 52.877 80.4586 51.6383 80.4623C50.3634 80.4889 49.5663 80.4974 49.5663 80.4974C49.5663 80.4974 49.7187 80.6715 50.0078 80.951C50.2945 81.2171 50.7154 81.6126 51.2355 82.0408C52.2867 82.9057 53.7709 83.9205 55.4087 84.6584C57.0477 85.3999 58.833 85.8692 60.449 85.7917ZM72.049 82.0287C72.6744 83.4379 73.5864 84.8156 74.7851 85.7143C75.3791 86.1558 76.0455 86.4933 76.7604 86.6312C77.4729 86.7703 78.2349 86.7328 78.98 86.4195C79.0151 84.7334 78.5567 83.3992 77.8345 82.2307C77.11 81.0707 76.0843 80.0643 75.0235 79.2019C73.9627 78.3419 72.874 77.6185 72.0551 77.1069C71.2374 76.5916 70.6774 76.2904 70.6774 76.2904C70.6774 76.2904 70.6822 76.4766 70.7149 76.7911C70.7451 77.1068 70.7995 77.558 70.8866 78.0987C71.0705 79.1753 71.414 80.6219 72.049 82.0287Z" fill="url(#paint0_linear_310_434)"/>
<path d="M91.8972 42.3329C92.0705 42.5062 92.2976 42.5929 92.5247 42.5929C92.7518 42.5929 92.9789 42.5062 93.1522 42.3329L99.4281 36.0574C101.504 33.9812 101.504 30.6027 99.4281 28.5265C97.5474 26.6451 94.6065 26.4864 92.5247 28.0141C90.4428 26.4864 87.502 26.6451 85.6213 28.5265C83.5455 30.6027 83.5455 33.9812 85.6213 36.0574L91.8972 42.3329ZM86.8763 29.7815C88.2604 28.3974 90.513 28.3974 91.8972 29.7815C92.2439 30.1282 92.8055 30.1282 93.1522 29.7815C94.5363 28.3974 96.7889 28.3974 98.1731 29.7815C99.5568 31.1657 99.5568 33.4183 98.1731 34.8024L92.5247 40.4504L86.8763 34.8024C85.4926 33.4183 85.4926 31.1657 86.8763 29.7815Z" fill="#818181"/>
<path d="M106.034 52.0763C106.991 51.2617 107.613 50.0635 107.613 48.711C107.613 46.2643 105.622 44.2734 103.175 44.2734C100.728 44.2734 98.7376 46.2643 98.7376 48.711C98.7376 50.0635 99.3588 51.2617 100.316 52.0763C99.2941 52.6089 98.4413 53.4178 97.8501 54.4029C97.2588 53.4178 96.4061 52.6089 95.3839 52.0763C96.3413 51.2617 96.9625 50.0635 96.9625 48.711C96.9625 46.2643 94.9717 44.2734 92.5249 44.2734C90.0782 44.2734 88.0874 46.2643 88.0874 48.711C88.0874 50.0635 88.7086 51.2617 89.666 52.0763C88.6438 52.6089 87.7911 53.4178 87.1998 54.4029C86.6086 53.4178 85.7558 52.6089 84.7337 52.0763C85.6911 51.2617 86.3123 50.0635 86.3123 48.711C86.3123 46.2643 84.3215 44.2734 81.8747 44.2734C79.428 44.2734 77.4371 46.2643 77.4371 48.711C77.4371 50.0635 78.0584 51.2617 79.0158 52.0763C77.026 53.1131 75.6621 55.1919 75.6621 57.5862V59.3612C75.6621 59.8518 76.0595 60.2488 76.5496 60.2488H87.1998H97.8501H108.5C108.99 60.2488 109.388 59.8518 109.388 59.3612V57.5862C109.388 55.1919 108.024 53.1131 106.034 52.0763ZM81.8747 46.0485C83.343 46.0485 84.5373 47.2428 84.5373 48.711C84.5373 50.1792 83.343 51.3736 81.8747 51.3736C80.4065 51.3736 79.2122 50.1792 79.2122 48.711C79.2122 47.2428 80.4065 46.0485 81.8747 46.0485ZM86.3123 58.4737H77.4371V57.5862C77.4371 55.1395 79.428 53.1486 81.8747 53.1486C84.3215 53.1486 86.3123 55.1395 86.3123 57.5862V58.4737ZM92.5249 46.0485C93.9932 46.0485 95.1875 47.2428 95.1875 48.711C95.1875 50.1792 93.9932 51.3736 92.5249 51.3736C91.0567 51.3736 89.8624 50.1792 89.8624 48.711C89.8624 47.2428 91.0567 46.0485 92.5249 46.0485ZM96.9625 58.4737H88.0874V57.5862C88.0874 55.1395 90.0782 53.1486 92.5249 53.1486C94.9717 53.1486 96.9625 55.1395 96.9625 57.5862V58.4737ZM103.175 46.0485C104.643 46.0485 105.838 47.2428 105.838 48.711C105.838 50.1792 104.643 51.3736 103.175 51.3736C101.707 51.3736 100.513 50.1792 100.513 48.711C100.513 47.2428 101.707 46.0485 103.175 46.0485ZM107.613 58.4737H98.7376V57.5862C98.7376 55.1395 100.728 53.1486 103.175 53.1486C105.622 53.1486 107.613 55.1395 107.613 57.5862V58.4737Z" fill="#818181"/>
<path d="M35.5878 127.975H34.3549C34.282 127.62 34.1544 127.308 33.9721 127.04C33.7931 126.771 33.5743 126.546 33.3158 126.364C33.0606 126.178 32.7772 126.039 32.4657 125.946C32.1541 125.853 31.8293 125.807 31.4913 125.807C30.8748 125.807 30.3163 125.963 29.8158 126.274C29.3187 126.586 28.9226 127.045 28.6276 127.651C28.3359 128.258 28.1901 129.002 28.1901 129.884C28.1901 130.765 28.3359 131.509 28.6276 132.116C28.9226 132.722 29.3187 133.182 29.8158 133.493C30.3163 133.805 30.8748 133.96 31.4913 133.96C31.8293 133.96 32.1541 133.914 32.4657 133.821C32.7772 133.728 33.0606 133.591 33.3158 133.409C33.5743 133.223 33.7931 132.996 33.9721 132.727C34.1544 132.456 34.282 132.144 34.3549 131.793H35.5878C35.495 132.313 35.326 132.779 35.0807 133.19C34.8355 133.601 34.5306 133.95 34.166 134.239C33.8014 134.524 33.3921 134.741 32.938 134.89C32.4872 135.039 32.005 135.114 31.4913 135.114C30.6229 135.114 29.8506 134.902 29.1745 134.477C28.4984 134.053 27.9664 133.45 27.5786 132.668C27.1908 131.886 26.9969 130.958 26.9969 129.884C26.9969 128.81 27.1908 127.882 27.5786 127.1C27.9664 126.317 28.4984 125.714 29.1745 125.29C29.8506 124.866 30.6229 124.654 31.4913 124.654C32.005 124.654 32.4872 124.728 32.938 124.877C33.3921 125.026 33.8014 125.245 34.166 125.534C34.5306 125.819 34.8355 126.167 35.0807 126.578C35.326 126.985 35.495 127.451 35.5878 127.975ZM40.5234 135.134C39.834 135.134 39.2291 134.97 38.7088 134.642C38.1917 134.313 37.7874 133.854 37.4957 133.264C37.2073 132.674 37.0632 131.985 37.0632 131.196C37.0632 130.401 37.2073 129.706 37.4957 129.113C37.7874 128.52 38.1917 128.059 38.7088 127.731C39.2291 127.403 39.834 127.239 40.5234 127.239C41.2128 127.239 41.816 127.403 42.333 127.731C42.8534 128.059 43.2578 128.52 43.5461 129.113C43.8378 129.706 43.9836 130.401 43.9836 131.196C43.9836 131.985 43.8378 132.674 43.5461 133.264C43.2578 133.854 42.8534 134.313 42.333 134.642C41.816 134.97 41.2128 135.134 40.5234 135.134ZM40.5234 134.08C41.0471 134.08 41.4779 133.945 41.816 133.677C42.1541 133.409 42.4043 133.056 42.5667 132.618C42.7291 132.181 42.8103 131.707 42.8103 131.196C42.8103 130.686 42.7291 130.21 42.5667 129.769C42.4043 129.329 42.1541 128.972 41.816 128.7C41.4779 128.429 41.0471 128.293 40.5234 128.293C39.9997 128.293 39.5688 128.429 39.2308 128.7C38.8927 128.972 38.6425 129.329 38.4801 129.769C38.3177 130.21 38.2365 130.686 38.2365 131.196C38.2365 131.707 38.3177 132.181 38.4801 132.618C38.6425 133.056 38.8927 133.409 39.2308 133.677C39.5688 133.945 39.9997 134.08 40.5234 134.08ZM45.7746 134.975V127.338H46.9082V128.531H47.0076C47.1667 128.124 47.4235 127.807 47.7782 127.582C48.1328 127.353 48.5587 127.239 49.0559 127.239C49.5597 127.239 49.9789 127.353 50.3137 127.582C50.6518 127.807 50.9153 128.124 51.1042 128.531H51.1837C51.3793 128.137 51.6726 127.824 52.0637 127.592C52.4548 127.356 52.9238 127.239 53.4707 127.239C54.1534 127.239 54.7119 127.453 55.1461 127.88C55.5803 128.304 55.7974 128.966 55.7974 129.864V134.975H54.6241V129.864C54.6241 129.3 54.4699 128.898 54.1617 128.656C53.8535 128.414 53.4905 128.293 53.0729 128.293C52.536 128.293 52.12 128.455 51.8251 128.78C51.5301 129.102 51.3826 129.509 51.3826 130.003V134.975H50.1894V129.744C50.1894 129.31 50.0485 128.961 49.7668 128.695C49.4851 128.427 49.1222 128.293 48.678 128.293C48.3731 128.293 48.0881 128.374 47.8229 128.536C47.5611 128.699 47.349 128.924 47.1866 129.213C47.0275 129.498 46.9479 129.827 46.9479 130.202V134.975H45.7746ZM57.9426 134.975V127.338H59.0761V128.531H59.1756C59.3346 128.124 59.5915 127.807 59.9462 127.582C60.3008 127.353 60.7267 127.239 61.2239 127.239C61.7276 127.239 62.1469 127.353 62.4817 127.582C62.8197 127.807 63.0832 128.124 63.2721 128.531H63.3517C63.5472 128.137 63.8406 127.824 64.2317 127.592C64.6228 127.356 65.0917 127.239 65.6386 127.239C66.3214 127.239 66.8799 127.453 67.314 127.88C67.7482 128.304 67.9653 128.966 67.9653 129.864V134.975H66.792V129.864C66.792 129.3 66.6379 128.898 66.3297 128.656C66.0214 128.414 65.6585 128.293 65.2409 128.293C64.704 128.293 64.288 128.455 63.993 128.78C63.698 129.102 63.5506 129.509 63.5506 130.003V134.975H62.3574V129.744C62.3574 129.31 62.2165 128.961 61.9348 128.695C61.6531 128.427 61.2901 128.293 60.846 128.293C60.5411 128.293 60.256 128.374 59.9909 128.536C59.7291 128.699 59.5169 128.924 59.3545 129.213C59.1954 129.498 59.1159 129.827 59.1159 130.202V134.975H57.9426ZM74.9231 131.852V127.338H76.0964V134.975H74.9231V133.682H74.8435C74.6645 134.07 74.3861 134.4 74.0083 134.671C73.6305 134.94 73.1532 135.074 72.5765 135.074C72.0992 135.074 71.675 134.97 71.3038 134.761C70.9325 134.549 70.6409 134.231 70.4288 133.806C70.2166 133.379 70.1106 132.84 70.1106 132.191V127.338H71.2839V132.111C71.2839 132.668 71.4396 133.112 71.7512 133.443C72.0661 133.775 72.4671 133.941 72.9543 133.941C73.246 133.941 73.5426 133.866 73.8442 133.717C74.1492 133.568 74.4044 133.339 74.6099 133.031C74.8187 132.722 74.9231 132.33 74.9231 131.852ZM79.4186 130.381V134.975H78.2453V127.338H79.3789V128.531H79.4783C79.6573 128.144 79.929 127.832 80.2936 127.597C80.6582 127.358 81.1289 127.239 81.7056 127.239C82.2226 127.239 82.675 127.345 83.0628 127.557C83.4506 127.766 83.7522 128.084 83.9676 128.512C84.1831 128.936 84.2908 129.473 84.2908 130.122V134.975H83.1175V130.202C83.1175 129.602 82.9617 129.135 82.6502 128.8C82.3386 128.462 81.9111 128.293 81.3675 128.293C80.993 128.293 80.6582 128.374 80.3632 128.536C80.0716 128.699 79.8412 128.936 79.6722 129.247C79.5031 129.559 79.4186 129.937 79.4186 130.381ZM86.4348 134.975V127.338H87.6081V134.975H86.4348ZM87.0314 126.066C86.8027 126.066 86.6055 125.988 86.4398 125.832C86.2774 125.676 86.1962 125.489 86.1962 125.27C86.1962 125.051 86.2774 124.864 86.4398 124.708C86.6055 124.552 86.8027 124.475 87.0314 124.475C87.2601 124.475 87.4556 124.552 87.618 124.708C87.7837 124.864 87.8666 125.051 87.8666 125.27C87.8666 125.489 87.7837 125.676 87.618 125.832C87.4556 125.988 87.2601 126.066 87.0314 126.066ZM93.0781 127.338V128.333H89.1207V127.338H93.0781ZM90.2741 125.509H91.4474V132.787C91.4474 133.119 91.4955 133.367 91.5916 133.533C91.691 133.695 91.8169 133.805 91.9694 133.861C92.1252 133.914 92.2893 133.941 92.4616 133.941C92.5909 133.941 92.6969 133.934 92.7798 133.921C92.8626 133.904 92.9289 133.891 92.9786 133.881L93.2173 134.935C93.1377 134.965 93.0267 134.994 92.8842 135.024C92.7417 135.057 92.561 135.074 92.3423 135.074C92.0108 135.074 91.686 135.003 91.3678 134.86C91.053 134.718 90.7911 134.501 90.5823 134.209C90.3768 133.917 90.2741 133.549 90.2741 133.105V125.509ZM95.5987 137.838C95.3998 137.838 95.2225 137.822 95.0667 137.789C94.9109 137.759 94.8032 137.729 94.7436 137.699L95.0419 136.665C95.3269 136.738 95.5788 136.764 95.7975 136.744C96.0163 136.725 96.2102 136.627 96.3792 136.451C96.5516 136.279 96.709 135.999 96.8515 135.611L97.0703 135.014L94.2464 127.338H95.5191L97.6271 133.423H97.7066L99.8146 127.338H101.087L97.8458 136.088C97.7 136.483 97.5194 136.809 97.3039 137.068C97.0885 137.329 96.8383 137.523 96.5532 137.649C96.2715 137.775 95.9533 137.838 95.5987 137.838ZM106.733 134.975V124.793H112.838V125.887H107.966V129.327H112.38V130.421H107.966V134.975H106.733ZM117.037 135.154C116.554 135.154 116.114 135.062 115.72 134.88C115.326 134.695 115.012 134.428 114.78 134.08C114.548 133.728 114.432 133.304 114.432 132.807C114.432 132.369 114.518 132.015 114.691 131.743C114.863 131.468 115.094 131.253 115.382 131.097C115.67 130.941 115.988 130.825 116.336 130.749C116.688 130.669 117.041 130.606 117.395 130.56C117.859 130.5 118.236 130.455 118.524 130.426C118.816 130.392 119.028 130.338 119.16 130.262C119.296 130.185 119.364 130.053 119.364 129.864V129.824C119.364 129.334 119.23 128.952 118.961 128.681C118.696 128.409 118.294 128.273 117.753 128.273C117.193 128.273 116.754 128.396 116.436 128.641C116.118 128.886 115.894 129.148 115.765 129.426L114.651 129.029C114.85 128.565 115.115 128.203 115.447 127.945C115.781 127.683 116.146 127.501 116.54 127.398C116.938 127.292 117.329 127.239 117.714 127.239C117.959 127.239 118.241 127.269 118.559 127.328C118.88 127.385 119.19 127.502 119.488 127.681C119.79 127.86 120.04 128.13 120.239 128.492C120.438 128.853 120.537 129.337 120.537 129.943V134.975H119.364V133.941H119.304C119.225 134.106 119.092 134.284 118.907 134.472C118.721 134.661 118.474 134.822 118.166 134.955C117.858 135.087 117.482 135.154 117.037 135.154ZM117.216 134.1C117.68 134.1 118.072 134.008 118.39 133.826C118.711 133.644 118.953 133.409 119.116 133.12C119.281 132.832 119.364 132.529 119.364 132.21V131.137C119.314 131.196 119.205 131.251 119.036 131.301C118.87 131.347 118.678 131.388 118.459 131.425C118.244 131.458 118.033 131.488 117.828 131.514C117.626 131.538 117.462 131.557 117.336 131.574C117.031 131.614 116.746 131.678 116.481 131.768C116.219 131.854 116.007 131.985 115.844 132.161C115.685 132.333 115.606 132.568 115.606 132.867C115.606 133.274 115.756 133.583 116.058 133.791C116.363 133.997 116.749 134.1 117.216 134.1ZM128.65 127.338L125.826 134.975H124.633L121.809 127.338H123.082L125.19 133.423H125.269L127.377 127.338H128.65ZM133.027 135.134C132.338 135.134 131.733 134.97 131.213 134.642C130.696 134.313 130.291 133.854 130 133.264C129.711 132.674 129.567 131.985 129.567 131.196C129.567 130.401 129.711 129.706 130 129.113C130.291 128.52 130.696 128.059 131.213 127.731C131.733 127.403 132.338 127.239 133.027 127.239C133.717 127.239 134.32 127.403 134.837 127.731C135.357 128.059 135.762 128.52 136.05 129.113C136.342 129.706 136.488 130.401 136.488 131.196C136.488 131.985 136.342 132.674 136.05 133.264C135.762 133.854 135.357 134.313 134.837 134.642C134.32 134.97 133.717 135.134 133.027 135.134ZM133.027 134.08C133.551 134.08 133.982 133.945 134.32 133.677C134.658 133.409 134.908 133.056 135.071 132.618C135.233 132.181 135.314 131.707 135.314 131.196C135.314 130.686 135.233 130.21 135.071 129.769C134.908 129.329 134.658 128.972 134.32 128.7C133.982 128.429 133.551 128.293 133.027 128.293C132.504 128.293 132.073 128.429 131.735 128.7C131.397 128.972 131.146 129.329 130.984 129.769C130.822 130.21 130.74 130.686 130.74 131.196C130.74 131.707 130.822 132.181 130.984 132.618C131.146 133.056 131.397 133.409 131.735 133.677C132.073 133.945 132.504 134.08 133.027 134.08ZM138.279 134.975V127.338H139.412V128.492H139.492C139.631 128.114 139.883 127.807 140.247 127.572C140.612 127.337 141.023 127.219 141.48 127.219C141.566 127.219 141.674 127.221 141.803 127.224C141.933 127.227 142.03 127.232 142.097 127.239V128.432C142.057 128.422 141.966 128.407 141.823 128.387C141.684 128.364 141.537 128.352 141.381 128.352C141.01 128.352 140.678 128.43 140.386 128.586C140.098 128.739 139.869 128.951 139.7 129.222C139.535 129.491 139.452 129.798 139.452 130.142V134.975H138.279ZM143.488 134.975V127.338H144.661V134.975H143.488ZM144.084 126.066C143.855 126.066 143.658 125.988 143.493 125.832C143.33 125.676 143.249 125.489 143.249 125.27C143.249 125.051 143.33 124.864 143.493 124.708C143.658 124.552 143.855 124.475 144.084 124.475C144.313 124.475 144.508 124.552 144.671 124.708C144.836 124.864 144.919 125.051 144.919 125.27C144.919 125.489 144.836 125.676 144.671 125.832C144.508 125.988 144.313 126.066 144.084 126.066ZM150.131 127.338V128.333H146.173V127.338H150.131ZM147.327 125.509H148.5V132.787C148.5 133.119 148.548 133.367 148.644 133.533C148.744 133.695 148.87 133.805 149.022 133.861C149.178 133.914 149.342 133.941 149.514 133.941C149.644 133.941 149.75 133.934 149.833 133.921C149.915 133.904 149.982 133.891 150.031 133.881L150.27 134.935C150.19 134.965 150.079 134.994 149.937 135.024C149.794 135.057 149.614 135.074 149.395 135.074C149.064 135.074 148.739 135.003 148.421 134.86C148.106 134.718 147.844 134.501 147.635 134.209C147.43 133.917 147.327 133.549 147.327 133.105V125.509ZM155.015 135.134C154.28 135.134 153.645 134.971 153.111 134.646C152.581 134.318 152.172 133.861 151.883 133.274C151.598 132.684 151.456 131.998 151.456 131.216C151.456 130.434 151.598 129.744 151.883 129.148C152.172 128.548 152.573 128.081 153.086 127.746C153.603 127.408 154.207 127.239 154.896 127.239C155.294 127.239 155.687 127.305 156.074 127.438C156.462 127.57 156.815 127.786 157.133 128.084C157.451 128.379 157.705 128.77 157.894 129.257C158.083 129.744 158.177 130.344 158.177 131.057V131.554H152.291V130.54H156.984C156.984 130.109 156.898 129.725 156.726 129.387C156.557 129.048 156.315 128.782 156 128.586C155.688 128.391 155.32 128.293 154.896 128.293C154.429 128.293 154.024 128.409 153.683 128.641C153.345 128.869 153.085 129.168 152.902 129.536C152.72 129.904 152.629 130.298 152.629 130.719V131.395C152.629 131.972 152.728 132.461 152.927 132.862C153.13 133.259 153.41 133.563 153.768 133.771C154.125 133.977 154.541 134.08 155.015 134.08C155.324 134.08 155.602 134.037 155.851 133.95C156.103 133.861 156.32 133.728 156.502 133.553C156.684 133.374 156.825 133.152 156.924 132.887L158.058 133.205C157.939 133.589 157.738 133.927 157.456 134.219C157.175 134.507 156.827 134.733 156.412 134.895C155.998 135.054 155.532 135.134 155.015 135.134Z" fill="#C0C0C0"/>
<defs>
<linearGradient id="paint0_linear_310_434" x1="92.5247" y1="0" x2="92.5247" y2="100.891" gradientUnits="userSpaceOnUse">
<stop stop-color="#BDBDBD"/>
<stop offset="1" stop-color="#575757"/>
</linearGradient>
</defs>
</svg>
