<svg width="127" height="138" viewBox="0 0 127 138" fill="none" xmlns="http://www.w3.org/2000/svg">
<path d="M48.489 89.1835C47.7596 88.6307 47.0894 88.24 46.377 87.9835C45.6597 87.7344 44.9303 87.5977 44.1525 87.565C42.6067 87.4961 40.9229 87.7839 39.3141 88.1734C37.7006 88.5714 36.1692 89.0504 35.0213 89.4435C33.8806 89.8245 33.1356 90.1185 33.1356 90.1185C33.1356 90.1185 33.8637 90.5418 35.0358 91.0426C36.2067 91.541 37.83 92.1107 39.5984 92.4155C41.3535 92.7239 43.272 92.7614 44.9424 92.2812C46.6032 91.8131 48.0184 90.7946 48.489 89.1835ZM99.3439 14.8212C98.196 13.9672 96.6938 13.4567 95.1999 13.239C94.4633 13.1193 93.7205 13.0757 93.0311 13.0721C92.344 13.0697 91.7187 13.0963 91.1804 13.1495C90.0954 13.2596 89.4047 13.4084 89.4047 13.4084C89.4047 13.4084 89.5014 13.5233 89.6865 13.7168C89.8728 13.9128 90.157 14.1752 90.4776 14.5091C90.8066 14.8357 91.2227 15.1973 91.6703 15.588C92.1057 15.9812 92.6186 16.3803 93.1544 16.771C93.6842 17.169 94.2697 17.5403 94.8818 17.8645C95.4817 18.2008 96.1167 18.4826 96.7953 18.6689C98.1271 19.0596 99.5834 19.1213 101.133 18.4439C101.17 17.6794 101.014 16.9827 100.705 16.3719C100.375 15.7731 99.904 15.2578 99.3439 14.8212ZM104.838 17.6117C106.177 16.6077 106.793 15.1986 106.892 13.6261C106.934 12.8471 106.845 12.0282 106.673 11.2057C106.494 10.3868 106.207 9.58967 105.883 8.80585C105.555 8.02929 105.151 7.312 104.765 6.64914C104.379 5.98628 103.954 5.41414 103.603 4.92546C103.249 4.43195 102.923 4.05214 102.688 3.78724C102.462 3.52718 102.327 3.38082 102.327 3.38082C102.327 3.38082 102.197 4.1598 102.075 5.31859C102.007 5.90888 101.936 6.59835 101.88 7.33378C101.855 7.70513 101.831 8.08372 101.818 8.472C101.795 8.86512 101.775 9.26671 101.77 9.67193C101.751 11.271 101.821 12.9269 102.249 14.3168C102.454 15.0244 102.748 15.6618 103.178 16.2122C103.587 16.7759 104.123 17.25 104.838 17.6117ZM105.888 25.9059C105.728 25.5974 105.547 25.2987 105.305 25.0314C104.839 24.4858 104.277 23.9972 103.657 23.575C103.039 23.1565 102.322 22.8275 101.635 22.5481C101.287 22.409 100.936 22.2844 100.597 22.1767C100.256 22.0691 99.8979 21.982 99.5617 21.9082C98.894 21.7534 98.2722 21.6542 97.7436 21.5876C97.2114 21.5223 96.7772 21.4897 96.459 21.48C96.1373 21.4631 95.9631 21.4655 95.9631 21.4655C95.9631 21.4655 96.0357 21.5949 96.182 21.8187C96.3163 22.0461 96.499 22.3739 96.7591 22.7549C96.8825 22.946 97.0227 23.1504 97.18 23.3645C97.2622 23.4722 97.3445 23.5835 97.4291 23.6935C97.5017 23.8109 97.584 23.9258 97.6686 24.0468C98.0049 24.5197 98.4005 25.0156 98.8444 25.5043C99.2557 26.0075 99.7238 26.4974 100.246 26.9461C100.378 27.0586 100.517 27.1699 100.647 27.2752C100.777 27.3876 100.908 27.4893 101.047 27.5969C101.317 27.8013 101.605 27.9924 101.907 28.1618C102.502 28.5077 103.187 28.7726 103.885 28.9311C104.583 29.0859 105.345 29.1234 106.176 28.9831C106.288 28.6154 106.361 28.2513 106.375 27.8921C106.375 27.5437 106.331 27.2002 106.248 26.8687C106.167 26.5361 106.04 26.2143 105.888 25.9059ZM110.864 14.1111C110.864 14.1111 110.591 14.8381 110.2 15.9739C109.809 17.1121 109.369 18.6012 108.96 20.1881C108.761 20.9792 108.626 21.7667 108.503 22.5589C108.383 23.3549 108.326 24.1254 108.383 24.8524C108.422 25.214 108.447 25.5769 108.517 25.9253C108.588 26.2748 108.689 26.6099 108.831 26.9316C108.97 27.2522 109.145 27.557 109.364 27.8521C109.569 28.1461 109.817 28.4328 110.108 28.7001C110.888 28.3711 111.51 27.9029 112.005 27.3223C112.51 26.7417 112.822 26.0643 113.053 25.3035C113.171 24.9225 113.253 24.527 113.321 24.1157C113.375 23.7069 113.422 23.2799 113.413 22.8638C113.408 22.0195 113.321 21.1474 113.184 20.3006C112.85 18.6302 112.313 17.0408 111.782 15.9352C111.533 15.3727 111.304 14.9131 111.142 14.5926C110.973 14.2817 110.864 14.1111 110.864 14.1111ZM108.58 36.4403C108.282 35.7871 107.833 35.1702 107.338 34.6065C107.087 34.3247 106.82 34.0513 106.548 33.7997C106.272 33.5433 105.951 33.3098 105.651 33.0873C104.409 32.2055 103.16 31.5728 102.118 31.1979C101.108 30.8168 100.419 30.6524 100.419 30.6524C100.419 30.6524 100.564 31.2318 100.893 32.0761C101.037 32.5055 101.2 33.0123 101.431 33.5481C101.536 33.8142 101.663 34.0936 101.797 34.3767C101.931 34.6609 102.044 34.9573 102.193 35.25C102.465 35.8379 102.811 36.4282 103.206 36.9991C103.559 37.5737 103.985 38.124 104.486 38.6175C105.514 39.5888 106.721 40.3606 108.399 40.5178C108.603 40.1864 108.762 39.8501 108.872 39.5114C108.984 39.1655 109.007 38.8207 109.017 38.4772C109.017 37.7853 108.853 37.0971 108.58 36.4403ZM111.753 36.6519C111.584 37.3813 111.539 38.0914 111.647 38.7917C111.696 39.1425 111.809 39.4836 111.93 39.8259C112.047 40.1695 112.215 40.5106 112.428 40.8468C114.084 40.6122 115.363 39.6638 116.149 38.3018C116.56 37.622 116.872 36.8418 117.127 36.0133C117.346 35.1895 117.456 34.3223 117.531 33.455C117.562 33.022 117.591 32.5865 117.594 32.1656C117.58 31.747 117.557 31.3382 117.531 30.9451C117.47 30.1528 117.385 29.4186 117.294 28.7956C117.043 27.5679 116.804 26.7756 116.804 26.7756C116.804 26.7756 116.351 27.4264 115.719 28.44C115.411 28.9383 115.049 29.5299 114.649 30.183C114.259 30.835 113.859 31.5329 113.488 32.2526C113.135 32.9651 112.744 33.7102 112.437 34.4468C112.12 35.1908 111.897 35.9274 111.753 36.6519ZM108.772 50.5212C108.863 50.1825 108.923 49.8365 108.938 49.4882C108.948 49.135 108.899 48.7757 108.833 48.4177C108.697 47.7028 108.442 46.9903 108.111 46.313C108.029 46.1436 107.939 45.9743 107.852 45.8098C107.753 45.6453 107.643 45.4832 107.534 45.3199C107.315 44.9994 107.078 44.6873 106.841 44.3958C106.363 43.8031 105.855 43.2708 105.362 42.8088C105.123 42.5753 104.868 42.3612 104.618 42.1641C104.371 41.9717 104.132 41.7903 103.915 41.633C103.031 41.0004 102.413 40.6545 102.413 40.6545C102.413 40.6545 102.403 41.2593 102.5 42.1762C102.54 42.406 102.549 42.6552 102.564 42.9213C102.584 43.1886 102.609 43.4716 102.646 43.7656C102.713 44.3534 102.846 44.9909 102.97 45.6477C103.083 46.3033 103.247 46.9807 103.483 47.6447C103.598 47.9737 103.735 48.3052 103.888 48.6281C104.024 48.9487 104.173 49.2656 104.349 49.5668C105.045 50.78 106.107 51.836 107.699 52.3839C108.242 51.8299 108.585 51.1937 108.772 50.5212ZM114.788 45.1663C114.512 45.465 114.247 45.7759 113.993 46.0916C113.739 46.4013 113.485 46.7218 113.229 47.0387C112.738 47.6835 112.312 48.3415 112.001 49.0164C111.843 49.3503 111.725 49.6962 111.625 50.0373C111.508 50.3809 111.428 50.7292 111.389 51.0824C111.312 51.7876 111.389 52.5194 111.678 53.279C113.344 53.4363 114.736 52.7964 115.886 51.686C116.169 51.409 116.444 51.1006 116.698 50.774C116.947 50.4425 117.156 50.0845 117.365 49.7132C117.773 48.9668 118.124 48.1637 118.418 47.3472C118.576 46.9444 118.677 46.5283 118.776 46.117C118.872 45.7118 118.956 45.3126 119.03 44.9219C119.175 44.1442 119.302 43.4148 119.347 42.7894C119.42 41.5339 119.398 40.7029 119.398 40.7029C119.398 40.7029 118.785 41.2206 117.923 42.0383C117.085 42.8608 115.877 43.9615 114.788 45.1663ZM104.444 63.9876C105.083 63.54 105.547 62.9727 105.859 62.3413C106.017 62.028 106.132 61.6942 106.222 61.3543C106.304 61.0083 106.373 60.6576 106.367 60.2862C106.377 58.8093 105.951 57.2562 105.296 55.876C104.598 54.4886 103.744 53.2936 103.067 52.4565C102.724 52.0356 102.435 51.7066 102.202 51.478C101.978 51.2493 101.845 51.1247 101.845 51.1247C101.845 51.1247 101.812 51.2784 101.77 51.5481C101.709 51.8191 101.622 52.2037 101.542 52.6791C101.365 53.6226 101.283 54.9156 101.192 56.2946C101.166 56.9864 101.192 57.7062 101.288 58.4259C101.313 58.6097 101.342 58.7887 101.365 58.9641C101.387 59.1407 101.417 59.3173 101.445 59.4939C101.508 59.8496 101.596 60.1943 101.709 60.5354C102.153 61.8913 102.982 63.1493 104.444 63.9876ZM118.37 55.3148C118.457 54.9664 118.489 54.7644 118.489 54.7644C118.489 54.7644 117.812 55.1249 116.737 55.7031C115.686 56.2837 114.308 57.0893 113.005 58.0267C111.653 58.9484 110.319 59.9923 109.456 61.1934C109.244 61.497 109.028 61.797 108.849 62.1127C108.672 62.4296 108.525 62.755 108.423 63.0961C108.209 63.7759 108.151 64.5113 108.286 65.3169C109.893 65.785 111.377 65.4246 112.708 64.5718C113.041 64.3601 113.362 64.1146 113.679 63.8485C113.985 63.5812 114.297 63.2957 114.563 62.974C115.104 62.3389 115.602 61.6313 116.047 60.9092C116.971 59.477 117.531 57.9082 117.932 56.7385C118.127 56.153 118.275 55.6583 118.37 55.3148ZM101.416 67.0309C100.993 65.5298 100.378 64.1799 99.875 63.211C99.621 62.7248 99.3947 62.3389 99.2145 62.0655C99.0355 61.7934 98.9315 61.6397 98.9315 61.6397C98.9315 61.6397 98.8698 61.7922 98.7718 62.0559C98.6594 62.322 98.4972 62.703 98.3255 63.1663C98.1513 63.6344 97.9602 64.1872 97.7921 64.8041C97.6252 65.4016 97.4388 66.1685 97.3905 66.6221C97.2489 67.6902 97.0748 68.9663 97.151 70.3126C97.238 71.6576 97.5719 73.0849 98.6351 74.3828C100.166 74.0284 101.166 72.8878 101.601 71.4907C101.699 71.1411 101.789 70.7807 101.826 70.4081C101.86 70.0344 101.873 69.663 101.85 69.2868C101.818 68.9106 101.766 68.5393 101.691 68.1788C101.611 67.7893 101.518 67.4035 101.416 67.0309ZM111.148 73.7708C111.315 73.5712 111.477 73.3656 111.638 73.1612L111.871 72.8515L112.057 72.5999C112.291 72.2733 112.515 71.9467 112.723 71.6286C113.142 70.9912 113.505 70.3803 113.802 69.8553C114.094 69.3268 114.321 68.884 114.475 68.5695C114.622 68.249 114.694 68.0591 114.694 68.0591C114.694 68.0591 113.953 68.2732 112.804 68.6336C111.671 68.9941 110.177 69.5227 108.727 70.2049C108.358 70.3767 108 70.5545 107.643 70.7529C107.262 70.9694 106.883 71.1907 106.525 71.4109C106.164 71.6322 105.803 71.8463 105.469 72.0786C105.133 72.3047 104.798 72.5261 104.499 72.7729C103.276 73.7272 102.368 74.8231 101.993 76.4392C103.338 77.448 104.914 77.6197 106.54 77.0972C108.155 76.5867 109.813 75.3687 111.148 73.7708ZM89.2583 82.0468C90.8441 82.1315 92.1275 81.3671 93.048 80.2034C93.9552 79.0362 94.508 77.4891 94.7245 75.9795C94.9483 74.4615 94.8757 73.0136 94.6991 71.9576C94.6193 71.4314 94.5249 71.0032 94.4451 70.702C94.3677 70.4033 94.3108 70.2364 94.3108 70.2364C94.3108 70.2364 94.2141 70.3343 94.0447 70.5206C93.8681 70.7008 93.6238 70.9657 93.3395 71.302C92.7492 71.9673 91.9497 72.889 91.1562 73.9716C90.3748 75.0578 89.5994 76.3 89.1543 77.6572C88.7249 79.0204 88.6124 80.4973 89.2583 82.0468ZM100.37 81.2521C98.6992 81.309 96.9937 81.4239 95.5434 81.8702C94.0871 82.3214 92.869 83.098 92.0743 84.5253C93.0685 85.8752 94.5043 86.5006 96.1155 86.5731C97.7315 86.653 99.5193 86.1837 101.156 85.4398C102.792 84.6995 104.277 83.6895 105.323 82.8222C105.849 82.3964 106.269 82.0033 106.558 81.7324C106.846 81.4505 106.998 81.2836 106.998 81.2836C106.998 81.2836 106.199 81.2691 104.929 81.2461C103.686 81.24 102.034 81.2038 100.37 81.2521ZM79.8102 87.4126C80.5202 87.2783 81.1819 86.9397 81.783 86.4982C82.9757 85.597 83.889 84.2241 84.518 82.8174C85.1482 81.4082 85.4892 79.9603 85.6755 78.8801C85.765 78.3382 85.8147 77.8871 85.8473 77.5726C85.8751 77.2593 85.8848 77.0766 85.8848 77.0766C85.8848 77.0766 85.3247 77.3754 84.5082 77.8883C83.6869 78.4035 82.6031 79.1232 81.5375 79.9869C80.4815 80.8517 79.4498 81.8557 78.7252 83.0181C78.0031 84.1854 77.547 85.5184 77.5894 87.2046C78.3272 87.5166 79.0929 87.5541 79.8102 87.4126ZM88.4854 93.2005C90.249 92.8969 91.8747 92.3308 93.048 91.8276C94.214 91.3268 94.9434 90.9083 94.9434 90.9083C94.9434 90.9083 94.1995 90.6096 93.054 90.2285C91.9085 89.8378 90.3797 89.354 88.7649 88.9585C87.1513 88.5702 85.4723 88.2787 83.9265 88.3488C83.1499 88.3827 82.4145 88.5158 81.702 88.7698C80.986 89.0238 80.3206 89.4169 79.5912 89.9649C80.0593 91.5785 81.4758 92.5994 83.1366 93.0675C84.8058 93.5489 86.723 93.5114 88.4854 93.2005ZM31.9501 79.1729C36.3458 82.821 41.7068 85.3164 46.9673 87.4404C51.271 89.181 56.794 92.0224 62.4174 94.6726C57.3637 96.2463 52.3754 97.5321 48.3643 98.2046C47.8369 98.2893 50.5344 101.039 51.0436 100.884C55.7006 99.4819 60.4252 97.7813 65.0846 95.9028C70.1745 98.2143 75.2004 100.197 79.3372 100.889C79.8598 100.976 81.4794 98.2058 80.9581 98.1187C77.0366 97.4619 72.4813 96.2959 67.7396 94.8093C75.55 91.5289 83.07 87.8166 89.5728 84.2797C96.6308 80.4344 101.93 74.9755 105.414 67.7192C108.642 60.9999 110.92 53.5693 111.256 46.1061C111.719 35.7702 108.248 25.6325 102.864 16.9186C101.288 14.3688 99.5242 11.8238 97.5695 9.46024C97.7437 8.80585 97.7642 8.16839 97.6517 7.56722C97.5199 6.85477 97.2429 6.17014 96.8171 5.55929C95.9982 4.30494 94.6713 3.29856 93.3153 2.54619C91.9485 1.79866 90.5272 1.32814 89.4676 1.07412C88.9342 0.942275 88.4939 0.872125 88.1879 0.82737C88.0355 0.808017 87.9132 0.794703 87.8346 0.792283C87.762 0.785026 87.7222 0.78503 87.7222 0.78503C87.7222 0.78503 87.7367 0.822514 87.7669 0.892671C87.8068 0.961618 87.854 1.06928 87.9217 1.20354C88.0608 1.47933 88.2604 1.86398 88.5144 2.33451C89.02 3.26832 89.7095 4.49848 90.5224 5.6984C90.9228 6.30199 91.3836 6.87655 91.8541 7.4245C92.0888 7.69182 92.3428 7.94945 92.6065 8.18411C92.8605 8.42845 93.129 8.65223 93.4133 8.84939C93.9842 9.23525 94.5842 9.55459 95.2591 9.72636C95.7696 9.85094 96.3091 9.90659 96.8872 9.87272C100.641 14.3107 103.712 19.466 106.052 24.6407C109.028 31.2305 110.615 38.4119 110.444 45.6489C110.263 53.5379 107.631 61.5454 104.094 68.5526C101.34 74.0043 97.33 78.4519 92.2025 81.771C87.6157 84.7346 82.585 86.9578 77.5845 89.1206C73.8408 90.7438 69.3931 92.407 64.8838 93.8864C55.2263 90.6616 45.1323 86.2962 38.1372 82.3468C34.4794 80.2869 31.1724 77.7564 28.4338 74.5619C25.699 71.3697 23.7249 67.5813 22.1415 63.7118C19.1381 56.3708 17.233 48.7745 17.6987 40.8009C18.2442 31.5015 21.8972 22.6073 26.9872 14.8962C28.2923 12.9209 29.7088 10.9493 31.2462 9.09374C31.8014 9.12156 32.3215 9.0635 32.8198 8.94254C33.4923 8.77078 34.0899 8.45265 34.6657 8.06558C34.9427 7.86842 35.2161 7.64464 35.4701 7.40272C35.735 7.16806 35.9878 6.91163 36.2225 6.64068C36.7003 6.09274 37.149 5.52181 37.5554 4.91459C38.3695 3.71709 39.0565 2.48209 39.5585 1.5507C39.8101 1.08258 40.0157 0.689471 40.1488 0.417312C40.2189 0.283047 40.271 0.176599 40.3085 0.104023C40.3351 0.0374957 40.3483 0 40.3483 0C40.3483 0 40.3132 -1.32902e-06 40.2383 0.00241786C40.1584 0.00725624 40.0411 0.0241963 39.8899 0.0423403C39.5815 0.0846761 39.14 0.159665 38.6102 0.289091C37.5494 0.543106 36.1293 1.01363 34.76 1.75875C33.4028 2.51353 32.0783 3.5187 31.257 4.77426C30.8337 5.38874 30.5494 6.07216 30.4273 6.77978C30.3099 7.37006 30.3305 7.99543 30.495 8.64015C26.9013 12.9088 23.9305 17.8246 21.6263 22.7476C18.7849 28.8319 17.0685 35.4157 16.8072 42.1375C16.5133 49.8595 18.6144 57.2586 21.5162 64.3396C23.8507 70.038 27.1831 75.2175 31.9501 79.1729ZM34.9233 15.9848C35.4616 15.5941 35.9745 15.1998 36.4123 14.8018C36.8635 14.4111 37.2736 14.0494 37.5977 13.7216C37.9243 13.3926 38.2061 13.1265 38.3924 12.9318C38.5787 12.7407 38.6767 12.627 38.6767 12.627C38.6767 12.627 37.9824 12.4721 36.901 12.3657C36.3603 12.3137 35.7362 12.2859 35.0479 12.2907C34.3585 12.2955 33.6158 12.3379 32.8815 12.4576C31.3877 12.6766 29.8842 13.1846 28.7351 14.0349C28.1774 14.474 27.7069 14.9893 27.3779 15.5868C27.0694 16.1977 26.9098 16.8944 26.9472 17.6589C28.4919 18.3314 29.9531 18.2733 31.2837 17.8851C31.9635 17.694 32.6057 17.417 33.2008 17.0807C33.8105 16.7565 34.3959 16.3864 34.9233 15.9848ZM23.241 16.8315C23.9583 16.4698 24.4881 15.9921 24.897 15.4296C25.3312 14.8816 25.6288 14.2418 25.8284 13.5317C26.2614 12.1468 26.3292 10.4884 26.3134 8.88931C26.3086 8.4841 26.2892 8.08251 26.2663 7.68697C26.2517 7.30111 26.2264 6.92009 26.1997 6.55359C26.1441 5.81331 26.0703 5.12505 26.005 4.53476C25.8852 3.37113 25.7534 2.597 25.7534 2.597C25.7534 2.597 25.6191 2.7482 25.3869 3.00584C25.1583 3.26712 24.8341 3.64813 24.4784 4.14165C24.1216 4.63274 23.7019 5.20005 23.31 5.86533C22.929 6.52939 22.5238 7.24306 22.1996 8.02204C21.8803 8.80465 21.5863 9.60177 21.4097 10.4231C21.2307 11.2432 21.1484 12.0621 21.1859 12.8386C21.2863 14.416 21.9068 15.8227 23.241 16.8315ZM31.9018 21.0373C32.0421 20.8111 32.1183 20.6816 32.1183 20.6816C32.1183 20.6816 31.9368 20.6817 31.6248 20.6913C31.3042 20.7034 30.8675 20.7361 30.3365 20.805C29.8067 20.8704 29.1886 20.972 28.5137 21.1244C28.1822 21.203 27.8242 21.284 27.4855 21.3929C27.1468 21.5006 26.7985 21.6227 26.4489 21.7618C25.7594 22.0424 25.0445 22.3787 24.4216 22.79C23.8047 23.2133 23.2386 23.6984 22.7741 24.2476C22.5346 24.5161 22.3532 24.8148 22.196 25.1245C22.0436 25.4305 21.9214 25.7511 21.8319 26.0837C21.7496 26.4163 21.7049 26.7587 21.7049 27.1095C21.7218 27.4663 21.792 27.8316 21.9093 28.2005C22.7294 28.3372 23.4999 28.2997 24.2003 28.1449C24.8946 27.9864 25.5744 27.7263 26.1743 27.3828C26.478 27.2111 26.7598 27.0187 27.0344 26.8119C27.1759 26.7103 27.3029 26.6002 27.4299 26.4913C27.5653 26.3861 27.6996 26.2748 27.829 26.1623C28.3564 25.7124 28.8222 25.2188 29.2358 24.7181C29.6761 24.233 30.0777 23.7347 30.414 23.2605C30.4962 23.1456 30.5736 23.0259 30.6535 22.9122C30.7406 22.7972 30.818 22.6884 30.9002 22.5795C31.0526 22.3654 31.199 22.1586 31.3212 21.9699C31.574 21.5864 31.7651 21.2598 31.9018 21.0373ZM18.7087 27.0659C18.9325 26.7768 19.1091 26.4684 19.2506 26.1454C19.3897 25.8237 19.4925 25.4898 19.5603 25.139C19.6304 24.7943 19.657 24.4302 19.6969 24.0673C19.7477 23.3404 19.6969 22.5686 19.5735 21.7739C19.4538 20.9816 19.3196 20.1954 19.1127 19.4007C18.7075 17.8173 18.2684 16.3283 17.8777 15.1901C17.4846 14.0543 17.2148 13.3273 17.2148 13.3273C17.2148 13.3273 17.1072 13.4967 16.9378 13.8124C16.7709 14.1293 16.5448 14.5853 16.2956 15.1478C15.7585 16.263 15.2299 17.8512 14.8936 19.518C14.7545 20.3672 14.6662 21.2369 14.6662 22.0799C14.6565 22.4985 14.6989 22.9242 14.7654 23.3331C14.8271 23.7443 14.9081 24.1399 15.0218 24.5185C15.2517 25.2805 15.5698 25.9555 16.073 26.5373C16.5689 27.1203 17.1943 27.5884 17.966 27.9175C18.2636 27.6477 18.5079 27.3635 18.7087 27.0659ZM23.593 37.8277C24.0962 37.339 24.5196 36.7874 24.8728 36.2116C25.2623 35.6419 25.6131 35.0541 25.8889 34.4614C26.034 34.1699 26.1429 33.8759 26.2832 33.5941C26.4174 33.3098 26.542 33.0316 26.6509 32.7631C26.8783 32.2248 27.0355 31.7216 27.1867 31.2934C27.5158 30.4419 27.6549 29.8673 27.6549 29.8673C27.6549 29.8673 26.9727 30.0343 25.9566 30.4153C24.9188 30.7866 23.6704 31.4192 22.4306 32.301C22.127 32.5224 21.8077 32.757 21.5319 33.0159C21.2561 33.2675 20.9888 33.536 20.7396 33.8179C20.2485 34.3852 19.7974 35.0021 19.4998 35.6552C19.2204 36.3108 19.0631 36.9979 19.0631 37.6898C19.0655 38.0333 19.0933 38.3792 19.2022 38.7191C19.3195 39.0627 19.4696 39.4013 19.6824 39.7304C21.3626 39.5779 22.5661 38.8038 23.593 37.8277ZM14.5925 31.4676C14.2199 30.7503 13.8183 30.0512 13.4276 29.4004C13.0236 28.7436 12.6607 28.1533 12.3571 27.655C11.7293 26.6486 11.2733 25.9894 11.2733 25.9894C11.2733 25.9894 11.0362 26.7817 10.7871 28.0118C10.6927 28.6384 10.6056 29.369 10.5476 30.1588C10.5173 30.5556 10.4931 30.9656 10.4847 31.3842C10.4847 31.8051 10.5125 32.2381 10.5476 32.6712C10.625 33.5336 10.7351 34.4069 10.954 35.2295C11.2008 36.058 11.5201 36.8382 11.9301 37.5156C12.72 38.88 13.9961 39.8271 15.6509 40.0606C15.8674 39.7243 16.027 39.3856 16.1492 39.0421C16.2665 38.6974 16.3814 38.3551 16.4298 38.0091C16.5447 37.31 16.4915 36.5927 16.3222 35.8657C16.1831 35.1387 15.9593 34.4045 15.6472 33.6642C15.3339 32.9288 14.9481 32.1825 14.5925 31.4676ZM20.3792 51.6038C21.971 51.0534 23.0367 49.9962 23.7358 48.783C23.9124 48.4769 24.0624 48.1649 24.1942 47.8431C24.349 47.5214 24.4833 47.1912 24.6006 46.8597C24.8341 46.1969 25.001 45.5219 25.1111 44.8651C25.2381 44.2107 25.3723 43.5732 25.4364 42.9842C25.4739 42.6902 25.497 42.4072 25.5188 42.1399C25.5357 41.8738 25.5453 41.6222 25.578 41.3911C25.682 40.4767 25.6651 39.8743 25.6651 39.8743C25.6651 39.8743 25.0458 40.2154 24.1664 40.8505C23.9499 41.0053 23.7128 41.1867 23.4648 41.3815C23.2132 41.5786 22.9592 41.7939 22.7197 42.0262C22.2286 42.4895 21.7206 43.0241 21.2404 43.6107C21.0009 43.9071 20.7723 44.2155 20.5461 44.5349C20.4408 44.6945 20.3344 44.8615 20.2328 45.026C20.1384 45.1905 20.0502 45.3598 19.9691 45.5292C19.6401 46.2065 19.3837 46.9166 19.2446 47.6351C19.1829 47.9919 19.1344 48.3512 19.1429 48.7019C19.1623 49.0527 19.2155 49.4011 19.3075 49.7349C19.4962 50.4111 19.8397 51.0485 20.3792 51.6038ZM10.7169 48.9293C10.9214 49.2983 11.1354 49.6587 11.3822 49.9902C11.6362 50.3167 11.912 50.6203 12.1962 50.901C13.3466 52.015 14.7315 52.6561 16.4044 52.4976C16.6862 51.7332 16.7709 51.0026 16.6911 50.2986C16.6487 49.9454 16.5689 49.5982 16.4588 49.2571C16.3512 48.9112 16.235 48.5701 16.0778 48.2362C15.7694 47.5613 15.3412 46.8996 14.8501 46.2585C14.5937 45.9416 14.342 45.6211 14.0904 45.3054C13.834 44.9921 13.5703 44.6849 13.2994 44.3861C12.2059 43.1789 10.9975 42.0782 10.1569 41.2532C9.29444 40.4368 8.68239 39.9166 8.68239 39.9166C8.68239 39.9166 8.66179 40.7488 8.73436 42.0056C8.7767 42.631 8.90616 43.3579 9.05131 44.1393C9.12146 44.5288 9.20973 44.9316 9.30771 45.3393C9.40327 45.7433 9.50247 46.1594 9.65972 46.5646C9.95607 47.3762 10.3069 48.183 10.7169 48.9293ZM22.2201 61.5587C22.5322 62.1913 22.9943 62.7514 23.6317 63.2001C25.0929 62.3631 25.9288 61.1088 26.3715 59.7504C26.484 59.4093 26.5662 59.0609 26.6327 58.7065C26.6666 58.5347 26.6944 58.3557 26.715 58.1815C26.738 58.0025 26.7694 57.8211 26.7972 57.6408C26.8892 56.9211 26.911 56.2014 26.8892 55.5095C26.7973 54.133 26.715 52.8351 26.5384 51.8892C26.461 51.4187 26.3715 51.0316 26.3134 50.7631C26.2663 50.4909 26.2384 50.3421 26.2384 50.3421C26.2384 50.3421 26.1041 50.4643 25.8804 50.6929C25.6457 50.9215 25.3542 51.2481 25.0155 51.6667C24.3321 52.5073 23.4781 53.7036 22.7887 55.0934C22.1307 56.4699 21.7097 58.0219 21.717 59.4988C21.7146 59.8725 21.7726 60.2257 21.8597 60.5656C21.9432 60.9128 22.0641 61.2442 22.2201 61.5587ZM13.5171 62.1889C13.7808 62.5143 14.0893 62.7961 14.4062 63.0647C14.7171 63.3332 15.0388 63.5727 15.3727 63.788C16.7044 64.642 18.1838 65.0024 19.7925 64.5319C19.928 63.7275 19.8675 62.9909 19.6558 62.3087C19.553 61.9724 19.4067 61.6434 19.2252 61.3277C19.0535 61.0108 18.8308 60.7132 18.6264 60.4084C17.7615 59.2061 16.425 58.167 15.0799 57.2405C13.7748 56.3042 12.3983 55.4999 11.3447 54.9168C10.2694 54.3399 9.58959 53.9806 9.58959 53.9806C9.58959 53.9806 9.62219 54.185 9.7117 54.5334C9.80363 54.8781 9.95004 55.3668 10.1472 55.9547C10.5476 57.1243 11.1064 58.6932 12.0329 60.1217C12.4805 60.8451 12.98 61.5551 13.5171 62.1889ZM26.4791 70.7093C26.9097 72.1016 27.9161 73.247 29.4426 73.6002C30.5083 72.2975 30.8421 70.8738 30.9292 69.5287C31.0066 68.1837 30.8325 66.9088 30.6897 65.8383C30.6377 65.3847 30.4563 64.6202 30.2894 64.0202C30.1176 63.4046 29.9277 62.8482 29.7535 62.3849C29.5818 61.9168 29.4197 61.5382 29.306 61.2745C29.2104 61.006 29.1512 60.8559 29.1512 60.8559C29.1512 60.8559 29.0374 61.0072 28.8632 61.2793C28.677 61.5551 28.4617 61.9421 28.2028 62.4272C27.6972 63.3937 27.0876 64.7484 26.6642 66.2471C26.5553 66.6233 26.4647 67.0068 26.3884 67.395C26.3159 67.7579 26.259 68.1292 26.2239 68.5054C26.2069 68.8792 26.2191 69.2517 26.2542 69.6279C26.2941 69.998 26.3811 70.3561 26.4791 70.7093ZM15.2698 67.8438C14.1268 67.4857 13.3853 67.2741 13.3853 67.2741C13.3853 67.2741 13.4555 67.4627 13.5994 67.7821C13.7554 68.0954 13.9852 68.5417 14.2791 69.0691C14.5755 69.5941 14.936 70.2037 15.3545 70.8423C15.5638 71.1629 15.7876 71.4895 16.0246 71.8185L16.2121 72.0701L16.4431 72.3786C16.6076 72.583 16.7697 72.7874 16.9294 72.9894C18.2684 74.5812 19.9183 75.8005 21.5416 76.3097C23.1673 76.8311 24.7421 76.6654 26.0884 75.6517C25.7122 74.0405 24.8039 72.9422 23.5786 71.9854C23.2798 71.7411 22.9459 71.5221 22.6121 71.2911C22.2782 71.0625 21.919 70.846 21.5561 70.6307C21.1944 70.4021 20.8231 70.1831 20.4396 69.9678C20.0767 69.7694 19.7247 69.5941 19.357 69.4211C17.9043 68.7352 16.4129 68.2079 15.2698 67.8438ZM35.0358 79.4208C35.9503 80.582 37.23 81.3465 38.823 81.2642C39.4678 79.7147 39.3577 78.2318 38.9186 76.8722C38.4807 75.5174 37.7054 74.2728 36.9215 73.189C36.1317 72.1052 35.3322 71.1798 34.7419 70.517C34.4528 70.1831 34.206 69.917 34.0294 69.7368C33.8649 69.5505 33.7658 69.455 33.7658 69.455C33.7658 69.455 33.7089 69.6195 33.629 69.9182C33.5516 70.2194 33.4621 70.6464 33.3774 71.1738C33.2057 72.2298 33.1307 73.6788 33.3557 75.1957C33.5782 76.704 34.119 78.2535 35.0358 79.4208ZM31.9647 85.7917C33.5783 85.7143 35.008 85.095 36.012 83.7451C35.2124 82.313 33.9919 81.5388 32.5356 81.0876C31.0792 80.6413 29.381 80.5203 27.7117 80.4695C26.0461 80.4199 24.3926 80.4586 23.154 80.4623C21.8791 80.4889 21.0819 80.4974 21.0819 80.4974C21.0819 80.4974 21.2343 80.6715 21.5234 80.951C21.8101 81.2171 22.231 81.6126 22.7512 82.0408C23.8023 82.9057 25.2865 83.9205 26.9243 84.6584C28.5633 85.3999 30.3486 85.8692 31.9647 85.7917ZM43.5646 82.0287C44.19 83.4379 45.1021 84.8156 46.3008 85.7143C46.8947 86.1558 47.5612 86.4933 48.276 86.6312C48.9885 86.7703 49.7506 86.7328 50.4957 86.4195C50.5307 84.7334 50.0723 83.3992 49.3502 82.2307C48.6256 81.0707 47.5999 80.0643 46.5391 79.2019C45.4783 78.3419 44.3896 77.6185 43.5707 77.1069C42.753 76.5916 42.193 76.2904 42.193 76.2904C42.193 76.2904 42.1978 76.4766 42.2305 76.7911C42.2607 77.1068 42.3151 77.558 42.4022 78.0987C42.5861 79.1753 42.9296 80.6219 43.5646 82.0287Z" fill="#BDBDBD"/>
<path d="M48.489 89.1835C47.7596 88.6307 47.0894 88.24 46.377 87.9835C45.6597 87.7344 44.9303 87.5977 44.1525 87.565C42.6067 87.4961 40.9229 87.7839 39.3141 88.1734C37.7006 88.5714 36.1692 89.0504 35.0213 89.4435C33.8806 89.8245 33.1356 90.1185 33.1356 90.1185C33.1356 90.1185 33.8637 90.5418 35.0358 91.0426C36.2067 91.541 37.83 92.1107 39.5984 92.4155C41.3535 92.7239 43.272 92.7614 44.9424 92.2812C46.6032 91.8131 48.0184 90.7946 48.489 89.1835ZM99.3439 14.8212C98.196 13.9672 96.6938 13.4567 95.1999 13.239C94.4633 13.1193 93.7205 13.0757 93.0311 13.0721C92.344 13.0697 91.7187 13.0963 91.1804 13.1495C90.0954 13.2596 89.4047 13.4084 89.4047 13.4084C89.4047 13.4084 89.5014 13.5233 89.6865 13.7168C89.8728 13.9128 90.157 14.1752 90.4776 14.5091C90.8066 14.8357 91.2227 15.1973 91.6703 15.588C92.1057 15.9812 92.6186 16.3803 93.1544 16.771C93.6842 17.169 94.2697 17.5403 94.8818 17.8645C95.4817 18.2008 96.1167 18.4826 96.7953 18.6689C98.1271 19.0596 99.5834 19.1213 101.133 18.4439C101.17 17.6794 101.014 16.9827 100.705 16.3719C100.375 15.7731 99.904 15.2578 99.3439 14.8212ZM104.838 17.6117C106.177 16.6077 106.793 15.1986 106.892 13.6261C106.934 12.8471 106.845 12.0282 106.673 11.2057C106.494 10.3868 106.207 9.58967 105.883 8.80585C105.555 8.02929 105.151 7.312 104.765 6.64914C104.379 5.98628 103.954 5.41414 103.603 4.92546C103.249 4.43195 102.923 4.05214 102.688 3.78724C102.462 3.52718 102.327 3.38082 102.327 3.38082C102.327 3.38082 102.197 4.1598 102.075 5.31859C102.007 5.90888 101.936 6.59835 101.88 7.33378C101.855 7.70513 101.831 8.08372 101.818 8.472C101.795 8.86512 101.775 9.26671 101.77 9.67193C101.751 11.271 101.821 12.9269 102.249 14.3168C102.454 15.0244 102.748 15.6618 103.178 16.2122C103.587 16.7759 104.123 17.25 104.838 17.6117ZM105.888 25.9059C105.728 25.5974 105.547 25.2987 105.305 25.0314C104.839 24.4858 104.277 23.9972 103.657 23.575C103.039 23.1565 102.322 22.8275 101.635 22.5481C101.287 22.409 100.936 22.2844 100.597 22.1767C100.256 22.0691 99.8979 21.982 99.5617 21.9082C98.894 21.7534 98.2722 21.6542 97.7436 21.5876C97.2114 21.5223 96.7772 21.4897 96.459 21.48C96.1373 21.4631 95.9631 21.4655 95.9631 21.4655C95.9631 21.4655 96.0357 21.5949 96.182 21.8187C96.3163 22.0461 96.499 22.3739 96.7591 22.7549C96.8825 22.946 97.0227 23.1504 97.18 23.3645C97.2622 23.4722 97.3445 23.5835 97.4291 23.6935C97.5017 23.8109 97.584 23.9258 97.6686 24.0468C98.0049 24.5197 98.4005 25.0156 98.8444 25.5043C99.2557 26.0075 99.7238 26.4974 100.246 26.9461C100.378 27.0586 100.517 27.1699 100.647 27.2752C100.777 27.3876 100.908 27.4893 101.047 27.5969C101.317 27.8013 101.605 27.9924 101.907 28.1618C102.502 28.5077 103.187 28.7726 103.885 28.9311C104.583 29.0859 105.345 29.1234 106.176 28.9831C106.288 28.6154 106.361 28.2513 106.375 27.8921C106.375 27.5437 106.331 27.2002 106.248 26.8687C106.167 26.5361 106.04 26.2143 105.888 25.9059ZM110.864 14.1111C110.864 14.1111 110.591 14.8381 110.2 15.9739C109.809 17.1121 109.369 18.6012 108.96 20.1881C108.761 20.9792 108.626 21.7667 108.503 22.5589C108.383 23.3549 108.326 24.1254 108.383 24.8524C108.422 25.214 108.447 25.5769 108.517 25.9253C108.588 26.2748 108.689 26.6099 108.831 26.9316C108.97 27.2522 109.145 27.557 109.364 27.8521C109.569 28.1461 109.817 28.4328 110.108 28.7001C110.888 28.3711 111.51 27.9029 112.005 27.3223C112.51 26.7417 112.822 26.0643 113.053 25.3035C113.171 24.9225 113.253 24.527 113.321 24.1157C113.375 23.7069 113.422 23.2799 113.413 22.8638C113.408 22.0195 113.321 21.1474 113.184 20.3006C112.85 18.6302 112.313 17.0408 111.782 15.9352C111.533 15.3727 111.304 14.9131 111.142 14.5926C110.973 14.2817 110.864 14.1111 110.864 14.1111ZM108.58 36.4403C108.282 35.7871 107.833 35.1702 107.338 34.6065C107.087 34.3247 106.82 34.0513 106.548 33.7997C106.272 33.5433 105.951 33.3098 105.651 33.0873C104.409 32.2055 103.16 31.5728 102.118 31.1979C101.108 30.8168 100.419 30.6524 100.419 30.6524C100.419 30.6524 100.564 31.2318 100.893 32.0761C101.037 32.5055 101.2 33.0123 101.431 33.5481C101.536 33.8142 101.663 34.0936 101.797 34.3767C101.931 34.6609 102.044 34.9573 102.193 35.25C102.465 35.8379 102.811 36.4282 103.206 36.9991C103.559 37.5737 103.985 38.124 104.486 38.6175C105.514 39.5888 106.721 40.3606 108.399 40.5178C108.603 40.1864 108.762 39.8501 108.872 39.5114C108.984 39.1655 109.007 38.8207 109.017 38.4772C109.017 37.7853 108.853 37.0971 108.58 36.4403ZM111.753 36.6519C111.584 37.3813 111.539 38.0914 111.647 38.7917C111.696 39.1425 111.809 39.4836 111.93 39.8259C112.047 40.1695 112.215 40.5106 112.428 40.8468C114.084 40.6122 115.363 39.6638 116.149 38.3018C116.56 37.622 116.872 36.8418 117.127 36.0133C117.346 35.1895 117.456 34.3223 117.531 33.455C117.562 33.022 117.591 32.5865 117.594 32.1656C117.58 31.747 117.557 31.3382 117.531 30.9451C117.47 30.1528 117.385 29.4186 117.294 28.7956C117.043 27.5679 116.804 26.7756 116.804 26.7756C116.804 26.7756 116.351 27.4264 115.719 28.44C115.411 28.9383 115.049 29.5299 114.649 30.183C114.259 30.835 113.859 31.5329 113.488 32.2526C113.135 32.9651 112.744 33.7102 112.437 34.4468C112.12 35.1908 111.897 35.9274 111.753 36.6519ZM108.772 50.5212C108.863 50.1825 108.923 49.8365 108.938 49.4882C108.948 49.135 108.899 48.7757 108.833 48.4177C108.697 47.7028 108.442 46.9903 108.111 46.313C108.029 46.1436 107.939 45.9743 107.852 45.8098C107.753 45.6453 107.643 45.4832 107.534 45.3199C107.315 44.9994 107.078 44.6873 106.841 44.3958C106.363 43.8031 105.855 43.2708 105.362 42.8088C105.123 42.5753 104.868 42.3612 104.618 42.1641C104.371 41.9717 104.132 41.7903 103.915 41.633C103.031 41.0004 102.413 40.6545 102.413 40.6545C102.413 40.6545 102.403 41.2593 102.5 42.1762C102.54 42.406 102.549 42.6552 102.564 42.9213C102.584 43.1886 102.609 43.4716 102.646 43.7656C102.713 44.3534 102.846 44.9909 102.97 45.6477C103.083 46.3033 103.247 46.9807 103.483 47.6447C103.598 47.9737 103.735 48.3052 103.888 48.6281C104.024 48.9487 104.173 49.2656 104.349 49.5668C105.045 50.78 106.107 51.836 107.699 52.3839C108.242 51.8299 108.585 51.1937 108.772 50.5212ZM114.788 45.1663C114.512 45.465 114.247 45.7759 113.993 46.0916C113.739 46.4013 113.485 46.7218 113.229 47.0387C112.738 47.6835 112.312 48.3415 112.001 49.0164C111.843 49.3503 111.725 49.6962 111.625 50.0373C111.508 50.3809 111.428 50.7292 111.389 51.0824C111.312 51.7876 111.389 52.5194 111.678 53.279C113.344 53.4363 114.736 52.7964 115.886 51.686C116.169 51.409 116.444 51.1006 116.698 50.774C116.947 50.4425 117.156 50.0845 117.365 49.7132C117.773 48.9668 118.124 48.1637 118.418 47.3472C118.576 46.9444 118.677 46.5283 118.776 46.117C118.872 45.7118 118.956 45.3126 119.03 44.9219C119.175 44.1442 119.302 43.4148 119.347 42.7894C119.42 41.5339 119.398 40.7029 119.398 40.7029C119.398 40.7029 118.785 41.2206 117.923 42.0383C117.085 42.8608 115.877 43.9615 114.788 45.1663ZM104.444 63.9876C105.083 63.54 105.547 62.9727 105.859 62.3413C106.017 62.028 106.132 61.6942 106.222 61.3543C106.304 61.0083 106.373 60.6576 106.367 60.2862C106.377 58.8093 105.951 57.2562 105.296 55.876C104.598 54.4886 103.744 53.2936 103.067 52.4565C102.724 52.0356 102.435 51.7066 102.202 51.478C101.978 51.2493 101.845 51.1247 101.845 51.1247C101.845 51.1247 101.812 51.2784 101.77 51.5481C101.709 51.8191 101.622 52.2037 101.542 52.6791C101.365 53.6226 101.283 54.9156 101.192 56.2946C101.166 56.9864 101.192 57.7062 101.288 58.4259C101.313 58.6097 101.342 58.7887 101.365 58.9641C101.387 59.1407 101.417 59.3173 101.445 59.4939C101.508 59.8496 101.596 60.1943 101.709 60.5354C102.153 61.8913 102.982 63.1493 104.444 63.9876ZM118.37 55.3148C118.457 54.9664 118.489 54.7644 118.489 54.7644C118.489 54.7644 117.812 55.1249 116.737 55.7031C115.686 56.2837 114.308 57.0893 113.005 58.0267C111.653 58.9484 110.319 59.9923 109.456 61.1934C109.244 61.497 109.028 61.797 108.849 62.1127C108.672 62.4296 108.525 62.755 108.423 63.0961C108.209 63.7759 108.151 64.5113 108.286 65.3169C109.893 65.785 111.377 65.4246 112.708 64.5718C113.041 64.3601 113.362 64.1146 113.679 63.8485C113.985 63.5812 114.297 63.2957 114.563 62.974C115.104 62.3389 115.602 61.6313 116.047 60.9092C116.971 59.477 117.531 57.9082 117.932 56.7385C118.127 56.153 118.275 55.6583 118.37 55.3148ZM101.416 67.0309C100.993 65.5298 100.378 64.1799 99.875 63.211C99.621 62.7248 99.3947 62.3389 99.2145 62.0655C99.0355 61.7934 98.9315 61.6397 98.9315 61.6397C98.9315 61.6397 98.8698 61.7922 98.7718 62.0559C98.6594 62.322 98.4972 62.703 98.3255 63.1663C98.1513 63.6344 97.9602 64.1872 97.7921 64.8041C97.6252 65.4016 97.4388 66.1685 97.3905 66.6221C97.2489 67.6902 97.0748 68.9663 97.151 70.3126C97.238 71.6576 97.5719 73.0849 98.6351 74.3828C100.166 74.0284 101.166 72.8878 101.601 71.4907C101.699 71.1411 101.789 70.7807 101.826 70.4081C101.86 70.0344 101.873 69.663 101.85 69.2868C101.818 68.9106 101.766 68.5393 101.691 68.1788C101.611 67.7893 101.518 67.4035 101.416 67.0309ZM111.148 73.7708C111.315 73.5712 111.477 73.3656 111.638 73.1612L111.871 72.8515L112.057 72.5999C112.291 72.2733 112.515 71.9467 112.723 71.6286C113.142 70.9912 113.505 70.3803 113.802 69.8553C114.094 69.3268 114.321 68.884 114.475 68.5695C114.622 68.249 114.694 68.0591 114.694 68.0591C114.694 68.0591 113.953 68.2732 112.804 68.6336C111.671 68.9941 110.177 69.5227 108.727 70.2049C108.358 70.3767 108 70.5545 107.643 70.7529C107.262 70.9694 106.883 71.1907 106.525 71.4109C106.164 71.6322 105.803 71.8463 105.469 72.0786C105.133 72.3047 104.798 72.5261 104.499 72.7729C103.276 73.7272 102.368 74.8231 101.993 76.4392C103.338 77.448 104.914 77.6197 106.54 77.0972C108.155 76.5867 109.813 75.3687 111.148 73.7708ZM89.2583 82.0468C90.8441 82.1315 92.1275 81.3671 93.048 80.2034C93.9552 79.0362 94.508 77.4891 94.7245 75.9795C94.9483 74.4615 94.8757 73.0136 94.6991 71.9576C94.6193 71.4314 94.5249 71.0032 94.4451 70.702C94.3677 70.4033 94.3108 70.2364 94.3108 70.2364C94.3108 70.2364 94.2141 70.3343 94.0447 70.5206C93.8681 70.7008 93.6238 70.9657 93.3395 71.302C92.7492 71.9673 91.9497 72.889 91.1562 73.9716C90.3748 75.0578 89.5994 76.3 89.1543 77.6572C88.7249 79.0204 88.6124 80.4973 89.2583 82.0468ZM100.37 81.2521C98.6992 81.309 96.9937 81.4239 95.5434 81.8702C94.0871 82.3214 92.869 83.098 92.0743 84.5253C93.0685 85.8752 94.5043 86.5006 96.1155 86.5731C97.7315 86.653 99.5193 86.1837 101.156 85.4398C102.792 84.6995 104.277 83.6895 105.323 82.8222C105.849 82.3964 106.269 82.0033 106.558 81.7324C106.846 81.4505 106.998 81.2836 106.998 81.2836C106.998 81.2836 106.199 81.2691 104.929 81.2461C103.686 81.24 102.034 81.2038 100.37 81.2521ZM79.8102 87.4126C80.5202 87.2783 81.1819 86.9397 81.783 86.4982C82.9757 85.597 83.889 84.2241 84.518 82.8174C85.1482 81.4082 85.4892 79.9603 85.6755 78.8801C85.765 78.3382 85.8147 77.8871 85.8473 77.5726C85.8751 77.2593 85.8848 77.0766 85.8848 77.0766C85.8848 77.0766 85.3247 77.3754 84.5082 77.8883C83.6869 78.4035 82.6031 79.1232 81.5375 79.9869C80.4815 80.8517 79.4498 81.8557 78.7252 83.0181C78.0031 84.1854 77.547 85.5184 77.5894 87.2046C78.3272 87.5166 79.0929 87.5541 79.8102 87.4126ZM88.4854 93.2005C90.249 92.8969 91.8747 92.3308 93.048 91.8276C94.214 91.3268 94.9434 90.9083 94.9434 90.9083C94.9434 90.9083 94.1995 90.6096 93.054 90.2285C91.9085 89.8378 90.3797 89.354 88.7649 88.9585C87.1513 88.5702 85.4723 88.2787 83.9265 88.3488C83.1499 88.3827 82.4145 88.5158 81.702 88.7698C80.986 89.0238 80.3206 89.4169 79.5912 89.9649C80.0593 91.5785 81.4758 92.5994 83.1366 93.0675C84.8058 93.5489 86.723 93.5114 88.4854 93.2005ZM31.9501 79.1729C36.3458 82.821 41.7068 85.3164 46.9673 87.4404C51.271 89.181 56.794 92.0224 62.4174 94.6726C57.3637 96.2463 52.3754 97.5321 48.3643 98.2046C47.8369 98.2893 50.5344 101.039 51.0436 100.884C55.7006 99.4819 60.4252 97.7813 65.0846 95.9028C70.1745 98.2143 75.2004 100.197 79.3372 100.889C79.8598 100.976 81.4794 98.2058 80.9581 98.1187C77.0366 97.4619 72.4813 96.2959 67.7396 94.8093C75.55 91.5289 83.07 87.8166 89.5728 84.2797C96.6308 80.4344 101.93 74.9755 105.414 67.7192C108.642 60.9999 110.92 53.5693 111.256 46.1061C111.719 35.7702 108.248 25.6325 102.864 16.9186C101.288 14.3688 99.5242 11.8238 97.5695 9.46024C97.7437 8.80585 97.7642 8.16839 97.6517 7.56722C97.5199 6.85477 97.2429 6.17014 96.8171 5.55929C95.9982 4.30494 94.6713 3.29856 93.3153 2.54619C91.9485 1.79866 90.5272 1.32814 89.4676 1.07412C88.9342 0.942275 88.4939 0.872125 88.1879 0.82737C88.0355 0.808017 87.9132 0.794703 87.8346 0.792283C87.762 0.785026 87.7222 0.78503 87.7222 0.78503C87.7222 0.78503 87.7367 0.822514 87.7669 0.892671C87.8068 0.961618 87.854 1.06928 87.9217 1.20354C88.0608 1.47933 88.2604 1.86398 88.5144 2.33451C89.02 3.26832 89.7095 4.49848 90.5224 5.6984C90.9228 6.30199 91.3836 6.87655 91.8541 7.4245C92.0888 7.69182 92.3428 7.94945 92.6065 8.18411C92.8605 8.42845 93.129 8.65223 93.4133 8.84939C93.9842 9.23525 94.5842 9.55459 95.2591 9.72636C95.7696 9.85094 96.3091 9.90659 96.8872 9.87272C100.641 14.3107 103.712 19.466 106.052 24.6407C109.028 31.2305 110.615 38.4119 110.444 45.6489C110.263 53.5379 107.631 61.5454 104.094 68.5526C101.34 74.0043 97.33 78.4519 92.2025 81.771C87.6157 84.7346 82.585 86.9578 77.5845 89.1206C73.8408 90.7438 69.3931 92.407 64.8838 93.8864C55.2263 90.6616 45.1323 86.2962 38.1372 82.3468C34.4794 80.2869 31.1724 77.7564 28.4338 74.5619C25.699 71.3697 23.7249 67.5813 22.1415 63.7118C19.1381 56.3708 17.233 48.7745 17.6987 40.8009C18.2442 31.5015 21.8972 22.6073 26.9872 14.8962C28.2923 12.9209 29.7088 10.9493 31.2462 9.09374C31.8014 9.12156 32.3215 9.0635 32.8198 8.94254C33.4923 8.77078 34.0899 8.45265 34.6657 8.06558C34.9427 7.86842 35.2161 7.64464 35.4701 7.40272C35.735 7.16806 35.9878 6.91163 36.2225 6.64068C36.7003 6.09274 37.149 5.52181 37.5554 4.91459C38.3695 3.71709 39.0565 2.48209 39.5585 1.5507C39.8101 1.08258 40.0157 0.689471 40.1488 0.417312C40.2189 0.283047 40.271 0.176599 40.3085 0.104023C40.3351 0.0374957 40.3483 0 40.3483 0C40.3483 0 40.3132 -1.32902e-06 40.2383 0.00241786C40.1584 0.00725624 40.0411 0.0241963 39.8899 0.0423403C39.5815 0.0846761 39.14 0.159665 38.6102 0.289091C37.5494 0.543106 36.1293 1.01363 34.76 1.75875C33.4028 2.51353 32.0783 3.5187 31.257 4.77426C30.8337 5.38874 30.5494 6.07216 30.4273 6.77978C30.3099 7.37006 30.3305 7.99543 30.495 8.64015C26.9013 12.9088 23.9305 17.8246 21.6263 22.7476C18.7849 28.8319 17.0685 35.4157 16.8072 42.1375C16.5133 49.8595 18.6144 57.2586 21.5162 64.3396C23.8507 70.038 27.1831 75.2175 31.9501 79.1729ZM34.9233 15.9848C35.4616 15.5941 35.9745 15.1998 36.4123 14.8018C36.8635 14.4111 37.2736 14.0494 37.5977 13.7216C37.9243 13.3926 38.2061 13.1265 38.3924 12.9318C38.5787 12.7407 38.6767 12.627 38.6767 12.627C38.6767 12.627 37.9824 12.4721 36.901 12.3657C36.3603 12.3137 35.7362 12.2859 35.0479 12.2907C34.3585 12.2955 33.6158 12.3379 32.8815 12.4576C31.3877 12.6766 29.8842 13.1846 28.7351 14.0349C28.1774 14.474 27.7069 14.9893 27.3779 15.5868C27.0694 16.1977 26.9098 16.8944 26.9472 17.6589C28.4919 18.3314 29.9531 18.2733 31.2837 17.8851C31.9635 17.694 32.6057 17.417 33.2008 17.0807C33.8105 16.7565 34.3959 16.3864 34.9233 15.9848ZM23.241 16.8315C23.9583 16.4698 24.4881 15.9921 24.897 15.4296C25.3312 14.8816 25.6288 14.2418 25.8284 13.5317C26.2614 12.1468 26.3292 10.4884 26.3134 8.88931C26.3086 8.4841 26.2892 8.08251 26.2663 7.68697C26.2517 7.30111 26.2264 6.92009 26.1997 6.55359C26.1441 5.81331 26.0703 5.12505 26.005 4.53476C25.8852 3.37113 25.7534 2.597 25.7534 2.597C25.7534 2.597 25.6191 2.7482 25.3869 3.00584C25.1583 3.26712 24.8341 3.64813 24.4784 4.14165C24.1216 4.63274 23.7019 5.20005 23.31 5.86533C22.929 6.52939 22.5238 7.24306 22.1996 8.02204C21.8803 8.80465 21.5863 9.60177 21.4097 10.4231C21.2307 11.2432 21.1484 12.0621 21.1859 12.8386C21.2863 14.416 21.9068 15.8227 23.241 16.8315ZM31.9018 21.0373C32.0421 20.8111 32.1183 20.6816 32.1183 20.6816C32.1183 20.6816 31.9368 20.6817 31.6248 20.6913C31.3042 20.7034 30.8675 20.7361 30.3365 20.805C29.8067 20.8704 29.1886 20.972 28.5137 21.1244C28.1822 21.203 27.8242 21.284 27.4855 21.3929C27.1468 21.5006 26.7985 21.6227 26.4489 21.7618C25.7594 22.0424 25.0445 22.3787 24.4216 22.79C23.8047 23.2133 23.2386 23.6984 22.7741 24.2476C22.5346 24.5161 22.3532 24.8148 22.196 25.1245C22.0436 25.4305 21.9214 25.7511 21.8319 26.0837C21.7496 26.4163 21.7049 26.7587 21.7049 27.1095C21.7218 27.4663 21.792 27.8316 21.9093 28.2005C22.7294 28.3372 23.4999 28.2997 24.2003 28.1449C24.8946 27.9864 25.5744 27.7263 26.1743 27.3828C26.478 27.2111 26.7598 27.0187 27.0344 26.8119C27.1759 26.7103 27.3029 26.6002 27.4299 26.4913C27.5653 26.3861 27.6996 26.2748 27.829 26.1623C28.3564 25.7124 28.8222 25.2188 29.2358 24.7181C29.6761 24.233 30.0777 23.7347 30.414 23.2605C30.4962 23.1456 30.5736 23.0259 30.6535 22.9122C30.7406 22.7972 30.818 22.6884 30.9002 22.5795C31.0526 22.3654 31.199 22.1586 31.3212 21.9699C31.574 21.5864 31.7651 21.2598 31.9018 21.0373ZM18.7087 27.0659C18.9325 26.7768 19.1091 26.4684 19.2506 26.1454C19.3897 25.8237 19.4925 25.4898 19.5603 25.139C19.6304 24.7943 19.657 24.4302 19.6969 24.0673C19.7477 23.3404 19.6969 22.5686 19.5735 21.7739C19.4538 20.9816 19.3196 20.1954 19.1127 19.4007C18.7075 17.8173 18.2684 16.3283 17.8777 15.1901C17.4846 14.0543 17.2148 13.3273 17.2148 13.3273C17.2148 13.3273 17.1072 13.4967 16.9378 13.8124C16.7709 14.1293 16.5448 14.5853 16.2956 15.1478C15.7585 16.263 15.2299 17.8512 14.8936 19.518C14.7545 20.3672 14.6662 21.2369 14.6662 22.0799C14.6565 22.4985 14.6989 22.9242 14.7654 23.3331C14.8271 23.7443 14.9081 24.1399 15.0218 24.5185C15.2517 25.2805 15.5698 25.9555 16.073 26.5373C16.5689 27.1203 17.1943 27.5884 17.966 27.9175C18.2636 27.6477 18.5079 27.3635 18.7087 27.0659ZM23.593 37.8277C24.0962 37.339 24.5196 36.7874 24.8728 36.2116C25.2623 35.6419 25.6131 35.0541 25.8889 34.4614C26.034 34.1699 26.1429 33.8759 26.2832 33.5941C26.4174 33.3098 26.542 33.0316 26.6509 32.7631C26.8783 32.2248 27.0355 31.7216 27.1867 31.2934C27.5158 30.4419 27.6549 29.8673 27.6549 29.8673C27.6549 29.8673 26.9727 30.0343 25.9566 30.4153C24.9188 30.7866 23.6704 31.4192 22.4306 32.301C22.127 32.5224 21.8077 32.757 21.5319 33.0159C21.2561 33.2675 20.9888 33.536 20.7396 33.8179C20.2485 34.3852 19.7974 35.0021 19.4998 35.6552C19.2204 36.3108 19.0631 36.9979 19.0631 37.6898C19.0655 38.0333 19.0933 38.3792 19.2022 38.7191C19.3195 39.0627 19.4696 39.4013 19.6824 39.7304C21.3626 39.5779 22.5661 38.8038 23.593 37.8277ZM14.5925 31.4676C14.2199 30.7503 13.8183 30.0512 13.4276 29.4004C13.0236 28.7436 12.6607 28.1533 12.3571 27.655C11.7293 26.6486 11.2733 25.9894 11.2733 25.9894C11.2733 25.9894 11.0362 26.7817 10.7871 28.0118C10.6927 28.6384 10.6056 29.369 10.5476 30.1588C10.5173 30.5556 10.4931 30.9656 10.4847 31.3842C10.4847 31.8051 10.5125 32.2381 10.5476 32.6712C10.625 33.5336 10.7351 34.4069 10.954 35.2295C11.2008 36.058 11.5201 36.8382 11.9301 37.5156C12.72 38.88 13.9961 39.8271 15.6509 40.0606C15.8674 39.7243 16.027 39.3856 16.1492 39.0421C16.2665 38.6974 16.3814 38.3551 16.4298 38.0091C16.5447 37.31 16.4915 36.5927 16.3222 35.8657C16.1831 35.1387 15.9593 34.4045 15.6472 33.6642C15.3339 32.9288 14.9481 32.1825 14.5925 31.4676ZM20.3792 51.6038C21.971 51.0534 23.0367 49.9962 23.7358 48.783C23.9124 48.4769 24.0624 48.1649 24.1942 47.8431C24.349 47.5214 24.4833 47.1912 24.6006 46.8597C24.8341 46.1969 25.001 45.5219 25.1111 44.8651C25.2381 44.2107 25.3723 43.5732 25.4364 42.9842C25.4739 42.6902 25.497 42.4072 25.5188 42.1399C25.5357 41.8738 25.5453 41.6222 25.578 41.3911C25.682 40.4767 25.6651 39.8743 25.6651 39.8743C25.6651 39.8743 25.0458 40.2154 24.1664 40.8505C23.9499 41.0053 23.7128 41.1867 23.4648 41.3815C23.2132 41.5786 22.9592 41.7939 22.7197 42.0262C22.2286 42.4895 21.7206 43.0241 21.2404 43.6107C21.0009 43.9071 20.7723 44.2155 20.5461 44.5349C20.4408 44.6945 20.3344 44.8615 20.2328 45.026C20.1384 45.1905 20.0502 45.3598 19.9691 45.5292C19.6401 46.2065 19.3837 46.9166 19.2446 47.6351C19.1829 47.9919 19.1344 48.3512 19.1429 48.7019C19.1623 49.0527 19.2155 49.4011 19.3075 49.7349C19.4962 50.4111 19.8397 51.0485 20.3792 51.6038ZM10.7169 48.9293C10.9214 49.2983 11.1354 49.6587 11.3822 49.9902C11.6362 50.3167 11.912 50.6203 12.1962 50.901C13.3466 52.015 14.7315 52.6561 16.4044 52.4976C16.6862 51.7332 16.7709 51.0026 16.6911 50.2986C16.6487 49.9454 16.5689 49.5982 16.4588 49.2571C16.3512 48.9112 16.235 48.5701 16.0778 48.2362C15.7694 47.5613 15.3412 46.8996 14.8501 46.2585C14.5937 45.9416 14.342 45.6211 14.0904 45.3054C13.834 44.9921 13.5703 44.6849 13.2994 44.3861C12.2059 43.1789 10.9975 42.0782 10.1569 41.2532C9.29444 40.4368 8.68239 39.9166 8.68239 39.9166C8.68239 39.9166 8.66179 40.7488 8.73436 42.0056C8.7767 42.631 8.90616 43.3579 9.05131 44.1393C9.12146 44.5288 9.20973 44.9316 9.30771 45.3393C9.40327 45.7433 9.50247 46.1594 9.65972 46.5646C9.95607 47.3762 10.3069 48.183 10.7169 48.9293ZM22.2201 61.5587C22.5322 62.1913 22.9943 62.7514 23.6317 63.2001C25.0929 62.3631 25.9288 61.1088 26.3715 59.7504C26.484 59.4093 26.5662 59.0609 26.6327 58.7065C26.6666 58.5347 26.6944 58.3557 26.715 58.1815C26.738 58.0025 26.7694 57.8211 26.7972 57.6408C26.8892 56.9211 26.911 56.2014 26.8892 55.5095C26.7973 54.133 26.715 52.8351 26.5384 51.8892C26.461 51.4187 26.3715 51.0316 26.3134 50.7631C26.2663 50.4909 26.2384 50.3421 26.2384 50.3421C26.2384 50.3421 26.1041 50.4643 25.8804 50.6929C25.6457 50.9215 25.3542 51.2481 25.0155 51.6667C24.3321 52.5073 23.4781 53.7036 22.7887 55.0934C22.1307 56.4699 21.7097 58.0219 21.717 59.4988C21.7146 59.8725 21.7726 60.2257 21.8597 60.5656C21.9432 60.9128 22.0641 61.2442 22.2201 61.5587ZM13.5171 62.1889C13.7808 62.5143 14.0893 62.7961 14.4062 63.0647C14.7171 63.3332 15.0388 63.5727 15.3727 63.788C16.7044 64.642 18.1838 65.0024 19.7925 64.5319C19.928 63.7275 19.8675 62.9909 19.6558 62.3087C19.553 61.9724 19.4067 61.6434 19.2252 61.3277C19.0535 61.0108 18.8308 60.7132 18.6264 60.4084C17.7615 59.2061 16.425 58.167 15.0799 57.2405C13.7748 56.3042 12.3983 55.4999 11.3447 54.9168C10.2694 54.3399 9.58959 53.9806 9.58959 53.9806C9.58959 53.9806 9.62219 54.185 9.7117 54.5334C9.80363 54.8781 9.95004 55.3668 10.1472 55.9547C10.5476 57.1243 11.1064 58.6932 12.0329 60.1217C12.4805 60.8451 12.98 61.5551 13.5171 62.1889ZM26.4791 70.7093C26.9097 72.1016 27.9161 73.247 29.4426 73.6002C30.5083 72.2975 30.8421 70.8738 30.9292 69.5287C31.0066 68.1837 30.8325 66.9088 30.6897 65.8383C30.6377 65.3847 30.4563 64.6202 30.2894 64.0202C30.1176 63.4046 29.9277 62.8482 29.7535 62.3849C29.5818 61.9168 29.4197 61.5382 29.306 61.2745C29.2104 61.006 29.1512 60.8559 29.1512 60.8559C29.1512 60.8559 29.0374 61.0072 28.8632 61.2793C28.677 61.5551 28.4617 61.9421 28.2028 62.4272C27.6972 63.3937 27.0876 64.7484 26.6642 66.2471C26.5553 66.6233 26.4647 67.0068 26.3884 67.395C26.3159 67.7579 26.259 68.1292 26.2239 68.5054C26.2069 68.8792 26.2191 69.2517 26.2542 69.6279C26.2941 69.998 26.3811 70.3561 26.4791 70.7093ZM15.2698 67.8438C14.1268 67.4857 13.3853 67.2741 13.3853 67.2741C13.3853 67.2741 13.4555 67.4627 13.5994 67.7821C13.7554 68.0954 13.9852 68.5417 14.2791 69.0691C14.5755 69.5941 14.936 70.2037 15.3545 70.8423C15.5638 71.1629 15.7876 71.4895 16.0246 71.8185L16.2121 72.0701L16.4431 72.3786C16.6076 72.583 16.7697 72.7874 16.9294 72.9894C18.2684 74.5812 19.9183 75.8005 21.5416 76.3097C23.1673 76.8311 24.7421 76.6654 26.0884 75.6517C25.7122 74.0405 24.8039 72.9422 23.5786 71.9854C23.2798 71.7411 22.9459 71.5221 22.6121 71.2911C22.2782 71.0625 21.919 70.846 21.5561 70.6307C21.1944 70.4021 20.8231 70.1831 20.4396 69.9678C20.0767 69.7694 19.7247 69.5941 19.357 69.4211C17.9043 68.7352 16.4129 68.2079 15.2698 67.8438ZM35.0358 79.4208C35.9503 80.582 37.23 81.3465 38.823 81.2642C39.4678 79.7147 39.3577 78.2318 38.9186 76.8722C38.4807 75.5174 37.7054 74.2728 36.9215 73.189C36.1317 72.1052 35.3322 71.1798 34.7419 70.517C34.4528 70.1831 34.206 69.917 34.0294 69.7368C33.8649 69.5505 33.7658 69.455 33.7658 69.455C33.7658 69.455 33.7089 69.6195 33.629 69.9182C33.5516 70.2194 33.4621 70.6464 33.3774 71.1738C33.2057 72.2298 33.1307 73.6788 33.3557 75.1957C33.5782 76.704 34.119 78.2535 35.0358 79.4208ZM31.9647 85.7917C33.5783 85.7143 35.008 85.095 36.012 83.7451C35.2124 82.313 33.9919 81.5388 32.5356 81.0876C31.0792 80.6413 29.381 80.5203 27.7117 80.4695C26.0461 80.4199 24.3926 80.4586 23.154 80.4623C21.8791 80.4889 21.0819 80.4974 21.0819 80.4974C21.0819 80.4974 21.2343 80.6715 21.5234 80.951C21.8101 81.2171 22.231 81.6126 22.7512 82.0408C23.8023 82.9057 25.2865 83.9205 26.9243 84.6584C28.5633 85.3999 30.3486 85.8692 31.9647 85.7917ZM43.5646 82.0287C44.19 83.4379 45.1021 84.8156 46.3008 85.7143C46.8947 86.1558 47.5612 86.4933 48.276 86.6312C48.9885 86.7703 49.7506 86.7328 50.4957 86.4195C50.5307 84.7334 50.0723 83.3992 49.3502 82.2307C48.6256 81.0707 47.5999 80.0643 46.5391 79.2019C45.4783 78.3419 44.3896 77.6185 43.5707 77.1069C42.753 76.5916 42.193 76.2904 42.193 76.2904C42.193 76.2904 42.1978 76.4766 42.2305 76.7911C42.2607 77.1068 42.3151 77.558 42.4022 78.0987C42.5861 79.1753 42.9296 80.6219 43.5646 82.0287Z" fill="url(#paint0_linear_376_528)"/>
<path d="M1.50053 134.975V124.793H5.06019C5.76947 124.793 6.35446 124.915 6.81516 125.161C7.27586 125.403 7.6189 125.729 7.84428 126.14C8.06966 126.548 8.18235 127 8.18235 127.497C8.18235 127.935 8.10446 128.296 7.94869 128.581C7.79622 128.866 7.59405 129.092 7.34215 129.257C7.09357 129.423 6.82345 129.546 6.53178 129.625V129.725C6.84334 129.744 7.15655 129.854 7.47141 130.053C7.78628 130.252 8.04978 130.537 8.2619 130.908C8.47402 131.279 8.58008 131.733 8.58008 132.27C8.58008 132.78 8.46407 133.24 8.23207 133.647C8.00006 134.055 7.63382 134.378 7.13335 134.617C6.63287 134.855 5.98159 134.975 5.17951 134.975H1.50053ZM2.73349 133.881H5.17951C5.98491 133.881 6.55664 133.725 6.89471 133.414C7.23609 133.099 7.40678 132.718 7.40678 132.27C7.40678 131.925 7.31895 131.607 7.14329 131.316C6.96763 131.021 6.71739 130.785 6.39258 130.61C6.06777 130.431 5.6833 130.341 5.23917 130.341H2.73349V133.881ZM2.73349 129.267H5.02042C5.39163 129.267 5.72639 129.194 6.02468 129.048C6.32629 128.903 6.56493 128.697 6.74059 128.432C6.91957 128.167 7.00906 127.855 7.00906 127.497C7.00906 127.05 6.85328 126.67 6.54173 126.359C6.23017 126.044 5.73633 125.887 5.06019 125.887H2.73349V129.267ZM13.6486 135.134C12.9128 135.134 12.2781 134.971 11.7445 134.646C11.2142 134.318 10.8049 133.861 10.5165 133.274C10.2315 132.684 10.089 131.998 10.089 131.216C10.089 130.434 10.2315 129.744 10.5165 129.148C10.8049 128.548 11.2059 128.081 11.7196 127.746C12.2367 127.408 12.8399 127.239 13.5293 127.239C13.927 127.239 14.3198 127.305 14.7076 127.438C15.0953 127.57 15.4483 127.786 15.7665 128.084C16.0847 128.379 16.3382 128.77 16.5272 129.257C16.7161 129.744 16.8105 130.344 16.8105 131.057V131.554H10.9242V130.54H15.6174C15.6174 130.109 15.5312 129.725 15.3588 129.387C15.1898 129.048 14.9479 128.782 14.633 128.586C14.3214 128.391 13.9535 128.293 13.5293 128.293C13.062 128.293 12.6576 128.409 12.3162 128.641C11.9782 128.869 11.718 129.168 11.5357 129.536C11.3534 129.904 11.2623 130.298 11.2623 130.719V131.395C11.2623 131.972 11.3617 132.461 11.5605 132.862C11.7627 133.259 12.0428 133.563 12.4007 133.771C12.7587 133.977 13.1747 134.08 13.6486 134.08C13.9569 134.08 14.2353 134.037 14.4838 133.95C14.7357 133.861 14.9528 133.728 15.1351 133.553C15.3174 133.374 15.4583 133.152 15.5577 132.887L16.6912 133.205C16.5719 133.589 16.3714 133.927 16.0897 134.219C15.8079 134.507 15.4599 134.733 15.0456 134.895C14.6313 135.054 14.1657 135.134 13.6486 135.134ZM24.0044 129.048L22.9505 129.347C22.8842 129.171 22.7864 129 22.6571 128.835C22.5312 128.666 22.3588 128.526 22.1401 128.417C21.9213 128.308 21.6413 128.253 21.2999 128.253C20.8326 128.253 20.4431 128.361 20.1316 128.576C19.8233 128.788 19.6692 129.058 19.6692 129.387C19.6692 129.678 19.7753 129.909 19.9874 130.078C20.1995 130.247 20.531 130.387 20.9817 130.5L22.1152 130.779C22.798 130.944 23.3068 131.198 23.6415 131.539C23.9763 131.877 24.1436 132.313 24.1436 132.847C24.1436 133.284 24.0177 133.675 23.7658 134.02C23.5172 134.365 23.1692 134.637 22.7218 134.835C22.2743 135.034 21.754 135.134 21.1607 135.134C20.3818 135.134 19.7372 134.965 19.2267 134.627C18.7163 134.289 18.3932 133.795 18.2573 133.145L19.3709 132.867C19.477 133.278 19.6775 133.586 19.9725 133.791C20.2708 133.997 20.6602 134.1 21.1408 134.1C21.6877 134.1 22.1219 133.984 22.4434 133.752C22.7682 133.516 22.9306 133.235 22.9306 132.906C22.9306 132.641 22.8378 132.419 22.6522 132.24C22.4666 132.058 22.1815 131.922 21.7971 131.833L20.5243 131.534C19.825 131.369 19.3113 131.112 18.9831 130.764C18.6583 130.412 18.4959 129.973 18.4959 129.446C18.4959 129.015 18.6169 128.634 18.8588 128.303C19.1041 127.971 19.4372 127.711 19.8581 127.522C20.2824 127.333 20.763 127.239 21.2999 127.239C22.0556 127.239 22.6489 127.405 23.0797 127.736C23.5139 128.067 23.8221 128.505 24.0044 129.048ZM29.2308 127.338V128.333H25.2734V127.338H29.2308ZM26.4268 125.509H27.6001V132.787C27.6001 133.119 27.6482 133.367 27.7443 133.533C27.8438 133.695 27.9697 133.805 28.1222 133.861C28.2779 133.914 28.442 133.941 28.6143 133.941C28.7436 133.941 28.8497 133.934 28.9325 133.921C29.0154 133.904 29.0817 133.891 29.1314 133.881L29.37 134.935C29.2905 134.965 29.1795 134.994 29.0369 135.024C28.8944 135.057 28.7138 135.074 28.495 135.074C28.1636 135.074 27.8388 135.003 27.5206 134.86C27.2057 134.718 26.9439 134.501 26.7351 134.209C26.5296 133.917 26.4268 133.549 26.4268 133.105V125.509ZM38.2344 134.975H35.0923V124.793H38.3736C39.3613 124.793 40.2064 124.997 40.9091 125.404C41.6117 125.809 42.1503 126.39 42.5249 127.149C42.8994 127.905 43.0866 128.81 43.0866 129.864C43.0866 130.924 42.8977 131.838 42.5199 132.603C42.142 133.365 41.5919 133.952 40.8693 134.363C40.1468 134.771 39.2685 134.975 38.2344 134.975ZM36.3253 133.881H38.1548C38.9967 133.881 39.6944 133.718 40.2479 133.394C40.8014 133.069 41.214 132.606 41.4858 132.007C41.7576 131.407 41.8935 130.692 41.8935 129.864C41.8935 129.042 41.7592 128.334 41.4908 127.741C41.2223 127.144 40.8213 126.687 40.2876 126.369C39.754 126.047 39.0895 125.887 38.294 125.887H36.3253V133.881ZM48.1974 135.134C47.4616 135.134 46.8269 134.971 46.2933 134.646C45.763 134.318 45.3537 133.861 45.0653 133.274C44.7803 132.684 44.6378 131.998 44.6378 131.216C44.6378 130.434 44.7803 129.744 45.0653 129.148C45.3537 128.548 45.7547 128.081 46.2685 127.746C46.7855 127.408 47.3887 127.239 48.0781 127.239C48.4759 127.239 48.8686 127.305 49.2564 127.438C49.6442 127.57 49.9972 127.786 50.3153 128.084C50.6335 128.379 50.8871 128.77 51.076 129.257C51.2649 129.744 51.3594 130.344 51.3594 131.057V131.554H45.473V130.54H50.1662C50.1662 130.109 50.08 129.725 49.9077 129.387C49.7386 129.048 49.4967 128.782 49.1818 128.586C48.8703 128.391 48.5024 128.293 48.0781 128.293C47.6108 128.293 47.2064 128.409 46.8651 128.641C46.527 128.869 46.2668 129.168 46.0845 129.536C45.9022 129.904 45.8111 130.298 45.8111 130.719V131.395C45.8111 131.972 45.9105 132.461 46.1094 132.862C46.3116 133.259 46.5916 133.563 46.9496 133.771C47.3075 133.977 47.7235 134.08 48.1974 134.08C48.5057 134.08 48.7841 134.037 49.0327 133.95C49.2846 133.861 49.5017 133.728 49.6839 133.553C49.8662 133.374 50.0071 133.152 50.1065 132.887L51.2401 133.205C51.1207 133.589 50.9202 133.927 50.6385 134.219C50.3568 134.507 50.0088 134.733 49.5945 134.895C49.1802 135.054 48.7145 135.134 48.1974 135.134ZM58.5533 129.048L57.4993 129.347C57.433 129.171 57.3352 129 57.206 128.835C57.08 128.666 56.9077 128.526 56.6889 128.417C56.4702 128.308 56.1901 128.253 55.8487 128.253C55.3814 128.253 54.992 128.361 54.6804 128.576C54.3722 128.788 54.218 129.058 54.218 129.387C54.218 129.678 54.3241 129.909 54.5362 130.078C54.7483 130.247 55.0798 130.387 55.5305 130.5L56.6641 130.779C57.3468 130.944 57.8556 131.198 58.1903 131.539C58.5251 131.877 58.6925 132.313 58.6925 132.847C58.6925 133.284 58.5665 133.675 58.3146 134.02C58.0661 134.365 57.718 134.637 57.2706 134.835C56.8232 135.034 56.3028 135.134 55.7095 135.134C54.9306 135.134 54.286 134.965 53.7756 134.627C53.2652 134.289 52.942 133.795 52.8061 133.145L53.9197 132.867C54.0258 133.278 54.2263 133.586 54.5213 133.791C54.8196 133.997 55.209 134.1 55.6896 134.1C56.2365 134.1 56.6707 133.984 56.9922 133.752C57.317 133.516 57.4794 133.235 57.4794 132.906C57.4794 132.641 57.3866 132.419 57.201 132.24C57.0154 132.058 56.7304 131.922 56.3459 131.833L55.0732 131.534C54.3738 131.369 53.8601 131.112 53.532 130.764C53.2071 130.412 53.0447 129.973 53.0447 129.446C53.0447 129.015 53.1657 128.634 53.4077 128.303C53.6529 127.971 53.986 127.711 54.407 127.522C54.8312 127.333 55.3118 127.239 55.8487 127.239C56.6044 127.239 57.1977 127.405 57.6286 127.736C58.0627 128.067 58.371 128.505 58.5533 129.048ZM60.4586 134.975V127.338H61.6319V134.975H60.4586ZM61.0552 126.066C60.8265 126.066 60.6293 125.988 60.4636 125.832C60.3012 125.676 60.22 125.489 60.22 125.27C60.22 125.051 60.3012 124.864 60.4636 124.708C60.6293 124.552 60.8265 124.475 61.0552 124.475C61.2839 124.475 61.4795 124.552 61.6419 124.708C61.8076 124.864 61.8904 125.051 61.8904 125.27C61.8904 125.489 61.8076 125.676 61.6419 125.832C61.4795 125.988 61.2839 126.066 61.0552 126.066ZM66.8633 137.997C66.2965 137.997 65.8093 137.924 65.4016 137.779C64.994 137.636 64.6542 137.447 64.3825 137.212C64.114 136.98 63.9002 136.731 63.7411 136.466L64.6758 135.81C64.7818 135.949 64.9161 136.108 65.0785 136.287C65.2409 136.469 65.4629 136.627 65.7447 136.759C66.0297 136.895 66.4026 136.963 66.8633 136.963C67.4798 136.963 67.9885 136.814 68.3896 136.516C68.7906 136.218 68.9911 135.75 68.9911 135.114V133.563H68.8917C68.8055 133.702 68.6829 133.874 68.5238 134.08C68.368 134.282 68.1426 134.463 67.8477 134.622C67.556 134.777 67.1616 134.855 66.6644 134.855C66.0479 134.855 65.4944 134.709 65.0039 134.418C64.5167 134.126 64.1306 133.702 63.8455 133.145C63.5638 132.588 63.4229 131.912 63.4229 131.117C63.4229 130.334 63.5605 129.653 63.8356 129.073C64.1107 128.49 64.4935 128.039 64.984 127.721C65.4746 127.4 66.0413 127.239 66.6843 127.239C67.1815 127.239 67.5759 127.322 67.8675 127.487C68.1625 127.65 68.3879 127.835 68.5437 128.044C68.7028 128.25 68.8254 128.419 68.9116 128.551H69.0309V127.338H70.1644V135.193C70.1644 135.85 70.0153 136.383 69.717 136.794C69.422 137.209 69.0243 137.512 68.5238 137.704C68.0266 137.9 67.4731 137.997 66.8633 137.997ZM66.8235 133.801C67.2942 133.801 67.6919 133.694 68.0167 133.478C68.3415 133.263 68.5884 132.953 68.7575 132.548C68.9265 132.144 69.011 131.66 69.011 131.097C69.011 130.547 68.9281 130.061 68.7624 129.64C68.5967 129.219 68.3514 128.889 68.0266 128.651C67.7018 128.412 67.3008 128.293 66.8235 128.293C66.3263 128.293 65.9121 128.419 65.5806 128.671C65.2525 128.923 65.0056 129.261 64.8398 129.685C64.6774 130.109 64.5962 130.58 64.5962 131.097C64.5962 131.627 64.6791 132.096 64.8448 132.504C65.0138 132.908 65.2624 133.226 65.5906 133.458C65.922 133.687 66.333 133.801 66.8235 133.801ZM73.4854 130.381V134.975H72.3121V127.338H73.4457V128.531H73.5451C73.7241 128.144 73.9959 127.832 74.3604 127.597C74.725 127.358 75.1957 127.239 75.7724 127.239C76.2894 127.239 76.7418 127.345 77.1296 127.557C77.5174 127.766 77.819 128.084 78.0344 128.512C78.2499 128.936 78.3576 129.473 78.3576 130.122V134.975H77.1843V130.202C77.1843 129.602 77.0285 129.135 76.717 128.8C76.4054 128.462 75.9779 128.293 75.4343 128.293C75.0598 128.293 74.725 128.374 74.43 128.536C74.1384 128.699 73.908 128.936 73.739 129.247C73.57 129.559 73.4854 129.937 73.4854 130.381ZM83.7033 135.134C82.9675 135.134 82.3328 134.971 81.7992 134.646C81.2689 134.318 80.8596 133.861 80.5712 133.274C80.2862 132.684 80.1436 131.998 80.1436 131.216C80.1436 130.434 80.2862 129.744 80.5712 129.148C80.8596 128.548 81.2606 128.081 81.7743 127.746C82.2914 127.408 82.8946 127.239 83.584 127.239C83.9817 127.239 84.3745 127.305 84.7623 127.438C85.15 127.57 85.503 127.786 85.8212 128.084C86.1394 128.379 86.3929 128.77 86.5819 129.257C86.7708 129.744 86.8652 130.344 86.8652 131.057V131.554H80.9789V130.54H85.6721C85.6721 130.109 85.5859 129.725 85.4135 129.387C85.2445 129.048 85.0025 128.782 84.6877 128.586C84.3761 128.391 84.0082 128.293 83.584 128.293C83.1167 128.293 82.7123 128.409 82.3709 128.641C82.0328 128.869 81.7727 129.168 81.5904 129.536C81.4081 129.904 81.3169 130.298 81.3169 130.719V131.395C81.3169 131.972 81.4164 132.461 81.6152 132.862C81.8174 133.259 82.0975 133.563 82.4554 133.771C82.8134 133.977 83.2293 134.08 83.7033 134.08C84.0115 134.08 84.29 134.037 84.5385 133.95C84.7904 133.861 85.0075 133.728 85.1898 133.553C85.3721 133.374 85.513 133.152 85.6124 132.887L86.7459 133.205C86.6266 133.589 86.4261 133.927 86.1444 134.219C85.8626 134.507 85.5146 134.733 85.1003 134.895C84.686 135.054 84.2203 135.134 83.7033 135.134ZM91.5336 135.134C90.8972 135.134 90.3354 134.973 89.8482 134.651C89.361 134.327 88.9798 133.869 88.7047 133.279C88.4296 132.686 88.2921 131.985 88.2921 131.176C88.2921 130.374 88.4296 129.678 88.7047 129.088C88.9798 128.498 89.3626 128.043 89.8532 127.721C90.3437 127.4 90.9105 127.239 91.5534 127.239C92.0506 127.239 92.4434 127.322 92.7317 127.487C93.0234 127.65 93.2454 127.835 93.3979 128.044C93.5537 128.25 93.6747 128.419 93.7608 128.551H93.8603V124.793H95.0336V134.975H93.9V133.801H93.7608C93.6747 133.941 93.552 134.116 93.3929 134.328C93.2338 134.537 93.0068 134.724 92.7118 134.89C92.4168 135.052 92.0241 135.134 91.5336 135.134ZM91.6926 134.08C92.1633 134.08 92.561 133.957 92.8858 133.712C93.2106 133.463 93.4576 133.12 93.6266 132.683C93.7956 132.242 93.8801 131.733 93.8801 131.156C93.8801 130.586 93.7973 130.088 93.6316 129.66C93.4659 129.229 93.2206 128.894 92.8958 128.656C92.571 128.414 92.1699 128.293 91.6926 128.293C91.1955 128.293 90.7812 128.42 90.4498 128.676C90.1216 128.927 89.8747 129.271 89.709 129.705C89.5466 130.136 89.4654 130.619 89.4654 131.156C89.4654 131.7 89.5482 132.194 89.714 132.638C89.883 133.079 90.1316 133.43 90.4597 133.692C90.7911 133.95 91.2021 134.08 91.6926 134.08ZM101.86 134.975H100.567L104.306 124.793H105.578L109.317 134.975H108.024L104.982 126.404H104.902L101.86 134.975ZM102.337 130.997H107.547V132.091H102.337V130.997ZM110.744 137.838V127.338H111.877V128.551H112.017C112.103 128.419 112.222 128.25 112.374 128.044C112.53 127.835 112.752 127.65 113.041 127.487C113.332 127.322 113.727 127.239 114.224 127.239C114.867 127.239 115.434 127.4 115.924 127.721C116.415 128.043 116.798 128.498 117.073 129.088C117.348 129.678 117.485 130.374 117.485 131.176C117.485 131.985 117.348 132.686 117.073 133.279C116.798 133.869 116.416 134.327 115.929 134.651C115.442 134.973 114.88 135.134 114.244 135.134C113.753 135.134 113.36 135.052 113.066 134.89C112.771 134.724 112.544 134.537 112.384 134.328C112.225 134.116 112.103 133.941 112.017 133.801H111.917V137.838H110.744ZM111.897 131.156C111.897 131.733 111.982 132.242 112.151 132.683C112.32 133.12 112.567 133.463 112.892 133.712C113.216 133.957 113.614 134.08 114.085 134.08C114.575 134.08 114.985 133.95 115.313 133.692C115.644 133.43 115.893 133.079 116.058 132.638C116.227 132.194 116.312 131.7 116.312 131.156C116.312 130.619 116.229 130.136 116.063 129.705C115.901 129.271 115.654 128.927 115.323 128.676C114.994 128.42 114.582 128.293 114.085 128.293C113.607 128.293 113.206 128.414 112.882 128.656C112.557 128.894 112.311 129.229 112.146 129.66C111.98 130.088 111.897 130.586 111.897 131.156ZM119.275 137.838V127.338H120.409V128.551H120.548C120.634 128.419 120.753 128.25 120.906 128.044C121.061 127.835 121.284 127.65 121.572 127.487C121.864 127.322 122.258 127.239 122.755 127.239C123.398 127.239 123.965 127.4 124.455 127.721C124.946 128.043 125.329 128.498 125.604 129.088C125.879 129.678 126.017 130.374 126.017 131.176C126.017 131.985 125.879 132.686 125.604 133.279C125.329 133.869 124.948 134.327 124.46 134.651C123.973 134.973 123.411 135.134 122.775 135.134C122.285 135.134 121.892 135.052 121.597 134.89C121.302 134.724 121.075 134.537 120.916 134.328C120.757 134.116 120.634 133.941 120.548 133.801H120.448V137.838H119.275ZM120.428 131.156C120.428 131.733 120.513 132.242 120.682 132.683C120.851 133.12 121.098 133.463 121.423 133.712C121.748 133.957 122.145 134.08 122.616 134.08C123.106 134.08 123.516 133.95 123.844 133.692C124.175 133.43 124.424 133.079 124.59 132.638C124.759 132.194 124.843 131.7 124.843 131.156C124.843 130.619 124.76 130.136 124.595 129.705C124.432 129.271 124.185 128.927 123.854 128.676C123.526 128.42 123.113 128.293 122.616 128.293C122.139 128.293 121.738 128.414 121.413 128.656C121.088 128.894 120.843 129.229 120.677 129.66C120.511 130.088 120.428 130.586 120.428 131.156Z" fill="#C0C0C0"/>
<g clip-path="url(#clip0_376_528)">
<path d="M77.6892 33.3133H82.0408C82.445 33.3133 82.7726 32.9857 82.7726 32.5816V28.2259C82.7726 27.8217 82.445 27.4941 82.0408 27.4941H77.6892C77.285 27.4941 76.9574 27.8217 76.9574 28.2259V29.672H66.9472V28.2259C66.9472 27.8217 66.6196 27.4941 66.2154 27.4941H61.8638C61.4596 27.4941 61.132 27.8217 61.132 28.2259V29.672H51.1218V28.2259C51.1218 27.8217 50.7942 27.4941 50.3901 27.4941H46.0384C45.6342 27.4941 45.3066 27.8217 45.3066 28.2259V32.5816C45.3066 32.9857 45.6342 33.3133 46.0384 33.3133H50.3901C50.7942 33.3133 51.1218 32.9857 51.1218 32.5816V31.1355H57.2091C55.0656 32.1074 53.133 33.5348 51.5583 35.3399C49.0892 38.1704 47.6617 41.752 47.4968 45.4953H46.0384C45.6342 45.4953 45.3066 45.8229 45.3066 46.2271V50.5828C45.3066 50.987 45.6342 51.3145 46.0384 51.3145H50.3901C50.7942 51.3145 51.1218 50.987 51.1218 50.5828V46.2271C51.1218 45.8229 50.7942 45.4953 50.3901 45.4953H48.962C49.2993 38.5994 54.3721 32.7273 61.132 31.4073V32.5818C61.132 32.986 61.4596 33.3136 61.8638 33.3136H66.2154C66.6196 33.3136 66.9472 32.986 66.9472 32.5818V31.4073C73.7071 32.7273 78.7799 38.5994 79.1172 45.4953H77.6892C77.285 45.4953 76.9574 45.8229 76.9574 46.2271V50.5828C76.9574 50.987 77.285 51.3145 77.6892 51.3145H82.0408C82.445 51.3145 82.7726 50.987 82.7726 50.5828V46.2271C82.7726 45.8229 82.445 45.4953 82.0408 45.4953H80.5825C80.4175 41.752 78.99 38.1704 76.5209 35.3399C74.9462 33.5348 73.0136 32.1074 70.8701 31.1355H76.9574V32.5818C76.9574 32.9857 77.285 33.3133 77.6892 33.3133ZM49.6583 31.8498H46.7702V28.9577H49.6583V31.8498ZM49.6583 49.851H46.7702V46.9589H49.6583V49.851ZM81.3091 49.851H78.4209V46.9589H81.3091V49.851ZM65.4837 31.8498H62.5955V28.9577H65.4837V31.8498ZM78.4209 28.9577H81.3091V31.8498H78.4209V28.9577Z" fill="#818181"/>
<path d="M64.6807 35.5565C64.552 35.3229 64.3065 35.1777 64.0398 35.1777C63.7731 35.1777 63.5276 35.3229 63.3989 35.5565L60.3596 41.0744C60.1646 41.4285 60.2935 41.8736 60.6477 42.0683C61.0013 42.2632 61.4466 42.1346 61.6416 41.7804L63.308 38.7548V44.1512C62.2922 44.4645 61.5518 45.412 61.5518 46.5294C61.5518 47.9012 62.668 49.0174 64.0398 49.0174C65.4116 49.0174 66.5278 47.9012 66.5278 46.5294C66.5278 45.412 65.7874 44.4645 64.7716 44.1512V38.7548L69.7918 47.8697C68.1425 49.5379 67.0183 51.6777 66.5815 53.9839H61.4981C61.061 51.6777 59.9368 49.5379 58.2878 47.8697L59.1265 46.347C59.3214 45.9932 59.1925 45.5481 58.8386 45.3532C58.4847 45.1582 58.0394 45.2868 57.8444 45.641L56.7354 47.655C56.5725 47.9506 56.633 48.3196 56.882 48.5477C58.4579 49.9909 59.5521 51.9027 60.0048 53.9839H59.3234C58.1129 53.9839 57.1281 54.9689 57.1281 56.1791C57.1281 57.0332 57.6183 57.7741 58.3321 58.1369V64.2285C58.3321 64.6327 58.6597 64.9602 59.0639 64.9602C59.468 64.9602 59.7956 64.6327 59.7956 64.2285V58.3744H68.284V64.2285C68.284 64.6327 68.6116 64.9602 69.0157 64.9602C69.4199 64.9602 69.7475 64.6327 69.7475 64.2285V58.1369C70.4612 57.7741 70.9515 57.033 70.9515 56.1791C70.9515 54.9686 69.9667 53.9839 68.7562 53.9839H68.0747C68.5275 51.9024 69.6217 49.9909 71.1976 48.5474C71.4465 48.3193 71.5071 47.9506 71.3442 47.6548L64.6807 35.5565ZM64.0398 47.5539C63.475 47.5539 63.0153 47.0942 63.0153 46.5294C63.0153 45.9643 63.475 45.5049 64.0398 45.5049C64.6046 45.5049 65.0643 45.9643 65.0643 46.5294C65.0643 47.0942 64.6046 47.5539 64.0398 47.5539ZM69.488 56.1791C69.488 56.5828 69.1598 56.9109 68.7562 56.9109H59.3234C58.9198 56.9109 58.5916 56.5828 58.5916 56.1791C58.5916 55.7755 58.9198 55.4474 59.3234 55.4474H68.7562C69.1598 55.4474 69.488 55.7755 69.488 56.1791Z" fill="#818181"/>
<path d="M59.6946 44.4801C59.8873 44.4801 60.076 44.4024 60.212 44.2663C60.3481 44.1294 60.4264 43.9416 60.4264 43.7484C60.4264 43.5557 60.3481 43.3679 60.212 43.231C60.076 43.0949 59.8873 43.0166 59.6946 43.0166C59.5014 43.0166 59.3128 43.0949 59.1767 43.231C59.0406 43.3679 58.9629 43.5557 58.9629 43.7484C58.9629 43.9416 59.0406 44.1294 59.1767 44.2663C59.3128 44.4024 59.5014 44.4801 59.6946 44.4801Z" fill="#818181"/>
</g>
<defs>
<linearGradient id="paint0_linear_376_528" x1="64.0403" y1="0" x2="64.0403" y2="100.891" gradientUnits="userSpaceOnUse">
<stop stop-color="#BDBDBD"/>
<stop offset="1" stop-color="#575757"/>
</linearGradient>
<clipPath id="clip0_376_528">
<rect width="37.4659" height="37.4659" fill="white" transform="translate(45.3066 27.4941)"/>
</clipPath>
</defs>
</svg>
