<svg width="186" height="138" viewBox="0 0 186 138" fill="none" xmlns="http://www.w3.org/2000/svg">
<path d="M76.9733 89.1835C76.2439 88.6307 75.5738 88.24 74.8613 87.9835C74.1441 87.7344 73.4147 87.5977 72.6369 87.565C71.091 87.4961 69.4073 87.7839 67.7985 88.1734C66.1849 88.5714 64.6536 89.0504 63.5057 89.4435C62.365 89.8245 61.6199 90.1185 61.6199 90.1185C61.6199 90.1185 62.3481 90.5418 63.5202 91.0426C64.6911 91.541 66.3143 92.1107 68.0828 92.4155C69.8379 92.7239 71.7563 92.7614 73.4268 92.2812C75.0876 91.8131 76.5028 90.7946 76.9733 89.1835ZM127.828 14.8212C126.68 13.9672 125.178 13.4567 123.684 13.239C122.948 13.1193 122.205 13.0757 121.515 13.0721C120.828 13.0697 120.203 13.0963 119.665 13.1495C118.58 13.2596 117.889 13.4084 117.889 13.4084C117.889 13.4084 117.986 13.5233 118.171 13.7168C118.357 13.9128 118.641 14.1752 118.962 14.5091C119.291 14.8357 119.707 15.1973 120.155 15.588C120.59 15.9812 121.103 16.3803 121.639 16.771C122.169 17.169 122.754 17.5403 123.366 17.8645C123.966 18.2008 124.601 18.4826 125.28 18.6689C126.611 19.0596 128.068 19.1213 129.617 18.4439C129.655 17.6794 129.499 16.9827 129.189 16.3719C128.859 15.7731 128.388 15.2578 127.828 14.8212ZM133.322 17.6117C134.661 16.6077 135.277 15.1986 135.376 13.6261C135.419 12.8471 135.329 12.0282 135.157 11.2057C134.978 10.3868 134.692 9.58967 134.367 8.80585C134.04 8.02929 133.636 7.312 133.25 6.64914C132.864 5.98628 132.438 5.41414 132.087 4.92546C131.733 4.43195 131.408 4.05214 131.173 3.78724C130.947 3.52718 130.811 3.38082 130.811 3.38082C130.811 3.38082 130.682 4.1598 130.56 5.31859C130.492 5.90888 130.42 6.59835 130.365 7.33378C130.339 7.70513 130.315 8.08372 130.302 8.472C130.279 8.86512 130.26 9.26671 130.255 9.67193C130.235 11.271 130.306 12.9269 130.734 14.3168C130.938 15.0244 131.232 15.6618 131.663 16.2122C132.072 16.7759 132.607 17.25 133.322 17.6117ZM134.372 25.9059C134.213 25.5974 134.031 25.2987 133.789 25.0314C133.324 24.4858 132.761 23.9972 132.142 23.575C131.524 23.1565 130.806 22.8275 130.119 22.5481C129.771 22.409 129.42 22.2844 129.081 22.1767C128.74 22.0691 128.382 21.982 128.046 21.9082C127.378 21.7534 126.757 21.6542 126.228 21.5876C125.696 21.5223 125.262 21.4897 124.943 21.48C124.622 21.4631 124.448 21.4655 124.448 21.4655C124.448 21.4655 124.52 21.5949 124.666 21.8187C124.801 22.0461 124.983 22.3739 125.243 22.7549C125.367 22.946 125.507 23.1504 125.664 23.3645C125.747 23.4722 125.829 23.5835 125.914 23.6935C125.986 23.8109 126.068 23.9258 126.153 24.0468C126.489 24.5197 126.885 25.0156 127.329 25.5043C127.74 26.0075 128.208 26.4974 128.731 26.9461C128.863 27.0586 129.002 27.1699 129.131 27.2752C129.262 27.3876 129.392 27.4893 129.531 27.5969C129.801 27.8013 130.089 27.9924 130.391 28.1618C130.987 28.5077 131.671 28.7726 132.369 28.9311C133.067 29.0859 133.829 29.1234 134.66 28.9831C134.773 28.6154 134.845 28.2513 134.86 27.8921C134.86 27.5437 134.815 27.2002 134.733 26.8687C134.652 26.5361 134.525 26.2143 134.372 25.9059ZM139.348 14.1111C139.348 14.1111 139.075 14.8381 138.684 15.9739C138.294 17.1121 137.853 18.6012 137.445 20.1881C137.245 20.9792 137.111 21.7667 136.987 22.5589C136.868 23.3549 136.811 24.1254 136.868 24.8524C136.906 25.214 136.932 25.5769 137.002 25.9253C137.072 26.2748 137.174 26.6099 137.315 26.9316C137.454 27.2522 137.63 27.557 137.849 27.8521C138.053 28.1461 138.301 28.4328 138.592 28.7001C139.373 28.3711 139.994 27.9029 140.489 27.3223C140.995 26.7417 141.307 26.0643 141.538 25.3035C141.655 24.9225 141.737 24.527 141.805 24.1157C141.86 23.7069 141.907 23.2799 141.897 22.8638C141.892 22.0195 141.805 21.1474 141.669 20.3006C141.335 18.6302 140.798 17.0408 140.267 15.9352C140.017 15.3727 139.789 14.9131 139.627 14.5926C139.457 14.2817 139.348 14.1111 139.348 14.1111ZM137.065 36.4403C136.766 35.7871 136.317 35.1702 135.823 34.6065C135.571 34.3247 135.305 34.0513 135.033 33.7997C134.757 33.5433 134.435 33.3098 134.135 33.0873C132.893 32.2055 131.645 31.5728 130.602 31.1979C129.592 30.8168 128.904 30.6524 128.904 30.6524C128.904 30.6524 129.049 31.2318 129.378 32.0761C129.522 32.5055 129.684 33.0123 129.915 33.5481C130.02 33.8142 130.147 34.0936 130.281 34.3767C130.416 34.6609 130.528 34.9573 130.677 35.25C130.949 35.8379 131.295 36.4282 131.691 36.9991C132.044 37.5737 132.47 38.124 132.97 38.6175C133.999 39.5888 135.206 40.3606 136.883 40.5178C137.088 40.1864 137.246 39.8501 137.356 39.5114C137.469 39.1655 137.492 38.8207 137.501 38.4772C137.501 37.7853 137.337 37.0971 137.065 36.4403ZM140.238 36.6519C140.068 37.3813 140.023 38.0914 140.131 38.7917C140.181 39.1425 140.293 39.4836 140.414 39.8259C140.532 40.1695 140.7 40.5106 140.913 40.8468C142.568 40.6122 143.847 39.6638 144.633 38.3018C145.044 37.622 145.357 36.8418 145.612 36.0133C145.831 35.1895 145.941 34.3223 146.016 33.455C146.046 33.022 146.075 32.5865 146.079 32.1656C146.064 31.747 146.041 31.3382 146.016 30.9451C145.954 30.1528 145.869 29.4186 145.779 28.7956C145.527 27.5679 145.289 26.7756 145.289 26.7756C145.289 26.7756 144.835 27.4264 144.204 28.44C143.895 28.9383 143.534 29.5299 143.133 30.183C142.744 30.835 142.343 31.5329 141.972 32.2526C141.619 32.9651 141.228 33.7102 140.921 34.4468C140.604 35.1908 140.382 35.9274 140.238 36.6519ZM137.256 50.5212C137.348 50.1825 137.407 49.8365 137.423 49.4882C137.433 49.135 137.383 48.7757 137.318 48.4177C137.181 47.7028 136.927 46.9903 136.595 46.313C136.513 46.1436 136.424 45.9743 136.337 45.8098C136.237 45.6453 136.127 45.4832 136.018 45.3199C135.8 44.9994 135.562 44.6873 135.325 44.3958C134.848 43.8031 134.34 43.2708 133.846 42.8088C133.608 42.5753 133.353 42.3612 133.102 42.1641C132.855 41.9717 132.616 41.7903 132.399 41.633C131.515 41.0004 130.897 40.6545 130.897 40.6545C130.897 40.6545 130.887 41.2593 130.984 42.1762C131.024 42.406 131.034 42.6552 131.048 42.9213C131.069 43.1886 131.093 43.4716 131.131 43.7656C131.197 44.3534 131.33 44.9909 131.455 45.6477C131.567 46.3033 131.732 46.9807 131.968 47.6447C132.082 47.9737 132.219 48.3052 132.373 48.6281C132.508 48.9487 132.657 49.2656 132.834 49.5668C133.529 50.78 134.591 51.836 136.183 52.3839C136.726 51.8299 137.07 51.1937 137.256 50.5212ZM143.272 45.1663C142.997 45.465 142.732 45.7759 142.478 46.0916C142.224 46.4013 141.97 46.7218 141.713 47.0387C141.222 47.6835 140.796 48.3415 140.486 49.0164C140.327 49.3503 140.21 49.6962 140.109 50.0373C139.992 50.3809 139.912 50.7292 139.873 51.0824C139.796 51.7876 139.873 52.5194 140.163 53.279C141.828 53.4363 143.22 52.7964 144.371 51.686C144.654 51.409 144.928 51.1006 145.182 50.774C145.432 50.4425 145.641 50.0845 145.849 49.7132C146.258 48.9668 146.608 48.1637 146.902 47.3472C147.061 46.9444 147.161 46.5283 147.26 46.117C147.356 45.7118 147.441 45.3126 147.515 44.9219C147.66 44.1442 147.787 43.4148 147.831 42.7894C147.904 41.5339 147.882 40.7029 147.882 40.7029C147.882 40.7029 147.269 41.2206 146.408 42.0383C145.569 42.8608 144.361 43.9615 143.272 45.1663ZM132.928 63.9876C133.568 63.54 134.031 62.9727 134.343 62.3413C134.502 62.028 134.617 61.6942 134.706 61.3543C134.788 61.0083 134.857 60.6576 134.851 60.2862C134.861 58.8093 134.435 57.2562 133.781 55.876C133.083 54.4886 132.229 53.2936 131.551 52.4565C131.208 52.0356 130.919 51.7066 130.687 51.478C130.463 51.2493 130.33 51.1247 130.33 51.1247C130.33 51.1247 130.296 51.2784 130.255 51.5481C130.193 51.8191 130.106 52.2037 130.026 52.6791C129.85 53.6226 129.767 54.9156 129.677 56.2946C129.65 56.9864 129.677 57.7062 129.772 58.4259C129.798 58.6097 129.827 58.7887 129.85 58.9641C129.871 59.1407 129.902 59.3173 129.929 59.4939C129.992 59.8496 130.081 60.1943 130.193 60.5354C130.637 61.8913 131.467 63.1493 132.928 63.9876ZM146.854 55.3148C146.941 54.9664 146.974 54.7644 146.974 54.7644C146.974 54.7644 146.296 55.1249 145.221 55.7031C144.17 56.2837 142.792 57.0893 141.489 58.0267C140.137 58.9484 138.803 59.9923 137.941 61.1934C137.729 61.497 137.512 61.797 137.333 62.1127C137.157 62.4296 137.009 62.755 136.908 63.0961C136.693 63.7759 136.635 64.5113 136.771 65.3169C138.377 65.785 139.861 65.4246 141.192 64.5718C141.526 64.3601 141.846 64.1146 142.163 63.8485C142.469 63.5812 142.781 63.2957 143.047 62.974C143.588 62.3389 144.087 61.6313 144.532 60.9092C145.456 59.477 146.016 57.9082 146.416 56.7385C146.611 56.153 146.76 55.6583 146.854 55.3148ZM129.9 67.0309C129.477 65.5298 128.863 64.1799 128.359 63.211C128.105 62.7248 127.879 62.3389 127.699 62.0655C127.52 61.7934 127.416 61.6397 127.416 61.6397C127.416 61.6397 127.354 61.7922 127.256 62.0559C127.144 62.322 126.982 62.703 126.81 63.1663C126.636 63.6344 126.445 64.1872 126.276 64.8041C126.11 65.4016 125.923 66.1685 125.875 66.6221C125.733 67.6902 125.559 68.9663 125.635 70.3126C125.722 71.6576 126.056 73.0849 127.119 74.3828C128.651 74.0284 129.65 72.8878 130.085 71.4907C130.183 71.1411 130.273 70.7807 130.31 70.4081C130.344 70.0344 130.358 69.663 130.335 69.2868C130.302 68.9106 130.25 68.5393 130.175 68.1788C130.095 67.7893 130.002 67.4035 129.9 67.0309ZM139.633 73.7708C139.8 73.5712 139.962 73.3656 140.123 73.1612L140.355 72.8515L140.541 72.5999C140.776 72.2733 141 71.9467 141.208 71.6286C141.626 70.9912 141.989 70.3803 142.287 69.8553C142.578 69.3268 142.806 68.884 142.959 68.5695C143.107 68.249 143.178 68.0591 143.178 68.0591C143.178 68.0591 142.438 68.2732 141.289 68.6336C140.155 68.9941 138.661 69.5227 137.211 70.2049C136.842 70.3767 136.484 70.5545 136.127 70.7529C135.746 70.9694 135.368 71.1907 135.01 71.4109C134.648 71.6322 134.288 71.8463 133.954 72.0786C133.617 72.3047 133.282 72.5261 132.984 72.7729C131.761 73.7272 130.852 74.8231 130.477 76.4392C131.822 77.448 133.399 77.6197 135.024 77.0972C136.639 76.5867 138.297 75.3687 139.633 73.7708ZM117.743 82.0468C119.328 82.1315 120.612 81.3671 121.532 80.2034C122.44 79.0362 122.992 77.4891 123.209 75.9795C123.433 74.4615 123.36 73.0136 123.184 71.9576C123.104 71.4314 123.009 71.0032 122.929 70.702C122.852 70.4033 122.795 70.2364 122.795 70.2364C122.795 70.2364 122.698 70.3343 122.529 70.5206C122.353 70.7008 122.108 70.9657 121.824 71.302C121.234 71.9673 120.434 72.889 119.641 73.9716C118.859 75.0578 118.084 76.3 117.639 77.6572C117.209 79.0204 117.097 80.4973 117.743 82.0468ZM128.854 81.2521C127.184 81.309 125.478 81.4239 124.028 81.8702C122.571 82.3214 121.353 83.098 120.559 84.5253C121.553 85.8752 122.989 86.5006 124.6 86.5731C126.216 86.653 128.004 86.1837 129.64 85.4398C131.277 84.6995 132.761 83.6895 133.807 82.8222C134.334 82.3964 134.753 82.0033 135.042 81.7324C135.33 81.4505 135.483 81.2836 135.483 81.2836C135.483 81.2836 134.683 81.2691 133.413 81.2461C132.171 81.24 130.518 81.2038 128.854 81.2521ZM108.295 87.4126C109.005 87.2783 109.666 86.9397 110.267 86.4982C111.46 85.597 112.373 84.2241 113.002 82.8174C113.633 81.4082 113.974 79.9603 114.16 78.8801C114.249 78.3382 114.299 77.8871 114.332 77.5726C114.36 77.2593 114.369 77.0766 114.369 77.0766C114.369 77.0766 113.809 77.3754 112.993 77.8883C112.171 78.4035 111.088 79.1232 110.022 79.9869C108.966 80.8517 107.934 81.8557 107.21 83.0181C106.487 84.1854 106.031 85.5184 106.074 87.2046C106.812 87.5166 107.577 87.5541 108.295 87.4126ZM116.97 93.2005C118.733 92.8969 120.359 92.3308 121.532 91.8276C122.698 91.3268 123.428 90.9083 123.428 90.9083C123.428 90.9083 122.684 90.6096 121.538 90.2285C120.393 89.8378 118.864 89.354 117.249 88.9585C115.636 88.5702 113.957 88.2787 112.411 88.3488C111.634 88.3827 110.899 88.5158 110.186 88.7698C109.47 89.0238 108.805 89.4169 108.076 89.9649C108.544 91.5785 109.96 92.5994 111.621 93.0675C113.29 93.5489 115.207 93.5114 116.97 93.2005ZM60.4345 79.1729C64.8302 82.821 70.1911 85.3164 75.4517 87.4404C79.7554 89.181 85.2784 92.0224 90.9018 94.6726C85.8481 96.2463 80.8597 97.5321 76.8487 98.2046C76.3213 98.2893 79.0188 101.039 79.528 100.884C84.1849 99.4819 88.9096 97.7813 93.5689 95.9028C98.6589 98.2143 103.685 100.197 107.822 100.889C108.344 100.976 109.964 98.2058 109.442 98.1187C105.521 97.4619 100.966 96.2959 96.224 94.8093C104.034 91.5289 111.554 87.8166 118.057 84.2797C125.115 80.4344 130.414 74.9755 133.898 67.7192C137.126 60.9999 139.404 53.5693 139.74 46.1061C140.204 35.7702 136.732 25.6325 131.348 16.9186C129.772 14.3688 128.009 11.8238 126.054 9.46024C126.228 8.80585 126.249 8.16839 126.136 7.56722C126.004 6.85477 125.727 6.17014 125.301 5.55929C124.483 4.30494 123.156 3.29856 121.8 2.54619C120.433 1.79866 119.012 1.32814 117.952 1.07412C117.419 0.942275 116.978 0.872125 116.672 0.82737C116.52 0.808017 116.398 0.794703 116.319 0.792283C116.246 0.785026 116.207 0.78503 116.207 0.78503C116.207 0.78503 116.221 0.822514 116.251 0.892671C116.291 0.961618 116.338 1.06928 116.406 1.20354C116.545 1.47933 116.745 1.86398 116.999 2.33451C117.504 3.26832 118.194 4.49848 119.007 5.6984C119.407 6.30199 119.868 6.87655 120.338 7.4245C120.573 7.69182 120.827 7.94945 121.091 8.18411C121.345 8.42845 121.613 8.65223 121.898 8.84939C122.469 9.23525 123.069 9.55459 123.743 9.72636C124.254 9.85094 124.793 9.90659 125.372 9.87272C129.125 14.3107 132.196 19.466 134.537 24.6407C137.512 31.2305 139.099 38.4119 138.929 45.6489C138.747 53.5379 136.115 61.5454 132.578 68.5526C129.824 74.0043 125.814 78.4519 120.687 81.771C116.1 84.7346 111.069 86.9578 106.069 89.1206C102.325 90.7438 97.8775 92.407 93.3681 93.8864C83.7107 90.6616 73.6167 86.2962 66.6216 82.3468C62.9637 80.2869 59.6567 77.7564 56.9182 74.5619C54.1833 71.3697 52.2092 67.5813 50.6259 63.7118C47.6224 56.3708 45.7174 48.7745 46.1831 40.8009C46.7286 31.5015 50.3816 22.6073 55.4716 14.8962C56.7767 12.9209 58.1931 10.9493 59.7305 9.09374C60.2857 9.12156 60.8058 9.0635 61.3042 8.94254C61.9767 8.77078 62.5743 8.45265 63.15 8.06558C63.427 7.86842 63.7004 7.64464 63.9545 7.40272C64.2194 7.16806 64.4722 6.91163 64.7068 6.64068C65.1846 6.09274 65.6334 5.52181 66.0398 4.91459C66.8539 3.71709 67.5409 2.48209 68.0429 1.5507C68.2945 1.08258 68.5001 0.689471 68.6331 0.417312C68.7033 0.283047 68.7553 0.176599 68.7928 0.104023C68.8195 0.0374957 68.8327 0 68.8327 0C68.8327 0 68.7976 -1.32902e-06 68.7226 0.00241786C68.6428 0.00725624 68.5255 0.0241963 68.3743 0.0423403C68.0659 0.0846761 67.6244 0.159665 67.0946 0.289091C66.0338 0.543106 64.6136 1.01363 63.2444 1.75875C61.8872 2.51353 60.5627 3.5187 59.7414 4.77426C59.318 5.38874 59.0338 6.07216 58.9116 6.77978C58.7943 7.37006 58.8148 7.99543 58.9793 8.64015C55.3856 12.9088 52.4149 17.8246 50.1106 22.7476C47.2693 28.8319 45.5529 35.4157 45.2916 42.1375C44.9977 49.8595 47.0987 57.2586 50.0006 64.3396C52.3351 70.038 55.6675 75.2175 60.4345 79.1729ZM63.4077 15.9848C63.946 15.5941 64.4588 15.1998 64.8967 14.8018C65.3479 14.4111 65.7579 14.0494 66.0821 13.7216C66.4087 13.3926 66.6905 13.1265 66.8768 12.9318C67.0631 12.7407 67.1611 12.627 67.1611 12.627C67.1611 12.627 66.4668 12.4721 65.3854 12.3657C64.8447 12.3137 64.2206 12.2859 63.5323 12.2907C62.8428 12.2955 62.1001 12.3379 61.3659 12.4576C59.8721 12.6766 58.3686 13.1846 57.2194 14.0349C56.6618 14.474 56.1913 14.9893 55.8623 15.5868C55.5538 16.1977 55.3941 16.8944 55.4316 17.6589C56.9763 18.3314 58.4375 18.2733 59.768 17.8851C60.4478 17.694 61.0901 17.417 61.6852 17.0807C62.2948 16.7565 62.8803 16.3864 63.4077 15.9848ZM51.7254 16.8315C52.4427 16.4698 52.9725 15.9921 53.3814 15.4296C53.8156 14.8816 54.1132 14.2418 54.3128 13.5317C54.7458 12.1468 54.8135 10.4884 54.7978 8.88931C54.793 8.4841 54.7736 8.08251 54.7506 7.68697C54.7361 7.30111 54.7107 6.92009 54.6841 6.55359C54.6285 5.81331 54.5547 5.12505 54.4894 4.53476C54.3696 3.37113 54.2378 2.597 54.2378 2.597C54.2378 2.597 54.1035 2.7482 53.8713 3.00584C53.6427 3.26712 53.3184 3.64813 52.9628 4.14165C52.606 4.63274 52.1863 5.20005 51.7943 5.86533C51.4133 6.52939 51.0081 7.24306 50.684 8.02204C50.3646 8.80465 50.0707 9.60177 49.8941 10.4231C49.7151 11.2432 49.6328 12.0621 49.6703 12.8386C49.7707 14.416 50.3912 15.8227 51.7254 16.8315ZM60.3861 21.0373C60.5264 20.8111 60.6027 20.6816 60.6027 20.6816C60.6027 20.6816 60.4212 20.6817 60.1091 20.6913C59.7886 20.7034 59.3519 20.7361 58.8209 20.805C58.2911 20.8704 57.673 20.972 56.998 21.1244C56.6666 21.203 56.3086 21.284 55.9699 21.3929C55.6312 21.5006 55.2829 21.6227 54.9333 21.7618C54.2438 22.0424 53.5289 22.3787 52.906 22.79C52.2891 23.2133 51.723 23.6984 51.2585 24.2476C51.019 24.5161 50.8376 24.8148 50.6804 25.1245C50.528 25.4305 50.4058 25.7511 50.3162 26.0837C50.234 26.4163 50.1893 26.7587 50.1893 27.1095C50.2062 27.4663 50.2764 27.8316 50.3937 28.2005C51.2138 28.3372 51.9843 28.2997 52.6846 28.1449C53.3789 27.9864 54.0588 27.7263 54.6587 27.3828C54.9623 27.2111 55.2442 27.0187 55.5187 26.8119C55.6603 26.7103 55.7872 26.6002 55.9142 26.4913C56.0497 26.3861 56.184 26.2748 56.3134 26.1623C56.8408 25.7124 57.3065 25.2188 57.7202 24.7181C58.1605 24.233 58.5621 23.7347 58.8984 23.2605C58.9806 23.1456 59.058 23.0259 59.1379 22.9122C59.2249 22.7972 59.3023 22.6884 59.3846 22.5795C59.537 22.3654 59.6834 22.1586 59.8056 21.9699C60.0584 21.5864 60.2495 21.2598 60.3861 21.0373ZM47.1931 27.0659C47.4169 26.7768 47.5935 26.4684 47.735 26.1454C47.8741 25.8237 47.9769 25.4898 48.0446 25.139C48.1148 24.7943 48.1414 24.4302 48.1813 24.0673C48.2321 23.3404 48.1813 22.5686 48.0579 21.7739C47.9382 20.9816 47.8039 20.1954 47.5971 19.4007C47.1919 17.8173 46.7528 16.3283 46.3621 15.1901C45.969 14.0543 45.6992 13.3273 45.6992 13.3273C45.6992 13.3273 45.5915 13.4967 45.4222 13.8124C45.2553 14.1293 45.0291 14.5853 44.78 15.1478C44.2429 16.263 43.7142 17.8512 43.378 19.518C43.2389 20.3672 43.1506 21.2369 43.1506 22.0799C43.1409 22.4985 43.1833 22.9242 43.2498 23.3331C43.3115 23.7443 43.3925 24.1399 43.5062 24.5185C43.736 25.2805 44.0542 25.9555 44.5574 26.5373C45.0533 27.1203 45.6787 27.5884 46.4504 27.9175C46.748 27.6477 46.9923 27.3635 47.1931 27.0659ZM52.0774 37.8277C52.5806 37.339 53.0039 36.7874 53.3571 36.2116C53.7466 35.6419 54.0974 35.0541 54.3732 34.4614C54.5184 34.1699 54.6272 33.8759 54.7675 33.5941C54.9018 33.3098 55.0264 33.0316 55.1353 32.7631C55.3627 32.2248 55.5199 31.7216 55.6711 31.2934C56.0001 30.4419 56.1393 29.8673 56.1393 29.8673C56.1393 29.8673 55.4571 30.0343 54.441 30.4153C53.4032 30.7866 52.1548 31.4192 50.915 32.301C50.6114 32.5224 50.2921 32.757 50.0163 33.0159C49.7405 33.2675 49.4731 33.536 49.224 33.8179C48.7329 34.3852 48.2817 35.0021 47.9842 35.6552C47.7048 36.3108 47.5475 36.9979 47.5475 37.6898C47.5499 38.0333 47.5777 38.3792 47.6866 38.7191C47.8039 39.0627 47.9539 39.4013 48.1668 39.7304C49.8469 39.5779 51.0505 38.8038 52.0774 37.8277ZM43.0768 31.4676C42.7043 30.7503 42.3027 30.0512 41.912 29.4004C41.508 28.7436 41.1451 28.1533 40.8415 27.655C40.2137 26.6486 39.7577 25.9894 39.7577 25.9894C39.7577 25.9894 39.5206 26.7817 39.2714 28.0118C39.1771 28.6384 39.09 29.369 39.032 30.1588C39.0017 30.5556 38.9775 30.9656 38.969 31.3842C38.969 31.8051 38.9969 32.2381 39.032 32.6712C39.1094 33.5336 39.2194 34.4069 39.4384 35.2295C39.6851 36.058 40.0045 36.8382 40.4145 37.5156C41.2044 38.88 42.4805 39.8271 44.1352 40.0606C44.3517 39.7243 44.5114 39.3856 44.6336 39.0421C44.7509 38.6974 44.8658 38.3551 44.9142 38.0091C45.0291 37.31 44.9759 36.5927 44.8065 35.8657C44.6674 35.1387 44.4437 34.4045 44.1316 33.6642C43.8183 32.9288 43.4325 32.1825 43.0768 31.4676ZM48.8635 51.6038C50.4554 51.0534 51.521 49.9962 52.2202 48.783C52.3968 48.4769 52.5467 48.1649 52.6786 47.8431C52.8334 47.5214 52.9677 47.1912 53.085 46.8597C53.3185 46.1969 53.4854 45.5219 53.5955 44.8651C53.7225 44.2107 53.8567 43.5732 53.9208 42.9842C53.9583 42.6902 53.9814 42.4072 54.0031 42.1399C54.0201 41.8738 54.0297 41.6222 54.0623 41.3911C54.1664 40.4767 54.1495 39.8743 54.1495 39.8743C54.1495 39.8743 53.5301 40.2154 52.6508 40.8505C52.4342 41.0053 52.1971 41.1867 51.9492 41.3815C51.6976 41.5786 51.4436 41.7939 51.2041 42.0262C50.713 42.4895 50.2049 43.0241 49.7247 43.6107C49.4852 43.9071 49.2566 44.2155 49.0305 44.5349C48.9252 44.6945 48.8187 44.8615 48.7171 45.026C48.6228 45.1905 48.5345 45.3598 48.4535 45.5292C48.1245 46.2065 47.868 46.9166 47.7289 47.6351C47.6673 47.9919 47.6188 48.3512 47.6273 48.7019C47.6466 49.0527 47.6999 49.4011 47.7918 49.7349C47.9805 50.4111 48.3241 51.0485 48.8635 51.6038ZM39.2013 48.9293C39.4057 49.2983 39.6198 49.6587 39.8666 49.9902C40.1206 50.3167 40.3963 50.6203 40.6806 50.901C41.8309 52.015 43.2159 52.6561 44.8888 52.4976C45.1706 51.7332 45.2553 51.0026 45.1755 50.2986C45.1331 49.9454 45.0533 49.5982 44.9432 49.2571C44.8355 48.9112 44.7194 48.5701 44.5622 48.2362C44.2537 47.5613 43.8256 46.8996 43.3345 46.2585C43.0781 45.9416 42.8264 45.6211 42.5748 45.3054C42.3184 44.9921 42.0547 44.6849 41.7837 44.3861C40.6903 43.1789 39.4819 42.0782 38.6413 41.2532C37.7788 40.4368 37.1668 39.9166 37.1668 39.9166C37.1668 39.9166 37.1462 40.7488 37.2187 42.0056C37.2611 42.631 37.3905 43.3579 37.5357 44.1393C37.6058 44.5288 37.6941 44.9316 37.7921 45.3393C37.8876 45.7433 37.9868 46.1594 38.1441 46.5646C38.4404 47.3762 38.7913 48.183 39.2013 48.9293ZM50.7045 61.5587C51.0166 62.1913 51.4786 62.7514 52.1161 63.2001C53.5773 62.3631 54.4131 61.1088 54.8558 59.7504C54.9683 59.4093 55.0506 59.0609 55.1171 58.7065C55.151 58.5347 55.1788 58.3557 55.1994 58.1815C55.2223 58.0025 55.2538 57.8211 55.2816 57.6408C55.3735 56.9211 55.3954 56.2014 55.3736 55.5095C55.2817 54.133 55.1994 52.8351 55.0228 51.8892C54.9454 51.4187 54.8559 51.0316 54.7978 50.7631C54.7506 50.4909 54.7228 50.3421 54.7228 50.3421C54.7228 50.3421 54.5885 50.4643 54.3647 50.6929C54.1301 50.9215 53.8386 51.2481 53.4999 51.6667C52.8165 52.5073 51.9625 53.7036 51.273 55.0934C50.615 56.4699 50.1941 58.0219 50.2014 59.4988C50.1989 59.8725 50.257 60.2257 50.3441 60.5656C50.4275 60.9128 50.5485 61.2442 50.7045 61.5587ZM42.0015 62.1889C42.2651 62.5143 42.5736 62.7961 42.8906 63.0647C43.2014 63.3332 43.5232 63.5727 43.857 63.788C45.1888 64.642 46.6681 65.0024 48.2769 64.5319C48.4124 63.7275 48.3518 62.9909 48.1402 62.3087C48.0373 61.9724 47.891 61.6434 47.7096 61.3277C47.5378 61.0108 47.3152 60.7132 47.1108 60.4084C46.2459 59.2061 44.9094 58.167 43.5643 57.2405C42.2592 56.3042 40.8826 55.4999 39.8291 54.9168C38.7537 54.3399 38.074 53.9806 38.074 53.9806C38.074 53.9806 38.1066 54.185 38.1961 54.5334C38.288 54.8781 38.4344 55.3668 38.6316 55.9547C39.032 57.1243 39.5907 58.6932 40.5173 60.1217C40.9648 60.8451 41.4644 61.5551 42.0015 62.1889ZM54.9635 70.7093C55.3941 72.1016 56.4005 73.247 57.927 73.6002C58.9927 72.2975 59.3265 70.8738 59.4136 69.5287C59.491 68.1837 59.3168 66.9088 59.1741 65.8383C59.1221 65.3847 58.9407 64.6202 58.7737 64.0202C58.602 63.4046 58.4121 62.8482 58.2379 62.3849C58.0661 61.9168 57.9041 61.5382 57.7903 61.2745C57.6948 61.006 57.6355 60.8559 57.6355 60.8559C57.6355 60.8559 57.5218 61.0072 57.3476 61.2793C57.1613 61.5551 56.9461 61.9421 56.6872 62.4272C56.1816 63.3937 55.5719 64.7484 55.1486 66.2471C55.0397 66.6233 54.949 67.0068 54.8728 67.395C54.8002 67.7579 54.7433 68.1292 54.7083 68.5054C54.6913 68.8792 54.7034 69.2517 54.7385 69.6279C54.7784 69.998 54.8655 70.3561 54.9635 70.7093ZM43.7542 67.8438C42.6111 67.4857 41.8697 67.2741 41.8697 67.2741C41.8697 67.2741 41.9398 67.4627 42.0838 67.7821C42.2398 68.0954 42.4696 68.5417 42.7635 69.0691C43.0599 69.5941 43.4204 70.2037 43.8389 70.8423C44.0481 71.1629 44.2719 71.4895 44.509 71.8185L44.6965 72.0701L44.9275 72.3786C45.092 72.583 45.2541 72.7874 45.4138 72.9894C46.7528 74.5812 48.4027 75.8005 50.0259 76.3097C51.6516 76.8311 53.2265 76.6654 54.5728 75.6517C54.1966 74.0405 53.2883 72.9422 52.0629 71.9854C51.7642 71.7411 51.4303 71.5221 51.0965 71.2911C50.7626 71.0625 50.4034 70.846 50.0405 70.6307C49.6788 70.4021 49.3074 70.1831 48.924 69.9678C48.5611 69.7694 48.2091 69.5941 47.8414 69.4211C46.3887 68.7352 44.8973 68.2079 43.7542 67.8438ZM63.5202 79.4208C64.4347 80.582 65.7144 81.3465 67.3074 81.2642C67.9521 79.7147 67.842 78.2318 67.403 76.8722C66.9651 75.5174 66.1897 74.2728 65.4059 73.189C64.616 72.1052 63.8166 71.1798 63.2263 70.517C62.9372 70.1831 62.6904 69.917 62.5138 69.7368C62.3493 69.5505 62.2501 69.455 62.2501 69.455C62.2501 69.455 62.1932 69.6195 62.1134 69.9182C62.036 70.2194 61.9465 70.6464 61.8618 71.1738C61.69 72.2298 61.615 73.6788 61.84 75.1957C62.0626 76.704 62.6033 78.2535 63.5202 79.4208ZM60.449 85.7917C62.0626 85.7143 63.4924 85.095 64.4964 83.7451C63.6968 82.313 62.4763 81.5388 61.0199 81.0876C59.5636 80.6413 57.8654 80.5203 56.1961 80.4695C54.5305 80.4199 52.877 80.4586 51.6383 80.4623C50.3634 80.4889 49.5663 80.4974 49.5663 80.4974C49.5663 80.4974 49.7187 80.6715 50.0078 80.951C50.2945 81.2171 50.7154 81.6126 51.2355 82.0408C52.2867 82.9057 53.7709 83.9205 55.4087 84.6584C57.0477 85.3999 58.833 85.8692 60.449 85.7917ZM72.049 82.0287C72.6744 83.4379 73.5864 84.8156 74.7851 85.7143C75.3791 86.1558 76.0455 86.4933 76.7604 86.6312C77.4729 86.7703 78.2349 86.7328 78.98 86.4195C79.0151 84.7334 78.5567 83.3992 77.8345 82.2307C77.11 81.0707 76.0843 80.0643 75.0235 79.2019C73.9627 78.3419 72.874 77.6185 72.0551 77.1069C71.2374 76.5916 70.6774 76.2904 70.6774 76.2904C70.6774 76.2904 70.6822 76.4766 70.7149 76.7911C70.7451 77.1068 70.7995 77.558 70.8866 78.0987C71.0705 79.1753 71.414 80.6219 72.049 82.0287Z" fill="#BDBDBD"/>
<path d="M76.9733 89.1835C76.2439 88.6307 75.5738 88.24 74.8613 87.9835C74.1441 87.7344 73.4147 87.5977 72.6369 87.565C71.091 87.4961 69.4073 87.7839 67.7985 88.1734C66.1849 88.5714 64.6536 89.0504 63.5057 89.4435C62.365 89.8245 61.6199 90.1185 61.6199 90.1185C61.6199 90.1185 62.3481 90.5418 63.5202 91.0426C64.6911 91.541 66.3143 92.1107 68.0828 92.4155C69.8379 92.7239 71.7563 92.7614 73.4268 92.2812C75.0876 91.8131 76.5028 90.7946 76.9733 89.1835ZM127.828 14.8212C126.68 13.9672 125.178 13.4567 123.684 13.239C122.948 13.1193 122.205 13.0757 121.515 13.0721C120.828 13.0697 120.203 13.0963 119.665 13.1495C118.58 13.2596 117.889 13.4084 117.889 13.4084C117.889 13.4084 117.986 13.5233 118.171 13.7168C118.357 13.9128 118.641 14.1752 118.962 14.5091C119.291 14.8357 119.707 15.1973 120.155 15.588C120.59 15.9812 121.103 16.3803 121.639 16.771C122.169 17.169 122.754 17.5403 123.366 17.8645C123.966 18.2008 124.601 18.4826 125.28 18.6689C126.611 19.0596 128.068 19.1213 129.617 18.4439C129.655 17.6794 129.499 16.9827 129.189 16.3719C128.859 15.7731 128.388 15.2578 127.828 14.8212ZM133.322 17.6117C134.661 16.6077 135.277 15.1986 135.376 13.6261C135.419 12.8471 135.329 12.0282 135.157 11.2057C134.978 10.3868 134.692 9.58967 134.367 8.80585C134.04 8.02929 133.636 7.312 133.25 6.64914C132.864 5.98628 132.438 5.41414 132.087 4.92546C131.733 4.43195 131.408 4.05214 131.173 3.78724C130.947 3.52718 130.811 3.38082 130.811 3.38082C130.811 3.38082 130.682 4.1598 130.56 5.31859C130.492 5.90888 130.42 6.59835 130.365 7.33378C130.339 7.70513 130.315 8.08372 130.302 8.472C130.279 8.86512 130.26 9.26671 130.255 9.67193C130.235 11.271 130.306 12.9269 130.734 14.3168C130.938 15.0244 131.232 15.6618 131.663 16.2122C132.072 16.7759 132.607 17.25 133.322 17.6117ZM134.372 25.9059C134.213 25.5974 134.031 25.2987 133.789 25.0314C133.324 24.4858 132.761 23.9972 132.142 23.575C131.524 23.1565 130.806 22.8275 130.119 22.5481C129.771 22.409 129.42 22.2844 129.081 22.1767C128.74 22.0691 128.382 21.982 128.046 21.9082C127.378 21.7534 126.757 21.6542 126.228 21.5876C125.696 21.5223 125.262 21.4897 124.943 21.48C124.622 21.4631 124.448 21.4655 124.448 21.4655C124.448 21.4655 124.52 21.5949 124.666 21.8187C124.801 22.0461 124.983 22.3739 125.243 22.7549C125.367 22.946 125.507 23.1504 125.664 23.3645C125.747 23.4722 125.829 23.5835 125.914 23.6935C125.986 23.8109 126.068 23.9258 126.153 24.0468C126.489 24.5197 126.885 25.0156 127.329 25.5043C127.74 26.0075 128.208 26.4974 128.731 26.9461C128.863 27.0586 129.002 27.1699 129.131 27.2752C129.262 27.3876 129.392 27.4893 129.531 27.5969C129.801 27.8013 130.089 27.9924 130.391 28.1618C130.987 28.5077 131.671 28.7726 132.369 28.9311C133.067 29.0859 133.829 29.1234 134.66 28.9831C134.773 28.6154 134.845 28.2513 134.86 27.8921C134.86 27.5437 134.815 27.2002 134.733 26.8687C134.652 26.5361 134.525 26.2143 134.372 25.9059ZM139.348 14.1111C139.348 14.1111 139.075 14.8381 138.684 15.9739C138.294 17.1121 137.853 18.6012 137.445 20.1881C137.245 20.9792 137.111 21.7667 136.987 22.5589C136.868 23.3549 136.811 24.1254 136.868 24.8524C136.906 25.214 136.932 25.5769 137.002 25.9253C137.072 26.2748 137.174 26.6099 137.315 26.9316C137.454 27.2522 137.63 27.557 137.849 27.8521C138.053 28.1461 138.301 28.4328 138.592 28.7001C139.373 28.3711 139.994 27.9029 140.489 27.3223C140.995 26.7417 141.307 26.0643 141.538 25.3035C141.655 24.9225 141.737 24.527 141.805 24.1157C141.86 23.7069 141.907 23.2799 141.897 22.8638C141.892 22.0195 141.805 21.1474 141.669 20.3006C141.335 18.6302 140.798 17.0408 140.267 15.9352C140.017 15.3727 139.789 14.9131 139.627 14.5926C139.457 14.2817 139.348 14.1111 139.348 14.1111ZM137.065 36.4403C136.766 35.7871 136.317 35.1702 135.823 34.6065C135.571 34.3247 135.305 34.0513 135.033 33.7997C134.757 33.5433 134.435 33.3098 134.135 33.0873C132.893 32.2055 131.645 31.5728 130.602 31.1979C129.592 30.8168 128.904 30.6524 128.904 30.6524C128.904 30.6524 129.049 31.2318 129.378 32.0761C129.522 32.5055 129.684 33.0123 129.915 33.5481C130.02 33.8142 130.147 34.0936 130.281 34.3767C130.416 34.6609 130.528 34.9573 130.677 35.25C130.949 35.8379 131.295 36.4282 131.691 36.9991C132.044 37.5737 132.47 38.124 132.97 38.6175C133.999 39.5888 135.206 40.3606 136.883 40.5178C137.088 40.1864 137.246 39.8501 137.356 39.5114C137.469 39.1655 137.492 38.8207 137.501 38.4772C137.501 37.7853 137.337 37.0971 137.065 36.4403ZM140.238 36.6519C140.068 37.3813 140.023 38.0914 140.131 38.7917C140.181 39.1425 140.293 39.4836 140.414 39.8259C140.532 40.1695 140.7 40.5106 140.913 40.8468C142.568 40.6122 143.847 39.6638 144.633 38.3018C145.044 37.622 145.357 36.8418 145.612 36.0133C145.831 35.1895 145.941 34.3223 146.016 33.455C146.046 33.022 146.075 32.5865 146.079 32.1656C146.064 31.747 146.041 31.3382 146.016 30.9451C145.954 30.1528 145.869 29.4186 145.779 28.7956C145.527 27.5679 145.289 26.7756 145.289 26.7756C145.289 26.7756 144.835 27.4264 144.204 28.44C143.895 28.9383 143.534 29.5299 143.133 30.183C142.744 30.835 142.343 31.5329 141.972 32.2526C141.619 32.9651 141.228 33.7102 140.921 34.4468C140.604 35.1908 140.382 35.9274 140.238 36.6519ZM137.256 50.5212C137.348 50.1825 137.407 49.8365 137.423 49.4882C137.433 49.135 137.383 48.7757 137.318 48.4177C137.181 47.7028 136.927 46.9903 136.595 46.313C136.513 46.1436 136.424 45.9743 136.337 45.8098C136.237 45.6453 136.127 45.4832 136.018 45.3199C135.8 44.9994 135.562 44.6873 135.325 44.3958C134.848 43.8031 134.34 43.2708 133.846 42.8088C133.608 42.5753 133.353 42.3612 133.102 42.1641C132.855 41.9717 132.616 41.7903 132.399 41.633C131.515 41.0004 130.897 40.6545 130.897 40.6545C130.897 40.6545 130.887 41.2593 130.984 42.1762C131.024 42.406 131.034 42.6552 131.048 42.9213C131.069 43.1886 131.093 43.4716 131.131 43.7656C131.197 44.3534 131.33 44.9909 131.455 45.6477C131.567 46.3033 131.732 46.9807 131.968 47.6447C132.082 47.9737 132.219 48.3052 132.373 48.6281C132.508 48.9487 132.657 49.2656 132.834 49.5668C133.529 50.78 134.591 51.836 136.183 52.3839C136.726 51.8299 137.07 51.1937 137.256 50.5212ZM143.272 45.1663C142.997 45.465 142.732 45.7759 142.478 46.0916C142.224 46.4013 141.97 46.7218 141.713 47.0387C141.222 47.6835 140.796 48.3415 140.486 49.0164C140.327 49.3503 140.21 49.6962 140.109 50.0373C139.992 50.3809 139.912 50.7292 139.873 51.0824C139.796 51.7876 139.873 52.5194 140.163 53.279C141.828 53.4363 143.22 52.7964 144.371 51.686C144.654 51.409 144.928 51.1006 145.182 50.774C145.432 50.4425 145.641 50.0845 145.849 49.7132C146.258 48.9668 146.608 48.1637 146.902 47.3472C147.061 46.9444 147.161 46.5283 147.26 46.117C147.356 45.7118 147.441 45.3126 147.515 44.9219C147.66 44.1442 147.787 43.4148 147.831 42.7894C147.904 41.5339 147.882 40.7029 147.882 40.7029C147.882 40.7029 147.269 41.2206 146.408 42.0383C145.569 42.8608 144.361 43.9615 143.272 45.1663ZM132.928 63.9876C133.568 63.54 134.031 62.9727 134.343 62.3413C134.502 62.028 134.617 61.6942 134.706 61.3543C134.788 61.0083 134.857 60.6576 134.851 60.2862C134.861 58.8093 134.435 57.2562 133.781 55.876C133.083 54.4886 132.229 53.2936 131.551 52.4565C131.208 52.0356 130.919 51.7066 130.687 51.478C130.463 51.2493 130.33 51.1247 130.33 51.1247C130.33 51.1247 130.296 51.2784 130.255 51.5481C130.193 51.8191 130.106 52.2037 130.026 52.6791C129.85 53.6226 129.767 54.9156 129.677 56.2946C129.65 56.9864 129.677 57.7062 129.772 58.4259C129.798 58.6097 129.827 58.7887 129.85 58.9641C129.871 59.1407 129.902 59.3173 129.929 59.4939C129.992 59.8496 130.081 60.1943 130.193 60.5354C130.637 61.8913 131.467 63.1493 132.928 63.9876ZM146.854 55.3148C146.941 54.9664 146.974 54.7644 146.974 54.7644C146.974 54.7644 146.296 55.1249 145.221 55.7031C144.17 56.2837 142.792 57.0893 141.489 58.0267C140.137 58.9484 138.803 59.9923 137.941 61.1934C137.729 61.497 137.512 61.797 137.333 62.1127C137.157 62.4296 137.009 62.755 136.908 63.0961C136.693 63.7759 136.635 64.5113 136.771 65.3169C138.377 65.785 139.861 65.4246 141.192 64.5718C141.526 64.3601 141.846 64.1146 142.163 63.8485C142.469 63.5812 142.781 63.2957 143.047 62.974C143.588 62.3389 144.087 61.6313 144.532 60.9092C145.456 59.477 146.016 57.9082 146.416 56.7385C146.611 56.153 146.76 55.6583 146.854 55.3148ZM129.9 67.0309C129.477 65.5298 128.863 64.1799 128.359 63.211C128.105 62.7248 127.879 62.3389 127.699 62.0655C127.52 61.7934 127.416 61.6397 127.416 61.6397C127.416 61.6397 127.354 61.7922 127.256 62.0559C127.144 62.322 126.982 62.703 126.81 63.1663C126.636 63.6344 126.445 64.1872 126.276 64.8041C126.11 65.4016 125.923 66.1685 125.875 66.6221C125.733 67.6902 125.559 68.9663 125.635 70.3126C125.722 71.6576 126.056 73.0849 127.119 74.3828C128.651 74.0284 129.65 72.8878 130.085 71.4907C130.183 71.1411 130.273 70.7807 130.31 70.4081C130.344 70.0344 130.358 69.663 130.335 69.2868C130.302 68.9106 130.25 68.5393 130.175 68.1788C130.095 67.7893 130.002 67.4035 129.9 67.0309ZM139.633 73.7708C139.8 73.5712 139.962 73.3656 140.123 73.1612L140.355 72.8515L140.541 72.5999C140.776 72.2733 141 71.9467 141.208 71.6286C141.626 70.9912 141.989 70.3803 142.287 69.8553C142.578 69.3268 142.806 68.884 142.959 68.5695C143.107 68.249 143.178 68.0591 143.178 68.0591C143.178 68.0591 142.438 68.2732 141.289 68.6336C140.155 68.9941 138.661 69.5227 137.211 70.2049C136.842 70.3767 136.484 70.5545 136.127 70.7529C135.746 70.9694 135.368 71.1907 135.01 71.4109C134.648 71.6322 134.288 71.8463 133.954 72.0786C133.617 72.3047 133.282 72.5261 132.984 72.7729C131.761 73.7272 130.852 74.8231 130.477 76.4392C131.822 77.448 133.399 77.6197 135.024 77.0972C136.639 76.5867 138.297 75.3687 139.633 73.7708ZM117.743 82.0468C119.328 82.1315 120.612 81.3671 121.532 80.2034C122.44 79.0362 122.992 77.4891 123.209 75.9795C123.433 74.4615 123.36 73.0136 123.184 71.9576C123.104 71.4314 123.009 71.0032 122.929 70.702C122.852 70.4033 122.795 70.2364 122.795 70.2364C122.795 70.2364 122.698 70.3343 122.529 70.5206C122.353 70.7008 122.108 70.9657 121.824 71.302C121.234 71.9673 120.434 72.889 119.641 73.9716C118.859 75.0578 118.084 76.3 117.639 77.6572C117.209 79.0204 117.097 80.4973 117.743 82.0468ZM128.854 81.2521C127.184 81.309 125.478 81.4239 124.028 81.8702C122.571 82.3214 121.353 83.098 120.559 84.5253C121.553 85.8752 122.989 86.5006 124.6 86.5731C126.216 86.653 128.004 86.1837 129.64 85.4398C131.277 84.6995 132.761 83.6895 133.807 82.8222C134.334 82.3964 134.753 82.0033 135.042 81.7324C135.33 81.4505 135.483 81.2836 135.483 81.2836C135.483 81.2836 134.683 81.2691 133.413 81.2461C132.171 81.24 130.518 81.2038 128.854 81.2521ZM108.295 87.4126C109.005 87.2783 109.666 86.9397 110.267 86.4982C111.46 85.597 112.373 84.2241 113.002 82.8174C113.633 81.4082 113.974 79.9603 114.16 78.8801C114.249 78.3382 114.299 77.8871 114.332 77.5726C114.36 77.2593 114.369 77.0766 114.369 77.0766C114.369 77.0766 113.809 77.3754 112.993 77.8883C112.171 78.4035 111.088 79.1232 110.022 79.9869C108.966 80.8517 107.934 81.8557 107.21 83.0181C106.487 84.1854 106.031 85.5184 106.074 87.2046C106.812 87.5166 107.577 87.5541 108.295 87.4126ZM116.97 93.2005C118.733 92.8969 120.359 92.3308 121.532 91.8276C122.698 91.3268 123.428 90.9083 123.428 90.9083C123.428 90.9083 122.684 90.6096 121.538 90.2285C120.393 89.8378 118.864 89.354 117.249 88.9585C115.636 88.5702 113.957 88.2787 112.411 88.3488C111.634 88.3827 110.899 88.5158 110.186 88.7698C109.47 89.0238 108.805 89.4169 108.076 89.9649C108.544 91.5785 109.96 92.5994 111.621 93.0675C113.29 93.5489 115.207 93.5114 116.97 93.2005ZM60.4345 79.1729C64.8302 82.821 70.1911 85.3164 75.4517 87.4404C79.7554 89.181 85.2784 92.0224 90.9018 94.6726C85.8481 96.2463 80.8597 97.5321 76.8487 98.2046C76.3213 98.2893 79.0188 101.039 79.528 100.884C84.1849 99.4819 88.9096 97.7813 93.5689 95.9028C98.6589 98.2143 103.685 100.197 107.822 100.889C108.344 100.976 109.964 98.2058 109.442 98.1187C105.521 97.4619 100.966 96.2959 96.224 94.8093C104.034 91.5289 111.554 87.8166 118.057 84.2797C125.115 80.4344 130.414 74.9755 133.898 67.7192C137.126 60.9999 139.404 53.5693 139.74 46.1061C140.204 35.7702 136.732 25.6325 131.348 16.9186C129.772 14.3688 128.009 11.8238 126.054 9.46024C126.228 8.80585 126.249 8.16839 126.136 7.56722C126.004 6.85477 125.727 6.17014 125.301 5.55929C124.483 4.30494 123.156 3.29856 121.8 2.54619C120.433 1.79866 119.012 1.32814 117.952 1.07412C117.419 0.942275 116.978 0.872125 116.672 0.82737C116.52 0.808017 116.398 0.794703 116.319 0.792283C116.246 0.785026 116.207 0.78503 116.207 0.78503C116.207 0.78503 116.221 0.822514 116.251 0.892671C116.291 0.961618 116.338 1.06928 116.406 1.20354C116.545 1.47933 116.745 1.86398 116.999 2.33451C117.504 3.26832 118.194 4.49848 119.007 5.6984C119.407 6.30199 119.868 6.87655 120.338 7.4245C120.573 7.69182 120.827 7.94945 121.091 8.18411C121.345 8.42845 121.613 8.65223 121.898 8.84939C122.469 9.23525 123.069 9.55459 123.743 9.72636C124.254 9.85094 124.793 9.90659 125.372 9.87272C129.125 14.3107 132.196 19.466 134.537 24.6407C137.512 31.2305 139.099 38.4119 138.929 45.6489C138.747 53.5379 136.115 61.5454 132.578 68.5526C129.824 74.0043 125.814 78.4519 120.687 81.771C116.1 84.7346 111.069 86.9578 106.069 89.1206C102.325 90.7438 97.8775 92.407 93.3681 93.8864C83.7107 90.6616 73.6167 86.2962 66.6216 82.3468C62.9637 80.2869 59.6567 77.7564 56.9182 74.5619C54.1833 71.3697 52.2092 67.5813 50.6259 63.7118C47.6224 56.3708 45.7174 48.7745 46.1831 40.8009C46.7286 31.5015 50.3816 22.6073 55.4716 14.8962C56.7767 12.9209 58.1931 10.9493 59.7305 9.09374C60.2857 9.12156 60.8058 9.0635 61.3042 8.94254C61.9767 8.77078 62.5743 8.45265 63.15 8.06558C63.427 7.86842 63.7004 7.64464 63.9545 7.40272C64.2194 7.16806 64.4722 6.91163 64.7068 6.64068C65.1846 6.09274 65.6334 5.52181 66.0398 4.91459C66.8539 3.71709 67.5409 2.48209 68.0429 1.5507C68.2945 1.08258 68.5001 0.689471 68.6331 0.417312C68.7033 0.283047 68.7553 0.176599 68.7928 0.104023C68.8195 0.0374957 68.8327 0 68.8327 0C68.8327 0 68.7976 -1.32902e-06 68.7226 0.00241786C68.6428 0.00725624 68.5255 0.0241963 68.3743 0.0423403C68.0659 0.0846761 67.6244 0.159665 67.0946 0.289091C66.0338 0.543106 64.6136 1.01363 63.2444 1.75875C61.8872 2.51353 60.5627 3.5187 59.7414 4.77426C59.318 5.38874 59.0338 6.07216 58.9116 6.77978C58.7943 7.37006 58.8148 7.99543 58.9793 8.64015C55.3856 12.9088 52.4149 17.8246 50.1106 22.7476C47.2693 28.8319 45.5529 35.4157 45.2916 42.1375C44.9977 49.8595 47.0987 57.2586 50.0006 64.3396C52.3351 70.038 55.6675 75.2175 60.4345 79.1729ZM63.4077 15.9848C63.946 15.5941 64.4588 15.1998 64.8967 14.8018C65.3479 14.4111 65.7579 14.0494 66.0821 13.7216C66.4087 13.3926 66.6905 13.1265 66.8768 12.9318C67.0631 12.7407 67.1611 12.627 67.1611 12.627C67.1611 12.627 66.4668 12.4721 65.3854 12.3657C64.8447 12.3137 64.2206 12.2859 63.5323 12.2907C62.8428 12.2955 62.1001 12.3379 61.3659 12.4576C59.8721 12.6766 58.3686 13.1846 57.2194 14.0349C56.6618 14.474 56.1913 14.9893 55.8623 15.5868C55.5538 16.1977 55.3941 16.8944 55.4316 17.6589C56.9763 18.3314 58.4375 18.2733 59.768 17.8851C60.4478 17.694 61.0901 17.417 61.6852 17.0807C62.2948 16.7565 62.8803 16.3864 63.4077 15.9848ZM51.7254 16.8315C52.4427 16.4698 52.9725 15.9921 53.3814 15.4296C53.8156 14.8816 54.1132 14.2418 54.3128 13.5317C54.7458 12.1468 54.8135 10.4884 54.7978 8.88931C54.793 8.4841 54.7736 8.08251 54.7506 7.68697C54.7361 7.30111 54.7107 6.92009 54.6841 6.55359C54.6285 5.81331 54.5547 5.12505 54.4894 4.53476C54.3696 3.37113 54.2378 2.597 54.2378 2.597C54.2378 2.597 54.1035 2.7482 53.8713 3.00584C53.6427 3.26712 53.3184 3.64813 52.9628 4.14165C52.606 4.63274 52.1863 5.20005 51.7943 5.86533C51.4133 6.52939 51.0081 7.24306 50.684 8.02204C50.3646 8.80465 50.0707 9.60177 49.8941 10.4231C49.7151 11.2432 49.6328 12.0621 49.6703 12.8386C49.7707 14.416 50.3912 15.8227 51.7254 16.8315ZM60.3861 21.0373C60.5264 20.8111 60.6027 20.6816 60.6027 20.6816C60.6027 20.6816 60.4212 20.6817 60.1091 20.6913C59.7886 20.7034 59.3519 20.7361 58.8209 20.805C58.2911 20.8704 57.673 20.972 56.998 21.1244C56.6666 21.203 56.3086 21.284 55.9699 21.3929C55.6312 21.5006 55.2829 21.6227 54.9333 21.7618C54.2438 22.0424 53.5289 22.3787 52.906 22.79C52.2891 23.2133 51.723 23.6984 51.2585 24.2476C51.019 24.5161 50.8376 24.8148 50.6804 25.1245C50.528 25.4305 50.4058 25.7511 50.3162 26.0837C50.234 26.4163 50.1893 26.7587 50.1893 27.1095C50.2062 27.4663 50.2764 27.8316 50.3937 28.2005C51.2138 28.3372 51.9843 28.2997 52.6846 28.1449C53.3789 27.9864 54.0588 27.7263 54.6587 27.3828C54.9623 27.2111 55.2442 27.0187 55.5187 26.8119C55.6603 26.7103 55.7872 26.6002 55.9142 26.4913C56.0497 26.3861 56.184 26.2748 56.3134 26.1623C56.8408 25.7124 57.3065 25.2188 57.7202 24.7181C58.1605 24.233 58.5621 23.7347 58.8984 23.2605C58.9806 23.1456 59.058 23.0259 59.1379 22.9122C59.2249 22.7972 59.3023 22.6884 59.3846 22.5795C59.537 22.3654 59.6834 22.1586 59.8056 21.9699C60.0584 21.5864 60.2495 21.2598 60.3861 21.0373ZM47.1931 27.0659C47.4169 26.7768 47.5935 26.4684 47.735 26.1454C47.8741 25.8237 47.9769 25.4898 48.0446 25.139C48.1148 24.7943 48.1414 24.4302 48.1813 24.0673C48.2321 23.3404 48.1813 22.5686 48.0579 21.7739C47.9382 20.9816 47.8039 20.1954 47.5971 19.4007C47.1919 17.8173 46.7528 16.3283 46.3621 15.1901C45.969 14.0543 45.6992 13.3273 45.6992 13.3273C45.6992 13.3273 45.5915 13.4967 45.4222 13.8124C45.2553 14.1293 45.0291 14.5853 44.78 15.1478C44.2429 16.263 43.7142 17.8512 43.378 19.518C43.2389 20.3672 43.1506 21.2369 43.1506 22.0799C43.1409 22.4985 43.1833 22.9242 43.2498 23.3331C43.3115 23.7443 43.3925 24.1399 43.5062 24.5185C43.736 25.2805 44.0542 25.9555 44.5574 26.5373C45.0533 27.1203 45.6787 27.5884 46.4504 27.9175C46.748 27.6477 46.9923 27.3635 47.1931 27.0659ZM52.0774 37.8277C52.5806 37.339 53.0039 36.7874 53.3571 36.2116C53.7466 35.6419 54.0974 35.0541 54.3732 34.4614C54.5184 34.1699 54.6272 33.8759 54.7675 33.5941C54.9018 33.3098 55.0264 33.0316 55.1353 32.7631C55.3627 32.2248 55.5199 31.7216 55.6711 31.2934C56.0001 30.4419 56.1393 29.8673 56.1393 29.8673C56.1393 29.8673 55.4571 30.0343 54.441 30.4153C53.4032 30.7866 52.1548 31.4192 50.915 32.301C50.6114 32.5224 50.2921 32.757 50.0163 33.0159C49.7405 33.2675 49.4731 33.536 49.224 33.8179C48.7329 34.3852 48.2817 35.0021 47.9842 35.6552C47.7048 36.3108 47.5475 36.9979 47.5475 37.6898C47.5499 38.0333 47.5777 38.3792 47.6866 38.7191C47.8039 39.0627 47.9539 39.4013 48.1668 39.7304C49.8469 39.5779 51.0505 38.8038 52.0774 37.8277ZM43.0768 31.4676C42.7043 30.7503 42.3027 30.0512 41.912 29.4004C41.508 28.7436 41.1451 28.1533 40.8415 27.655C40.2137 26.6486 39.7577 25.9894 39.7577 25.9894C39.7577 25.9894 39.5206 26.7817 39.2714 28.0118C39.1771 28.6384 39.09 29.369 39.032 30.1588C39.0017 30.5556 38.9775 30.9656 38.969 31.3842C38.969 31.8051 38.9969 32.2381 39.032 32.6712C39.1094 33.5336 39.2194 34.4069 39.4384 35.2295C39.6851 36.058 40.0045 36.8382 40.4145 37.5156C41.2044 38.88 42.4805 39.8271 44.1352 40.0606C44.3517 39.7243 44.5114 39.3856 44.6336 39.0421C44.7509 38.6974 44.8658 38.3551 44.9142 38.0091C45.0291 37.31 44.9759 36.5927 44.8065 35.8657C44.6674 35.1387 44.4437 34.4045 44.1316 33.6642C43.8183 32.9288 43.4325 32.1825 43.0768 31.4676ZM48.8635 51.6038C50.4554 51.0534 51.521 49.9962 52.2202 48.783C52.3968 48.4769 52.5467 48.1649 52.6786 47.8431C52.8334 47.5214 52.9677 47.1912 53.085 46.8597C53.3185 46.1969 53.4854 45.5219 53.5955 44.8651C53.7225 44.2107 53.8567 43.5732 53.9208 42.9842C53.9583 42.6902 53.9814 42.4072 54.0031 42.1399C54.0201 41.8738 54.0297 41.6222 54.0623 41.3911C54.1664 40.4767 54.1495 39.8743 54.1495 39.8743C54.1495 39.8743 53.5301 40.2154 52.6508 40.8505C52.4342 41.0053 52.1971 41.1867 51.9492 41.3815C51.6976 41.5786 51.4436 41.7939 51.2041 42.0262C50.713 42.4895 50.2049 43.0241 49.7247 43.6107C49.4852 43.9071 49.2566 44.2155 49.0305 44.5349C48.9252 44.6945 48.8187 44.8615 48.7171 45.026C48.6228 45.1905 48.5345 45.3598 48.4535 45.5292C48.1245 46.2065 47.868 46.9166 47.7289 47.6351C47.6673 47.9919 47.6188 48.3512 47.6273 48.7019C47.6466 49.0527 47.6999 49.4011 47.7918 49.7349C47.9805 50.4111 48.3241 51.0485 48.8635 51.6038ZM39.2013 48.9293C39.4057 49.2983 39.6198 49.6587 39.8666 49.9902C40.1206 50.3167 40.3963 50.6203 40.6806 50.901C41.8309 52.015 43.2159 52.6561 44.8888 52.4976C45.1706 51.7332 45.2553 51.0026 45.1755 50.2986C45.1331 49.9454 45.0533 49.5982 44.9432 49.2571C44.8355 48.9112 44.7194 48.5701 44.5622 48.2362C44.2537 47.5613 43.8256 46.8996 43.3345 46.2585C43.0781 45.9416 42.8264 45.6211 42.5748 45.3054C42.3184 44.9921 42.0547 44.6849 41.7837 44.3861C40.6903 43.1789 39.4819 42.0782 38.6413 41.2532C37.7788 40.4368 37.1668 39.9166 37.1668 39.9166C37.1668 39.9166 37.1462 40.7488 37.2187 42.0056C37.2611 42.631 37.3905 43.3579 37.5357 44.1393C37.6058 44.5288 37.6941 44.9316 37.7921 45.3393C37.8876 45.7433 37.9868 46.1594 38.1441 46.5646C38.4404 47.3762 38.7913 48.183 39.2013 48.9293ZM50.7045 61.5587C51.0166 62.1913 51.4786 62.7514 52.1161 63.2001C53.5773 62.3631 54.4131 61.1088 54.8558 59.7504C54.9683 59.4093 55.0506 59.0609 55.1171 58.7065C55.151 58.5347 55.1788 58.3557 55.1994 58.1815C55.2223 58.0025 55.2538 57.8211 55.2816 57.6408C55.3735 56.9211 55.3954 56.2014 55.3736 55.5095C55.2817 54.133 55.1994 52.8351 55.0228 51.8892C54.9454 51.4187 54.8559 51.0316 54.7978 50.7631C54.7506 50.4909 54.7228 50.3421 54.7228 50.3421C54.7228 50.3421 54.5885 50.4643 54.3647 50.6929C54.1301 50.9215 53.8386 51.2481 53.4999 51.6667C52.8165 52.5073 51.9625 53.7036 51.273 55.0934C50.615 56.4699 50.1941 58.0219 50.2014 59.4988C50.1989 59.8725 50.257 60.2257 50.3441 60.5656C50.4275 60.9128 50.5485 61.2442 50.7045 61.5587ZM42.0015 62.1889C42.2651 62.5143 42.5736 62.7961 42.8906 63.0647C43.2014 63.3332 43.5232 63.5727 43.857 63.788C45.1888 64.642 46.6681 65.0024 48.2769 64.5319C48.4124 63.7275 48.3518 62.9909 48.1402 62.3087C48.0373 61.9724 47.891 61.6434 47.7096 61.3277C47.5378 61.0108 47.3152 60.7132 47.1108 60.4084C46.2459 59.2061 44.9094 58.167 43.5643 57.2405C42.2592 56.3042 40.8826 55.4999 39.8291 54.9168C38.7537 54.3399 38.074 53.9806 38.074 53.9806C38.074 53.9806 38.1066 54.185 38.1961 54.5334C38.288 54.8781 38.4344 55.3668 38.6316 55.9547C39.032 57.1243 39.5907 58.6932 40.5173 60.1217C40.9648 60.8451 41.4644 61.5551 42.0015 62.1889ZM54.9635 70.7093C55.3941 72.1016 56.4005 73.247 57.927 73.6002C58.9927 72.2975 59.3265 70.8738 59.4136 69.5287C59.491 68.1837 59.3168 66.9088 59.1741 65.8383C59.1221 65.3847 58.9407 64.6202 58.7737 64.0202C58.602 63.4046 58.4121 62.8482 58.2379 62.3849C58.0661 61.9168 57.9041 61.5382 57.7903 61.2745C57.6948 61.006 57.6355 60.8559 57.6355 60.8559C57.6355 60.8559 57.5218 61.0072 57.3476 61.2793C57.1613 61.5551 56.9461 61.9421 56.6872 62.4272C56.1816 63.3937 55.5719 64.7484 55.1486 66.2471C55.0397 66.6233 54.949 67.0068 54.8728 67.395C54.8002 67.7579 54.7433 68.1292 54.7083 68.5054C54.6913 68.8792 54.7034 69.2517 54.7385 69.6279C54.7784 69.998 54.8655 70.3561 54.9635 70.7093ZM43.7542 67.8438C42.6111 67.4857 41.8697 67.2741 41.8697 67.2741C41.8697 67.2741 41.9398 67.4627 42.0838 67.7821C42.2398 68.0954 42.4696 68.5417 42.7635 69.0691C43.0599 69.5941 43.4204 70.2037 43.8389 70.8423C44.0481 71.1629 44.2719 71.4895 44.509 71.8185L44.6965 72.0701L44.9275 72.3786C45.092 72.583 45.2541 72.7874 45.4138 72.9894C46.7528 74.5812 48.4027 75.8005 50.0259 76.3097C51.6516 76.8311 53.2265 76.6654 54.5728 75.6517C54.1966 74.0405 53.2883 72.9422 52.0629 71.9854C51.7642 71.7411 51.4303 71.5221 51.0965 71.2911C50.7626 71.0625 50.4034 70.846 50.0405 70.6307C49.6788 70.4021 49.3074 70.1831 48.924 69.9678C48.5611 69.7694 48.2091 69.5941 47.8414 69.4211C46.3887 68.7352 44.8973 68.2079 43.7542 67.8438ZM63.5202 79.4208C64.4347 80.582 65.7144 81.3465 67.3074 81.2642C67.9521 79.7147 67.842 78.2318 67.403 76.8722C66.9651 75.5174 66.1897 74.2728 65.4059 73.189C64.616 72.1052 63.8166 71.1798 63.2263 70.517C62.9372 70.1831 62.6904 69.917 62.5138 69.7368C62.3493 69.5505 62.2501 69.455 62.2501 69.455C62.2501 69.455 62.1932 69.6195 62.1134 69.9182C62.036 70.2194 61.9465 70.6464 61.8618 71.1738C61.69 72.2298 61.615 73.6788 61.84 75.1957C62.0626 76.704 62.6033 78.2535 63.5202 79.4208ZM60.449 85.7917C62.0626 85.7143 63.4924 85.095 64.4964 83.7451C63.6968 82.313 62.4763 81.5388 61.0199 81.0876C59.5636 80.6413 57.8654 80.5203 56.1961 80.4695C54.5305 80.4199 52.877 80.4586 51.6383 80.4623C50.3634 80.4889 49.5663 80.4974 49.5663 80.4974C49.5663 80.4974 49.7187 80.6715 50.0078 80.951C50.2945 81.2171 50.7154 81.6126 51.2355 82.0408C52.2867 82.9057 53.7709 83.9205 55.4087 84.6584C57.0477 85.3999 58.833 85.8692 60.449 85.7917ZM72.049 82.0287C72.6744 83.4379 73.5864 84.8156 74.7851 85.7143C75.3791 86.1558 76.0455 86.4933 76.7604 86.6312C77.4729 86.7703 78.2349 86.7328 78.98 86.4195C79.0151 84.7334 78.5567 83.3992 77.8345 82.2307C77.11 81.0707 76.0843 80.0643 75.0235 79.2019C73.9627 78.3419 72.874 77.6185 72.0551 77.1069C71.2374 76.5916 70.6774 76.2904 70.6774 76.2904C70.6774 76.2904 70.6822 76.4766 70.7149 76.7911C70.7451 77.1068 70.7995 77.558 70.8866 78.0987C71.0705 79.1753 71.414 80.6219 72.049 82.0287Z" fill="url(#paint0_linear_310_441)"/>
<path d="M50.653 134.975L52.3235 124.793H53.3178L51.6473 134.975H50.653ZM46.0195 132.151L46.1786 131.156H53.7752L53.6161 132.151H46.0195ZM47.0735 134.975L48.7439 124.793H49.7382L48.0678 134.975H47.0735ZM46.6161 128.611L46.7752 127.617H54.3718L54.2127 128.611H46.6161ZM55.8458 134.975V124.793H59.4055C60.1148 124.793 60.6998 124.915 61.1605 125.161C61.6212 125.403 61.9642 125.729 62.1896 126.14C62.415 126.548 62.5276 127 62.5276 127.497C62.5276 127.935 62.4498 128.296 62.294 128.581C62.1415 128.866 61.9393 129.092 61.6875 129.257C61.4389 129.423 61.1687 129.546 60.8771 129.625V129.725C61.1886 129.744 61.5018 129.854 61.8167 130.053C62.1316 130.252 62.3951 130.537 62.6072 130.908C62.8193 131.279 62.9254 131.733 62.9254 132.27C62.9254 132.78 62.8094 133.24 62.5774 133.647C62.3454 134.055 61.9791 134.378 61.4786 134.617C60.9782 134.855 60.3269 134.975 59.5248 134.975H55.8458ZM57.0788 133.881H59.5248C60.3302 133.881 60.9019 133.725 61.24 133.414C61.5814 133.099 61.7521 132.718 61.7521 132.27C61.7521 131.925 61.6643 131.607 61.4886 131.316C61.3129 131.021 61.0627 130.785 60.7379 130.61C60.4131 130.431 60.0286 130.341 59.5845 130.341H57.0788V133.881ZM57.0788 129.267H59.3657C59.7369 129.267 60.0717 129.194 60.37 129.048C60.6716 128.903 60.9102 128.697 61.0859 128.432C61.2649 128.167 61.3544 127.855 61.3544 127.497C61.3544 127.05 61.1986 126.67 60.887 126.359C60.5755 126.044 60.0816 125.887 59.4055 125.887H57.0788V129.267ZM69.6047 131.852V127.338H70.778V134.975H69.6047V133.682H69.5252C69.3462 134.07 69.0678 134.4 68.6899 134.671C68.3121 134.94 67.8348 135.074 67.2581 135.074C66.7808 135.074 66.3566 134.97 65.9854 134.761C65.6142 134.549 65.3225 134.231 65.1104 133.806C64.8983 133.379 64.7922 132.84 64.7922 132.191V127.338H65.9655V132.111C65.9655 132.668 66.1213 133.112 66.4328 133.443C66.7477 133.775 67.1487 133.941 67.636 133.941C67.9276 133.941 68.2243 133.866 68.5259 133.717C68.8308 133.568 69.086 133.339 69.2915 133.031C69.5003 132.722 69.6047 132.33 69.6047 131.852ZM72.927 134.975V127.338H74.1003V134.975H72.927ZM73.5236 126.066C73.2949 126.066 73.0977 125.988 72.9319 125.832C72.7695 125.676 72.6883 125.489 72.6883 125.27C72.6883 125.051 72.7695 124.864 72.9319 124.708C73.0977 124.552 73.2949 124.475 73.5236 124.475C73.7523 124.475 73.9478 124.552 74.1102 124.708C74.2759 124.864 74.3588 125.051 74.3588 125.27C74.3588 125.489 74.2759 125.676 74.1102 125.832C73.9478 125.988 73.7523 126.066 73.5236 126.066ZM77.4225 124.793V134.975H76.2492V124.793H77.4225ZM82.455 135.134C81.8187 135.134 81.2569 134.973 80.7697 134.651C80.2824 134.327 79.9013 133.869 79.6262 133.279C79.3511 132.686 79.2136 131.985 79.2136 131.176C79.2136 130.374 79.3511 129.678 79.6262 129.088C79.9013 128.498 80.2841 128.043 80.7746 127.721C81.2652 127.4 81.8319 127.239 82.4749 127.239C82.9721 127.239 83.3648 127.322 83.6532 127.487C83.9448 127.65 84.1669 127.835 84.3194 128.044C84.4752 128.25 84.5961 128.419 84.6823 128.551H84.7817V124.793H85.955V134.975H84.8215V133.801H84.6823C84.5961 133.941 84.4735 134.116 84.3144 134.328C84.1553 134.537 83.9283 134.724 83.6333 134.89C83.3383 135.052 82.9456 135.134 82.455 135.134ZM82.6141 134.08C83.0848 134.08 83.4825 133.957 83.8073 133.712C84.1321 133.463 84.379 133.12 84.5481 132.683C84.7171 132.242 84.8016 131.733 84.8016 131.156C84.8016 130.586 84.7188 130.088 84.553 129.66C84.3873 129.229 84.1421 128.894 83.8172 128.656C83.4924 128.414 83.0914 128.293 82.6141 128.293C82.117 128.293 81.7027 128.42 81.3712 128.676C81.0431 128.927 80.7962 129.271 80.6305 129.705C80.468 130.136 80.3868 130.619 80.3868 131.156C80.3868 131.7 80.4697 132.194 80.6354 132.638C80.8045 133.079 81.053 133.43 81.3812 133.692C81.7126 133.95 82.1236 134.08 82.6141 134.08ZM89.6589 124.793V134.975H88.4259V124.793H89.6589ZM93.1452 130.381V134.975H91.9719V127.338H93.1054V128.531H93.2049C93.3838 128.144 93.6556 127.832 94.0202 127.597C94.3848 127.358 94.8554 127.239 95.4321 127.239C95.9492 127.239 96.4016 127.345 96.7894 127.557C97.1772 127.766 97.4788 128.084 97.6942 128.512C97.9096 128.936 98.0174 129.473 98.0174 130.122V134.975H96.8441V130.202C96.8441 129.602 96.6883 129.135 96.3767 128.8C96.0652 128.462 95.6376 128.293 95.0941 128.293C94.7195 128.293 94.3848 128.374 94.0898 128.536C93.7981 128.699 93.5678 128.936 93.3987 129.247C93.2297 129.559 93.1452 129.937 93.1452 130.381ZM100.32 134.975V124.793H103.761C104.56 124.793 105.212 124.937 105.72 125.225C106.23 125.51 106.608 125.896 106.853 126.384C107.098 126.871 107.221 127.414 107.221 128.014C107.221 128.614 107.098 129.16 106.853 129.65C106.611 130.141 106.237 130.532 105.73 130.823C105.222 131.112 104.573 131.256 103.781 131.256H101.315V130.162H103.741C104.288 130.162 104.727 130.068 105.058 129.879C105.39 129.69 105.63 129.435 105.779 129.113C105.932 128.788 106.008 128.422 106.008 128.014C106.008 127.607 105.932 127.242 105.779 126.921C105.63 126.599 105.388 126.347 105.053 126.165C104.719 125.979 104.275 125.887 103.721 125.887H101.553V134.975H100.32ZM113.861 131.852V127.338H115.034V134.975H113.861V133.682H113.781C113.602 134.07 113.324 134.4 112.946 134.671C112.568 134.94 112.091 135.074 111.514 135.074C111.037 135.074 110.612 134.97 110.241 134.761C109.87 134.549 109.578 134.231 109.366 133.806C109.154 133.379 109.048 132.84 109.048 132.191V127.338H110.221V132.111C110.221 132.668 110.377 133.112 110.689 133.443C111.004 133.775 111.405 133.941 111.892 133.941C112.183 133.941 112.48 133.866 112.782 133.717C113.087 133.568 113.342 133.339 113.547 133.031C113.756 132.722 113.861 132.33 113.861 131.852ZM117.342 134.975V124.793H118.515V128.551H118.615C118.701 128.419 118.82 128.25 118.973 128.044C119.128 127.835 119.35 127.65 119.639 127.487C119.93 127.322 120.325 127.239 120.822 127.239C121.465 127.239 122.032 127.4 122.522 127.721C123.013 128.043 123.396 128.498 123.671 129.088C123.946 129.678 124.083 130.374 124.083 131.176C124.083 131.985 123.946 132.686 123.671 133.279C123.396 133.869 123.015 134.327 122.527 134.651C122.04 134.973 121.478 135.134 120.842 135.134C120.351 135.134 119.959 135.052 119.664 134.89C119.369 134.724 119.142 134.537 118.983 134.328C118.823 134.116 118.701 133.941 118.615 133.801H118.475V134.975H117.342ZM118.495 131.156C118.495 131.733 118.58 132.242 118.749 132.683C118.918 133.12 119.165 133.463 119.49 133.712C119.814 133.957 120.212 134.08 120.683 134.08C121.173 134.08 121.583 133.95 121.911 133.692C122.242 133.43 122.491 133.079 122.657 132.638C122.826 132.194 122.91 131.7 122.91 131.156C122.91 130.619 122.827 130.136 122.662 129.705C122.499 129.271 122.252 128.927 121.921 128.676C121.593 128.42 121.18 128.293 120.683 128.293C120.206 128.293 119.805 128.414 119.48 128.656C119.155 128.894 118.91 129.229 118.744 129.66C118.578 130.088 118.495 130.586 118.495 131.156ZM127.051 124.793V134.975H125.878V124.793H127.051ZM129.2 134.975V127.338H130.374V134.975H129.2ZM129.797 126.066C129.568 126.066 129.371 125.988 129.205 125.832C129.043 125.676 128.962 125.489 128.962 125.27C128.962 125.051 129.043 124.864 129.205 124.708C129.371 124.552 129.568 124.475 129.797 124.475C130.026 124.475 130.221 124.552 130.384 124.708C130.549 124.864 130.632 125.051 130.632 125.27C130.632 125.489 130.549 125.676 130.384 125.832C130.221 125.988 130.026 126.066 129.797 126.066ZM135.625 135.134C134.909 135.134 134.293 134.965 133.776 134.627C133.258 134.289 132.861 133.823 132.582 133.23C132.304 132.636 132.165 131.959 132.165 131.196C132.165 130.421 132.307 129.736 132.592 129.143C132.881 128.546 133.282 128.081 133.795 127.746C134.312 127.408 134.916 127.239 135.605 127.239C136.142 127.239 136.626 127.338 137.057 127.537C137.488 127.736 137.841 128.014 138.116 128.372C138.391 128.73 138.562 129.148 138.628 129.625H137.455C137.365 129.277 137.166 128.969 136.858 128.7C136.553 128.429 136.142 128.293 135.625 128.293C135.168 128.293 134.767 128.412 134.422 128.651C134.08 128.886 133.814 129.219 133.621 129.65C133.432 130.078 133.338 130.58 133.338 131.156C133.338 131.746 133.431 132.26 133.616 132.698C133.805 133.135 134.071 133.475 134.412 133.717C134.757 133.959 135.161 134.08 135.625 134.08C135.93 134.08 136.207 134.027 136.455 133.921C136.704 133.815 136.914 133.662 137.087 133.463C137.259 133.264 137.382 133.026 137.455 132.747H138.628C138.562 133.198 138.397 133.604 138.136 133.965C137.877 134.323 137.534 134.608 137.106 134.82C136.682 135.029 136.188 135.134 135.625 135.134Z" fill="#C0C0C0"/>
<path d="M105.32 50.764C106.395 49.9993 107.099 48.744 107.099 47.3264C107.099 45.0016 105.208 43.1103 102.883 43.1103C100.558 43.1103 98.667 45.0016 98.667 47.3264C98.667 48.7475 99.3744 50.0056 100.455 50.7698C98.8872 51.2894 97.5015 52.3013 96.5334 53.6704C96.0422 53.3753 95.5158 53.1333 94.9626 52.9516C96.0384 52.187 96.7424 50.9315 96.7424 49.5141C96.7424 47.1893 94.851 45.2979 92.5262 45.2979C90.2015 45.2979 88.3102 47.1893 88.3102 49.5141C88.3102 50.9316 89.0141 52.187 90.0899 52.9517C89.5367 53.1334 89.0104 53.3754 88.5191 53.6705C87.551 52.3013 86.1653 51.2894 84.5978 50.7699C85.6782 50.0057 86.3856 48.7475 86.3856 47.3265C86.3856 45.0017 84.4943 43.1103 82.1696 43.1103C79.8448 43.1103 77.9535 45.0017 77.9535 47.3265C77.9535 48.744 78.6574 49.9993 79.7331 50.7641C76.9041 51.6929 74.7786 54.2002 74.4459 57.3091C74.4282 57.4737 74.4813 57.638 74.592 57.7611C74.7027 57.8842 74.8604 57.9545 75.0259 57.9545L85.1273 57.9544C84.9701 58.4476 84.8598 58.9631 84.8027 59.4966C84.7851 59.6612 84.8382 59.8255 84.9488 59.9486C85.0595 60.0717 85.2173 60.142 85.3827 60.142L99.6699 60.1421C99.8354 60.1421 99.9932 60.0717 100.104 59.9487C100.214 59.8256 100.268 59.6613 100.25 59.4967C100.193 58.9632 100.083 58.4476 99.9254 57.9545L110.027 57.9544C110.192 57.9544 110.35 57.8841 110.46 57.761C110.571 57.6379 110.624 57.4735 110.607 57.309C110.274 54.2 108.148 51.6928 105.32 50.764ZM99.8336 47.3264C99.8336 45.6449 101.202 44.277 102.883 44.277C104.564 44.277 105.932 45.645 105.932 47.3264C105.932 49.0073 104.565 50.3747 102.885 50.3758C102.884 50.3758 102.884 50.3758 102.883 50.3758C102.882 50.3758 102.882 50.3758 102.881 50.3758C101.201 50.3749 99.8336 49.0073 99.8336 47.3264ZM89.4767 49.5141C89.4767 47.8326 90.8447 46.4646 92.5261 46.4646C94.2075 46.4646 95.5755 47.8326 95.5755 49.5141C95.5755 51.1955 94.2075 52.5634 92.5261 52.5634C90.8447 52.5634 89.4767 51.1956 89.4767 49.5141ZM79.12 47.3264C79.12 45.6449 80.4879 44.277 82.1693 44.277C83.8508 44.277 85.2187 45.645 85.2187 47.3264C85.2187 49.0073 83.8517 50.3749 82.171 50.3758C82.1704 50.3758 82.1698 50.3758 82.1693 50.3758C82.1687 50.3758 82.168 50.3758 82.1674 50.3758C80.4869 50.3747 79.12 49.0073 79.12 47.3264ZM75.7069 56.7877C76.3351 53.756 79.0064 51.5432 82.1679 51.5425H82.1694H82.1711C84.3156 51.5431 86.3377 52.605 87.5669 54.3444C86.7602 55.012 86.0902 55.8415 85.607 56.7877L75.7069 56.7877ZM86.0637 58.9753C86.692 55.9431 89.364 53.7301 92.5262 53.7301C95.6884 53.7301 98.3604 55.9432 98.9886 58.9754L86.0637 58.9753ZM99.4454 56.7877C98.9622 55.8415 98.2922 55.012 97.4854 54.3444C98.7145 52.605 100.737 51.5431 102.881 51.5425H102.883H102.885C106.046 51.5432 108.717 53.756 109.345 56.7877L99.4454 56.7877ZM85.1642 32.3723C85.1642 32.6945 84.9031 32.9556 84.5809 32.9556H77.8667C77.5446 32.9556 77.2834 32.6945 77.2834 32.3723C77.2834 32.0501 77.5446 31.789 77.8667 31.789H84.5809C84.9031 31.789 85.1642 32.0501 85.1642 32.3723ZM85.1642 34.7667C85.1642 35.0889 84.9031 35.3501 84.5809 35.3501H77.8667C77.5446 35.3501 77.2834 35.0889 77.2834 34.7667C77.2834 34.4446 77.5446 34.1834 77.8667 34.1834H84.5809C84.9031 34.1834 85.1642 34.4446 85.1642 34.7667ZM85.1642 29.9778C85.1642 30.3 84.9031 30.5612 84.5809 30.5612H77.8667C77.5446 30.5612 77.2834 30.3 77.2834 29.9778C77.2834 29.6556 77.5446 29.3945 77.8667 29.3945H84.5809C84.9031 29.3945 85.1642 29.6556 85.1642 29.9778ZM108.697 27.1279H98.9598C97.9052 27.1279 97.0471 27.986 97.0471 29.0407V29.7811H88.0052V29.0407C88.0052 27.986 87.1471 27.1279 86.0925 27.1279H76.3552C75.3005 27.1279 74.4424 27.986 74.4424 29.0407V35.7037C74.4424 36.7585 75.3005 37.6165 76.3552 37.6165H82.1173L84.5467 40.1454C84.6589 40.2622 84.8118 40.3246 84.9675 40.3246C85.0407 40.3246 85.1146 40.3109 85.1852 40.2824C85.406 40.1935 85.5507 39.9794 85.5507 39.7413V37.6165H85.7448V38.3568C85.7448 39.4116 86.6029 40.2696 87.6575 40.2696H90.3442L92.0079 43.4886C92.1081 43.6824 92.308 43.8041 92.5261 43.8041C92.7443 43.8041 92.9441 43.6824 93.0443 43.4886L94.7079 40.2696H97.3946C98.4494 40.2696 99.3074 39.4115 99.3074 38.3568V37.6165H99.5013V39.7413C99.5013 39.9794 99.646 40.1935 99.8669 40.2824C99.9375 40.3109 100.011 40.3246 100.085 40.3246C100.24 40.3246 100.393 40.2622 100.505 40.1454L102.935 37.6165H108.697C109.752 37.6165 110.61 36.7584 110.61 35.7037V29.0407C110.61 27.986 109.752 27.1279 108.697 27.1279ZM84.9675 36.4499C84.6454 36.4499 84.3842 36.7111 84.3842 37.0333V38.2921L82.7867 36.6291C82.6766 36.5147 82.5247 36.4499 82.3659 36.4499H76.3552C75.9437 36.4499 75.6091 36.1152 75.6091 35.7038V29.0407C75.6091 28.6292 75.9438 28.2946 76.3552 28.2946H86.0924C86.5038 28.2946 86.8385 28.6293 86.8385 29.0407V29.9657C86.1924 30.2731 85.7447 30.9321 85.7447 31.6939V36.4499H84.9675ZM98.1409 38.3569C98.1409 38.7683 97.8062 39.103 97.3948 39.103H94.3529C94.1347 39.103 93.9348 39.2247 93.8347 39.4185L92.5262 41.9503L91.2176 39.4185C91.1175 39.2247 90.9176 39.103 90.6995 39.103H87.6575C87.2461 39.103 86.9115 38.7683 86.9115 38.3569V31.6939C86.9115 31.2825 87.2462 30.9478 87.6575 30.9478H97.3948C97.8063 30.9478 98.1409 31.2825 98.1409 31.6939V38.3569ZM109.443 35.7037C109.443 36.1152 109.109 36.4498 108.697 36.4498H102.686C102.528 36.4498 102.376 36.5146 102.266 36.6291L100.668 38.292V37.0332C100.668 36.711 100.407 36.4498 100.085 36.4498H99.3076V31.6939C99.3076 30.9321 98.8599 30.2731 98.2138 29.9657V29.0407C98.2138 28.6292 98.5485 28.2946 98.9598 28.2946H108.697C109.109 28.2946 109.443 28.6293 109.443 29.0407V35.7037H109.443ZM107.769 32.3723C107.769 32.6945 107.508 32.9556 107.186 32.9556H100.471C100.149 32.9556 99.8881 32.6945 99.8881 32.3723C99.8881 32.0501 100.149 31.789 100.471 31.789H107.186C107.508 31.789 107.769 32.0501 107.769 32.3723ZM107.769 34.7667C107.769 35.0889 107.508 35.3501 107.186 35.3501H100.471C100.149 35.3501 99.8881 35.0889 99.8881 34.7667C99.8881 34.4446 100.149 34.1834 100.471 34.1834H107.186C107.508 34.1834 107.769 34.4446 107.769 34.7667ZM107.769 29.9778C107.769 30.3 107.508 30.5612 107.186 30.5612H100.471C100.149 30.5612 99.8881 30.3 99.8881 29.9778C99.8881 29.6556 100.149 29.3945 100.471 29.3945H107.186C107.508 29.3945 107.769 29.6556 107.769 29.9778ZM96.4666 35.0254C96.4666 35.3476 96.2054 35.6088 95.8833 35.6088H89.1691C88.8469 35.6088 88.5857 35.3476 88.5857 35.0254C88.5857 34.7033 88.8469 34.4421 89.1691 34.4421H95.8833C96.2054 34.4421 96.4666 34.7033 96.4666 35.0254ZM96.4666 37.4199C96.4666 37.742 96.2054 38.0032 95.8833 38.0032H89.1691C88.8469 38.0032 88.5857 37.742 88.5857 37.4199C88.5857 37.0977 88.8469 36.8365 89.1691 36.8365H95.8833C96.2054 36.8365 96.4666 37.0977 96.4666 37.4199ZM96.4666 32.6309C96.4666 32.9531 96.2054 33.2143 95.8833 33.2143H89.1691C88.8469 33.2143 88.5857 32.9531 88.5857 32.6309C88.5857 32.3088 88.8469 32.0476 89.1691 32.0476H95.8833C96.2054 32.0476 96.4666 32.3088 96.4666 32.6309Z" fill="#818181"/>
<defs>
<linearGradient id="paint0_linear_310_441" x1="92.5247" y1="0" x2="92.5247" y2="100.891" gradientUnits="userSpaceOnUse">
<stop stop-color="#BDBDBD"/>
<stop offset="1" stop-color="#575757"/>
</linearGradient>
</defs>
</svg>
