<svg width="322" height="77" viewBox="0 0 322 77" fill="none" xmlns="http://www.w3.org/2000/svg">
<path d="M2.79071 42.4986V39.6868C5.3153 39.6868 7.07647 39.1577 8.07422 38.0995C9.08708 37.0413 9.59351 35.2726 9.59351 32.7933V25.537C9.59351 23.4508 9.79003 21.6443 10.1831 20.1174C10.5913 18.5906 11.2489 17.3283 12.1559 16.3305C13.0629 15.3328 14.2723 14.592 15.7841 14.1083C17.2958 13.6245 19.1628 13.3827 21.385 13.3827V17.8272C19.6314 17.8272 18.2482 18.0993 17.2353 18.6435C16.2376 19.1877 15.5271 20.0343 15.1038 21.1832C14.6956 22.317 14.4915 23.7683 14.4915 25.537V34.6074C14.4915 35.7865 14.3328 36.8599 14.0153 37.8274C13.713 38.7949 13.1461 39.6263 12.3146 40.3217C11.4832 41.0171 10.2965 41.5538 8.7545 41.9317C7.22765 42.3097 5.23972 42.4986 2.79071 42.4986ZM21.385 71.4332C19.1628 71.4332 17.2958 71.1913 15.7841 70.7076C14.2723 70.2238 13.0629 69.4831 12.1559 68.4853C11.2489 67.4876 10.5913 66.2253 10.1831 64.6984C9.79003 63.1716 9.59351 61.3651 9.59351 59.2789V52.0226C9.59351 49.5433 9.08708 47.7746 8.07422 46.7164C7.07647 45.6582 5.3153 45.1291 2.79071 45.1291V42.3172C5.23972 42.3172 7.22765 42.5062 8.7545 42.8841C10.2965 43.2621 11.4832 43.7987 12.3146 44.4941C13.1461 45.1895 13.713 46.021 14.0153 46.9885C14.3328 47.956 14.4915 49.0293 14.4915 50.2085V59.2789C14.4915 61.0476 14.6956 62.4989 15.1038 63.6327C15.5271 64.7665 16.2376 65.6055 17.2353 66.1497C18.2482 66.709 19.6314 66.9887 21.385 66.9887V71.4332ZM2.79071 45.1291V39.6868H8.14225V45.1291H2.79071Z" fill="#AAAAAA"/>
<path d="M318.31 42.4986V39.6868C315.786 39.6868 314.025 39.1577 313.027 38.0995C312.014 37.0413 311.508 35.2726 311.508 32.7933V25.537C311.508 23.4508 311.311 21.6443 310.918 20.1174C310.51 18.5906 309.852 17.3283 308.945 16.3305C308.038 15.3328 306.829 14.592 305.317 14.1083C303.805 13.6245 301.938 13.3827 299.716 13.3827V17.8272C301.47 17.8272 302.853 18.0993 303.866 18.6435C304.863 19.1877 305.574 20.0343 305.997 21.1832C306.405 22.317 306.61 23.7683 306.61 25.537V34.6074C306.61 35.7865 306.768 36.8599 307.086 37.8274C307.388 38.7949 307.955 39.6263 308.786 40.3217C309.618 41.0171 310.805 41.5538 312.347 41.9317C313.873 42.3097 315.861 42.4986 318.31 42.4986ZM299.716 71.4332C301.938 71.4332 303.805 71.1913 305.317 70.7076C306.829 70.2238 308.038 69.4831 308.945 68.4853C309.852 67.4876 310.51 66.2253 310.918 64.6984C311.311 63.1716 311.508 61.3651 311.508 59.2789V52.0226C311.508 49.5433 312.014 47.7746 313.027 46.7164C314.025 45.6582 315.786 45.1291 318.31 45.1291V42.3172C315.861 42.3172 313.873 42.5062 312.347 42.8841C310.805 43.2621 309.618 43.7987 308.786 44.4941C307.955 45.1895 307.388 46.021 307.086 46.9885C306.768 47.956 306.61 49.0293 306.61 50.2085V59.2789C306.61 61.0476 306.405 62.4989 305.997 63.6327C305.574 64.7665 304.863 65.6055 303.866 66.1497C302.853 66.709 301.47 66.9887 299.716 66.9887V71.4332ZM318.31 45.1291V39.6868H312.959V45.1291H318.31Z" fill="#AAAAAA"/>
<path d="M278.662 14.7852C279.837 14.8561 280.956 14.9698 282.02 15.1289C283.939 15.4162 285.602 15.9909 287.008 16.8525C288.399 17.7142 289.487 18.9915 290.273 20.6846C291.044 22.3626 291.43 24.5999 291.43 27.3965V32.4082C291.43 34.7361 291.936 36.4218 292.949 37.4648C293.962 38.5078 295.777 39.0293 298.392 39.0293V47.7363C295.776 47.7363 293.962 48.2587 292.949 49.3018C291.936 50.3449 291.43 52.0304 291.43 54.3584V59.3926C291.43 62.1891 291.044 64.4265 290.273 66.1045C289.487 67.7976 288.399 69.0748 287.008 69.9365C285.602 70.7982 283.939 71.3729 282.02 71.6602C280.947 71.8207 279.816 71.9341 278.63 72.0049L278.606 72.0596H277.489C276.911 72.0797 276.319 72.0908 275.715 72.0908V72.0596H46.749V72.0908C46.145 72.0908 45.5533 72.0797 44.9746 72.0596H43.2959L43.2559 71.9668C42.2792 71.8953 41.3417 71.7944 40.4443 71.6602C38.5246 71.3729 36.8619 70.7982 35.4561 69.9365C34.0653 69.0748 32.9765 67.7976 32.1904 66.1045C31.4195 64.4265 31.0342 62.1891 31.0342 59.3926V54.3584C31.0342 52.0304 30.5275 50.3449 29.5146 49.3018C28.5018 48.2587 26.6876 47.7363 24.0723 47.7363V39.0293C26.6873 39.0293 28.5017 38.5078 29.5146 37.4648C30.5275 36.4218 31.0341 34.7361 31.0342 32.4082V27.3965C31.0342 24.5999 31.4195 22.3626 32.1904 20.6846C32.9765 18.9915 34.0653 17.7142 35.4561 16.8525C36.8619 15.9909 38.5246 15.4162 40.4443 15.1289C41.3316 14.9962 42.258 14.8946 43.2227 14.8232L43.2959 14.6621H278.606L278.662 14.7852Z" fill="#E5E5E5"/>
</svg>
