<svg width="186" height="138" viewBox="0 0 186 138" fill="none" xmlns="http://www.w3.org/2000/svg">
<path d="M76.9733 89.1835C76.2439 88.6307 75.5738 88.24 74.8613 87.9835C74.1441 87.7344 73.4147 87.5977 72.6369 87.565C71.091 87.4961 69.4073 87.7839 67.7985 88.1734C66.1849 88.5714 64.6536 89.0504 63.5057 89.4435C62.365 89.8245 61.6199 90.1185 61.6199 90.1185C61.6199 90.1185 62.3481 90.5418 63.5202 91.0426C64.6911 91.541 66.3143 92.1107 68.0828 92.4155C69.8379 92.7239 71.7563 92.7614 73.4268 92.2812C75.0876 91.8131 76.5028 90.7946 76.9733 89.1835ZM127.828 14.8212C126.68 13.9672 125.178 13.4567 123.684 13.239C122.948 13.1193 122.205 13.0757 121.515 13.0721C120.828 13.0697 120.203 13.0963 119.665 13.1495C118.58 13.2596 117.889 13.4084 117.889 13.4084C117.889 13.4084 117.986 13.5233 118.171 13.7168C118.357 13.9128 118.641 14.1752 118.962 14.5091C119.291 14.8357 119.707 15.1973 120.155 15.588C120.59 15.9812 121.103 16.3803 121.639 16.771C122.169 17.169 122.754 17.5403 123.366 17.8645C123.966 18.2008 124.601 18.4826 125.28 18.6689C126.611 19.0596 128.068 19.1213 129.617 18.4439C129.655 17.6794 129.499 16.9827 129.189 16.3719C128.859 15.7731 128.388 15.2578 127.828 14.8212ZM133.322 17.6117C134.661 16.6077 135.277 15.1986 135.376 13.6261C135.419 12.8471 135.329 12.0282 135.157 11.2057C134.978 10.3868 134.692 9.58967 134.367 8.80585C134.04 8.02929 133.636 7.312 133.25 6.64914C132.864 5.98628 132.438 5.41414 132.087 4.92546C131.733 4.43195 131.408 4.05214 131.173 3.78724C130.947 3.52718 130.811 3.38082 130.811 3.38082C130.811 3.38082 130.682 4.1598 130.56 5.31859C130.492 5.90888 130.42 6.59835 130.365 7.33378C130.339 7.70513 130.315 8.08372 130.302 8.472C130.279 8.86512 130.26 9.26671 130.255 9.67193C130.235 11.271 130.306 12.9269 130.734 14.3168C130.938 15.0244 131.232 15.6618 131.663 16.2122C132.072 16.7759 132.607 17.25 133.322 17.6117ZM134.372 25.9059C134.213 25.5974 134.031 25.2987 133.789 25.0314C133.324 24.4858 132.761 23.9972 132.142 23.575C131.524 23.1565 130.806 22.8275 130.119 22.5481C129.771 22.409 129.42 22.2844 129.081 22.1767C128.74 22.0691 128.382 21.982 128.046 21.9082C127.378 21.7534 126.757 21.6542 126.228 21.5876C125.696 21.5223 125.262 21.4897 124.943 21.48C124.622 21.4631 124.448 21.4655 124.448 21.4655C124.448 21.4655 124.52 21.5949 124.666 21.8187C124.801 22.0461 124.983 22.3739 125.243 22.7549C125.367 22.946 125.507 23.1504 125.664 23.3645C125.747 23.4722 125.829 23.5835 125.914 23.6935C125.986 23.8109 126.068 23.9258 126.153 24.0468C126.489 24.5197 126.885 25.0156 127.329 25.5043C127.74 26.0075 128.208 26.4974 128.731 26.9461C128.863 27.0586 129.002 27.1699 129.131 27.2752C129.262 27.3876 129.392 27.4893 129.531 27.5969C129.801 27.8013 130.089 27.9924 130.391 28.1618C130.987 28.5077 131.671 28.7726 132.369 28.9311C133.067 29.0859 133.829 29.1234 134.66 28.9831C134.773 28.6154 134.845 28.2513 134.86 27.8921C134.86 27.5437 134.815 27.2002 134.733 26.8687C134.652 26.5361 134.525 26.2143 134.372 25.9059ZM139.348 14.1111C139.348 14.1111 139.075 14.8381 138.684 15.9739C138.294 17.1121 137.853 18.6012 137.445 20.1881C137.245 20.9792 137.111 21.7667 136.987 22.5589C136.868 23.3549 136.811 24.1254 136.868 24.8524C136.906 25.214 136.932 25.5769 137.002 25.9253C137.072 26.2748 137.174 26.6099 137.315 26.9316C137.454 27.2522 137.63 27.557 137.849 27.8521C138.053 28.1461 138.301 28.4328 138.592 28.7001C139.373 28.3711 139.994 27.9029 140.489 27.3223C140.995 26.7417 141.307 26.0643 141.538 25.3035C141.655 24.9225 141.737 24.527 141.805 24.1157C141.86 23.7069 141.907 23.2799 141.897 22.8638C141.892 22.0195 141.805 21.1474 141.669 20.3006C141.335 18.6302 140.798 17.0408 140.267 15.9352C140.017 15.3727 139.789 14.9131 139.627 14.5926C139.457 14.2817 139.348 14.1111 139.348 14.1111ZM137.065 36.4403C136.766 35.7871 136.317 35.1702 135.823 34.6065C135.571 34.3247 135.305 34.0513 135.033 33.7997C134.757 33.5433 134.435 33.3098 134.135 33.0873C132.893 32.2055 131.645 31.5728 130.602 31.1979C129.592 30.8168 128.904 30.6524 128.904 30.6524C128.904 30.6524 129.049 31.2318 129.378 32.0761C129.522 32.5055 129.684 33.0123 129.915 33.5481C130.02 33.8142 130.147 34.0936 130.281 34.3767C130.416 34.6609 130.528 34.9573 130.677 35.25C130.949 35.8379 131.295 36.4282 131.691 36.9991C132.044 37.5737 132.47 38.124 132.97 38.6175C133.999 39.5888 135.206 40.3606 136.883 40.5178C137.088 40.1864 137.246 39.8501 137.356 39.5114C137.469 39.1655 137.492 38.8207 137.501 38.4772C137.501 37.7853 137.337 37.0971 137.065 36.4403ZM140.238 36.6519C140.068 37.3813 140.023 38.0914 140.131 38.7917C140.181 39.1425 140.293 39.4836 140.414 39.8259C140.532 40.1695 140.7 40.5106 140.913 40.8468C142.568 40.6122 143.847 39.6638 144.633 38.3018C145.044 37.622 145.357 36.8418 145.612 36.0133C145.831 35.1895 145.941 34.3223 146.016 33.455C146.046 33.022 146.075 32.5865 146.079 32.1656C146.064 31.747 146.041 31.3382 146.016 30.9451C145.954 30.1528 145.869 29.4186 145.779 28.7956C145.527 27.5679 145.289 26.7756 145.289 26.7756C145.289 26.7756 144.835 27.4264 144.204 28.44C143.895 28.9383 143.534 29.5299 143.133 30.183C142.744 30.835 142.343 31.5329 141.972 32.2526C141.619 32.9651 141.228 33.7102 140.921 34.4468C140.604 35.1908 140.382 35.9274 140.238 36.6519ZM137.256 50.5212C137.348 50.1825 137.407 49.8365 137.423 49.4882C137.433 49.135 137.383 48.7757 137.318 48.4177C137.181 47.7028 136.927 46.9903 136.595 46.313C136.513 46.1436 136.424 45.9743 136.337 45.8098C136.237 45.6453 136.127 45.4832 136.018 45.3199C135.8 44.9994 135.562 44.6873 135.325 44.3958C134.848 43.8031 134.34 43.2708 133.846 42.8088C133.608 42.5753 133.353 42.3612 133.102 42.1641C132.855 41.9717 132.616 41.7903 132.399 41.633C131.515 41.0004 130.897 40.6545 130.897 40.6545C130.897 40.6545 130.887 41.2593 130.984 42.1762C131.024 42.406 131.034 42.6552 131.048 42.9213C131.069 43.1886 131.093 43.4716 131.131 43.7656C131.197 44.3534 131.33 44.9909 131.455 45.6477C131.567 46.3033 131.732 46.9807 131.968 47.6447C132.082 47.9737 132.219 48.3052 132.373 48.6281C132.508 48.9487 132.657 49.2656 132.834 49.5668C133.529 50.78 134.591 51.836 136.183 52.3839C136.726 51.8299 137.07 51.1937 137.256 50.5212ZM143.272 45.1663C142.997 45.465 142.732 45.7759 142.478 46.0916C142.224 46.4013 141.97 46.7218 141.713 47.0387C141.222 47.6835 140.796 48.3415 140.486 49.0164C140.327 49.3503 140.21 49.6962 140.109 50.0373C139.992 50.3809 139.912 50.7292 139.873 51.0824C139.796 51.7876 139.873 52.5194 140.163 53.279C141.828 53.4363 143.22 52.7964 144.371 51.686C144.654 51.409 144.928 51.1006 145.182 50.774C145.432 50.4425 145.641 50.0845 145.849 49.7132C146.258 48.9668 146.608 48.1637 146.902 47.3472C147.061 46.9444 147.161 46.5283 147.26 46.117C147.356 45.7118 147.441 45.3126 147.515 44.9219C147.66 44.1442 147.787 43.4148 147.831 42.7894C147.904 41.5339 147.882 40.7029 147.882 40.7029C147.882 40.7029 147.269 41.2206 146.408 42.0383C145.569 42.8608 144.361 43.9615 143.272 45.1663ZM132.928 63.9876C133.568 63.54 134.031 62.9727 134.343 62.3413C134.502 62.028 134.617 61.6942 134.706 61.3543C134.788 61.0083 134.857 60.6576 134.851 60.2862C134.861 58.8093 134.435 57.2562 133.781 55.876C133.083 54.4886 132.229 53.2936 131.551 52.4565C131.208 52.0356 130.919 51.7066 130.687 51.478C130.463 51.2493 130.33 51.1247 130.33 51.1247C130.33 51.1247 130.296 51.2784 130.255 51.5481C130.193 51.8191 130.106 52.2037 130.026 52.6791C129.85 53.6226 129.767 54.9156 129.677 56.2946C129.65 56.9864 129.677 57.7062 129.772 58.4259C129.798 58.6097 129.827 58.7887 129.85 58.9641C129.871 59.1407 129.902 59.3173 129.929 59.4939C129.992 59.8496 130.081 60.1943 130.193 60.5354C130.637 61.8913 131.467 63.1493 132.928 63.9876ZM146.854 55.3148C146.941 54.9664 146.974 54.7644 146.974 54.7644C146.974 54.7644 146.296 55.1249 145.221 55.7031C144.17 56.2837 142.792 57.0893 141.489 58.0267C140.137 58.9484 138.803 59.9923 137.941 61.1934C137.729 61.497 137.512 61.797 137.333 62.1127C137.157 62.4296 137.009 62.755 136.908 63.0961C136.693 63.7759 136.635 64.5113 136.771 65.3169C138.377 65.785 139.861 65.4246 141.192 64.5718C141.526 64.3601 141.846 64.1146 142.163 63.8485C142.469 63.5812 142.781 63.2957 143.047 62.974C143.588 62.3389 144.087 61.6313 144.532 60.9092C145.456 59.477 146.016 57.9082 146.416 56.7385C146.611 56.153 146.76 55.6583 146.854 55.3148ZM129.9 67.0309C129.477 65.5298 128.863 64.1799 128.359 63.211C128.105 62.7248 127.879 62.3389 127.699 62.0655C127.52 61.7934 127.416 61.6397 127.416 61.6397C127.416 61.6397 127.354 61.7922 127.256 62.0559C127.144 62.322 126.982 62.703 126.81 63.1663C126.636 63.6344 126.445 64.1872 126.276 64.8041C126.11 65.4016 125.923 66.1685 125.875 66.6221C125.733 67.6902 125.559 68.9663 125.635 70.3126C125.722 71.6576 126.056 73.0849 127.119 74.3828C128.651 74.0284 129.65 72.8878 130.085 71.4907C130.183 71.1411 130.273 70.7807 130.31 70.4081C130.344 70.0344 130.358 69.663 130.335 69.2868C130.302 68.9106 130.25 68.5393 130.175 68.1788C130.095 67.7893 130.002 67.4035 129.9 67.0309ZM139.633 73.7708C139.8 73.5712 139.962 73.3656 140.123 73.1612L140.355 72.8515L140.541 72.5999C140.776 72.2733 141 71.9467 141.208 71.6286C141.626 70.9912 141.989 70.3803 142.287 69.8553C142.578 69.3268 142.806 68.884 142.959 68.5695C143.107 68.249 143.178 68.0591 143.178 68.0591C143.178 68.0591 142.438 68.2732 141.289 68.6336C140.155 68.9941 138.661 69.5227 137.211 70.2049C136.842 70.3767 136.484 70.5545 136.127 70.7529C135.746 70.9694 135.368 71.1907 135.01 71.4109C134.648 71.6322 134.288 71.8463 133.954 72.0786C133.617 72.3047 133.282 72.5261 132.984 72.7729C131.761 73.7272 130.852 74.8231 130.477 76.4392C131.822 77.448 133.399 77.6197 135.024 77.0972C136.639 76.5867 138.297 75.3687 139.633 73.7708ZM117.743 82.0468C119.328 82.1315 120.612 81.3671 121.532 80.2034C122.44 79.0362 122.992 77.4891 123.209 75.9795C123.433 74.4615 123.36 73.0136 123.184 71.9576C123.104 71.4314 123.009 71.0032 122.929 70.702C122.852 70.4033 122.795 70.2364 122.795 70.2364C122.795 70.2364 122.698 70.3343 122.529 70.5206C122.353 70.7008 122.108 70.9657 121.824 71.302C121.234 71.9673 120.434 72.889 119.641 73.9716C118.859 75.0578 118.084 76.3 117.639 77.6572C117.209 79.0204 117.097 80.4973 117.743 82.0468ZM128.854 81.2521C127.184 81.309 125.478 81.4239 124.028 81.8702C122.571 82.3214 121.353 83.098 120.559 84.5253C121.553 85.8752 122.989 86.5006 124.6 86.5731C126.216 86.653 128.004 86.1837 129.64 85.4398C131.277 84.6995 132.761 83.6895 133.807 82.8222C134.334 82.3964 134.753 82.0033 135.042 81.7324C135.33 81.4505 135.483 81.2836 135.483 81.2836C135.483 81.2836 134.683 81.2691 133.413 81.2461C132.171 81.24 130.518 81.2038 128.854 81.2521ZM108.295 87.4126C109.005 87.2783 109.666 86.9397 110.267 86.4982C111.46 85.597 112.373 84.2241 113.002 82.8174C113.633 81.4082 113.974 79.9603 114.16 78.8801C114.249 78.3382 114.299 77.8871 114.332 77.5726C114.36 77.2593 114.369 77.0766 114.369 77.0766C114.369 77.0766 113.809 77.3754 112.993 77.8883C112.171 78.4035 111.088 79.1232 110.022 79.9869C108.966 80.8517 107.934 81.8557 107.21 83.0181C106.487 84.1854 106.031 85.5184 106.074 87.2046C106.812 87.5166 107.577 87.5541 108.295 87.4126ZM116.97 93.2005C118.733 92.8969 120.359 92.3308 121.532 91.8276C122.698 91.3268 123.428 90.9083 123.428 90.9083C123.428 90.9083 122.684 90.6096 121.538 90.2285C120.393 89.8378 118.864 89.354 117.249 88.9585C115.636 88.5702 113.957 88.2787 112.411 88.3488C111.634 88.3827 110.899 88.5158 110.186 88.7698C109.47 89.0238 108.805 89.4169 108.076 89.9649C108.544 91.5785 109.96 92.5994 111.621 93.0675C113.29 93.5489 115.207 93.5114 116.97 93.2005ZM60.4345 79.1729C64.8302 82.821 70.1911 85.3164 75.4517 87.4404C79.7554 89.181 85.2784 92.0224 90.9018 94.6726C85.8481 96.2463 80.8597 97.5321 76.8487 98.2046C76.3213 98.2893 79.0188 101.039 79.528 100.884C84.1849 99.4819 88.9096 97.7813 93.5689 95.9028C98.6589 98.2143 103.685 100.197 107.822 100.889C108.344 100.976 109.964 98.2058 109.442 98.1187C105.521 97.4619 100.966 96.2959 96.224 94.8093C104.034 91.5289 111.554 87.8166 118.057 84.2797C125.115 80.4344 130.414 74.9755 133.898 67.7192C137.126 60.9999 139.404 53.5693 139.74 46.1061C140.204 35.7702 136.732 25.6325 131.348 16.9186C129.772 14.3688 128.009 11.8238 126.054 9.46024C126.228 8.80585 126.249 8.16839 126.136 7.56722C126.004 6.85477 125.727 6.17014 125.301 5.55929C124.483 4.30494 123.156 3.29856 121.8 2.54619C120.433 1.79866 119.012 1.32814 117.952 1.07412C117.419 0.942275 116.978 0.872125 116.672 0.82737C116.52 0.808017 116.398 0.794703 116.319 0.792283C116.246 0.785026 116.207 0.78503 116.207 0.78503C116.207 0.78503 116.221 0.822514 116.251 0.892671C116.291 0.961618 116.338 1.06928 116.406 1.20354C116.545 1.47933 116.745 1.86398 116.999 2.33451C117.504 3.26832 118.194 4.49848 119.007 5.6984C119.407 6.30199 119.868 6.87655 120.338 7.4245C120.573 7.69182 120.827 7.94945 121.091 8.18411C121.345 8.42845 121.613 8.65223 121.898 8.84939C122.469 9.23525 123.069 9.55459 123.743 9.72636C124.254 9.85094 124.793 9.90659 125.372 9.87272C129.125 14.3107 132.196 19.466 134.537 24.6407C137.512 31.2305 139.099 38.4119 138.929 45.6489C138.747 53.5379 136.115 61.5454 132.578 68.5526C129.824 74.0043 125.814 78.4519 120.687 81.771C116.1 84.7346 111.069 86.9578 106.069 89.1206C102.325 90.7438 97.8775 92.407 93.3681 93.8864C83.7107 90.6616 73.6167 86.2962 66.6216 82.3468C62.9637 80.2869 59.6567 77.7564 56.9182 74.5619C54.1833 71.3697 52.2092 67.5813 50.6259 63.7118C47.6224 56.3708 45.7174 48.7745 46.1831 40.8009C46.7286 31.5015 50.3816 22.6073 55.4716 14.8962C56.7767 12.9209 58.1931 10.9493 59.7305 9.09374C60.2857 9.12156 60.8058 9.0635 61.3042 8.94254C61.9767 8.77078 62.5743 8.45265 63.15 8.06558C63.427 7.86842 63.7004 7.64464 63.9545 7.40272C64.2194 7.16806 64.4722 6.91163 64.7068 6.64068C65.1846 6.09274 65.6334 5.52181 66.0398 4.91459C66.8539 3.71709 67.5409 2.48209 68.0429 1.5507C68.2945 1.08258 68.5001 0.689471 68.6331 0.417312C68.7033 0.283047 68.7553 0.176599 68.7928 0.104023C68.8195 0.0374957 68.8327 0 68.8327 0C68.8327 0 68.7976 -1.32902e-06 68.7226 0.00241786C68.6428 0.00725624 68.5255 0.0241963 68.3743 0.0423403C68.0659 0.0846761 67.6244 0.159665 67.0946 0.289091C66.0338 0.543106 64.6136 1.01363 63.2444 1.75875C61.8872 2.51353 60.5627 3.5187 59.7414 4.77426C59.318 5.38874 59.0338 6.07216 58.9116 6.77978C58.7943 7.37006 58.8148 7.99543 58.9793 8.64015C55.3856 12.9088 52.4149 17.8246 50.1106 22.7476C47.2693 28.8319 45.5529 35.4157 45.2916 42.1375C44.9977 49.8595 47.0987 57.2586 50.0006 64.3396C52.3351 70.038 55.6675 75.2175 60.4345 79.1729ZM63.4077 15.9848C63.946 15.5941 64.4588 15.1998 64.8967 14.8018C65.3479 14.4111 65.7579 14.0494 66.0821 13.7216C66.4087 13.3926 66.6905 13.1265 66.8768 12.9318C67.0631 12.7407 67.1611 12.627 67.1611 12.627C67.1611 12.627 66.4668 12.4721 65.3854 12.3657C64.8447 12.3137 64.2206 12.2859 63.5323 12.2907C62.8428 12.2955 62.1001 12.3379 61.3659 12.4576C59.8721 12.6766 58.3686 13.1846 57.2194 14.0349C56.6618 14.474 56.1913 14.9893 55.8623 15.5868C55.5538 16.1977 55.3941 16.8944 55.4316 17.6589C56.9763 18.3314 58.4375 18.2733 59.768 17.8851C60.4478 17.694 61.0901 17.417 61.6852 17.0807C62.2948 16.7565 62.8803 16.3864 63.4077 15.9848ZM51.7254 16.8315C52.4427 16.4698 52.9725 15.9921 53.3814 15.4296C53.8156 14.8816 54.1132 14.2418 54.3128 13.5317C54.7458 12.1468 54.8135 10.4884 54.7978 8.88931C54.793 8.4841 54.7736 8.08251 54.7506 7.68697C54.7361 7.30111 54.7107 6.92009 54.6841 6.55359C54.6285 5.81331 54.5547 5.12505 54.4894 4.53476C54.3696 3.37113 54.2378 2.597 54.2378 2.597C54.2378 2.597 54.1035 2.7482 53.8713 3.00584C53.6427 3.26712 53.3184 3.64813 52.9628 4.14165C52.606 4.63274 52.1863 5.20005 51.7943 5.86533C51.4133 6.52939 51.0081 7.24306 50.684 8.02204C50.3646 8.80465 50.0707 9.60177 49.8941 10.4231C49.7151 11.2432 49.6328 12.0621 49.6703 12.8386C49.7707 14.416 50.3912 15.8227 51.7254 16.8315ZM60.3861 21.0373C60.5264 20.8111 60.6027 20.6816 60.6027 20.6816C60.6027 20.6816 60.4212 20.6817 60.1091 20.6913C59.7886 20.7034 59.3519 20.7361 58.8209 20.805C58.2911 20.8704 57.673 20.972 56.998 21.1244C56.6666 21.203 56.3086 21.284 55.9699 21.3929C55.6312 21.5006 55.2829 21.6227 54.9333 21.7618C54.2438 22.0424 53.5289 22.3787 52.906 22.79C52.2891 23.2133 51.723 23.6984 51.2585 24.2476C51.019 24.5161 50.8376 24.8148 50.6804 25.1245C50.528 25.4305 50.4058 25.7511 50.3162 26.0837C50.234 26.4163 50.1893 26.7587 50.1893 27.1095C50.2062 27.4663 50.2764 27.8316 50.3937 28.2005C51.2138 28.3372 51.9843 28.2997 52.6846 28.1449C53.3789 27.9864 54.0588 27.7263 54.6587 27.3828C54.9623 27.2111 55.2442 27.0187 55.5187 26.8119C55.6603 26.7103 55.7872 26.6002 55.9142 26.4913C56.0497 26.3861 56.184 26.2748 56.3134 26.1623C56.8408 25.7124 57.3065 25.2188 57.7202 24.7181C58.1605 24.233 58.5621 23.7347 58.8984 23.2605C58.9806 23.1456 59.058 23.0259 59.1379 22.9122C59.2249 22.7972 59.3023 22.6884 59.3846 22.5795C59.537 22.3654 59.6834 22.1586 59.8056 21.9699C60.0584 21.5864 60.2495 21.2598 60.3861 21.0373ZM47.1931 27.0659C47.4169 26.7768 47.5935 26.4684 47.735 26.1454C47.8741 25.8237 47.9769 25.4898 48.0446 25.139C48.1148 24.7943 48.1414 24.4302 48.1813 24.0673C48.2321 23.3404 48.1813 22.5686 48.0579 21.7739C47.9382 20.9816 47.8039 20.1954 47.5971 19.4007C47.1919 17.8173 46.7528 16.3283 46.3621 15.1901C45.969 14.0543 45.6992 13.3273 45.6992 13.3273C45.6992 13.3273 45.5915 13.4967 45.4222 13.8124C45.2553 14.1293 45.0291 14.5853 44.78 15.1478C44.2429 16.263 43.7142 17.8512 43.378 19.518C43.2389 20.3672 43.1506 21.2369 43.1506 22.0799C43.1409 22.4985 43.1833 22.9242 43.2498 23.3331C43.3115 23.7443 43.3925 24.1399 43.5062 24.5185C43.736 25.2805 44.0542 25.9555 44.5574 26.5373C45.0533 27.1203 45.6787 27.5884 46.4504 27.9175C46.748 27.6477 46.9923 27.3635 47.1931 27.0659ZM52.0774 37.8277C52.5806 37.339 53.0039 36.7874 53.3571 36.2116C53.7466 35.6419 54.0974 35.0541 54.3732 34.4614C54.5184 34.1699 54.6272 33.8759 54.7675 33.5941C54.9018 33.3098 55.0264 33.0316 55.1353 32.7631C55.3627 32.2248 55.5199 31.7216 55.6711 31.2934C56.0001 30.4419 56.1393 29.8673 56.1393 29.8673C56.1393 29.8673 55.4571 30.0343 54.441 30.4153C53.4032 30.7866 52.1548 31.4192 50.915 32.301C50.6114 32.5224 50.2921 32.757 50.0163 33.0159C49.7405 33.2675 49.4731 33.536 49.224 33.8179C48.7329 34.3852 48.2817 35.0021 47.9842 35.6552C47.7048 36.3108 47.5475 36.9979 47.5475 37.6898C47.5499 38.0333 47.5777 38.3792 47.6866 38.7191C47.8039 39.0627 47.9539 39.4013 48.1668 39.7304C49.8469 39.5779 51.0505 38.8038 52.0774 37.8277ZM43.0768 31.4676C42.7043 30.7503 42.3027 30.0512 41.912 29.4004C41.508 28.7436 41.1451 28.1533 40.8415 27.655C40.2137 26.6486 39.7577 25.9894 39.7577 25.9894C39.7577 25.9894 39.5206 26.7817 39.2714 28.0118C39.1771 28.6384 39.09 29.369 39.032 30.1588C39.0017 30.5556 38.9775 30.9656 38.969 31.3842C38.969 31.8051 38.9969 32.2381 39.032 32.6712C39.1094 33.5336 39.2194 34.4069 39.4384 35.2295C39.6851 36.058 40.0045 36.8382 40.4145 37.5156C41.2044 38.88 42.4805 39.8271 44.1352 40.0606C44.3517 39.7243 44.5114 39.3856 44.6336 39.0421C44.7509 38.6974 44.8658 38.3551 44.9142 38.0091C45.0291 37.31 44.9759 36.5927 44.8065 35.8657C44.6674 35.1387 44.4437 34.4045 44.1316 33.6642C43.8183 32.9288 43.4325 32.1825 43.0768 31.4676ZM48.8635 51.6038C50.4554 51.0534 51.521 49.9962 52.2202 48.783C52.3968 48.4769 52.5467 48.1649 52.6786 47.8431C52.8334 47.5214 52.9677 47.1912 53.085 46.8597C53.3185 46.1969 53.4854 45.5219 53.5955 44.8651C53.7225 44.2107 53.8567 43.5732 53.9208 42.9842C53.9583 42.6902 53.9814 42.4072 54.0031 42.1399C54.0201 41.8738 54.0297 41.6222 54.0623 41.3911C54.1664 40.4767 54.1495 39.8743 54.1495 39.8743C54.1495 39.8743 53.5301 40.2154 52.6508 40.8505C52.4342 41.0053 52.1971 41.1867 51.9492 41.3815C51.6976 41.5786 51.4436 41.7939 51.2041 42.0262C50.713 42.4895 50.2049 43.0241 49.7247 43.6107C49.4852 43.9071 49.2566 44.2155 49.0305 44.5349C48.9252 44.6945 48.8187 44.8615 48.7171 45.026C48.6228 45.1905 48.5345 45.3598 48.4535 45.5292C48.1245 46.2065 47.868 46.9166 47.7289 47.6351C47.6673 47.9919 47.6188 48.3512 47.6273 48.7019C47.6466 49.0527 47.6999 49.4011 47.7918 49.7349C47.9805 50.4111 48.3241 51.0485 48.8635 51.6038ZM39.2013 48.9293C39.4057 49.2983 39.6198 49.6587 39.8666 49.9902C40.1206 50.3167 40.3963 50.6203 40.6806 50.901C41.8309 52.015 43.2159 52.6561 44.8888 52.4976C45.1706 51.7332 45.2553 51.0026 45.1755 50.2986C45.1331 49.9454 45.0533 49.5982 44.9432 49.2571C44.8355 48.9112 44.7194 48.5701 44.5622 48.2362C44.2537 47.5613 43.8256 46.8996 43.3345 46.2585C43.0781 45.9416 42.8264 45.6211 42.5748 45.3054C42.3184 44.9921 42.0547 44.6849 41.7837 44.3861C40.6903 43.1789 39.4819 42.0782 38.6413 41.2532C37.7788 40.4368 37.1668 39.9166 37.1668 39.9166C37.1668 39.9166 37.1462 40.7488 37.2187 42.0056C37.2611 42.631 37.3905 43.3579 37.5357 44.1393C37.6058 44.5288 37.6941 44.9316 37.7921 45.3393C37.8876 45.7433 37.9868 46.1594 38.1441 46.5646C38.4404 47.3762 38.7913 48.183 39.2013 48.9293ZM50.7045 61.5587C51.0166 62.1913 51.4786 62.7514 52.1161 63.2001C53.5773 62.3631 54.4131 61.1088 54.8558 59.7504C54.9683 59.4093 55.0506 59.0609 55.1171 58.7065C55.151 58.5347 55.1788 58.3557 55.1994 58.1815C55.2223 58.0025 55.2538 57.8211 55.2816 57.6408C55.3735 56.9211 55.3954 56.2014 55.3736 55.5095C55.2817 54.133 55.1994 52.8351 55.0228 51.8892C54.9454 51.4187 54.8559 51.0316 54.7978 50.7631C54.7506 50.4909 54.7228 50.3421 54.7228 50.3421C54.7228 50.3421 54.5885 50.4643 54.3647 50.6929C54.1301 50.9215 53.8386 51.2481 53.4999 51.6667C52.8165 52.5073 51.9625 53.7036 51.273 55.0934C50.615 56.4699 50.1941 58.0219 50.2014 59.4988C50.1989 59.8725 50.257 60.2257 50.3441 60.5656C50.4275 60.9128 50.5485 61.2442 50.7045 61.5587ZM42.0015 62.1889C42.2651 62.5143 42.5736 62.7961 42.8906 63.0647C43.2014 63.3332 43.5232 63.5727 43.857 63.788C45.1888 64.642 46.6681 65.0024 48.2769 64.5319C48.4124 63.7275 48.3518 62.9909 48.1402 62.3087C48.0373 61.9724 47.891 61.6434 47.7096 61.3277C47.5378 61.0108 47.3152 60.7132 47.1108 60.4084C46.2459 59.2061 44.9094 58.167 43.5643 57.2405C42.2592 56.3042 40.8826 55.4999 39.8291 54.9168C38.7537 54.3399 38.074 53.9806 38.074 53.9806C38.074 53.9806 38.1066 54.185 38.1961 54.5334C38.288 54.8781 38.4344 55.3668 38.6316 55.9547C39.032 57.1243 39.5907 58.6932 40.5173 60.1217C40.9648 60.8451 41.4644 61.5551 42.0015 62.1889ZM54.9635 70.7093C55.3941 72.1016 56.4005 73.247 57.927 73.6002C58.9927 72.2975 59.3265 70.8738 59.4136 69.5287C59.491 68.1837 59.3168 66.9088 59.1741 65.8383C59.1221 65.3847 58.9407 64.6202 58.7737 64.0202C58.602 63.4046 58.4121 62.8482 58.2379 62.3849C58.0661 61.9168 57.9041 61.5382 57.7903 61.2745C57.6948 61.006 57.6355 60.8559 57.6355 60.8559C57.6355 60.8559 57.5218 61.0072 57.3476 61.2793C57.1613 61.5551 56.9461 61.9421 56.6872 62.4272C56.1816 63.3937 55.5719 64.7484 55.1486 66.2471C55.0397 66.6233 54.949 67.0068 54.8728 67.395C54.8002 67.7579 54.7433 68.1292 54.7083 68.5054C54.6913 68.8792 54.7034 69.2517 54.7385 69.6279C54.7784 69.998 54.8655 70.3561 54.9635 70.7093ZM43.7542 67.8438C42.6111 67.4857 41.8697 67.2741 41.8697 67.2741C41.8697 67.2741 41.9398 67.4627 42.0838 67.7821C42.2398 68.0954 42.4696 68.5417 42.7635 69.0691C43.0599 69.5941 43.4204 70.2037 43.8389 70.8423C44.0481 71.1629 44.2719 71.4895 44.509 71.8185L44.6965 72.0701L44.9275 72.3786C45.092 72.583 45.2541 72.7874 45.4138 72.9894C46.7528 74.5812 48.4027 75.8005 50.0259 76.3097C51.6516 76.8311 53.2265 76.6654 54.5728 75.6517C54.1966 74.0405 53.2883 72.9422 52.0629 71.9854C51.7642 71.7411 51.4303 71.5221 51.0965 71.2911C50.7626 71.0625 50.4034 70.846 50.0405 70.6307C49.6788 70.4021 49.3074 70.1831 48.924 69.9678C48.5611 69.7694 48.2091 69.5941 47.8414 69.4211C46.3887 68.7352 44.8973 68.2079 43.7542 67.8438ZM63.5202 79.4208C64.4347 80.582 65.7144 81.3465 67.3074 81.2642C67.9521 79.7147 67.842 78.2318 67.403 76.8722C66.9651 75.5174 66.1897 74.2728 65.4059 73.189C64.616 72.1052 63.8166 71.1798 63.2263 70.517C62.9372 70.1831 62.6904 69.917 62.5138 69.7368C62.3493 69.5505 62.2501 69.455 62.2501 69.455C62.2501 69.455 62.1932 69.6195 62.1134 69.9182C62.036 70.2194 61.9465 70.6464 61.8618 71.1738C61.69 72.2298 61.615 73.6788 61.84 75.1957C62.0626 76.704 62.6033 78.2535 63.5202 79.4208ZM60.449 85.7917C62.0626 85.7143 63.4924 85.095 64.4964 83.7451C63.6968 82.313 62.4763 81.5388 61.0199 81.0876C59.5636 80.6413 57.8654 80.5203 56.1961 80.4695C54.5305 80.4199 52.877 80.4586 51.6383 80.4623C50.3634 80.4889 49.5663 80.4974 49.5663 80.4974C49.5663 80.4974 49.7187 80.6715 50.0078 80.951C50.2945 81.2171 50.7154 81.6126 51.2355 82.0408C52.2867 82.9057 53.7709 83.9205 55.4087 84.6584C57.0477 85.3999 58.833 85.8692 60.449 85.7917ZM72.049 82.0287C72.6744 83.4379 73.5864 84.8156 74.7851 85.7143C75.3791 86.1558 76.0455 86.4933 76.7604 86.6312C77.4729 86.7703 78.2349 86.7328 78.98 86.4195C79.0151 84.7334 78.5567 83.3992 77.8345 82.2307C77.11 81.0707 76.0843 80.0643 75.0235 79.2019C73.9627 78.3419 72.874 77.6185 72.0551 77.1069C71.2374 76.5916 70.6774 76.2904 70.6774 76.2904C70.6774 76.2904 70.6822 76.4766 70.7149 76.7911C70.7451 77.1068 70.7995 77.558 70.8866 78.0987C71.0705 79.1753 71.414 80.6219 72.049 82.0287Z" fill="url(#paint0_linear_372_588)"/>
<path d="M82.078 64.3421H98.0988C99.1608 64.3412 100.179 63.9189 100.93 63.168C101.681 62.4171 102.103 61.3989 102.104 60.3369V31.4994C102.103 30.4374 101.681 29.4192 100.93 28.6683C100.179 27.9174 99.1608 27.4951 98.0988 27.4941H82.078C81.016 27.4951 79.9978 27.9174 79.2469 28.6683C78.496 29.4192 78.0737 30.4374 78.0728 31.4994V60.3369C78.0737 61.3989 78.496 62.4171 79.2469 63.168C79.9978 63.9189 81.016 64.3412 82.078 64.3421ZM79.6748 31.4994C79.6756 30.8622 79.929 30.2514 80.3795 29.8009C80.83 29.3504 81.4408 29.0969 82.078 29.0962H98.0988C98.736 29.0969 99.3468 29.3504 99.7973 29.8009C100.248 30.2514 100.501 30.8622 100.502 31.4994V60.3369C100.501 60.9741 100.248 61.5849 99.7973 62.0354C99.3468 62.4859 98.736 62.7393 98.0988 62.7401H82.078C81.4408 62.7393 80.83 62.4859 80.3795 62.0354C79.929 61.5849 79.6756 60.9741 79.6748 60.3369V31.4994Z" fill="#818181"/>
<path d="M91.6903 61.1382C91.9027 61.1382 92.1065 61.0538 92.2567 60.9036C92.4069 60.7534 92.4913 60.5496 92.4913 60.3372C92.4913 60.1247 92.4069 59.921 92.2567 59.7708C92.1065 59.6205 91.9027 59.5361 91.6903 59.5361H88.4861C88.2737 59.5361 88.0699 59.6205 87.9197 59.7708C87.7695 59.921 87.6851 60.1247 87.6851 60.3372C87.6851 60.5496 87.7695 60.7534 87.9197 60.9036C88.0699 61.0538 88.2737 61.1382 88.4861 61.1382H91.6903Z" fill="#818181"/>
<path d="M101.303 57.9341C101.515 57.9341 101.719 57.8497 101.869 57.6995C102.02 57.5493 102.104 57.3455 102.104 57.1331C102.104 56.9206 102.02 56.7169 101.869 56.5667C101.719 56.4164 101.515 56.332 101.303 56.332H78.8738C78.6613 56.332 78.4576 56.4164 78.3074 56.5667C78.1571 56.7169 78.0728 56.9206 78.0728 57.1331C78.0728 57.3455 78.1571 57.5493 78.3074 57.6995C78.4576 57.8497 78.6613 57.9341 78.8738 57.9341H101.303Z" fill="#818181"/>
<path d="M109.793 54.7292C109.836 54.7294 109.879 54.7257 109.921 54.7183C110.047 54.6984 110.166 54.6486 110.268 54.5732C110.371 54.4978 110.453 54.399 110.51 54.2849L111.833 51.6268L114.479 50.3001C114.592 50.2428 114.69 50.1597 114.764 50.0575C114.839 49.9552 114.889 49.8368 114.909 49.7118C114.93 49.5869 114.921 49.4588 114.882 49.3383C114.843 49.2177 114.776 49.1081 114.687 49.0186L108.198 42.5008C108.124 42.426 108.035 42.3666 107.938 42.326C107.841 42.2855 107.736 42.2646 107.63 42.2646C107.525 42.2646 107.42 42.2855 107.323 42.326C107.225 42.3666 107.137 42.426 107.063 42.5008L102.737 46.8455C102.587 46.9954 102.503 47.1986 102.503 47.4103C102.503 47.6221 102.587 47.8252 102.737 47.9751L109.225 54.4929C109.3 54.5679 109.388 54.6274 109.486 54.6679C109.583 54.7085 109.688 54.7293 109.793 54.7292ZM107.63 44.2014L112.77 49.3645L110.875 50.314C110.721 50.3923 110.595 50.5186 110.518 50.674L109.573 52.5717L104.434 47.4102L107.63 44.2014Z" fill="#818181"/>
<path d="M93.9763 51.6271L95.2998 54.2853C95.356 54.3993 95.4388 54.4981 95.5412 54.5735C95.6435 54.649 95.7625 54.6987 95.888 54.7186C95.9304 54.7261 95.9733 54.7297 96.0162 54.7295C96.1218 54.7297 96.2264 54.7088 96.3239 54.6683C96.4214 54.6277 96.5098 54.5682 96.5842 54.4932L103.073 47.9754C103.222 47.8255 103.306 47.6224 103.306 47.4106C103.306 47.1989 103.222 46.9958 103.073 46.8458L98.747 42.5011C98.594 42.355 98.3906 42.2734 98.179 42.2734C97.9675 42.2734 97.7641 42.355 97.6111 42.5011L91.1226 49.0189C91.0331 49.1084 90.9663 49.218 90.9276 49.3386C90.889 49.4592 90.8797 49.5872 90.9004 49.7121C90.9208 49.8371 90.9704 49.9556 91.0451 50.0578C91.1199 50.16 91.2178 50.2431 91.3308 50.3004L93.9763 51.6271ZM98.1786 44.2017L101.375 47.4106L96.2354 52.572L95.2901 50.6743C95.2132 50.519 95.088 50.3927 94.9334 50.3143L93.0387 49.3648L98.1786 44.2017Z" fill="#818181"/>
<path d="M102.904 47.8852C107.409 47.8852 111.06 44.217 111.06 39.6921C111.06 35.1672 107.409 31.499 102.904 31.499C98.3997 31.499 94.748 35.1672 94.748 39.6921C94.748 44.217 98.3997 47.8852 102.904 47.8852Z" fill="#1C1D25"/>
<path d="M111.862 39.6929C111.854 37.923 111.323 36.195 110.334 34.7269C109.345 33.2589 107.944 32.1167 106.306 31.4445C104.669 30.7724 102.869 30.6003 101.134 30.9501C99.3993 31.3 97.8069 32.156 96.558 33.4101C95.3091 34.6642 94.4597 36.2603 94.1171 37.9967C93.7746 39.7332 93.9541 41.5322 94.6331 43.1667C95.3122 44.8012 96.4602 46.1978 97.9323 47.1804C99.4045 48.1629 101.135 48.6873 102.905 48.6873C105.284 48.6797 107.564 47.7284 109.243 46.0422C110.922 44.356 111.864 42.0726 111.862 39.6929ZM95.5498 39.6929C95.5571 38.2398 95.9948 36.8215 96.8074 35.6169C97.6201 34.4123 98.7714 33.4754 100.116 32.9244C101.461 32.3734 102.938 32.2331 104.362 32.5211C105.787 32.8091 107.094 33.5126 108.119 34.5427C109.144 35.5728 109.84 36.8834 110.121 38.3091C110.402 39.7348 110.254 41.2118 109.696 42.5535C109.138 43.8953 108.196 45.0418 106.987 45.8483C105.778 46.6549 104.358 47.0853 102.905 47.0853C100.95 47.0779 99.0776 46.2955 97.6988 44.9097C96.32 43.5239 95.5472 41.6478 95.5498 39.6929Z" fill="#818181"/>
<path d="M107.78 38.1019C107.733 37.9599 107.648 37.8336 107.534 37.7374C107.42 37.6411 107.281 37.5787 107.133 37.5572L104.71 37.2038L103.623 34.9947C103.549 34.8696 103.444 34.7659 103.318 34.6939C103.192 34.6219 103.05 34.584 102.905 34.584C102.759 34.584 102.617 34.6219 102.491 34.6939C102.365 34.7659 102.26 34.8696 102.186 34.9947L101.099 37.2038L98.675 37.5575C98.5272 37.579 98.3883 37.6414 98.2741 37.7377C98.1598 37.834 98.0748 37.9603 98.0286 38.1024C97.9823 38.2444 97.9768 38.3966 98.0125 38.5417C98.0482 38.6867 98.1237 38.8189 98.2306 38.9233L99.9867 40.6427L99.5722 43.074C99.5469 43.2215 99.5635 43.3731 99.62 43.5116C99.6764 43.6502 99.7706 43.7701 99.8918 43.8579C100.013 43.9457 100.156 43.9978 100.306 44.0083C100.455 44.0188 100.604 43.9873 100.736 43.9173L102.905 42.772L105.073 43.9173C105.205 43.9873 105.354 44.0188 105.504 44.0083C105.653 43.9978 105.796 43.9457 105.917 43.8579C106.039 43.7701 106.133 43.6502 106.189 43.5116C106.246 43.3731 106.262 43.2215 106.237 43.074L105.822 40.6427L107.578 38.9233C107.684 38.8187 107.76 38.6864 107.796 38.5413C107.831 38.3962 107.826 38.2441 107.78 38.1019ZM104.402 39.7916C104.309 39.8823 104.24 39.9939 104.2 40.117C104.16 40.2401 104.15 40.3711 104.172 40.4988L104.385 41.7411L103.279 41.1574C103.164 41.0968 103.035 41.0651 102.905 41.0651C102.775 41.0651 102.647 41.0968 102.531 41.1574L101.426 41.7411L101.639 40.4988C101.66 40.3711 101.65 40.2401 101.61 40.117C101.57 39.9939 101.501 39.8823 101.409 39.7916L100.509 38.9092L101.75 38.7293C101.878 38.7102 102 38.6602 102.105 38.5837C102.21 38.5071 102.295 38.4062 102.352 38.2897L102.905 37.1647L103.458 38.2897C103.516 38.4062 103.601 38.5071 103.705 38.5837C103.81 38.6602 103.932 38.7102 104.061 38.7293L105.301 38.9092L104.402 39.7916Z" fill="#818181"/>
<path d="M4.43958 134.975V124.793H7.99924C8.70852 124.793 9.29351 124.915 9.75421 125.161C10.2149 125.403 10.558 125.729 10.7833 126.14C11.0087 126.548 11.1214 127 11.1214 127.497C11.1214 127.935 11.0435 128.296 10.8877 128.581C10.7353 128.866 10.5331 129.092 10.2812 129.257C10.0326 129.423 9.7625 129.546 9.47083 129.625V129.725C9.78238 129.744 10.0956 129.854 10.4105 130.053C10.7253 130.252 10.9888 130.537 11.2009 130.908C11.4131 131.279 11.5191 131.733 11.5191 132.27C11.5191 132.78 11.4031 133.24 11.1711 133.647C10.9391 134.055 10.5729 134.378 10.0724 134.617C9.57192 134.855 8.92064 134.975 8.11856 134.975H4.43958ZM5.67254 133.881H8.11856C8.92396 133.881 9.49569 133.725 9.83376 133.414C10.1751 133.099 10.3458 132.718 10.3458 132.27C10.3458 131.925 10.258 131.607 10.0823 131.316C9.90667 131.021 9.65644 130.785 9.33163 130.61C9.00682 130.431 8.62235 130.341 8.17822 130.341H5.67254V133.881ZM5.67254 129.267H7.95947C8.33068 129.267 8.66543 129.194 8.96373 129.048C9.26534 128.903 9.50398 128.697 9.67964 128.432C9.85862 128.167 9.9481 127.855 9.9481 127.497C9.9481 127.05 9.79233 126.67 9.48077 126.359C9.16922 126.044 8.67538 125.887 7.99924 125.887H5.67254V129.267ZM16.5877 135.134C15.8519 135.134 15.2172 134.971 14.6835 134.646C14.1532 134.318 13.7439 133.861 13.4556 133.274C13.1705 132.684 13.028 131.998 13.028 131.216C13.028 130.434 13.1705 129.744 13.4556 129.148C13.7439 128.548 14.145 128.081 14.6587 127.746C15.1757 127.408 15.779 127.239 16.4683 127.239C16.8661 127.239 17.2588 127.305 17.6466 127.438C18.0344 127.57 18.3874 127.786 18.7056 128.084C19.0237 128.379 19.2773 128.77 19.4662 129.257C19.6551 129.744 19.7496 130.344 19.7496 131.057V131.554H13.8632V130.54H18.5564C18.5564 130.109 18.4702 129.725 18.2979 129.387C18.1289 129.048 17.8869 128.782 17.572 128.586C17.2605 128.391 16.8926 128.293 16.4683 128.293C16.001 128.293 15.5967 128.409 15.2553 128.641C14.9172 128.869 14.657 129.168 14.4747 129.536C14.2924 129.904 14.2013 130.298 14.2013 130.719V131.395C14.2013 131.972 14.3007 132.461 14.4996 132.862C14.7018 133.259 14.9818 133.563 15.3398 133.771C15.6977 133.977 16.1137 134.08 16.5877 134.08C16.8959 134.08 17.1743 134.037 17.4229 133.95C17.6748 133.861 17.8919 133.728 18.0742 133.553C18.2565 133.374 18.3973 133.152 18.4968 132.887L19.6303 133.205C19.511 133.589 19.3104 133.927 19.0287 134.219C18.747 134.507 18.399 134.733 17.9847 134.895C17.5704 135.054 17.1047 135.134 16.5877 135.134ZM26.9435 129.048L25.8895 129.347C25.8232 129.171 25.7254 129 25.5962 128.835C25.4702 128.666 25.2979 128.526 25.0791 128.417C24.8604 128.308 24.5803 128.253 24.2389 128.253C23.7716 128.253 23.3822 128.361 23.0706 128.576C22.7624 128.788 22.6083 129.058 22.6083 129.387C22.6083 129.678 22.7143 129.909 22.9264 130.078C23.1386 130.247 23.47 130.387 23.9208 130.5L25.0543 130.779C25.737 130.944 26.2458 131.198 26.5806 131.539C26.9153 131.877 27.0827 132.313 27.0827 132.847C27.0827 133.284 26.9567 133.675 26.7049 134.02C26.4563 134.365 26.1083 134.637 25.6608 134.835C25.2134 135.034 24.693 135.134 24.0997 135.134C23.3209 135.134 22.6762 134.965 22.1658 134.627C21.6554 134.289 21.3322 133.795 21.1963 133.145L22.31 132.867C22.416 133.278 22.6165 133.586 22.9115 133.791C23.2098 133.997 23.5993 134.1 24.0799 134.1C24.6267 134.1 25.0609 133.984 25.3824 133.752C25.7072 133.516 25.8696 133.235 25.8696 132.906C25.8696 132.641 25.7768 132.419 25.5912 132.24C25.4056 132.058 25.1206 131.922 24.7361 131.833L23.4634 131.534C22.764 131.369 22.2503 131.112 21.9222 130.764C21.5974 130.412 21.435 129.973 21.435 129.446C21.435 129.015 21.5559 128.634 21.7979 128.303C22.0432 127.971 22.3763 127.711 22.7972 127.522C23.2214 127.333 23.702 127.239 24.2389 127.239C24.9946 127.239 25.5879 127.405 26.0188 127.736C26.453 128.067 26.7612 128.505 26.9435 129.048ZM32.1699 127.338V128.333H28.2125V127.338H32.1699ZM29.3659 125.509H30.5392V132.787C30.5392 133.119 30.5872 133.367 30.6834 133.533C30.7828 133.695 30.9087 133.805 31.0612 133.861C31.217 133.914 31.381 133.941 31.5534 133.941C31.6827 133.941 31.7887 133.934 31.8716 133.921C31.9544 133.904 32.0207 133.891 32.0704 133.881L32.3091 134.935C32.2295 134.965 32.1185 134.994 31.976 135.024C31.8335 135.057 31.6528 135.074 31.4341 135.074C31.1026 135.074 30.7778 135.003 30.4596 134.86C30.1448 134.718 29.8829 134.501 29.6741 134.209C29.4686 133.917 29.3659 133.549 29.3659 133.105V125.509ZM38.449 134.975H37.1564L40.895 124.793H42.1677L45.9064 134.975H44.6138L41.5712 126.404H41.4916L38.449 134.975ZM38.9263 130.997H44.1365V132.091H38.9263V130.997ZM47.3332 137.838V127.338H48.4667V128.551H48.606C48.6921 128.419 48.8114 128.25 48.9639 128.044C49.1197 127.835 49.3417 127.65 49.6301 127.487C49.9218 127.322 50.3162 127.239 50.8133 127.239C51.4563 127.239 52.0231 127.4 52.5136 127.721C53.0042 128.043 53.387 128.498 53.6621 129.088C53.9372 129.678 54.0747 130.374 54.0747 131.176C54.0747 131.985 53.9372 132.686 53.6621 133.279C53.387 133.869 53.0058 134.327 52.5186 134.651C52.0314 134.973 51.4696 135.134 50.8332 135.134C50.3427 135.134 49.9499 135.052 49.655 134.89C49.36 134.724 49.1329 134.537 48.9738 134.328C48.8148 134.116 48.6921 133.941 48.606 133.801H48.5065V137.838H47.3332ZM48.4866 131.156C48.4866 131.733 48.5712 132.242 48.7402 132.683C48.9092 133.12 49.1561 133.463 49.481 133.712C49.8058 133.957 50.2035 134.08 50.6741 134.08C51.1647 134.08 51.574 133.95 51.9021 133.692C52.2336 133.43 52.4821 133.079 52.6479 132.638C52.8169 132.194 52.9014 131.7 52.9014 131.156C52.9014 130.619 52.8185 130.136 52.6528 129.705C52.4904 129.271 52.2435 128.927 51.9121 128.676C51.5839 128.42 51.1713 128.293 50.6741 128.293C50.1969 128.293 49.7958 128.414 49.471 128.656C49.1462 128.894 48.9009 129.229 48.7352 129.66C48.5695 130.088 48.4866 130.586 48.4866 131.156ZM55.8645 137.838V127.338H56.998V128.551H57.1372C57.2234 128.419 57.3427 128.25 57.4952 128.044C57.6509 127.835 57.873 127.65 58.1613 127.487C58.453 127.322 58.8474 127.239 59.3446 127.239C59.9876 127.239 60.5543 127.4 61.0449 127.721C61.5354 128.043 61.9182 128.498 62.1933 129.088C62.4684 129.678 62.606 130.374 62.606 131.176C62.606 131.985 62.4684 132.686 62.1933 133.279C61.9182 133.869 61.5371 134.327 61.0498 134.651C60.5626 134.973 60.0008 135.134 59.3645 135.134C58.8739 135.134 58.4812 135.052 58.1862 134.89C57.8912 134.724 57.6642 134.537 57.5051 134.328C57.346 134.116 57.2234 133.941 57.1372 133.801H57.0378V137.838H55.8645ZM57.0179 131.156C57.0179 131.733 57.1024 132.242 57.2714 132.683C57.4405 133.12 57.6874 133.463 58.0122 133.712C58.337 133.957 58.7347 134.08 59.2054 134.08C59.6959 134.08 60.1052 133.95 60.4334 133.692C60.7648 133.43 61.0134 133.079 61.1791 132.638C61.3481 132.194 61.4327 131.7 61.4327 131.156C61.4327 130.619 61.3498 130.136 61.1841 129.705C61.0217 129.271 60.7747 128.927 60.4433 128.676C60.1152 128.42 59.7025 128.293 59.2054 128.293C58.7281 128.293 58.3271 128.414 58.0023 128.656C57.6774 128.894 57.4322 129.229 57.2665 129.66C57.1007 130.088 57.0179 130.586 57.0179 131.156ZM71.4355 135.134C70.7461 135.134 70.1412 134.97 69.6209 134.642C69.1038 134.313 68.6995 133.854 68.4078 133.264C68.1194 132.674 67.9753 131.985 67.9753 131.196C67.9753 130.401 68.1194 129.706 68.4078 129.113C68.6995 128.52 69.1038 128.059 69.6209 127.731C70.1412 127.403 70.7461 127.239 71.4355 127.239C72.1249 127.239 72.7281 127.403 73.2452 127.731C73.7655 128.059 74.1699 128.52 74.4582 129.113C74.7499 129.706 74.8957 130.401 74.8957 131.196C74.8957 131.985 74.7499 132.674 74.4582 133.264C74.1699 133.854 73.7655 134.313 73.2452 134.642C72.7281 134.97 72.1249 135.134 71.4355 135.134ZM71.4355 134.08C71.9592 134.08 72.39 133.945 72.7281 133.677C73.0662 133.409 73.3164 133.056 73.4788 132.618C73.6412 132.181 73.7224 131.707 73.7224 131.196C73.7224 130.686 73.6412 130.21 73.4788 129.769C73.3164 129.329 73.0662 128.972 72.7281 128.7C72.39 128.429 71.9592 128.293 71.4355 128.293C70.9118 128.293 70.481 128.429 70.1429 128.7C69.8048 128.972 69.5546 129.329 69.3922 129.769C69.2298 130.21 69.1486 130.686 69.1486 131.196C69.1486 131.707 69.2298 132.181 69.3922 132.618C69.5546 133.056 69.8048 133.409 70.1429 133.677C70.481 133.945 70.9118 134.08 71.4355 134.08ZM80.0873 127.338V128.333H75.9708V127.338H80.0873ZM77.2038 134.975V126.284C77.2038 125.847 77.3065 125.482 77.512 125.191C77.7175 124.899 77.9843 124.68 78.3125 124.534C78.6406 124.388 78.9869 124.316 79.3515 124.316C79.6399 124.316 79.8752 124.339 80.0575 124.385C80.2398 124.432 80.3757 124.475 80.4651 124.514L80.1271 125.529C80.0674 125.509 79.9846 125.484 79.8785 125.454C79.7758 125.424 79.6399 125.409 79.4708 125.409C79.083 125.409 78.803 125.507 78.6306 125.703C78.4616 125.898 78.3771 126.185 78.3771 126.563V134.975H77.2038ZM88.9902 127.338V128.333H85.0328V127.338H88.9902ZM86.1862 125.509H87.3595V132.787C87.3595 133.119 87.4076 133.367 87.5037 133.533C87.6031 133.695 87.7291 133.805 87.8815 133.861C88.0373 133.914 88.2014 133.941 88.3737 133.941C88.503 133.941 88.609 133.934 88.6919 133.921C88.7747 133.904 88.841 133.891 88.8908 133.881L89.1294 134.935C89.0498 134.965 88.9388 134.994 88.7963 135.024C88.6538 135.057 88.4731 135.074 88.2544 135.074C87.923 135.074 87.5981 135.003 87.28 134.86C86.9651 134.718 86.7033 134.501 86.4944 134.209C86.289 133.917 86.1862 133.549 86.1862 133.105V125.509ZM92.0925 130.381V134.975H90.9192V124.793H92.0925V128.531H92.1919C92.3709 128.137 92.6393 127.824 92.9973 127.592C93.3586 127.356 93.8391 127.239 94.439 127.239C94.9594 127.239 95.4151 127.343 95.8062 127.552C96.1973 127.758 96.5006 128.074 96.716 128.502C96.9348 128.926 97.0442 129.466 97.0442 130.122V134.975H95.8709V130.202C95.8709 129.595 95.7134 129.126 95.3986 128.795C95.087 128.46 94.6545 128.293 94.101 128.293C93.7165 128.293 93.3718 128.374 93.0669 128.536C92.7653 128.699 92.5266 128.936 92.351 129.247C92.1786 129.559 92.0925 129.937 92.0925 130.381ZM102.392 135.134C101.657 135.134 101.022 134.971 100.488 134.646C99.9579 134.318 99.5486 133.861 99.2602 133.274C98.9752 132.684 98.8327 131.998 98.8327 131.216C98.8327 130.434 98.9752 129.744 99.2602 129.148C99.5486 128.548 99.9496 128.081 100.463 127.746C100.98 127.408 101.584 127.239 102.273 127.239C102.671 127.239 103.064 127.305 103.451 127.438C103.839 127.57 104.192 127.786 104.51 128.084C104.828 128.379 105.082 128.77 105.271 129.257C105.46 129.744 105.554 130.344 105.554 131.057V131.554H99.6679V130.54H104.361C104.361 130.109 104.275 129.725 104.103 129.387C103.934 129.048 103.692 128.782 103.377 128.586C103.065 128.391 102.697 128.293 102.273 128.293C101.806 128.293 101.401 128.409 101.06 128.641C100.722 128.869 100.462 129.168 100.279 129.536C100.097 129.904 100.006 130.298 100.006 130.719V131.395C100.006 131.972 100.105 132.461 100.304 132.862C100.506 133.259 100.787 133.563 101.144 133.771C101.502 133.977 101.918 134.08 102.392 134.08C102.701 134.08 102.979 134.037 103.228 133.95C103.479 133.861 103.697 133.728 103.879 133.553C104.061 133.374 104.202 133.152 104.301 132.887L105.435 133.205C105.316 133.589 105.115 133.927 104.833 134.219C104.552 134.507 104.204 134.733 103.789 134.895C103.375 135.054 102.909 135.134 102.392 135.134ZM111.436 134.975V124.793H112.669V129.327H118.098V124.793H119.331V134.975H118.098V130.421H112.669V134.975H111.436ZM123.887 135.154C123.403 135.154 122.964 135.062 122.57 134.88C122.175 134.695 121.862 134.428 121.63 134.08C121.398 133.728 121.282 133.304 121.282 132.807C121.282 132.369 121.368 132.015 121.54 131.743C121.713 131.468 121.943 131.253 122.231 131.097C122.52 130.941 122.838 130.825 123.186 130.749C123.537 130.669 123.89 130.606 124.245 130.56C124.709 130.5 125.085 130.455 125.374 130.426C125.665 130.392 125.877 130.338 126.01 130.262C126.146 130.185 126.214 130.053 126.214 129.864V129.824C126.214 129.334 126.079 128.952 125.811 128.681C125.546 128.409 125.143 128.273 124.603 128.273C124.043 128.273 123.604 128.396 123.285 128.641C122.967 128.886 122.744 129.148 122.614 129.426L121.501 129.029C121.7 128.565 121.965 128.203 122.296 127.945C122.631 127.683 122.995 127.501 123.39 127.398C123.788 127.292 124.179 127.239 124.563 127.239C124.808 127.239 125.09 127.269 125.408 127.328C125.73 127.385 126.04 127.502 126.338 127.681C126.64 127.86 126.89 128.13 127.089 128.492C127.288 128.853 127.387 129.337 127.387 129.943V134.975H126.214V133.941H126.154C126.075 134.106 125.942 134.284 125.756 134.472C125.571 134.661 125.324 134.822 125.016 134.955C124.707 135.087 124.331 135.154 123.887 135.154ZM124.066 134.1C124.53 134.1 124.921 134.008 125.239 133.826C125.561 133.644 125.803 133.409 125.965 133.12C126.131 132.832 126.214 132.529 126.214 132.21V131.137C126.164 131.196 126.055 131.251 125.886 131.301C125.72 131.347 125.528 131.388 125.309 131.425C125.093 131.458 124.883 131.488 124.678 131.514C124.475 131.538 124.311 131.557 124.185 131.574C123.88 131.614 123.595 131.678 123.33 131.768C123.068 131.854 122.856 131.985 122.694 132.161C122.535 132.333 122.455 132.568 122.455 132.867C122.455 133.274 122.606 133.583 122.908 133.791C123.213 133.997 123.599 134.1 124.066 134.1ZM132.631 135.134C131.915 135.134 131.298 134.965 130.781 134.627C130.264 134.289 129.867 133.823 129.588 133.23C129.31 132.636 129.171 131.959 129.171 131.196C129.171 130.421 129.313 129.736 129.598 129.143C129.886 128.546 130.288 128.081 130.801 127.746C131.318 127.408 131.922 127.239 132.611 127.239C133.148 127.239 133.632 127.338 134.063 127.537C134.494 127.736 134.846 128.014 135.122 128.372C135.397 128.73 135.567 129.148 135.634 129.625H134.46C134.371 129.277 134.172 128.969 133.864 128.7C133.559 128.429 133.148 128.293 132.631 128.293C132.173 128.293 131.772 128.412 131.428 128.651C131.086 128.886 130.82 129.219 130.627 129.65C130.438 130.078 130.344 130.58 130.344 131.156C130.344 131.746 130.437 132.26 130.622 132.698C130.811 133.135 131.076 133.475 131.418 133.717C131.762 133.959 132.167 134.08 132.631 134.08C132.936 134.08 133.212 134.027 133.461 133.921C133.71 133.815 133.92 133.662 134.092 133.463C134.265 133.264 134.387 133.026 134.46 132.747H135.634C135.567 133.198 135.403 133.604 135.141 133.965C134.883 134.323 134.54 134.608 134.112 134.82C133.688 135.029 133.194 135.134 132.631 135.134ZM138.443 132.191L138.423 130.739H138.661L142.002 127.338H143.454L139.894 130.938H139.795L138.443 132.191ZM137.349 134.975V124.793H138.522V134.975H137.349ZM142.201 134.975L139.218 131.196L140.053 130.381L143.693 134.975H142.201ZM147.211 135.154C146.727 135.154 146.288 135.062 145.894 134.88C145.499 134.695 145.186 134.428 144.954 134.08C144.722 133.728 144.606 133.304 144.606 132.807C144.606 132.369 144.692 132.015 144.865 131.743C145.037 131.468 145.267 131.253 145.556 131.097C145.844 130.941 146.162 130.825 146.51 130.749C146.862 130.669 147.215 130.606 147.569 130.56C148.033 130.5 148.409 130.455 148.698 130.426C148.989 130.392 149.202 130.338 149.334 130.262C149.47 130.185 149.538 130.053 149.538 129.864V129.824C149.538 129.334 149.404 128.952 149.135 128.681C148.87 128.409 148.467 128.273 147.927 128.273C147.367 128.273 146.928 128.396 146.61 128.641C146.292 128.886 146.068 129.148 145.939 129.426L144.825 129.029C145.024 128.565 145.289 128.203 145.62 127.945C145.955 127.683 146.32 127.501 146.714 127.398C147.112 127.292 147.503 127.239 147.887 127.239C148.133 127.239 148.414 127.269 148.733 127.328C149.054 127.385 149.364 127.502 149.662 127.681C149.964 127.86 150.214 128.13 150.413 128.492C150.612 128.853 150.711 129.337 150.711 129.943V134.975H149.538V133.941H149.478C149.399 134.106 149.266 134.284 149.081 134.472C148.895 134.661 148.648 134.822 148.34 134.955C148.032 135.087 147.655 135.154 147.211 135.154ZM147.39 134.1C147.854 134.1 148.245 134.008 148.564 133.826C148.885 133.644 149.127 133.409 149.289 133.12C149.455 132.832 149.538 132.529 149.538 132.21V131.137C149.488 131.196 149.379 131.251 149.21 131.301C149.044 131.347 148.852 131.388 148.633 131.425C148.418 131.458 148.207 131.488 148.002 131.514C147.8 131.538 147.635 131.557 147.51 131.574C147.205 131.614 146.92 131.678 146.654 131.768C146.393 131.854 146.18 131.985 146.018 132.161C145.859 132.333 145.779 132.568 145.779 132.867C145.779 133.274 145.93 133.583 146.232 133.791C146.537 133.997 146.923 134.1 147.39 134.1ZM156.174 127.338V128.333H152.216V127.338H156.174ZM153.37 125.509H154.543V132.787C154.543 133.119 154.591 133.367 154.687 133.533C154.787 133.695 154.913 133.805 155.065 133.861C155.221 133.914 155.385 133.941 155.557 133.941C155.687 133.941 155.793 133.934 155.875 133.921C155.958 133.904 156.025 133.891 156.074 133.881L156.313 134.935C156.233 134.965 156.122 134.994 155.98 135.024C155.837 135.057 155.657 135.074 155.438 135.074C155.107 135.074 154.782 135.003 154.464 134.86C154.149 134.718 153.887 134.501 153.678 134.209C153.473 133.917 153.37 133.549 153.37 133.105V125.509ZM159.276 130.381V134.975H158.103V124.793H159.276V128.531H159.375C159.554 128.137 159.823 127.824 160.181 127.592C160.542 127.356 161.023 127.239 161.623 127.239C162.143 127.239 162.599 127.343 162.99 127.552C163.381 127.758 163.684 128.074 163.9 128.502C164.118 128.926 164.228 129.466 164.228 130.122V134.975H163.054V130.202C163.054 129.595 162.897 129.126 162.582 128.795C162.271 128.46 161.838 128.293 161.285 128.293C160.9 128.293 160.555 128.374 160.25 128.536C159.949 128.699 159.71 128.936 159.535 129.247C159.362 129.559 159.276 129.937 159.276 130.381ZM169.477 135.134C168.787 135.134 168.182 134.97 167.662 134.642C167.145 134.313 166.74 133.854 166.449 133.264C166.16 132.674 166.016 131.985 166.016 131.196C166.016 130.401 166.16 129.706 166.449 129.113C166.74 128.52 167.145 128.059 167.662 127.731C168.182 127.403 168.787 127.239 169.477 127.239C170.166 127.239 170.769 127.403 171.286 127.731C171.807 128.059 172.211 128.52 172.499 129.113C172.791 129.706 172.937 130.401 172.937 131.196C172.937 131.985 172.791 132.674 172.499 133.264C172.211 133.854 171.807 134.313 171.286 134.642C170.769 134.97 170.166 135.134 169.477 135.134ZM169.477 134.08C170 134.08 170.431 133.945 170.769 133.677C171.107 133.409 171.357 133.056 171.52 132.618C171.682 132.181 171.763 131.707 171.763 131.196C171.763 130.686 171.682 130.21 171.52 129.769C171.357 129.329 171.107 128.972 170.769 128.7C170.431 128.429 170 128.293 169.477 128.293C168.953 128.293 168.522 128.429 168.184 128.7C167.846 128.972 167.596 129.329 167.433 129.769C167.271 130.21 167.19 130.686 167.19 131.196C167.19 131.707 167.271 132.181 167.433 132.618C167.596 133.056 167.846 133.409 168.184 133.677C168.522 133.945 168.953 134.08 169.477 134.08ZM175.901 130.381V134.975H174.728V127.338H175.861V128.531H175.961C176.14 128.144 176.411 127.832 176.776 127.597C177.141 127.358 177.611 127.239 178.188 127.239C178.705 127.239 179.157 127.345 179.545 127.557C179.933 127.766 180.235 128.084 180.45 128.512C180.666 128.936 180.773 129.473 180.773 130.122V134.975H179.6V130.202C179.6 129.602 179.444 129.135 179.133 128.8C178.821 128.462 178.393 128.293 177.85 128.293C177.475 128.293 177.141 128.374 176.846 128.536C176.554 128.699 176.324 128.936 176.155 129.247C175.986 129.559 175.901 129.937 175.901 130.381Z" fill="#C0C0C0"/>
<defs>
<linearGradient id="paint0_linear_372_588" x1="92.5247" y1="0" x2="92.5247" y2="100.891" gradientUnits="userSpaceOnUse">
<stop stop-color="#BDBDBD"/>
<stop offset="1" stop-color="#575757"/>
</linearGradient>
</defs>
</svg>
