<svg width="407" height="98" viewBox="0 0 407 98" fill="none" xmlns="http://www.w3.org/2000/svg">
<g filter="url(#filter0_d_328_673)">
<rect x="8.41162" y="8.41211" width="389.933" height="80.7919" rx="40.3959" fill="#191A21"/>
<rect x="9.26128" y="9.26177" width="388.233" height="79.0926" rx="39.5463" stroke="url(#paint0_linear_328_673)" stroke-width="1.69932"/>
</g>
<g clip-path="url(#clip0_328_673)">
<path d="M128.233 66.302V63.295C128.233 61.6344 126.887 60.2881 125.226 60.2881H116.205C114.545 60.2881 113.198 61.6344 113.198 63.295V66.302H128.233Z" stroke="white" stroke-width="3.00696" stroke-miterlimit="10"/>
<path d="M107.184 30.8193H134.247" stroke="white" stroke-width="3.00696" stroke-miterlimit="10"/>
<path d="M111.929 45.2525H110.191C107.7 45.2525 105.68 43.2331 105.68 40.7421V36.833H111.694" stroke="white" stroke-width="3.00696" stroke-miterlimit="10"/>
<path d="M129.737 36.833H135.751V40.7421C135.751 43.2331 133.731 45.2525 131.24 45.2525H129.501" stroke="white" stroke-width="3.00696" stroke-miterlimit="10"/>
<path d="M120.715 45.554C122.376 45.554 123.722 44.2077 123.722 42.547C123.722 40.8863 122.376 39.54 120.715 39.54C119.055 39.54 117.708 40.8863 117.708 42.547C117.708 44.2077 119.055 45.554 120.715 45.554Z" stroke="white" stroke-width="3.00696" stroke-miterlimit="10"/>
<path d="M129.737 30.8193V45.2528C129.737 50.2349 125.698 54.2737 120.716 54.2737C115.734 54.2737 111.695 50.2349 111.695 45.2528V30.8193" stroke="white" stroke-width="3.00696" stroke-miterlimit="10"/>
<path d="M120.716 60.2874V54.2734" stroke="white" stroke-width="3.00696" stroke-miterlimit="10"/>
</g>
<path d="M161.028 64.3398V31.6922H163.986V64.3398H161.028ZM162.671 61.3818C160.699 61.3818 159.019 61.0288 157.632 60.3227C156.244 59.5924 155.161 58.5577 154.382 57.2187C153.627 55.8553 153.176 54.1998 153.03 52.2521L158.07 51.9965C158.216 53.0921 158.484 54.0172 158.873 54.7719C159.287 55.5266 159.811 56.0866 160.444 56.4518C161.101 56.817 161.904 56.9996 162.854 56.9996C163.803 56.9996 164.582 56.89 165.191 56.6709C165.824 56.4518 166.287 56.1353 166.579 55.7214C166.895 55.2832 167.053 54.7598 167.053 54.1511C167.053 53.4451 166.895 52.8608 166.579 52.3982C166.262 51.9113 165.678 51.4731 164.826 51.0836C163.974 50.694 162.744 50.3045 161.137 49.915C159.531 49.5498 158.167 49.0507 157.047 48.4177C155.927 47.7847 155.075 46.9813 154.491 46.0075C153.907 45.0336 153.615 43.8529 153.615 42.4652C153.615 40.9557 153.955 39.6411 154.637 38.5212C155.319 37.3769 156.317 36.5005 157.632 35.8918C158.946 35.2588 160.553 34.9424 162.452 34.9424C164.302 34.9424 165.885 35.2832 167.2 35.9649C168.514 36.6222 169.537 37.5717 170.267 38.8133C171.022 40.055 171.46 41.5644 171.582 43.3416L166.542 43.5973C166.42 42.6965 166.201 41.9296 165.885 41.2966C165.593 40.6636 165.142 40.1767 164.534 39.8358C163.949 39.495 163.183 39.3246 162.233 39.3246C160.967 39.3246 160.005 39.5802 159.348 40.0915C158.691 40.6027 158.362 41.3209 158.362 42.2461C158.362 42.9034 158.508 43.439 158.8 43.8529C159.092 44.2668 159.628 44.6441 160.407 44.985C161.186 45.3015 162.294 45.6545 163.73 46.044C165.775 46.5553 167.394 47.1761 168.587 47.9064C169.78 48.6125 170.62 49.4646 171.107 50.4627C171.618 51.4366 171.874 52.6052 171.874 53.9685C171.874 55.5266 171.509 56.8535 170.778 57.949C170.048 59.0446 168.989 59.8967 167.601 60.5053C166.238 61.0896 164.595 61.3818 162.671 61.3818ZM175 61.0166C175 58.9229 175.268 57.0848 175.804 55.5023C176.364 53.8955 177.325 52.4347 178.689 51.1201C180.076 49.8054 181.963 48.5273 184.349 47.2856C185.25 46.8231 185.992 46.3727 186.577 45.9344C187.161 45.4962 187.599 45.0093 187.891 44.4737C188.183 43.9381 188.33 43.2808 188.33 42.5017C188.33 41.7957 188.196 41.1992 187.928 40.7123C187.66 40.201 187.27 39.8115 186.759 39.5437C186.248 39.2515 185.603 39.1055 184.824 39.1055C183.509 39.1055 182.511 39.4828 181.829 40.2375C181.172 40.9679 180.722 42.027 180.478 43.4147L175.11 43.086C175.378 40.4323 176.327 38.3386 177.958 36.8048C179.614 35.271 181.927 34.5041 184.897 34.5041C186.844 34.5041 188.463 34.8328 189.754 35.4901C191.068 36.1231 192.054 37.0117 192.712 38.156C193.369 39.3002 193.698 40.6514 193.698 42.2095C193.698 43.5973 193.479 44.7902 193.04 45.7884C192.602 46.7865 191.884 47.6995 190.886 48.5273C189.888 49.355 188.524 50.2436 186.796 51.1931C185.408 51.9478 184.288 52.6417 183.436 53.2747C182.608 53.8833 182 54.4433 181.61 54.9545C181.221 55.4414 181.001 55.904 180.953 56.3422H193.698V61.0166H175ZM206.209 61.6009C204.383 61.6009 202.801 61.2722 201.462 60.6149C200.147 59.9576 199.113 59.0689 198.358 57.949C197.603 56.8048 197.165 55.5145 197.043 54.0781L202.375 53.7859C202.545 54.8571 202.947 55.6605 203.58 56.1962C204.213 56.7318 205.089 56.9996 206.209 56.9996C207.402 56.9996 208.352 56.6222 209.058 55.8675C209.764 55.1128 210.117 53.9929 210.117 52.5078C210.117 51.534 209.946 50.7062 209.606 50.0245C209.289 49.3428 208.839 48.8316 208.254 48.4907C207.694 48.1256 207.025 47.943 206.246 47.943C205.442 47.943 204.724 48.1621 204.091 48.6003C203.458 49.0142 203.02 49.5498 202.777 50.2071L197.408 49.9515L198.942 35.0884H214.243V39.7628H203.215L202.302 47.5413L201.206 46.9935C201.62 46.3118 202.119 45.7275 202.704 45.2406C203.312 44.7537 203.982 44.3885 204.712 44.145C205.467 43.8772 206.27 43.7433 207.122 43.7433C208.827 43.7433 210.299 44.1207 211.541 44.8754C212.807 45.6301 213.769 46.677 214.426 48.016C215.108 49.3307 215.449 50.8401 215.449 52.5443C215.449 54.3215 215.059 55.8918 214.28 57.2552C213.525 58.6185 212.454 59.6898 211.066 60.4688C209.703 61.2235 208.084 61.6009 206.209 61.6009ZM225.879 66.75L227.705 61.0166H225.294V55.5023H230.991V60.4688L228.544 66.75H225.879ZM243.868 56.817L253.29 39.0324L256.211 39.2881L246.789 57.0726L243.868 56.817ZM250.04 61.6009C248.092 61.6009 246.412 61.0653 245 59.9941C243.612 58.8985 242.541 57.3404 241.786 55.3197C241.056 53.299 240.691 50.8888 240.691 48.089C240.691 45.2893 241.056 42.8791 241.786 40.8584C242.541 38.8133 243.612 37.243 245 36.1475C246.412 35.0519 248.092 34.5041 250.04 34.5041C251.987 34.5041 253.655 35.0519 255.043 36.1475C256.455 37.243 257.526 38.8133 258.256 40.8584C259.011 42.8791 259.388 45.2893 259.388 48.089C259.388 50.8888 259.011 53.299 258.256 55.3197C257.526 57.3404 256.455 58.8985 255.043 59.9941C253.655 61.0653 251.987 61.6009 250.04 61.6009ZM250.04 56.9996C250.892 56.9996 251.61 56.6709 252.194 56.0136C252.779 55.3562 253.229 54.3702 253.545 53.0556C253.886 51.7165 254.057 50.061 254.057 48.089C254.057 46.0927 253.886 44.425 253.545 43.086C253.229 41.747 252.779 40.7488 252.194 40.0915C251.61 39.4341 250.892 39.1055 250.04 39.1055C249.212 39.1055 248.494 39.4341 247.885 40.0915C247.301 40.7488 246.838 41.747 246.497 43.086C246.181 44.425 246.023 46.0927 246.023 48.089C246.023 50.061 246.181 51.7165 246.497 53.0556C246.838 54.3702 247.301 55.3562 247.885 56.0136C248.494 56.6709 249.212 56.9996 250.04 56.9996ZM265.765 56.817L275.187 39.0324L278.108 39.2881L268.686 57.0726L265.765 56.817ZM271.936 61.6009C269.989 61.6009 268.309 61.0653 266.897 59.9941C265.509 58.8985 264.438 57.3404 263.683 55.3197C262.953 53.299 262.588 50.8888 262.588 48.089C262.588 45.2893 262.953 42.8791 263.683 40.8584C264.438 38.8133 265.509 37.243 266.897 36.1475C268.309 35.0519 269.989 34.5041 271.936 34.5041C273.884 34.5041 275.552 35.0519 276.94 36.1475C278.352 37.243 279.423 38.8133 280.153 40.8584C280.908 42.8791 281.285 45.2893 281.285 48.089C281.285 50.8888 280.908 53.299 280.153 55.3197C279.423 57.3404 278.352 58.8985 276.94 59.9941C275.552 61.0653 273.884 61.6009 271.936 61.6009ZM271.936 56.9996C272.789 56.9996 273.507 56.6709 274.091 56.0136C274.675 55.3562 275.126 54.3702 275.442 53.0556C275.783 51.7165 275.954 50.061 275.954 48.089C275.954 46.0927 275.783 44.425 275.442 43.086C275.126 41.747 274.675 40.7488 274.091 40.0915C273.507 39.4341 272.789 39.1055 271.936 39.1055C271.109 39.1055 270.391 39.4341 269.782 40.0915C269.198 40.7488 268.735 41.747 268.394 43.086C268.078 44.425 267.919 46.0927 267.919 48.089C267.919 50.061 268.078 51.7165 268.394 53.0556C268.735 54.3702 269.198 55.3562 269.782 56.0136C270.391 56.6709 271.109 56.9996 271.936 56.9996ZM287.662 56.817L297.083 39.0324L300.005 39.2881L290.583 57.0726L287.662 56.817ZM293.833 61.6009C291.886 61.6009 290.206 61.0653 288.794 59.9941C287.406 58.8985 286.335 57.3404 285.58 55.3197C284.85 53.299 284.485 50.8888 284.485 48.089C284.485 45.2893 284.85 42.8791 285.58 40.8584C286.335 38.8133 287.406 37.243 288.794 36.1475C290.206 35.0519 291.886 34.5041 293.833 34.5041C295.781 34.5041 297.449 35.0519 298.836 36.1475C300.248 37.243 301.32 38.8133 302.05 40.8584C302.805 42.8791 303.182 45.2893 303.182 48.089C303.182 50.8888 302.805 53.299 302.05 55.3197C301.32 57.3404 300.248 58.8985 298.836 59.9941C297.449 61.0653 295.781 61.6009 293.833 61.6009ZM293.833 56.9996C294.685 56.9996 295.404 56.6709 295.988 56.0136C296.572 55.3562 297.023 54.3702 297.339 53.0556C297.68 51.7165 297.85 50.061 297.85 48.089C297.85 46.0927 297.68 44.425 297.339 43.086C297.023 41.747 296.572 40.7488 295.988 40.0915C295.404 39.4341 294.685 39.1055 293.833 39.1055C293.006 39.1055 292.287 39.4341 291.679 40.0915C291.094 40.7488 290.632 41.747 290.291 43.086C289.975 44.425 289.816 46.0927 289.816 48.089C289.816 50.061 289.975 51.7165 290.291 53.0556C290.632 54.3702 291.094 55.3562 291.679 56.0136C292.287 56.6709 293.006 56.9996 293.833 56.9996Z" fill="white"/>
<defs>
<filter id="filter0_d_328_673" x="-1.33514e-05" y="0.00047493" width="406.756" height="97.6153" filterUnits="userSpaceOnUse" color-interpolation-filters="sRGB">
<feFlood flood-opacity="0" result="BackgroundImageFix"/>
<feColorMatrix in="SourceAlpha" type="matrix" values="0 0 0 0 0 0 0 0 0 0 0 0 0 0 0 0 0 0 127 0" result="hardAlpha"/>
<feOffset/>
<feGaussianBlur stdDeviation="4.20582"/>
<feComposite in2="hardAlpha" operator="out"/>
<feColorMatrix type="matrix" values="0 0 0 0 0.298039 0 0 0 0 0.321569 0 0 0 0 0.819608 0 0 0 0.56 0"/>
<feBlend mode="normal" in2="BackgroundImageFix" result="effect1_dropShadow_328_673"/>
<feBlend mode="normal" in="SourceGraphic" in2="effect1_dropShadow_328_673" result="shape"/>
</filter>
<linearGradient id="paint0_linear_328_673" x1="203.378" y1="8.41211" x2="203.378" y2="48.8081" gradientUnits="userSpaceOnUse">
<stop stop-color="#4C52D1"/>
<stop offset="1" stop-color="#282828" stop-opacity="0"/>
</linearGradient>
<clipPath id="clip0_328_673">
<rect width="38.4891" height="38.4891" fill="white" transform="translate(101.471 29.3164)"/>
</clipPath>
</defs>
</svg>
