<svg width="367" height="196" viewBox="0 0 367 196" fill="none" xmlns="http://www.w3.org/2000/svg">
<rect x="0.634325" y="0.634203" width="364.935" height="194.293" rx="17.4064" fill="#191A21" fill-opacity="0.36"/>
<rect x="0.634325" y="0.634203" width="364.935" height="194.293" rx="17.4064" stroke="black" stroke-width="1.2687"/>
<rect x="0.634325" y="0.634203" width="364.935" height="194.293" rx="17.4064" stroke="url(#paint0_linear_126_214)" stroke-width="1.2687"/>
<rect x="0.634325" y="0.634203" width="364.935" height="194.293" rx="17.4064" stroke="url(#paint1_linear_126_214)" stroke-width="1.2687"/>
<path d="M51.9452 77.4941V56.0282H64.8164V58.3341H54.5446V65.5873H63.8521V67.8932H54.5446V77.4941H51.9452ZM68.933 77.4941V61.3947H71.4066V77.4941H68.933ZM70.1907 58.7114C69.7086 58.7114 69.2928 58.5472 68.9435 58.2188C68.6011 57.8904 68.4299 57.4956 68.4299 57.0344C68.4299 56.5732 68.6011 56.1784 68.9435 55.85C69.2928 55.5216 69.7086 55.3574 70.1907 55.3574C70.6729 55.3574 71.0852 55.5216 71.4275 55.85C71.7769 56.1784 71.9516 56.5732 71.9516 57.0344C71.9516 57.4956 71.7769 57.8904 71.4275 58.2188C71.0852 58.5472 70.6729 58.7114 70.1907 58.7114ZM75.9372 77.4941V61.3947H78.3269V63.8264H78.4946C78.7881 63.0298 79.3192 62.3834 80.0878 61.8873C80.8565 61.3912 81.7229 61.1431 82.6872 61.1431C82.8689 61.1431 83.096 61.1466 83.3685 61.1536C83.641 61.1606 83.8472 61.1711 83.9869 61.1851V63.7006C83.9031 63.6796 83.7109 63.6482 83.4104 63.6063C83.1169 63.5574 82.806 63.5329 82.4776 63.5329C81.695 63.5329 80.9962 63.6971 80.3813 64.0255C79.7734 64.347 79.2912 64.7942 78.9349 65.3671C78.5855 65.9331 78.4108 66.5795 78.4108 67.3062V77.4941H75.9372ZM98.3229 65.0003L96.1008 65.6292C95.961 65.2588 95.7549 64.899 95.4824 64.5496C95.2169 64.1932 94.8535 63.8997 94.3923 63.6692C93.9311 63.4386 93.3407 63.3233 92.621 63.3233C91.6357 63.3233 90.8147 63.5504 90.1578 64.0046C89.508 64.4518 89.1831 65.0213 89.1831 65.713C89.1831 66.3279 89.4067 66.8136 89.8539 67.1699C90.3011 67.5263 90.9998 67.8233 91.9502 68.0609L94.3399 68.6478C95.7794 68.9972 96.852 69.5318 97.5577 70.2515C98.2635 70.9642 98.6163 71.8831 98.6163 73.0081C98.6163 73.9305 98.3508 74.755 97.8198 75.4817C97.2957 76.2084 96.562 76.7814 95.6187 77.2007C94.6753 77.6199 93.5783 77.8295 92.3275 77.8295C90.6854 77.8295 89.3263 77.4732 88.2502 76.7604C87.1741 76.0477 86.4928 75.0066 86.2063 73.637L88.5542 73.05C88.7778 73.9165 89.2005 74.5663 89.8224 74.9996C90.4513 75.4328 91.2724 75.6494 92.2856 75.6494C93.4385 75.6494 94.3539 75.4048 95.0317 74.9157C95.7165 74.4196 96.0589 73.8256 96.0589 73.1339C96.0589 72.5749 95.8632 72.1067 95.4719 71.7294C95.0806 71.345 94.4797 71.0586 93.6691 70.8699L90.9859 70.241C89.5115 69.8916 88.4284 69.3501 87.7366 68.6164C87.0518 67.8757 86.7095 66.9498 86.7095 65.8388C86.7095 64.9304 86.9645 64.1268 87.4746 63.4281C87.9917 62.7293 88.6939 62.1808 89.5814 61.7825C90.4758 61.3842 91.489 61.1851 92.621 61.1851C94.2141 61.1851 95.4649 61.5344 96.3733 62.2332C97.2887 62.932 97.9385 63.8543 98.3229 65.0003ZM109.341 61.3947V63.491H100.998V61.3947H109.341ZM103.43 57.5375H105.904V72.8823C105.904 73.5811 106.005 74.1051 106.208 74.4545C106.417 74.7969 106.683 75.0275 107.004 75.1463C107.333 75.2581 107.678 75.314 108.042 75.314C108.314 75.314 108.538 75.3 108.713 75.2721C108.887 75.2371 109.027 75.2092 109.132 75.1882L109.635 77.4103C109.467 77.4732 109.233 77.5361 108.933 77.599C108.632 77.6688 108.251 77.7038 107.79 77.7038C107.091 77.7038 106.407 77.5535 105.736 77.2531C105.072 76.9526 104.52 76.4949 104.08 75.88C103.647 75.2651 103.43 74.4895 103.43 73.5531V57.5375ZM121.699 77.4941V56.0282H128.952C130.629 56.0282 132.006 56.3147 133.082 56.8877C134.158 57.4537 134.955 58.2328 135.472 59.225C135.989 60.2173 136.247 61.3458 136.247 62.6105C136.247 63.8753 135.989 64.9968 135.472 65.9751C134.955 66.9533 134.161 67.722 133.092 68.281C132.023 68.833 130.657 69.109 128.994 69.109H123.125V66.7612H128.91C130.056 66.7612 130.979 66.5935 131.677 66.2581C132.383 65.9227 132.893 65.4475 133.208 64.8326C133.529 64.2107 133.69 63.47 133.69 62.6105C133.69 61.7511 133.529 60.9999 133.208 60.357C132.886 59.7142 132.373 59.218 131.667 58.8687C130.961 58.5123 130.028 58.3341 128.868 58.3341H124.298V77.4941H121.699ZM131.803 67.8512L137.086 77.4941H134.067L128.868 67.8512H131.803ZM150.389 70.9118V61.3947H152.863V77.4941H150.389V74.769H150.222C149.844 75.5865 149.257 76.2818 148.461 76.8548C147.664 77.4208 146.658 77.7038 145.442 77.7038C144.436 77.7038 143.541 77.4837 142.759 77.0434C141.976 76.5962 141.361 75.9254 140.914 75.031C140.467 74.1296 140.243 72.9941 140.243 71.6245V61.3947H142.717V71.4568C142.717 72.6308 143.045 73.5671 143.702 74.2659C144.366 74.9646 145.211 75.314 146.239 75.314C146.854 75.314 147.479 75.1568 148.115 74.8423C148.758 74.5279 149.296 74.0458 149.729 73.3959C150.169 72.7461 150.389 71.918 150.389 70.9118ZM159.867 67.8093V77.4941H157.394V61.3947H159.783V63.9102H159.993C160.37 63.0927 160.943 62.4358 161.712 61.9397C162.48 61.4366 163.473 61.1851 164.689 61.1851C165.779 61.1851 166.732 61.4087 167.55 61.8559C168.368 62.2961 169.003 62.9669 169.458 63.8683C169.912 64.7627 170.139 65.8947 170.139 67.2643V77.4941H167.665V67.432C167.665 66.1672 167.337 65.182 166.68 64.4762C166.023 63.7635 165.122 63.4071 163.976 63.4071C163.186 63.4071 162.48 63.5783 161.859 63.9207C161.244 64.2631 160.758 64.7627 160.402 65.4195C160.045 66.0764 159.867 66.873 159.867 67.8093ZM177.133 67.8093V77.4941H174.659V61.3947H177.049V63.9102H177.258C177.636 63.0927 178.209 62.4358 178.977 61.9397C179.746 61.4366 180.738 61.1851 181.954 61.1851C183.044 61.1851 183.998 61.4087 184.816 61.8559C185.633 62.2961 186.269 62.9669 186.723 63.8683C187.177 64.7627 187.404 65.8947 187.404 67.2643V77.4941H184.931V67.432C184.931 66.1672 184.602 65.182 183.946 64.4762C183.289 63.7635 182.387 63.4071 181.241 63.4071C180.452 63.4071 179.746 63.5783 179.124 63.9207C178.509 64.2631 178.024 64.7627 177.667 65.4195C177.311 66.0764 177.133 66.873 177.133 67.8093ZM198.675 77.8295C197.123 77.8295 195.785 77.4872 194.66 76.8024C193.542 76.1106 192.679 75.1463 192.071 73.9095C191.47 72.6657 191.17 71.2193 191.17 69.5702C191.17 67.9211 191.47 66.4677 192.071 65.2099C192.679 63.9452 193.525 62.9599 194.608 62.2542C195.698 61.5414 196.97 61.1851 198.423 61.1851C199.262 61.1851 200.09 61.3248 200.907 61.6043C201.725 61.8838 202.469 62.338 203.14 62.9669C203.81 63.5888 204.345 64.4133 204.743 65.4405C205.142 66.4677 205.341 67.7324 205.341 69.2348V70.2829H192.931V68.1447H202.825C202.825 67.2363 202.644 66.4258 202.28 65.713C201.924 65.0003 201.414 64.4378 200.75 64.0255C200.093 63.6133 199.317 63.4071 198.423 63.4071C197.438 63.4071 196.585 63.6517 195.866 64.1408C195.153 64.623 194.604 65.2518 194.22 66.0275C193.836 66.8031 193.643 67.6346 193.643 68.522V69.9475C193.643 71.1634 193.853 72.194 194.272 73.0395C194.699 73.8781 195.289 74.5174 196.044 74.9576C196.798 75.3909 197.675 75.6075 198.675 75.6075C199.324 75.6075 199.911 75.5166 200.435 75.335C200.966 75.1463 201.424 74.8668 201.808 74.4965C202.193 74.1191 202.49 73.651 202.699 73.0919L205.089 73.7628C204.838 74.5733 204.415 75.2861 203.821 75.901C203.227 76.5089 202.493 76.984 201.62 77.3264C200.746 77.6618 199.765 77.8295 198.675 77.8295ZM209.104 77.4941V61.3947H211.493V63.8264H211.661C211.955 63.0298 212.486 62.3834 213.254 61.8873C214.023 61.3912 214.889 61.1431 215.854 61.1431C216.035 61.1431 216.262 61.1466 216.535 61.1536C216.807 61.1606 217.014 61.1711 217.153 61.1851V63.7006C217.069 63.6796 216.877 63.6482 216.577 63.6063C216.283 63.5574 215.972 63.5329 215.644 63.5329C214.861 63.5329 214.163 63.6971 213.548 64.0255C212.94 64.347 212.458 64.7942 212.101 65.3671C211.752 65.9331 211.577 66.5795 211.577 67.3062V77.4941H209.104ZM242.809 56.0282H245.409V70.241C245.409 71.7084 245.063 73.0186 244.371 74.1715C243.686 75.3175 242.718 76.2224 241.468 76.8862C240.217 77.5431 238.749 77.8715 237.065 77.8715C235.381 77.8715 233.914 77.5431 232.663 76.8862C231.412 76.2224 230.441 75.3175 229.749 74.1715C229.065 73.0186 228.722 71.7084 228.722 70.241V56.0282H231.322V70.0314C231.322 71.0795 231.552 72.0124 232.013 72.8299C232.474 73.6405 233.131 74.2798 233.984 74.748C234.843 75.2092 235.87 75.4398 237.065 75.4398C238.26 75.4398 239.287 75.2092 240.147 74.748C241.006 74.2798 241.663 73.6405 242.117 72.8299C242.579 72.0124 242.809 71.0795 242.809 70.0314V56.0282ZM250.264 83.5314V61.3947H252.654V63.9522H252.947C253.129 63.6726 253.381 63.3163 253.702 62.883C254.03 62.4428 254.499 62.0515 255.106 61.7091C255.721 61.3597 256.553 61.1851 257.601 61.1851C258.957 61.1851 260.152 61.524 261.186 62.2018C262.22 62.8796 263.027 63.8403 263.607 65.0841C264.187 66.3279 264.477 67.7953 264.477 69.4863C264.477 71.1913 264.187 72.6692 263.607 73.92C263.027 75.1638 262.223 76.1281 261.196 76.8128C260.169 77.4906 258.985 77.8295 257.643 77.8295C256.609 77.8295 255.781 77.6583 255.159 77.316C254.537 76.9666 254.058 76.5718 253.723 76.1316C253.388 75.6843 253.129 75.314 252.947 75.0205H252.738V83.5314H250.264ZM252.696 69.4444C252.696 70.6603 252.874 71.7329 253.23 72.6622C253.587 73.5846 254.107 74.3078 254.792 74.8319C255.477 75.3489 256.315 75.6075 257.308 75.6075C258.342 75.6075 259.205 75.335 259.896 74.7899C260.595 74.2379 261.119 73.4972 261.469 72.5679C261.825 71.6315 262.003 70.5904 262.003 69.4444C262.003 68.3124 261.829 67.2922 261.479 66.3838C261.137 65.4685 260.616 64.7452 259.917 64.2142C259.226 63.6761 258.356 63.4071 257.308 63.4071C256.301 63.4071 255.456 63.6622 254.771 64.1723C254.086 64.6754 253.569 65.3811 253.22 66.2895C252.87 67.1909 252.696 68.2425 252.696 69.4444Z" fill="#1C1C1C"/>
<path d="M51.9452 77.4941V56.0282H64.8164V58.3341H54.5446V65.5873H63.8521V67.8932H54.5446V77.4941H51.9452ZM68.933 77.4941V61.3947H71.4066V77.4941H68.933ZM70.1907 58.7114C69.7086 58.7114 69.2928 58.5472 68.9435 58.2188C68.6011 57.8904 68.4299 57.4956 68.4299 57.0344C68.4299 56.5732 68.6011 56.1784 68.9435 55.85C69.2928 55.5216 69.7086 55.3574 70.1907 55.3574C70.6729 55.3574 71.0852 55.5216 71.4275 55.85C71.7769 56.1784 71.9516 56.5732 71.9516 57.0344C71.9516 57.4956 71.7769 57.8904 71.4275 58.2188C71.0852 58.5472 70.6729 58.7114 70.1907 58.7114ZM75.9372 77.4941V61.3947H78.3269V63.8264H78.4946C78.7881 63.0298 79.3192 62.3834 80.0878 61.8873C80.8565 61.3912 81.7229 61.1431 82.6872 61.1431C82.8689 61.1431 83.096 61.1466 83.3685 61.1536C83.641 61.1606 83.8472 61.1711 83.9869 61.1851V63.7006C83.9031 63.6796 83.7109 63.6482 83.4104 63.6063C83.1169 63.5574 82.806 63.5329 82.4776 63.5329C81.695 63.5329 80.9962 63.6971 80.3813 64.0255C79.7734 64.347 79.2912 64.7942 78.9349 65.3671C78.5855 65.9331 78.4108 66.5795 78.4108 67.3062V77.4941H75.9372ZM98.3229 65.0003L96.1008 65.6292C95.961 65.2588 95.7549 64.899 95.4824 64.5496C95.2169 64.1932 94.8535 63.8997 94.3923 63.6692C93.9311 63.4386 93.3407 63.3233 92.621 63.3233C91.6357 63.3233 90.8147 63.5504 90.1578 64.0046C89.508 64.4518 89.1831 65.0213 89.1831 65.713C89.1831 66.3279 89.4067 66.8136 89.8539 67.1699C90.3011 67.5263 90.9998 67.8233 91.9502 68.0609L94.3399 68.6478C95.7794 68.9972 96.852 69.5318 97.5577 70.2515C98.2635 70.9642 98.6163 71.8831 98.6163 73.0081C98.6163 73.9305 98.3508 74.755 97.8198 75.4817C97.2957 76.2084 96.562 76.7814 95.6187 77.2007C94.6753 77.6199 93.5783 77.8295 92.3275 77.8295C90.6854 77.8295 89.3263 77.4732 88.2502 76.7604C87.1741 76.0477 86.4928 75.0066 86.2063 73.637L88.5542 73.05C88.7778 73.9165 89.2005 74.5663 89.8224 74.9996C90.4513 75.4328 91.2724 75.6494 92.2856 75.6494C93.4385 75.6494 94.3539 75.4048 95.0317 74.9157C95.7165 74.4196 96.0589 73.8256 96.0589 73.1339C96.0589 72.5749 95.8632 72.1067 95.4719 71.7294C95.0806 71.345 94.4797 71.0586 93.6691 70.8699L90.9859 70.241C89.5115 69.8916 88.4284 69.3501 87.7366 68.6164C87.0518 67.8757 86.7095 66.9498 86.7095 65.8388C86.7095 64.9304 86.9645 64.1268 87.4746 63.4281C87.9917 62.7293 88.6939 62.1808 89.5814 61.7825C90.4758 61.3842 91.489 61.1851 92.621 61.1851C94.2141 61.1851 95.4649 61.5344 96.3733 62.2332C97.2887 62.932 97.9385 63.8543 98.3229 65.0003ZM109.341 61.3947V63.491H100.998V61.3947H109.341ZM103.43 57.5375H105.904V72.8823C105.904 73.5811 106.005 74.1051 106.208 74.4545C106.417 74.7969 106.683 75.0275 107.004 75.1463C107.333 75.2581 107.678 75.314 108.042 75.314C108.314 75.314 108.538 75.3 108.713 75.2721C108.887 75.2371 109.027 75.2092 109.132 75.1882L109.635 77.4103C109.467 77.4732 109.233 77.5361 108.933 77.599C108.632 77.6688 108.251 77.7038 107.79 77.7038C107.091 77.7038 106.407 77.5535 105.736 77.2531C105.072 76.9526 104.52 76.4949 104.08 75.88C103.647 75.2651 103.43 74.4895 103.43 73.5531V57.5375ZM121.699 77.4941V56.0282H128.952C130.629 56.0282 132.006 56.3147 133.082 56.8877C134.158 57.4537 134.955 58.2328 135.472 59.225C135.989 60.2173 136.247 61.3458 136.247 62.6105C136.247 63.8753 135.989 64.9968 135.472 65.9751C134.955 66.9533 134.161 67.722 133.092 68.281C132.023 68.833 130.657 69.109 128.994 69.109H123.125V66.7612H128.91C130.056 66.7612 130.979 66.5935 131.677 66.2581C132.383 65.9227 132.893 65.4475 133.208 64.8326C133.529 64.2107 133.69 63.47 133.69 62.6105C133.69 61.7511 133.529 60.9999 133.208 60.357C132.886 59.7142 132.373 59.218 131.667 58.8687C130.961 58.5123 130.028 58.3341 128.868 58.3341H124.298V77.4941H121.699ZM131.803 67.8512L137.086 77.4941H134.067L128.868 67.8512H131.803ZM150.389 70.9118V61.3947H152.863V77.4941H150.389V74.769H150.222C149.844 75.5865 149.257 76.2818 148.461 76.8548C147.664 77.4208 146.658 77.7038 145.442 77.7038C144.436 77.7038 143.541 77.4837 142.759 77.0434C141.976 76.5962 141.361 75.9254 140.914 75.031C140.467 74.1296 140.243 72.9941 140.243 71.6245V61.3947H142.717V71.4568C142.717 72.6308 143.045 73.5671 143.702 74.2659C144.366 74.9646 145.211 75.314 146.239 75.314C146.854 75.314 147.479 75.1568 148.115 74.8423C148.758 74.5279 149.296 74.0458 149.729 73.3959C150.169 72.7461 150.389 71.918 150.389 70.9118ZM159.867 67.8093V77.4941H157.394V61.3947H159.783V63.9102H159.993C160.37 63.0927 160.943 62.4358 161.712 61.9397C162.48 61.4366 163.473 61.1851 164.689 61.1851C165.779 61.1851 166.732 61.4087 167.55 61.8559C168.368 62.2961 169.003 62.9669 169.458 63.8683C169.912 64.7627 170.139 65.8947 170.139 67.2643V77.4941H167.665V67.432C167.665 66.1672 167.337 65.182 166.68 64.4762C166.023 63.7635 165.122 63.4071 163.976 63.4071C163.186 63.4071 162.48 63.5783 161.859 63.9207C161.244 64.2631 160.758 64.7627 160.402 65.4195C160.045 66.0764 159.867 66.873 159.867 67.8093ZM177.133 67.8093V77.4941H174.659V61.3947H177.049V63.9102H177.258C177.636 63.0927 178.209 62.4358 178.977 61.9397C179.746 61.4366 180.738 61.1851 181.954 61.1851C183.044 61.1851 183.998 61.4087 184.816 61.8559C185.633 62.2961 186.269 62.9669 186.723 63.8683C187.177 64.7627 187.404 65.8947 187.404 67.2643V77.4941H184.931V67.432C184.931 66.1672 184.602 65.182 183.946 64.4762C183.289 63.7635 182.387 63.4071 181.241 63.4071C180.452 63.4071 179.746 63.5783 179.124 63.9207C178.509 64.2631 178.024 64.7627 177.667 65.4195C177.311 66.0764 177.133 66.873 177.133 67.8093ZM198.675 77.8295C197.123 77.8295 195.785 77.4872 194.66 76.8024C193.542 76.1106 192.679 75.1463 192.071 73.9095C191.47 72.6657 191.17 71.2193 191.17 69.5702C191.17 67.9211 191.47 66.4677 192.071 65.2099C192.679 63.9452 193.525 62.9599 194.608 62.2542C195.698 61.5414 196.97 61.1851 198.423 61.1851C199.262 61.1851 200.09 61.3248 200.907 61.6043C201.725 61.8838 202.469 62.338 203.14 62.9669C203.81 63.5888 204.345 64.4133 204.743 65.4405C205.142 66.4677 205.341 67.7324 205.341 69.2348V70.2829H192.931V68.1447H202.825C202.825 67.2363 202.644 66.4258 202.28 65.713C201.924 65.0003 201.414 64.4378 200.75 64.0255C200.093 63.6133 199.317 63.4071 198.423 63.4071C197.438 63.4071 196.585 63.6517 195.866 64.1408C195.153 64.623 194.604 65.2518 194.22 66.0275C193.836 66.8031 193.643 67.6346 193.643 68.522V69.9475C193.643 71.1634 193.853 72.194 194.272 73.0395C194.699 73.8781 195.289 74.5174 196.044 74.9576C196.798 75.3909 197.675 75.6075 198.675 75.6075C199.324 75.6075 199.911 75.5166 200.435 75.335C200.966 75.1463 201.424 74.8668 201.808 74.4965C202.193 74.1191 202.49 73.651 202.699 73.0919L205.089 73.7628C204.838 74.5733 204.415 75.2861 203.821 75.901C203.227 76.5089 202.493 76.984 201.62 77.3264C200.746 77.6618 199.765 77.8295 198.675 77.8295ZM209.104 77.4941V61.3947H211.493V63.8264H211.661C211.955 63.0298 212.486 62.3834 213.254 61.8873C214.023 61.3912 214.889 61.1431 215.854 61.1431C216.035 61.1431 216.262 61.1466 216.535 61.1536C216.807 61.1606 217.014 61.1711 217.153 61.1851V63.7006C217.069 63.6796 216.877 63.6482 216.577 63.6063C216.283 63.5574 215.972 63.5329 215.644 63.5329C214.861 63.5329 214.163 63.6971 213.548 64.0255C212.94 64.347 212.458 64.7942 212.101 65.3671C211.752 65.9331 211.577 66.5795 211.577 67.3062V77.4941H209.104ZM242.809 56.0282H245.409V70.241C245.409 71.7084 245.063 73.0186 244.371 74.1715C243.686 75.3175 242.718 76.2224 241.468 76.8862C240.217 77.5431 238.749 77.8715 237.065 77.8715C235.381 77.8715 233.914 77.5431 232.663 76.8862C231.412 76.2224 230.441 75.3175 229.749 74.1715C229.065 73.0186 228.722 71.7084 228.722 70.241V56.0282H231.322V70.0314C231.322 71.0795 231.552 72.0124 232.013 72.8299C232.474 73.6405 233.131 74.2798 233.984 74.748C234.843 75.2092 235.87 75.4398 237.065 75.4398C238.26 75.4398 239.287 75.2092 240.147 74.748C241.006 74.2798 241.663 73.6405 242.117 72.8299C242.579 72.0124 242.809 71.0795 242.809 70.0314V56.0282ZM250.264 83.5314V61.3947H252.654V63.9522H252.947C253.129 63.6726 253.381 63.3163 253.702 62.883C254.03 62.4428 254.499 62.0515 255.106 61.7091C255.721 61.3597 256.553 61.1851 257.601 61.1851C258.957 61.1851 260.152 61.524 261.186 62.2018C262.22 62.8796 263.027 63.8403 263.607 65.0841C264.187 66.3279 264.477 67.7953 264.477 69.4863C264.477 71.1913 264.187 72.6692 263.607 73.92C263.027 75.1638 262.223 76.1281 261.196 76.8128C260.169 77.4906 258.985 77.8295 257.643 77.8295C256.609 77.8295 255.781 77.6583 255.159 77.316C254.537 76.9666 254.058 76.5718 253.723 76.1316C253.388 75.6843 253.129 75.314 252.947 75.0205H252.738V83.5314H250.264ZM252.696 69.4444C252.696 70.6603 252.874 71.7329 253.23 72.6622C253.587 73.5846 254.107 74.3078 254.792 74.8319C255.477 75.3489 256.315 75.6075 257.308 75.6075C258.342 75.6075 259.205 75.335 259.896 74.7899C260.595 74.2379 261.119 73.4972 261.469 72.5679C261.825 71.6315 262.003 70.5904 262.003 69.4444C262.003 68.3124 261.829 67.2922 261.479 66.3838C261.137 65.4685 260.616 64.7452 259.917 64.2142C259.226 63.6761 258.356 63.4071 257.308 63.4071C256.301 63.4071 255.456 63.6622 254.771 64.1723C254.086 64.6754 253.569 65.3811 253.22 66.2895C252.87 67.1909 252.696 68.2425 252.696 69.4444Z" fill="url(#paint2_linear_126_214)"/>
<path d="M51.9452 77.4941V56.0282H64.8164V58.3341H54.5446V65.5873H63.8521V67.8932H54.5446V77.4941H51.9452ZM68.933 77.4941V61.3947H71.4066V77.4941H68.933ZM70.1907 58.7114C69.7086 58.7114 69.2928 58.5472 68.9435 58.2188C68.6011 57.8904 68.4299 57.4956 68.4299 57.0344C68.4299 56.5732 68.6011 56.1784 68.9435 55.85C69.2928 55.5216 69.7086 55.3574 70.1907 55.3574C70.6729 55.3574 71.0852 55.5216 71.4275 55.85C71.7769 56.1784 71.9516 56.5732 71.9516 57.0344C71.9516 57.4956 71.7769 57.8904 71.4275 58.2188C71.0852 58.5472 70.6729 58.7114 70.1907 58.7114ZM75.9372 77.4941V61.3947H78.3269V63.8264H78.4946C78.7881 63.0298 79.3192 62.3834 80.0878 61.8873C80.8565 61.3912 81.7229 61.1431 82.6872 61.1431C82.8689 61.1431 83.096 61.1466 83.3685 61.1536C83.641 61.1606 83.8472 61.1711 83.9869 61.1851V63.7006C83.9031 63.6796 83.7109 63.6482 83.4104 63.6063C83.1169 63.5574 82.806 63.5329 82.4776 63.5329C81.695 63.5329 80.9962 63.6971 80.3813 64.0255C79.7734 64.347 79.2912 64.7942 78.9349 65.3671C78.5855 65.9331 78.4108 66.5795 78.4108 67.3062V77.4941H75.9372ZM98.3229 65.0003L96.1008 65.6292C95.961 65.2588 95.7549 64.899 95.4824 64.5496C95.2169 64.1932 94.8535 63.8997 94.3923 63.6692C93.9311 63.4386 93.3407 63.3233 92.621 63.3233C91.6357 63.3233 90.8147 63.5504 90.1578 64.0046C89.508 64.4518 89.1831 65.0213 89.1831 65.713C89.1831 66.3279 89.4067 66.8136 89.8539 67.1699C90.3011 67.5263 90.9998 67.8233 91.9502 68.0609L94.3399 68.6478C95.7794 68.9972 96.852 69.5318 97.5577 70.2515C98.2635 70.9642 98.6163 71.8831 98.6163 73.0081C98.6163 73.9305 98.3508 74.755 97.8198 75.4817C97.2957 76.2084 96.562 76.7814 95.6187 77.2007C94.6753 77.6199 93.5783 77.8295 92.3275 77.8295C90.6854 77.8295 89.3263 77.4732 88.2502 76.7604C87.1741 76.0477 86.4928 75.0066 86.2063 73.637L88.5542 73.05C88.7778 73.9165 89.2005 74.5663 89.8224 74.9996C90.4513 75.4328 91.2724 75.6494 92.2856 75.6494C93.4385 75.6494 94.3539 75.4048 95.0317 74.9157C95.7165 74.4196 96.0589 73.8256 96.0589 73.1339C96.0589 72.5749 95.8632 72.1067 95.4719 71.7294C95.0806 71.345 94.4797 71.0586 93.6691 70.8699L90.9859 70.241C89.5115 69.8916 88.4284 69.3501 87.7366 68.6164C87.0518 67.8757 86.7095 66.9498 86.7095 65.8388C86.7095 64.9304 86.9645 64.1268 87.4746 63.4281C87.9917 62.7293 88.6939 62.1808 89.5814 61.7825C90.4758 61.3842 91.489 61.1851 92.621 61.1851C94.2141 61.1851 95.4649 61.5344 96.3733 62.2332C97.2887 62.932 97.9385 63.8543 98.3229 65.0003ZM109.341 61.3947V63.491H100.998V61.3947H109.341ZM103.43 57.5375H105.904V72.8823C105.904 73.5811 106.005 74.1051 106.208 74.4545C106.417 74.7969 106.683 75.0275 107.004 75.1463C107.333 75.2581 107.678 75.314 108.042 75.314C108.314 75.314 108.538 75.3 108.713 75.2721C108.887 75.2371 109.027 75.2092 109.132 75.1882L109.635 77.4103C109.467 77.4732 109.233 77.5361 108.933 77.599C108.632 77.6688 108.251 77.7038 107.79 77.7038C107.091 77.7038 106.407 77.5535 105.736 77.2531C105.072 76.9526 104.52 76.4949 104.08 75.88C103.647 75.2651 103.43 74.4895 103.43 73.5531V57.5375ZM121.699 77.4941V56.0282H128.952C130.629 56.0282 132.006 56.3147 133.082 56.8877C134.158 57.4537 134.955 58.2328 135.472 59.225C135.989 60.2173 136.247 61.3458 136.247 62.6105C136.247 63.8753 135.989 64.9968 135.472 65.9751C134.955 66.9533 134.161 67.722 133.092 68.281C132.023 68.833 130.657 69.109 128.994 69.109H123.125V66.7612H128.91C130.056 66.7612 130.979 66.5935 131.677 66.2581C132.383 65.9227 132.893 65.4475 133.208 64.8326C133.529 64.2107 133.69 63.47 133.69 62.6105C133.69 61.7511 133.529 60.9999 133.208 60.357C132.886 59.7142 132.373 59.218 131.667 58.8687C130.961 58.5123 130.028 58.3341 128.868 58.3341H124.298V77.4941H121.699ZM131.803 67.8512L137.086 77.4941H134.067L128.868 67.8512H131.803ZM150.389 70.9118V61.3947H152.863V77.4941H150.389V74.769H150.222C149.844 75.5865 149.257 76.2818 148.461 76.8548C147.664 77.4208 146.658 77.7038 145.442 77.7038C144.436 77.7038 143.541 77.4837 142.759 77.0434C141.976 76.5962 141.361 75.9254 140.914 75.031C140.467 74.1296 140.243 72.9941 140.243 71.6245V61.3947H142.717V71.4568C142.717 72.6308 143.045 73.5671 143.702 74.2659C144.366 74.9646 145.211 75.314 146.239 75.314C146.854 75.314 147.479 75.1568 148.115 74.8423C148.758 74.5279 149.296 74.0458 149.729 73.3959C150.169 72.7461 150.389 71.918 150.389 70.9118ZM159.867 67.8093V77.4941H157.394V61.3947H159.783V63.9102H159.993C160.37 63.0927 160.943 62.4358 161.712 61.9397C162.48 61.4366 163.473 61.1851 164.689 61.1851C165.779 61.1851 166.732 61.4087 167.55 61.8559C168.368 62.2961 169.003 62.9669 169.458 63.8683C169.912 64.7627 170.139 65.8947 170.139 67.2643V77.4941H167.665V67.432C167.665 66.1672 167.337 65.182 166.68 64.4762C166.023 63.7635 165.122 63.4071 163.976 63.4071C163.186 63.4071 162.48 63.5783 161.859 63.9207C161.244 64.2631 160.758 64.7627 160.402 65.4195C160.045 66.0764 159.867 66.873 159.867 67.8093ZM177.133 67.8093V77.4941H174.659V61.3947H177.049V63.9102H177.258C177.636 63.0927 178.209 62.4358 178.977 61.9397C179.746 61.4366 180.738 61.1851 181.954 61.1851C183.044 61.1851 183.998 61.4087 184.816 61.8559C185.633 62.2961 186.269 62.9669 186.723 63.8683C187.177 64.7627 187.404 65.8947 187.404 67.2643V77.4941H184.931V67.432C184.931 66.1672 184.602 65.182 183.946 64.4762C183.289 63.7635 182.387 63.4071 181.241 63.4071C180.452 63.4071 179.746 63.5783 179.124 63.9207C178.509 64.2631 178.024 64.7627 177.667 65.4195C177.311 66.0764 177.133 66.873 177.133 67.8093ZM198.675 77.8295C197.123 77.8295 195.785 77.4872 194.66 76.8024C193.542 76.1106 192.679 75.1463 192.071 73.9095C191.47 72.6657 191.17 71.2193 191.17 69.5702C191.17 67.9211 191.47 66.4677 192.071 65.2099C192.679 63.9452 193.525 62.9599 194.608 62.2542C195.698 61.5414 196.97 61.1851 198.423 61.1851C199.262 61.1851 200.09 61.3248 200.907 61.6043C201.725 61.8838 202.469 62.338 203.14 62.9669C203.81 63.5888 204.345 64.4133 204.743 65.4405C205.142 66.4677 205.341 67.7324 205.341 69.2348V70.2829H192.931V68.1447H202.825C202.825 67.2363 202.644 66.4258 202.28 65.713C201.924 65.0003 201.414 64.4378 200.75 64.0255C200.093 63.6133 199.317 63.4071 198.423 63.4071C197.438 63.4071 196.585 63.6517 195.866 64.1408C195.153 64.623 194.604 65.2518 194.22 66.0275C193.836 66.8031 193.643 67.6346 193.643 68.522V69.9475C193.643 71.1634 193.853 72.194 194.272 73.0395C194.699 73.8781 195.289 74.5174 196.044 74.9576C196.798 75.3909 197.675 75.6075 198.675 75.6075C199.324 75.6075 199.911 75.5166 200.435 75.335C200.966 75.1463 201.424 74.8668 201.808 74.4965C202.193 74.1191 202.49 73.651 202.699 73.0919L205.089 73.7628C204.838 74.5733 204.415 75.2861 203.821 75.901C203.227 76.5089 202.493 76.984 201.62 77.3264C200.746 77.6618 199.765 77.8295 198.675 77.8295ZM209.104 77.4941V61.3947H211.493V63.8264H211.661C211.955 63.0298 212.486 62.3834 213.254 61.8873C214.023 61.3912 214.889 61.1431 215.854 61.1431C216.035 61.1431 216.262 61.1466 216.535 61.1536C216.807 61.1606 217.014 61.1711 217.153 61.1851V63.7006C217.069 63.6796 216.877 63.6482 216.577 63.6063C216.283 63.5574 215.972 63.5329 215.644 63.5329C214.861 63.5329 214.163 63.6971 213.548 64.0255C212.94 64.347 212.458 64.7942 212.101 65.3671C211.752 65.9331 211.577 66.5795 211.577 67.3062V77.4941H209.104ZM242.809 56.0282H245.409V70.241C245.409 71.7084 245.063 73.0186 244.371 74.1715C243.686 75.3175 242.718 76.2224 241.468 76.8862C240.217 77.5431 238.749 77.8715 237.065 77.8715C235.381 77.8715 233.914 77.5431 232.663 76.8862C231.412 76.2224 230.441 75.3175 229.749 74.1715C229.065 73.0186 228.722 71.7084 228.722 70.241V56.0282H231.322V70.0314C231.322 71.0795 231.552 72.0124 232.013 72.8299C232.474 73.6405 233.131 74.2798 233.984 74.748C234.843 75.2092 235.87 75.4398 237.065 75.4398C238.26 75.4398 239.287 75.2092 240.147 74.748C241.006 74.2798 241.663 73.6405 242.117 72.8299C242.579 72.0124 242.809 71.0795 242.809 70.0314V56.0282ZM250.264 83.5314V61.3947H252.654V63.9522H252.947C253.129 63.6726 253.381 63.3163 253.702 62.883C254.03 62.4428 254.499 62.0515 255.106 61.7091C255.721 61.3597 256.553 61.1851 257.601 61.1851C258.957 61.1851 260.152 61.524 261.186 62.2018C262.22 62.8796 263.027 63.8403 263.607 65.0841C264.187 66.3279 264.477 67.7953 264.477 69.4863C264.477 71.1913 264.187 72.6692 263.607 73.92C263.027 75.1638 262.223 76.1281 261.196 76.8128C260.169 77.4906 258.985 77.8295 257.643 77.8295C256.609 77.8295 255.781 77.6583 255.159 77.316C254.537 76.9666 254.058 76.5718 253.723 76.1316C253.388 75.6843 253.129 75.314 252.947 75.0205H252.738V83.5314H250.264ZM252.696 69.4444C252.696 70.6603 252.874 71.7329 253.23 72.6622C253.587 73.5846 254.107 74.3078 254.792 74.8319C255.477 75.3489 256.315 75.6075 257.308 75.6075C258.342 75.6075 259.205 75.335 259.896 74.7899C260.595 74.2379 261.119 73.4972 261.469 72.5679C261.825 71.6315 262.003 70.5904 262.003 69.4444C262.003 68.3124 261.829 67.2922 261.479 66.3838C261.137 65.4685 260.616 64.7452 259.917 64.2142C259.226 63.6761 258.356 63.4071 257.308 63.4071C256.301 63.4071 255.456 63.6622 254.771 64.1723C254.086 64.6754 253.569 65.3811 253.22 66.2895C252.87 67.1909 252.696 68.2425 252.696 69.4444Z" fill="url(#paint3_linear_126_214)"/>
<path d="M57.2712 148.322V112.522H60.5912V148.322H57.2712ZM58.9912 145.002C56.8045 145.002 54.9512 144.615 53.4312 143.842C51.9112 143.068 50.7378 141.935 49.9112 140.442C49.1112 138.948 48.6312 137.095 48.4712 134.882L54.6312 134.602C54.7912 135.748 55.0578 136.708 55.4312 137.482C55.8045 138.228 56.2978 138.788 56.9112 139.162C57.5245 139.535 58.2978 139.722 59.2312 139.722C60.1645 139.722 60.9378 139.628 61.5512 139.442C62.1645 139.228 62.6178 138.922 62.9112 138.522C63.2045 138.095 63.3512 137.588 63.3512 137.002C63.3512 136.282 63.1778 135.682 62.8312 135.202C62.5112 134.695 61.9112 134.242 61.0312 133.842C60.1778 133.442 58.9512 133.068 57.3512 132.722C55.6445 132.348 54.1778 131.828 52.9512 131.162C51.7245 130.468 50.7778 129.575 50.1112 128.482C49.4445 127.388 49.1112 126.042 49.1112 124.442C49.1112 122.762 49.4845 121.295 50.2312 120.042C50.9778 118.788 52.0712 117.815 53.5112 117.122C54.9778 116.428 56.7645 116.082 58.8712 116.082C60.9245 116.082 62.6712 116.442 64.1112 117.162C65.5778 117.882 66.7112 118.935 67.5112 120.322C68.3378 121.708 68.8178 123.402 68.9512 125.402L62.7912 125.682C62.6578 124.748 62.4445 123.962 62.1512 123.322C61.8845 122.682 61.4578 122.202 60.8712 121.882C60.3112 121.535 59.5512 121.362 58.5912 121.362C57.3378 121.362 56.3912 121.615 55.7512 122.122C55.1378 122.602 54.8312 123.282 54.8312 124.162C54.8312 124.828 54.9778 125.375 55.2712 125.802C55.5645 126.228 56.1112 126.615 56.9112 126.962C57.7378 127.282 58.8978 127.628 60.3912 128.002C62.6312 128.562 64.3912 129.242 65.6712 130.042C66.9512 130.815 67.8578 131.748 68.3912 132.842C68.9245 133.935 69.1912 135.215 69.1912 136.682C69.1912 138.468 68.7912 139.975 67.9912 141.202C67.1912 142.428 66.0312 143.375 64.5112 144.042C62.9912 144.682 61.1512 145.002 58.9912 145.002ZM82.6556 145.322C79.3222 145.322 76.8289 144.548 75.1756 143.002C73.5489 141.428 72.6556 139.322 72.4956 136.682L78.9756 136.402C79.1089 137.628 79.5222 138.495 80.2156 139.002C80.9356 139.482 81.7889 139.722 82.7756 139.722C83.5222 139.722 84.1756 139.602 84.7356 139.362C85.2956 139.095 85.7356 138.695 86.0556 138.162C86.3756 137.602 86.5356 136.922 86.5356 136.122C86.5356 135.322 86.3756 134.655 86.0556 134.122C85.7356 133.562 85.2689 133.135 84.6556 132.842C84.0422 132.548 83.2822 132.402 82.3756 132.402H80.2556V127.522H82.3756C83.0422 127.522 83.6156 127.415 84.0956 127.202C84.6022 126.962 84.9889 126.615 85.2556 126.162C85.5489 125.708 85.6956 125.108 85.6956 124.362C85.6956 123.268 85.4156 122.468 84.8556 121.962C84.3222 121.428 83.6022 121.162 82.6956 121.162C81.6289 121.162 80.8289 121.428 80.2956 121.962C79.7622 122.495 79.4556 123.202 79.3756 124.082L72.8956 123.802C73.1622 121.268 74.1222 119.282 75.7756 117.842C77.4289 116.375 79.7489 115.642 82.7356 115.642C84.7089 115.642 86.4156 115.948 87.8556 116.562C89.2956 117.148 90.3889 118.028 91.1356 119.202C91.9089 120.375 92.2956 121.788 92.2956 123.442C92.2956 125.282 91.7489 126.748 90.6556 127.842C89.5889 128.908 88.0422 129.602 86.0156 129.922V129.162C88.3089 129.428 90.0689 130.228 91.2956 131.562C92.5222 132.868 93.1356 134.562 93.1356 136.642C93.1356 138.428 92.7089 139.975 91.8556 141.282C91.0289 142.588 89.8289 143.588 88.2556 144.282C86.7089 144.975 84.8422 145.322 82.6556 145.322ZM100.16 139.882L110.24 120.722L113.44 121.082L103.36 140.242L100.16 139.882ZM106.8 145.322C104.64 145.322 102.787 144.735 101.24 143.562C99.7199 142.362 98.5466 140.655 97.7199 138.442C96.8933 136.228 96.4799 133.588 96.4799 130.522C96.4799 127.455 96.8933 124.815 97.7199 122.602C98.5466 120.362 99.7199 118.642 101.24 117.442C102.787 116.242 104.64 115.642 106.8 115.642C108.96 115.642 110.8 116.242 112.32 117.442C113.867 118.642 115.053 120.362 115.88 122.602C116.707 124.815 117.12 127.455 117.12 130.522C117.12 133.588 116.707 136.228 115.88 138.442C115.053 140.655 113.867 142.362 112.32 143.562C110.8 144.735 108.96 145.322 106.8 145.322ZM106.8 139.722C107.6 139.722 108.267 139.402 108.8 138.762C109.36 138.122 109.787 137.122 110.08 135.762C110.373 134.375 110.52 132.628 110.52 130.522C110.52 128.388 110.373 126.642 110.08 125.282C109.787 123.895 109.36 122.882 108.8 122.242C108.267 121.575 107.6 121.242 106.8 121.242C106.027 121.242 105.36 121.575 104.8 122.242C104.24 122.882 103.813 123.895 103.52 125.282C103.227 126.642 103.08 128.388 103.08 130.522C103.08 132.628 103.227 134.375 103.52 135.762C103.813 137.122 104.24 138.122 104.8 138.762C105.36 139.402 106.027 139.722 106.8 139.722ZM124.144 139.882L134.224 120.722L137.424 121.082L127.344 140.242L124.144 139.882ZM130.784 145.322C128.624 145.322 126.771 144.735 125.224 143.562C123.704 142.362 122.531 140.655 121.704 138.442C120.878 136.228 120.464 133.588 120.464 130.522C120.464 127.455 120.878 124.815 121.704 122.602C122.531 120.362 123.704 118.642 125.224 117.442C126.771 116.242 128.624 115.642 130.784 115.642C132.944 115.642 134.784 116.242 136.304 117.442C137.851 118.642 139.038 120.362 139.864 122.602C140.691 124.815 141.104 127.455 141.104 130.522C141.104 133.588 140.691 136.228 139.864 138.442C139.038 140.655 137.851 142.362 136.304 143.562C134.784 144.735 132.944 145.322 130.784 145.322ZM130.784 139.722C131.584 139.722 132.251 139.402 132.784 138.762C133.344 138.122 133.771 137.122 134.064 135.762C134.358 134.375 134.504 132.628 134.504 130.522C134.504 128.388 134.358 126.642 134.064 125.282C133.771 123.895 133.344 122.882 132.784 122.242C132.251 121.575 131.584 121.242 130.784 121.242C130.011 121.242 129.344 121.575 128.784 122.242C128.224 122.882 127.798 123.895 127.504 125.282C127.211 126.642 127.064 128.388 127.064 130.522C127.064 132.628 127.211 134.375 127.504 135.762C127.798 137.122 128.224 138.122 128.784 138.762C129.344 139.402 130.011 139.722 130.784 139.722ZM148.129 139.882L158.209 120.722L161.409 121.082L151.329 140.242L148.129 139.882ZM154.769 145.322C152.609 145.322 150.755 144.735 149.209 143.562C147.689 142.362 146.515 140.655 145.689 138.442C144.862 136.228 144.449 133.588 144.449 130.522C144.449 127.455 144.862 124.815 145.689 122.602C146.515 120.362 147.689 118.642 149.209 117.442C150.755 116.242 152.609 115.642 154.769 115.642C156.929 115.642 158.769 116.242 160.289 117.442C161.835 118.642 163.022 120.362 163.849 122.602C164.675 124.815 165.089 127.455 165.089 130.522C165.089 133.588 164.675 136.228 163.849 138.442C163.022 140.655 161.835 142.362 160.289 143.562C158.769 144.735 156.929 145.322 154.769 145.322ZM154.769 139.722C155.569 139.722 156.235 139.402 156.769 138.762C157.329 138.122 157.755 137.122 158.049 135.762C158.342 134.375 158.489 132.628 158.489 130.522C158.489 128.388 158.342 126.642 158.049 125.282C157.755 123.895 157.329 122.882 156.769 122.242C156.235 121.575 155.569 121.242 154.769 121.242C153.995 121.242 153.329 121.575 152.769 122.242C152.209 122.882 151.782 123.895 151.489 125.282C151.195 126.642 151.049 128.388 151.049 130.522C151.049 132.628 151.195 134.375 151.489 135.762C151.782 137.122 152.209 138.122 152.769 138.762C153.329 139.402 153.995 139.722 154.769 139.722Z" fill="#1C1C1C"/>
<path d="M57.2712 148.322V112.522H60.5912V148.322H57.2712ZM58.9912 145.002C56.8045 145.002 54.9512 144.615 53.4312 143.842C51.9112 143.068 50.7378 141.935 49.9112 140.442C49.1112 138.948 48.6312 137.095 48.4712 134.882L54.6312 134.602C54.7912 135.748 55.0578 136.708 55.4312 137.482C55.8045 138.228 56.2978 138.788 56.9112 139.162C57.5245 139.535 58.2978 139.722 59.2312 139.722C60.1645 139.722 60.9378 139.628 61.5512 139.442C62.1645 139.228 62.6178 138.922 62.9112 138.522C63.2045 138.095 63.3512 137.588 63.3512 137.002C63.3512 136.282 63.1778 135.682 62.8312 135.202C62.5112 134.695 61.9112 134.242 61.0312 133.842C60.1778 133.442 58.9512 133.068 57.3512 132.722C55.6445 132.348 54.1778 131.828 52.9512 131.162C51.7245 130.468 50.7778 129.575 50.1112 128.482C49.4445 127.388 49.1112 126.042 49.1112 124.442C49.1112 122.762 49.4845 121.295 50.2312 120.042C50.9778 118.788 52.0712 117.815 53.5112 117.122C54.9778 116.428 56.7645 116.082 58.8712 116.082C60.9245 116.082 62.6712 116.442 64.1112 117.162C65.5778 117.882 66.7112 118.935 67.5112 120.322C68.3378 121.708 68.8178 123.402 68.9512 125.402L62.7912 125.682C62.6578 124.748 62.4445 123.962 62.1512 123.322C61.8845 122.682 61.4578 122.202 60.8712 121.882C60.3112 121.535 59.5512 121.362 58.5912 121.362C57.3378 121.362 56.3912 121.615 55.7512 122.122C55.1378 122.602 54.8312 123.282 54.8312 124.162C54.8312 124.828 54.9778 125.375 55.2712 125.802C55.5645 126.228 56.1112 126.615 56.9112 126.962C57.7378 127.282 58.8978 127.628 60.3912 128.002C62.6312 128.562 64.3912 129.242 65.6712 130.042C66.9512 130.815 67.8578 131.748 68.3912 132.842C68.9245 133.935 69.1912 135.215 69.1912 136.682C69.1912 138.468 68.7912 139.975 67.9912 141.202C67.1912 142.428 66.0312 143.375 64.5112 144.042C62.9912 144.682 61.1512 145.002 58.9912 145.002ZM82.6556 145.322C79.3222 145.322 76.8289 144.548 75.1756 143.002C73.5489 141.428 72.6556 139.322 72.4956 136.682L78.9756 136.402C79.1089 137.628 79.5222 138.495 80.2156 139.002C80.9356 139.482 81.7889 139.722 82.7756 139.722C83.5222 139.722 84.1756 139.602 84.7356 139.362C85.2956 139.095 85.7356 138.695 86.0556 138.162C86.3756 137.602 86.5356 136.922 86.5356 136.122C86.5356 135.322 86.3756 134.655 86.0556 134.122C85.7356 133.562 85.2689 133.135 84.6556 132.842C84.0422 132.548 83.2822 132.402 82.3756 132.402H80.2556V127.522H82.3756C83.0422 127.522 83.6156 127.415 84.0956 127.202C84.6022 126.962 84.9889 126.615 85.2556 126.162C85.5489 125.708 85.6956 125.108 85.6956 124.362C85.6956 123.268 85.4156 122.468 84.8556 121.962C84.3222 121.428 83.6022 121.162 82.6956 121.162C81.6289 121.162 80.8289 121.428 80.2956 121.962C79.7622 122.495 79.4556 123.202 79.3756 124.082L72.8956 123.802C73.1622 121.268 74.1222 119.282 75.7756 117.842C77.4289 116.375 79.7489 115.642 82.7356 115.642C84.7089 115.642 86.4156 115.948 87.8556 116.562C89.2956 117.148 90.3889 118.028 91.1356 119.202C91.9089 120.375 92.2956 121.788 92.2956 123.442C92.2956 125.282 91.7489 126.748 90.6556 127.842C89.5889 128.908 88.0422 129.602 86.0156 129.922V129.162C88.3089 129.428 90.0689 130.228 91.2956 131.562C92.5222 132.868 93.1356 134.562 93.1356 136.642C93.1356 138.428 92.7089 139.975 91.8556 141.282C91.0289 142.588 89.8289 143.588 88.2556 144.282C86.7089 144.975 84.8422 145.322 82.6556 145.322ZM100.16 139.882L110.24 120.722L113.44 121.082L103.36 140.242L100.16 139.882ZM106.8 145.322C104.64 145.322 102.787 144.735 101.24 143.562C99.7199 142.362 98.5466 140.655 97.7199 138.442C96.8933 136.228 96.4799 133.588 96.4799 130.522C96.4799 127.455 96.8933 124.815 97.7199 122.602C98.5466 120.362 99.7199 118.642 101.24 117.442C102.787 116.242 104.64 115.642 106.8 115.642C108.96 115.642 110.8 116.242 112.32 117.442C113.867 118.642 115.053 120.362 115.88 122.602C116.707 124.815 117.12 127.455 117.12 130.522C117.12 133.588 116.707 136.228 115.88 138.442C115.053 140.655 113.867 142.362 112.32 143.562C110.8 144.735 108.96 145.322 106.8 145.322ZM106.8 139.722C107.6 139.722 108.267 139.402 108.8 138.762C109.36 138.122 109.787 137.122 110.08 135.762C110.373 134.375 110.52 132.628 110.52 130.522C110.52 128.388 110.373 126.642 110.08 125.282C109.787 123.895 109.36 122.882 108.8 122.242C108.267 121.575 107.6 121.242 106.8 121.242C106.027 121.242 105.36 121.575 104.8 122.242C104.24 122.882 103.813 123.895 103.52 125.282C103.227 126.642 103.08 128.388 103.08 130.522C103.08 132.628 103.227 134.375 103.52 135.762C103.813 137.122 104.24 138.122 104.8 138.762C105.36 139.402 106.027 139.722 106.8 139.722ZM124.144 139.882L134.224 120.722L137.424 121.082L127.344 140.242L124.144 139.882ZM130.784 145.322C128.624 145.322 126.771 144.735 125.224 143.562C123.704 142.362 122.531 140.655 121.704 138.442C120.878 136.228 120.464 133.588 120.464 130.522C120.464 127.455 120.878 124.815 121.704 122.602C122.531 120.362 123.704 118.642 125.224 117.442C126.771 116.242 128.624 115.642 130.784 115.642C132.944 115.642 134.784 116.242 136.304 117.442C137.851 118.642 139.038 120.362 139.864 122.602C140.691 124.815 141.104 127.455 141.104 130.522C141.104 133.588 140.691 136.228 139.864 138.442C139.038 140.655 137.851 142.362 136.304 143.562C134.784 144.735 132.944 145.322 130.784 145.322ZM130.784 139.722C131.584 139.722 132.251 139.402 132.784 138.762C133.344 138.122 133.771 137.122 134.064 135.762C134.358 134.375 134.504 132.628 134.504 130.522C134.504 128.388 134.358 126.642 134.064 125.282C133.771 123.895 133.344 122.882 132.784 122.242C132.251 121.575 131.584 121.242 130.784 121.242C130.011 121.242 129.344 121.575 128.784 122.242C128.224 122.882 127.798 123.895 127.504 125.282C127.211 126.642 127.064 128.388 127.064 130.522C127.064 132.628 127.211 134.375 127.504 135.762C127.798 137.122 128.224 138.122 128.784 138.762C129.344 139.402 130.011 139.722 130.784 139.722ZM148.129 139.882L158.209 120.722L161.409 121.082L151.329 140.242L148.129 139.882ZM154.769 145.322C152.609 145.322 150.755 144.735 149.209 143.562C147.689 142.362 146.515 140.655 145.689 138.442C144.862 136.228 144.449 133.588 144.449 130.522C144.449 127.455 144.862 124.815 145.689 122.602C146.515 120.362 147.689 118.642 149.209 117.442C150.755 116.242 152.609 115.642 154.769 115.642C156.929 115.642 158.769 116.242 160.289 117.442C161.835 118.642 163.022 120.362 163.849 122.602C164.675 124.815 165.089 127.455 165.089 130.522C165.089 133.588 164.675 136.228 163.849 138.442C163.022 140.655 161.835 142.362 160.289 143.562C158.769 144.735 156.929 145.322 154.769 145.322ZM154.769 139.722C155.569 139.722 156.235 139.402 156.769 138.762C157.329 138.122 157.755 137.122 158.049 135.762C158.342 134.375 158.489 132.628 158.489 130.522C158.489 128.388 158.342 126.642 158.049 125.282C157.755 123.895 157.329 122.882 156.769 122.242C156.235 121.575 155.569 121.242 154.769 121.242C153.995 121.242 153.329 121.575 152.769 122.242C152.209 122.882 151.782 123.895 151.489 125.282C151.195 126.642 151.049 128.388 151.049 130.522C151.049 132.628 151.195 134.375 151.489 135.762C151.782 137.122 152.209 138.122 152.769 138.762C153.329 139.402 153.995 139.722 154.769 139.722Z" fill="url(#paint4_linear_126_214)"/>
<path d="M57.2712 148.322V112.522H60.5912V148.322H57.2712ZM58.9912 145.002C56.8045 145.002 54.9512 144.615 53.4312 143.842C51.9112 143.068 50.7378 141.935 49.9112 140.442C49.1112 138.948 48.6312 137.095 48.4712 134.882L54.6312 134.602C54.7912 135.748 55.0578 136.708 55.4312 137.482C55.8045 138.228 56.2978 138.788 56.9112 139.162C57.5245 139.535 58.2978 139.722 59.2312 139.722C60.1645 139.722 60.9378 139.628 61.5512 139.442C62.1645 139.228 62.6178 138.922 62.9112 138.522C63.2045 138.095 63.3512 137.588 63.3512 137.002C63.3512 136.282 63.1778 135.682 62.8312 135.202C62.5112 134.695 61.9112 134.242 61.0312 133.842C60.1778 133.442 58.9512 133.068 57.3512 132.722C55.6445 132.348 54.1778 131.828 52.9512 131.162C51.7245 130.468 50.7778 129.575 50.1112 128.482C49.4445 127.388 49.1112 126.042 49.1112 124.442C49.1112 122.762 49.4845 121.295 50.2312 120.042C50.9778 118.788 52.0712 117.815 53.5112 117.122C54.9778 116.428 56.7645 116.082 58.8712 116.082C60.9245 116.082 62.6712 116.442 64.1112 117.162C65.5778 117.882 66.7112 118.935 67.5112 120.322C68.3378 121.708 68.8178 123.402 68.9512 125.402L62.7912 125.682C62.6578 124.748 62.4445 123.962 62.1512 123.322C61.8845 122.682 61.4578 122.202 60.8712 121.882C60.3112 121.535 59.5512 121.362 58.5912 121.362C57.3378 121.362 56.3912 121.615 55.7512 122.122C55.1378 122.602 54.8312 123.282 54.8312 124.162C54.8312 124.828 54.9778 125.375 55.2712 125.802C55.5645 126.228 56.1112 126.615 56.9112 126.962C57.7378 127.282 58.8978 127.628 60.3912 128.002C62.6312 128.562 64.3912 129.242 65.6712 130.042C66.9512 130.815 67.8578 131.748 68.3912 132.842C68.9245 133.935 69.1912 135.215 69.1912 136.682C69.1912 138.468 68.7912 139.975 67.9912 141.202C67.1912 142.428 66.0312 143.375 64.5112 144.042C62.9912 144.682 61.1512 145.002 58.9912 145.002ZM82.6556 145.322C79.3222 145.322 76.8289 144.548 75.1756 143.002C73.5489 141.428 72.6556 139.322 72.4956 136.682L78.9756 136.402C79.1089 137.628 79.5222 138.495 80.2156 139.002C80.9356 139.482 81.7889 139.722 82.7756 139.722C83.5222 139.722 84.1756 139.602 84.7356 139.362C85.2956 139.095 85.7356 138.695 86.0556 138.162C86.3756 137.602 86.5356 136.922 86.5356 136.122C86.5356 135.322 86.3756 134.655 86.0556 134.122C85.7356 133.562 85.2689 133.135 84.6556 132.842C84.0422 132.548 83.2822 132.402 82.3756 132.402H80.2556V127.522H82.3756C83.0422 127.522 83.6156 127.415 84.0956 127.202C84.6022 126.962 84.9889 126.615 85.2556 126.162C85.5489 125.708 85.6956 125.108 85.6956 124.362C85.6956 123.268 85.4156 122.468 84.8556 121.962C84.3222 121.428 83.6022 121.162 82.6956 121.162C81.6289 121.162 80.8289 121.428 80.2956 121.962C79.7622 122.495 79.4556 123.202 79.3756 124.082L72.8956 123.802C73.1622 121.268 74.1222 119.282 75.7756 117.842C77.4289 116.375 79.7489 115.642 82.7356 115.642C84.7089 115.642 86.4156 115.948 87.8556 116.562C89.2956 117.148 90.3889 118.028 91.1356 119.202C91.9089 120.375 92.2956 121.788 92.2956 123.442C92.2956 125.282 91.7489 126.748 90.6556 127.842C89.5889 128.908 88.0422 129.602 86.0156 129.922V129.162C88.3089 129.428 90.0689 130.228 91.2956 131.562C92.5222 132.868 93.1356 134.562 93.1356 136.642C93.1356 138.428 92.7089 139.975 91.8556 141.282C91.0289 142.588 89.8289 143.588 88.2556 144.282C86.7089 144.975 84.8422 145.322 82.6556 145.322ZM100.16 139.882L110.24 120.722L113.44 121.082L103.36 140.242L100.16 139.882ZM106.8 145.322C104.64 145.322 102.787 144.735 101.24 143.562C99.7199 142.362 98.5466 140.655 97.7199 138.442C96.8933 136.228 96.4799 133.588 96.4799 130.522C96.4799 127.455 96.8933 124.815 97.7199 122.602C98.5466 120.362 99.7199 118.642 101.24 117.442C102.787 116.242 104.64 115.642 106.8 115.642C108.96 115.642 110.8 116.242 112.32 117.442C113.867 118.642 115.053 120.362 115.88 122.602C116.707 124.815 117.12 127.455 117.12 130.522C117.12 133.588 116.707 136.228 115.88 138.442C115.053 140.655 113.867 142.362 112.32 143.562C110.8 144.735 108.96 145.322 106.8 145.322ZM106.8 139.722C107.6 139.722 108.267 139.402 108.8 138.762C109.36 138.122 109.787 137.122 110.08 135.762C110.373 134.375 110.52 132.628 110.52 130.522C110.52 128.388 110.373 126.642 110.08 125.282C109.787 123.895 109.36 122.882 108.8 122.242C108.267 121.575 107.6 121.242 106.8 121.242C106.027 121.242 105.36 121.575 104.8 122.242C104.24 122.882 103.813 123.895 103.52 125.282C103.227 126.642 103.08 128.388 103.08 130.522C103.08 132.628 103.227 134.375 103.52 135.762C103.813 137.122 104.24 138.122 104.8 138.762C105.36 139.402 106.027 139.722 106.8 139.722ZM124.144 139.882L134.224 120.722L137.424 121.082L127.344 140.242L124.144 139.882ZM130.784 145.322C128.624 145.322 126.771 144.735 125.224 143.562C123.704 142.362 122.531 140.655 121.704 138.442C120.878 136.228 120.464 133.588 120.464 130.522C120.464 127.455 120.878 124.815 121.704 122.602C122.531 120.362 123.704 118.642 125.224 117.442C126.771 116.242 128.624 115.642 130.784 115.642C132.944 115.642 134.784 116.242 136.304 117.442C137.851 118.642 139.038 120.362 139.864 122.602C140.691 124.815 141.104 127.455 141.104 130.522C141.104 133.588 140.691 136.228 139.864 138.442C139.038 140.655 137.851 142.362 136.304 143.562C134.784 144.735 132.944 145.322 130.784 145.322ZM130.784 139.722C131.584 139.722 132.251 139.402 132.784 138.762C133.344 138.122 133.771 137.122 134.064 135.762C134.358 134.375 134.504 132.628 134.504 130.522C134.504 128.388 134.358 126.642 134.064 125.282C133.771 123.895 133.344 122.882 132.784 122.242C132.251 121.575 131.584 121.242 130.784 121.242C130.011 121.242 129.344 121.575 128.784 122.242C128.224 122.882 127.798 123.895 127.504 125.282C127.211 126.642 127.064 128.388 127.064 130.522C127.064 132.628 127.211 134.375 127.504 135.762C127.798 137.122 128.224 138.122 128.784 138.762C129.344 139.402 130.011 139.722 130.784 139.722ZM148.129 139.882L158.209 120.722L161.409 121.082L151.329 140.242L148.129 139.882ZM154.769 145.322C152.609 145.322 150.755 144.735 149.209 143.562C147.689 142.362 146.515 140.655 145.689 138.442C144.862 136.228 144.449 133.588 144.449 130.522C144.449 127.455 144.862 124.815 145.689 122.602C146.515 120.362 147.689 118.642 149.209 117.442C150.755 116.242 152.609 115.642 154.769 115.642C156.929 115.642 158.769 116.242 160.289 117.442C161.835 118.642 163.022 120.362 163.849 122.602C164.675 124.815 165.089 127.455 165.089 130.522C165.089 133.588 164.675 136.228 163.849 138.442C163.022 140.655 161.835 142.362 160.289 143.562C158.769 144.735 156.929 145.322 154.769 145.322ZM154.769 139.722C155.569 139.722 156.235 139.402 156.769 138.762C157.329 138.122 157.755 137.122 158.049 135.762C158.342 134.375 158.489 132.628 158.489 130.522C158.489 128.388 158.342 126.642 158.049 125.282C157.755 123.895 157.329 122.882 156.769 122.242C156.235 121.575 155.569 121.242 154.769 121.242C153.995 121.242 153.329 121.575 152.769 122.242C152.209 122.882 151.782 123.895 151.489 125.282C151.195 126.642 151.049 128.388 151.049 130.522C151.049 132.628 151.195 134.375 151.489 135.762C151.782 137.122 152.209 138.122 152.769 138.762C153.329 139.402 153.995 139.722 154.769 139.722Z" fill="url(#paint5_linear_126_214)"/>
<defs>
<linearGradient id="paint0_linear_126_214" x1="1.26868" y1="97.7808" x2="364.935" y2="97.7808" gradientUnits="userSpaceOnUse">
<stop stop-color="#CFA944"/>
<stop offset="0.05" stop-color="#F7EF8A"/>
<stop offset="0.0629" stop-color="#F5EB86"/>
<stop offset="0.1744" stop-color="#E4CE69"/>
<stop offset="0.2854" stop-color="#D8BA55"/>
<stop offset="0.3946" stop-color="#D1AD48"/>
<stop offset="0.5" stop-color="#CFA944"/>
<stop offset="0.6054" stop-color="#D1AD48"/>
<stop offset="0.7146" stop-color="#D8BA55"/>
<stop offset="0.8256" stop-color="#E4CE69"/>
<stop offset="0.9371" stop-color="#F5EB86"/>
<stop offset="0.95" stop-color="#F7EF8A"/>
<stop offset="1" stop-color="#CFA944"/>
</linearGradient>
<linearGradient id="paint1_linear_126_214" x1="1.26835" y1="97.782" x2="364.934" y2="97.782" gradientUnits="userSpaceOnUse">
<stop offset="0.1977" stop-color="#CACACA"/>
<stop offset="0.3468" stop-color="white"/>
<stop offset="0.4735" stop-color="#D4D4D4"/>
<stop offset="0.6331" stop-color="#A4A4A4"/>
<stop offset="0.7125" stop-color="#919191"/>
<stop offset="0.773" stop-color="#959595"/>
<stop offset="0.8279" stop-color="#A0A0A0"/>
<stop offset="0.8807" stop-color="#B2B2B2"/>
<stop offset="0.932" stop-color="#CCCCCC"/>
<stop offset="0.982" stop-color="#EDEDED"/>
<stop offset="1" stop-color="#FBFBFB"/>
</linearGradient>
<linearGradient id="paint2_linear_126_214" x1="49.3458" y1="66.4942" x2="266.346" y2="66.4942" gradientUnits="userSpaceOnUse">
<stop stop-color="#CFA944"/>
<stop offset="0.05" stop-color="#F7EF8A"/>
<stop offset="0.0629" stop-color="#F5EB86"/>
<stop offset="0.1744" stop-color="#E4CE69"/>
<stop offset="0.2854" stop-color="#D8BA55"/>
<stop offset="0.3946" stop-color="#D1AD48"/>
<stop offset="0.5" stop-color="#CFA944"/>
<stop offset="0.6054" stop-color="#D1AD48"/>
<stop offset="0.7146" stop-color="#D8BA55"/>
<stop offset="0.8256" stop-color="#E4CE69"/>
<stop offset="0.9371" stop-color="#F5EB86"/>
<stop offset="0.95" stop-color="#F7EF8A"/>
<stop offset="1" stop-color="#CFA944"/>
</linearGradient>
<linearGradient id="paint3_linear_126_214" x1="49.3456" y1="66.4944" x2="266.345" y2="66.4944" gradientUnits="userSpaceOnUse">
<stop offset="0.1977" stop-color="#CACACA"/>
<stop offset="0.3468" stop-color="white"/>
<stop offset="0.4735" stop-color="#D4D4D4"/>
<stop offset="0.6331" stop-color="#A4A4A4"/>
<stop offset="0.7125" stop-color="#919191"/>
<stop offset="0.773" stop-color="#959595"/>
<stop offset="0.8279" stop-color="#A0A0A0"/>
<stop offset="0.8807" stop-color="#B2B2B2"/>
<stop offset="0.932" stop-color="#CCCCCC"/>
<stop offset="0.982" stop-color="#EDEDED"/>
<stop offset="1" stop-color="#FBFBFB"/>
</linearGradient>
<linearGradient id="paint4_linear_126_214" x1="46.8312" y1="130.682" x2="166.831" y2="130.682" gradientUnits="userSpaceOnUse">
<stop stop-color="#CFA944"/>
<stop offset="0.05" stop-color="#F7EF8A"/>
<stop offset="0.0629" stop-color="#F5EB86"/>
<stop offset="0.1744" stop-color="#E4CE69"/>
<stop offset="0.2854" stop-color="#D8BA55"/>
<stop offset="0.3946" stop-color="#D1AD48"/>
<stop offset="0.5" stop-color="#CFA944"/>
<stop offset="0.6054" stop-color="#D1AD48"/>
<stop offset="0.7146" stop-color="#D8BA55"/>
<stop offset="0.8256" stop-color="#E4CE69"/>
<stop offset="0.9371" stop-color="#F5EB86"/>
<stop offset="0.95" stop-color="#F7EF8A"/>
<stop offset="1" stop-color="#CFA944"/>
</linearGradient>
<linearGradient id="paint5_linear_126_214" x1="46.8311" y1="130.682" x2="166.831" y2="130.682" gradientUnits="userSpaceOnUse">
<stop offset="0.1977" stop-color="#CACACA"/>
<stop offset="0.3468" stop-color="white"/>
<stop offset="0.4735" stop-color="#D4D4D4"/>
<stop offset="0.6331" stop-color="#A4A4A4"/>
<stop offset="0.7125" stop-color="#919191"/>
<stop offset="0.773" stop-color="#959595"/>
<stop offset="0.8279" stop-color="#A0A0A0"/>
<stop offset="0.8807" stop-color="#B2B2B2"/>
<stop offset="0.932" stop-color="#CCCCCC"/>
<stop offset="0.982" stop-color="#EDEDED"/>
<stop offset="1" stop-color="#FBFBFB"/>
</linearGradient>
</defs>
</svg>
