<svg width="367" height="196" viewBox="0 0 367 196" fill="none" xmlns="http://www.w3.org/2000/svg">
<path d="M348.16 0.633789C357.775 0.633789 365.569 8.42837 365.569 18.043V177.519C365.569 187.133 357.775 194.928 348.16 194.928H18.0431C8.4285 194.928 0.633911 187.133 0.633911 177.519V18.043C0.633914 8.42838 8.4285 0.63379 18.0431 0.633789H348.16Z" fill="#191A21" fill-opacity="0.36" stroke="url(#paint0_linear_126_215)" stroke-width="1.2687"/>
<path d="M63.6844 56.5871C63.5586 55.525 63.0485 54.7004 62.1541 54.1135C61.2597 53.5265 60.1626 53.233 58.863 53.233C57.9126 53.233 57.0811 53.3867 56.3684 53.6942C55.6626 54.0017 55.1106 54.4244 54.7123 54.9624C54.321 55.5005 54.1254 56.1119 54.1254 56.7967C54.1254 57.3697 54.2616 57.8623 54.5341 58.2746C54.8136 58.6799 55.17 59.0188 55.6032 59.2913C56.0365 59.5568 56.4907 59.7769 56.9658 59.9516C57.441 60.1193 57.8777 60.2556 58.276 60.3604L60.4561 60.9473C61.0151 61.0941 61.637 61.2967 62.3218 61.5553C63.0136 61.8138 63.6739 62.1667 64.3028 62.6139C64.9387 63.0541 65.4627 63.6201 65.875 64.3119C66.2873 65.0036 66.4934 65.8526 66.4934 66.8589C66.4934 68.0188 66.1895 69.0669 65.5815 70.0033C64.9806 70.9396 64.1002 71.6838 62.9402 72.2358C61.7873 72.7878 60.3863 73.0639 58.7372 73.0639C57.1999 73.0639 55.8688 72.8158 54.7438 72.3197C53.6257 71.8236 52.7453 71.1318 52.1024 70.2444C51.4666 69.3569 51.1067 68.3263 51.0229 67.1523H53.7061C53.776 67.9629 54.0485 68.6337 54.5236 69.1648C55.0058 69.6888 55.6137 70.0801 56.3474 70.3387C57.0881 70.5902 57.8847 70.716 58.7372 70.716C59.7294 70.716 60.6203 70.5553 61.4099 70.2339C62.1995 69.9055 62.8249 69.4513 63.2861 68.8713C63.7473 68.2843 63.9779 67.5995 63.9779 66.8169C63.9779 66.1042 63.7787 65.5242 63.3804 65.077C62.9821 64.6298 62.4581 64.2665 61.8082 63.9869C61.1584 63.7074 60.4561 63.4629 59.7015 63.2532L57.0601 62.4986C55.3831 62.0164 54.0555 61.3282 53.0772 60.4337C52.0989 59.5393 51.6098 58.3689 51.6098 56.9225C51.6098 55.7206 51.9347 54.6725 52.5846 53.778C53.2414 52.8766 54.1219 52.1779 55.2259 51.6818C56.3369 51.1787 57.5772 50.9271 58.9468 50.9271C60.3303 50.9271 61.5602 51.1752 62.6363 51.6713C63.7124 52.1604 64.5648 52.8312 65.1937 53.6837C65.8296 54.5362 66.165 55.504 66.1999 56.5871H63.6844ZM77.1818 73.0219C75.6306 73.0219 74.2925 72.6795 73.1675 71.9947C72.0494 71.303 71.1865 70.3387 70.5786 69.1019C69.9776 67.8581 69.6772 66.4116 69.6772 64.7626C69.6772 63.1135 69.9776 61.6601 70.5786 60.4023C71.1865 59.1375 72.032 58.1523 73.1151 57.4465C74.2051 56.7338 75.4769 56.3774 76.9303 56.3774C77.7688 56.3774 78.5968 56.5172 79.4144 56.7967C80.2319 57.0762 80.9761 57.5304 81.6469 58.1593C82.3177 58.7812 82.8523 59.6057 83.2506 60.6329C83.6489 61.6601 83.848 62.9248 83.848 64.4272V65.4753H71.438V63.3371H81.3325C81.3325 62.4287 81.1508 61.6181 80.7875 60.9054C80.4311 60.1927 79.921 59.6302 79.2572 59.2179C78.6003 58.8056 77.8247 58.5995 76.9303 58.5995C75.945 58.5995 75.0925 58.8441 74.3728 59.3332C73.6601 59.8153 73.1116 60.4442 72.7272 61.2199C72.3429 61.9955 72.1508 62.827 72.1508 63.7144V65.1399C72.1508 66.3557 72.3604 67.3864 72.7797 68.2319C73.2059 69.0704 73.7963 69.7098 74.551 70.15C75.3057 70.5833 76.1826 70.7999 77.1818 70.7999C77.8317 70.7999 78.4187 70.709 78.9427 70.5274C79.4738 70.3387 79.9315 70.0592 80.3158 69.6888C80.7001 69.3115 80.9971 68.8433 81.2067 68.2843L83.5965 68.9551C83.3449 69.7657 82.9222 70.4784 82.3282 71.0933C81.7343 71.7013 81.0006 72.1764 80.1271 72.5188C79.2537 72.8542 78.2719 73.0219 77.1818 73.0219ZM94.1513 73.0219C92.6419 73.0219 91.3422 72.6656 90.2522 71.9528C89.1621 71.2401 88.3236 70.2583 87.7366 69.0075C87.1497 67.7568 86.8562 66.3278 86.8562 64.7206C86.8562 63.0855 87.1567 61.6426 87.7576 60.3918C88.3655 59.1341 89.211 58.1523 90.2941 57.4465C91.3842 56.7338 92.6559 56.3774 94.1093 56.3774C95.2413 56.3774 96.2615 56.5871 97.1699 57.0063C98.0783 57.4256 98.8225 58.0125 99.4024 58.7672C99.9824 59.5219 100.342 60.4023 100.482 61.4085H98.0084C97.8198 60.6748 97.4005 60.025 96.7507 59.459C96.1078 58.886 95.2413 58.5995 94.1513 58.5995C93.187 58.5995 92.3415 58.8511 91.6148 59.3542C90.895 59.8503 90.3325 60.5525 89.9272 61.4609C89.529 62.3623 89.3298 63.421 89.3298 64.6368C89.3298 65.8806 89.5255 66.9637 89.9168 67.886C90.3151 68.8084 90.8741 69.5246 91.5938 70.0347C92.3205 70.5448 93.173 70.7999 94.1513 70.7999C94.7941 70.7999 95.3776 70.6881 95.9017 70.4645C96.4257 70.2409 96.8694 69.9194 97.2328 69.5002C97.5962 69.0809 97.8547 68.5778 98.0084 67.9908H100.482C100.342 68.9412 99.9964 69.7971 99.4444 70.5588C98.8993 71.3135 98.1761 71.9144 97.2747 72.3616C96.3803 72.8018 95.3392 73.0219 94.1513 73.0219ZM110.639 73.0219C109.185 73.0219 107.91 72.676 106.813 71.9843C105.723 71.2925 104.87 70.3247 104.255 69.0809C103.647 67.8371 103.343 66.3837 103.343 64.7206C103.343 63.0436 103.647 61.5797 104.255 60.3289C104.87 59.0782 105.723 58.1069 106.813 57.4151C107.91 56.7233 109.185 56.3774 110.639 56.3774C112.092 56.3774 113.364 56.7233 114.454 57.4151C115.551 58.1069 116.403 59.0782 117.011 60.3289C117.626 61.5797 117.934 63.0436 117.934 64.7206C117.934 66.3837 117.626 67.8371 117.011 69.0809C116.403 70.3247 115.551 71.2925 114.454 71.9843C113.364 72.676 112.092 73.0219 110.639 73.0219ZM110.639 70.7999C111.743 70.7999 112.651 70.5169 113.364 69.9509C114.076 69.3849 114.604 68.6407 114.946 67.7183C115.289 66.796 115.46 65.7967 115.46 64.7206C115.46 63.6446 115.289 62.6418 114.946 61.7125C114.604 60.7831 114.076 60.032 113.364 59.459C112.651 58.886 111.743 58.5995 110.639 58.5995C109.534 58.5995 108.626 58.886 107.913 59.459C107.201 60.032 106.673 60.7831 106.331 61.7125C105.988 62.6418 105.817 63.6446 105.817 64.7206C105.817 65.7967 105.988 66.796 106.331 67.7183C106.673 68.6407 107.201 69.3849 107.913 69.9509C108.626 70.5169 109.534 70.7999 110.639 70.7999ZM124.183 63.0017V72.6865H121.71V56.5871H124.099V59.1026H124.309C124.686 58.2851 125.259 57.6282 126.028 57.1321C126.797 56.629 127.789 56.3774 129.005 56.3774C130.095 56.3774 131.048 56.601 131.866 57.0483C132.684 57.4885 133.319 58.1593 133.774 59.0607C134.228 59.9551 134.455 61.0871 134.455 62.4567V72.6865H131.981V62.6244C131.981 61.3596 131.653 60.3744 130.996 59.6686C130.339 58.9559 129.438 58.5995 128.292 58.5995C127.502 58.5995 126.797 58.7707 126.175 59.1131C125.56 59.4555 125.074 59.9551 124.718 60.6119C124.361 61.2688 124.183 62.0654 124.183 63.0017ZM145.054 73.0219C143.713 73.0219 142.528 72.683 141.501 72.0052C140.474 71.3204 139.67 70.3562 139.09 69.1124C138.51 67.8616 138.22 66.3837 138.22 64.6787C138.22 62.9877 138.51 61.5203 139.09 60.2765C139.67 59.0327 140.477 58.0719 141.512 57.3941C142.546 56.7163 143.741 56.3774 145.096 56.3774C146.144 56.3774 146.972 56.5521 147.58 56.9015C148.195 57.2439 148.663 57.6352 148.985 58.0754C149.313 58.5087 149.568 58.865 149.75 59.1445H149.96V51.2206H152.433V72.6865H150.043V70.2129H149.75C149.568 70.5064 149.31 70.8767 148.974 71.3239C148.639 71.7642 148.16 72.159 147.538 72.5083C146.916 72.8507 146.088 73.0219 145.054 73.0219ZM145.39 70.7999C146.382 70.7999 147.22 70.5413 147.905 70.0242C148.59 69.5002 149.111 68.777 149.467 67.8546C149.823 66.9252 150.001 65.8526 150.001 64.6368C150.001 63.4349 149.827 62.3833 149.477 61.4819C149.128 60.5735 148.611 59.8678 147.926 59.3646C147.241 58.8545 146.396 58.5995 145.39 58.5995C144.342 58.5995 143.468 58.8685 142.769 59.4066C142.078 59.9376 141.557 60.6608 141.208 61.5762C140.865 62.4846 140.694 63.5048 140.694 64.6368C140.694 65.7828 140.869 66.8239 141.218 67.7603C141.574 68.6896 142.098 69.4303 142.79 69.9823C143.489 70.5274 144.355 70.7999 145.39 70.7999ZM165.944 72.6865V51.2206H173.197C174.874 51.2206 176.25 51.5071 177.327 52.0801C178.403 52.6461 179.199 53.4252 179.716 54.4174C180.233 55.4097 180.492 56.5382 180.492 57.8029C180.492 59.0677 180.233 60.1892 179.716 61.1674C179.199 62.1457 178.406 62.9143 177.337 63.4734C176.268 64.0254 174.902 64.3014 173.239 64.3014H167.369V61.9536H173.155C174.301 61.9536 175.223 61.7859 175.922 61.4504C176.628 61.115 177.138 60.6399 177.452 60.025C177.774 59.4031 177.934 58.6624 177.934 57.8029C177.934 56.9434 177.774 56.1923 177.452 55.5494C177.131 54.9065 176.617 54.4104 175.912 54.061C175.206 53.7047 174.273 53.5265 173.113 53.5265H168.543V72.6865H165.944ZM176.048 63.0436L181.33 72.6865H178.312L173.113 63.0436H176.048ZM194.634 66.1042V56.5871H197.108V72.6865H194.634V69.9614H194.466C194.089 70.7789 193.502 71.4742 192.705 72.0472C191.909 72.6132 190.903 72.8962 189.687 72.8962C188.681 72.8962 187.786 72.676 187.003 72.2358C186.221 71.7886 185.606 71.1178 185.159 70.2234C184.712 69.322 184.488 68.1865 184.488 66.8169V56.5871H186.962V66.6492C186.962 67.8231 187.29 68.7595 187.947 69.4582C188.611 70.157 189.456 70.5064 190.483 70.5064C191.098 70.5064 191.724 70.3492 192.359 70.0347C193.002 69.7203 193.54 69.2381 193.974 68.5883C194.414 67.9384 194.634 67.1104 194.634 66.1042ZM204.112 63.0017V72.6865H201.638V56.5871H204.028V59.1026H204.238C204.615 58.2851 205.188 57.6282 205.957 57.1321C206.725 56.629 207.717 56.3774 208.933 56.3774C210.023 56.3774 210.977 56.601 211.795 57.0483C212.612 57.4885 213.248 58.1593 213.702 59.0607C214.156 59.9551 214.384 61.0871 214.384 62.4567V72.6865H211.91V62.6244C211.91 61.3596 211.582 60.3744 210.925 59.6686C210.268 58.9559 209.366 58.5995 208.221 58.5995C207.431 58.5995 206.725 58.7707 206.103 59.1131C205.488 59.4555 205.003 59.9551 204.646 60.6119C204.29 61.2688 204.112 62.0654 204.112 63.0017ZM221.377 63.0017V72.6865H218.904V56.5871H221.293V59.1026H221.503C221.88 58.2851 222.453 57.6282 223.222 57.1321C223.991 56.629 224.983 56.3774 226.199 56.3774C227.289 56.3774 228.243 56.601 229.06 57.0483C229.878 57.4885 230.514 58.1593 230.968 59.0607C231.422 59.9551 231.649 61.0871 231.649 62.4567V72.6865H229.175V62.6244C229.175 61.3596 228.847 60.3744 228.19 59.6686C227.533 58.9559 226.632 58.5995 225.486 58.5995C224.696 58.5995 223.991 58.7707 223.369 59.1131C222.754 59.4555 222.268 59.9551 221.912 60.6119C221.555 61.2688 221.377 62.0654 221.377 63.0017ZM242.919 73.0219C241.368 73.0219 240.03 72.6795 238.905 71.9947C237.787 71.303 236.924 70.3387 236.316 69.1019C235.715 67.8581 235.415 66.4116 235.415 64.7626C235.415 63.1135 235.715 61.6601 236.316 60.4023C236.924 59.1375 237.769 58.1523 238.852 57.4465C239.943 56.7338 241.214 56.3774 242.668 56.3774C243.506 56.3774 244.334 56.5172 245.152 56.7967C245.969 57.0762 246.714 57.5304 247.384 58.1593C248.055 58.7812 248.59 59.6057 248.988 60.6329C249.386 61.6601 249.585 62.9248 249.585 64.4272V65.4753H237.175V63.3371H247.07C247.07 62.4287 246.888 61.6181 246.525 60.9054C246.168 60.1927 245.658 59.6302 244.995 59.2179C244.338 58.8056 243.562 58.5995 242.668 58.5995C241.682 58.5995 240.83 58.8441 240.11 59.3332C239.397 59.8153 238.849 60.4442 238.465 61.2199C238.08 61.9955 237.888 62.827 237.888 63.7144V65.1399C237.888 66.3557 238.098 67.3864 238.517 68.2319C238.943 69.0704 239.534 69.7098 240.288 70.15C241.043 70.5833 241.92 70.7999 242.919 70.7999C243.569 70.7999 244.156 70.709 244.68 70.5274C245.211 70.3387 245.669 70.0592 246.053 69.6888C246.437 69.3115 246.734 68.8433 246.944 68.2843L249.334 68.9551C249.082 69.7657 248.66 70.4784 248.066 71.0933C247.472 71.7013 246.738 72.1764 245.865 72.5188C244.991 72.8542 244.009 73.0219 242.919 73.0219ZM253.348 72.6865V56.5871H255.738V59.0188H255.906C256.199 58.2222 256.73 57.5758 257.499 57.0797C258.268 56.5836 259.134 56.3355 260.098 56.3355C260.28 56.3355 260.507 56.339 260.78 56.346C261.052 56.353 261.258 56.3635 261.398 56.3774V58.893C261.314 58.872 261.122 58.8406 260.821 58.7986C260.528 58.7497 260.217 58.7253 259.889 58.7253C259.106 58.7253 258.407 58.8895 257.792 59.2179C257.184 59.5393 256.702 59.9865 256.346 60.5595C255.997 61.1255 255.822 61.7719 255.822 62.4986V72.6865H253.348ZM287.054 51.2206H289.653V65.4334C289.653 66.9008 289.307 68.211 288.616 69.3639C287.931 70.5099 286.963 71.4148 285.712 72.0786C284.461 72.7354 282.994 73.0639 281.31 73.0639C279.626 73.0639 278.159 72.7354 276.908 72.0786C275.657 71.4148 274.686 70.5099 273.994 69.3639C273.309 68.211 272.967 66.9008 272.967 65.4334V51.2206H275.566V65.2238C275.566 66.2719 275.797 67.2047 276.258 68.0223C276.719 68.8329 277.376 69.4722 278.229 69.9404C279.088 70.4016 280.115 70.6322 281.31 70.6322C282.505 70.6322 283.532 70.4016 284.392 69.9404C285.251 69.4722 285.908 68.8329 286.362 68.0223C286.823 67.2047 287.054 66.2719 287.054 65.2238V51.2206ZM294.509 78.7238V56.5871H296.899V59.1445H297.192C297.374 58.865 297.625 58.5087 297.947 58.0754C298.275 57.6352 298.743 57.2439 299.351 56.9015C299.966 56.5521 300.798 56.3774 301.846 56.3774C303.201 56.3774 304.396 56.7163 305.43 57.3941C306.465 58.0719 307.272 59.0327 307.852 60.2765C308.432 61.5203 308.722 62.9877 308.722 64.6787C308.722 66.3837 308.432 67.8616 307.852 69.1124C307.272 70.3562 306.468 71.3204 305.441 72.0052C304.414 72.683 303.229 73.0219 301.888 73.0219C300.854 73.0219 300.025 72.8507 299.404 72.5083C298.782 72.159 298.303 71.7642 297.968 71.3239C297.632 70.8767 297.374 70.5064 297.192 70.2129H296.982V78.7238H294.509ZM296.94 64.6368C296.94 65.8526 297.119 66.9252 297.475 67.8546C297.831 68.777 298.352 69.5002 299.037 70.0242C299.722 70.5413 300.56 70.7999 301.552 70.7999C302.586 70.7999 303.449 70.5274 304.141 69.9823C304.84 69.4303 305.364 68.6896 305.713 67.7603C306.07 66.8239 306.248 65.7828 306.248 64.6368C306.248 63.5048 306.073 62.4846 305.724 61.5762C305.381 60.6608 304.861 59.9376 304.162 59.4066C303.47 58.8685 302.6 58.5995 301.552 58.5995C300.546 58.5995 299.701 58.8545 299.016 59.3646C298.331 59.8678 297.814 60.5735 297.465 61.4819C297.115 62.3833 296.94 63.4349 296.94 64.6368Z" fill="#1C1C1C"/>
<path d="M63.6844 56.5871C63.5586 55.525 63.0485 54.7004 62.1541 54.1135C61.2597 53.5265 60.1626 53.233 58.863 53.233C57.9126 53.233 57.0811 53.3867 56.3684 53.6942C55.6626 54.0017 55.1106 54.4244 54.7123 54.9624C54.321 55.5005 54.1254 56.1119 54.1254 56.7967C54.1254 57.3697 54.2616 57.8623 54.5341 58.2746C54.8136 58.6799 55.17 59.0188 55.6032 59.2913C56.0365 59.5568 56.4907 59.7769 56.9658 59.9516C57.441 60.1193 57.8777 60.2556 58.276 60.3604L60.4561 60.9473C61.0151 61.0941 61.637 61.2967 62.3218 61.5553C63.0136 61.8138 63.6739 62.1667 64.3028 62.6139C64.9387 63.0541 65.4627 63.6201 65.875 64.3119C66.2873 65.0036 66.4934 65.8526 66.4934 66.8589C66.4934 68.0188 66.1895 69.0669 65.5815 70.0033C64.9806 70.9396 64.1002 71.6838 62.9402 72.2358C61.7873 72.7878 60.3863 73.0639 58.7372 73.0639C57.1999 73.0639 55.8688 72.8158 54.7438 72.3197C53.6257 71.8236 52.7453 71.1318 52.1024 70.2444C51.4666 69.3569 51.1067 68.3263 51.0229 67.1523H53.7061C53.776 67.9629 54.0485 68.6337 54.5236 69.1648C55.0058 69.6888 55.6137 70.0801 56.3474 70.3387C57.0881 70.5902 57.8847 70.716 58.7372 70.716C59.7294 70.716 60.6203 70.5553 61.4099 70.2339C62.1995 69.9055 62.8249 69.4513 63.2861 68.8713C63.7473 68.2843 63.9779 67.5995 63.9779 66.8169C63.9779 66.1042 63.7787 65.5242 63.3804 65.077C62.9821 64.6298 62.4581 64.2665 61.8082 63.9869C61.1584 63.7074 60.4561 63.4629 59.7015 63.2532L57.0601 62.4986C55.3831 62.0164 54.0555 61.3282 53.0772 60.4337C52.0989 59.5393 51.6098 58.3689 51.6098 56.9225C51.6098 55.7206 51.9347 54.6725 52.5846 53.778C53.2414 52.8766 54.1219 52.1779 55.2259 51.6818C56.3369 51.1787 57.5772 50.9271 58.9468 50.9271C60.3303 50.9271 61.5602 51.1752 62.6363 51.6713C63.7124 52.1604 64.5648 52.8312 65.1937 53.6837C65.8296 54.5362 66.165 55.504 66.1999 56.5871H63.6844ZM77.1818 73.0219C75.6306 73.0219 74.2925 72.6795 73.1675 71.9947C72.0494 71.303 71.1865 70.3387 70.5786 69.1019C69.9776 67.8581 69.6772 66.4116 69.6772 64.7626C69.6772 63.1135 69.9776 61.6601 70.5786 60.4023C71.1865 59.1375 72.032 58.1523 73.1151 57.4465C74.2051 56.7338 75.4769 56.3774 76.9303 56.3774C77.7688 56.3774 78.5968 56.5172 79.4144 56.7967C80.2319 57.0762 80.9761 57.5304 81.6469 58.1593C82.3177 58.7812 82.8523 59.6057 83.2506 60.6329C83.6489 61.6601 83.848 62.9248 83.848 64.4272V65.4753H71.438V63.3371H81.3325C81.3325 62.4287 81.1508 61.6181 80.7875 60.9054C80.4311 60.1927 79.921 59.6302 79.2572 59.2179C78.6003 58.8056 77.8247 58.5995 76.9303 58.5995C75.945 58.5995 75.0925 58.8441 74.3728 59.3332C73.6601 59.8153 73.1116 60.4442 72.7272 61.2199C72.3429 61.9955 72.1508 62.827 72.1508 63.7144V65.1399C72.1508 66.3557 72.3604 67.3864 72.7797 68.2319C73.2059 69.0704 73.7963 69.7098 74.551 70.15C75.3057 70.5833 76.1826 70.7999 77.1818 70.7999C77.8317 70.7999 78.4187 70.709 78.9427 70.5274C79.4738 70.3387 79.9315 70.0592 80.3158 69.6888C80.7001 69.3115 80.9971 68.8433 81.2067 68.2843L83.5965 68.9551C83.3449 69.7657 82.9222 70.4784 82.3282 71.0933C81.7343 71.7013 81.0006 72.1764 80.1271 72.5188C79.2537 72.8542 78.2719 73.0219 77.1818 73.0219ZM94.1513 73.0219C92.6419 73.0219 91.3422 72.6656 90.2522 71.9528C89.1621 71.2401 88.3236 70.2583 87.7366 69.0075C87.1497 67.7568 86.8562 66.3278 86.8562 64.7206C86.8562 63.0855 87.1567 61.6426 87.7576 60.3918C88.3655 59.1341 89.211 58.1523 90.2941 57.4465C91.3842 56.7338 92.6559 56.3774 94.1093 56.3774C95.2413 56.3774 96.2615 56.5871 97.1699 57.0063C98.0783 57.4256 98.8225 58.0125 99.4024 58.7672C99.9824 59.5219 100.342 60.4023 100.482 61.4085H98.0084C97.8198 60.6748 97.4005 60.025 96.7507 59.459C96.1078 58.886 95.2413 58.5995 94.1513 58.5995C93.187 58.5995 92.3415 58.8511 91.6148 59.3542C90.895 59.8503 90.3325 60.5525 89.9272 61.4609C89.529 62.3623 89.3298 63.421 89.3298 64.6368C89.3298 65.8806 89.5255 66.9637 89.9168 67.886C90.3151 68.8084 90.8741 69.5246 91.5938 70.0347C92.3205 70.5448 93.173 70.7999 94.1513 70.7999C94.7941 70.7999 95.3776 70.6881 95.9017 70.4645C96.4257 70.2409 96.8694 69.9194 97.2328 69.5002C97.5962 69.0809 97.8547 68.5778 98.0084 67.9908H100.482C100.342 68.9412 99.9964 69.7971 99.4444 70.5588C98.8993 71.3135 98.1761 71.9144 97.2747 72.3616C96.3803 72.8018 95.3392 73.0219 94.1513 73.0219ZM110.639 73.0219C109.185 73.0219 107.91 72.676 106.813 71.9843C105.723 71.2925 104.87 70.3247 104.255 69.0809C103.647 67.8371 103.343 66.3837 103.343 64.7206C103.343 63.0436 103.647 61.5797 104.255 60.3289C104.87 59.0782 105.723 58.1069 106.813 57.4151C107.91 56.7233 109.185 56.3774 110.639 56.3774C112.092 56.3774 113.364 56.7233 114.454 57.4151C115.551 58.1069 116.403 59.0782 117.011 60.3289C117.626 61.5797 117.934 63.0436 117.934 64.7206C117.934 66.3837 117.626 67.8371 117.011 69.0809C116.403 70.3247 115.551 71.2925 114.454 71.9843C113.364 72.676 112.092 73.0219 110.639 73.0219ZM110.639 70.7999C111.743 70.7999 112.651 70.5169 113.364 69.9509C114.076 69.3849 114.604 68.6407 114.946 67.7183C115.289 66.796 115.46 65.7967 115.46 64.7206C115.46 63.6446 115.289 62.6418 114.946 61.7125C114.604 60.7831 114.076 60.032 113.364 59.459C112.651 58.886 111.743 58.5995 110.639 58.5995C109.534 58.5995 108.626 58.886 107.913 59.459C107.201 60.032 106.673 60.7831 106.331 61.7125C105.988 62.6418 105.817 63.6446 105.817 64.7206C105.817 65.7967 105.988 66.796 106.331 67.7183C106.673 68.6407 107.201 69.3849 107.913 69.9509C108.626 70.5169 109.534 70.7999 110.639 70.7999ZM124.183 63.0017V72.6865H121.71V56.5871H124.099V59.1026H124.309C124.686 58.2851 125.259 57.6282 126.028 57.1321C126.797 56.629 127.789 56.3774 129.005 56.3774C130.095 56.3774 131.048 56.601 131.866 57.0483C132.684 57.4885 133.319 58.1593 133.774 59.0607C134.228 59.9551 134.455 61.0871 134.455 62.4567V72.6865H131.981V62.6244C131.981 61.3596 131.653 60.3744 130.996 59.6686C130.339 58.9559 129.438 58.5995 128.292 58.5995C127.502 58.5995 126.797 58.7707 126.175 59.1131C125.56 59.4555 125.074 59.9551 124.718 60.6119C124.361 61.2688 124.183 62.0654 124.183 63.0017ZM145.054 73.0219C143.713 73.0219 142.528 72.683 141.501 72.0052C140.474 71.3204 139.67 70.3562 139.09 69.1124C138.51 67.8616 138.22 66.3837 138.22 64.6787C138.22 62.9877 138.51 61.5203 139.09 60.2765C139.67 59.0327 140.477 58.0719 141.512 57.3941C142.546 56.7163 143.741 56.3774 145.096 56.3774C146.144 56.3774 146.972 56.5521 147.58 56.9015C148.195 57.2439 148.663 57.6352 148.985 58.0754C149.313 58.5087 149.568 58.865 149.75 59.1445H149.96V51.2206H152.433V72.6865H150.043V70.2129H149.75C149.568 70.5064 149.31 70.8767 148.974 71.3239C148.639 71.7642 148.16 72.159 147.538 72.5083C146.916 72.8507 146.088 73.0219 145.054 73.0219ZM145.39 70.7999C146.382 70.7999 147.22 70.5413 147.905 70.0242C148.59 69.5002 149.111 68.777 149.467 67.8546C149.823 66.9252 150.001 65.8526 150.001 64.6368C150.001 63.4349 149.827 62.3833 149.477 61.4819C149.128 60.5735 148.611 59.8678 147.926 59.3646C147.241 58.8545 146.396 58.5995 145.39 58.5995C144.342 58.5995 143.468 58.8685 142.769 59.4066C142.078 59.9376 141.557 60.6608 141.208 61.5762C140.865 62.4846 140.694 63.5048 140.694 64.6368C140.694 65.7828 140.869 66.8239 141.218 67.7603C141.574 68.6896 142.098 69.4303 142.79 69.9823C143.489 70.5274 144.355 70.7999 145.39 70.7999ZM165.944 72.6865V51.2206H173.197C174.874 51.2206 176.25 51.5071 177.327 52.0801C178.403 52.6461 179.199 53.4252 179.716 54.4174C180.233 55.4097 180.492 56.5382 180.492 57.8029C180.492 59.0677 180.233 60.1892 179.716 61.1674C179.199 62.1457 178.406 62.9143 177.337 63.4734C176.268 64.0254 174.902 64.3014 173.239 64.3014H167.369V61.9536H173.155C174.301 61.9536 175.223 61.7859 175.922 61.4504C176.628 61.115 177.138 60.6399 177.452 60.025C177.774 59.4031 177.934 58.6624 177.934 57.8029C177.934 56.9434 177.774 56.1923 177.452 55.5494C177.131 54.9065 176.617 54.4104 175.912 54.061C175.206 53.7047 174.273 53.5265 173.113 53.5265H168.543V72.6865H165.944ZM176.048 63.0436L181.33 72.6865H178.312L173.113 63.0436H176.048ZM194.634 66.1042V56.5871H197.108V72.6865H194.634V69.9614H194.466C194.089 70.7789 193.502 71.4742 192.705 72.0472C191.909 72.6132 190.903 72.8962 189.687 72.8962C188.681 72.8962 187.786 72.676 187.003 72.2358C186.221 71.7886 185.606 71.1178 185.159 70.2234C184.712 69.322 184.488 68.1865 184.488 66.8169V56.5871H186.962V66.6492C186.962 67.8231 187.29 68.7595 187.947 69.4582C188.611 70.157 189.456 70.5064 190.483 70.5064C191.098 70.5064 191.724 70.3492 192.359 70.0347C193.002 69.7203 193.54 69.2381 193.974 68.5883C194.414 67.9384 194.634 67.1104 194.634 66.1042ZM204.112 63.0017V72.6865H201.638V56.5871H204.028V59.1026H204.238C204.615 58.2851 205.188 57.6282 205.957 57.1321C206.725 56.629 207.717 56.3774 208.933 56.3774C210.023 56.3774 210.977 56.601 211.795 57.0483C212.612 57.4885 213.248 58.1593 213.702 59.0607C214.156 59.9551 214.384 61.0871 214.384 62.4567V72.6865H211.91V62.6244C211.91 61.3596 211.582 60.3744 210.925 59.6686C210.268 58.9559 209.366 58.5995 208.221 58.5995C207.431 58.5995 206.725 58.7707 206.103 59.1131C205.488 59.4555 205.003 59.9551 204.646 60.6119C204.29 61.2688 204.112 62.0654 204.112 63.0017ZM221.377 63.0017V72.6865H218.904V56.5871H221.293V59.1026H221.503C221.88 58.2851 222.453 57.6282 223.222 57.1321C223.991 56.629 224.983 56.3774 226.199 56.3774C227.289 56.3774 228.243 56.601 229.06 57.0483C229.878 57.4885 230.514 58.1593 230.968 59.0607C231.422 59.9551 231.649 61.0871 231.649 62.4567V72.6865H229.175V62.6244C229.175 61.3596 228.847 60.3744 228.19 59.6686C227.533 58.9559 226.632 58.5995 225.486 58.5995C224.696 58.5995 223.991 58.7707 223.369 59.1131C222.754 59.4555 222.268 59.9551 221.912 60.6119C221.555 61.2688 221.377 62.0654 221.377 63.0017ZM242.919 73.0219C241.368 73.0219 240.03 72.6795 238.905 71.9947C237.787 71.303 236.924 70.3387 236.316 69.1019C235.715 67.8581 235.415 66.4116 235.415 64.7626C235.415 63.1135 235.715 61.6601 236.316 60.4023C236.924 59.1375 237.769 58.1523 238.852 57.4465C239.943 56.7338 241.214 56.3774 242.668 56.3774C243.506 56.3774 244.334 56.5172 245.152 56.7967C245.969 57.0762 246.714 57.5304 247.384 58.1593C248.055 58.7812 248.59 59.6057 248.988 60.6329C249.386 61.6601 249.585 62.9248 249.585 64.4272V65.4753H237.175V63.3371H247.07C247.07 62.4287 246.888 61.6181 246.525 60.9054C246.168 60.1927 245.658 59.6302 244.995 59.2179C244.338 58.8056 243.562 58.5995 242.668 58.5995C241.682 58.5995 240.83 58.8441 240.11 59.3332C239.397 59.8153 238.849 60.4442 238.465 61.2199C238.08 61.9955 237.888 62.827 237.888 63.7144V65.1399C237.888 66.3557 238.098 67.3864 238.517 68.2319C238.943 69.0704 239.534 69.7098 240.288 70.15C241.043 70.5833 241.92 70.7999 242.919 70.7999C243.569 70.7999 244.156 70.709 244.68 70.5274C245.211 70.3387 245.669 70.0592 246.053 69.6888C246.437 69.3115 246.734 68.8433 246.944 68.2843L249.334 68.9551C249.082 69.7657 248.66 70.4784 248.066 71.0933C247.472 71.7013 246.738 72.1764 245.865 72.5188C244.991 72.8542 244.009 73.0219 242.919 73.0219ZM253.348 72.6865V56.5871H255.738V59.0188H255.906C256.199 58.2222 256.73 57.5758 257.499 57.0797C258.268 56.5836 259.134 56.3355 260.098 56.3355C260.28 56.3355 260.507 56.339 260.78 56.346C261.052 56.353 261.258 56.3635 261.398 56.3774V58.893C261.314 58.872 261.122 58.8406 260.821 58.7986C260.528 58.7497 260.217 58.7253 259.889 58.7253C259.106 58.7253 258.407 58.8895 257.792 59.2179C257.184 59.5393 256.702 59.9865 256.346 60.5595C255.997 61.1255 255.822 61.7719 255.822 62.4986V72.6865H253.348ZM287.054 51.2206H289.653V65.4334C289.653 66.9008 289.307 68.211 288.616 69.3639C287.931 70.5099 286.963 71.4148 285.712 72.0786C284.461 72.7354 282.994 73.0639 281.31 73.0639C279.626 73.0639 278.159 72.7354 276.908 72.0786C275.657 71.4148 274.686 70.5099 273.994 69.3639C273.309 68.211 272.967 66.9008 272.967 65.4334V51.2206H275.566V65.2238C275.566 66.2719 275.797 67.2047 276.258 68.0223C276.719 68.8329 277.376 69.4722 278.229 69.9404C279.088 70.4016 280.115 70.6322 281.31 70.6322C282.505 70.6322 283.532 70.4016 284.392 69.9404C285.251 69.4722 285.908 68.8329 286.362 68.0223C286.823 67.2047 287.054 66.2719 287.054 65.2238V51.2206ZM294.509 78.7238V56.5871H296.899V59.1445H297.192C297.374 58.865 297.625 58.5087 297.947 58.0754C298.275 57.6352 298.743 57.2439 299.351 56.9015C299.966 56.5521 300.798 56.3774 301.846 56.3774C303.201 56.3774 304.396 56.7163 305.43 57.3941C306.465 58.0719 307.272 59.0327 307.852 60.2765C308.432 61.5203 308.722 62.9877 308.722 64.6787C308.722 66.3837 308.432 67.8616 307.852 69.1124C307.272 70.3562 306.468 71.3204 305.441 72.0052C304.414 72.683 303.229 73.0219 301.888 73.0219C300.854 73.0219 300.025 72.8507 299.404 72.5083C298.782 72.159 298.303 71.7642 297.968 71.3239C297.632 70.8767 297.374 70.5064 297.192 70.2129H296.982V78.7238H294.509ZM296.94 64.6368C296.94 65.8526 297.119 66.9252 297.475 67.8546C297.831 68.777 298.352 69.5002 299.037 70.0242C299.722 70.5413 300.56 70.7999 301.552 70.7999C302.586 70.7999 303.449 70.5274 304.141 69.9823C304.84 69.4303 305.364 68.6896 305.713 67.7603C306.07 66.8239 306.248 65.7828 306.248 64.6368C306.248 63.5048 306.073 62.4846 305.724 61.5762C305.381 60.6608 304.861 59.9376 304.162 59.4066C303.47 58.8685 302.6 58.5995 301.552 58.5995C300.546 58.5995 299.701 58.8545 299.016 59.3646C298.331 59.8678 297.814 60.5735 297.465 61.4819C297.115 62.3833 296.94 63.4349 296.94 64.6368Z" fill="url(#paint1_linear_126_215)"/>
<path d="M63.6844 56.5871C63.5586 55.525 63.0485 54.7004 62.1541 54.1135C61.2597 53.5265 60.1626 53.233 58.863 53.233C57.9126 53.233 57.0811 53.3867 56.3684 53.6942C55.6626 54.0017 55.1106 54.4244 54.7123 54.9624C54.321 55.5005 54.1254 56.1119 54.1254 56.7967C54.1254 57.3697 54.2616 57.8623 54.5341 58.2746C54.8136 58.6799 55.17 59.0188 55.6032 59.2913C56.0365 59.5568 56.4907 59.7769 56.9658 59.9516C57.441 60.1193 57.8777 60.2556 58.276 60.3604L60.4561 60.9473C61.0151 61.0941 61.637 61.2967 62.3218 61.5553C63.0136 61.8138 63.6739 62.1667 64.3028 62.6139C64.9387 63.0541 65.4627 63.6201 65.875 64.3119C66.2873 65.0036 66.4934 65.8526 66.4934 66.8589C66.4934 68.0188 66.1895 69.0669 65.5815 70.0033C64.9806 70.9396 64.1002 71.6838 62.9402 72.2358C61.7873 72.7878 60.3863 73.0639 58.7372 73.0639C57.1999 73.0639 55.8688 72.8158 54.7438 72.3197C53.6257 71.8236 52.7453 71.1318 52.1024 70.2444C51.4666 69.3569 51.1067 68.3263 51.0229 67.1523H53.7061C53.776 67.9629 54.0485 68.6337 54.5236 69.1648C55.0058 69.6888 55.6137 70.0801 56.3474 70.3387C57.0881 70.5902 57.8847 70.716 58.7372 70.716C59.7294 70.716 60.6203 70.5553 61.4099 70.2339C62.1995 69.9055 62.8249 69.4513 63.2861 68.8713C63.7473 68.2843 63.9779 67.5995 63.9779 66.8169C63.9779 66.1042 63.7787 65.5242 63.3804 65.077C62.9821 64.6298 62.4581 64.2665 61.8082 63.9869C61.1584 63.7074 60.4561 63.4629 59.7015 63.2532L57.0601 62.4986C55.3831 62.0164 54.0555 61.3282 53.0772 60.4337C52.0989 59.5393 51.6098 58.3689 51.6098 56.9225C51.6098 55.7206 51.9347 54.6725 52.5846 53.778C53.2414 52.8766 54.1219 52.1779 55.2259 51.6818C56.3369 51.1787 57.5772 50.9271 58.9468 50.9271C60.3303 50.9271 61.5602 51.1752 62.6363 51.6713C63.7124 52.1604 64.5648 52.8312 65.1937 53.6837C65.8296 54.5362 66.165 55.504 66.1999 56.5871H63.6844ZM77.1818 73.0219C75.6306 73.0219 74.2925 72.6795 73.1675 71.9947C72.0494 71.303 71.1865 70.3387 70.5786 69.1019C69.9776 67.8581 69.6772 66.4116 69.6772 64.7626C69.6772 63.1135 69.9776 61.6601 70.5786 60.4023C71.1865 59.1375 72.032 58.1523 73.1151 57.4465C74.2051 56.7338 75.4769 56.3774 76.9303 56.3774C77.7688 56.3774 78.5968 56.5172 79.4144 56.7967C80.2319 57.0762 80.9761 57.5304 81.6469 58.1593C82.3177 58.7812 82.8523 59.6057 83.2506 60.6329C83.6489 61.6601 83.848 62.9248 83.848 64.4272V65.4753H71.438V63.3371H81.3325C81.3325 62.4287 81.1508 61.6181 80.7875 60.9054C80.4311 60.1927 79.921 59.6302 79.2572 59.2179C78.6003 58.8056 77.8247 58.5995 76.9303 58.5995C75.945 58.5995 75.0925 58.8441 74.3728 59.3332C73.6601 59.8153 73.1116 60.4442 72.7272 61.2199C72.3429 61.9955 72.1508 62.827 72.1508 63.7144V65.1399C72.1508 66.3557 72.3604 67.3864 72.7797 68.2319C73.2059 69.0704 73.7963 69.7098 74.551 70.15C75.3057 70.5833 76.1826 70.7999 77.1818 70.7999C77.8317 70.7999 78.4187 70.709 78.9427 70.5274C79.4738 70.3387 79.9315 70.0592 80.3158 69.6888C80.7001 69.3115 80.9971 68.8433 81.2067 68.2843L83.5965 68.9551C83.3449 69.7657 82.9222 70.4784 82.3282 71.0933C81.7343 71.7013 81.0006 72.1764 80.1271 72.5188C79.2537 72.8542 78.2719 73.0219 77.1818 73.0219ZM94.1513 73.0219C92.6419 73.0219 91.3422 72.6656 90.2522 71.9528C89.1621 71.2401 88.3236 70.2583 87.7366 69.0075C87.1497 67.7568 86.8562 66.3278 86.8562 64.7206C86.8562 63.0855 87.1567 61.6426 87.7576 60.3918C88.3655 59.1341 89.211 58.1523 90.2941 57.4465C91.3842 56.7338 92.6559 56.3774 94.1093 56.3774C95.2413 56.3774 96.2615 56.5871 97.1699 57.0063C98.0783 57.4256 98.8225 58.0125 99.4024 58.7672C99.9824 59.5219 100.342 60.4023 100.482 61.4085H98.0084C97.8198 60.6748 97.4005 60.025 96.7507 59.459C96.1078 58.886 95.2413 58.5995 94.1513 58.5995C93.187 58.5995 92.3415 58.8511 91.6148 59.3542C90.895 59.8503 90.3325 60.5525 89.9272 61.4609C89.529 62.3623 89.3298 63.421 89.3298 64.6368C89.3298 65.8806 89.5255 66.9637 89.9168 67.886C90.3151 68.8084 90.8741 69.5246 91.5938 70.0347C92.3205 70.5448 93.173 70.7999 94.1513 70.7999C94.7941 70.7999 95.3776 70.6881 95.9017 70.4645C96.4257 70.2409 96.8694 69.9194 97.2328 69.5002C97.5962 69.0809 97.8547 68.5778 98.0084 67.9908H100.482C100.342 68.9412 99.9964 69.7971 99.4444 70.5588C98.8993 71.3135 98.1761 71.9144 97.2747 72.3616C96.3803 72.8018 95.3392 73.0219 94.1513 73.0219ZM110.639 73.0219C109.185 73.0219 107.91 72.676 106.813 71.9843C105.723 71.2925 104.87 70.3247 104.255 69.0809C103.647 67.8371 103.343 66.3837 103.343 64.7206C103.343 63.0436 103.647 61.5797 104.255 60.3289C104.87 59.0782 105.723 58.1069 106.813 57.4151C107.91 56.7233 109.185 56.3774 110.639 56.3774C112.092 56.3774 113.364 56.7233 114.454 57.4151C115.551 58.1069 116.403 59.0782 117.011 60.3289C117.626 61.5797 117.934 63.0436 117.934 64.7206C117.934 66.3837 117.626 67.8371 117.011 69.0809C116.403 70.3247 115.551 71.2925 114.454 71.9843C113.364 72.676 112.092 73.0219 110.639 73.0219ZM110.639 70.7999C111.743 70.7999 112.651 70.5169 113.364 69.9509C114.076 69.3849 114.604 68.6407 114.946 67.7183C115.289 66.796 115.46 65.7967 115.46 64.7206C115.46 63.6446 115.289 62.6418 114.946 61.7125C114.604 60.7831 114.076 60.032 113.364 59.459C112.651 58.886 111.743 58.5995 110.639 58.5995C109.534 58.5995 108.626 58.886 107.913 59.459C107.201 60.032 106.673 60.7831 106.331 61.7125C105.988 62.6418 105.817 63.6446 105.817 64.7206C105.817 65.7967 105.988 66.796 106.331 67.7183C106.673 68.6407 107.201 69.3849 107.913 69.9509C108.626 70.5169 109.534 70.7999 110.639 70.7999ZM124.183 63.0017V72.6865H121.71V56.5871H124.099V59.1026H124.309C124.686 58.2851 125.259 57.6282 126.028 57.1321C126.797 56.629 127.789 56.3774 129.005 56.3774C130.095 56.3774 131.048 56.601 131.866 57.0483C132.684 57.4885 133.319 58.1593 133.774 59.0607C134.228 59.9551 134.455 61.0871 134.455 62.4567V72.6865H131.981V62.6244C131.981 61.3596 131.653 60.3744 130.996 59.6686C130.339 58.9559 129.438 58.5995 128.292 58.5995C127.502 58.5995 126.797 58.7707 126.175 59.1131C125.56 59.4555 125.074 59.9551 124.718 60.6119C124.361 61.2688 124.183 62.0654 124.183 63.0017ZM145.054 73.0219C143.713 73.0219 142.528 72.683 141.501 72.0052C140.474 71.3204 139.67 70.3562 139.09 69.1124C138.51 67.8616 138.22 66.3837 138.22 64.6787C138.22 62.9877 138.51 61.5203 139.09 60.2765C139.67 59.0327 140.477 58.0719 141.512 57.3941C142.546 56.7163 143.741 56.3774 145.096 56.3774C146.144 56.3774 146.972 56.5521 147.58 56.9015C148.195 57.2439 148.663 57.6352 148.985 58.0754C149.313 58.5087 149.568 58.865 149.75 59.1445H149.96V51.2206H152.433V72.6865H150.043V70.2129H149.75C149.568 70.5064 149.31 70.8767 148.974 71.3239C148.639 71.7642 148.16 72.159 147.538 72.5083C146.916 72.8507 146.088 73.0219 145.054 73.0219ZM145.39 70.7999C146.382 70.7999 147.22 70.5413 147.905 70.0242C148.59 69.5002 149.111 68.777 149.467 67.8546C149.823 66.9252 150.001 65.8526 150.001 64.6368C150.001 63.4349 149.827 62.3833 149.477 61.4819C149.128 60.5735 148.611 59.8678 147.926 59.3646C147.241 58.8545 146.396 58.5995 145.39 58.5995C144.342 58.5995 143.468 58.8685 142.769 59.4066C142.078 59.9376 141.557 60.6608 141.208 61.5762C140.865 62.4846 140.694 63.5048 140.694 64.6368C140.694 65.7828 140.869 66.8239 141.218 67.7603C141.574 68.6896 142.098 69.4303 142.79 69.9823C143.489 70.5274 144.355 70.7999 145.39 70.7999ZM165.944 72.6865V51.2206H173.197C174.874 51.2206 176.25 51.5071 177.327 52.0801C178.403 52.6461 179.199 53.4252 179.716 54.4174C180.233 55.4097 180.492 56.5382 180.492 57.8029C180.492 59.0677 180.233 60.1892 179.716 61.1674C179.199 62.1457 178.406 62.9143 177.337 63.4734C176.268 64.0254 174.902 64.3014 173.239 64.3014H167.369V61.9536H173.155C174.301 61.9536 175.223 61.7859 175.922 61.4504C176.628 61.115 177.138 60.6399 177.452 60.025C177.774 59.4031 177.934 58.6624 177.934 57.8029C177.934 56.9434 177.774 56.1923 177.452 55.5494C177.131 54.9065 176.617 54.4104 175.912 54.061C175.206 53.7047 174.273 53.5265 173.113 53.5265H168.543V72.6865H165.944ZM176.048 63.0436L181.33 72.6865H178.312L173.113 63.0436H176.048ZM194.634 66.1042V56.5871H197.108V72.6865H194.634V69.9614H194.466C194.089 70.7789 193.502 71.4742 192.705 72.0472C191.909 72.6132 190.903 72.8962 189.687 72.8962C188.681 72.8962 187.786 72.676 187.003 72.2358C186.221 71.7886 185.606 71.1178 185.159 70.2234C184.712 69.322 184.488 68.1865 184.488 66.8169V56.5871H186.962V66.6492C186.962 67.8231 187.29 68.7595 187.947 69.4582C188.611 70.157 189.456 70.5064 190.483 70.5064C191.098 70.5064 191.724 70.3492 192.359 70.0347C193.002 69.7203 193.54 69.2381 193.974 68.5883C194.414 67.9384 194.634 67.1104 194.634 66.1042ZM204.112 63.0017V72.6865H201.638V56.5871H204.028V59.1026H204.238C204.615 58.2851 205.188 57.6282 205.957 57.1321C206.725 56.629 207.717 56.3774 208.933 56.3774C210.023 56.3774 210.977 56.601 211.795 57.0483C212.612 57.4885 213.248 58.1593 213.702 59.0607C214.156 59.9551 214.384 61.0871 214.384 62.4567V72.6865H211.91V62.6244C211.91 61.3596 211.582 60.3744 210.925 59.6686C210.268 58.9559 209.366 58.5995 208.221 58.5995C207.431 58.5995 206.725 58.7707 206.103 59.1131C205.488 59.4555 205.003 59.9551 204.646 60.6119C204.29 61.2688 204.112 62.0654 204.112 63.0017ZM221.377 63.0017V72.6865H218.904V56.5871H221.293V59.1026H221.503C221.88 58.2851 222.453 57.6282 223.222 57.1321C223.991 56.629 224.983 56.3774 226.199 56.3774C227.289 56.3774 228.243 56.601 229.06 57.0483C229.878 57.4885 230.514 58.1593 230.968 59.0607C231.422 59.9551 231.649 61.0871 231.649 62.4567V72.6865H229.175V62.6244C229.175 61.3596 228.847 60.3744 228.19 59.6686C227.533 58.9559 226.632 58.5995 225.486 58.5995C224.696 58.5995 223.991 58.7707 223.369 59.1131C222.754 59.4555 222.268 59.9551 221.912 60.6119C221.555 61.2688 221.377 62.0654 221.377 63.0017ZM242.919 73.0219C241.368 73.0219 240.03 72.6795 238.905 71.9947C237.787 71.303 236.924 70.3387 236.316 69.1019C235.715 67.8581 235.415 66.4116 235.415 64.7626C235.415 63.1135 235.715 61.6601 236.316 60.4023C236.924 59.1375 237.769 58.1523 238.852 57.4465C239.943 56.7338 241.214 56.3774 242.668 56.3774C243.506 56.3774 244.334 56.5172 245.152 56.7967C245.969 57.0762 246.714 57.5304 247.384 58.1593C248.055 58.7812 248.59 59.6057 248.988 60.6329C249.386 61.6601 249.585 62.9248 249.585 64.4272V65.4753H237.175V63.3371H247.07C247.07 62.4287 246.888 61.6181 246.525 60.9054C246.168 60.1927 245.658 59.6302 244.995 59.2179C244.338 58.8056 243.562 58.5995 242.668 58.5995C241.682 58.5995 240.83 58.8441 240.11 59.3332C239.397 59.8153 238.849 60.4442 238.465 61.2199C238.08 61.9955 237.888 62.827 237.888 63.7144V65.1399C237.888 66.3557 238.098 67.3864 238.517 68.2319C238.943 69.0704 239.534 69.7098 240.288 70.15C241.043 70.5833 241.92 70.7999 242.919 70.7999C243.569 70.7999 244.156 70.709 244.68 70.5274C245.211 70.3387 245.669 70.0592 246.053 69.6888C246.437 69.3115 246.734 68.8433 246.944 68.2843L249.334 68.9551C249.082 69.7657 248.66 70.4784 248.066 71.0933C247.472 71.7013 246.738 72.1764 245.865 72.5188C244.991 72.8542 244.009 73.0219 242.919 73.0219ZM253.348 72.6865V56.5871H255.738V59.0188H255.906C256.199 58.2222 256.73 57.5758 257.499 57.0797C258.268 56.5836 259.134 56.3355 260.098 56.3355C260.28 56.3355 260.507 56.339 260.78 56.346C261.052 56.353 261.258 56.3635 261.398 56.3774V58.893C261.314 58.872 261.122 58.8406 260.821 58.7986C260.528 58.7497 260.217 58.7253 259.889 58.7253C259.106 58.7253 258.407 58.8895 257.792 59.2179C257.184 59.5393 256.702 59.9865 256.346 60.5595C255.997 61.1255 255.822 61.7719 255.822 62.4986V72.6865H253.348ZM287.054 51.2206H289.653V65.4334C289.653 66.9008 289.307 68.211 288.616 69.3639C287.931 70.5099 286.963 71.4148 285.712 72.0786C284.461 72.7354 282.994 73.0639 281.31 73.0639C279.626 73.0639 278.159 72.7354 276.908 72.0786C275.657 71.4148 274.686 70.5099 273.994 69.3639C273.309 68.211 272.967 66.9008 272.967 65.4334V51.2206H275.566V65.2238C275.566 66.2719 275.797 67.2047 276.258 68.0223C276.719 68.8329 277.376 69.4722 278.229 69.9404C279.088 70.4016 280.115 70.6322 281.31 70.6322C282.505 70.6322 283.532 70.4016 284.392 69.9404C285.251 69.4722 285.908 68.8329 286.362 68.0223C286.823 67.2047 287.054 66.2719 287.054 65.2238V51.2206ZM294.509 78.7238V56.5871H296.899V59.1445H297.192C297.374 58.865 297.625 58.5087 297.947 58.0754C298.275 57.6352 298.743 57.2439 299.351 56.9015C299.966 56.5521 300.798 56.3774 301.846 56.3774C303.201 56.3774 304.396 56.7163 305.43 57.3941C306.465 58.0719 307.272 59.0327 307.852 60.2765C308.432 61.5203 308.722 62.9877 308.722 64.6787C308.722 66.3837 308.432 67.8616 307.852 69.1124C307.272 70.3562 306.468 71.3204 305.441 72.0052C304.414 72.683 303.229 73.0219 301.888 73.0219C300.854 73.0219 300.025 72.8507 299.404 72.5083C298.782 72.159 298.303 71.7642 297.968 71.3239C297.632 70.8767 297.374 70.5064 297.192 70.2129H296.982V78.7238H294.509ZM296.94 64.6368C296.94 65.8526 297.119 66.9252 297.475 67.8546C297.831 68.777 298.352 69.5002 299.037 70.0242C299.722 70.5413 300.56 70.7999 301.552 70.7999C302.586 70.7999 303.449 70.5274 304.141 69.9823C304.84 69.4303 305.364 68.6896 305.713 67.7603C306.07 66.8239 306.248 65.7828 306.248 64.6368C306.248 63.5048 306.073 62.4846 305.724 61.5762C305.381 60.6608 304.861 59.9376 304.162 59.4066C303.47 58.8685 302.6 58.5995 301.552 58.5995C300.546 58.5995 299.701 58.8545 299.016 59.3646C298.331 59.8678 297.814 60.5735 297.465 61.4819C297.115 62.3833 296.94 63.4349 296.94 64.6368Z" fill="url(#paint2_linear_126_215)"/>
<path d="M57.2712 143.514V107.714H60.5912V143.514H57.2712ZM58.9912 140.194C56.8045 140.194 54.9512 139.807 53.4312 139.034C51.9112 138.261 50.7378 137.127 49.9112 135.634C49.1112 134.141 48.6312 132.287 48.4712 130.074L54.6312 129.794C54.7912 130.941 55.0578 131.901 55.4312 132.674C55.8045 133.421 56.2978 133.981 56.9112 134.354C57.5245 134.727 58.2978 134.914 59.2312 134.914C60.1645 134.914 60.9378 134.821 61.5512 134.634C62.1645 134.421 62.6178 134.114 62.9112 133.714C63.2045 133.287 63.3512 132.781 63.3512 132.194C63.3512 131.474 63.1778 130.874 62.8312 130.394C62.5112 129.887 61.9112 129.434 61.0312 129.034C60.1778 128.634 58.9512 128.261 57.3512 127.914C55.6445 127.541 54.1778 127.021 52.9512 126.354C51.7245 125.661 50.7778 124.767 50.1112 123.674C49.4445 122.581 49.1112 121.234 49.1112 119.634C49.1112 117.954 49.4845 116.487 50.2312 115.234C50.9778 113.981 52.0712 113.007 53.5112 112.314C54.9778 111.621 56.7645 111.274 58.8712 111.274C60.9245 111.274 62.6712 111.634 64.1112 112.354C65.5778 113.074 66.7112 114.127 67.5112 115.514C68.3378 116.901 68.8178 118.594 68.9512 120.594L62.7912 120.874C62.6578 119.941 62.4445 119.154 62.1512 118.514C61.8845 117.874 61.4578 117.394 60.8712 117.074C60.3112 116.727 59.5512 116.554 58.5912 116.554C57.3378 116.554 56.3912 116.807 55.7512 117.314C55.1378 117.794 54.8312 118.474 54.8312 119.354C54.8312 120.021 54.9778 120.567 55.2712 120.994C55.5645 121.421 56.1112 121.807 56.9112 122.154C57.7378 122.474 58.8978 122.821 60.3912 123.194C62.6312 123.754 64.3912 124.434 65.6712 125.234C66.9512 126.007 67.8578 126.941 68.3912 128.034C68.9245 129.127 69.1912 130.407 69.1912 131.874C69.1912 133.661 68.7912 135.167 67.9912 136.394C67.1912 137.621 66.0312 138.567 64.5112 139.234C62.9912 139.874 61.1512 140.194 58.9912 140.194ZM72.4956 139.874C72.4956 137.474 72.7889 135.381 73.3756 133.594C73.9889 131.807 75.0289 130.194 76.4956 128.754C77.9622 127.314 79.9756 125.941 82.5356 124.634C83.3889 124.181 84.1089 123.741 84.6956 123.314C85.2822 122.887 85.7356 122.394 86.0556 121.834C86.3756 121.274 86.5356 120.567 86.5356 119.714C86.5356 119.047 86.4022 118.474 86.1356 117.994C85.8956 117.487 85.5356 117.101 85.0556 116.834C84.5756 116.567 83.9756 116.434 83.2556 116.434C82.0022 116.434 81.0822 116.807 80.4956 117.554C79.9089 118.274 79.4956 119.327 79.2556 120.714L72.5756 120.354C72.8689 117.394 73.9089 115.074 75.6956 113.394C77.5089 111.687 80.0822 110.834 83.4156 110.834C85.5756 110.834 87.3756 111.194 88.8156 111.914C90.2556 112.607 91.3356 113.594 92.0556 114.874C92.7756 116.127 93.1356 117.607 93.1356 119.314C93.1356 120.861 92.8956 122.194 92.4156 123.314C91.9356 124.407 91.1489 125.421 90.0556 126.354C88.9889 127.261 87.5356 128.221 85.6956 129.234C84.2022 130.034 83.0289 130.741 82.1756 131.354C81.3489 131.941 80.7489 132.461 80.3756 132.914C80.0289 133.341 79.8289 133.754 79.7756 134.154H93.1356V139.874H72.4956ZM100.16 135.074L110.24 115.914L113.44 116.274L103.36 135.434L100.16 135.074ZM106.8 140.514C104.64 140.514 102.787 139.927 101.24 138.754C99.7199 137.554 98.5466 135.847 97.7199 133.634C96.8933 131.421 96.4799 128.781 96.4799 125.714C96.4799 122.647 96.8933 120.007 97.7199 117.794C98.5466 115.554 99.7199 113.834 101.24 112.634C102.787 111.434 104.64 110.834 106.8 110.834C108.96 110.834 110.8 111.434 112.32 112.634C113.867 113.834 115.053 115.554 115.88 117.794C116.707 120.007 117.12 122.647 117.12 125.714C117.12 128.781 116.707 131.421 115.88 133.634C115.053 135.847 113.867 137.554 112.32 138.754C110.8 139.927 108.96 140.514 106.8 140.514ZM106.8 134.914C107.6 134.914 108.267 134.594 108.8 133.954C109.36 133.314 109.787 132.314 110.08 130.954C110.373 129.567 110.52 127.821 110.52 125.714C110.52 123.581 110.373 121.834 110.08 120.474C109.787 119.087 109.36 118.074 108.8 117.434C108.267 116.767 107.6 116.434 106.8 116.434C106.027 116.434 105.36 116.767 104.8 117.434C104.24 118.074 103.813 119.087 103.52 120.474C103.227 121.834 103.08 123.581 103.08 125.714C103.08 127.821 103.227 129.567 103.52 130.954C103.813 132.314 104.24 133.314 104.8 133.954C105.36 134.594 106.027 134.914 106.8 134.914ZM124.144 135.074L134.224 115.914L137.424 116.274L127.344 135.434L124.144 135.074ZM130.784 140.514C128.624 140.514 126.771 139.927 125.224 138.754C123.704 137.554 122.531 135.847 121.704 133.634C120.878 131.421 120.464 128.781 120.464 125.714C120.464 122.647 120.878 120.007 121.704 117.794C122.531 115.554 123.704 113.834 125.224 112.634C126.771 111.434 128.624 110.834 130.784 110.834C132.944 110.834 134.784 111.434 136.304 112.634C137.851 113.834 139.038 115.554 139.864 117.794C140.691 120.007 141.104 122.647 141.104 125.714C141.104 128.781 140.691 131.421 139.864 133.634C139.038 135.847 137.851 137.554 136.304 138.754C134.784 139.927 132.944 140.514 130.784 140.514ZM130.784 134.914C131.584 134.914 132.251 134.594 132.784 133.954C133.344 133.314 133.771 132.314 134.064 130.954C134.358 129.567 134.504 127.821 134.504 125.714C134.504 123.581 134.358 121.834 134.064 120.474C133.771 119.087 133.344 118.074 132.784 117.434C132.251 116.767 131.584 116.434 130.784 116.434C130.011 116.434 129.344 116.767 128.784 117.434C128.224 118.074 127.798 119.087 127.504 120.474C127.211 121.834 127.064 123.581 127.064 125.714C127.064 127.821 127.211 129.567 127.504 130.954C127.798 132.314 128.224 133.314 128.784 133.954C129.344 134.594 130.011 134.914 130.784 134.914ZM148.129 135.074L158.209 115.914L161.409 116.274L151.329 135.434L148.129 135.074ZM154.769 140.514C152.609 140.514 150.755 139.927 149.209 138.754C147.689 137.554 146.515 135.847 145.689 133.634C144.862 131.421 144.449 128.781 144.449 125.714C144.449 122.647 144.862 120.007 145.689 117.794C146.515 115.554 147.689 113.834 149.209 112.634C150.755 111.434 152.609 110.834 154.769 110.834C156.929 110.834 158.769 111.434 160.289 112.634C161.835 113.834 163.022 115.554 163.849 117.794C164.675 120.007 165.089 122.647 165.089 125.714C165.089 128.781 164.675 131.421 163.849 133.634C163.022 135.847 161.835 137.554 160.289 138.754C158.769 139.927 156.929 140.514 154.769 140.514ZM154.769 134.914C155.569 134.914 156.235 134.594 156.769 133.954C157.329 133.314 157.755 132.314 158.049 130.954C158.342 129.567 158.489 127.821 158.489 125.714C158.489 123.581 158.342 121.834 158.049 120.474C157.755 119.087 157.329 118.074 156.769 117.434C156.235 116.767 155.569 116.434 154.769 116.434C153.995 116.434 153.329 116.767 152.769 117.434C152.209 118.074 151.782 119.087 151.489 120.474C151.195 121.834 151.049 123.581 151.049 125.714C151.049 127.821 151.195 129.567 151.489 130.954C151.782 132.314 152.209 133.314 152.769 133.954C153.329 134.594 153.995 134.914 154.769 134.914Z" fill="#1C1C1C"/>
<path d="M57.2712 143.514V107.714H60.5912V143.514H57.2712ZM58.9912 140.194C56.8045 140.194 54.9512 139.807 53.4312 139.034C51.9112 138.261 50.7378 137.127 49.9112 135.634C49.1112 134.141 48.6312 132.287 48.4712 130.074L54.6312 129.794C54.7912 130.941 55.0578 131.901 55.4312 132.674C55.8045 133.421 56.2978 133.981 56.9112 134.354C57.5245 134.727 58.2978 134.914 59.2312 134.914C60.1645 134.914 60.9378 134.821 61.5512 134.634C62.1645 134.421 62.6178 134.114 62.9112 133.714C63.2045 133.287 63.3512 132.781 63.3512 132.194C63.3512 131.474 63.1778 130.874 62.8312 130.394C62.5112 129.887 61.9112 129.434 61.0312 129.034C60.1778 128.634 58.9512 128.261 57.3512 127.914C55.6445 127.541 54.1778 127.021 52.9512 126.354C51.7245 125.661 50.7778 124.767 50.1112 123.674C49.4445 122.581 49.1112 121.234 49.1112 119.634C49.1112 117.954 49.4845 116.487 50.2312 115.234C50.9778 113.981 52.0712 113.007 53.5112 112.314C54.9778 111.621 56.7645 111.274 58.8712 111.274C60.9245 111.274 62.6712 111.634 64.1112 112.354C65.5778 113.074 66.7112 114.127 67.5112 115.514C68.3378 116.901 68.8178 118.594 68.9512 120.594L62.7912 120.874C62.6578 119.941 62.4445 119.154 62.1512 118.514C61.8845 117.874 61.4578 117.394 60.8712 117.074C60.3112 116.727 59.5512 116.554 58.5912 116.554C57.3378 116.554 56.3912 116.807 55.7512 117.314C55.1378 117.794 54.8312 118.474 54.8312 119.354C54.8312 120.021 54.9778 120.567 55.2712 120.994C55.5645 121.421 56.1112 121.807 56.9112 122.154C57.7378 122.474 58.8978 122.821 60.3912 123.194C62.6312 123.754 64.3912 124.434 65.6712 125.234C66.9512 126.007 67.8578 126.941 68.3912 128.034C68.9245 129.127 69.1912 130.407 69.1912 131.874C69.1912 133.661 68.7912 135.167 67.9912 136.394C67.1912 137.621 66.0312 138.567 64.5112 139.234C62.9912 139.874 61.1512 140.194 58.9912 140.194ZM72.4956 139.874C72.4956 137.474 72.7889 135.381 73.3756 133.594C73.9889 131.807 75.0289 130.194 76.4956 128.754C77.9622 127.314 79.9756 125.941 82.5356 124.634C83.3889 124.181 84.1089 123.741 84.6956 123.314C85.2822 122.887 85.7356 122.394 86.0556 121.834C86.3756 121.274 86.5356 120.567 86.5356 119.714C86.5356 119.047 86.4022 118.474 86.1356 117.994C85.8956 117.487 85.5356 117.101 85.0556 116.834C84.5756 116.567 83.9756 116.434 83.2556 116.434C82.0022 116.434 81.0822 116.807 80.4956 117.554C79.9089 118.274 79.4956 119.327 79.2556 120.714L72.5756 120.354C72.8689 117.394 73.9089 115.074 75.6956 113.394C77.5089 111.687 80.0822 110.834 83.4156 110.834C85.5756 110.834 87.3756 111.194 88.8156 111.914C90.2556 112.607 91.3356 113.594 92.0556 114.874C92.7756 116.127 93.1356 117.607 93.1356 119.314C93.1356 120.861 92.8956 122.194 92.4156 123.314C91.9356 124.407 91.1489 125.421 90.0556 126.354C88.9889 127.261 87.5356 128.221 85.6956 129.234C84.2022 130.034 83.0289 130.741 82.1756 131.354C81.3489 131.941 80.7489 132.461 80.3756 132.914C80.0289 133.341 79.8289 133.754 79.7756 134.154H93.1356V139.874H72.4956ZM100.16 135.074L110.24 115.914L113.44 116.274L103.36 135.434L100.16 135.074ZM106.8 140.514C104.64 140.514 102.787 139.927 101.24 138.754C99.7199 137.554 98.5466 135.847 97.7199 133.634C96.8933 131.421 96.4799 128.781 96.4799 125.714C96.4799 122.647 96.8933 120.007 97.7199 117.794C98.5466 115.554 99.7199 113.834 101.24 112.634C102.787 111.434 104.64 110.834 106.8 110.834C108.96 110.834 110.8 111.434 112.32 112.634C113.867 113.834 115.053 115.554 115.88 117.794C116.707 120.007 117.12 122.647 117.12 125.714C117.12 128.781 116.707 131.421 115.88 133.634C115.053 135.847 113.867 137.554 112.32 138.754C110.8 139.927 108.96 140.514 106.8 140.514ZM106.8 134.914C107.6 134.914 108.267 134.594 108.8 133.954C109.36 133.314 109.787 132.314 110.08 130.954C110.373 129.567 110.52 127.821 110.52 125.714C110.52 123.581 110.373 121.834 110.08 120.474C109.787 119.087 109.36 118.074 108.8 117.434C108.267 116.767 107.6 116.434 106.8 116.434C106.027 116.434 105.36 116.767 104.8 117.434C104.24 118.074 103.813 119.087 103.52 120.474C103.227 121.834 103.08 123.581 103.08 125.714C103.08 127.821 103.227 129.567 103.52 130.954C103.813 132.314 104.24 133.314 104.8 133.954C105.36 134.594 106.027 134.914 106.8 134.914ZM124.144 135.074L134.224 115.914L137.424 116.274L127.344 135.434L124.144 135.074ZM130.784 140.514C128.624 140.514 126.771 139.927 125.224 138.754C123.704 137.554 122.531 135.847 121.704 133.634C120.878 131.421 120.464 128.781 120.464 125.714C120.464 122.647 120.878 120.007 121.704 117.794C122.531 115.554 123.704 113.834 125.224 112.634C126.771 111.434 128.624 110.834 130.784 110.834C132.944 110.834 134.784 111.434 136.304 112.634C137.851 113.834 139.038 115.554 139.864 117.794C140.691 120.007 141.104 122.647 141.104 125.714C141.104 128.781 140.691 131.421 139.864 133.634C139.038 135.847 137.851 137.554 136.304 138.754C134.784 139.927 132.944 140.514 130.784 140.514ZM130.784 134.914C131.584 134.914 132.251 134.594 132.784 133.954C133.344 133.314 133.771 132.314 134.064 130.954C134.358 129.567 134.504 127.821 134.504 125.714C134.504 123.581 134.358 121.834 134.064 120.474C133.771 119.087 133.344 118.074 132.784 117.434C132.251 116.767 131.584 116.434 130.784 116.434C130.011 116.434 129.344 116.767 128.784 117.434C128.224 118.074 127.798 119.087 127.504 120.474C127.211 121.834 127.064 123.581 127.064 125.714C127.064 127.821 127.211 129.567 127.504 130.954C127.798 132.314 128.224 133.314 128.784 133.954C129.344 134.594 130.011 134.914 130.784 134.914ZM148.129 135.074L158.209 115.914L161.409 116.274L151.329 135.434L148.129 135.074ZM154.769 140.514C152.609 140.514 150.755 139.927 149.209 138.754C147.689 137.554 146.515 135.847 145.689 133.634C144.862 131.421 144.449 128.781 144.449 125.714C144.449 122.647 144.862 120.007 145.689 117.794C146.515 115.554 147.689 113.834 149.209 112.634C150.755 111.434 152.609 110.834 154.769 110.834C156.929 110.834 158.769 111.434 160.289 112.634C161.835 113.834 163.022 115.554 163.849 117.794C164.675 120.007 165.089 122.647 165.089 125.714C165.089 128.781 164.675 131.421 163.849 133.634C163.022 135.847 161.835 137.554 160.289 138.754C158.769 139.927 156.929 140.514 154.769 140.514ZM154.769 134.914C155.569 134.914 156.235 134.594 156.769 133.954C157.329 133.314 157.755 132.314 158.049 130.954C158.342 129.567 158.489 127.821 158.489 125.714C158.489 123.581 158.342 121.834 158.049 120.474C157.755 119.087 157.329 118.074 156.769 117.434C156.235 116.767 155.569 116.434 154.769 116.434C153.995 116.434 153.329 116.767 152.769 117.434C152.209 118.074 151.782 119.087 151.489 120.474C151.195 121.834 151.049 123.581 151.049 125.714C151.049 127.821 151.195 129.567 151.489 130.954C151.782 132.314 152.209 133.314 152.769 133.954C153.329 134.594 153.995 134.914 154.769 134.914Z" fill="url(#paint3_linear_126_215)"/>
<path d="M57.2712 143.514V107.714H60.5912V143.514H57.2712ZM58.9912 140.194C56.8045 140.194 54.9512 139.807 53.4312 139.034C51.9112 138.261 50.7378 137.127 49.9112 135.634C49.1112 134.141 48.6312 132.287 48.4712 130.074L54.6312 129.794C54.7912 130.941 55.0578 131.901 55.4312 132.674C55.8045 133.421 56.2978 133.981 56.9112 134.354C57.5245 134.727 58.2978 134.914 59.2312 134.914C60.1645 134.914 60.9378 134.821 61.5512 134.634C62.1645 134.421 62.6178 134.114 62.9112 133.714C63.2045 133.287 63.3512 132.781 63.3512 132.194C63.3512 131.474 63.1778 130.874 62.8312 130.394C62.5112 129.887 61.9112 129.434 61.0312 129.034C60.1778 128.634 58.9512 128.261 57.3512 127.914C55.6445 127.541 54.1778 127.021 52.9512 126.354C51.7245 125.661 50.7778 124.767 50.1112 123.674C49.4445 122.581 49.1112 121.234 49.1112 119.634C49.1112 117.954 49.4845 116.487 50.2312 115.234C50.9778 113.981 52.0712 113.007 53.5112 112.314C54.9778 111.621 56.7645 111.274 58.8712 111.274C60.9245 111.274 62.6712 111.634 64.1112 112.354C65.5778 113.074 66.7112 114.127 67.5112 115.514C68.3378 116.901 68.8178 118.594 68.9512 120.594L62.7912 120.874C62.6578 119.941 62.4445 119.154 62.1512 118.514C61.8845 117.874 61.4578 117.394 60.8712 117.074C60.3112 116.727 59.5512 116.554 58.5912 116.554C57.3378 116.554 56.3912 116.807 55.7512 117.314C55.1378 117.794 54.8312 118.474 54.8312 119.354C54.8312 120.021 54.9778 120.567 55.2712 120.994C55.5645 121.421 56.1112 121.807 56.9112 122.154C57.7378 122.474 58.8978 122.821 60.3912 123.194C62.6312 123.754 64.3912 124.434 65.6712 125.234C66.9512 126.007 67.8578 126.941 68.3912 128.034C68.9245 129.127 69.1912 130.407 69.1912 131.874C69.1912 133.661 68.7912 135.167 67.9912 136.394C67.1912 137.621 66.0312 138.567 64.5112 139.234C62.9912 139.874 61.1512 140.194 58.9912 140.194ZM72.4956 139.874C72.4956 137.474 72.7889 135.381 73.3756 133.594C73.9889 131.807 75.0289 130.194 76.4956 128.754C77.9622 127.314 79.9756 125.941 82.5356 124.634C83.3889 124.181 84.1089 123.741 84.6956 123.314C85.2822 122.887 85.7356 122.394 86.0556 121.834C86.3756 121.274 86.5356 120.567 86.5356 119.714C86.5356 119.047 86.4022 118.474 86.1356 117.994C85.8956 117.487 85.5356 117.101 85.0556 116.834C84.5756 116.567 83.9756 116.434 83.2556 116.434C82.0022 116.434 81.0822 116.807 80.4956 117.554C79.9089 118.274 79.4956 119.327 79.2556 120.714L72.5756 120.354C72.8689 117.394 73.9089 115.074 75.6956 113.394C77.5089 111.687 80.0822 110.834 83.4156 110.834C85.5756 110.834 87.3756 111.194 88.8156 111.914C90.2556 112.607 91.3356 113.594 92.0556 114.874C92.7756 116.127 93.1356 117.607 93.1356 119.314C93.1356 120.861 92.8956 122.194 92.4156 123.314C91.9356 124.407 91.1489 125.421 90.0556 126.354C88.9889 127.261 87.5356 128.221 85.6956 129.234C84.2022 130.034 83.0289 130.741 82.1756 131.354C81.3489 131.941 80.7489 132.461 80.3756 132.914C80.0289 133.341 79.8289 133.754 79.7756 134.154H93.1356V139.874H72.4956ZM100.16 135.074L110.24 115.914L113.44 116.274L103.36 135.434L100.16 135.074ZM106.8 140.514C104.64 140.514 102.787 139.927 101.24 138.754C99.7199 137.554 98.5466 135.847 97.7199 133.634C96.8933 131.421 96.4799 128.781 96.4799 125.714C96.4799 122.647 96.8933 120.007 97.7199 117.794C98.5466 115.554 99.7199 113.834 101.24 112.634C102.787 111.434 104.64 110.834 106.8 110.834C108.96 110.834 110.8 111.434 112.32 112.634C113.867 113.834 115.053 115.554 115.88 117.794C116.707 120.007 117.12 122.647 117.12 125.714C117.12 128.781 116.707 131.421 115.88 133.634C115.053 135.847 113.867 137.554 112.32 138.754C110.8 139.927 108.96 140.514 106.8 140.514ZM106.8 134.914C107.6 134.914 108.267 134.594 108.8 133.954C109.36 133.314 109.787 132.314 110.08 130.954C110.373 129.567 110.52 127.821 110.52 125.714C110.52 123.581 110.373 121.834 110.08 120.474C109.787 119.087 109.36 118.074 108.8 117.434C108.267 116.767 107.6 116.434 106.8 116.434C106.027 116.434 105.36 116.767 104.8 117.434C104.24 118.074 103.813 119.087 103.52 120.474C103.227 121.834 103.08 123.581 103.08 125.714C103.08 127.821 103.227 129.567 103.52 130.954C103.813 132.314 104.24 133.314 104.8 133.954C105.36 134.594 106.027 134.914 106.8 134.914ZM124.144 135.074L134.224 115.914L137.424 116.274L127.344 135.434L124.144 135.074ZM130.784 140.514C128.624 140.514 126.771 139.927 125.224 138.754C123.704 137.554 122.531 135.847 121.704 133.634C120.878 131.421 120.464 128.781 120.464 125.714C120.464 122.647 120.878 120.007 121.704 117.794C122.531 115.554 123.704 113.834 125.224 112.634C126.771 111.434 128.624 110.834 130.784 110.834C132.944 110.834 134.784 111.434 136.304 112.634C137.851 113.834 139.038 115.554 139.864 117.794C140.691 120.007 141.104 122.647 141.104 125.714C141.104 128.781 140.691 131.421 139.864 133.634C139.038 135.847 137.851 137.554 136.304 138.754C134.784 139.927 132.944 140.514 130.784 140.514ZM130.784 134.914C131.584 134.914 132.251 134.594 132.784 133.954C133.344 133.314 133.771 132.314 134.064 130.954C134.358 129.567 134.504 127.821 134.504 125.714C134.504 123.581 134.358 121.834 134.064 120.474C133.771 119.087 133.344 118.074 132.784 117.434C132.251 116.767 131.584 116.434 130.784 116.434C130.011 116.434 129.344 116.767 128.784 117.434C128.224 118.074 127.798 119.087 127.504 120.474C127.211 121.834 127.064 123.581 127.064 125.714C127.064 127.821 127.211 129.567 127.504 130.954C127.798 132.314 128.224 133.314 128.784 133.954C129.344 134.594 130.011 134.914 130.784 134.914ZM148.129 135.074L158.209 115.914L161.409 116.274L151.329 135.434L148.129 135.074ZM154.769 140.514C152.609 140.514 150.755 139.927 149.209 138.754C147.689 137.554 146.515 135.847 145.689 133.634C144.862 131.421 144.449 128.781 144.449 125.714C144.449 122.647 144.862 120.007 145.689 117.794C146.515 115.554 147.689 113.834 149.209 112.634C150.755 111.434 152.609 110.834 154.769 110.834C156.929 110.834 158.769 111.434 160.289 112.634C161.835 113.834 163.022 115.554 163.849 117.794C164.675 120.007 165.089 122.647 165.089 125.714C165.089 128.781 164.675 131.421 163.849 133.634C163.022 135.847 161.835 137.554 160.289 138.754C158.769 139.927 156.929 140.514 154.769 140.514ZM154.769 134.914C155.569 134.914 156.235 134.594 156.769 133.954C157.329 133.314 157.755 132.314 158.049 130.954C158.342 129.567 158.489 127.821 158.489 125.714C158.489 123.581 158.342 121.834 158.049 120.474C157.755 119.087 157.329 118.074 156.769 117.434C156.235 116.767 155.569 116.434 154.769 116.434C153.995 116.434 153.329 116.767 152.769 117.434C152.209 118.074 151.782 119.087 151.489 120.474C151.195 121.834 151.049 123.581 151.049 125.714C151.049 127.821 151.195 129.567 151.489 130.954C151.782 132.314 152.209 133.314 152.769 133.954C153.329 134.594 153.995 134.914 154.769 134.914Z" fill="url(#paint4_linear_126_215)"/>
<defs>
<linearGradient id="paint0_linear_126_215" x1="1.26917" y1="97.7808" x2="364.936" y2="97.7808" gradientUnits="userSpaceOnUse">
<stop offset="0.1977" stop-color="#F2D9D7"/>
<stop offset="0.3468" stop-color="white"/>
<stop offset="0.499" stop-color="#E1C6C5"/>
<stop offset="0.6419" stop-color="#C89694"/>
<stop offset="0.7125" stop-color="#BE8481"/>
<stop offset="0.8023" stop-color="#C08885"/>
<stop offset="0.8837" stop-color="#C6938F"/>
<stop offset="0.9617" stop-color="#D0A5A1"/>
<stop offset="1" stop-color="#D6B1AD"/>
</linearGradient>
<linearGradient id="paint1_linear_126_215" x1="49.3458" y1="61.6865" x2="310.346" y2="61.6865" gradientUnits="userSpaceOnUse">
<stop stop-color="#CFA944"/>
<stop offset="0.05" stop-color="#F7EF8A"/>
<stop offset="0.0629" stop-color="#F5EB86"/>
<stop offset="0.1744" stop-color="#E4CE69"/>
<stop offset="0.2854" stop-color="#D8BA55"/>
<stop offset="0.3946" stop-color="#D1AD48"/>
<stop offset="0.5" stop-color="#CFA944"/>
<stop offset="0.6054" stop-color="#D1AD48"/>
<stop offset="0.7146" stop-color="#D8BA55"/>
<stop offset="0.8256" stop-color="#E4CE69"/>
<stop offset="0.9371" stop-color="#F5EB86"/>
<stop offset="0.95" stop-color="#F7EF8A"/>
<stop offset="1" stop-color="#CFA944"/>
</linearGradient>
<linearGradient id="paint2_linear_126_215" x1="49.3462" y1="61.6865" x2="310.347" y2="61.6865" gradientUnits="userSpaceOnUse">
<stop offset="0.1977" stop-color="#F2D9D7"/>
<stop offset="0.3468" stop-color="white"/>
<stop offset="0.499" stop-color="#E1C6C5"/>
<stop offset="0.6419" stop-color="#C89694"/>
<stop offset="0.7125" stop-color="#BE8481"/>
<stop offset="0.8023" stop-color="#C08885"/>
<stop offset="0.8837" stop-color="#C6938F"/>
<stop offset="0.9617" stop-color="#D0A5A1"/>
<stop offset="1" stop-color="#D6B1AD"/>
</linearGradient>
<linearGradient id="paint3_linear_126_215" x1="46.8312" y1="125.874" x2="166.831" y2="125.874" gradientUnits="userSpaceOnUse">
<stop stop-color="#CFA944"/>
<stop offset="0.05" stop-color="#F7EF8A"/>
<stop offset="0.0629" stop-color="#F5EB86"/>
<stop offset="0.1744" stop-color="#E4CE69"/>
<stop offset="0.2854" stop-color="#D8BA55"/>
<stop offset="0.3946" stop-color="#D1AD48"/>
<stop offset="0.5" stop-color="#CFA944"/>
<stop offset="0.6054" stop-color="#D1AD48"/>
<stop offset="0.7146" stop-color="#D8BA55"/>
<stop offset="0.8256" stop-color="#E4CE69"/>
<stop offset="0.9371" stop-color="#F5EB86"/>
<stop offset="0.95" stop-color="#F7EF8A"/>
<stop offset="1" stop-color="#CFA944"/>
</linearGradient>
<linearGradient id="paint4_linear_126_215" x1="46.8313" y1="125.874" x2="166.832" y2="125.874" gradientUnits="userSpaceOnUse">
<stop offset="0.1977" stop-color="#F2D9D7"/>
<stop offset="0.3468" stop-color="white"/>
<stop offset="0.499" stop-color="#E1C6C5"/>
<stop offset="0.6419" stop-color="#C89694"/>
<stop offset="0.7125" stop-color="#BE8481"/>
<stop offset="0.8023" stop-color="#C08885"/>
<stop offset="0.8837" stop-color="#C6938F"/>
<stop offset="0.9617" stop-color="#D0A5A1"/>
<stop offset="1" stop-color="#D6B1AD"/>
</linearGradient>
</defs>
</svg>
