<svg width="27" height="27" viewBox="0 0 27 27" fill="none" xmlns="http://www.w3.org/2000/svg">
<path d="M13.3789 26.7578C6.00198 26.7578 0 20.7564 0 13.3789C0 6.00196 6.00149 0 13.3789 0C20.7559 0 26.7574 6.00147 26.7574 13.3789C26.7579 20.7564 20.7564 26.7578 13.3789 26.7578Z" fill="#4C52D1"/>
<path d="M14.6631 12.2754L19.673 6.42383H18.5029L14.1279 11.5018L10.6141 6.42383H9.44401H7.68882H7.50014H6.51877L11.8336 14.165L6.51855 20.3334H7.76429L12.3729 14.9506L16.0685 20.3334H16.2761H17.314H18.9937H19.39H20.2393L14.6631 12.2754ZM8.34162 7.36746H10.0918L13.4614 12.2754L12.5057 13.3847L8.34162 7.36746ZM16.661 19.3898L13.0455 14.165L13.9962 13.0546L18.3459 19.39L16.661 19.3898Z" fill="white"/>
</svg>
