<svg width="27" height="27" viewBox="0 0 27 27" fill="none" xmlns="http://www.w3.org/2000/svg">
<path d="M13.3789 26.7578C6.00198 26.7578 0 20.7564 0 13.3789C0 6.00196 6.00149 0 13.3789 0C20.7559 0 26.7574 6.00147 26.7574 13.3789C26.7579 20.7564 20.7564 26.7578 13.3789 26.7578Z" fill="#4C52D1"/>
<path d="M21.3898 11.3498C21.3898 9.45229 19.8515 7.91406 17.954 7.91406H9.0427C7.14516 7.91406 5.60693 9.45229 5.60693 11.3498V15.5263C5.60693 17.4239 7.14516 18.9621 9.0427 18.9621H17.954C19.8515 18.9621 21.3898 17.4239 21.3898 15.5263V11.3498ZM15.7677 13.6484L12.2138 15.5974C12.0594 15.6812 11.9202 15.569 11.9202 15.3935V11.3925C11.9202 11.2145 12.0633 11.1028 12.2182 11.191L15.7966 13.243C15.9545 13.3332 15.9275 13.5616 15.7677 13.6484Z" fill="white"/>
</svg>
