<svg width="141" height="141" viewBox="0 0 141 141" fill="none" xmlns="http://www.w3.org/2000/svg">
<path d="M70.5 141C109.436 141 141 109.436 141 70.5C141 31.5639 109.436 0 70.5 0C31.5639 0 0 31.5639 0 70.5C0 109.436 31.5639 141 70.5 141Z" fill="#4285F4" fill-opacity="0.64"/>
<path d="M70.042 119.675C97.2945 119.675 119.387 97.5828 119.387 70.3304C119.387 43.0779 97.2945 20.9854 70.042 20.9854C42.7895 20.9854 20.697 43.0779 20.697 70.3304C20.697 97.5828 42.7895 119.675 70.042 119.675Z" fill="white"/>
<path d="M92.074 57.7227C92.6473 58.5397 92.9553 59.5135 92.956 60.5117V86.6997C92.952 88.0007 92.4334 89.2473 91.5135 90.1672C90.5935 91.0872 89.3469 91.6057 88.046 91.6097H52.037C50.736 91.6057 49.4894 91.0872 48.5694 90.1672C47.6495 89.2473 47.1309 88.0007 47.127 86.6997V60.5117C47.1276 59.5135 47.4356 58.5397 48.009 57.7227L54.615 68.1457C55.0626 68.8189 55.6699 69.371 56.3826 69.7526C57.0954 70.1341 57.8915 70.3334 58.7 70.3327H63.8C64.136 71.2875 64.7596 72.1148 65.5849 72.7008C66.4102 73.2869 67.3967 73.603 68.409 73.6057H71.682C72.6942 73.603 73.6807 73.2869 74.506 72.7008C75.3313 72.1148 75.9549 71.2875 76.291 70.3327H81.391C82.2056 70.3317 83.0073 70.1286 83.7241 69.7415C84.4409 69.3544 85.0504 68.7954 85.498 68.1147L92.077 57.7247L92.074 57.7227ZM68.405 67.0547C68.1866 67.0493 67.9695 67.0876 67.7662 67.1674C67.5629 67.2473 67.3777 67.3669 67.2214 67.5194C67.065 67.6719 66.9408 67.8542 66.856 68.0554C66.7712 68.2566 66.7275 68.4728 66.7275 68.6912C66.7275 68.9096 66.7712 69.1257 66.856 69.327C66.9408 69.5282 67.065 69.7104 67.2214 69.8629C67.3777 70.0154 67.5629 70.1351 67.7662 70.2149C67.9695 70.2947 68.1866 70.3331 68.405 70.3277H71.678C71.8963 70.3331 72.1135 70.2947 72.3167 70.2149C72.52 70.1351 72.7052 70.0154 72.8616 69.8629C73.0179 69.7104 73.1421 69.5282 73.2269 69.327C73.3117 69.1257 73.3554 68.9096 73.3554 68.6912C73.3554 68.4728 73.3117 68.2566 73.2269 68.0554C73.1421 67.8542 73.0179 67.6719 72.8616 67.5194C72.7052 67.3669 72.52 67.2473 72.3167 67.1674C72.1135 67.0876 71.8963 67.0493 71.678 67.0547H68.405ZM50.677 55.8197C51.1175 55.6821 51.5755 55.6087 52.037 55.6017H60.221V53.9647C60.2249 52.6644 60.7429 51.4184 61.662 50.4986C62.5811 49.5787 63.8267 49.0597 65.127 49.0547H74.947C76.2479 49.0586 77.4945 49.5772 78.4145 50.4972C79.3344 51.4171 79.853 52.6637 79.857 53.9647V55.6017H88.041C88.5024 55.6087 88.9604 55.6821 89.401 55.8197L82.741 66.3307C82.5916 66.5535 82.3897 66.7362 82.153 66.8625C81.9163 66.9887 81.6522 67.0548 81.384 67.0547H76.284C75.9479 66.0999 75.3243 65.2726 74.499 64.6865C73.6737 64.1005 72.6872 63.7844 71.675 63.7817H68.405C67.3927 63.7844 66.4062 64.1005 65.5809 64.6865C64.7556 65.2726 64.132 66.0999 63.796 67.0547H58.696C58.4325 67.0558 58.1728 66.9926 57.9393 66.8706C57.7058 66.7486 57.5056 66.5715 57.356 66.3547L50.677 55.8197ZM63.494 55.6017H76.588V53.9647C76.5866 53.5309 76.4137 53.1153 76.107 52.8086C75.8003 52.5019 75.3847 52.329 74.951 52.3277H65.127C64.6939 52.3301 64.2793 52.5034 63.9735 52.81C63.6676 53.1166 63.4953 53.5316 63.494 53.9647V55.6017Z" fill="#4285F4"/>
</svg>
