<svg width="141" height="141" viewBox="0 0 141 141" fill="none" xmlns="http://www.w3.org/2000/svg">
<path d="M70.502 141C109.438 141 141.002 109.436 141.002 70.5C141.002 31.5639 109.438 0 70.502 0C31.5659 0 0.00195312 31.5639 0.00195312 70.5C0.00195312 109.436 31.5659 141 70.502 141Z" fill="#4285F4" fill-opacity="0.64"/>
<path d="M70.2039 119.675C97.4564 119.675 119.549 97.5828 119.549 70.3304C119.549 43.0779 97.4564 20.9854 70.2039 20.9854C42.9514 20.9854 20.8589 43.0779 20.8589 70.3304C20.8589 97.5828 42.9514 119.675 70.2039 119.675Z" fill="white"/>
<path d="M80.4619 98.3679L70.9389 92.1189C70.7674 92.001 70.5641 91.9378 70.3559 91.9378C70.1478 91.9378 69.9445 92.001 69.7729 92.1189L60.2519 98.3679C60.0919 98.473 59.9064 98.533 59.7151 98.5415C59.5238 98.55 59.3337 98.5067 59.165 98.4162C58.9962 98.3256 58.855 98.1913 58.7563 98.0272C58.6575 97.8631 58.6049 97.6754 58.6039 97.4839V81.5679C62.1439 83.7267 66.2101 84.8687 70.3564 84.8687C74.5027 84.8687 78.5689 83.7267 82.1089 81.5679V97.4829C82.1085 97.6226 82.0806 97.7608 82.0268 97.8897C81.9729 98.0186 81.8942 98.1356 81.7951 98.2341C81.696 98.3325 81.5785 98.4105 81.4493 98.4635C81.32 98.5164 81.1816 98.5435 81.0419 98.5429C80.8356 98.5428 80.6339 98.4819 80.4619 98.3679ZM50.5759 62.0769C50.5757 58.1646 51.7357 54.34 53.9091 51.0869C56.0826 47.8338 59.1719 45.2983 62.7864 43.801C66.4009 42.3036 70.3782 41.9118 74.2154 42.6749C78.0526 43.438 81.5773 45.3219 84.3439 48.0883C87.1104 50.8547 88.9944 54.3793 89.7578 58.2165C90.5211 62.0536 90.1294 66.031 88.6323 69.6456C87.1351 73.2601 84.5998 76.3496 81.3468 78.5232C78.0938 80.6968 74.2693 81.8569 70.3569 81.8569C65.1109 81.8569 60.0796 79.773 56.37 76.0636C52.6604 72.3541 50.5762 67.323 50.5759 62.0769ZM74.8259 70.0299C74.993 70.1181 75.1815 70.1577 75.37 70.1442C75.5585 70.1308 75.7394 70.0647 75.8922 69.9536C76.0451 69.8425 76.1637 69.6908 76.2347 69.5157C76.3057 69.3406 76.3262 69.1491 76.2939 68.9629L75.4399 63.9889L79.0549 60.4649C79.1899 60.3329 79.2854 60.1657 79.3305 59.9823C79.3756 59.7989 79.3686 59.6066 79.3103 59.427C79.252 59.2473 79.1447 59.0875 79.0004 58.9656C78.8562 58.8437 78.6808 58.7645 78.4939 58.7369L73.4989 58.0119L71.2649 53.4859C71.1816 53.3163 71.0524 53.1734 70.892 53.0734C70.7316 52.9735 70.5464 52.9205 70.3574 52.9205C70.1684 52.9205 69.9832 52.9735 69.8228 53.0734C69.6624 53.1734 69.5332 53.3163 69.4499 53.4859L67.2149 58.0119L62.2209 58.7369C62.0341 58.7645 61.8587 58.8437 61.7144 58.9656C61.5702 59.0875 61.4629 59.2473 61.4045 59.427C61.3462 59.6066 61.3392 59.7989 61.3844 59.9823C61.4295 60.1657 61.5249 60.3329 61.6599 60.4649L65.2759 63.9889L64.4229 68.9629C64.3909 69.1491 64.4116 69.3406 64.4828 69.5157C64.5539 69.6907 64.6727 69.8423 64.8255 69.9534C64.9784 70.0644 65.1593 70.1304 65.3478 70.144C65.5363 70.1575 65.7248 70.118 65.8919 70.0299L70.3599 67.6809L74.8259 70.0299Z" fill="#4285F4"/>
</svg>
