<svg width="141" height="141" viewBox="0 0 141 141" fill="none" xmlns="http://www.w3.org/2000/svg">
<path d="M70.5 141C109.436 141 141 109.436 141 70.5C141 31.5639 109.436 0 70.5 0C31.5639 0 0 31.5639 0 70.5C0 109.436 31.5639 141 70.5 141Z" fill="#4285F4" fill-opacity="0.64"/>
<path d="M70.365 119.675C97.6175 119.675 119.71 97.5828 119.71 70.3304C119.71 43.0779 97.6175 20.9854 70.365 20.9854C43.1125 20.9854 21.02 43.0779 21.02 70.3304C21.02 97.5828 43.1125 119.675 70.365 119.675Z" fill="white"/>
<path d="M48.4719 88.9652L41.3999 86.3092L49.7899 77.9232C51.7852 82.1429 54.6358 85.9017 58.1609 88.9612L51.1069 96.0152L48.4719 88.9652ZM82.7059 88.9572C86.2308 85.8983 89.0823 82.1411 91.0799 77.9232L99.4689 86.3112L92.3949 88.9632L89.7599 96.0132L82.7059 88.9572ZM69.7349 91.3232C49.8519 84.5652 48.9449 62.1332 49.0349 56.5692C49.0406 56.1913 49.1502 55.8223 49.3516 55.5025C49.5531 55.1827 49.8386 54.9246 50.1769 54.7562L69.4999 45.0442C69.7887 44.8989 70.1076 44.8232 70.4309 44.8232C70.7542 44.8232 71.0731 44.8989 71.3619 45.0442L90.6929 54.7562C91.0306 54.9242 91.3158 55.1816 91.5175 55.5004C91.7191 55.8191 91.8296 56.1871 91.8369 56.5642C91.9249 62.1282 91.0189 84.5642 71.1309 91.3182C70.6766 91.47 70.1852 91.47 69.7309 91.3182L69.7349 91.3232ZM71.0129 73.9532L74.8519 75.9722C75.0569 76.0794 75.2879 76.1273 75.5186 76.1103C75.7494 76.0933 75.9709 76.0122 76.158 75.8761C76.3451 75.74 76.4905 75.5543 76.5778 75.34C76.6651 75.1257 76.6907 74.8913 76.6519 74.6632L75.9189 70.3892C75.884 70.1907 75.8982 69.9867 75.9602 69.795C76.0223 69.6032 76.1303 69.4296 76.2749 69.2892L79.3819 66.2602C79.5474 66.0988 79.6646 65.8945 79.7202 65.6701C79.7758 65.4458 79.7676 65.2103 79.6966 64.9904C79.6256 64.7704 79.4946 64.5746 79.3183 64.4251C79.142 64.2756 78.9275 64.1783 78.6989 64.1442L74.4089 63.5232C74.2094 63.4947 74.0199 63.418 73.8568 63.2997C73.6936 63.1814 73.5619 63.025 73.4729 62.8442L71.5519 58.9542C71.4493 58.7465 71.2906 58.5716 71.0939 58.4494C70.8971 58.3271 70.6701 58.2623 70.4384 58.2623C70.2067 58.2623 69.9797 58.3271 69.7829 58.4494C69.5862 58.5716 69.4275 58.7465 69.3249 58.9542L67.3999 62.8402C67.3115 63.021 67.1801 63.1774 67.0173 63.2958C66.8545 63.4141 66.6652 63.4908 66.4659 63.5192L62.1729 64.1452C61.9438 64.1784 61.7286 64.275 61.5515 64.4242C61.3744 64.5733 61.2426 64.769 61.171 64.9891C61.0993 65.2092 61.0906 65.445 61.1459 65.6698C61.2012 65.8946 61.3183 66.0994 61.4839 66.2612L64.5839 69.2902C64.7288 69.4304 64.8371 69.604 64.8995 69.7957C64.9619 69.9874 64.9765 70.1915 64.9419 70.3902L64.2069 74.6642C64.1685 74.8922 64.1944 75.1264 64.2818 75.3405C64.3692 75.5546 64.5145 75.7401 64.7015 75.8761C64.8886 76.0121 65.1098 76.0932 65.3404 76.1104C65.571 76.1275 65.8018 76.08 66.0069 75.9732L69.8469 73.9542C70.0247 73.8609 70.2226 73.8122 70.4234 73.8122C70.6242 73.8122 70.8221 73.8609 70.9999 73.9542L71.0129 73.9532Z" fill="#4285F4"/>
</svg>
