<svg width="141" height="141" viewBox="0 0 141 141" fill="none" xmlns="http://www.w3.org/2000/svg">
<path d="M70.5 141C109.436 141 141 109.436 141 70.5C141 31.5639 109.436 0 70.5 0C31.5639 0 0 31.5639 0 70.5C0 109.436 31.5639 141 70.5 141Z" fill="#4285F4" fill-opacity="0.64"/>
<path d="M70.5271 119.675C97.7796 119.675 119.872 97.5828 119.872 70.3304C119.872 43.0779 97.7796 20.9854 70.5271 20.9854C43.2746 20.9854 21.1821 43.0779 21.1821 70.3304C21.1821 97.5828 43.2746 119.675 70.5271 119.675Z" fill="white"/>
<path d="M87.168 47.5146H53.852C52.1952 47.5146 50.6062 48.1728 49.4347 49.3444C48.2631 50.5159 47.605 52.1048 47.605 53.7616V87.0776C47.605 88.7345 48.2631 90.3234 49.4347 91.4949C50.6062 92.6665 52.1952 93.3246 53.852 93.3246H87.168C88.8248 93.3246 90.4137 92.6665 91.5853 91.4949C92.7568 90.3234 93.415 88.7345 93.415 87.0776V53.7616C93.415 52.1048 92.7568 50.5159 91.5853 49.3444C90.4137 48.1728 88.8248 47.5146 87.168 47.5146ZM63.222 83.7666C63.2222 83.8937 63.1975 84.0195 63.149 84.1369C63.1006 84.2544 63.0295 84.3611 62.9398 84.451C62.85 84.5409 62.7434 84.6123 62.6261 84.6609C62.5088 84.7096 62.383 84.7346 62.256 84.7346H58.141C58.0138 84.7349 57.8878 84.7101 57.7702 84.6615C57.6527 84.6129 57.5459 84.5417 57.4559 84.4517C57.366 84.3618 57.2947 84.255 57.2461 84.1374C57.1976 84.0198 57.1727 83.8938 57.173 83.7666V66.5146C57.173 66.2579 57.275 66.0117 57.4565 65.8302C57.638 65.6486 57.8843 65.5466 58.141 65.5466H62.256C62.5124 65.5472 62.7581 65.6494 62.9392 65.8309C63.1203 66.0124 63.222 66.2583 63.222 66.5146V83.7666ZM60.198 63.9146C59.4266 63.9146 58.6726 63.6859 58.0313 63.2574C57.3899 62.8288 56.89 62.2197 56.5949 61.5071C56.2997 60.7945 56.2224 60.0103 56.3729 59.2538C56.5234 58.4973 56.8948 57.8024 57.4403 57.2569C57.9857 56.7115 58.6806 56.3401 59.4371 56.1896C60.1937 56.0391 60.9778 56.1163 61.6904 56.4115C62.4031 56.7067 63.0122 57.2066 63.4407 57.8479C63.8692 58.4893 64.098 59.2433 64.098 60.0146C64.098 60.5268 63.9971 61.0339 63.8011 61.5071C63.6051 61.9803 63.3178 62.4102 62.9557 62.7724C62.5935 63.1345 62.1636 63.4218 61.6904 63.6178C61.2173 63.8138 60.7101 63.9146 60.198 63.9146ZM84.732 83.8346C84.7322 83.9516 84.7094 84.0675 84.6648 84.1755C84.6201 84.2836 84.5546 84.3819 84.4719 84.4646C84.3892 84.5473 84.291 84.6128 84.1829 84.6574C84.0748 84.7021 83.9589 84.7249 83.842 84.7246H79.417C79.3 84.7249 79.1842 84.7021 79.0761 84.6574C78.968 84.6128 78.8698 84.5473 78.7871 84.4646C78.7044 84.3819 78.6388 84.2836 78.5942 84.1755C78.5496 84.0675 78.5267 83.9516 78.527 83.8346V75.7526C78.527 74.5446 78.881 70.4636 75.37 70.4636C72.65 70.4636 72.096 73.2566 71.986 74.5106V83.8447C71.986 84.0785 71.894 84.3029 71.7299 84.4694C71.5658 84.636 71.3428 84.7312 71.109 84.7346H66.835C66.7182 84.7346 66.6026 84.7116 66.4947 84.6669C66.3868 84.6221 66.2888 84.5565 66.2064 84.4739C66.1239 84.3912 66.0585 84.2931 66.014 84.1851C65.9695 84.0771 65.9467 83.9614 65.947 83.8447V66.4396C65.9467 66.3229 65.9695 66.2072 66.014 66.0992C66.0585 65.9912 66.1239 65.8931 66.2064 65.8104C66.2888 65.7278 66.3868 65.6622 66.4947 65.6174C66.6026 65.5727 66.7182 65.5496 66.835 65.5496H71.105C71.341 65.5496 71.5674 65.6434 71.7343 65.8103C71.9012 65.9772 71.995 66.2036 71.995 66.4396V67.9396C73.005 66.4226 74.502 65.2556 77.695 65.2556C84.77 65.2556 84.723 71.8616 84.723 75.4896L84.732 83.8346Z" fill="#4285F4"/>
</svg>
