<svg width="141" height="141" viewBox="0 0 141 141" fill="none" xmlns="http://www.w3.org/2000/svg">
<path d="M70.5 141C109.436 141 141 109.436 141 70.5C141 31.5639 109.436 0 70.5 0C31.5639 0 0 31.5639 0 70.5C0 109.436 31.5639 141 70.5 141Z" fill="#4285F4" fill-opacity="0.64"/>
<path d="M70.6868 119.675C97.9393 119.675 120.032 97.5828 120.032 70.3304C120.032 43.0779 97.9393 20.9854 70.6868 20.9854C43.4343 20.9854 21.3418 43.0779 21.3418 70.3304C21.3418 97.5828 43.4343 119.675 70.6868 119.675Z" fill="white"/>
<path d="M91.0963 56.0376H87.3683V50.4446C87.3683 49.7101 87.2236 48.9828 86.9425 48.3042C86.6615 47.6256 86.2495 47.0091 85.7301 46.4897C85.2108 45.9704 84.5942 45.5584 83.9156 45.2773C83.2371 44.9962 82.5098 44.8516 81.7753 44.8516H50.0813C48.5979 44.8516 47.1753 45.4408 46.1264 46.4897C45.0775 47.5386 44.4883 48.9612 44.4883 50.4446V87.7316C44.4883 89.2149 45.0775 90.6375 46.1264 91.6864C47.1753 92.7353 48.5979 93.3246 50.0813 93.3246H90.1643C91.0212 93.3244 91.8696 93.1555 92.6612 92.8275C93.4528 92.4995 94.1721 92.0187 94.7779 91.4127C95.3837 90.8067 95.8642 90.0873 96.192 89.2956C96.5198 88.5039 96.6884 87.6554 96.6883 86.7986V61.6306C96.6883 60.1474 96.0992 58.7249 95.0505 57.6761C94.0018 56.6272 92.5795 56.0378 91.0963 56.0376ZM78.0463 80.2736H53.8103C53.3158 80.2736 52.8415 80.0771 52.4919 79.7275C52.1422 79.3778 51.9458 78.9036 51.9458 78.4091C51.9458 77.9146 52.1422 77.4403 52.4919 77.0907C52.8415 76.741 53.3158 76.5446 53.8103 76.5446H78.0463C78.5408 76.5446 79.015 76.741 79.3647 77.0907C79.7143 77.4403 79.9108 77.9146 79.9108 78.4091C79.9108 78.9036 79.7143 79.3778 79.3647 79.7275C79.015 80.0771 78.5408 80.2736 78.0463 80.2736ZM78.0463 70.9516H53.8103C53.3158 70.9516 52.8415 70.7551 52.4919 70.4055C52.1422 70.0558 51.9458 69.5816 51.9458 69.0871C51.9458 68.5926 52.1422 68.1183 52.4919 67.7687C52.8415 67.419 53.3158 67.2226 53.8103 67.2226H78.0463C78.5408 67.2226 79.015 67.419 79.3647 67.7687C79.7143 68.1183 79.9108 68.5926 79.9108 69.0871C79.9108 69.5816 79.7143 70.0558 79.3647 70.4055C79.015 70.7551 78.5408 70.9516 78.0463 70.9516ZM78.0463 61.6296H59.4033C58.9088 61.6296 58.4345 61.4331 58.0849 61.0835C57.7352 60.7338 57.5388 60.2596 57.5388 59.7651C57.5388 59.2706 57.7352 58.7963 58.0849 58.4467C58.4345 58.097 58.9088 57.9006 59.4033 57.9006H78.0463C78.5408 57.9006 79.015 58.097 79.3647 58.4467C79.7143 58.7963 79.9108 59.2706 79.9108 59.7651C79.9108 60.2596 79.7143 60.7338 79.3647 61.0835C79.015 61.4331 78.5408 61.6296 78.0463 61.6296ZM92.9613 86.7986C92.9802 87.1776 92.922 87.5565 92.79 87.9123C92.658 88.2681 92.4551 88.5933 92.1936 88.8683C91.932 89.1433 91.6173 89.3622 91.2686 89.5118C90.9198 89.6614 90.5443 89.7385 90.1648 89.7385C89.7853 89.7385 89.4098 89.6614 89.061 89.5118C88.7123 89.3622 88.3975 89.1433 88.136 88.8683C87.8745 88.5933 87.6715 88.2681 87.5396 87.9123C87.4076 87.5565 87.3493 87.1776 87.3683 86.7986V59.7666H91.0973C91.5916 59.7666 92.0658 59.9629 92.4153 60.3125C92.7649 60.6621 92.9613 61.1362 92.9613 61.6306V86.7986Z" fill="#4285F4"/>
</svg>
