<?xml version="1.0" encoding="UTF-8"?>
<svg width="290" height="193" viewBox="0 0 290 193" fill="none" xmlns="http://www.w3.org/2000/svg">
<mask id="mask0_69_38" style="mask-type:alpha" maskUnits="userSpaceOnUse" x="0" y="0" width="290" height="193">
<rect width="290" height="193" rx="6.9863" fill="#D9D9D9"/>
</mask>
<g mask="url(#mask0_69_38)">
<path d="M42.3765 117.632C42.7193 111.624 45.4398 108.493 48.2158 106.874L48.2132 106.87C47.3466 105.804 46.4938 104.726 45.6551 103.631C43.3988 100.69 41.2575 97.6773 39.2341 94.5986C39.9012 97.0336 40.3973 99.7911 40.4632 102.755C40.4664 110.338 35.401 124.013 35.4805 124.083C28.5392 116.501 23.9218 101.534 25.4784 95.2713C26.8671 88.9664 30.2633 86.1871 33.4359 85.0196C30.7908 80.2591 28.4071 75.3583 26.2898 70.33C26.5618 73.0766 26.5966 76.147 26.1389 79.3502C24.8108 87.3385 17.253 100.778 17.3258 100.868C11.3807 91.6032 9.23665 74.8299 11.9876 68.4834C14.5748 62.0366 18.6174 59.7891 22.1132 59.21C21.2901 56.7252 20.5241 54.2122 19.8238 51.6735C18.9458 48.4907 18.1763 45.2919 17.5076 42.0823C17.2705 45.1148 16.7264 48.4532 15.6425 51.8198C12.7823 60.042 2.58372 72.7683 2.64578 72.8812C0.520705 67.4094 -0.523113 60.0197 -0.318312 53.2587C-0.150445 46.4815 1.27024 40.3426 3.18426 37.1925C7.11039 30.7879 11.7274 29.2714 15.4307 29.4333C14.625 22.7777 14.2663 16.0823 14.3559 9.37468C13.4844 12.8498 12.1944 16.6693 10.2571 20.3688C5.68707 28.6172 -7.19869 40.0876 -7.15302 40.225C-8.28632 33.8903 -7.90576 25.6746 -6.33157 18.3764C-4.79689 11.0582 -2.06517 4.66437 0.546937 1.65583C6.11831 -4.71222 11.3416 -5.09647 15.1173 -3.88713C15.1943 -4.65093 15.276 -5.41449 15.3654 -6.17859C15.4955 -7.30511 15.6405 -8.42802 15.7969 -9.54937C0.759786 -0.987842 -13.9173 -3.30182 -21.6997 9.95688C-21.6997 9.95688 -17.9734 -14.271 4.04246 -25.6518C13.9854 -30.7924 19.9033 -36.0107 23.3849 -40.1068C26.2782 -48.0628 29.8525 -55.8044 34.101 -63.2895C44.1864 -81.0586 57.4502 -96.3229 73.5274 -108.657C53.8997 -92.7606 41.9565 -73.2658 38.4384 -65.5055C37.881 -63.5278 37.3435 -58.7913 40.7963 -50.4975C45.313 -39.6476 53.2287 -36.8499 53.2287 -36.8499C53.2287 -36.8499 31.7437 -33.1849 30.6154 -45.5186C30.4336 -47.5012 30.5247 -49.3919 30.8033 -51.1689C30.0959 -49.645 29.4166 -48.1148 28.7652 -46.5784C30.781 -41.6319 36.2474 -24.457 20.8435 -12.8566C20.1453 -12.3314 19.4477 -11.8374 18.7478 -11.3689C18.3596 -8.83928 18.0356 -6.3072 17.7792 -3.77063C21.6573 -4.30977 26.4532 -2.80022 31.264 2.67784C33.6132 5.32795 35.9886 10.35 38.1293 15.6148C40.2381 20.91 42.1134 26.446 42.8387 31.0215C42.8601 31.1718 27.4483 26.8112 21.9889 19.4252C19.3855 16.0779 17.884 12.1993 17.0459 8.60017C16.9272 15.4829 17.2864 22.3483 18.1111 29.1456C21.6909 27.7775 26.6024 28.0408 32.2858 32.0328C34.9809 33.9069 38.1231 37.8898 41.0709 42.1941C43.9965 46.5245 46.7258 51.1752 48.1904 55.2002C48.2347 55.3272 32.9598 54.2502 26.5283 48.718C23.355 46.1142 21.2001 42.7886 19.7674 39.6474C20.9999 45.9996 22.642 52.2667 24.6838 58.4065C27.8124 56.5132 32.4619 55.8153 38.4713 58.3314C44.1194 60.8945 53.1873 69.8654 57.3326 76.5929C57.3904 76.696 42.8264 78.3869 35.8636 74.5343C32.5465 72.7947 30.0147 70.2786 28.1522 67.7834C30.3835 73.2476 32.9406 78.5862 35.8148 83.7678C38.4492 81.5018 42.6871 80.0466 48.7083 81.2815C54.436 82.6191 64.415 89.3695 69.3686 94.9892C69.436 95.0711 55.9849 99.0183 48.8425 96.657C45.5254 95.6352 42.797 93.8199 40.67 91.9021C43.6244 96.5108 46.8444 100.972 50.3229 105.26C52.4475 102.738 56.1896 100.691 62.0154 100.848C67.6019 101.135 78.0328 105.85 83.544 110.385C83.6162 110.45 71.5333 116.178 64.4791 115.118C61.2748 114.701 58.4833 113.493 56.2212 112.095C59.7612 115.949 63.5252 119.64 67.5089 123.14C69.1335 120.483 72.3226 118.013 77.7777 117.263C83.0637 116.657 93.5852 119.508 99.4467 122.986C99.5188 123.034 88.9635 130.138 82.1946 130.207C79.2491 130.291 76.5573 129.646 74.2877 128.748C78.131 131.74 82.1549 134.567 86.3517 137.213C87.5184 134.534 90.1455 131.815 95.0907 130.344C99.9646 129.007 110.291 130.198 116.319 132.669C116.39 132.702 107.413 140.789 101.074 141.81C98.4996 142.27 96.0468 142.11 93.8968 141.668C98.0095 143.937 102.185 145.992 106.41 147.832C107.161 145.21 109.245 142.364 113.609 140.34C117.999 138.412 127.91 138.122 133.959 139.637C134.027 139.657 126.632 148.401 120.818 150.219C118.636 150.94 116.481 151.152 114.526 151.09C118.642 152.601 122.798 153.922 126.979 155.049C127.371 152.543 128.95 149.683 132.705 147.263C136.574 144.873 145.908 143.291 151.852 143.92C151.914 143.93 146.041 153.033 140.813 155.495C139.029 156.369 137.213 156.847 135.509 157.08C139.364 157.876 143.233 158.515 147.11 158.999C147.205 156.657 148.341 153.865 151.502 151.197C154.842 148.478 163.492 145.82 169.232 145.653C169.29 145.654 164.817 154.851 160.191 157.802C158.757 158.747 157.261 159.391 155.816 159.827C159.51 160.069 163.206 160.171 166.893 160.136C166.733 157.977 167.481 155.298 170.09 152.482C172.91 149.538 180.81 145.978 186.268 145.098C186.319 145.094 183.121 154.176 179.102 157.492C177.935 158.481 176.684 159.236 175.452 159.81C178.84 159.582 182.217 159.238 185.575 158.782C185.194 156.818 185.601 154.272 187.734 151.372C190.065 148.304 197.186 144.033 202.31 142.547C202.354 142.538 200.268 151.33 196.829 154.886C195.839 155.934 194.748 156.779 193.654 157.458C197.004 156.816 200.332 156.059 203.628 155.19C203.041 153.426 203.135 151.022 204.854 148.065C206.727 144.95 213.056 140.117 217.806 138.106C217.844 138.094 216.732 146.467 213.848 150.168C212.972 151.319 211.967 152.274 210.946 153.06C214.087 152.059 217.195 150.954 220.267 149.746C219.498 148.195 219.313 145.948 220.677 142.968C222.142 139.879 227.702 134.659 232.056 132.231C232.089 132.216 231.781 140.068 229.402 143.815C228.614 145.084 227.663 146.157 226.686 147.049C228.49 146.242 230.279 145.397 232.052 144.516C232.522 143.154 234.523 139.51 239.144 137.525C246.471 134.377 253.93 132.892 253.973 132.803C252.019 135.297 247.147 141.002 241.509 144.932C238.328 147.148 235.698 146.6 234.161 146.47C232.62 147.249 231.067 148 229.501 148.726C230.163 148.721 230.839 148.751 231.528 148.829C235.72 149.368 242.272 153.38 242.304 153.359C237.169 156.313 228.72 157.612 225.553 156.411C222.821 155.435 221.58 153.858 221.096 152.31C218.283 153.412 215.43 154.431 212.541 155.367C213.511 155.44 214.515 155.585 215.53 155.839C219.847 156.984 226.282 162.155 226.319 162.132C220.63 164.636 211.621 164.901 208.438 163.177C205.505 161.663 204.429 159.645 204.183 157.823C200.828 158.705 197.461 159.468 194.078 160.117C195.318 160.333 196.616 160.67 197.91 161.188C202.272 163.014 208.392 169.42 208.437 169.401C202.205 171.311 192.734 170.346 189.618 168.052C186.614 165.932 185.795 163.505 185.837 161.465C182.254 161.949 178.661 162.303 175.06 162.529C176.485 162.94 177.984 163.529 179.45 164.361C183.765 166.91 189.384 174.57 189.434 174.555C182.688 175.751 172.883 173.414 169.919 170.531C166.974 167.782 166.48 165.012 166.839 162.815C162.894 162.845 158.941 162.721 154.988 162.439C156.517 163.099 158.118 163.976 159.639 165.149C163.791 168.471 168.663 177.396 168.722 177.388C161.514 177.718 151.551 173.836 148.846 170.343C146.107 166.961 146.006 163.913 146.714 161.623C142.657 161.11 138.637 160.439 134.66 159.605C136.191 160.532 137.769 161.707 139.22 163.192C143.091 167.302 146.978 177.441 147.041 177.441C139.454 176.774 129.54 171.225 127.204 167.132C124.811 163.145 125.151 159.902 126.225 157.582C122.021 156.444 117.869 155.121 113.774 153.619C115.24 154.827 116.72 156.307 118.024 158.098C121.457 163.004 124.069 174.274 124.14 174.283C116.285 172.468 106.699 165.114 104.868 160.44C102.953 155.858 103.813 152.49 105.294 150.21C101.181 148.411 97.1325 146.422 93.1556 144.247C94.5184 145.755 95.8611 147.555 96.9667 149.662C99.8044 155.339 100.879 167.584 100.954 167.605C92.984 164.515 84.0358 155.282 82.844 150.075C81.5405 144.946 82.9767 141.544 84.8857 139.386C80.9814 136.925 77.2065 134.304 73.5712 131.523C74.7546 133.318 75.8693 135.413 76.6937 137.784C78.7738 144.181 78.0541 157.19 78.1335 157.225C70.2401 152.748 62.2889 141.6 61.8683 135.937C61.3147 130.341 63.3601 127.011 65.6991 125.064C62.0558 121.862 58.5689 118.486 55.2469 114.939C56.2034 117.044 57.0444 119.459 57.5313 122.121C58.6641 129.166 55.8818 142.673 55.9623 142.723C48.3968 136.737 41.8761 123.658 42.3765 117.632Z" fill="#015C4F"/>
</g>
</svg>