<?xml version="1.0" encoding="UTF-8"?>
<svg width="296" height="210" viewBox="0 0 296 210" fill="none" xmlns="http://www.w3.org/2000/svg">
<mask id="mask0_39_641" style="mask-type:alpha" maskUnits="userSpaceOnUse" x="0" y="0" width="296" height="210">
<rect width="295.498" height="209.48" rx="8.09584" fill="#D9D9D9"/>
</mask>
<g mask="url(#mask0_39_641)">
<path d="M69.1921 170.832C67.9566 164.656 69.8871 160.768 72.2724 158.398L72.2687 158.395C71.1101 157.543 69.9624 156.676 68.8247 155.788C65.7647 153.403 62.8027 150.916 59.9424 148.331C61.2594 150.622 62.4882 153.284 63.3358 156.269C65.3362 163.947 63.8082 179.132 63.907 179.181C54.8799 173.33 46.2613 159.389 46.1881 152.636C45.9339 145.884 48.6414 142.175 51.547 140.157C47.6141 136.032 43.9091 131.697 40.4404 127.162C41.4392 129.872 42.2832 132.973 42.6635 136.337C43.4225 144.777 39.3081 160.379 39.4054 160.451C30.944 152.634 24.3545 136.211 25.469 129.059C26.3912 121.848 29.8934 118.507 33.2813 117C31.7932 114.7 30.3555 112.357 28.9776 109.97C27.25 106.978 25.6281 103.941 24.1054 100.867C24.664 104 24.9923 107.525 24.7813 111.22C24.0504 120.3 17.0735 135.876 17.1661 135.974C13.5726 130.992 10.569 123.782 8.99556 116.881C7.38046 109.973 7.20229 103.382 8.31106 99.687C10.6004 92.1664 14.877 89.4144 18.6702 88.6029C16.1011 82.0745 13.9742 75.388 12.2982 68.5711C12.3309 72.3201 12.0305 76.5283 11.0429 80.7854C8.58709 90.3428 -1.44199 105.354 -1.35955 105.481C-4.1759 99.364 -5.95452 90.943 -6.28252 83.1369C-6.65587 75.321 -5.57338 68.1259 -3.72034 64.3909C0.244866 56.474 5.43375 54.709 9.57615 54.9393C9.45299 54.1454 9.33464 53.3506 9.22386 52.5532C9.05893 51.378 8.91006 50.2025 8.773 49.0256C-4.20114 61.6574 -19.6753 63.1798 -24.0648 78.6578C-24.0648 78.6578 -26.6726 53.1388 -7.37303 35.8136C1.34292 27.9883 5.96193 21.1445 8.4091 16.079C9.24376 7.25923 10.8247 -1.52274 13.1558 -10.2226C18.6897 -30.8753 28.1024 -49.8283 41.1363 -66.5545C25.4449 -45.2853 18.484 -22.3956 16.965 -13.6093C16.9214 -11.4596 17.6247 -6.52096 23.3061 0.969385C30.7384 10.7682 39.4922 11.5166 39.4922 11.5166C39.4922 11.5166 18.6979 20.8877 14.3066 8.69351C13.6002 6.7335 13.1944 4.7946 13.0086 2.92151C12.6936 4.65127 12.4086 6.37993 12.1536 8.1075C15.4981 12.5863 25.5581 28.5408 13.013 44.3468C12.4441 45.0626 11.8679 45.7468 11.2824 46.4056C11.5556 49.0698 11.8943 51.7196 12.3028 54.3561C16.0884 52.7886 21.3432 53.0542 27.6585 57.3351C30.7357 59.4003 34.4642 63.8608 38.0191 68.629C41.5496 73.4364 44.907 78.5493 46.8468 82.9921C46.9081 83.1387 30.1507 82.7819 22.6761 76.7395C19.1578 74.0351 16.6154 70.5025 14.8186 67.0781C16.5113 74.08 18.6835 80.9386 21.3091 87.6055C24.5743 85.2771 29.6179 84.25 36.4254 86.796C39.6486 87.9841 43.8801 91.1904 47.9993 94.7731C52.103 98.3883 56.0922 102.38 58.6356 106.07C58.7139 106.187 42.9602 109.12 34.9893 105.211C31.0896 103.41 28.0311 100.609 25.7527 97.8053C28.6742 103.914 31.9881 109.829 35.6731 115.509C38.343 112.768 42.8681 110.836 49.6171 111.801C56.0124 112.91 67.5591 119.607 73.5294 125.328C73.6152 125.417 59.3105 130.966 51.2439 128.898C47.4262 128.01 44.1993 126.129 41.6558 124.092C45.3548 129.039 49.3508 133.772 53.6266 138.263C55.6978 135.274 59.6066 132.684 66.03 132.348C72.1832 132.194 84.0678 136.403 90.5649 140.789C90.6548 140.854 78.0715 148.395 70.2158 147.885C66.5872 147.724 63.3458 146.604 60.6864 145.222C64.8925 149.111 69.3288 152.781 73.9811 156.208C75.4688 153.095 78.7195 150.036 84.6609 148.66C90.3945 147.479 102.201 149.507 108.977 152.648C109.067 152.695 98.3384 161.679 90.915 162.463C87.5598 162.885 84.4143 162.396 81.7551 161.576C86.3557 164.548 91.1399 167.294 96.0965 169.79C97.0419 166.671 99.6212 163.329 104.948 161.133C110.142 159.127 121.549 159.243 128.402 161.221C128.487 161.251 119.668 171.226 112.831 173.079C109.87 173.94 106.974 173.996 104.439 173.684C109.119 175.701 113.939 177.505 118.887 179.08C119.363 176.059 121.307 172.613 125.928 169.821C130.512 167.183 141.284 165.669 148.04 166.583C148.121 166.598 141.159 177.153 135.008 179.858C132.522 181.001 129.996 181.485 127.702 181.604C132.465 182.818 137.235 183.799 141.999 184.55C142.069 181.697 143.429 178.266 147.316 175.067C151.254 171.957 161.215 169.054 167.741 168.995C167.815 168.996 162.629 179.801 157.22 183.173C155.2 184.477 153.073 185.26 151.076 185.712C155.643 186.159 160.2 186.402 164.731 186.442C164.468 183.801 165.314 180.488 168.48 177.048C171.769 173.609 180.806 169.548 186.99 168.619C187.056 168.614 183.506 179.379 178.859 183.25C177.283 184.605 175.57 185.567 173.905 186.252C178.019 186.043 182.106 185.671 186.16 185.14C185.639 182.743 186.054 179.616 188.553 176.082C191.22 172.448 199.28 167.477 205.05 165.797C205.108 165.783 203.001 176.274 199.093 180.482C197.89 181.816 196.545 182.863 195.196 183.686C199.001 182.957 202.771 182.087 206.495 181.081C205.765 178.937 205.816 176.026 207.717 172.486C209.798 168.762 216.86 163.076 222.157 160.748C222.207 160.729 221.361 170.77 218.164 175.187C217.242 176.496 216.175 177.59 215.077 178.496C218.449 177.373 221.778 176.135 225.059 174.789C224.156 172.899 223.897 170.214 225.294 166.715C226.847 162.994 232.934 156.792 237.732 153.938C237.774 153.917 237.978 163.371 235.431 167.878C234.704 169.2 233.822 170.344 232.893 171.32C236.117 169.787 239.288 168.144 242.397 166.395C241.338 164.763 240.8 162.304 241.762 158.856C242.838 155.208 247.976 148.647 252.256 145.359C252.292 145.337 253.371 154.109 251.425 158.617C250.841 160.014 250.074 161.246 249.247 162.31C252.165 160.469 255.021 158.532 257.814 156.499C256.627 155.13 255.848 152.904 256.445 149.527C257.115 146.012 261.371 139.26 265.141 135.655C265.17 135.631 266.927 143.665 265.504 148.086C265.04 149.579 264.36 150.917 263.606 152.076C265.22 150.784 266.809 149.457 268.373 148.099C268.49 146.595 269.557 142.377 273.714 139.15C280.306 134.032 287.468 130.563 287.489 130.461C286.167 133.502 282.735 140.564 278.06 146.029C275.423 149.11 272.614 149.249 271.024 149.522C269.668 150.717 268.293 151.886 266.898 153.034C267.567 152.854 268.26 152.707 268.978 152.604C273.366 152.046 281.058 154.383 281.085 154.354C276.662 158.698 268.448 162.239 264.924 161.857C261.9 161.588 260.228 160.317 259.329 158.877C256.771 160.735 254.15 162.518 251.471 164.227C252.473 164.045 253.528 163.928 254.623 163.917C259.296 163.94 267.175 167.482 267.207 167.449C262.105 171.484 253.05 174.125 249.373 173.218C246.003 172.456 244.382 170.697 243.653 168.916C240.487 170.693 237.278 172.353 234.023 173.901C235.336 173.793 236.739 173.792 238.186 173.976C243.085 174.677 250.97 179.552 251.01 179.522C245.202 183.097 235.356 184.615 231.596 183.112C227.995 181.756 226.526 179.514 226.031 177.437C222.531 178.871 218.984 180.176 215.397 181.353C216.949 181.394 218.622 181.596 220.325 182.052C225.367 183.497 233.076 189.775 233.122 189.747C226.605 192.735 216.06 192.95 212.298 190.811C208.591 188.803 207.361 186.127 207.147 183.808C203.159 184.878 199.123 185.793 195.045 186.549C196.768 186.814 198.619 187.281 200.469 188.069C205.55 190.34 212.835 198.095 212.891 198.071C205.679 200.304 194.566 198.997 190.906 196.172C187.242 193.468 186.336 190.408 186.45 187.902C182.207 188.451 177.958 188.83 173.711 189.033C175.505 189.569 177.413 190.343 179.274 191.465C184.276 194.608 190.884 203.852 190.948 203.835C183.088 205.159 171.586 202.15 168.142 198.62C164.668 195.213 164.158 191.838 164.635 189.206C160.077 189.161 155.523 188.914 150.981 188.472C152.783 189.309 154.673 190.418 156.465 191.888C161.234 195.953 166.849 206.679 166.922 206.669C158.489 206.9 146.844 201.977 143.758 197.725C140.612 193.59 140.595 189.952 141.494 187.253C136.855 186.515 132.231 185.566 127.63 184.411C129.408 185.58 131.242 187.049 132.917 188.891C137.286 193.894 141.599 206.012 141.681 206.014C132.795 204.983 121.301 197.989 118.722 193.03C116.051 188.179 116.61 184.355 117.974 181.666C113.372 180.202 108.859 178.542 104.444 176.683C106.116 178.189 107.796 180.017 109.256 182.202C113.048 188.133 115.745 201.497 115.835 201.512C106.661 199.056 95.6721 189.861 93.7543 184.236C91.7198 178.714 92.9141 174.803 94.7703 172.215C90.2369 169.931 85.8162 167.431 81.5176 164.714C83.0406 166.593 84.5284 168.818 85.723 171.386C88.7258 178.223 89.4657 192.635 89.5605 192.665C80.3214 188.594 70.2725 177.066 69.1921 170.832Z" fill="#79572E"/>
</g>
</svg>