<?xml version="1.0" encoding="UTF-8"?>
<svg width="296" height="210" viewBox="0 0 296 210" fill="none" xmlns="http://www.w3.org/2000/svg">
<mask id="mask0_39_637" style="mask-type:alpha" maskUnits="userSpaceOnUse" x="0" y="0" width="296" height="210">
<rect width="295.498" height="209.48" rx="8.09584" fill="#D9D9D9"/>
</mask>
<g mask="url(#mask0_39_637)">
<path d="M69.1921 170.832C67.9566 164.657 69.8871 160.769 72.2724 158.399L72.2687 158.396C71.1101 157.544 69.9624 156.676 68.8247 155.789C65.7647 153.404 62.8027 150.917 59.9424 148.332C61.2594 150.622 62.4882 153.284 63.3358 156.269C65.3362 163.948 63.8082 179.132 63.907 179.182C54.8799 173.331 46.2613 159.39 46.1881 152.636C45.9339 145.885 48.6414 142.176 51.547 140.158C47.6141 136.033 43.9091 131.698 40.4404 127.163C41.4392 129.873 42.2832 132.973 42.6635 136.338C43.4225 144.778 39.3081 160.38 39.4054 160.452C30.944 152.635 24.3545 136.212 25.469 129.06C26.3912 121.849 29.8934 118.508 33.2813 117.001C31.7932 114.701 30.3555 112.358 28.9776 109.971C27.25 106.979 25.6281 103.942 24.1054 100.867C24.664 104.001 24.9923 107.525 24.7813 111.221C24.0504 120.301 17.0735 135.876 17.1661 135.974C13.5726 130.992 10.569 123.783 8.99556 116.882C7.38046 109.974 7.20229 103.382 8.31106 99.6877C10.6004 92.1671 14.877 89.4151 18.6702 88.6036C16.1011 82.0752 13.9742 75.3888 12.2982 68.5718C12.3309 72.3209 12.0305 76.529 11.0429 80.7861C8.58709 90.3436 -1.44199 105.355 -1.35955 105.482C-4.1759 99.3647 -5.95452 90.9437 -6.28252 83.1377C-6.65587 75.3217 -5.57338 68.1266 -3.72034 64.3916C0.244866 56.4747 5.43375 54.7097 9.57615 54.94C9.45299 54.1461 9.33464 53.3513 9.22386 52.5539C9.05893 51.3787 8.91006 50.2032 8.773 49.0264C-4.20114 61.6581 -19.6753 63.1805 -24.0648 78.6585C-24.0648 78.6585 -26.6726 53.1395 -7.37303 35.8143C1.34292 27.9891 5.96193 21.1452 8.4091 16.0797C9.24376 7.25997 10.8247 -1.52201 13.1558 -10.2218C18.6897 -30.8746 28.1024 -49.8276 41.1363 -66.5537C25.4449 -45.2845 18.484 -22.3948 16.965 -13.6086C16.9214 -11.4589 17.6247 -6.52023 23.3061 0.970117C30.7384 10.7689 39.4922 11.5174 39.4922 11.5174C39.4922 11.5174 18.6979 20.8884 14.3066 8.69424C13.6002 6.73423 13.1944 4.79533 13.0086 2.92224C12.6936 4.652 12.4086 6.38066 12.1536 8.10823C15.4981 12.587 25.5581 28.5415 13.013 44.3476C12.4441 45.0634 11.8679 45.7475 11.2824 46.4063C11.5556 49.0705 11.8943 51.7203 12.3028 54.3568C16.0884 52.7893 21.3432 53.0549 27.6585 57.3358C30.7357 59.401 34.4642 63.8615 38.0191 68.6297C41.5496 73.4371 44.907 78.55 46.8468 82.9928C46.9081 83.1395 30.1507 82.7826 22.6761 76.7402C19.1578 74.0359 16.6154 70.5032 14.8186 67.0789C16.5113 74.0808 18.6835 80.9393 21.3091 87.6062C24.5743 85.2778 29.6179 84.2507 36.4254 86.7968C39.6486 87.9849 43.8801 91.1911 47.9993 94.7739C52.103 98.389 56.0922 102.38 58.6356 106.071C58.7139 106.188 42.9602 109.12 34.9893 105.212C31.0896 103.41 28.0311 100.61 25.7527 97.806C28.6742 103.915 31.9881 109.829 35.6731 115.51C38.343 112.768 42.8681 110.837 49.6171 111.802C56.0124 112.91 67.5591 119.607 73.5294 125.329C73.6152 125.418 59.3105 130.967 51.2439 128.899C47.4262 128.011 44.1993 126.129 41.6558 124.093C45.3548 129.039 49.3508 133.773 53.6266 138.263C55.6978 135.275 59.6066 132.684 66.03 132.349C72.1832 132.195 84.0678 136.403 90.5649 140.79C90.6548 140.855 78.0715 148.396 70.2158 147.886C66.5872 147.725 63.3458 146.605 60.6864 145.223C64.8925 149.112 69.3288 152.782 73.9811 156.209C75.4688 153.095 78.7195 150.036 84.6609 148.66C90.3945 147.48 102.201 149.508 108.977 152.649C109.067 152.696 98.3384 161.679 90.915 162.464C87.5598 162.886 84.4143 162.397 81.7551 161.577C86.3557 164.549 91.1399 167.295 96.0965 169.791C97.0419 166.672 99.6212 163.33 104.948 161.134C110.142 159.128 121.549 159.244 128.402 161.222C128.487 161.251 119.668 171.226 112.831 173.08C109.87 173.941 106.974 173.996 104.439 173.685C109.119 175.702 113.939 177.506 118.887 179.08C119.363 176.059 121.307 172.614 125.928 169.822C130.512 167.184 141.284 165.67 148.04 166.584C148.121 166.599 141.159 177.154 135.008 179.858C132.522 181.002 129.996 181.486 127.702 181.604C132.465 182.819 137.235 183.8 141.999 184.551C142.069 181.698 143.429 178.267 147.316 175.068C151.254 171.958 161.215 169.054 167.741 168.995C167.815 168.997 162.629 179.802 157.22 183.173C155.2 184.478 153.073 185.261 151.076 185.713C155.643 186.16 160.2 186.403 164.731 186.443C164.468 183.802 165.314 180.489 168.48 177.049C171.769 173.609 180.806 169.549 186.99 168.62C187.056 168.614 183.506 179.38 178.859 183.25C177.283 184.606 175.57 185.568 173.905 186.253C178.019 186.044 182.106 185.672 186.16 185.14C185.639 182.743 186.054 179.617 188.553 176.082C191.22 172.449 199.28 167.478 205.05 165.797C205.108 165.783 203.001 176.275 199.093 180.483C197.89 181.817 196.545 182.864 195.196 183.686C199.001 182.958 202.771 182.088 206.495 181.082C205.765 178.937 205.816 176.026 207.717 172.487C209.798 168.763 216.86 163.076 222.157 160.748C222.207 160.73 221.361 170.771 218.164 175.188C217.242 176.497 216.175 177.591 215.077 178.497C218.449 177.373 221.778 176.136 225.059 174.79C224.156 172.9 223.897 170.215 225.294 166.716C226.847 162.994 232.934 156.793 237.732 153.938C237.774 153.918 237.978 163.372 235.431 167.879C234.704 169.201 233.822 170.345 232.893 171.321C236.117 169.788 239.288 168.144 242.397 166.396C241.338 164.764 240.8 162.305 241.762 158.857C242.838 155.208 247.976 148.647 252.256 145.36C252.292 145.337 253.371 154.11 251.425 158.617C250.841 160.015 250.074 161.246 249.247 162.311C252.165 160.47 255.021 158.532 257.814 156.5C256.627 155.131 255.848 152.905 256.445 149.528C257.115 146.013 261.371 139.261 265.141 135.656C265.17 135.632 266.927 143.665 265.504 148.087C265.04 149.58 264.36 150.917 263.606 152.077C265.22 150.785 266.809 149.458 268.373 148.099C268.49 146.595 269.557 142.378 273.714 139.15C280.306 134.032 287.468 130.564 287.489 130.462C286.167 133.503 282.735 140.564 278.06 146.029C275.423 149.111 272.614 149.249 271.024 149.522C269.668 150.717 268.293 151.887 266.898 153.034C267.567 152.855 268.26 152.707 268.978 152.605C273.366 152.046 281.058 154.384 281.085 154.355C276.662 158.699 268.448 162.24 264.924 161.858C261.9 161.589 260.228 160.318 259.329 158.878C256.771 160.735 254.15 162.519 251.471 164.228C252.473 164.046 253.528 163.929 254.623 163.918C259.296 163.941 267.175 167.483 267.207 167.45C262.105 171.484 253.05 174.126 249.373 173.218C246.003 172.457 244.382 170.697 243.653 168.916C240.487 170.693 237.278 172.354 234.023 173.901C235.336 173.794 236.739 173.793 238.186 173.977C243.085 174.677 250.97 179.553 251.01 179.522C245.202 183.098 235.356 184.616 231.596 183.112C227.995 181.757 226.526 179.515 226.031 177.438C222.531 178.871 218.984 180.176 215.397 181.354C216.949 181.395 218.622 181.596 220.325 182.053C225.367 183.497 233.076 189.776 233.122 189.747C226.605 192.735 216.06 192.951 212.298 190.812C208.591 188.804 207.361 186.128 207.147 183.809C203.159 184.879 199.123 185.794 195.045 186.55C196.768 186.815 198.619 187.281 200.469 188.07C205.55 190.34 212.835 198.096 212.891 198.072C205.679 200.305 194.566 198.997 190.906 196.173C187.242 193.468 186.336 190.409 186.45 187.903C182.207 188.452 177.958 188.831 173.711 189.034C175.505 189.569 177.413 190.344 179.274 191.466C184.276 194.609 190.884 203.853 190.948 203.836C183.088 205.159 171.586 202.151 168.142 198.621C164.668 195.213 164.158 191.839 164.635 189.207C160.077 189.162 155.523 188.915 150.981 188.473C152.783 189.31 154.673 190.419 156.465 191.889C161.234 195.954 166.849 206.68 166.922 206.67C158.489 206.901 146.844 201.978 143.758 197.726C140.612 193.591 140.595 189.953 141.494 187.254C136.855 186.515 132.231 185.567 127.63 184.412C129.408 185.58 131.242 187.05 132.917 188.892C137.286 193.894 141.599 206.013 141.681 206.014C132.795 204.984 121.301 197.99 118.722 193.031C116.051 188.179 116.61 184.356 117.974 181.667C113.372 180.203 108.859 178.543 104.444 176.684C106.116 178.19 107.796 180.018 109.256 182.203C113.048 188.133 115.745 201.498 115.835 201.513C106.661 199.057 95.6721 189.861 93.7543 184.236C91.7198 178.715 92.9141 174.803 94.7703 172.216C90.2369 169.932 85.8162 167.431 81.5176 164.715C83.0406 166.594 84.5284 168.818 85.723 171.387C88.7258 178.223 89.4657 192.636 89.5605 192.665C80.3214 188.595 70.2725 177.067 69.1921 170.832Z" fill="#4B4B4B"/>
</g>
</svg>