<svg width="23" height="23" viewBox="0 0 23 23" fill="none" xmlns="http://www.w3.org/2000/svg">
<circle cx="11.4533" cy="11.4533" r="11.4533" fill="#1E1E1E"/>
<path d="M5.27313 9.64335L4.06097 10.52L3.45488 9.60005L5.63029 8.03073H6.46365V15.4336H5.27313V9.64335ZM10.5018 15.6068C10.0111 15.6068 9.5674 15.5094 9.17056 15.3145C8.78093 15.1197 8.47428 14.8528 8.25061 14.5136C8.02694 14.1673 7.9151 13.7885 7.9151 13.3772C7.9151 12.9732 8.02333 12.616 8.23979 12.3058C8.46346 11.9883 8.74486 11.743 9.08397 11.5698V11.5049C8.81701 11.3245 8.59694 11.1008 8.42378 10.8339C8.25061 10.5597 8.16403 10.2639 8.16403 9.94639C8.16403 9.55676 8.26143 9.20321 8.45625 8.88574C8.65827 8.56106 8.93606 8.30852 9.28961 8.12814C9.65037 7.94776 10.0544 7.85757 10.5018 7.85757C10.9491 7.85757 11.3496 7.94776 11.7031 8.12814C12.0639 8.30852 12.3417 8.56106 12.5365 8.88574C12.7385 9.20321 12.8395 9.55676 12.8395 9.94639C12.8395 10.2639 12.7529 10.5597 12.5798 10.8339C12.4066 11.1008 12.1865 11.3245 11.9196 11.5049V11.5698C12.2587 11.743 12.5365 11.9883 12.7529 12.3058C12.9766 12.616 13.0884 12.9732 13.0884 13.3772C13.0884 13.7885 12.9766 14.1673 12.7529 14.5136C12.5293 14.8528 12.219 15.1197 11.8222 15.3145C11.4325 15.5094 10.9924 15.6068 10.5018 15.6068ZM10.5018 11.0287C10.8337 11.0287 11.1079 10.9349 11.3243 10.7473C11.548 10.5525 11.6598 10.2963 11.6598 9.97886C11.6598 9.6686 11.5516 9.42328 11.3351 9.2429C11.1187 9.0553 10.8409 8.9615 10.5018 8.9615C10.1627 8.9615 9.88487 9.0553 9.66841 9.2429C9.45195 9.42328 9.34372 9.6686 9.34372 9.97886C9.34372 10.2963 9.45195 10.5525 9.66841 10.7473C9.89208 10.9349 10.1699 11.0287 10.5018 11.0287ZM10.5018 14.4812C10.8986 14.4812 11.2269 14.373 11.4867 14.1565C11.7536 13.9328 11.8871 13.6442 11.8871 13.2907C11.8871 12.9443 11.7536 12.6593 11.4867 12.4357C11.2269 12.212 10.8986 12.1001 10.5018 12.1001C10.1049 12.1001 9.77303 12.212 9.50607 12.4357C9.24632 12.6593 9.11644 12.9443 9.11644 13.2907C9.11644 13.6442 9.24632 13.9328 9.50607 14.1565C9.77303 14.373 10.1049 14.4812 10.5018 14.4812ZM19.1094 13.0093H17.2045V14.9141H16.1764V13.0093H14.2715V11.9919H16.1764V10.0871H17.2045V11.9919H19.1094V13.0093Z" fill="white"/>
</svg>
