<svg width="84" height="94" viewBox="0 0 84 94" fill="none" xmlns="http://www.w3.org/2000/svg">
<g clip-path="url(#clip0_144_1005)">
<path d="M80.8804 69.0208V23.9966L41.1823 1.48633L1.48438 23.9966V69.0208L41.1823 91.5311L80.8804 69.0208Z" fill="#4285F4" stroke="#1E1E1E" stroke-width="2.97246" stroke-miterlimit="10" stroke-linejoin="round"/>
<path d="M35.9729 32.8501L38.9966 27.2422C39.7363 25.8671 41.7356 25.841 42.5134 27.1974L45.6888 32.7235C48.0712 36.867 51.6146 40.2542 55.8939 42.4825L61.6036 45.4523C63.0035 46.1789 63.03 48.1426 61.6491 48.9066L56.0229 52.0254C51.8043 54.3655 48.3558 57.8457 46.0871 62.049L43.0635 67.657C42.3236 69.032 40.3244 69.0581 39.5467 67.7017L36.3713 62.1757C33.9887 58.0321 30.4454 54.6449 26.166 52.4166L20.4564 49.4469C19.0565 48.7202 19.0299 46.7565 20.4108 45.9926L26.037 42.8737C30.2557 40.5336 33.7042 37.0534 35.9729 32.8501Z" fill="white" stroke="#1E1E1E" stroke-width="2.97246" stroke-miterlimit="10"/>
</g>
<defs>
<clipPath id="clip0_144_1005">
<rect width="83.229" height="93.1372" fill="white"/>
</clipPath>
</defs>
</svg>
