<svg width="91" height="91" viewBox="0 0 91 91" fill="none" xmlns="http://www.w3.org/2000/svg">
<g clip-path="url(#clip0_144_1013)">
<path d="M44.7079 87.9294C68.5785 87.9294 87.9294 68.5785 87.9294 44.7079C87.9294 20.8373 68.5785 1.48633 44.7079 1.48633C20.8373 1.48633 1.48633 20.8373 1.48633 44.7079C1.48633 68.5785 20.8373 87.9294 44.7079 87.9294Z" fill="#EA4335" stroke="#1E1E1E" stroke-width="2.97246" stroke-linecap="round" stroke-linejoin="round"/>
<path d="M40.3566 62.9148C39.8857 62.6174 21.0176 44.8563 21.0176 44.8563L40.3566 26.5044" stroke="#1E1E1E" stroke-width="2.97246" stroke-linecap="round" stroke-linejoin="round"/>
<path d="M50.6543 44.7075C57.9199 44.7075 63.8141 49.5195 63.8141 55.4592C63.8141 61.3989 57.924 66.2109 50.6543 66.2109" stroke="#1E1E1E" stroke-width="2.97246" stroke-linecap="round" stroke-linejoin="round"/>
<path d="M50.6543 23.2041C57.9199 23.2041 63.8141 28.0161 63.8141 33.9558C63.8141 39.8955 57.924 44.7075 50.6543 44.7075" stroke="#1E1E1E" stroke-width="2.97246" stroke-linecap="round" stroke-linejoin="round"/>
</g>
<defs>
<clipPath id="clip0_144_1013">
<rect width="90.1647" height="90.1647" fill="white"/>
</clipPath>
</defs>
</svg>
