<svg width="91" height="91" viewBox="0 0 91 91" fill="none" xmlns="http://www.w3.org/2000/svg">
<g clip-path="url(#clip0_144_1020)">
<path d="M44.7079 87.9294C68.5785 87.9294 87.9294 68.5785 87.9294 44.7079C87.9294 20.8373 68.5785 1.48633 44.7079 1.48633C20.8373 1.48633 1.48633 20.8373 1.48633 44.7079C1.48633 68.5785 20.8373 87.9294 44.7079 87.9294Z" fill="#FFD427" stroke="#1E1E1E" stroke-width="2.97246" stroke-linecap="round" stroke-linejoin="round"/>
<path d="M59.0715 26.9888H31.0899C28.8247 26.9888 26.9883 28.8251 26.9883 31.0904V59.072C26.9883 61.3372 28.8247 63.1736 31.0899 63.1736H59.0715C61.3368 63.1736 63.1731 61.3372 63.1731 59.072V31.0904C63.1731 28.8251 61.3368 26.9888 59.0715 26.9888Z" stroke="#1E1E1E" stroke-width="1.98164" stroke-linejoin="round"/>
<path d="M56.2654 32.2598H33.9004C32.9943 32.2598 32.2598 32.9943 32.2598 33.9004V56.2654C32.2598 57.1715 32.9943 57.906 33.9004 57.906H56.2654C57.1715 57.906 57.9061 57.1715 57.9061 56.2654V33.9004C57.9061 32.9943 57.1715 32.2598 56.2654 32.2598Z" stroke="#1E1E1E" stroke-width="1.98164" stroke-linejoin="round"/>
<path d="M45.082 26.9893V18.8257" stroke="#1E1E1E" stroke-width="1.98164" stroke-linejoin="round"/>
<path d="M51.6777 26.9893V18.8257" stroke="#1E1E1E" stroke-width="1.98164" stroke-linejoin="round"/>
<path d="M38.4863 26.9893V18.8257" stroke="#1E1E1E" stroke-width="1.98164" stroke-linejoin="round"/>
<path d="M63.1738 45.0835H71.3396" stroke="#1E1E1E" stroke-width="1.98164" stroke-linejoin="round"/>
<path d="M63.1738 51.6768H71.3396" stroke="#1E1E1E" stroke-width="1.98164" stroke-linejoin="round"/>
<path d="M63.1738 38.4873H71.3396" stroke="#1E1E1E" stroke-width="1.98164" stroke-linejoin="round"/>
<path d="M18.8262 45.0835H26.9898" stroke="#1E1E1E" stroke-width="1.98164" stroke-linejoin="round"/>
<path d="M18.8262 51.6768H26.9898" stroke="#1E1E1E" stroke-width="1.98164" stroke-linejoin="round"/>
<path d="M18.8262 38.4873H26.9898" stroke="#1E1E1E" stroke-width="1.98164" stroke-linejoin="round"/>
<path d="M45.082 63.1743V71.3379" stroke="#1E1E1E" stroke-width="1.98164" stroke-linejoin="round"/>
<path d="M38.4863 63.1743V71.3379" stroke="#1E1E1E" stroke-width="1.98164" stroke-linejoin="round"/>
<path d="M51.6777 63.1743V71.3379" stroke="#1E1E1E" stroke-width="1.98164" stroke-linejoin="round"/>
</g>
<defs>
<clipPath id="clip0_144_1020">
<rect width="90.1647" height="90.1647" fill="white"/>
</clipPath>
</defs>
</svg>
