<svg width="114" height="114" viewBox="0 0 114 114" fill="none" xmlns="http://www.w3.org/2000/svg">
<path fill-rule="evenodd" clip-rule="evenodd" d="M27.3161 99.921C25.6579 101.515 22.9847 101.483 21.3449 99.8429L13.4583 91.9518C11.8185 90.312 11.7864 87.6433 13.3802 85.9806L16.499 82.7331C18.0929 81.0704 18.667 77.993 17.7943 75.8847L15.5758 70.5244C14.6985 68.4023 12.1171 66.643 9.81586 66.5971L5.3145 66.5053C3.01329 66.4593 1.14844 64.5485 1.14844 62.229V51.072C1.14844 48.757 3.0087 46.8416 5.30991 46.7957L9.81127 46.7039C12.1125 46.6579 14.6939 44.8895 15.5712 42.7766L17.7897 37.4164C18.667 35.2943 18.0883 32.226 16.4944 30.5633L13.3756 27.3159C11.7818 25.6577 11.8139 22.9844 13.4537 21.3447L21.3449 13.4581C22.9847 11.8183 25.6533 11.7861 27.3161 13.38L30.5635 16.4988C32.2262 18.0926 35.3037 18.6668 37.412 17.7941L42.7723 15.5755C44.8944 14.6982 46.6536 12.1168 46.6995 9.81562L46.7914 5.31428C46.8373 3.01308 48.7481 1.14819 51.0677 1.14819H62.2246C64.5396 1.14819 66.455 3.00848 66.5009 5.30969L66.5928 9.81102C66.6387 12.1122 68.4071 14.6936 70.52 15.5709L75.8803 17.7895C78.0024 18.6668 81.0706 18.088 82.7334 16.4942L85.9808 13.3754C87.639 11.7815 90.3122 11.8137 91.952 13.4535L99.8386 21.3447C101.478 22.9844 101.511 25.6531 99.9167 27.3159L96.7979 30.5633C95.204 32.226 94.6299 35.3035 95.5026 37.4118L97.7211 42.772C98.5984 44.8941 101.18 46.6533 103.481 46.6993L107.982 46.7911C110.284 46.837 112.148 48.7479 112.148 51.0674V62.2244C112.148 64.5394 110.288 66.4547 107.987 66.5007L103.486 66.5925C101.184 66.6385 98.603 68.4069 97.7257 70.5198L95.5072 75.8801C94.6299 78.0021 95.2086 81.0704 96.8025 82.7331L99.9212 85.9806C101.515 87.6387 101.483 90.312 99.8432 91.9518L91.952 99.8383C90.3122 101.478 87.6435 101.51 85.9808 99.9164L82.7334 96.7976C81.0706 95.2038 77.9932 94.6296 75.8849 95.5023L70.5246 97.7208C68.4025 98.5982 66.6433 101.18 66.5974 103.481L66.5055 107.982C66.4596 110.283 64.5488 112.148 62.2292 112.148H51.0723C48.7573 112.148 46.8419 110.288 46.796 107.987L46.7041 103.485C46.6582 101.184 44.8898 98.6028 42.7769 97.7254L37.4166 95.5069C35.2945 94.6296 32.2262 95.2083 30.5635 96.8022L27.3161 99.921ZM46.2631 81.718C60.1025 87.4504 75.9721 80.8775 81.7045 67.0381C87.4368 53.1987 80.8639 37.3291 67.0245 31.5967C53.1851 25.8644 37.3155 32.4373 31.5832 46.2767C25.8508 60.1161 32.4237 75.9857 46.2631 81.718Z" stroke="#1E1E1E" stroke-width="2.29661" stroke-linejoin="round"/>
</svg>
