<svg width="101" height="101" viewBox="0 0 101 101" fill="none" xmlns="http://www.w3.org/2000/svg">
<path d="M98.7026 19.1027L81.1941 1.5942C80.4487 0.848807 79.2436 0.848807 78.5024 1.5942L50.1484 29.9482L21.7944 1.5942C21.049 0.848807 19.8439 0.848807 19.1027 1.5942L1.5942 19.1027C0.848807 19.8481 0.848807 21.0532 1.5942 21.7944L29.9482 50.1484L1.5942 78.5024C0.848807 79.2478 0.848807 80.4528 1.5942 81.1941L19.1027 98.7026C19.8481 99.448 21.0531 99.448 21.7944 98.7026L50.1484 70.3486L78.5024 98.7026C79.2478 99.448 80.4528 99.448 81.1941 98.7026L98.7026 81.1941C99.448 80.4487 99.448 79.2436 98.7026 78.5024L70.3486 50.1484L98.7026 21.7944C99.448 21.049 99.448 19.844 98.7026 19.1027Z" stroke="#1E1E1E" stroke-width="2.07054" stroke-miterlimit="10"/>
</svg>
