<svg width="17" height="22" viewBox="0 0 17 22" fill="none" xmlns="http://www.w3.org/2000/svg">
<path fill-rule="evenodd" clip-rule="evenodd" d="M7.59527 21.058C7.59527 21.058 0 14.6613 0 8.36714C0 6.14804 0.881536 4.01982 2.45068 2.45068C4.01982 0.881536 6.14804 0 8.36714 0C10.5862 0 12.7145 0.881536 14.2836 2.45068C15.8527 4.01982 16.7343 6.14804 16.7343 8.36714C16.7343 14.6613 9.13901 21.058 9.13901 21.058C8.71647 21.4471 8.02095 21.4429 7.59527 21.058ZM8.36714 12.0278C8.84786 12.0278 9.32387 11.9331 9.768 11.7491C10.2121 11.5652 10.6157 11.2955 10.9556 10.9556C11.2955 10.6157 11.5652 10.2121 11.7491 9.768C11.9331 9.32388 12.0278 8.84786 12.0278 8.36714C12.0278 7.88642 11.9331 7.41041 11.7491 6.96628C11.5652 6.52215 11.2955 6.11861 10.9556 5.77869C10.6157 5.43877 10.2121 5.16913 9.768 4.98517C9.32387 4.8012 8.84786 4.70652 8.36714 4.70652C7.39628 4.70652 6.46519 5.09219 5.77869 5.77869C5.09219 6.46519 4.70652 7.39628 4.70652 8.36714C4.70652 9.338 5.09219 10.2691 5.77869 10.9556C6.46519 11.6421 7.39628 12.0278 8.36714 12.0278Z" fill="black"/>
</svg>
