<svg width="26" height="25" viewBox="0 0 26 25" fill="none" xmlns="http://www.w3.org/2000/svg">
<path fill-rule="evenodd" clip-rule="evenodd" d="M8.75348 23.1496C8.75348 23.1496 1.1582 16.7529 1.1582 10.4587C1.1582 8.23959 2.03974 6.11138 3.60888 4.54223C5.17803 2.97309 7.30624 2.09155 9.52534 2.09155C11.7444 2.09155 13.8727 2.97309 15.4418 4.54223C17.011 6.11138 17.8925 8.23959 17.8925 10.4587C17.8925 16.7529 10.2972 23.1496 10.2972 23.1496C9.87467 23.5386 9.17915 23.5344 8.75348 23.1496ZM9.52534 14.1193C10.0061 14.1193 10.4821 14.0246 10.9262 13.8407C11.3703 13.6567 11.7739 13.3871 12.1138 13.0471C12.4537 12.7072 12.7234 12.3037 12.9073 11.8596C13.0913 11.4154 13.186 10.9394 13.186 10.4587C13.186 9.97798 13.0913 9.50196 12.9073 9.05784C12.7234 8.61371 12.4537 8.21016 12.1138 7.87024C11.7739 7.53032 11.3703 7.26068 10.9262 7.07672C10.4821 6.89276 10.0061 6.79807 9.52534 6.79807C8.55449 6.79807 7.62339 7.18374 6.93689 7.87024C6.25039 8.55674 5.86472 9.48784 5.86472 10.4587C5.86472 11.4296 6.25039 12.3606 6.93689 13.0471C7.62339 13.7336 8.55449 14.1193 9.52534 14.1193Z" fill="black"/>
</svg>
