<svg width="28" height="28" viewBox="0 0 28 28" fill="none" xmlns="http://www.w3.org/2000/svg">
<path d="M12.1289 19.928C12.1273 18.1215 12.7522 16.3703 13.8971 14.9729C15.0421 13.5755 16.6362 12.6185 18.4078 12.2648C20.1794 11.9112 22.0188 12.1829 23.6125 13.0336C25.2062 13.8843 26.4555 15.2614 27.1476 16.9301C27.8396 18.5988 27.9316 20.4559 27.4077 22.1848C26.8839 23.9137 25.7766 25.4075 24.2748 26.4114C22.7729 27.4154 20.9693 27.8674 19.1715 27.6905C17.3736 27.5136 15.6927 26.7186 14.4154 25.4412C13.6909 24.7174 13.1161 23.858 12.7238 22.912C12.3315 21.9661 12.1294 20.9521 12.1289 19.928ZM15.6438 19.1121C15.5363 19.2192 15.451 19.3465 15.3928 19.4866C15.3346 19.6268 15.3046 19.777 15.3046 19.9288C15.3046 20.0805 15.3346 20.2308 15.3928 20.371C15.451 20.5111 15.5363 20.6384 15.6438 20.7455L17.9553 23.055C18.1721 23.2714 18.4659 23.3931 18.7723 23.3933H18.8104C18.9684 23.3881 19.1237 23.3505 19.2666 23.2827C19.4094 23.2149 19.5368 23.1185 19.6408 22.9994L23.6845 18.3778C23.786 18.2639 23.8639 18.131 23.9138 17.9868C23.9637 17.8426 23.9845 17.6899 23.9751 17.5376C23.9657 17.3853 23.9263 17.2363 23.859 17.0994C23.7918 16.9624 23.6981 16.8401 23.5834 16.7395C23.4687 16.6388 23.3352 16.5619 23.1906 16.5132C23.046 16.4644 22.8932 16.4447 22.7409 16.4553C22.5887 16.4659 22.4401 16.5065 22.3036 16.5748C22.1672 16.6431 22.0456 16.7377 21.9458 16.8532L18.7161 20.546L17.2787 19.1091C17.1716 19.0015 17.0443 18.9161 16.9041 18.8579C16.7639 18.7996 16.6136 18.7696 16.4618 18.7696C16.3099 18.7696 16.1596 18.7996 16.0194 18.8579C15.8792 18.9161 15.7519 19.0015 15.6448 19.1091L15.6438 19.1121ZM3.17658 24.2604C2.75932 24.2606 2.34613 24.1785 1.9606 24.0189C1.57508 23.8593 1.2248 23.6253 0.92978 23.3302C0.634762 23.0352 0.400795 22.6848 0.241257 22.2993C0.0817185 21.9138 -0.000262516 21.5005 9.89313e-07 21.0833V6.64335C-0.000328413 6.22606 0.081604 5.81279 0.241113 5.42719C0.400622 5.04158 0.634578 4.6912 0.929603 4.39608C1.22463 4.10097 1.57493 3.8669 1.96049 3.70727C2.34604 3.54764 2.75928 3.46558 3.17658 3.46577H3.46577V4.91172C3.46557 5.32893 3.5476 5.74209 3.70717 6.12758C3.86673 6.51307 4.10071 6.86333 4.39572 7.15834C4.69073 7.45335 5.041 7.68733 5.42649 7.8469C5.81197 8.00646 6.22513 8.08849 6.64234 8.0883H12.996C13.4133 8.08863 13.8265 8.00669 14.2121 7.84718C14.5977 7.68766 14.948 7.4537 15.2431 7.15867C15.5382 6.86363 15.7722 6.51332 15.9318 6.12777C16.0913 5.74222 16.1733 5.32899 16.1731 4.91172V3.46577H16.4623C16.8795 3.46558 17.2927 3.54762 17.6782 3.70722C18.0638 3.86682 18.414 4.10084 18.7091 4.39591C19.0041 4.69097 19.238 5.04129 19.3976 5.42684C19.5571 5.81239 19.6391 6.2256 19.6388 6.64285V9.83145C18.1027 9.86835 16.5959 10.2601 15.2363 10.9762H4.33183C4.10207 10.9762 3.88172 11.0675 3.71925 11.2299C3.55679 11.3924 3.46552 11.6127 3.46552 11.8425C3.46552 12.0723 3.55679 12.2926 3.71925 12.4551C3.88172 12.6175 4.10207 12.7088 4.33183 12.7088H12.8692C12.2499 13.311 11.7108 13.9905 11.2654 14.7306H4.33183C4.10207 14.7306 3.88172 14.8219 3.71925 14.9844C3.55679 15.1468 3.46552 15.3672 3.46552 15.597C3.46552 15.8267 3.55679 16.0471 3.71925 16.2095C3.88172 16.372 4.10207 16.4633 4.33183 16.4633H10.4309C10.1957 17.1186 10.0259 17.7954 9.92367 18.4841H4.33183C4.10207 18.4841 3.88172 18.5754 3.71925 18.7378C3.55679 18.9003 3.46552 19.1206 3.46552 19.3504C3.46552 19.5802 3.55679 19.8005 3.71925 19.963C3.88172 20.1254 4.10207 20.2167 4.33183 20.2167H9.83095C9.86717 21.6156 10.1937 22.9918 10.7897 24.2579L3.17658 24.2604ZM6.64234 6.93154C6.10745 6.92865 5.59528 6.71495 5.21696 6.33681C4.83863 5.95868 4.62468 5.44661 4.62152 4.91172V3.17709C4.62336 2.94787 4.71526 2.72857 4.87739 2.56654C5.03952 2.4045 5.25887 2.31272 5.48809 2.31102H6.75862C6.94825 1.64536 7.34967 1.05965 7.90208 0.642624C8.45449 0.225602 9.12778 0 9.81992 0C10.5121 0 11.1853 0.225602 11.7378 0.642624C12.2902 1.05965 12.6916 1.64536 12.8812 2.31102H14.1512C14.3806 2.31259 14.6 2.40431 14.7623 2.56636C14.9245 2.72841 15.0165 2.94779 15.0183 3.17709V4.91172C15.0157 5.44722 14.8018 5.96002 14.423 6.33863C14.0443 6.71724 13.5315 6.93104 12.996 6.93354L6.64234 6.93154Z" fill="#1E1E1E"/>
</svg>
