<svg width="38" height="40" viewBox="0 0 38 40" fill="none" xmlns="http://www.w3.org/2000/svg">
<path fill-rule="evenodd" clip-rule="evenodd" d="M15.1613 17.1891C15.1499 17.0714 15.1435 16.9541 15.1435 16.8355C15.1435 15.8791 15.5235 14.9618 16.1998 14.2855C16.8761 13.6092 17.7934 13.2292 18.7499 13.2292C19.7063 13.2292 20.6236 13.6092 21.2999 14.2855C21.9762 14.9618 22.3562 15.8791 22.3562 16.8355C22.3562 16.9541 22.3502 17.0714 22.3388 17.1891C21.2802 17.9083 20.0299 18.2929 18.7501 18.2929C17.4702 18.2929 16.2199 17.9083 15.1613 17.1891ZM18.75 12.2218C18.3797 12.2219 18.0176 12.1122 17.7096 11.9065C17.4016 11.7008 17.1615 11.4084 17.0198 11.0662C16.878 10.7241 16.8408 10.3476 16.9131 9.9843C16.9853 9.62105 17.1636 9.28738 17.4255 9.0255C17.6874 8.76361 18.0211 8.58528 18.3843 8.51305C18.7476 8.44082 19.1241 8.47795 19.4662 8.61973C19.8084 8.76151 20.1008 9.00158 20.3065 9.30957C20.5122 9.61755 20.6219 9.97963 20.6218 10.35C20.6211 10.8462 20.4236 11.3219 20.0728 11.6728C19.7219 12.0236 19.2462 12.2211 18.75 12.2218ZM18.75 5.49288C17.4868 5.49215 16.2517 5.86546 15.2003 6.56574C14.149 7.26603 13.3285 8.26192 12.8424 9.42785C12.3563 10.5938 12.2263 11.8775 12.4688 13.1173C12.7113 14.357 13.3154 15.4971 14.205 16.394C14.2869 15.5641 14.594 14.7723 15.0932 14.1042C15.5923 13.4361 16.2646 12.9171 17.0372 12.6033C16.5649 12.2447 16.217 11.7468 16.0427 11.18C15.8684 10.6132 15.8764 10.0059 16.0655 9.44386C16.2547 8.88181 16.6156 8.39332 17.0972 8.04728C17.5788 7.70123 18.1569 7.51508 18.7499 7.51508C19.3429 7.51508 19.921 7.70123 20.4026 8.04728C20.8842 8.39332 21.2451 8.88181 21.4342 9.44386C21.6234 10.0059 21.6314 10.6132 21.4571 11.18C21.2828 11.7468 20.9349 12.2447 20.4626 12.6033C21.2351 12.9173 21.9072 13.4364 22.4063 14.1044C22.9054 14.7725 23.2126 15.5641 23.2948 16.394C24.1844 15.4971 24.7886 14.357 25.0311 13.1173C25.2737 11.8775 25.1437 10.5937 24.6576 9.42775C24.1715 8.26178 23.3511 7.26585 22.2998 6.56553C21.2484 5.86521 20.0132 5.49217 18.75 5.49288ZM26.9285 26.8309C25.353 27.2643 23.9658 28.2081 22.9842 29.5144C22.0027 30.8208 21.4823 32.4158 21.5045 34.0497H29.7756V33.245C29.7741 33.06 29.8097 32.8766 29.8804 32.7056C29.9512 32.5346 30.0555 32.3797 30.1874 32.2498L37.0042 25.433C37.1849 25.2599 37.323 25.0471 37.4074 24.8115C37.4919 24.5759 37.5205 24.3239 37.491 24.0753L36.5627 14.7362C36.5608 14.7165 36.5608 14.6967 36.5627 14.6769C36.5712 14.3036 36.4314 13.9421 36.1738 13.6716C35.9163 13.4011 35.5621 13.2437 35.1888 13.2339C35.1774 13.2339 35.1661 13.2331 35.1548 13.2331C34.788 13.2337 34.4359 13.377 34.173 13.6326C33.91 13.8882 33.7568 14.2361 33.7457 14.6026L33.5385 21.3108C33.7958 21.482 34.012 21.7082 34.1715 21.973C34.331 22.2378 34.4299 22.5346 34.4611 22.8422C34.4922 23.1497 34.4548 23.4603 34.3516 23.7517C34.2484 24.0431 34.0819 24.308 33.8642 24.5274L30.4561 27.9355C30.4115 27.98 30.3586 28.0153 30.3003 28.0394C30.2421 28.0635 30.1796 28.0759 30.1166 28.0759C30.0536 28.0758 29.9912 28.0634 29.9329 28.0392C29.8747 28.0151 29.8218 27.9797 29.7773 27.9351C29.7327 27.8905 29.6974 27.8375 29.6733 27.7793C29.6492 27.721 29.6368 27.6586 29.6369 27.5956C29.6369 27.5325 29.6494 27.4701 29.6735 27.4119C29.6977 27.3537 29.7331 27.3008 29.7777 27.2562L33.1849 23.8482C33.3954 23.6366 33.5136 23.3502 33.5136 23.0517C33.5136 22.7533 33.3954 22.4669 33.1849 22.2553C32.9735 22.0445 32.6871 21.9261 32.3885 21.9261C32.0899 21.9261 31.8035 22.0445 31.592 22.2553L27.141 26.7068C27.0819 26.7658 27.0089 26.8086 26.9285 26.8309ZM30.8919 35.458V39.5532C30.8917 39.6719 30.8443 39.7857 30.7603 39.8695C30.6762 39.9534 30.5623 40.0004 30.4436 40.0004H20.8618C20.7431 40.0004 20.6293 39.9533 20.5453 39.8694C20.4614 39.7856 20.4141 39.6719 20.4138 39.5532V35.458C20.4139 35.3392 20.4611 35.2253 20.5451 35.1413C20.6291 35.0573 20.743 35.0101 20.8618 35.01H30.4436C30.5624 35.0101 30.6763 35.0573 30.7603 35.1413C30.8443 35.2253 30.8918 35.3392 30.8919 35.458ZM28.802 36.9365C28.529 36.9364 28.2643 37.0311 28.0532 37.2043C27.8421 37.3775 27.6975 37.6185 27.6442 37.8864C27.5909 38.1542 27.6321 38.4322 27.7608 38.6731C27.8895 38.9139 28.0977 39.1027 28.35 39.2072C28.6023 39.3117 28.883 39.3256 29.1444 39.2463C29.4057 39.167 29.6315 38.9996 29.7832 38.7726C29.9349 38.5455 30.0032 38.2729 29.9764 38.0011C29.9497 37.7294 29.8295 37.4753 29.6364 37.2822C29.5272 37.1721 29.3972 37.0849 29.254 37.0255C29.1107 36.9662 28.9571 36.9359 28.802 36.9365ZM28.9572 38.2724C28.9881 38.2417 29.0092 38.2025 29.0178 38.1598C29.0264 38.1171 29.0221 38.0728 29.0055 38.0325C28.9889 37.9922 28.9607 37.9578 28.9244 37.9336C28.8882 37.9094 28.8456 37.8965 28.802 37.8966C28.7659 37.8965 28.7303 37.9054 28.6984 37.9225C28.6665 37.9395 28.6392 37.9641 28.6191 37.9942C28.599 38.0242 28.5866 38.0588 28.583 38.0948C28.5794 38.1308 28.5848 38.1671 28.5986 38.2005C28.6124 38.2339 28.6342 38.2634 28.6621 38.2864C28.6901 38.3094 28.7232 38.3251 28.7587 38.3323C28.7941 38.3394 28.8308 38.3376 28.8654 38.3272C28.9001 38.3168 28.9316 38.2979 28.9572 38.2724ZM17.0872 39.5532C17.087 39.6718 17.0397 39.7855 16.9558 39.8693C16.8718 39.9532 16.7581 40.0003 16.6395 40.0004H7.05806C6.93939 40.0004 6.82558 39.9533 6.7416 39.8694C6.65761 39.7856 6.61032 39.6719 6.61009 39.5532V35.458C6.61018 35.3392 6.6574 35.2253 6.74139 35.1413C6.82538 35.0573 6.93928 35.0101 7.05806 35.01H16.6395C16.7582 35.0101 16.8721 35.0573 16.9561 35.1413C17.0401 35.2253 17.0873 35.3392 17.0874 35.458L17.0872 39.5532ZM0.0114212 24.0754C-0.0182531 24.3238 0.0100876 24.5757 0.0942155 24.8113C0.178343 25.0468 0.315966 25.2597 0.496265 25.4331L7.31376 32.2499C7.44571 32.3797 7.55019 32.5346 7.62099 32.7056C7.69179 32.8766 7.72746 33.06 7.72587 33.2451V34.0498H15.9971C16.0193 32.4159 15.4989 30.8209 14.5174 29.5145C13.5358 28.2082 12.1487 27.2644 10.5732 26.831C10.4928 26.8086 10.4194 26.7659 10.3603 26.7069L5.90892 22.2553C5.75158 22.0974 5.55087 21.9898 5.33228 21.9462C5.11369 21.9025 4.88706 21.9248 4.68115 22.0102C4.47524 22.0956 4.29934 22.2402 4.17576 22.4257C4.05218 22.6112 3.9865 22.8293 3.98705 23.0522C3.9864 23.2 4.01516 23.3465 4.07166 23.4832C4.12815 23.6198 4.21124 23.7438 4.31611 23.848L7.72337 27.2561C7.81344 27.3461 7.86408 27.4681 7.86415 27.5954C7.86421 27.7228 7.8137 27.8449 7.72372 27.935C7.63375 28.025 7.51168 28.0757 7.38436 28.0757C7.25705 28.0758 7.13493 28.0253 7.04486 27.9353L3.63712 24.5274C3.24727 24.1353 3.02844 23.6048 3.02844 23.0519C3.02844 22.499 3.24727 21.9685 3.63712 21.5764C3.73659 21.4772 3.8457 21.3883 3.96283 21.3108L3.75564 14.6041C3.74521 14.2376 3.59248 13.8894 3.32981 13.6335C3.06715 13.3776 2.71517 13.234 2.34845 13.2331C2.33556 13.2331 2.32353 13.2339 2.31072 13.2339C1.93789 13.2443 1.58437 13.4019 1.32755 13.6724C1.07074 13.9429 0.931556 14.3041 0.940484 14.6769C0.941259 14.6967 0.94037 14.7166 0.937828 14.7362L0.0114212 24.0754ZM8.69954 36.9365C8.42646 36.9364 8.16181 37.0311 7.95069 37.2043C7.73956 37.3775 7.59503 37.6185 7.54172 37.8864C7.4884 38.1542 7.52961 38.4322 7.65831 38.6731C7.78701 38.9139 7.99524 39.1027 8.24753 39.2072C8.49981 39.3117 8.78053 39.3256 9.04186 39.2463C9.30319 39.167 9.52895 38.9996 9.68068 38.7726C9.83241 38.5455 9.90071 38.2729 9.87395 38.0011C9.84719 37.7294 9.72702 37.4753 9.53392 37.2822C9.4247 37.1721 9.29469 37.0849 9.15145 37.0255C9.00821 36.9662 8.85459 36.9359 8.69954 36.9365ZM8.85579 38.2724C8.89196 38.2365 8.91453 38.1891 8.91968 38.1383C8.92482 38.0876 8.91222 38.0366 8.88401 37.9941C8.8558 37.9517 8.81374 37.9203 8.76498 37.9053C8.71622 37.8904 8.66379 37.8928 8.61661 37.9121C8.56943 37.9315 8.53043 37.9666 8.50624 38.0115C8.48205 38.0564 8.47418 38.1083 8.48396 38.1584C8.49374 38.2084 8.52057 38.2535 8.55988 38.286C8.59919 38.3185 8.64855 38.3364 8.69954 38.3366C8.72855 38.3368 8.7573 38.3312 8.78413 38.3202C8.81096 38.3092 8.83532 38.2929 8.85579 38.2724ZM18.75 23.0987C16.6682 23.1058 14.6264 22.5267 12.8582 21.4277L13.425 23.2237C13.4633 23.345 13.4518 23.4766 13.3931 23.5895C13.3343 23.7024 13.2331 23.7873 13.1118 23.8256C12.9904 23.8639 12.8588 23.8524 12.7459 23.7936C12.6331 23.7349 12.5481 23.6337 12.5099 23.5123L11.5106 20.3477C11.4895 20.2798 11.4836 20.2081 11.4935 20.1377C11.5034 20.0672 11.5287 19.9999 11.5677 19.9404C11.6067 19.8809 11.6584 19.8309 11.719 19.7937C11.7797 19.7566 11.8478 19.7334 11.9185 19.7258L15.2194 19.3843C15.346 19.3711 15.4727 19.4088 15.5716 19.4891C15.6704 19.5693 15.7334 19.6856 15.7465 19.8122C15.7597 19.9389 15.722 20.0656 15.6417 20.1644C15.5615 20.2633 15.4453 20.3262 15.3186 20.3394L13.2706 20.5515C14.9076 21.594 16.8093 22.1449 18.75 22.1387C21.1103 22.1373 23.3981 21.3225 25.2278 19.8315C25.2766 19.7913 25.3328 19.7611 25.3932 19.7426C25.4537 19.7242 25.5172 19.7179 25.5801 19.724C25.643 19.7302 25.704 19.7488 25.7597 19.7786C25.8154 19.8084 25.8647 19.849 25.9047 19.8979C25.9447 19.9468 25.9746 20.0032 25.9928 20.0637C26.0109 20.1243 26.0169 20.1878 26.0104 20.2507C26.004 20.3135 25.9851 20.3745 25.955 20.4301C25.9249 20.4856 25.8841 20.5347 25.835 20.5744C23.8341 22.2057 21.3317 23.0973 18.75 23.0987ZM11.6642 3.21054C13.6659 1.57993 16.1683 0.688652 18.7501 0.686707C20.7863 0.68181 22.7847 1.23662 24.5269 2.29054L23.9035 0.650457C23.8583 0.53141 23.8622 0.399291 23.9145 0.283165C23.9667 0.167039 24.0629 0.0764186 24.182 0.0312385C24.301 -0.0139415 24.4331 -0.00997989 24.5493 0.0422519C24.6654 0.0944837 24.756 0.190707 24.8012 0.309754L25.9805 3.41132C26.0056 3.47796 26.0156 3.54934 26.0098 3.62031C26.004 3.69128 25.9825 3.76009 25.9469 3.82177C25.9113 3.88344 25.8625 3.93647 25.804 3.97701C25.7454 4.01755 25.6786 4.04461 25.6084 4.05624L22.3324 4.58569C22.3067 4.59039 22.2805 4.59266 22.2543 4.59249C22.1337 4.5924 22.0175 4.54689 21.929 4.46502C21.8404 4.38315 21.7859 4.27093 21.7763 4.1507C21.7668 4.03047 21.8028 3.91104 21.8774 3.8162C21.9519 3.72136 22.0594 3.65806 22.1785 3.6389L24.3177 3.29249C22.6615 2.21363 20.7263 1.64167 18.7496 1.64679C16.3894 1.64812 14.1017 2.46294 12.2721 3.95397C12.2233 3.99392 12.1671 4.02386 12.1067 4.04208C12.0463 4.06031 11.9829 4.06646 11.9202 4.06019C11.8574 4.05392 11.7965 4.03534 11.7409 4.00553C11.6853 3.97572 11.6362 3.93525 11.5962 3.88643C11.5156 3.78785 11.4773 3.66125 11.49 3.5345C11.5027 3.40774 11.5656 3.29121 11.6642 3.21054ZM27.425 17.3441C28.457 15.7138 29.0018 13.8226 28.9953 11.893C28.9941 9.53268 28.1795 7.24485 26.6888 5.41483C26.6082 5.31615 26.5702 5.18953 26.583 5.06281C26.5959 4.93609 26.6585 4.81966 26.7572 4.73913C26.8559 4.6586 26.9825 4.62057 27.1092 4.63341C27.2359 4.64624 27.3524 4.70889 27.4329 4.80757C29.0635 6.80927 29.9547 9.31168 29.9563 11.8935C29.9636 13.9865 29.3781 16.0388 28.2677 17.8129L30.1029 17.2645C30.1633 17.2465 30.2267 17.2406 30.2894 17.2471C30.3521 17.2535 30.4129 17.2723 30.4683 17.3023C30.5238 17.3323 30.5728 17.3729 30.6126 17.4218C30.6523 17.4707 30.682 17.527 30.7001 17.5874C30.7181 17.6478 30.724 17.7111 30.7175 17.7738C30.711 17.8365 30.6923 17.8974 30.6623 17.9528C30.6323 18.0083 30.5917 18.0573 30.5428 18.097C30.4939 18.1368 30.4376 18.1665 30.3772 18.1845L27.1979 19.1344C27.1296 19.1548 27.0577 19.1598 26.9873 19.1489C26.9168 19.1381 26.8497 19.1117 26.7908 19.0717C26.7318 19.0318 26.6825 18.9791 26.6463 18.9177C26.6102 18.8563 26.5882 18.7876 26.582 18.7166L26.2918 15.4112C26.2807 15.2844 26.3203 15.1583 26.4022 15.0607C26.484 14.9631 26.6012 14.902 26.7281 14.8909C26.8549 14.8797 26.981 14.9194 27.0786 15.0012C27.1762 15.083 27.2373 15.2002 27.2485 15.3271L27.425 17.3441ZM10.0762 6.4371C9.04372 8.06913 8.49846 9.96193 8.50447 11.8931C8.50598 14.2532 9.3205 16.5408 10.811 18.3707C10.8915 18.4693 10.9295 18.5958 10.9168 18.7225C10.904 18.8491 10.8414 18.9655 10.7428 19.046C10.6442 19.1265 10.5177 19.1646 10.3911 19.1518C10.2644 19.139 10.148 19.0765 10.0675 18.9779C8.43692 16.9766 7.54575 14.4746 7.54408 11.8931C7.53717 9.80136 8.12164 7.75025 9.23009 5.97632L7.39986 6.52655C7.33928 6.54555 7.27554 6.55235 7.21233 6.54654C7.14911 6.54073 7.08767 6.52243 7.03158 6.49271C6.97548 6.46299 6.92584 6.42243 6.88553 6.37339C6.84522 6.32434 6.81504 6.26779 6.79675 6.207C6.77845 6.14621 6.7724 6.08239 6.77894 6.01925C6.78549 5.9561 6.8045 5.89488 6.83487 5.83913C6.86524 5.78339 6.90637 5.73422 6.95588 5.69449C7.00539 5.65475 7.0623 5.62523 7.1233 5.60765L10.3007 4.6514C10.3689 4.63092 10.4409 4.62588 10.5113 4.63664C10.5817 4.6474 10.6488 4.67369 10.7078 4.71361C10.7668 4.75352 10.8162 4.80606 10.8523 4.86741C10.8885 4.92877 10.9106 4.99741 10.917 5.06835L11.2138 8.37374C11.2195 8.43652 11.2127 8.49979 11.1939 8.55995C11.1751 8.62012 11.1446 8.67598 11.1042 8.72435C11.0638 8.77272 11.0143 8.81264 10.9584 8.84184C10.9025 8.87104 10.8415 8.88894 10.7787 8.89452C10.764 8.89561 10.7497 8.8964 10.7353 8.8964C10.6155 8.89647 10.5001 8.85163 10.4117 8.77074C10.3233 8.68985 10.2685 8.57878 10.258 8.45944L10.0762 6.4371Z" fill="black"/>
</svg>
