<svg width="30" height="40" viewBox="0 0 30 40" fill="none" xmlns="http://www.w3.org/2000/svg">
<path d="M27.962 30.0486C27.3183 29.2851 26.5126 28.7066 25.6102 28.3463C25.592 28.3397 25.5739 28.3331 25.5566 28.3257C25.026 28.1199 24.4633 27.9877 23.8807 27.9381C22.2826 27.8034 20.7273 28.2984 19.501 29.3322C18.2764 30.3659 17.5269 31.8154 17.3922 33.4135C17.2558 35.0117 17.7508 36.566 18.7845 37.7907C19.9704 39.1972 21.6694 39.9219 23.3791 39.9219C24.7467 39.9219 26.1209 39.4583 27.2455 38.5096C29.7751 36.3744 30.0965 32.5789 27.962 30.0486ZM26.6267 32.1451L23.061 36.4313C22.952 36.5627 22.7908 36.6388 22.6205 36.6388H22.6181C22.4487 36.6388 22.2876 36.5644 22.1777 36.4346L20.1226 33.9977C19.9168 33.7548 19.9482 33.3912 20.1911 33.1854C20.4349 32.9805 20.7984 33.011 21.0034 33.2548L22.6148 35.1654L25.7409 31.408C25.9442 31.1634 26.3078 31.1303 26.5524 31.3336C26.7969 31.5377 26.8308 31.9005 26.6267 32.1451ZM10.3616 31.2237H16.7419C16.8477 30.9642 16.9691 30.7113 17.1046 30.4659H10.3616C10.0435 30.4659 9.78484 30.2081 9.78484 29.89C9.78484 29.5719 10.0435 29.3132 10.3616 29.3132H17.8971C18.1574 29.0058 18.4433 28.7166 18.7581 28.4513C20.61 26.8895 23.0288 26.4317 25.2103 27.0077V4.93578H20.4984V7.37766C20.4984 7.69664 20.2406 7.95445 19.9224 7.95445H5.17297C4.85484 7.95445 4.59695 7.69664 4.59695 7.37766V4.93578H0V37.2866H17.0575C16.4113 36.0802 16.1245 34.7126 16.2435 33.316C16.27 32.997 16.3195 32.6838 16.3865 32.3765H10.3616C10.0434 32.3765 9.78477 32.1187 9.78477 31.8005C9.78484 31.4815 10.0434 31.2237 10.3616 31.2237ZM10.3616 11.7144H23.0106C23.3296 11.7144 23.5874 11.9722 23.5874 12.2903C23.5874 12.6084 23.3296 12.8671 23.0106 12.8671H10.3616C10.0435 12.8671 9.78484 12.6084 9.78484 12.2903C9.78484 11.9722 10.0434 11.7144 10.3616 11.7144ZM10.3616 13.6241H17.6566C17.9748 13.6241 18.2327 13.8827 18.2327 14.2009C18.2327 14.519 17.9748 14.7768 17.6566 14.7768H10.3616C10.0435 14.7768 9.78484 14.519 9.78484 14.2009C9.78484 13.8827 10.0434 13.6241 10.3616 13.6241ZM10.3616 20.5125H23.0106C23.3296 20.5125 23.5874 20.7712 23.5874 21.0893C23.5874 21.4074 23.3296 21.6652 23.0106 21.6652H10.3616C10.0435 21.6652 9.78484 21.4074 9.78484 21.0893C9.78484 20.7712 10.0434 20.5125 10.3616 20.5125ZM10.3616 22.423H17.6566C17.9748 22.423 18.2327 22.6809 18.2327 22.999C18.2327 23.318 17.9748 23.5758 17.6566 23.5758H10.3616C10.0435 23.5758 9.78484 23.318 9.78484 22.999C9.78484 22.6809 10.0434 22.423 10.3616 22.423ZM8.00813 34.2176C8.00813 34.5366 7.75031 34.7944 7.43133 34.7944H2.00469C1.68656 34.7944 1.42875 34.5366 1.42875 34.2176V31.8633C1.42875 30.9402 2.05516 30.1618 2.90547 29.9296C2.74766 29.6388 2.65836 29.3057 2.65836 28.952C2.65836 27.8174 3.58227 26.8936 4.7168 26.8936C5.85383 26.8936 6.77852 27.8174 6.77852 28.952C6.77852 29.3057 6.68844 29.6388 6.53062 29.9296C7.38094 30.1618 8.0082 30.9402 8.0082 31.8633V34.2176H8.00813ZM8.00813 25.4194C8.00813 25.7375 7.75031 25.9953 7.43133 25.9953H2.00469C1.68656 25.9953 1.42875 25.7375 1.42875 25.4194V23.0627C1.42875 22.1405 2.05516 21.3628 2.90547 21.1306C2.74766 20.8398 2.65836 20.5076 2.65836 20.1539C2.65836 19.0185 3.58227 18.0955 4.7168 18.0955C5.85383 18.0955 6.77852 19.0185 6.77852 20.1539C6.77852 20.5076 6.68844 20.8398 6.53062 21.1306C7.38094 21.3628 8.0082 22.1405 8.0082 23.0627V25.4194H8.00813ZM8.00813 16.6187C8.00813 16.9369 7.75031 17.1947 7.43133 17.1947H2.00469C1.68656 17.1947 1.42875 16.9369 1.42875 16.6187V14.2637C1.42875 13.3415 2.05516 12.5622 2.90547 12.33C2.74766 12.0391 2.65836 11.7061 2.65836 11.3533C2.65836 10.2179 3.58227 9.29398 4.7168 9.29398C5.85383 9.29398 6.77852 10.2178 6.77852 11.3533C6.77852 11.7062 6.68844 12.0391 6.53062 12.33C7.38094 12.5622 8.0082 13.3415 8.0082 14.2637V16.6187H8.00813ZM3.81109 28.952C3.81109 28.4529 4.21766 28.0463 4.7168 28.0463C5.21836 28.0463 5.62578 28.4529 5.62578 28.952C5.62578 29.452 5.21836 29.8585 4.7168 29.8585C4.21766 29.8586 3.81109 29.452 3.81109 28.952ZM6.85539 31.8633V33.6416H2.58148V31.8633C2.58148 31.3931 2.96328 31.0113 3.43344 31.0113H6.00336C6.47281 31.0113 6.85539 31.3931 6.85539 31.8633ZM6.85539 23.0627V24.8426H2.58148V23.0627C2.58148 22.5941 2.96328 22.2123 3.43344 22.2123H6.00336C6.47281 22.2123 6.85539 22.5941 6.85539 23.0627ZM3.81109 20.1539C3.81109 19.654 4.21766 19.2474 4.7168 19.2474C5.21836 19.2474 5.62578 19.654 5.62578 20.1539C5.62578 20.653 5.21836 21.0596 4.7168 21.0596C4.21766 21.0596 3.81109 20.653 3.81109 20.1539ZM3.81109 11.3533C3.81109 10.8534 4.21766 10.4468 4.7168 10.4468C5.21836 10.4468 5.62578 10.8534 5.62578 11.3533C5.62578 11.8524 5.21836 12.259 4.7168 12.259C4.21766 12.2589 3.81109 11.8523 3.81109 11.3533ZM6.85539 14.2637V16.042H2.58148V14.2637C2.58148 13.7943 2.96328 13.4117 3.43344 13.4117H6.00336C6.47281 13.4117 6.85539 13.7943 6.85539 14.2637ZM19.3457 6.80172H5.74977V2.49477H9.96664C10.2773 2.49477 10.5327 2.24766 10.5427 1.93695C10.5773 0.851094 11.4583 0 12.5473 0C13.6373 0 14.5182 0.851172 14.5529 1.93695C14.5628 2.24766 14.8181 2.49477 15.1289 2.49477H19.3458V6.80172H19.3457Z" fill="black"/>
</svg>
