<svg width="26" height="38" viewBox="0 0 26 38" fill="none" xmlns="http://www.w3.org/2000/svg">
<path d="M21.0543 4.75536C21.7374 4.70422 22.5412 4.72815 23.2361 4.72752C23.8806 4.72697 25.1852 4.61631 25.6504 5.05914C26.1205 5.50659 25.9806 6.98516 25.9803 7.65006L25.9779 10.7504L25.9767 20.255L25.9769 31.1486L25.9784 34.6036C25.9796 35.2376 25.9888 35.872 25.9746 36.5058C25.9585 37.2224 25.7606 37.472 25.1394 37.811H0.84194C0.549387 37.6385 0.0976167 37.3782 0.0569259 37.0197C-0.0333543 36.2247 0.010549 35.1704 0.011509 34.3639L0.0115828 28.5765L0.0108442 13.6752C0.0107334 11.1416 0.00755778 8.60784 0.0141673 6.07423C0.0148688 5.80974 0.0409746 5.47439 0.185681 5.25034C0.324481 5.0354 0.573019 4.82685 0.83053 4.78354C1.43059 4.68262 2.05347 4.74207 2.66032 4.72715C3.40549 4.7324 4.19963 4.71445 4.93775 4.74395C4.79031 5.79807 4.92999 7.11901 5.5933 7.99615C6.11737 8.69546 6.89906 9.1565 7.76465 9.27676C8.29056 9.34891 9.19023 9.32358 9.75646 9.3231L12.994 9.32074L16.2449 9.32255C16.8159 9.32299 17.7322 9.34998 18.2644 9.26857C18.7929 9.18803 19.2925 8.97505 19.7165 8.64942C21.0397 7.6354 21.1504 6.31509 21.0543 4.75536ZM7.64756 31.7542C8.24027 32.3322 8.78077 33.1432 9.67113 33.0284C10.5221 32.7431 10.8125 31.9781 10.2407 31.2278C9.97982 30.8855 9.55755 30.5042 9.23213 30.2077C9.69376 29.5932 10.6089 29.0944 10.5203 28.258C10.4533 27.6249 9.87093 27.2328 9.26049 27.3152C8.60582 27.43 8.15006 28.1954 7.62902 28.5914C6.94936 27.9044 6.61035 27.2627 5.5672 27.3304C4.88875 27.604 4.65014 28.0628 4.84743 28.8023C4.96193 29.2314 6.1338 30.0116 5.9782 30.2386C5.53175 30.8895 4.44422 31.3676 4.84219 32.3576C4.94982 32.6286 5.16181 32.8451 5.4305 32.9584C6.43544 33.3805 6.9769 32.2943 7.64756 31.7542ZM15.4799 21.3994C15.1387 21.4025 14.846 21.4063 14.5873 21.6694C13.9817 22.285 14.2814 23.4306 15.1857 23.5268C15.754 23.5872 16.3292 23.5643 16.9003 23.5634L20.0032 23.5588C20.7795 23.503 21.2637 23.1449 21.1907 22.3032C21.1689 22.0384 21.0408 21.7937 20.8355 21.625C20.3959 21.2649 19.1029 21.3847 18.5177 21.3833C17.5198 21.3809 16.475 21.3628 15.4799 21.3994ZM15.2204 13.683C14.9244 13.715 14.7159 13.7909 14.5215 14.0332C14.3279 14.2722 14.2396 14.5794 14.2768 14.8846C14.3091 15.1687 14.4534 15.4281 14.6778 15.6053C15.0669 15.9089 15.8467 15.8666 16.3303 15.8534C17.5962 15.8191 18.9107 15.9015 20.171 15.8389C21.7287 15.6037 21.3226 13.6976 20.2937 13.688C18.7383 13.6736 16.7583 13.5834 15.2204 13.683ZM7.05544 14.3597C6.68878 13.9846 6.42196 13.6616 5.84952 13.6606C5.55871 13.6577 5.27956 13.7748 5.07777 13.9842C4.87387 14.1939 4.76169 14.476 4.7659 14.7684C4.78001 15.4018 5.59271 16.0412 6.05877 16.4971C6.91627 17.3663 7.41951 17.1071 8.17004 16.3623L10.2757 14.2533C10.7148 13.8162 11.2214 13.3551 11.5905 12.868C11.8438 12.5335 11.706 11.8697 11.3985 11.6012C11.046 11.2934 10.7711 11.2689 10.3302 11.3018C9.80723 11.5087 9.34379 12.0802 8.93785 12.4765C8.30385 13.0953 7.69523 13.7454 7.05544 14.3597ZM15.0779 29.1119C14.7302 29.2302 14.5769 29.3322 14.3936 29.6672C14.1072 30.1682 14.3285 30.9065 14.8509 31.151C14.9736 31.2085 15.3094 31.2653 15.4594 31.2678C16.9861 31.293 18.5179 31.2811 20.0451 31.2688C20.1623 31.2679 20.2917 31.2486 20.4057 31.2245C21.5691 30.9119 21.4622 29.1057 20.1007 29.0962C19.0693 29.089 18.0172 29.0626 16.9831 29.0799C16.3689 29.0903 15.6832 29.0481 15.0779 29.1119ZM10.3354 19.029C9.86074 19.1665 9.34413 19.7751 8.98888 20.1348L7.53162 21.6099C7.42649 21.7156 7.14971 22.0606 7.01571 21.9615C6.55578 21.6249 6.18417 21.27 5.56148 21.3982C5.03091 21.5074 4.64213 22.2133 4.79707 22.7101C4.96692 23.2548 5.65257 23.8164 6.06284 24.2202C6.35908 24.5147 6.60304 24.7327 7.05784 24.7352C7.15979 24.7357 7.48808 24.6819 7.55746 24.626C8.21346 24.0957 8.77102 23.4679 9.37592 22.875C10.0146 22.2488 10.6124 21.6271 11.2558 20.9932C11.7452 20.511 11.9611 19.8669 11.3974 19.3149C11.1254 19.0485 10.8077 19.0035 10.4358 19.0223C10.4023 19.0241 10.3688 19.0263 10.3354 19.029Z" fill="#1E1E1E"/>
<path d="M12.3322 0H13.6132C13.7576 0.0868116 14.3015 0.229645 14.5146 0.335228C15.414 0.780911 15.9378 1.41339 16.2835 2.33207C17.2844 2.42313 18.859 2.04157 18.8508 3.57886C18.8466 4.38208 18.9004 5.28895 18.8299 6.08149C18.7243 7.26884 17.5404 7.11641 16.6625 7.11733L14.4852 7.11866L10.5178 7.11881C9.77824 7.11874 8.43471 7.20547 7.71608 6.97791C7.34304 6.80458 7.08523 6.27945 7.13076 5.88085C7.22462 5.05924 6.88997 3.34394 7.41954 2.71291C7.81198 2.2453 9.07298 2.35331 9.66267 2.35841C10.0756 1.43944 10.5186 0.758225 11.476 0.318102C11.7272 0.202648 12.0677 0.135113 12.3075 0.0128383L12.3322 0Z" fill="#1E1E1E"/>
</svg>
