<svg width="34" height="37" viewBox="0 0 34 37" fill="none" xmlns="http://www.w3.org/2000/svg">
<path d="M33.245 6.10983H28.9653C28.6801 6.10952 28.4067 5.99614 28.205 5.79455C28.0034 5.59295 27.8899 5.3196 27.8894 5.03445V0.754303L33.245 6.10983ZM13.9418 11.2091C14.38 12.0182 14.6739 12.8974 14.8103 13.8073H21.849V11.2093L13.9418 11.2091ZM14.6625 16.9235C14.4305 17.8542 14.0317 18.7351 13.4854 19.5236H21.849V16.9235H14.6625ZM11.4153 22.6387V25.2387H21.849V22.6387H11.4153ZM34 7.17729V34.1652H9.65064V27.282C9.65001 26.9595 9.55014 26.645 9.36459 26.3813C9.17904 26.1175 8.9168 25.9173 8.6135 25.8077V22.7958C9.2126 22.6656 9.79454 22.4661 10.3476 22.2015V25.7726C10.3477 25.8427 10.3616 25.9121 10.3884 25.9768C10.4153 26.0415 10.4547 26.1002 10.5043 26.1497C10.5539 26.1992 10.6127 26.2385 10.6775 26.2652C10.7423 26.2919 10.8117 26.3057 10.8817 26.3056H22.3823C22.5237 26.3056 22.6592 26.2494 22.7592 26.1495C22.8591 26.0495 22.9153 25.914 22.9153 25.7726V22.1055C22.9153 21.9642 22.8591 21.8286 22.7592 21.7287C22.6592 21.6287 22.5237 21.5726 22.3823 21.5726H11.4347C11.8541 21.2829 12.2453 20.9545 12.6031 20.5915H22.3823C22.5237 20.5914 22.6592 20.5352 22.7592 20.4352C22.8591 20.3352 22.9153 20.1996 22.9153 20.0582V16.3904C22.9153 16.249 22.8591 16.1134 22.7592 16.0134C22.6592 15.9134 22.5237 15.8572 22.3823 15.8571H14.8523C14.8831 15.5708 14.8987 15.2832 14.8988 14.9953C14.8988 14.9549 14.898 14.9146 14.8972 14.8742H22.3823C22.4523 14.8742 22.5217 14.8604 22.5864 14.8336C22.651 14.8067 22.7098 14.7675 22.7593 14.7179C22.8088 14.6684 22.8481 14.6096 22.8748 14.5449C22.9016 14.4802 22.9153 14.4108 22.9153 14.3408V10.676C22.9153 10.606 22.9016 10.5366 22.8748 10.4719C22.8481 10.4072 22.8088 10.3484 22.7593 10.2989C22.7098 10.2493 22.651 10.2101 22.5864 10.1832C22.5217 10.1564 22.4523 10.1426 22.3823 10.1426H13.2492C12.5594 9.24132 11.6853 8.49754 10.6851 7.96099C9.68499 7.42444 8.58187 7.10746 7.44945 7.03123V0H26.8228V5.03445C26.8234 5.60248 27.0494 6.14706 27.451 6.54872C27.8527 6.95039 28.3972 7.17634 28.9653 7.177L34 7.17729ZM22.9156 27.8199C22.9156 27.6785 22.8594 27.5429 22.7595 27.4429C22.6595 27.3429 22.524 27.2867 22.3826 27.2866H10.882C10.7404 27.2865 10.6047 27.3427 10.5045 27.4427C10.4044 27.5427 10.348 27.6784 10.3478 27.8199V31.487C10.3479 31.6287 10.4042 31.7645 10.5043 31.8647C10.6045 31.9648 10.7403 32.0211 10.882 32.0211H22.3823C22.5238 32.0209 22.6594 31.9646 22.7594 31.8644C22.8593 31.7643 22.9154 31.6285 22.9153 31.487L22.9156 27.8199ZM25.5382 13.3983L26.7458 14.6075C26.7952 14.6572 26.8539 14.6966 26.9186 14.7236C26.9833 14.7505 27.0527 14.7644 27.1228 14.7645C27.1929 14.7646 27.2623 14.7508 27.327 14.724C27.3918 14.6972 27.4506 14.6578 27.5001 14.6082L30.9448 11.1629C31.0429 11.0624 31.0975 10.9274 31.0968 10.787C31.096 10.6465 31.0398 10.5121 30.9405 10.4128C30.8412 10.3135 30.7068 10.2574 30.5664 10.2566C30.4259 10.2558 30.2909 10.3104 30.1905 10.4086L27.1237 13.476L26.2933 12.6448C26.244 12.5943 26.1852 12.5541 26.1203 12.5265C26.0553 12.4989 25.9856 12.4844 25.915 12.4839C25.8445 12.4835 25.7745 12.497 25.7093 12.5237C25.644 12.5505 25.5846 12.5899 25.5347 12.6398C25.4848 12.6896 25.4452 12.7488 25.4183 12.8141C25.3914 12.8793 25.3778 12.9492 25.3781 13.0198C25.3784 13.0903 25.3927 13.1601 25.4202 13.2251C25.4477 13.2901 25.4878 13.3489 25.5382 13.3983ZM25.5382 19.1158L26.7458 20.3226C26.8458 20.4226 26.9815 20.4788 27.1229 20.4788C27.2644 20.4788 27.4001 20.4226 27.5001 20.3226L30.9448 16.878C31.0429 16.7776 31.0975 16.6425 31.0968 16.5021C31.096 16.3617 31.0398 16.2272 30.9405 16.1279C30.8412 16.0286 30.7068 15.9725 30.5664 15.9717C30.4259 15.9709 30.2909 16.0255 30.1905 16.1237L27.123 19.1912L26.2933 18.3607C26.2437 18.3111 26.1848 18.2718 26.12 18.2449C26.0553 18.2181 25.9858 18.2043 25.9157 18.2043C25.8456 18.2043 25.7762 18.2181 25.7114 18.2449C25.6466 18.2718 25.5877 18.3111 25.5382 18.3607C25.4886 18.4103 25.4493 18.4691 25.4224 18.5339C25.3956 18.5987 25.3818 18.6681 25.3818 18.7382C25.3818 18.8083 25.3956 18.8778 25.4224 18.9425C25.4493 19.0073 25.4886 19.0662 25.5382 19.1158ZM10.3478 3.12993C10.348 3.27146 10.4044 3.40712 10.5045 3.50712C10.6047 3.60712 10.7404 3.66328 10.882 3.66326H17.6028C17.7444 3.66326 17.8801 3.60703 17.9802 3.50695C18.0803 3.40686 18.1365 3.27111 18.1365 3.12957C18.1365 2.98802 18.0803 2.85228 17.9802 2.75219C17.8801 2.6521 17.7444 2.59587 17.6028 2.59587H10.882C10.7403 2.59589 10.6045 2.65216 10.5043 2.75231C10.4042 2.85246 10.3479 2.98829 10.3478 3.12993ZM23.6372 6.64396C23.6372 6.50243 23.581 6.3667 23.481 6.26655C23.381 6.16641 23.2454 6.11004 23.1038 6.10983H10.882C10.8113 6.10901 10.7413 6.12221 10.6758 6.14866C10.6103 6.17512 10.5507 6.2143 10.5005 6.26394C10.4503 6.31359 10.4104 6.3727 10.3832 6.43787C10.356 6.50303 10.342 6.57294 10.342 6.64356C10.342 6.71418 10.356 6.78409 10.3832 6.84925C10.4104 6.91442 10.4503 6.97353 10.5005 7.02318C10.5507 7.07282 10.6103 7.112 10.6758 7.13846C10.7413 7.16491 10.8113 7.17811 10.882 7.17729H23.1038C23.2452 7.17712 23.3808 7.12087 23.4808 7.02089C23.5808 6.92091 23.637 6.78535 23.6372 6.64396ZM30.9448 27.5555C30.8953 27.5059 30.8365 27.4666 30.7718 27.4398C30.707 27.4129 30.6377 27.3991 30.5676 27.3991C30.4976 27.3991 30.4282 27.4129 30.3635 27.4398C30.2987 27.4666 30.24 27.5059 30.1905 27.5555L27.1237 30.6223L26.2933 29.791C26.1931 29.6917 26.0578 29.6362 25.9169 29.6364C25.7759 29.6367 25.6408 29.6927 25.541 29.7923C25.4412 29.8919 25.3849 30.0269 25.3844 30.1678C25.3839 30.3088 25.4391 30.4442 25.5382 30.5445L26.7458 31.7545C26.8458 31.8545 26.9815 31.9107 27.1229 31.9107C27.2644 31.9107 27.4 31.8545 27.5001 31.7545L30.9448 28.3099C30.9943 28.2604 31.0337 28.2016 31.0605 28.1368C31.0874 28.0721 31.1012 28.0027 31.1012 27.9327C31.1012 27.8626 31.0874 27.7932 31.0605 27.7285C31.0337 27.6638 30.9943 27.605 30.9448 27.5555ZM30.9455 21.8403C30.8452 21.7404 30.7095 21.6843 30.568 21.6843C30.4264 21.6843 30.2907 21.7404 30.1905 21.8403L27.123 24.9063L26.2933 24.0758C26.1932 23.9757 26.0575 23.9194 25.916 23.9193C25.7745 23.9192 25.6387 23.9754 25.5386 24.0754C25.4384 24.1754 25.3821 24.3112 25.3821 24.4527C25.382 24.5942 25.4381 24.73 25.5382 24.8301L26.7458 26.0378C26.8458 26.1378 26.9815 26.194 27.1229 26.194C27.2644 26.194 27.4 26.1378 27.5001 26.0378L30.9448 22.5947C30.9944 22.5452 31.0338 22.4864 31.0607 22.4218C31.0876 22.3571 31.1014 22.2877 31.1015 22.2176C31.1016 22.1476 31.0878 22.0782 31.0611 22.0135C31.0343 21.9487 30.995 21.8899 30.9455 21.8403ZM11.4153 28.3532V30.9537H21.849V28.3532H11.4153ZM6.91612 22.9779C6.70427 22.9779 6.49399 22.9695 6.28526 22.9528V25.7124H7.54697V22.9528C7.33897 22.9695 7.12868 22.9779 6.91612 22.9779ZM8.08038 26.7791H5.75193C5.6188 26.7806 5.49149 26.834 5.39713 26.9279C5.30277 27.0218 5.24881 27.1489 5.24676 27.282V36.3724C5.24876 36.5056 5.30267 36.6328 5.39702 36.7269C5.49137 36.8209 5.61871 36.8745 5.75193 36.8761H8.08038C8.21382 36.8759 8.34173 36.8227 8.43601 36.7283C8.53028 36.6338 8.58321 36.5058 8.58318 36.3724V27.282C8.58306 27.1487 8.53006 27.0209 8.43579 26.9266C8.34152 26.8323 8.2137 26.7793 8.08038 26.7791ZM13.832 14.9953C13.8319 15.4266 13.7917 15.8569 13.7117 16.2806C13.7109 16.2829 13.7109 16.2852 13.7102 16.2878C13.3832 18.0078 12.4161 19.5397 11.004 20.5746C9.59182 21.6095 7.83973 22.0703 6.10117 21.864C4.3626 21.6578 2.76696 20.7998 1.63615 19.4633C0.505342 18.1267 -0.0764753 16.411 0.00807643 14.6623C0.0926281 12.9136 0.837256 11.262 2.09174 10.0408C3.34622 8.81954 5.01719 8.11953 6.76754 8.08196C8.51789 8.0444 10.2174 8.67208 11.5231 9.83838C12.8288 11.0047 13.6436 12.6228 13.8031 14.3662C13.8039 14.3822 13.8046 14.3982 13.8069 14.4135C13.8229 14.6052 13.832 14.7995 13.832 14.9953ZM12.7364 14.9953C12.7364 13.8442 12.3951 12.7189 11.7555 11.7617C11.116 10.8046 10.207 10.0586 9.14345 9.61805C8.07993 9.17753 6.90966 9.06227 5.78064 9.28684C4.65161 9.51142 3.61453 10.0658 2.80055 10.8797C1.98657 11.6937 1.43224 12.7308 1.20766 13.8598C0.983082 14.9888 1.09834 16.1591 1.53887 17.2226C1.97939 18.2862 2.72539 19.1952 3.68254 19.8347C4.63968 20.4742 5.76497 20.8156 6.91612 20.8156C8.45929 20.814 9.93879 20.2003 11.03 19.1091C12.1212 18.0179 12.735 16.5385 12.7367 14.9953H12.7364ZM6.91612 10.2417C5.97596 10.2417 5.0569 10.5205 4.27519 11.0429C3.49347 11.5652 2.88419 12.3076 2.52441 13.1762C2.16462 14.0448 2.07049 15.0006 2.2539 15.9227C2.43732 16.8448 2.89005 17.6918 3.55485 18.3566C4.21965 19.0214 5.06665 19.4741 5.98875 19.6575C6.91085 19.8409 7.86663 19.7468 8.73523 19.387C9.60382 19.0272 10.3462 18.418 10.8686 17.6362C11.3909 16.8545 11.6697 15.9355 11.6697 14.9953C11.6682 13.735 11.1669 12.5268 10.2757 11.6357C9.3846 10.7445 8.17638 10.2432 6.91612 10.2417Z" fill="black"/>
</svg>
