<svg width="35" height="27" viewBox="0 0 35 27" fill="none" xmlns="http://www.w3.org/2000/svg">
<path d="M28.0556 1.64627C28.078 0.640799 28.0377 0.00525962 28.0377 0.00525962L17.5532 0H17.4468L6.95779 0.00525962C6.95779 0.00525962 6.91845 0.640799 6.9408 1.64627H0V2.72011C0 2.96468 0.0438159 8.74677 3.85044 11.9139C5.50614 13.257 7.60408 13.9632 9.75218 13.9003C10.1099 13.9003 10.4675 13.8784 10.836 13.8477C11.9805 15.4269 13.5741 16.6407 15.4178 17.3375V22.0536H10.3593V25.0034H8.68808V26.6602H26.3173V25.0034H24.6398V22.0493H19.5795V17.3384C21.4231 16.6412 23.0166 15.4275 24.1614 13.8486C24.5316 13.8784 24.8946 13.8995 25.2478 13.8995C27.396 13.962 29.494 13.2556 31.1496 11.9122C34.9553 8.74502 35 2.9638 35 2.71835V1.64627H28.0556ZM5.37774 10.3124C3.20303 8.50921 2.56457 5.4183 2.36964 3.79395H7.07583C7.26279 6.13288 7.85393 8.42364 8.824 10.5684C9.02161 10.9751 9.22996 11.3617 9.44278 11.7395C7.96127 11.7329 6.52671 11.2293 5.37774 10.3124ZM29.6232 10.3124C28.4746 11.23 27.0398 11.7337 25.5581 11.7395C25.77 11.3626 25.9793 10.9751 26.1769 10.5684C27.147 8.42373 27.7375 6.13287 27.9233 3.79395H32.6295C32.4399 5.42005 31.7988 8.50746 29.6232 10.3124Z" fill="#1E1E1E"/>
</svg>
