<svg width="35" height="31" viewBox="0 0 35 31" fill="none" xmlns="http://www.w3.org/2000/svg">
<path d="M0 1.81792C0.0679738 1.69166 0.094932 1.5556 0.155243 1.42178C0.691335 0.232483 1.53112 -0.0124009 2.75849 0.00106595C3.8581 0.0131314 4.97232 0.000847203 6.07018 0.00133597L30.4678 0.00172908C31.1859 0.00172225 31.9094 -0.0049258 32.6271 0.007895C33.9312 0.0311885 34.5888 0.650282 35 1.82466V18.561C33.1534 18.5188 31.1702 18.5582 29.3092 18.5582L6.32071 18.5585C4.25045 18.5585 2.06272 18.5243 0 18.5674V1.81792ZM11.8024 14.1521C13.0099 14.2073 13.3896 13.1379 12.5864 12.2742C12.0722 11.7213 11.1517 10.9811 10.7325 10.4087L10.7413 10.3956C11.2914 9.58987 12.4096 8.89746 12.919 8.05387C13.327 7.37817 12.6171 6.52286 11.8385 6.63897C11.7063 6.68269 11.5698 6.72565 11.4575 6.81048C11.0496 7.11882 8.5254 9.60912 8.35919 9.94435C8.24059 10.1836 8.22609 10.5075 8.31599 10.7586C8.35553 10.869 8.40978 10.9517 8.48559 11.041C8.84201 11.4609 11.2882 13.9342 11.6219 14.0825C11.6811 14.1083 11.7413 14.1315 11.8024 14.1521ZM23.545 13.9819C24.5242 13.1153 25.5012 12.008 26.4476 11.0927C26.9378 10.6186 26.7911 9.97368 26.3351 9.56342C25.4796 8.70147 24.6257 7.84244 23.7574 6.9943C23.4151 6.65989 23.2395 6.6011 22.7689 6.64208C20.2966 7.67598 24.2076 9.79984 24.2319 10.4054C24.0966 10.7266 23.0108 11.624 22.6996 11.9823C22.2952 12.4479 21.7589 12.7654 22.0479 13.5337C22.245 14.0298 22.8756 14.3066 23.3649 14.0852C23.4281 14.0566 23.4884 14.0221 23.545 13.9819ZM16.376 14.1509C17.03 13.8384 17.141 13.3689 17.4498 12.7479L19.2751 9.09837C19.5478 8.55197 20.0789 7.79964 19.7841 7.20779C19.6514 6.94594 19.4178 6.74944 19.1371 6.66358C18.9632 6.60964 18.8287 6.62697 18.65 6.64382C18.4447 6.73184 18.1837 6.84801 18.0711 7.04571C17.6899 7.71505 17.312 8.51735 16.9692 9.20217L15.8465 11.4469C15.6422 11.8558 15.4362 12.257 15.2488 12.6738C14.8447 13.5724 15.4495 14.2143 16.376 14.1509Z" fill="#1E1E1E"/>
<path d="M12.2379 26.742C12.7721 26.7366 13.3556 26.7616 13.9016 26.7623L19.2282 26.7625L21.2248 26.7585C21.6378 26.7558 22.425 26.7224 22.7935 26.808C23.0197 26.9719 23.4677 28.4992 23.5413 28.8272C24.3266 28.8252 25.8302 28.6462 26.486 29.1613C27.0375 29.5944 26.7273 30.7399 26.0751 30.8325C25.0533 30.9776 23.8405 30.9068 22.7808 30.9045L10.8062 30.9064C10.2789 30.9067 9.76473 30.9072 9.23265 30.8857C7.98373 30.8969 7.87521 29.0452 9.05885 28.8717C9.76815 28.7678 10.7262 28.8244 11.4526 28.8277C11.602 28.3855 11.8977 26.9662 12.2379 26.742Z" fill="#1E1E1E"/>
<path d="M0 20.5752C1.93339 20.5904 3.86685 20.5945 5.80029 20.5876L35 20.5814V22.9326C34.6927 23.571 34.5126 24.1074 33.823 24.4469C32.9398 24.8817 31.4763 24.7263 30.487 24.7264L5.72711 24.7261C4.89077 24.7259 2.2632 24.8254 1.62542 24.6294C0.922616 24.4133 0.503084 24.0033 0.183202 23.345C0.115894 23.2064 0.0835816 23.0553 0.0102123 22.9201C0.00690105 22.914 0.0034041 22.908 0 22.9019V20.5752Z" fill="#1E1E1E"/>
</svg>
