<svg width="21" height="31" viewBox="0 0 21 31" fill="none" xmlns="http://www.w3.org/2000/svg">
<path d="M17.0054 3.84132C17.5572 3.80002 18.2064 3.81934 18.7676 3.81883C19.2882 3.81839 20.3419 3.72901 20.7176 4.08668C21.0973 4.44808 20.9843 5.64231 20.9841 6.17934L20.9821 8.68345L20.9812 16.3602L20.9813 25.159L20.9826 27.9495C20.9835 28.4616 20.9909 28.974 20.9795 29.4859C20.9665 30.0647 20.8066 30.2663 20.3049 30.5401H0.680028C0.443736 30.4008 0.0788442 30.1906 0.0459786 29.901C-0.02694 29.2589 0.00852034 28.4073 0.00929575 27.7559L0.00935537 23.0814L0.00875877 11.0458C0.0086693 8.99943 0.00610436 6.95294 0.0114428 4.90656C0.0120094 4.69293 0.0330948 4.42208 0.149974 4.24111C0.26208 4.0675 0.462823 3.89906 0.670813 3.86408C1.15548 3.78257 1.65857 3.83059 2.14872 3.81854C2.75059 3.82277 3.39201 3.80828 3.98818 3.83211C3.86909 4.68351 3.98192 5.75042 4.51767 6.45888C4.94095 7.02371 5.57232 7.39609 6.27145 7.49322C6.69622 7.5515 7.42287 7.53104 7.88022 7.53065L10.4951 7.52874L13.1209 7.5302C13.5821 7.53056 14.3221 7.55236 14.752 7.4866C15.1789 7.42155 15.5824 7.24953 15.9248 6.98652C16.9936 6.1675 17.083 5.1011 17.0054 3.84132ZM6.17687 25.6481C6.6556 26.1149 7.09216 26.77 7.8113 26.6772C8.49858 26.4468 8.73314 25.8289 8.27133 25.2229C8.06062 24.9464 7.71956 24.6385 7.45672 24.399C7.82958 23.9026 8.56873 23.4998 8.49718 22.8242C8.44302 22.3129 7.97267 21.9961 7.47963 22.0627C6.95086 22.1555 6.58274 22.7737 6.1619 23.0935C5.61294 22.5386 5.33913 22.0203 4.49658 22.075C3.9486 22.296 3.75589 22.6665 3.91523 23.2638C4.00772 23.6105 4.95423 24.2406 4.82855 24.4239C4.46795 24.9497 3.58956 25.3358 3.911 26.1354C3.99793 26.3543 4.16915 26.5292 4.38618 26.6207C5.19786 26.9616 5.63519 26.0843 6.17687 25.6481ZM12.503 17.2846C12.2274 17.2871 11.991 17.2902 11.782 17.5026C11.2929 17.9999 11.535 18.9251 12.2654 19.0028C12.7243 19.0517 13.189 19.0332 13.6503 19.0324L16.1564 19.0287C16.7835 18.9837 17.1745 18.6944 17.1155 18.0146C17.098 17.8007 16.9945 17.6031 16.8287 17.4668C16.4736 17.176 15.4292 17.2727 14.9566 17.2716C14.1506 17.2696 13.3068 17.255 12.503 17.2846ZM12.2934 11.0521C12.0543 11.078 11.8859 11.1392 11.7289 11.335C11.5726 11.528 11.5013 11.7761 11.5313 12.0226C11.5574 12.2521 11.6739 12.4616 11.8551 12.6047C12.1694 12.8499 12.7993 12.8158 13.1899 12.8052C14.2123 12.7774 15.274 12.8439 16.2919 12.7934C17.5501 12.6035 17.2221 11.0639 16.391 11.0562C15.1348 11.0445 13.5355 10.9716 12.2934 11.0521ZM5.69862 11.5986C5.40248 11.2957 5.18697 11.0348 4.72462 11.034C4.48972 11.0317 4.26426 11.1262 4.10127 11.2954C3.93659 11.4647 3.84598 11.6926 3.84938 11.9288C3.86077 12.4403 4.51719 12.9568 4.89363 13.325C5.58622 14.0271 5.99268 13.8177 6.59888 13.2162L8.29963 11.5128C8.65429 11.1597 9.06344 10.7872 9.36153 10.3938C9.56618 10.1237 9.45485 9.58749 9.2065 9.37062C8.92178 9.12201 8.69974 9.10226 8.34359 9.12887C7.92123 9.29594 7.54691 9.75752 7.21903 10.0776C6.70696 10.5775 6.21538 11.1025 5.69862 11.5986ZM12.1783 23.5139C11.8975 23.6094 11.7737 23.6919 11.6256 23.9624C11.3942 24.3671 11.573 24.9634 11.995 25.1609C12.0941 25.2073 12.3653 25.2532 12.4864 25.2552C13.7195 25.2756 14.9568 25.2659 16.1903 25.256C16.285 25.2553 16.3895 25.2397 16.4816 25.2203C17.4212 24.9678 17.3349 23.5089 16.2352 23.5012C15.4021 23.4954 14.5524 23.4741 13.7171 23.4881C13.2211 23.4964 12.6672 23.4624 12.1783 23.5139ZM8.34779 15.37C7.96444 15.4811 7.54718 15.9726 7.26025 16.2632L6.08323 17.4546C5.99832 17.54 5.77476 17.8187 5.66653 17.7386C5.29505 17.4667 4.99491 17.18 4.49196 17.2836C4.06343 17.3718 3.74941 17.942 3.87455 18.3433C4.01174 18.7832 4.56554 19.2368 4.89691 19.5629C5.13618 19.8008 5.33323 19.9769 5.70056 19.9789C5.78291 19.9793 6.04807 19.9359 6.1041 19.8907C6.63395 19.4623 7.08429 18.9553 7.57286 18.4764C8.08875 17.9707 8.57156 17.4685 9.09121 16.9565C9.48649 16.567 9.6609 16.0468 9.20561 15.6009C8.98593 15.3858 8.72927 15.3494 8.42888 15.3646C8.40183 15.3661 8.37481 15.3678 8.34779 15.37Z" fill="#1E1E1E"/>
<path d="M9.96099 0H10.9957C11.1123 0.070117 11.5516 0.185482 11.7237 0.270761C12.4502 0.630736 12.8732 1.14158 13.1524 1.88359C13.9608 1.95714 15.2326 1.64896 15.226 2.89062C15.2226 3.53937 15.2661 4.27184 15.2091 4.91197C15.1239 5.87098 14.1676 5.74787 13.4586 5.74862L11.7 5.74969L8.49549 5.74981C7.89819 5.74975 6.81302 5.8198 6.2326 5.636C5.93129 5.49601 5.72306 5.07186 5.75983 4.74991C5.83565 4.08631 5.56535 2.70087 5.99308 2.19119C6.31005 1.81351 7.32855 1.90075 7.80484 1.90487C8.13832 1.16262 8.49618 0.612412 9.26947 0.256929C9.47233 0.163677 9.7474 0.10913 9.94104 0.0103694L9.96099 0Z" fill="#1E1E1E"/>
</svg>
