<svg width="26" height="26" viewBox="0 0 26 26" fill="none" xmlns="http://www.w3.org/2000/svg">
<path d="M24.6071 0H1.39286C1.02378 0.00107667 0.670126 0.148169 0.409148 0.409148C0.148169 0.670126 0.00107667 1.02378 0 1.39286V5.57143H26V1.39286C25.9989 1.02378 25.8518 0.670126 25.5909 0.409148C25.3299 0.148169 24.9762 0.00107667 24.6071 0ZM3.71429 3.94643C3.57655 3.94643 3.4419 3.90558 3.32737 3.82906C3.21284 3.75253 3.12358 3.64377 3.07087 3.51651C3.01816 3.38926 3.00437 3.24923 3.03124 3.11413C3.05811 2.97904 3.12444 2.85495 3.22184 2.75755C3.31923 2.66015 3.44333 2.59382 3.57842 2.56695C3.71351 2.54008 3.85354 2.55387 3.9808 2.60658C4.10805 2.65929 4.21682 2.74856 4.29334 2.86309C4.36987 2.97761 4.41071 3.11226 4.41071 3.25C4.41084 3.34149 4.39291 3.43211 4.35795 3.51666C4.323 3.60121 4.2717 3.67803 4.20701 3.74272C4.14231 3.80742 4.06549 3.85871 3.98094 3.89366C3.89639 3.92862 3.80578 3.94655 3.71429 3.94643ZM7.42857 3.94643C7.29083 3.94643 7.15618 3.90558 7.04166 3.82906C6.92713 3.75253 6.83787 3.64377 6.78516 3.51651C6.73244 3.38926 6.71865 3.24923 6.74552 3.11413C6.7724 2.97904 6.83872 2.85495 6.93612 2.75755C7.03352 2.66015 7.15761 2.59382 7.29271 2.56695C7.4278 2.54008 7.56783 2.55387 7.69508 2.60658C7.82234 2.65929 7.93111 2.74856 8.00763 2.86309C8.08416 2.97761 8.125 3.11226 8.125 3.25C8.12512 3.34149 8.10719 3.43211 8.07224 3.51666C8.03728 3.60121 7.98599 3.67803 7.92129 3.74272C7.8566 3.80742 7.77978 3.85871 7.69523 3.89366C7.61068 3.92862 7.52006 3.94655 7.42857 3.94643ZM11.1429 3.94643C11.0051 3.94643 10.8705 3.90558 10.7559 3.82906C10.6414 3.75253 10.5522 3.64377 10.4994 3.51651C10.4467 3.38926 10.4329 3.24923 10.4598 3.11413C10.4867 2.97904 10.553 2.85495 10.6504 2.75755C10.7478 2.66015 10.8719 2.59382 11.007 2.56695C11.1421 2.54008 11.2821 2.55387 11.4094 2.60658C11.5366 2.65929 11.6454 2.74856 11.7219 2.86309C11.7984 2.97761 11.8393 3.11226 11.8393 3.25C11.8394 3.34149 11.8215 3.43211 11.7865 3.51666C11.7516 3.60121 11.7003 3.67803 11.6356 3.74272C11.5709 3.80742 11.4941 3.85871 11.4095 3.89366C11.325 3.92862 11.2343 3.94655 11.1429 3.94643ZM22.2857 3.71429H16.7421C16.619 3.71429 16.5009 3.66537 16.4138 3.5783C16.3268 3.49123 16.2779 3.37314 16.2779 3.25C16.2779 3.12686 16.3268 3.00877 16.4138 2.9217C16.5009 2.83463 16.619 2.78571 16.7421 2.78571H22.2857C22.4088 2.78571 22.5269 2.83463 22.614 2.9217C22.7011 3.00877 22.75 3.12686 22.75 3.25C22.75 3.37314 22.7011 3.49123 22.614 3.5783C22.5269 3.66537 22.4088 3.71429 22.2857 3.71429Z" fill="black"/>
<path d="M0 23.6786C0.00108155 24.0476 0.148176 24.4013 0.409153 24.6623C0.67013 24.9233 1.02378 25.0703 1.39286 25.0714H24.6071C24.9762 25.0703 25.3299 24.9233 25.5908 24.6623C25.8518 24.4013 25.9989 24.0476 26 23.6786V6.5H0V23.6786ZM3.25 9.28571C3.25072 9.03966 3.34878 8.80389 3.52277 8.62991C3.69675 8.45592 3.93252 8.35786 4.17857 8.35714H21.8214C22.0675 8.35786 22.3032 8.45592 22.4772 8.62991C22.6512 8.80389 22.7493 9.03966 22.75 9.28571V21.3571C22.7493 21.6032 22.6512 21.839 22.4772 22.0129C22.3032 22.1869 22.0675 22.285 21.8214 22.2857H4.17857C3.93252 22.285 3.69676 22.1869 3.52277 22.0129C3.34879 21.839 3.25072 21.6032 3.25 21.3571V9.28571Z" fill="black"/>
<path d="M7.82819 19.5418C7.82819 19.6668 7.87784 19.7866 7.96621 19.875C8.05459 19.9634 8.17445 20.013 8.29944 20.013C8.42442 20.013 8.54429 19.9634 8.63266 19.875C8.72104 19.7866 8.77069 19.6668 8.77069 19.5418C8.77069 19.4168 8.72104 19.2969 8.63266 19.2086C8.54429 19.1202 8.42442 19.0705 8.29944 19.0705C8.17445 19.0705 8.05459 19.1202 7.96621 19.2086C7.87784 19.2969 7.82819 19.4168 7.82819 19.5418Z" fill="black"/>
<path d="M21.8214 20.0057H9.61536C9.52076 20.2795 9.34313 20.517 9.1072 20.6851C8.87127 20.8532 8.5888 20.9436 8.29911 20.9436C8.00942 20.9436 7.72694 20.8532 7.49101 20.6851C7.25509 20.517 7.07746 20.2795 6.98286 20.0057H4.17857V21.3568H21.8214V20.0057Z" fill="black"/>
<path d="M8.30143 18.1443C8.59016 18.1444 8.87172 18.2343 9.10712 18.4015C9.34252 18.5687 9.52013 18.8049 9.61536 19.0775H21.8214V9.28571H4.17857V19.0775H6.98286C7.07854 18.8043 7.2569 18.5677 7.49319 18.4004C7.72947 18.2332 8.01195 18.1437 8.30143 18.1443ZM12.9489 9.82893C13.6835 9.82893 14.4017 10.0468 15.0125 10.4549C15.6233 10.863 16.0994 11.4431 16.3805 12.1218C16.6616 12.8005 16.7352 13.5473 16.5918 14.2678C16.4485 14.9883 16.0948 15.6502 15.5753 16.1696C15.0559 16.6891 14.3941 17.0428 13.6735 17.1861C12.953 17.3294 12.2062 17.2559 11.5275 16.9748C10.8488 16.6936 10.2687 16.2176 9.86061 15.6068C9.45248 14.9959 9.23464 14.2778 9.23464 13.5432C9.23595 12.5585 9.6277 11.6145 10.324 10.9183C11.0203 10.222 11.9642 9.83024 12.9489 9.82893Z" fill="black"/>
<path d="M12.9486 16.3292C13.4996 16.3292 14.0381 16.1658 14.4963 15.8597C14.9544 15.5536 15.3114 15.1185 15.5223 14.6095C15.7331 14.1005 15.7883 13.5404 15.6808 13C15.5733 12.4596 15.308 11.9633 14.9184 11.5737C14.5288 11.1841 14.0324 10.9188 13.4921 10.8113C12.9517 10.7038 12.3916 10.759 11.8826 10.9698C11.3735 11.1806 10.9385 11.5377 10.6324 11.9958C10.3263 12.4539 10.1629 12.9925 10.1629 13.5435C10.1635 14.2821 10.4571 14.9903 10.9794 15.5126C11.5017 16.0349 12.21 16.3286 12.9486 16.3292ZM11.1704 12.3363C11.1703 12.1923 11.2069 12.0507 11.2767 11.9247C11.3466 11.7988 11.4474 11.6928 11.5697 11.6167C11.6906 11.5395 11.8295 11.4951 11.9727 11.4878C12.116 11.4804 12.2587 11.5105 12.3868 11.5749L14.8707 12.782C15.0141 12.8516 15.135 12.9602 15.2195 13.0952C15.3041 13.2303 15.3489 13.3864 15.3489 13.5458C15.3489 13.7051 15.3041 13.8613 15.2195 13.9963C15.135 14.1314 15.0141 14.2399 14.8707 14.3095L12.3868 15.5167C12.2587 15.5811 12.116 15.6111 11.9727 15.6038C11.8295 15.5965 11.6906 15.5521 11.5697 15.4749C11.4474 15.3988 11.3466 15.2928 11.2767 15.1668C11.2068 15.0409 11.1702 14.8993 11.1704 14.7552V12.3363Z" fill="black"/>
<path d="M12.0996 12.4661V14.625L14.3143 13.5432L12.0996 12.4661Z" fill="black"/>
</svg>
