<svg width="28" height="30" viewBox="0 0 28 30" fill="none" xmlns="http://www.w3.org/2000/svg">
<path d="M28 22.4293C28 26.6218 21.8499 29.9057 14 29.9057C6.15008 29.9057 0 26.6218 0 22.4293C0 18.2367 6.15008 14.9528 14 14.9528C21.8499 14.9528 28 18.2367 28 22.4293ZM14 12.6524C15.2691 12.6524 16.5097 12.2814 17.5649 11.5862C18.6201 10.8911 19.4426 9.9031 19.9282 8.74714C20.4139 7.59117 20.541 6.31919 20.2934 5.09202C20.0458 3.86486 19.4347 2.73764 18.5373 1.8529C17.6399 0.968169 16.4965 0.365657 15.2518 0.121559C14.0071 -0.122539 12.7169 0.00274107 11.5444 0.481556C10.372 0.960371 9.36981 1.77122 8.66474 2.81155C7.95966 3.85189 7.58333 5.075 7.58333 6.3262C7.58537 8.0034 8.26206 9.61133 9.46498 10.7973C10.6679 11.9832 12.2988 12.6504 14 12.6524Z" fill="#1E1E1E"/>
</svg>
