<svg width="37" height="39" viewBox="0 0 37 39" fill="none" xmlns="http://www.w3.org/2000/svg">
<path fill-rule="evenodd" clip-rule="evenodd" d="M19.0291 33.3801C19.6819 33.5114 20.2625 33.8806 20.6583 34.416C21.0541 34.9514 21.2368 35.6148 21.1708 36.2773C21.1049 36.9399 20.795 37.5543 20.3014 38.0011C19.8079 38.448 19.1658 38.6955 18.5 38.6955C17.8342 38.6955 17.1921 38.448 16.6986 38.0011C16.205 37.5543 15.8951 36.9399 15.8292 36.2773C15.7632 35.6148 15.9459 34.9514 16.3417 34.416C16.7375 33.8806 17.3181 33.5114 17.9709 33.3801V30.1161H19.0291V33.3801ZM36.3096 0H0.690372C0.506594 0.00197539 0.331015 0.0763667 0.201757 0.207021C0.0724998 0.337676 0 0.514045 0 0.697833C0 0.881621 0.0724998 1.05799 0.201757 1.18864C0.331015 1.3193 0.506594 1.39369 0.690372 1.39567H36.3096C36.4934 1.39369 36.669 1.3193 36.7982 1.18864C36.9275 1.05799 37 0.881621 37 0.697833C37 0.514045 36.9275 0.337676 36.7982 0.207021C36.669 0.0763667 36.4934 0.00197539 36.3096 0ZM36.3096 27.6622H0.690372C0.506594 27.6641 0.331015 27.7385 0.201757 27.8692C0.0724998 27.9998 0 28.1762 0 28.36C0 28.5438 0.0724998 28.7202 0.201757 28.8508C0.331015 28.9815 0.506594 29.0559 0.690372 29.0578H36.3096C36.4934 29.0559 36.669 28.9815 36.7982 28.8508C36.9275 28.7202 37 28.5438 37 28.36C37 28.1762 36.9275 27.9998 36.7982 27.8692C36.669 27.7385 36.4934 27.6641 36.3096 27.6622ZM2.44666 26.604H34.5533V2.45392H2.44666V26.604ZM21.6657 7.58663C21.7251 7.61572 21.7782 7.65627 21.8219 7.70594C21.8657 7.7556 21.8992 7.81342 21.9205 7.87607L25.6105 18.6274C25.6325 18.6901 25.6418 18.7565 25.6381 18.8228C25.6343 18.8891 25.6174 18.954 25.5885 19.0138C25.5595 19.0735 25.519 19.127 25.4693 19.171C25.4196 19.2151 25.3617 19.2489 25.2988 19.2705C25.236 19.292 25.1696 19.301 25.1033 19.2968C25.037 19.2926 24.9722 19.2753 24.9126 19.2459C24.853 19.2166 24.7999 19.1757 24.7561 19.1257C24.7124 19.0757 24.679 19.0176 24.6578 18.9546L20.9678 8.20364C20.9355 8.10938 20.9319 8.00767 20.9574 7.91136C20.9829 7.81505 21.0363 7.72845 21.111 7.66248C21.1856 7.59651 21.2782 7.55413 21.3769 7.54069C21.4756 7.52725 21.5761 7.54334 21.6657 7.58695V7.58663ZM25.3596 14.6389L24.1341 11.0673C24.3124 11.0673 24.5172 11.1629 24.7193 11.3293C25.0467 11.5992 25.3428 12.0388 25.5299 12.584L25.5312 12.5878C25.7173 13.132 25.753 13.66 25.6602 14.0744C25.6032 14.3288 25.5003 14.5291 25.3597 14.6387L25.3596 14.6389ZM17.1886 18.9862L18.2501 20.706C18.2933 20.7748 18.3288 20.8482 18.3558 20.9248C18.4283 21.1315 18.4287 21.3567 18.3571 21.5637H18.3565C18.2837 21.7718 18.141 21.9483 17.9527 22.0629C17.8862 22.1044 17.8154 22.1384 17.7414 22.1642L17.0332 22.4073C16.9728 22.428 16.957 22.4345 16.9407 22.4412C16.4764 22.6308 15.9192 22.8585 15.3235 21.8713L14.0627 19.7817C13.9538 19.8209 13.8389 19.8623 13.7166 19.905L13.712 19.9066V19.9072C13.1663 20.0957 12.5691 20.0679 12.0431 19.8296C11.7842 19.7142 11.5516 19.547 11.3597 19.3382C11.1679 19.1295 11.0208 18.8836 10.9276 18.6159L10.3451 16.9186C10.2543 16.65 10.2194 16.3657 10.2428 16.0832C10.2661 15.8007 10.3471 15.5259 10.4807 15.2759C10.7494 14.7648 11.2038 14.3761 11.7504 14.1897C12.098 14.0703 12.4584 13.952 12.7709 13.8493C14.2469 13.3646 14.5151 13.2768 16.1514 11.853C16.161 11.8449 16.1709 11.8368 16.1809 11.8288L19.9432 8.46784C19.8327 8.07685 19.8791 7.65822 20.0723 7.30084C20.2656 6.94347 20.5906 6.67551 20.9782 6.55387C21.3659 6.43223 21.7856 6.46649 22.1484 6.64937C22.5112 6.83226 22.7884 7.14936 22.9212 7.53334L23.7852 10.0506C24.3225 9.92236 24.8906 10.1049 25.3891 10.5157C25.8577 10.9018 26.2721 11.5002 26.5234 12.2211L26.5305 12.2416C26.781 12.9714 26.8234 13.7054 26.6898 14.3023C26.5484 14.9338 26.2119 15.4274 25.7091 15.6568L26.6112 18.2851C26.7422 18.6714 26.7168 19.0938 26.5403 19.4616C26.3639 19.8295 26.0505 20.1137 25.6671 20.2534C25.2838 20.393 24.861 20.3771 24.4893 20.209C24.1175 20.0409 23.8264 19.734 23.6781 19.3539L18.6175 19.0479C18.015 19.0081 17.5613 18.9862 17.189 18.9866L17.1886 18.9862ZM15.2608 13.9221C15.6746 13.645 16.1469 13.2589 16.8458 12.6509C16.859 12.6394 16.8715 12.6274 16.8833 12.6149L20.3122 9.55125L23.3058 18.2734L18.6832 17.9939C17.7463 17.9319 17.1345 17.9094 16.64 17.9407L15.2608 13.9223V13.9221ZM15.0735 19.4108C15.3842 19.291 15.7017 19.1893 16.0242 19.1065L17.3121 21.1933L16.6902 21.4067C16.6735 21.4124 16.6096 21.4386 16.5439 21.4654C16.4598 21.4997 16.3585 21.541 16.2289 21.3255L15.0735 19.4108ZM14.0936 18.646C13.8772 18.7256 13.6393 18.8121 13.3781 18.9044L13.3696 18.9072V18.9068C13.0799 19.0087 12.7622 18.9957 12.4817 18.8706C12.3536 18.814 12.2384 18.7318 12.1432 18.6291C12.048 18.5263 11.9749 18.4052 11.9283 18.2731L11.3454 16.5761C11.3009 16.4432 11.2841 16.3026 11.2961 16.163C11.308 16.0234 11.3484 15.8877 11.4148 15.7643C11.5594 15.4933 11.8023 15.2879 12.0935 15.1904C12.5303 15.0406 12.8336 14.941 13.0975 14.8542C13.603 14.6883 13.9818 14.564 14.3157 14.4264L15.5846 18.1233C15.248 18.2196 14.8839 18.3542 14.3985 18.5338C14.3112 18.566 14.2197 18.5998 14.1239 18.6351C14.1141 18.6382 14.1035 18.6419 14.0934 18.646H14.0936Z" fill="black"/>
</svg>
