<svg width="37" height="33" viewBox="0 0 37 33" fill="none" xmlns="http://www.w3.org/2000/svg">
<path fill-rule="evenodd" clip-rule="evenodd" d="M19.7975 24.1207C19.6494 24.2557 19.4518 24.5199 19.2696 24.2982L15.2524 19.2291L17.3002 18.0471C17.3374 18.0256 17.3733 18.002 17.4075 17.9766L20.717 22.4313C20.9326 22.7217 20.8989 23.1221 20.632 23.364L19.7975 24.1207ZM27.3439 9.0494L29.7681 13.2482C30.2169 14.024 29.9485 15.0271 29.1713 15.4759C28.3941 15.9246 27.391 15.6562 26.9422 14.879L20.2492 3.28651C19.8005 2.50923 20.0688 1.50622 20.8461 1.05746C21.6233 0.608706 22.6264 0.878549 23.0751 1.65575L25.4992 5.85428C25.5993 5.76247 25.711 5.68014 25.8335 5.60936C26.7369 5.08735 27.8925 5.39676 28.4146 6.3016C28.9366 7.20493 28.6272 8.3605 27.7224 8.88258C27.6001 8.95321 27.4732 9.00863 27.3439 9.0494ZM9.59622 22.4261C8.94825 22.5619 8.30123 22.7134 7.65509 22.8804L7.65103 22.8815C6.55151 23.1703 5.78498 24.1643 5.78498 25.3011V29.9587C3.99951 29.9036 2.22853 30.05 0.469499 30.3649C0.303963 30.3953 0.137232 30.3182 0.0531501 30.1725C-0.030932 30.0266 -0.0140519 29.8437 0.0952707 29.7157C1.23404 28.397 2.53715 27.2426 4.10573 26.3539C3.03289 24.7941 1.77428 23.6058 0.372837 22.7032C0.230949 22.6144 0.160243 22.4459 0.196313 22.2824C0.232302 22.119 0.367184 21.9958 0.533278 21.9748C3.07899 21.6596 5.62494 21.5737 8.17105 21.8154C8.7171 21.8667 9.20909 22.0889 9.59622 22.4261ZM27.3362 22.4878C27.7329 22.1161 28.251 21.8698 28.8297 21.8154C31.3758 21.5737 33.9217 21.6595 36.4677 21.9729C36.6345 21.9941 36.77 22.1179 36.8062 22.282C36.8423 22.4462 36.7714 22.6155 36.6288 22.7048C35.2264 23.6058 33.9678 24.7941 32.895 26.3539C34.4636 27.2426 35.7667 28.3969 36.905 29.7161C37.014 29.8439 37.0309 30.0265 36.9469 30.1721C36.863 30.3177 36.6965 30.3946 36.5313 30.3643C34.7001 30.0371 32.856 29.8919 30.9962 29.9666C30.9961 28.3842 30.996 26.4797 30.9956 25.3152C30.9956 24.1679 30.2145 23.1675 29.1011 22.8892L29.0978 22.8884C28.5099 22.7434 27.9227 22.6099 27.3362 22.4878ZM21.9742 22.814C24.249 23.0173 26.5346 23.4042 28.8308 23.9707C29.4479 24.1249 29.8809 24.6794 29.8809 25.3155C29.8814 27.1421 29.8816 30.7899 29.8816 32.1582C29.8816 32.2837 29.8223 32.402 29.7217 32.4771C29.621 32.5523 29.4909 32.5756 29.3704 32.5399C22.0514 30.3915 14.7322 30.3404 7.41304 32.5354C7.29249 32.5718 7.16182 32.5491 7.0607 32.474C6.95966 32.399 6.90002 32.2806 6.90002 32.1547C6.89971 30.4529 6.8997 25.3011 6.8997 25.3011C6.8997 24.6708 7.32465 24.1197 7.93425 23.9596C10.7926 23.2204 13.6694 22.7963 16.5643 22.6793L18.3959 24.9905C18.4 24.9957 18.4041 25.0008 18.4083 25.0058C18.6945 25.3542 19.0133 25.4659 19.3054 25.4929C19.5781 25.5182 19.8599 25.4573 20.126 25.2954C20.2741 25.2052 20.4266 25.0556 20.5477 24.9454L21.3808 24.1898C21.7838 23.8244 21.9857 23.3202 21.9742 22.814ZM10.4839 30.0835C15.8782 28.8153 21.1456 28.8424 26.2943 30.0828C26.5934 30.1549 26.8947 29.9705 26.9667 29.6715C27.0388 29.3724 26.8545 29.0711 26.5554 28.9991C21.2386 27.7182 15.7992 27.6888 10.2288 28.9984C9.92937 29.0688 9.74344 29.3691 9.81383 29.6685C9.88422 29.968 10.1845 30.1539 10.4839 30.0835ZM12.7326 27.8022C16.5677 26.9733 20.3382 26.9847 24.047 27.798C24.3474 27.8639 24.6449 27.6735 24.7108 27.373C24.7767 27.0726 24.5862 26.7751 24.2858 26.7092C20.4215 25.8617 16.493 25.849 12.4971 26.7126C12.1964 26.7776 12.0051 27.0745 12.07 27.3751C12.1351 27.6758 12.4319 27.8671 12.7326 27.8022ZM30.9617 5.47336C30.6952 5.62703 30.3541 5.53547 30.2004 5.26897C30.0467 5.00247 30.1383 4.66136 30.4048 4.50769L32.4314 3.3389C32.6979 3.18523 33.039 3.2768 33.1927 3.5433C33.3464 3.80979 33.2548 4.1509 32.9883 4.30457L30.9617 5.47336ZM28.051 2.97288C27.897 3.23922 27.5559 3.33054 27.2895 3.17663C27.0232 3.02272 26.9319 2.68145 27.0858 2.41512L28.3206 0.278508C28.4745 0.0121689 28.8157 -0.0791587 29.0821 0.0748324C29.3484 0.228744 29.4397 0.569929 29.2857 0.836268L28.051 2.97288ZM25.4556 14.5337C23.0937 14.6103 20.3867 15.2182 17.6052 16.3458L14.3107 10.6401C16.6773 8.79484 18.5574 6.75426 19.8055 4.74736L25.4556 14.5337ZM31.1144 9.39448C30.8067 9.39448 30.557 9.1447 30.557 8.83712C30.557 8.52946 30.8067 8.27976 31.1144 8.27976H33.5825C33.89 8.27976 34.1398 8.52946 34.1398 8.83712C34.1398 9.1447 33.89 9.39448 33.5825 9.39448H31.1144ZM13.2424 11.0192L16.7429 17.0816L13.9991 18.6654C12.3317 19.6289 10.1789 19.0526 9.2169 17.3852C8.25346 15.7178 8.8312 13.5651 10.4986 12.6031L13.2424 11.0192Z" fill="black"/>
</svg>
