<svg width="34" height="27" viewBox="0 0 34 27" fill="none" xmlns="http://www.w3.org/2000/svg">
<path d="M16.999 10.8145C15.4335 10.8145 14.1602 12.0878 14.1602 13.6533C14.1602 15.2185 15.4335 16.4922 16.999 16.4922C18.5646 16.4922 19.8379 15.2185 19.8379 13.6533C19.8379 12.0878 18.5646 10.8145 16.999 10.8145ZM16.999 15.005C16.2523 15.005 15.6473 14.3999 15.6473 13.6533C15.6473 12.9064 16.2523 12.3013 16.999 12.3013C17.7454 12.3013 18.3507 12.9064 18.3507 13.6533C18.3507 14.3999 17.7454 15.005 16.999 15.005Z" fill="black"/>
<path d="M26.0146 5.82617H7.58789V8.674H8.35173C8.91153 8.674 9.36542 9.12789 9.36542 9.68786C9.36542 10.2475 8.91153 10.7017 8.35173 10.7017H7.58789V16.6047H8.35173C8.91153 16.6047 9.36542 17.0588 9.36542 17.6184C9.36542 18.1786 8.91153 18.6325 8.35173 18.6325H7.58789V21.4801H26.0146V5.82617ZM22.6208 14.6672H21.7591C21.3609 16.5382 19.8843 18.0142 18.0133 18.4121V19.2744C18.0133 19.8342 17.5593 20.2881 16.9996 20.2881C16.4395 20.2881 15.9856 19.8342 15.9856 19.2744V18.4121C14.1145 18.0142 12.6384 16.5382 12.24 14.6672H11.3782C10.8186 14.6672 10.3643 14.2131 10.3643 13.653C10.3643 13.0933 10.8186 12.6393 11.3782 12.6393H12.2396C12.6378 10.7678 14.1143 9.29125 15.9856 8.89314V8.03186C15.9856 7.47205 16.4395 7.01816 16.9995 7.01816C17.5593 7.01816 18.0133 7.47205 18.0133 8.03186V8.89314C19.8847 9.29125 21.361 10.7681 21.7593 12.6393H22.6208C23.1806 12.6393 23.6345 13.0933 23.6345 13.653C23.6345 14.2131 23.1807 14.6672 22.6208 14.6672Z" fill="black"/>
<path d="M34 25.5174V1.01402C34 0.454053 33.5459 0 32.986 0H1.01402C0.454053 0 0 0.454053 0 1.01402V25.5174C0 26.0774 0.454053 26.5313 1.01402 26.5313H32.986C33.5459 26.5313 34 26.0774 34 25.5174ZM4.75402 10.7027C4.19389 10.7027 3.74 10.2485 3.74 9.68884C3.74 9.12887 4.19389 8.67498 4.75402 8.67498H5.56053V4.81346C5.56053 4.25332 6.01441 3.79943 6.57438 3.79943H27.0292C27.5891 3.79943 28.0432 4.25332 28.0432 4.81346V22.4949C28.0432 23.0548 27.5891 23.5088 27.0292 23.5088H6.57438C6.01441 23.5088 5.56053 23.0548 5.56053 22.4949V18.6334H4.75402C4.19389 18.6334 3.74 18.1795 3.74 17.6194C3.74 17.0598 4.19389 16.6057 4.75402 16.6057H5.56053V10.7027H4.75402Z" fill="black"/>
</svg>
