<svg width="345" height="160" viewBox="0 0 345 160" fill="none" xmlns="http://www.w3.org/2000/svg">
<rect x="0.5" y="0.5" width="343.803" height="158.894" rx="17.5" fill="white" stroke="#1E1E1E"/>
<path d="M160.586 51.5978L157.946 53.4898L156.978 52.0598L161.268 48.9798H162.456V64.0278H160.586V51.5978ZM168.988 64.3798C167.785 64.3798 166.78 64.1012 165.974 63.5438C165.167 62.9718 164.595 62.2458 164.258 61.3658L165.93 60.6178C166.208 61.2925 166.619 61.8132 167.162 62.1798C167.719 62.5465 168.328 62.7298 168.988 62.7298C169.692 62.7298 170.293 62.5905 170.792 62.3118C171.29 62.0185 171.54 61.6078 171.54 61.0798C171.54 60.6105 171.342 60.2365 170.946 59.9578C170.55 59.6645 169.926 59.4152 169.076 59.2098L167.712 58.8578C166.817 58.6378 166.084 58.2638 165.512 57.7358C164.94 57.2078 164.654 56.5258 164.654 55.6898C164.654 55.0445 164.844 54.4798 165.226 53.9958C165.622 53.4972 166.142 53.1158 166.788 52.8518C167.433 52.5878 168.13 52.4558 168.878 52.4558C169.86 52.4558 170.733 52.6685 171.496 53.0938C172.273 53.5192 172.823 54.1132 173.146 54.8758L171.518 55.6238C171.019 54.6265 170.132 54.1278 168.856 54.1278C168.24 54.1278 167.697 54.2745 167.228 54.5678C166.773 54.8465 166.546 55.2058 166.546 55.6458C166.546 56.0565 166.707 56.3938 167.03 56.6578C167.352 56.9072 167.836 57.1125 168.482 57.2738L170.11 57.6918C171.21 57.9705 172.038 58.3885 172.596 58.9458C173.153 59.4885 173.432 60.1558 173.432 60.9478C173.432 61.6372 173.234 62.2458 172.838 62.7738C172.442 63.2872 171.906 63.6832 171.232 63.9618C170.557 64.2405 169.809 64.3798 168.988 64.3798ZM179.015 64.2038C178.56 64.2038 178.135 64.1305 177.739 63.9838C177.357 63.8372 177.035 63.6392 176.771 63.3898C176.477 63.1112 176.257 62.7885 176.111 62.4218C175.964 62.0552 175.891 61.6078 175.891 61.0798V54.5018H173.933V52.8078H175.891V49.6398H177.761V52.8078H180.489V54.5018H177.761V60.6178C177.761 61.2338 177.878 61.6885 178.113 61.9818C178.391 62.3045 178.795 62.4658 179.323 62.4658C179.748 62.4658 180.159 62.3412 180.555 62.0918V63.9178C180.335 64.0205 180.107 64.0938 179.873 64.1378C179.653 64.1818 179.367 64.2038 179.015 64.2038ZM186.927 48.2758H192.251C193.116 48.2758 193.923 48.4738 194.671 48.8698C195.419 49.2658 196.013 49.8232 196.453 50.5418C196.907 51.2458 197.135 52.0452 197.135 52.9398C197.135 53.6732 196.966 54.3552 196.629 54.9858C196.306 55.6165 195.851 56.1445 195.265 56.5698C194.693 56.9952 194.055 57.2812 193.351 57.4278L193.307 57.4938L197.751 63.9398V64.0278H195.551L191.261 57.6038H188.775V64.0278H186.927V48.2758ZM192.141 55.8658C192.683 55.8658 193.189 55.7412 193.659 55.4918C194.143 55.2425 194.524 54.8978 194.803 54.4578C195.096 54.0032 195.243 53.4972 195.243 52.9398C195.243 52.4558 195.118 51.9938 194.869 51.5538C194.619 51.1138 194.267 50.7545 193.813 50.4758C193.373 50.1972 192.859 50.0578 192.273 50.0578H188.775V55.8658H192.141ZM202.638 64.3798C201.289 64.3798 200.255 63.9838 199.536 63.1918C198.832 62.3998 198.48 61.2925 198.48 59.8698V52.8078H200.35V59.5838C200.35 60.6545 200.592 61.4392 201.076 61.9378C201.56 62.4365 202.213 62.6858 203.034 62.6858C203.665 62.6858 204.222 62.5172 204.706 62.1798C205.205 61.8425 205.586 61.4025 205.85 60.8598C206.129 60.3172 206.268 59.7452 206.268 59.1438V52.8078H208.138V64.0278H206.356V62.3998H206.268C205.96 62.9572 205.469 63.4265 204.794 63.8078C204.12 64.1892 203.401 64.3798 202.638 64.3798ZM210.24 52.8078H212.022V54.4578H212.11C212.418 53.9005 212.91 53.4312 213.584 53.0498C214.259 52.6538 214.978 52.4558 215.74 52.4558C217.09 52.4558 218.116 52.8518 218.82 53.6438C219.539 54.4212 219.898 55.4845 219.898 56.8338V64.0278H218.028V57.1198C218.028 56.0785 217.779 55.3232 217.28 54.8538C216.782 54.3845 216.1 54.1498 215.234 54.1498C214.633 54.1498 214.09 54.3185 213.606 54.6558C213.137 54.9932 212.77 55.4405 212.506 55.9978C212.242 56.5405 212.11 57.1125 212.11 57.7138V64.0278H210.24V52.8078ZM221.912 52.8078H223.694V54.4578H223.782C224.09 53.9005 224.582 53.4312 225.256 53.0498C225.931 52.6538 226.65 52.4558 227.412 52.4558C228.762 52.4558 229.788 52.8518 230.492 53.6438C231.211 54.4212 231.57 55.4845 231.57 56.8338V64.0278H229.7V57.1198C229.7 56.0785 229.451 55.3232 228.952 54.8538C228.454 54.3845 227.772 54.1498 226.906 54.1498C226.305 54.1498 225.762 54.3185 225.278 54.6558C224.809 54.9932 224.442 55.4405 224.178 55.9978C223.914 56.5405 223.782 57.1125 223.782 57.7138V64.0278H221.912V52.8078ZM238.579 64.3798C237.508 64.3798 236.547 64.1232 235.697 63.6098C234.846 63.0965 234.179 62.3925 233.695 61.4978C233.225 60.5885 232.991 59.5692 232.991 58.4398C232.991 57.3545 233.211 56.3572 233.651 55.4478C234.105 54.5385 234.743 53.8125 235.565 53.2698C236.386 52.7272 237.339 52.4558 238.425 52.4558C239.525 52.4558 240.478 52.7052 241.285 53.2038C242.091 53.6878 242.707 54.3625 243.133 55.2278C243.573 56.0932 243.793 57.0832 243.793 58.1978C243.793 58.4178 243.771 58.6085 243.727 58.7698H234.861C234.905 59.6205 235.11 60.3392 235.477 60.9258C235.843 61.5125 236.305 61.9525 236.863 62.2458C237.435 62.5392 238.029 62.6858 238.645 62.6858C240.082 62.6858 241.189 62.0112 241.967 60.6618L243.551 61.4318C243.067 62.3412 242.407 63.0598 241.571 63.5878C240.749 64.1158 239.752 64.3798 238.579 64.3798ZM241.813 57.2298C241.783 56.7605 241.651 56.2912 241.417 55.8218C241.182 55.3525 240.808 54.9565 240.295 54.6338C239.796 54.3112 239.165 54.1498 238.403 54.1498C237.523 54.1498 236.775 54.4358 236.159 55.0078C235.557 55.5652 235.161 56.3058 234.971 57.2298H241.813ZM245.321 52.8078H247.103V54.6118H247.191C247.411 53.9958 247.836 53.4898 248.467 53.0938C249.098 52.6832 249.758 52.4778 250.447 52.4778C250.96 52.4778 251.4 52.5512 251.767 52.6978V54.7218C251.298 54.4872 250.77 54.3698 250.183 54.3698C249.64 54.3698 249.142 54.5238 248.687 54.8318C248.232 55.1398 247.866 55.5578 247.587 56.0858C247.323 56.5992 247.191 57.1565 247.191 57.7578V64.0278H245.321V52.8078ZM261.434 64.3798C260.085 64.3798 259.051 63.9838 258.332 63.1918C257.628 62.3998 257.276 61.2925 257.276 59.8698V52.8078H259.146V59.5838C259.146 60.6545 259.388 61.4392 259.872 61.9378C260.356 62.4365 261.009 62.6858 261.83 62.6858C262.461 62.6858 263.018 62.5172 263.502 62.1798C264.001 61.8425 264.382 61.4025 264.646 60.8598C264.925 60.3172 265.064 59.7452 265.064 59.1438V52.8078H266.934V64.0278H265.152V62.3998H265.064C264.756 62.9572 264.265 63.4265 263.59 63.8078C262.916 64.1892 262.197 64.3798 261.434 64.3798ZM268.948 52.8078H270.73V54.4798H270.818C271.156 53.9078 271.662 53.4312 272.336 53.0498C273.026 52.6538 273.796 52.4558 274.646 52.4558C275.644 52.4558 276.553 52.7125 277.374 53.2258C278.196 53.7392 278.841 54.4505 279.31 55.3598C279.78 56.2692 280.014 57.2885 280.014 58.4178C280.014 59.5618 279.78 60.5885 279.31 61.4978C278.841 62.3925 278.196 63.0965 277.374 63.6098C276.553 64.1232 275.644 64.3798 274.646 64.3798C273.796 64.3798 273.026 64.1892 272.336 63.8078C271.662 63.4118 271.156 62.9352 270.818 62.3778H270.73L270.818 63.9178V68.7798H268.948V52.8078ZM274.426 62.6858C275.072 62.6858 275.68 62.5098 276.252 62.1578C276.824 61.8058 277.279 61.3072 277.616 60.6618C277.968 60.0018 278.144 59.2538 278.144 58.4178C278.144 57.5818 277.968 56.8412 277.616 56.1958C277.279 55.5358 276.824 55.0298 276.252 54.6778C275.68 54.3258 275.072 54.1498 274.426 54.1498C273.781 54.1498 273.172 54.3258 272.6 54.6778C272.028 55.0298 271.574 55.5285 271.236 56.1738C270.899 56.8192 270.73 57.5672 270.73 58.4178C270.73 59.2685 270.899 60.0165 271.236 60.6618C271.574 61.3072 272.028 61.8058 272.6 62.1578C273.172 62.5098 273.781 62.6858 274.426 62.6858Z" fill="#1E1E1E"/>
<rect x="155.988" y="79.9531" width="155.752" height="45.4375" rx="7.44504" fill="#4285F4"/>
<path d="M185.836 95.7959C186.349 96.3532 186.686 97.0572 186.848 97.9079H188.256V99.5799H186.848C186.672 100.651 186.18 101.531 185.374 102.22C184.567 102.909 183.628 103.305 182.558 103.408H182.404L182.382 103.584L187.684 108.996V109.172H183.878L178.334 103.474V100.9H181.942C182.44 100.9 182.88 100.783 183.262 100.548C183.658 100.313 183.936 99.9905 184.098 99.5799H176.53V97.9079H184.098C183.922 97.5119 183.65 97.1965 183.284 96.9619C182.917 96.7125 182.477 96.5879 181.964 96.5879H176.53V94.1239H188.256V95.7959H185.836ZM194.458 109.524C193.182 109.524 192.052 109.187 191.07 108.512C190.102 107.837 189.434 106.855 189.068 105.564L191.796 104.486C191.972 105.205 192.287 105.762 192.742 106.158C193.196 106.539 193.768 106.73 194.458 106.73C195.088 106.73 195.631 106.539 196.086 106.158C196.555 105.777 196.79 105.293 196.79 104.706C196.79 104.075 196.54 103.577 196.042 103.21C195.558 102.829 194.898 102.638 194.062 102.638H192.764V100.02H193.952C194.597 100.02 195.14 99.8585 195.58 99.5359C196.034 99.2132 196.262 98.7439 196.262 98.1279C196.262 97.6292 196.078 97.2185 195.712 96.8959C195.345 96.5732 194.876 96.4119 194.304 96.4119C193.702 96.4119 193.218 96.5732 192.852 96.8959C192.485 97.2185 192.228 97.6219 192.082 98.1059L189.464 97.0279C189.772 96.1479 190.336 95.3852 191.158 94.7399C191.994 94.0945 193.05 93.7719 194.326 93.7719C195.264 93.7719 196.1 93.9479 196.834 94.2999C197.582 94.6519 198.161 95.1359 198.572 95.7519C198.982 96.3532 199.188 97.0352 199.188 97.7979C199.188 98.6045 198.997 99.2939 198.616 99.8659C198.249 100.438 197.802 100.856 197.274 101.12V101.296C198.007 101.589 198.601 102.051 199.056 102.682C199.51 103.313 199.738 104.075 199.738 104.97C199.738 105.835 199.518 106.613 199.078 107.302C198.638 107.991 198.014 108.534 197.208 108.93C196.416 109.326 195.499 109.524 194.458 109.524ZM201.004 111.13L202.324 109.128C201.986 108.996 201.7 108.776 201.466 108.468C201.246 108.16 201.136 107.801 201.136 107.39C201.136 106.862 201.319 106.415 201.686 106.048C202.067 105.681 202.522 105.498 203.05 105.498C203.578 105.498 204.025 105.681 204.392 106.048C204.773 106.415 204.964 106.862 204.964 107.39C204.964 107.654 204.92 107.889 204.832 108.094C204.744 108.299 204.597 108.556 204.392 108.864L202.302 111.988L201.004 111.13ZM212.952 109.524C211.69 109.524 210.583 109.187 209.63 108.512C208.676 107.823 207.936 106.884 207.408 105.696C206.894 104.493 206.638 103.144 206.638 101.648C206.638 100.152 206.894 98.8099 207.408 97.6219C207.936 96.4192 208.676 95.4805 209.63 94.8059C210.583 94.1165 211.69 93.7719 212.952 93.7719C214.213 93.7719 215.32 94.1165 216.274 94.8059C217.227 95.4805 217.96 96.4192 218.474 97.6219C219.002 98.8099 219.266 100.152 219.266 101.648C219.266 103.144 219.002 104.493 218.474 105.696C217.96 106.884 217.227 107.823 216.274 108.512C215.32 109.187 214.213 109.524 212.952 109.524ZM212.952 106.818C213.656 106.818 214.264 106.598 214.778 106.158C215.306 105.703 215.702 105.087 215.966 104.31C216.244 103.518 216.384 102.631 216.384 101.648C216.384 100.123 216.076 98.8832 215.46 97.9299C214.844 96.9619 214.008 96.4779 212.952 96.4779C211.91 96.4779 211.082 96.9619 210.466 97.9299C209.85 98.8979 209.542 100.137 209.542 101.648C209.542 102.631 209.674 103.518 209.938 104.31C210.216 105.087 210.612 105.703 211.126 106.158C211.654 106.598 212.262 106.818 212.952 106.818ZM227.137 109.524C225.876 109.524 224.769 109.187 223.815 108.512C222.862 107.823 222.121 106.884 221.593 105.696C221.08 104.493 220.823 103.144 220.823 101.648C220.823 100.152 221.08 98.8099 221.593 97.6219C222.121 96.4192 222.862 95.4805 223.815 94.8059C224.769 94.1165 225.876 93.7719 227.137 93.7719C228.399 93.7719 229.506 94.1165 230.459 94.8059C231.413 95.4805 232.146 96.4192 232.659 97.6219C233.187 98.8099 233.451 100.152 233.451 101.648C233.451 103.144 233.187 104.493 232.659 105.696C232.146 106.884 231.413 107.823 230.459 108.512C229.506 109.187 228.399 109.524 227.137 109.524ZM227.137 106.818C227.841 106.818 228.45 106.598 228.963 106.158C229.491 105.703 229.887 105.087 230.151 104.31C230.43 103.518 230.569 102.631 230.569 101.648C230.569 100.123 230.261 98.8832 229.645 97.9299C229.029 96.9619 228.193 96.4779 227.137 96.4779C226.096 96.4779 225.267 96.9619 224.651 97.9299C224.035 98.8979 223.727 100.137 223.727 101.648C223.727 102.631 223.859 103.518 224.123 104.31C224.402 105.087 224.798 105.703 225.311 106.158C225.839 106.598 226.448 106.818 227.137 106.818ZM235.053 111.13L236.373 109.128C236.036 108.996 235.75 108.776 235.515 108.468C235.295 108.16 235.185 107.801 235.185 107.39C235.185 106.862 235.368 106.415 235.735 106.048C236.116 105.681 236.571 105.498 237.099 105.498C237.627 105.498 238.074 105.681 238.441 106.048C238.822 106.415 239.013 106.862 239.013 107.39C239.013 107.654 238.969 107.889 238.881 108.094C238.793 108.299 238.646 108.556 238.441 108.864L236.351 111.988L235.053 111.13ZM247.001 109.524C245.74 109.524 244.632 109.187 243.679 108.512C242.726 107.823 241.985 106.884 241.457 105.696C240.944 104.493 240.687 103.144 240.687 101.648C240.687 100.152 240.944 98.8099 241.457 97.6219C241.985 96.4192 242.726 95.4805 243.679 94.8059C244.632 94.1165 245.74 93.7719 247.001 93.7719C248.262 93.7719 249.37 94.1165 250.323 94.8059C251.276 95.4805 252.01 96.4192 252.523 97.6219C253.051 98.8099 253.315 100.152 253.315 101.648C253.315 103.144 253.051 104.493 252.523 105.696C252.01 106.884 251.276 107.823 250.323 108.512C249.37 109.187 248.262 109.524 247.001 109.524ZM247.001 106.818C247.705 106.818 248.314 106.598 248.827 106.158C249.355 105.703 249.751 105.087 250.015 104.31C250.294 103.518 250.433 102.631 250.433 101.648C250.433 100.123 250.125 98.8832 249.509 97.9299C248.893 96.9619 248.057 96.4779 247.001 96.4779C245.96 96.4779 245.131 96.9619 244.515 97.9299C243.899 98.8979 243.591 100.137 243.591 101.648C243.591 102.631 243.723 103.518 243.987 104.31C244.266 105.087 244.662 105.703 245.175 106.158C245.703 106.598 246.312 106.818 247.001 106.818ZM261.187 109.524C259.925 109.524 258.818 109.187 257.865 108.512C256.911 107.823 256.171 106.884 255.643 105.696C255.129 104.493 254.873 103.144 254.873 101.648C254.873 100.152 255.129 98.8099 255.643 97.6219C256.171 96.4192 256.911 95.4805 257.865 94.8059C258.818 94.1165 259.925 93.7719 261.187 93.7719C262.448 93.7719 263.555 94.1165 264.509 94.8059C265.462 95.4805 266.195 96.4192 266.709 97.6219C267.237 98.8099 267.501 100.152 267.501 101.648C267.501 103.144 267.237 104.493 266.709 105.696C266.195 106.884 265.462 107.823 264.509 108.512C263.555 109.187 262.448 109.524 261.187 109.524ZM261.187 106.818C261.891 106.818 262.499 106.598 263.013 106.158C263.541 105.703 263.937 105.087 264.201 104.31C264.479 103.518 264.619 102.631 264.619 101.648C264.619 100.123 264.311 98.8832 263.695 97.9299C263.079 96.9619 262.243 96.4779 261.187 96.4779C260.145 96.4779 259.317 96.9619 258.701 97.9299C258.085 98.8979 257.777 100.137 257.777 101.648C257.777 102.631 257.909 103.518 258.173 104.31C258.451 105.087 258.847 105.703 259.361 106.158C259.889 106.598 260.497 106.818 261.187 106.818ZM275.372 109.524C274.111 109.524 273.004 109.187 272.05 108.512C271.097 107.823 270.356 106.884 269.828 105.696C269.315 104.493 269.058 103.144 269.058 101.648C269.058 100.152 269.315 98.8099 269.828 97.6219C270.356 96.4192 271.097 95.4805 272.05 94.8059C273.004 94.1165 274.111 93.7719 275.372 93.7719C276.634 93.7719 277.741 94.1165 278.694 94.8059C279.648 95.4805 280.381 96.4192 280.894 97.6219C281.422 98.8099 281.686 100.152 281.686 101.648C281.686 103.144 281.422 104.493 280.894 105.696C280.381 106.884 279.648 107.823 278.694 108.512C277.741 109.187 276.634 109.524 275.372 109.524ZM275.372 106.818C276.076 106.818 276.685 106.598 277.198 106.158C277.726 105.703 278.122 105.087 278.386 104.31C278.665 103.518 278.804 102.631 278.804 101.648C278.804 100.123 278.496 98.8832 277.88 97.9299C277.264 96.9619 276.428 96.4779 275.372 96.4779C274.331 96.4779 273.502 96.9619 272.886 97.9299C272.27 98.8979 271.962 100.137 271.962 101.648C271.962 102.631 272.094 103.518 272.358 104.31C272.637 105.087 273.033 105.703 273.546 106.158C274.074 106.598 274.683 106.818 275.372 106.818Z" fill="white"/>
<ellipse cx="85.9755" cy="84.0069" rx="50.8739" ry="49.8994" fill="#D9D9D9" fill-opacity="0.32"/>
<path d="M102.171 65.7178C105.539 62.3493 110.805 61.7719 113.596 61.7306C114.71 61.7169 115.521 62.5281 115.507 63.6417C115.466 66.419 114.888 71.6847 111.52 75.0669C108.152 78.4353 102.886 79.0128 100.095 79.054C98.9812 79.0678 98.17 78.2566 98.1838 77.1429C98.225 74.352 98.7887 69.0862 102.171 65.7178Z" fill="url(#paint0_linear_188_91)"/>
<path d="M103.981 72.3444C108.119 69.9659 113.344 70.7908 116.052 71.4645C117.138 71.7395 117.702 72.7294 117.399 73.8018C116.629 76.469 114.705 81.4048 110.566 83.7833C106.428 86.1619 101.203 85.3369 98.4949 84.6632C97.4088 84.3883 96.8451 83.3984 97.1476 82.326C97.9175 79.6587 99.8423 74.7229 103.981 72.3444Z" fill="url(#paint1_linear_188_91)"/>
<path d="M105.813 78.2011C110.529 77.4587 115.121 80.0984 117.389 81.6933C118.31 82.3395 118.489 83.4668 117.802 84.3605C116.124 86.5741 112.563 90.4924 107.848 91.2349C103.132 91.9773 98.5397 89.3375 96.2711 87.7427C95.35 87.0965 95.1712 85.9691 95.8587 85.0754C97.536 82.8619 101.097 78.9435 105.813 78.2011Z" fill="url(#paint2_linear_188_91)"/>
<path d="M103.036 83.6051C107.532 85.1999 110.323 89.7095 111.56 92.1843C112.055 93.1879 111.67 94.2603 110.666 94.7278C108.137 95.8827 103.132 97.6288 98.6363 96.0477C94.1405 94.4528 91.3495 89.9432 90.1121 87.4685C89.6171 86.4648 89.9883 85.3924 91.0058 84.9249C93.5355 83.7563 98.54 82.0102 103.036 83.6051Z" fill="url(#paint3_linear_188_91)"/>
<path d="M72.3892 65.7178C69.0207 62.3493 63.755 61.7719 60.964 61.7306C59.8503 61.7169 59.0392 62.5281 59.0529 63.6417C59.1079 66.419 59.6716 71.6847 63.04 75.0669C66.4085 78.4491 71.6742 79.0128 74.4652 79.054C75.5789 79.0678 76.39 78.2566 76.3763 77.1429C76.335 74.352 75.7713 69.0862 72.3892 65.7178Z" fill="url(#paint4_linear_188_91)"/>
<path d="M70.5878 72.3444C66.4494 69.9659 61.2112 70.7908 58.5164 71.4645C57.4303 71.7395 56.8666 72.7294 57.169 73.8018C57.939 76.469 59.8638 81.4048 64.0022 83.7833C68.1405 86.1619 73.3788 85.3369 76.0735 84.6632C77.1597 84.3883 77.7371 83.3984 77.4209 82.326C76.6372 79.6587 74.7124 74.7229 70.5878 72.3444Z" fill="url(#paint5_linear_188_91)"/>
<path d="M68.7479 78.2011C64.0459 77.4587 59.4538 80.0984 57.1715 81.6933C56.2504 82.3395 56.0716 83.4668 56.7591 84.3605C58.4364 86.5741 61.9973 90.4924 66.7131 91.2349C71.4289 91.9773 76.021 89.3375 78.2896 87.7427C79.2107 87.0965 79.3757 85.9691 78.7158 85.0754C77.0247 82.8619 73.4638 78.9435 68.7479 78.2011Z" fill="url(#paint6_linear_188_91)"/>
<path d="M71.524 83.6051C67.0282 85.1999 64.2372 89.7095 62.9998 92.1843C62.5049 93.1879 62.8898 94.2603 63.9072 94.7278C66.437 95.8827 71.4415 97.6288 75.9374 96.0477C80.4332 94.4528 83.2242 89.9432 84.4616 87.4685C84.9565 86.4648 84.5853 85.3924 83.5542 84.9249C81.0244 83.7563 76.0199 82.0102 71.524 83.6051Z" fill="url(#paint7_linear_188_91)"/>
<path d="M95.8793 101.518H78.6934L81.4431 92.5815H93.1295L95.8793 101.518Z" fill="url(#paint8_linear_188_91)"/>
<path d="M74.2185 101.521H100.341C101.853 101.521 103.091 102.758 103.091 104.27V109.082H71.4688V104.27C71.4688 102.758 72.7061 101.521 74.2185 101.521Z" fill="url(#paint9_linear_188_91)"/>
<path d="M69.7457 109.081H104.805C106.895 109.081 108.586 110.772 108.586 112.862C108.586 114.952 106.895 116.643 104.805 116.643H69.7457C67.6559 116.643 65.9648 114.952 65.9648 112.862C65.9648 110.786 67.6559 109.081 69.7457 109.081Z" fill="url(#paint10_linear_188_91)"/>
<path d="M69.4102 61.7305H105.157V78.5726C105.157 88.4442 97.1551 96.446 87.2835 96.446C77.4257 96.446 69.4102 88.4442 69.4102 78.5726V61.7305Z" fill="url(#paint11_linear_188_91)"/>
<path d="M69.0621 52.7925H105.496C107.957 52.7925 109.965 54.7998 109.965 57.2608C109.965 59.7218 107.957 61.7291 105.496 61.7291H69.0621C66.6011 61.7291 64.5938 59.7218 64.5938 57.2471C64.5938 54.786 66.6011 52.7925 69.0621 52.7925Z" fill="url(#paint12_linear_188_91)"/>
<defs>
<linearGradient id="paint0_linear_188_91" x1="98.7132" y1="78.469" x2="114.976" y2="62.2064" gradientUnits="userSpaceOnUse">
<stop offset="0.5" stop-color="#A6A6A6"/>
<stop offset="1" stop-color="#E6E6E6"/>
</linearGradient>
<linearGradient id="paint1_linear_188_91" x1="99.5613" y1="85.6103" x2="113.089" y2="68.7101" gradientUnits="userSpaceOnUse">
<stop offset="0.5" stop-color="#A6A6A6"/>
<stop offset="1" stop-color="#E6E6E6"/>
</linearGradient>
<linearGradient id="paint2_linear_188_91" x1="98.3036" y1="88.6103" x2="117.583" y2="76.7209" gradientUnits="userSpaceOnUse">
<stop offset="0.5" stop-color="#A6A6A6"/>
<stop offset="1" stop-color="#E6E6E6"/>
</linearGradient>
<linearGradient id="paint3_linear_188_91" x1="91.0728" y1="84.0382" x2="109.46" y2="96.721" gradientUnits="userSpaceOnUse">
<stop offset="0.5" stop-color="#A6A6A6"/>
<stop offset="1" stop-color="#E6E6E6"/>
</linearGradient>
<linearGradient id="paint4_linear_188_91" x1="75.8483" y1="78.4676" x2="59.5857" y2="62.205" gradientUnits="userSpaceOnUse">
<stop offset="0.5" stop-color="#A6A6A6"/>
<stop offset="1" stop-color="#E6E6E6"/>
</linearGradient>
<linearGradient id="paint5_linear_188_91" x1="74.9954" y1="85.6073" x2="61.4673" y2="68.7072" gradientUnits="userSpaceOnUse">
<stop offset="0.5" stop-color="#A6A6A6"/>
<stop offset="1" stop-color="#E6E6E6"/>
</linearGradient>
<linearGradient id="paint6_linear_188_91" x1="76.2586" y1="88.6078" x2="56.9787" y2="76.7184" gradientUnits="userSpaceOnUse">
<stop offset="0.5" stop-color="#A6A6A6"/>
<stop offset="1" stop-color="#E6E6E6"/>
</linearGradient>
<linearGradient id="paint7_linear_188_91" x1="83.4907" y1="84.0354" x2="65.1035" y2="96.7182" gradientUnits="userSpaceOnUse">
<stop offset="0.5" stop-color="#A6A6A6"/>
<stop offset="1" stop-color="#E6E6E6"/>
</linearGradient>
<linearGradient id="paint8_linear_188_91" x1="87.2863" y1="92.5884" x2="87.2863" y2="101.525" gradientUnits="userSpaceOnUse">
<stop stop-color="#616161"/>
<stop offset="0.8" stop-color="#C2C2C2"/>
</linearGradient>
<linearGradient id="paint9_linear_188_91" x1="87.2798" y1="109.089" x2="87.2798" y2="101.527" gradientUnits="userSpaceOnUse">
<stop stop-color="#616161"/>
<stop offset="1" stop-color="#9C9C9C"/>
</linearGradient>
<linearGradient id="paint10_linear_188_91" x1="87.2754" y1="116.65" x2="87.2754" y2="109.088" gradientUnits="userSpaceOnUse">
<stop stop-color="#ADADAD"/>
<stop offset="1" stop-color="#E6E6E6"/>
</linearGradient>
<linearGradient id="paint11_linear_188_91" x1="87.2835" y1="61.7236" x2="87.2835" y2="96.4391" gradientUnits="userSpaceOnUse">
<stop stop-color="#B3B3B3"/>
<stop offset="0.2" stop-color="#C7C7C7"/>
<stop offset="0.43" stop-color="#D8D8D8"/>
<stop offset="0.68" stop-color="#E2E2E2"/>
<stop offset="1" stop-color="#E6E6E6"/>
</linearGradient>
<linearGradient id="paint12_linear_188_91" x1="87.2791" y1="61.7223" x2="87.2791" y2="52.7856" gradientUnits="userSpaceOnUse">
<stop stop-color="#B6B6B6"/>
<stop offset="1" stop-color="#EDEDED"/>
</linearGradient>
</defs>
</svg>
