<svg width="165" height="229" viewBox="0 0 165 229" fill="none" xmlns="http://www.w3.org/2000/svg">
<rect x="0.482114" y="0.482114" width="163.832" height="227.11" rx="18.3168" fill="white" stroke="#1E1E1E" stroke-width="0.964227"/>
<path d="M82.6431 47.7706H86.3936C93.1801 44.5031 91.8747 41.2298 91.0823 40.4374C90.2733 39.6284 88.6817 39.1593 86.6311 40.5482C83.9989 42.3308 82.6431 47.7706 82.6431 47.7706Z" fill="#ED6500"/>
<path d="M83.7458 46.9434C84.3265 45.1516 85.5168 42.3027 87.0959 41.2331C87.8239 40.7401 88.5113 40.4903 89.1408 40.4903C89.8588 40.4903 90.2997 40.8237 90.4983 41.0222C90.6885 41.2125 91.0128 41.7824 90.8779 42.5757C90.6298 44.0341 88.9729 45.5809 86.2042 46.9425H83.7458V46.9434Z" fill="#D65600"/>
<path d="M82.6431 47.7706H78.8925C72.1061 44.5031 73.4114 41.2298 74.2039 40.4374C75.0129 39.6284 76.6045 39.1593 78.6551 40.5482C81.2873 42.3308 82.6431 47.7706 82.6431 47.7706Z" fill="#ED6500"/>
<path d="M81.5412 46.9434C80.9605 45.1516 79.7702 42.3027 78.1911 41.2331C77.4631 40.7401 76.7757 40.4903 76.1462 40.4903C75.4282 40.4903 74.9873 40.8237 74.7887 41.0222C74.5985 41.2125 74.2742 41.7824 74.4091 42.5757C74.6572 44.0341 76.3141 45.5809 79.0828 46.9425H81.5412V46.9434Z" fill="#D65600"/>
<path d="M82.6431 46.6274C79.503 46.6274 63.3691 50.1546 63.3691 71.5454C63.3691 79.5478 69.665 80.1136 82.6431 80.1136C95.6212 80.1136 101.917 79.5486 101.917 71.5454C101.917 50.1546 85.7832 46.6274 82.6431 46.6274Z" fill="#D15900"/>
<path d="M101.917 71.5454C101.917 79.5486 95.6212 80.1136 82.6431 80.1136C70.9025 80.1136 64.6306 79.6512 63.5412 73.6374C67.7078 77.134 77.8047 77.134 82.6431 77.134C87.4814 77.134 98.1508 74.386 96.1307 62.1714C95.0744 55.7813 90.533 52.3177 86.3622 50.8395C82.7291 49.5515 76.5515 49.4663 72.9011 50.2588C77.0073 47.3735 81.1996 46.6274 82.6431 46.6274C85.784 46.6274 101.917 50.1546 101.917 71.5454Z" fill="#C64709"/>
<path d="M86.0992 37.9417C84.8269 38.4239 83.6548 38.6597 82.6439 38.6597C81.6331 38.6597 80.4609 38.4239 79.1887 37.9417C77.9164 37.4594 76.5904 37.9342 76.7261 39.4497C76.918 41.5806 78.6551 45.1235 80.9531 47.7706H84.3347C86.6327 45.1235 88.3707 41.5806 88.5618 39.4497C88.6982 37.9342 87.3714 37.4594 86.0992 37.9417Z" fill="#FF7900"/>
<path d="M88.5609 39.4497C88.369 41.5806 86.6319 45.1235 84.3339 47.7706H80.9523C79.9869 46.658 79.1208 45.3882 78.4268 44.1309C78.5037 44.2028 80.2434 45.3551 81.9325 45.3551C83.6217 45.3551 84.5796 44.8977 85.3009 44.1813C86.119 43.3682 87.2093 41.3506 87.4657 39.9121C87.7213 38.4744 86.8858 38.0087 86.1149 37.9359C87.3822 37.4636 88.6966 37.9409 88.5609 39.4497Z" fill="#F26D00"/>
<path d="M82.3395 54.1351C81.6579 54.174 81.0722 53.6545 81.0309 52.9721C80.7686 48.7004 84.2777 46.5116 84.4274 46.4206C85.013 46.064 85.7757 46.2493 86.1322 46.8342C86.4879 47.4174 86.3043 48.1776 85.7236 48.5357C85.6144 48.6044 83.3388 50.0719 83.5075 52.8198C83.5497 53.504 83.0294 54.0921 82.3453 54.1343H82.3395V54.1351Z" fill="#FFAA00"/>
<path d="M86.1372 46.8433C85.9048 46.8358 85.6682 46.8937 85.4548 47.0236C85.3059 47.1146 81.7969 49.3042 82.0583 53.5759C82.0707 53.7811 82.1327 53.9713 82.232 54.1359C81.5975 54.1186 81.0697 53.6181 81.03 52.9712C80.7686 48.7004 84.2777 46.5107 84.4265 46.4189C85.0122 46.0624 85.7757 46.2485 86.1322 46.8325C86.1339 46.8358 86.1356 46.8391 86.138 46.8424L86.1372 46.8433Z" fill="#FC8300"/>
<path d="M89.4576 54.8018C89.2632 54.8126 89.063 54.7787 88.8736 54.6918C84.2909 52.6048 83.9542 47.7515 83.9418 47.5464C83.9013 46.8623 84.4241 46.275 85.1082 46.2353H85.1106C85.7923 46.1964 86.3771 46.7151 86.4193 47.3958C86.4309 47.5571 86.7105 50.9801 89.9018 52.4335C90.5256 52.7173 90.801 53.4535 90.5173 54.0772C90.3196 54.5115 89.9027 54.777 89.4576 54.8018Z" fill="#FFAA00"/>
<path d="M90.5934 53.8539C90.5752 53.9291 90.5495 54.0036 90.5165 54.0772C90.3188 54.5107 89.9018 54.777 89.4568 54.8018C89.2624 54.8126 89.063 54.7778 88.8728 54.6918C84.2892 52.6048 83.9542 47.7515 83.9418 47.5456C83.9087 46.9855 84.2528 46.4917 84.7533 46.3072C84.7243 46.4239 84.7128 46.5463 84.7202 46.6729C84.7326 46.8788 85.0685 51.7321 89.6512 53.8191C89.8406 53.9051 90.0408 53.9399 90.2352 53.9291C90.3585 53.9225 90.4784 53.8969 90.5934 53.8539Z" fill="#FC8300"/>
<path d="M89.6744 46.0119H75.6118C74.9265 46.0119 74.371 46.5675 74.371 47.2527C74.371 47.938 74.9265 48.4936 75.6118 48.4936H89.6744C90.3596 48.4936 90.9152 47.938 90.9152 47.2527C90.9152 46.5675 90.3596 46.0119 89.6744 46.0119Z" fill="#FFB806"/>
<path d="M90.916 47.2527C90.916 47.596 90.777 47.9054 90.552 48.1304C90.327 48.3554 90.0176 48.4936 89.6752 48.4936H75.6126C74.9269 48.4936 74.3718 47.9385 74.3718 47.2527C74.3718 47.108 74.3967 46.969 74.443 46.8391C74.6126 47.3214 75.0717 47.6663 75.6126 47.6663H89.6752C90.0176 47.6663 90.3278 47.5274 90.552 47.3032C90.6819 47.1733 90.7828 47.0153 90.8449 46.8391C90.8912 46.969 90.916 47.108 90.916 47.2527Z" fill="#FF9700"/>
<path d="M84.9503 59.9757C85.4873 60.5574 85.8303 61.2286 85.9795 61.9893H87.4114V63.6896H86.0019C85.808 64.7934 85.271 65.7032 84.391 66.4192C83.5259 67.1202 82.5191 67.4931 81.3706 67.5378H81.0574L81.0126 67.6497L86.7178 73.4444V73.5786H83.3842L77.679 67.6721V65.3229H81.0797C81.6614 65.3229 82.176 65.1812 82.6235 64.8978C83.071 64.5995 83.3842 64.1968 83.5632 63.6896H75.7773V61.9893H83.5408C83.3767 61.512 83.0859 61.1242 82.6682 60.8258C82.2506 60.5126 81.7509 60.356 81.1692 60.356H75.7773V58.2753H87.4114V59.9757H84.9503Z" fill="white"/>
<path d="M84.9503 59.9757C85.4873 60.5574 85.8303 61.2286 85.9795 61.9893H87.4114V63.6896H86.0019C85.808 64.7934 85.271 65.7032 84.391 66.4192C83.5259 67.1202 82.5191 67.4931 81.3706 67.5378H81.0574L81.0126 67.6497L86.7178 73.4444V73.5786H83.3842L77.679 67.6721V65.3229H81.0797C81.6614 65.3229 82.176 65.1812 82.6235 64.8978C83.071 64.5995 83.3842 64.1968 83.5632 63.6896H75.7773V61.9893H83.5408C83.3767 61.512 83.0859 61.1242 82.6682 60.8258C82.2506 60.5126 81.7509 60.356 81.1692 60.356H75.7773V58.2753H87.4114V59.9757H84.9503Z" fill="#FFDB08"/>
<path d="M53.1759 120.045C51.8706 120.045 50.6972 119.664 49.6559 118.901C48.6146 118.138 47.8959 117.068 47.4999 115.689L49.8319 114.743C50.0666 115.608 50.4772 116.32 51.0639 116.877C51.6652 117.42 52.3839 117.691 53.2199 117.691C53.9972 117.691 54.6572 117.493 55.1999 117.097C55.7426 116.686 56.0139 116.129 56.0139 115.425C56.0139 114.78 55.7719 114.252 55.2879 113.841C54.8186 113.416 53.9899 112.99 52.8019 112.565L51.8119 112.213C50.7559 111.846 49.8686 111.318 49.1499 110.629C48.4312 109.94 48.0719 109.03 48.0719 107.901C48.0719 107.124 48.2846 106.405 48.7099 105.745C49.1352 105.085 49.7219 104.564 50.4699 104.183C51.2326 103.787 52.0906 103.589 53.0439 103.589C54.4226 103.589 55.5226 103.926 56.3439 104.601C57.1652 105.261 57.7152 106.009 57.9939 106.845L55.7719 107.791C55.6106 107.292 55.3026 106.852 54.8479 106.471C54.3932 106.09 53.8066 105.899 53.0879 105.899C52.3692 105.899 51.7606 106.082 51.2619 106.449C50.7779 106.816 50.5359 107.285 50.5359 107.857C50.5359 108.4 50.7559 108.847 51.1959 109.199C51.6359 109.551 52.3252 109.888 53.2639 110.211L54.2539 110.541C55.6032 111.01 56.6446 111.626 57.3779 112.389C58.1259 113.137 58.4999 114.142 58.4999 115.403C58.4999 116.43 58.2359 117.295 57.7079 117.999C57.1799 118.688 56.5052 119.202 55.6839 119.539C54.8772 119.876 54.0412 120.045 53.1759 120.045ZM60.1752 108.473H62.4852V109.947H62.5952C62.9178 109.434 63.3945 109.001 64.0252 108.649C64.6558 108.297 65.3672 108.121 66.1592 108.121C67.1712 108.121 68.0878 108.378 68.9092 108.891C69.7305 109.404 70.3758 110.116 70.8452 111.025C71.3292 111.92 71.5712 112.939 71.5712 114.083C71.5712 115.227 71.3292 116.254 70.8452 117.163C70.3758 118.058 69.7305 118.762 68.9092 119.275C68.0878 119.788 67.1712 120.045 66.1592 120.045C65.3672 120.045 64.6558 119.869 64.0252 119.517C63.3945 119.165 62.9178 118.74 62.5952 118.241H62.4852L62.5952 119.803V124.445H60.1752V108.473ZM65.8072 117.823C66.3938 117.823 66.9438 117.669 67.4572 117.361C67.9705 117.053 68.3812 116.613 68.6892 116.041C68.9972 115.469 69.1512 114.816 69.1512 114.083C69.1512 113.35 68.9972 112.704 68.6892 112.147C68.3812 111.575 67.9705 111.135 67.4572 110.827C66.9438 110.519 66.3938 110.365 65.8072 110.365C65.2205 110.365 64.6705 110.519 64.1572 110.827C63.6585 111.135 63.2552 111.575 62.9472 112.147C62.6392 112.704 62.4852 113.35 62.4852 114.083C62.4852 114.816 62.6392 115.469 62.9472 116.041C63.2552 116.613 63.6585 117.053 64.1572 117.361C64.6705 117.669 65.2205 117.823 65.8072 117.823ZM78.2428 120.045C77.1428 120.045 76.1528 119.788 75.2728 119.275C74.4075 118.762 73.7255 118.058 73.2268 117.163C72.7428 116.254 72.5008 115.234 72.5008 114.105C72.5008 113.034 72.7355 112.044 73.2048 111.135C73.6888 110.211 74.3562 109.478 75.2068 108.935C76.0575 108.392 77.0255 108.121 78.1108 108.121C79.2402 108.121 80.2155 108.37 81.0368 108.869C81.8728 109.368 82.5035 110.05 82.9288 110.915C83.3688 111.78 83.5888 112.756 83.5888 113.841C83.5888 114.046 83.5668 114.303 83.5228 114.611H74.9208C75.0088 115.652 75.3755 116.459 76.0208 117.031C76.6808 117.588 77.4435 117.867 78.3088 117.867C78.9982 117.867 79.5922 117.713 80.0908 117.405C80.6042 117.082 81.0148 116.65 81.3228 116.107L83.3688 117.075C82.8408 117.999 82.1515 118.725 81.3008 119.253C80.4502 119.781 79.4308 120.045 78.2428 120.045ZM81.1248 112.763C81.0955 112.367 80.9708 111.978 80.7508 111.597C80.5308 111.201 80.1935 110.871 79.7388 110.607C79.2988 110.343 78.7562 110.211 78.1108 110.211C77.3335 110.211 76.6735 110.446 76.1308 110.915C75.6028 111.37 75.2362 111.986 75.0308 112.763H81.1248ZM90.432 120.045C89.3174 120.045 88.3127 119.788 87.418 119.275C86.538 118.762 85.8487 118.058 85.35 117.163C84.866 116.254 84.624 115.227 84.624 114.083C84.624 112.939 84.866 111.92 85.35 111.025C85.8487 110.116 86.538 109.404 87.418 108.891C88.3127 108.378 89.3174 108.121 90.432 108.121C91.664 108.121 92.7127 108.4 93.578 108.957C94.4434 109.514 95.0594 110.27 95.426 111.223L93.204 112.147C92.7054 110.959 91.7594 110.365 90.366 110.365C89.7647 110.365 89.2074 110.519 88.694 110.827C88.1954 111.135 87.792 111.575 87.484 112.147C87.1907 112.704 87.044 113.35 87.044 114.083C87.044 114.816 87.1907 115.469 87.484 116.041C87.792 116.613 88.1954 117.053 88.694 117.361C89.2074 117.669 89.7647 117.823 90.366 117.823C91.07 117.823 91.6714 117.669 92.17 117.361C92.6834 117.038 93.072 116.584 93.336 115.997L95.514 116.943C95.0887 117.896 94.4434 118.652 93.578 119.209C92.7127 119.766 91.664 120.045 90.432 120.045ZM98.2981 106.845C97.8434 106.845 97.4547 106.691 97.1321 106.383C96.8241 106.06 96.6701 105.672 96.6701 105.217C96.6701 104.762 96.8241 104.381 97.1321 104.073C97.4547 103.75 97.8434 103.589 98.2981 103.589C98.7527 103.589 99.1341 103.75 99.4421 104.073C99.7647 104.381 99.9261 104.762 99.9261 105.217C99.9261 105.672 99.7647 106.06 99.4421 106.383C99.1341 106.691 98.7527 106.845 98.2981 106.845ZM97.0881 108.473H99.5081V119.693H97.0881V108.473ZM105.272 120.045C104.465 120.045 103.747 119.891 103.116 119.583C102.485 119.26 101.994 118.813 101.642 118.241C101.29 117.654 101.114 116.994 101.114 116.261C101.114 115.102 101.547 114.186 102.412 113.511C103.292 112.836 104.399 112.499 105.734 112.499C106.394 112.499 106.988 112.565 107.516 112.697C108.044 112.814 108.462 112.946 108.77 113.093V112.521C108.77 111.832 108.513 111.274 108 110.849C107.487 110.409 106.827 110.189 106.02 110.189C105.448 110.189 104.905 110.314 104.392 110.563C103.893 110.812 103.49 111.157 103.182 111.597L101.488 110.299C101.987 109.61 102.632 109.074 103.424 108.693C104.216 108.312 105.096 108.121 106.064 108.121C107.692 108.121 108.946 108.524 109.826 109.331C110.706 110.123 111.146 111.245 111.146 112.697V119.693H108.77V118.351H108.66C108.337 118.835 107.883 119.238 107.296 119.561C106.709 119.884 106.035 120.045 105.272 120.045ZM105.69 118.043C106.277 118.043 106.805 117.904 107.274 117.625C107.743 117.346 108.11 116.972 108.374 116.503C108.638 116.034 108.77 115.528 108.77 114.985C108.433 114.794 108.037 114.64 107.582 114.523C107.142 114.406 106.68 114.347 106.196 114.347C105.287 114.347 104.619 114.53 104.194 114.897C103.769 115.249 103.556 115.711 103.556 116.283C103.556 116.796 103.754 117.222 104.15 117.559C104.546 117.882 105.059 118.043 105.69 118.043ZM113.123 103.941H115.543V119.693H113.123V103.941ZM38.6036 148.045C37.0782 148.045 35.6849 147.686 34.4236 146.967C33.1622 146.248 32.1722 145.258 31.4536 143.997C30.7349 142.736 30.3756 141.342 30.3756 139.817C30.3756 138.292 30.7349 136.898 31.4536 135.637C32.1722 134.376 33.1622 133.386 34.4236 132.667C35.6849 131.948 37.0782 131.589 38.6036 131.589C39.7916 131.589 40.8696 131.809 41.8376 132.249C42.8202 132.689 43.6856 133.327 44.4336 134.163L42.6736 135.857C42.1309 135.212 41.5296 134.735 40.8696 134.427C40.2096 134.104 39.4542 133.943 38.6036 133.943C37.5476 133.943 36.5796 134.185 35.6996 134.669C34.8342 135.153 34.1449 135.842 33.6316 136.737C33.1182 137.617 32.8616 138.644 32.8616 139.817C32.8616 140.99 33.1182 142.024 33.6316 142.919C34.1449 143.799 34.8342 144.481 35.6996 144.965C36.5796 145.449 37.5476 145.691 38.6036 145.691C40.3636 145.691 41.8596 144.958 43.0916 143.491L44.8736 145.207C44.1109 146.102 43.1942 146.798 42.1236 147.297C41.0529 147.796 39.8796 148.045 38.6036 148.045ZM49.6589 148.045C48.8522 148.045 48.1336 147.891 47.5029 147.583C46.8722 147.26 46.3809 146.813 46.0289 146.241C45.6769 145.654 45.5009 144.994 45.5009 144.261C45.5009 143.102 45.9336 142.186 46.7989 141.511C47.6789 140.836 48.7862 140.499 50.1209 140.499C50.7809 140.499 51.3749 140.565 51.9029 140.697C52.4309 140.814 52.8489 140.946 53.1569 141.093V140.521C53.1569 139.832 52.9002 139.274 52.3869 138.849C51.8736 138.409 51.2136 138.189 50.4069 138.189C49.8349 138.189 49.2922 138.314 48.7789 138.563C48.2802 138.812 47.8769 139.157 47.5689 139.597L45.8749 138.299C46.3736 137.61 47.0189 137.074 47.8109 136.693C48.6029 136.312 49.4829 136.121 50.4509 136.121C52.0789 136.121 53.3329 136.524 54.2129 137.331C55.0929 138.123 55.5329 139.245 55.5329 140.697V147.693H53.1569V146.351H53.0469C52.7242 146.835 52.2696 147.238 51.6829 147.561C51.0962 147.884 50.4216 148.045 49.6589 148.045ZM50.0769 146.043C50.6636 146.043 51.1916 145.904 51.6609 145.625C52.1302 145.346 52.4969 144.972 52.7609 144.503C53.0249 144.034 53.1569 143.528 53.1569 142.985C52.8196 142.794 52.4236 142.64 51.9689 142.523C51.5289 142.406 51.0669 142.347 50.5829 142.347C49.6736 142.347 49.0062 142.53 48.5809 142.897C48.1556 143.249 47.9429 143.711 47.9429 144.283C47.9429 144.796 48.1409 145.222 48.5369 145.559C48.9329 145.882 49.4462 146.043 50.0769 146.043ZM61.8933 147.869C61.3946 147.869 60.9253 147.788 60.4853 147.627C60.0453 147.466 59.686 147.253 59.4073 146.989C58.7766 146.358 58.4613 145.5 58.4613 144.415V138.607H56.5033V136.473H58.4613V133.305H60.8813V136.473H63.6093V138.607H60.8813V143.887C60.8813 144.488 60.9986 144.914 61.2333 145.163C61.4533 145.456 61.8346 145.603 62.3773 145.603C62.6266 145.603 62.8466 145.574 63.0373 145.515C63.228 145.442 63.4333 145.332 63.6533 145.185V147.539C63.1693 147.759 62.5826 147.869 61.8933 147.869ZM69.9469 148.045C68.8469 148.045 67.8569 147.788 66.9769 147.275C66.1115 146.762 65.4295 146.058 64.9309 145.163C64.4469 144.254 64.2049 143.234 64.2049 142.105C64.2049 141.034 64.4395 140.044 64.9089 139.135C65.3929 138.211 66.0602 137.478 66.9109 136.935C67.7615 136.392 68.7295 136.121 69.8149 136.121C70.9442 136.121 71.9195 136.37 72.7409 136.869C73.5769 137.368 74.2075 138.05 74.6329 138.915C75.0729 139.78 75.2929 140.756 75.2929 141.841C75.2929 142.046 75.2709 142.303 75.2269 142.611H66.6249C66.7129 143.652 67.0795 144.459 67.7249 145.031C68.3849 145.588 69.1475 145.867 70.0129 145.867C70.7022 145.867 71.2962 145.713 71.7949 145.405C72.3082 145.082 72.7189 144.65 73.0269 144.107L75.0729 145.075C74.5449 145.999 73.8555 146.725 73.0049 147.253C72.1542 147.781 71.1349 148.045 69.9469 148.045ZM72.8289 140.763C72.7995 140.367 72.6749 139.978 72.4549 139.597C72.2349 139.201 71.8975 138.871 71.4429 138.607C71.0029 138.343 70.4602 138.211 69.8149 138.211C69.0375 138.211 68.3775 138.446 67.8349 138.915C67.3069 139.37 66.9402 139.986 66.7349 140.763H72.8289ZM82.0041 152.797C80.6254 152.797 79.4814 152.482 78.5721 151.851C77.6774 151.22 77.0761 150.472 76.7681 149.607L79.0341 148.661C79.2687 149.248 79.6427 149.717 80.1561 150.069C80.6841 150.436 81.3001 150.619 82.0041 150.619C83.0307 150.619 83.8301 150.311 84.4021 149.695C84.9887 149.094 85.2821 148.243 85.2821 147.143V146.109H85.1501C84.7834 146.637 84.2921 147.055 83.6761 147.363C83.0747 147.656 82.3781 147.803 81.5861 147.803C80.6474 147.803 79.7747 147.561 78.9681 147.077C78.1614 146.593 77.5161 145.911 77.0321 145.031C76.5627 144.136 76.3281 143.117 76.3281 141.973C76.3281 140.829 76.5627 139.817 77.0321 138.937C77.5161 138.042 78.1614 137.353 78.9681 136.869C79.7747 136.37 80.6474 136.121 81.5861 136.121C82.3634 136.121 83.0601 136.275 83.6761 136.583C84.2921 136.891 84.7834 137.309 85.1501 137.837H85.2821V136.473H87.5921V147.077C87.5921 148.294 87.3574 149.328 86.8881 150.179C86.4187 151.044 85.7587 151.697 84.9081 152.137C84.0721 152.577 83.1041 152.797 82.0041 152.797ZM82.0261 145.603C82.6127 145.603 83.1554 145.464 83.6541 145.185C84.1527 144.892 84.5487 144.474 84.8421 143.931C85.1354 143.374 85.2821 142.721 85.2821 141.973C85.2821 140.829 84.9667 139.942 84.3361 139.311C83.7201 138.666 82.9501 138.343 82.0261 138.343C81.4247 138.343 80.8747 138.49 80.3761 138.783C79.8774 139.062 79.4814 139.472 79.1881 140.015C78.8947 140.558 78.7481 141.21 78.7481 141.973C78.7481 142.736 78.8947 143.388 79.1881 143.931C79.4814 144.474 79.8774 144.892 80.3761 145.185C80.8747 145.464 81.4247 145.603 82.0261 145.603ZM94.9268 148.045C93.7975 148.045 92.7855 147.788 91.8908 147.275C90.9962 146.747 90.2995 146.028 89.8008 145.119C89.3022 144.21 89.0528 143.198 89.0528 142.083C89.0528 140.968 89.3022 139.956 89.8008 139.047C90.2995 138.138 90.9962 137.426 91.8908 136.913C92.7855 136.385 93.7975 136.121 94.9268 136.121C96.0562 136.121 97.0682 136.385 97.9628 136.913C98.8575 137.441 99.5542 138.16 100.053 139.069C100.551 139.978 100.801 140.983 100.801 142.083C100.801 143.198 100.551 144.21 100.053 145.119C99.5542 146.028 98.8575 146.747 97.9628 147.275C97.0682 147.788 96.0562 148.045 94.9268 148.045ZM94.9268 145.823C95.5428 145.823 96.1148 145.676 96.6428 145.383C97.1708 145.075 97.5888 144.642 97.8968 144.085C98.2195 143.513 98.3808 142.846 98.3808 142.083C98.3808 141.32 98.2195 140.66 97.8968 140.103C97.5888 139.546 97.1708 139.12 96.6428 138.827C96.1148 138.519 95.5428 138.365 94.9268 138.365C94.3108 138.365 93.7388 138.519 93.2108 138.827C92.6828 139.12 92.2575 139.546 91.9348 140.103C91.6268 140.66 91.4728 141.32 91.4728 142.083C91.4728 142.846 91.6268 143.513 91.9348 144.085C92.2575 144.642 92.6828 145.075 93.2108 145.383C93.7388 145.676 94.3108 145.823 94.9268 145.823ZM102.157 136.473H104.467V138.123H104.577C104.827 137.551 105.259 137.082 105.875 136.715C106.491 136.334 107.144 136.143 107.833 136.143C108.376 136.143 108.831 136.216 109.197 136.363V138.871C108.552 138.636 107.973 138.519 107.459 138.519C106.902 138.519 106.403 138.666 105.963 138.959C105.538 139.252 105.201 139.648 104.951 140.147C104.702 140.631 104.577 141.166 104.577 141.753V147.693H102.157V136.473ZM114.318 147.077L109.654 136.473H112.36L115.528 144.107H115.616L118.696 136.473H121.358L114.428 152.445H111.876L114.318 147.077ZM130.075 135.923L127.611 137.705L126.379 135.835L130.801 132.645H132.495V147.693H130.075V135.923Z" fill="#1E1E1E"/>
<rect x="10.836" y="176.635" width="145.546" height="43.0529" rx="7.79406" fill="#1E1E1E" stroke="#1E1E1E" stroke-width="0.742292"/>
<rect x="8.8438" y="174.925" width="145.546" height="43.0529" rx="7.79406" fill="white" stroke="#1E1E1E" stroke-width="0.742292"/>
<path d="M47.5172 191.829C48.0305 192.386 48.3679 193.09 48.5292 193.941H49.9372V195.613H48.5292C48.3532 196.683 47.8619 197.563 47.0552 198.253C46.2485 198.942 45.3099 199.338 44.2392 199.441H44.0852L44.0632 199.617L49.3652 205.029V205.205H45.5592L40.0152 199.507V196.933H43.6232C44.1219 196.933 44.5619 196.815 44.9432 196.581C45.3392 196.346 45.6179 196.023 45.7792 195.613H38.2112V193.941H45.7792C45.6032 193.545 45.3319 193.229 44.9652 192.995C44.5985 192.745 44.1585 192.621 43.6452 192.621H38.2112V190.157H49.9372V191.829H47.5172ZM60.7235 205.557C59.9315 205.557 59.1689 205.41 58.4355 205.117C57.7022 204.809 57.0569 204.354 56.4995 203.753C55.9569 203.137 55.5829 202.381 55.3775 201.487L57.9735 200.475C58.1495 201.223 58.4722 201.817 58.9415 202.257C59.4109 202.682 59.9975 202.895 60.7015 202.895C61.4055 202.895 61.9922 202.66 62.4615 202.191C62.9309 201.721 63.1655 201.127 63.1655 200.409C63.1655 199.705 62.9309 199.118 62.4615 198.649C62.0069 198.165 61.4202 197.923 60.7015 197.923C60.2615 197.923 59.8582 198.018 59.4915 198.209C59.1395 198.385 58.8389 198.627 58.5895 198.935L55.7955 197.681L56.6535 190.157H65.1455V192.687H59.0515L58.5015 196.207L58.6775 196.251C59.4109 195.649 60.2835 195.349 61.2955 195.349C62.1315 195.349 62.9089 195.561 63.6275 195.987C64.3609 196.412 64.9475 197.013 65.3875 197.791C65.8275 198.553 66.0475 199.426 66.0475 200.409C66.0475 201.406 65.8202 202.293 65.3655 203.071C64.9109 203.848 64.2802 204.457 63.4735 204.897C62.6669 205.337 61.7502 205.557 60.7235 205.557ZM74.0102 205.557C72.7488 205.557 71.6415 205.219 70.6882 204.545C69.7348 203.855 68.9942 202.917 68.4662 201.729C67.9528 200.526 67.6962 199.177 67.6962 197.681C67.6962 196.185 67.9528 194.843 68.4662 193.655C68.9942 192.452 69.7348 191.513 70.6882 190.839C71.6415 190.149 72.7488 189.805 74.0102 189.805C75.2715 189.805 76.3788 190.149 77.3322 190.839C78.2855 191.513 79.0188 192.452 79.5322 193.655C80.0602 194.843 80.3242 196.185 80.3242 197.681C80.3242 199.177 80.0602 200.526 79.5322 201.729C79.0188 202.917 78.2855 203.855 77.3322 204.545C76.3788 205.219 75.2715 205.557 74.0102 205.557ZM74.0102 202.851C74.7142 202.851 75.3228 202.631 75.8362 202.191C76.3642 201.736 76.7602 201.12 77.0242 200.343C77.3028 199.551 77.4422 198.663 77.4422 197.681C77.4422 196.155 77.1342 194.916 76.5182 193.963C75.9022 192.995 75.0662 192.511 74.0102 192.511C72.9688 192.511 72.1402 192.995 71.5242 193.963C70.9082 194.931 70.6002 196.17 70.6002 197.681C70.6002 198.663 70.7322 199.551 70.9962 200.343C71.2748 201.12 71.6708 201.736 72.1842 202.191C72.7122 202.631 73.3208 202.851 74.0102 202.851ZM81.9259 207.163L83.2459 205.161C82.9085 205.029 82.6225 204.809 82.3879 204.501C82.1679 204.193 82.0579 203.833 82.0579 203.423C82.0579 202.895 82.2412 202.447 82.6079 202.081C82.9892 201.714 83.4439 201.531 83.9719 201.531C84.4999 201.531 84.9472 201.714 85.3139 202.081C85.6952 202.447 85.8859 202.895 85.8859 203.423C85.8859 203.687 85.8419 203.921 85.7539 204.127C85.6659 204.332 85.5192 204.589 85.3139 204.897L83.2239 208.021L81.9259 207.163ZM93.8738 205.557C92.6124 205.557 91.5051 205.219 90.5518 204.545C89.5984 203.855 88.8578 202.917 88.3298 201.729C87.8164 200.526 87.5598 199.177 87.5598 197.681C87.5598 196.185 87.8164 194.843 88.3298 193.655C88.8578 192.452 89.5984 191.513 90.5518 190.839C91.5051 190.149 92.6124 189.805 93.8738 189.805C95.1351 189.805 96.2424 190.149 97.1958 190.839C98.1491 191.513 98.8824 192.452 99.3958 193.655C99.9238 194.843 100.188 196.185 100.188 197.681C100.188 199.177 99.9238 200.526 99.3958 201.729C98.8824 202.917 98.1491 203.855 97.1958 204.545C96.2424 205.219 95.1351 205.557 93.8738 205.557ZM93.8738 202.851C94.5778 202.851 95.1864 202.631 95.6998 202.191C96.2278 201.736 96.6238 201.12 96.8878 200.343C97.1664 199.551 97.3058 198.663 97.3058 197.681C97.3058 196.155 96.9978 194.916 96.3818 193.963C95.7658 192.995 94.9298 192.511 93.8738 192.511C92.8324 192.511 92.0038 192.995 91.3878 193.963C90.7718 194.931 90.4638 196.17 90.4638 197.681C90.4638 198.663 90.5958 199.551 90.8598 200.343C91.1384 201.12 91.5344 201.736 92.0478 202.191C92.5758 202.631 93.1844 202.851 93.8738 202.851ZM108.059 205.557C106.798 205.557 105.691 205.219 104.737 204.545C103.784 203.855 103.043 202.917 102.515 201.729C102.002 200.526 101.745 199.177 101.745 197.681C101.745 196.185 102.002 194.843 102.515 193.655C103.043 192.452 103.784 191.513 104.737 190.839C105.691 190.149 106.798 189.805 108.059 189.805C109.321 189.805 110.428 190.149 111.381 190.839C112.335 191.513 113.068 192.452 113.581 193.655C114.109 194.843 114.373 196.185 114.373 197.681C114.373 199.177 114.109 200.526 113.581 201.729C113.068 202.917 112.335 203.855 111.381 204.545C110.428 205.219 109.321 205.557 108.059 205.557ZM108.059 202.851C108.763 202.851 109.372 202.631 109.885 202.191C110.413 201.736 110.809 201.12 111.073 200.343C111.352 199.551 111.491 198.663 111.491 197.681C111.491 196.155 111.183 194.916 110.567 193.963C109.951 192.995 109.115 192.511 108.059 192.511C107.018 192.511 106.189 192.995 105.573 193.963C104.957 194.931 104.649 196.17 104.649 197.681C104.649 198.663 104.781 199.551 105.045 200.343C105.324 201.12 105.72 201.736 106.233 202.191C106.761 202.631 107.37 202.851 108.059 202.851ZM122.245 205.557C120.984 205.557 119.877 205.219 118.923 204.545C117.97 203.855 117.229 202.917 116.701 201.729C116.188 200.526 115.931 199.177 115.931 197.681C115.931 196.185 116.188 194.843 116.701 193.655C117.229 192.452 117.97 191.513 118.923 190.839C119.877 190.149 120.984 189.805 122.245 189.805C123.507 189.805 124.614 190.149 125.567 190.839C126.521 191.513 127.254 192.452 127.767 193.655C128.295 194.843 128.559 196.185 128.559 197.681C128.559 199.177 128.295 200.526 127.767 201.729C127.254 202.917 126.521 203.855 125.567 204.545C124.614 205.219 123.507 205.557 122.245 205.557ZM122.245 202.851C122.949 202.851 123.558 202.631 124.071 202.191C124.599 201.736 124.995 201.12 125.259 200.343C125.538 199.551 125.677 198.663 125.677 197.681C125.677 196.155 125.369 194.916 124.753 193.963C124.137 192.995 123.301 192.511 122.245 192.511C121.204 192.511 120.375 192.995 119.759 193.963C119.143 194.931 118.835 196.17 118.835 197.681C118.835 198.663 118.967 199.551 119.231 200.343C119.51 201.12 119.906 201.736 120.419 202.191C120.947 202.631 121.556 202.851 122.245 202.851Z" fill="#1E1E1E"/>
</svg>
