<svg width="507" height="195" viewBox="0 0 507 195" fill="none" xmlns="http://www.w3.org/2000/svg">
<rect x="0.720171" y="0.720171" width="505.56" height="193.56" rx="27.3612" fill="#B0E6FF" stroke="#1E1E1E" stroke-width="1.44034"/>
<circle cx="111.852" cy="93.8521" r="49.8521" fill="white"/>
<circle cx="111.852" cy="93.8521" r="49.1405" stroke="#1E1E11" stroke-opacity="0.933333" stroke-width="1.42323"/>
<path d="M207.916 75.6926C206.492 75.6926 205.212 75.2766 204.076 74.4446C202.94 73.6126 202.156 72.4446 201.724 70.9406L204.268 69.9086C204.524 70.8526 204.972 71.6286 205.612 72.2366C206.268 72.8286 207.052 73.1246 207.964 73.1246C208.812 73.1246 209.532 72.9086 210.124 72.4766C210.716 72.0286 211.012 71.4206 211.012 70.6526C211.012 69.9486 210.748 69.3726 210.22 68.9246C209.708 68.4606 208.804 67.9966 207.508 67.5326L206.428 67.1486C205.276 66.7486 204.308 66.1726 203.524 65.4206C202.74 64.6686 202.348 63.6766 202.348 62.4446C202.348 61.5966 202.58 60.8126 203.044 60.0926C203.508 59.3726 204.148 58.8046 204.964 58.3886C205.796 57.9566 206.732 57.7406 207.772 57.7406C209.276 57.7406 210.476 58.1086 211.372 58.8446C212.268 59.5646 212.868 60.3806 213.172 61.2926L210.748 62.3246C210.572 61.7806 210.236 61.3006 209.74 60.8846C209.244 60.4686 208.604 60.2606 207.82 60.2606C207.036 60.2606 206.372 60.4606 205.828 60.8606C205.3 61.2606 205.036 61.7726 205.036 62.3966C205.036 62.9886 205.276 63.4766 205.756 63.8606C206.236 64.2446 206.988 64.6126 208.012 64.9646L209.092 65.3246C210.564 65.8366 211.7 66.5086 212.5 67.3406C213.316 68.1566 213.724 69.2526 213.724 70.6286C213.724 71.7486 213.436 72.6926 212.86 73.4606C212.284 74.2126 211.548 74.7726 210.652 75.1406C209.772 75.5086 208.86 75.6926 207.916 75.6926ZM215.552 63.0686H218.072V64.6766H218.192C218.544 64.1166 219.064 63.6446 219.752 63.2606C220.44 62.8766 221.216 62.6846 222.08 62.6846C223.184 62.6846 224.184 62.9646 225.08 63.5246C225.976 64.0846 226.68 64.8606 227.192 65.8526C227.72 66.8286 227.984 67.9406 227.984 69.1886C227.984 70.4366 227.72 71.5566 227.192 72.5486C226.68 73.5246 225.976 74.2926 225.08 74.8526C224.184 75.4126 223.184 75.6926 222.08 75.6926C221.216 75.6926 220.44 75.5006 219.752 75.1166C219.064 74.7326 218.544 74.2686 218.192 73.7246H218.072L218.192 75.4286V80.4926H215.552V63.0686ZM221.696 73.2686C222.336 73.2686 222.936 73.1006 223.496 72.7646C224.056 72.4286 224.504 71.9486 224.84 71.3246C225.176 70.7006 225.344 69.9886 225.344 69.1886C225.344 68.3886 225.176 67.6846 224.84 67.0766C224.504 66.4526 224.056 65.9726 223.496 65.6366C222.936 65.3006 222.336 65.1326 221.696 65.1326C221.056 65.1326 220.456 65.3006 219.896 65.6366C219.352 65.9726 218.912 66.4526 218.576 67.0766C218.24 67.6846 218.072 68.3886 218.072 69.1886C218.072 69.9886 218.24 70.7006 218.576 71.3246C218.912 71.9486 219.352 72.4286 219.896 72.7646C220.456 73.1006 221.056 73.2686 221.696 73.2686ZM235.262 75.6926C234.062 75.6926 232.982 75.4126 232.022 74.8526C231.078 74.2926 230.334 73.5246 229.79 72.5486C229.262 71.5566 228.998 70.4446 228.998 69.2126C228.998 68.0446 229.254 66.9646 229.766 65.9726C230.294 64.9646 231.022 64.1646 231.95 63.5726C232.878 62.9806 233.934 62.6846 235.118 62.6846C236.35 62.6846 237.414 62.9566 238.31 63.5006C239.222 64.0446 239.91 64.7886 240.374 65.7326C240.854 66.6766 241.094 67.7406 241.094 68.9246C241.094 69.1486 241.07 69.4286 241.022 69.7646H231.638C231.734 70.9006 232.134 71.7806 232.838 72.4046C233.558 73.0126 234.39 73.3166 235.334 73.3166C236.086 73.3166 236.734 73.1486 237.278 72.8126C237.838 72.4606 238.286 71.9886 238.622 71.3966L240.854 72.4526C240.278 73.4606 239.526 74.2526 238.598 74.8286C237.67 75.4046 236.558 75.6926 235.262 75.6926ZM238.406 67.7486C238.374 67.3166 238.238 66.8926 237.998 66.4766C237.758 66.0446 237.39 65.6846 236.894 65.3966C236.414 65.1086 235.822 64.9646 235.118 64.9646C234.27 64.9646 233.55 65.2206 232.958 65.7326C232.382 66.2286 231.982 66.9006 231.758 67.7486H238.406ZM248.56 75.6926C247.344 75.6926 246.248 75.4126 245.272 74.8526C244.312 74.2926 243.56 73.5246 243.016 72.5486C242.488 71.5566 242.224 70.4366 242.224 69.1886C242.224 67.9406 242.488 66.8286 243.016 65.8526C243.56 64.8606 244.312 64.0846 245.272 63.5246C246.248 62.9646 247.344 62.6846 248.56 62.6846C249.904 62.6846 251.048 62.9886 251.992 63.5966C252.936 64.2046 253.608 65.0286 254.008 66.0686L251.584 67.0766C251.04 65.7806 250.008 65.1326 248.488 65.1326C247.832 65.1326 247.224 65.3006 246.664 65.6366C246.12 65.9726 245.68 66.4526 245.344 67.0766C245.024 67.6846 244.864 68.3886 244.864 69.1886C244.864 69.9886 245.024 70.7006 245.344 71.3246C245.68 71.9486 246.12 72.4286 246.664 72.7646C247.224 73.1006 247.832 73.2686 248.488 73.2686C249.256 73.2686 249.912 73.1006 250.456 72.7646C251.016 72.4126 251.44 71.9166 251.728 71.2766L254.104 72.3086C253.64 73.3486 252.936 74.1726 251.992 74.7806C251.048 75.3886 249.904 75.6926 248.56 75.6926ZM257.141 61.2926C256.645 61.2926 256.221 61.1246 255.869 60.7886C255.533 60.4366 255.365 60.0126 255.365 59.5166C255.365 59.0206 255.533 58.6046 255.869 58.2686C256.221 57.9166 256.645 57.7406 257.141 57.7406C257.637 57.7406 258.053 57.9166 258.389 58.2686C258.741 58.6046 258.917 59.0206 258.917 59.5166C258.917 60.0126 258.741 60.4366 258.389 60.7886C258.053 61.1246 257.637 61.2926 257.141 61.2926ZM255.821 63.0686H258.461V75.3086H255.821V63.0686ZM264.749 75.6926C263.869 75.6926 263.085 75.5246 262.397 75.1886C261.709 74.8366 261.173 74.3486 260.789 73.7246C260.405 73.0846 260.213 72.3646 260.213 71.5646C260.213 70.3006 260.685 69.3006 261.629 68.5646C262.589 67.8286 263.797 67.4606 265.253 67.4606C265.973 67.4606 266.621 67.5326 267.197 67.6766C267.773 67.8046 268.229 67.9486 268.565 68.1086V67.4846C268.565 66.7326 268.285 66.1246 267.725 65.6606C267.165 65.1806 266.445 64.9406 265.565 64.9406C264.941 64.9406 264.349 65.0766 263.789 65.3486C263.245 65.6206 262.805 65.9966 262.469 66.4766L260.621 65.0606C261.165 64.3086 261.869 63.7246 262.733 63.3086C263.597 62.8926 264.557 62.6846 265.613 62.6846C267.389 62.6846 268.757 63.1246 269.717 64.0046C270.677 64.8686 271.157 66.0926 271.157 67.6766V75.3086H268.565V73.8446H268.445C268.093 74.3726 267.597 74.8126 266.957 75.1646C266.317 75.5166 265.581 75.6926 264.749 75.6926ZM265.205 73.5086C265.845 73.5086 266.421 73.3566 266.933 73.0526C267.445 72.7486 267.845 72.3406 268.133 71.8286C268.421 71.3166 268.565 70.7646 268.565 70.1726C268.197 69.9646 267.765 69.7966 267.269 69.6686C266.789 69.5406 266.285 69.4766 265.757 69.4766C264.765 69.4766 264.037 69.6766 263.573 70.0766C263.109 70.4606 262.877 70.9646 262.877 71.5886C262.877 72.1486 263.093 72.6126 263.525 72.9806C263.957 73.3326 264.517 73.5086 265.205 73.5086ZM273.314 58.1246H275.954V75.3086H273.314V58.1246ZM291.316 75.6926C289.652 75.6926 288.132 75.3006 286.756 74.5166C285.38 73.7326 284.3 72.6526 283.516 71.2766C282.732 69.9006 282.34 68.3806 282.34 66.7166C282.34 65.0526 282.732 63.5326 283.516 62.1566C284.3 60.7806 285.38 59.7006 286.756 58.9166C288.132 58.1326 289.652 57.7406 291.316 57.7406C292.612 57.7406 293.788 57.9806 294.844 58.4606C295.916 58.9406 296.86 59.6366 297.676 60.5486L295.756 62.3966C295.164 61.6926 294.508 61.1726 293.788 60.8366C293.068 60.4846 292.244 60.3086 291.316 60.3086C290.164 60.3086 289.108 60.5726 288.148 61.1006C287.204 61.6286 286.452 62.3806 285.892 63.3566C285.332 64.3166 285.052 65.4366 285.052 66.7166C285.052 67.9966 285.332 69.1246 285.892 70.1006C286.452 71.0606 287.204 71.8046 288.148 72.3326C289.108 72.8606 290.164 73.1246 291.316 73.1246C293.236 73.1246 294.868 72.3246 296.212 70.7246L298.156 72.5966C297.324 73.5726 296.324 74.3326 295.156 74.8766C293.988 75.4206 292.708 75.6926 291.316 75.6926ZM303.376 75.6926C302.496 75.6926 301.712 75.5246 301.024 75.1886C300.336 74.8366 299.8 74.3486 299.416 73.7246C299.032 73.0846 298.84 72.3646 298.84 71.5646C298.84 70.3006 299.312 69.3006 300.256 68.5646C301.216 67.8286 302.424 67.4606 303.88 67.4606C304.6 67.4606 305.248 67.5326 305.824 67.6766C306.4 67.8046 306.856 67.9486 307.192 68.1086V67.4846C307.192 66.7326 306.912 66.1246 306.352 65.6606C305.792 65.1806 305.072 64.9406 304.192 64.9406C303.568 64.9406 302.976 65.0766 302.416 65.3486C301.872 65.6206 301.432 65.9966 301.096 66.4766L299.248 65.0606C299.792 64.3086 300.496 63.7246 301.36 63.3086C302.224 62.8926 303.184 62.6846 304.24 62.6846C306.016 62.6846 307.384 63.1246 308.344 64.0046C309.304 64.8686 309.784 66.0926 309.784 67.6766V75.3086H307.192V73.8446H307.072C306.72 74.3726 306.224 74.8126 305.584 75.1646C304.944 75.5166 304.208 75.6926 303.376 75.6926ZM303.832 73.5086C304.472 73.5086 305.048 73.3566 305.56 73.0526C306.072 72.7486 306.472 72.3406 306.76 71.8286C307.048 71.3166 307.192 70.7646 307.192 70.1726C306.824 69.9646 306.392 69.7966 305.896 69.6686C305.416 69.5406 304.912 69.4766 304.384 69.4766C303.392 69.4766 302.664 69.6766 302.2 70.0766C301.736 70.4606 301.504 70.9646 301.504 71.5886C301.504 72.1486 301.72 72.6126 302.152 72.9806C302.584 73.3326 303.144 73.5086 303.832 73.5086ZM316.723 75.5006C316.179 75.5006 315.667 75.4126 315.187 75.2366C314.707 75.0606 314.315 74.8286 314.011 74.5406C313.323 73.8526 312.979 72.9166 312.979 71.7326V65.3966H310.843V63.0686H312.979V59.6126H315.619V63.0686H318.595V65.3966H315.619V71.1566C315.619 71.8126 315.747 72.2766 316.003 72.5486C316.243 72.8686 316.659 73.0286 317.251 73.0286C317.523 73.0286 317.763 72.9966 317.971 72.9326C318.179 72.8526 318.403 72.7326 318.643 72.5726V75.1406C318.115 75.3806 317.475 75.5006 316.723 75.5006ZM325.509 75.6926C324.309 75.6926 323.229 75.4126 322.269 74.8526C321.325 74.2926 320.581 73.5246 320.037 72.5486C319.509 71.5566 319.245 70.4446 319.245 69.2126C319.245 68.0446 319.501 66.9646 320.013 65.9726C320.541 64.9646 321.269 64.1646 322.197 63.5726C323.125 62.9806 324.181 62.6846 325.365 62.6846C326.597 62.6846 327.661 62.9566 328.557 63.5006C329.469 64.0446 330.157 64.7886 330.621 65.7326C331.101 66.6766 331.341 67.7406 331.341 68.9246C331.341 69.1486 331.317 69.4286 331.269 69.7646H321.885C321.981 70.9006 322.381 71.7806 323.085 72.4046C323.805 73.0126 324.637 73.3166 325.581 73.3166C326.333 73.3166 326.981 73.1486 327.525 72.8126C328.085 72.4606 328.533 71.9886 328.869 71.3966L331.101 72.4526C330.525 73.4606 329.773 74.2526 328.845 74.8286C327.917 75.4046 326.805 75.6926 325.509 75.6926ZM328.653 67.7486C328.621 67.3166 328.485 66.8926 328.245 66.4766C328.005 66.0446 327.637 65.6846 327.141 65.3966C326.661 65.1086 326.069 64.9646 325.365 64.9646C324.517 64.9646 323.797 65.2206 323.205 65.7326C322.629 66.2286 322.229 66.9006 322.005 67.7486H328.653ZM338.662 80.8766C337.158 80.8766 335.91 80.5326 334.918 79.8446C333.942 79.1566 333.286 78.3406 332.95 77.3966L335.422 76.3646C335.678 77.0046 336.086 77.5166 336.646 77.9006C337.222 78.3006 337.894 78.5006 338.662 78.5006C339.782 78.5006 340.654 78.1646 341.278 77.4926C341.918 76.8366 342.238 75.9086 342.238 74.7086V73.5806H342.094C341.694 74.1566 341.158 74.6126 340.486 74.9486C339.83 75.2686 339.07 75.4286 338.206 75.4286C337.182 75.4286 336.23 75.1646 335.35 74.6366C334.47 74.1086 333.766 73.3646 333.238 72.4046C332.726 71.4286 332.47 70.3166 332.47 69.0686C332.47 67.8206 332.726 66.7166 333.238 65.7566C333.766 64.7806 334.47 64.0286 335.35 63.5006C336.23 62.9566 337.182 62.6846 338.206 62.6846C339.054 62.6846 339.814 62.8526 340.486 63.1886C341.158 63.5246 341.694 63.9806 342.094 64.5566H342.238V63.0686H344.758V74.6366C344.758 75.9646 344.502 77.0926 343.99 78.0206C343.478 78.9646 342.758 79.6766 341.83 80.1566C340.918 80.6366 339.862 80.8766 338.662 80.8766ZM338.686 73.0286C339.326 73.0286 339.918 72.8766 340.462 72.5726C341.006 72.2526 341.438 71.7966 341.758 71.2046C342.078 70.5966 342.238 69.8846 342.238 69.0686C342.238 67.8206 341.894 66.8526 341.206 66.1646C340.534 65.4606 339.694 65.1086 338.686 65.1086C338.03 65.1086 337.43 65.2686 336.886 65.5886C336.342 65.8926 335.91 66.3406 335.59 66.9326C335.27 67.5246 335.11 68.2366 335.11 69.0686C335.11 69.9006 335.27 70.6126 335.59 71.2046C335.91 71.7966 336.342 72.2526 336.886 72.5726C337.43 72.8766 338.03 73.0286 338.686 73.0286ZM352.76 75.6926C351.528 75.6926 350.424 75.4126 349.448 74.8526C348.472 74.2766 347.712 73.4926 347.168 72.5006C346.624 71.5086 346.352 70.4046 346.352 69.1886C346.352 67.9726 346.624 66.8686 347.168 65.8766C347.712 64.8846 348.472 64.1086 349.448 63.5486C350.424 62.9726 351.528 62.6846 352.76 62.6846C353.992 62.6846 355.096 62.9726 356.072 63.5486C357.048 64.1246 357.808 64.9086 358.352 65.9006C358.896 66.8926 359.168 67.9886 359.168 69.1886C359.168 70.4046 358.896 71.5086 358.352 72.5006C357.808 73.4926 357.048 74.2766 356.072 74.8526C355.096 75.4126 353.992 75.6926 352.76 75.6926ZM352.76 73.2686C353.432 73.2686 354.056 73.1086 354.632 72.7886C355.208 72.4526 355.664 71.9806 356 71.3726C356.352 70.7486 356.528 70.0206 356.528 69.1886C356.528 68.3566 356.352 67.6366 356 67.0286C355.664 66.4206 355.208 65.9566 354.632 65.6366C354.056 65.3006 353.432 65.1326 352.76 65.1326C352.088 65.1326 351.464 65.3006 350.888 65.6366C350.312 65.9566 349.848 66.4206 349.496 67.0286C349.16 67.6366 348.992 68.3566 348.992 69.1886C348.992 70.0206 349.16 70.7486 349.496 71.3726C349.848 71.9806 350.312 72.4526 350.888 72.7886C351.464 73.1086 352.088 73.2686 352.76 73.2686ZM360.647 63.0686H363.167V64.8686H363.287C363.559 64.2446 364.031 63.7326 364.703 63.3326C365.375 62.9166 366.087 62.7086 366.839 62.7086C367.431 62.7086 367.927 62.7886 368.327 62.9486V65.6846C367.623 65.4286 366.991 65.3006 366.431 65.3006C365.823 65.3006 365.279 65.4606 364.799 65.7806C364.335 66.1006 363.967 66.5326 363.695 67.0766C363.423 67.6046 363.287 68.1886 363.287 68.8286V75.3086H360.647V63.0686ZM373.914 74.6366L368.826 63.0686H371.778L375.234 71.3966H375.33L378.69 63.0686H381.594L374.034 80.4926H371.25L373.914 74.6366ZM391.103 62.4686L388.415 64.4126L387.071 62.3726L391.895 58.8926H393.743V75.3086H391.103V62.4686Z" fill="#1E1E1E"/>
<rect x="205.623" y="103.822" width="107.048" height="40.3169" rx="7.29875" fill="#1E1E1E" stroke="#1E1E1E" stroke-width="0.695119"/>
<rect x="201.348" y="100.348" width="107.048" height="40.3169" rx="7.29875" fill="white" stroke="#1E1E1E" stroke-width="0.695119"/>
<path d="M228.558 114.948H226.488C227.016 115.44 227.34 115.998 227.46 116.622H228.558V117.9H227.478C227.37 118.488 227.124 119.016 226.74 119.484C226.368 119.952 225.9 120.318 225.336 120.582C224.784 120.834 224.184 120.96 223.536 120.96H223.032L222.996 121.014L227.856 125.928V126H225.768L220.998 121.086V119.556H223.536C224.088 119.556 224.58 119.406 225.012 119.106C225.444 118.806 225.732 118.404 225.876 117.9H219.468V116.622H225.876C225.732 116.154 225.462 115.758 225.066 115.434C224.67 115.11 224.196 114.948 223.644 114.948H219.468V113.688H228.558V114.948ZM237.055 126.288C236.479 126.288 235.909 126.168 235.345 125.928C234.781 125.676 234.283 125.304 233.851 124.812C233.419 124.308 233.113 123.69 232.933 122.958L234.283 122.418C234.463 123.15 234.793 123.738 235.273 124.182C235.765 124.614 236.347 124.83 237.019 124.83C237.823 124.83 238.477 124.584 238.981 124.092C239.485 123.6 239.737 122.958 239.737 122.166C239.737 121.386 239.485 120.744 238.981 120.24C238.489 119.724 237.847 119.466 237.055 119.466C236.623 119.466 236.215 119.568 235.831 119.772C235.447 119.964 235.135 120.234 234.895 120.582L233.329 119.898L234.139 113.688H240.511V115.146H235.399L234.913 118.872L234.985 118.89C235.621 118.35 236.401 118.08 237.325 118.08C238.033 118.08 238.687 118.254 239.287 118.602C239.899 118.95 240.385 119.436 240.745 120.06C241.105 120.684 241.285 121.38 241.285 122.148C241.285 122.916 241.099 123.618 240.727 124.254C240.367 124.878 239.863 125.376 239.215 125.748C238.567 126.108 237.847 126.288 237.055 126.288ZM247.522 126.288C246.55 126.288 245.686 126.006 244.93 125.442C244.186 124.866 243.61 124.092 243.202 123.12C242.806 122.136 242.608 121.044 242.608 119.844C242.608 118.644 242.806 117.558 243.202 116.586C243.61 115.602 244.186 114.828 244.93 114.264C245.674 113.688 246.538 113.4 247.522 113.4C248.506 113.4 249.37 113.688 250.114 114.264C250.858 114.828 251.428 115.602 251.824 116.586C252.232 117.558 252.436 118.644 252.436 119.844C252.436 121.044 252.232 122.136 251.824 123.12C251.428 124.092 250.852 124.866 250.096 125.442C249.352 126.006 248.494 126.288 247.522 126.288ZM247.522 124.83C248.206 124.83 248.8 124.614 249.304 124.182C249.808 123.738 250.198 123.138 250.474 122.382C250.75 121.626 250.888 120.78 250.888 119.844C250.888 118.908 250.75 118.062 250.474 117.306C250.198 116.55 249.808 115.956 249.304 115.524C248.8 115.08 248.206 114.858 247.522 114.858C246.838 114.858 246.244 115.08 245.74 115.524C245.236 115.956 244.846 116.55 244.57 117.306C244.294 118.062 244.156 118.908 244.156 119.844C244.156 120.78 244.294 121.626 244.57 122.382C244.846 123.138 245.236 123.738 245.74 124.182C246.244 124.614 246.838 124.83 247.522 124.83ZM253.705 127.494L254.659 126C254.443 125.964 254.251 125.85 254.083 125.658C253.915 125.466 253.831 125.232 253.831 124.956C253.831 124.644 253.939 124.38 254.155 124.164C254.383 123.936 254.659 123.822 254.983 123.822C255.307 123.822 255.577 123.936 255.793 124.164C256.021 124.38 256.135 124.644 256.135 124.956C256.135 125.16 256.093 125.358 256.009 125.55C255.925 125.73 255.799 125.94 255.631 126.18L254.443 127.98L253.705 127.494ZM262.385 126.288C261.413 126.288 260.549 126.006 259.793 125.442C259.049 124.866 258.473 124.092 258.065 123.12C257.669 122.136 257.471 121.044 257.471 119.844C257.471 118.644 257.669 117.558 258.065 116.586C258.473 115.602 259.049 114.828 259.793 114.264C260.537 113.688 261.401 113.4 262.385 113.4C263.369 113.4 264.233 113.688 264.977 114.264C265.721 114.828 266.291 115.602 266.687 116.586C267.095 117.558 267.299 118.644 267.299 119.844C267.299 121.044 267.095 122.136 266.687 123.12C266.291 124.092 265.715 124.866 264.959 125.442C264.215 126.006 263.357 126.288 262.385 126.288ZM262.385 124.83C263.069 124.83 263.663 124.614 264.167 124.182C264.671 123.738 265.061 123.138 265.337 122.382C265.613 121.626 265.751 120.78 265.751 119.844C265.751 118.908 265.613 118.062 265.337 117.306C265.061 116.55 264.671 115.956 264.167 115.524C263.663 115.08 263.069 114.858 262.385 114.858C261.701 114.858 261.107 115.08 260.603 115.524C260.099 115.956 259.709 116.55 259.433 117.306C259.157 118.062 259.019 118.908 259.019 119.844C259.019 120.78 259.157 121.626 259.433 122.382C259.709 123.138 260.099 123.738 260.603 124.182C261.107 124.614 261.701 124.83 262.385 124.83ZM273.447 126.288C272.475 126.288 271.611 126.006 270.855 125.442C270.111 124.866 269.535 124.092 269.127 123.12C268.731 122.136 268.533 121.044 268.533 119.844C268.533 118.644 268.731 117.558 269.127 116.586C269.535 115.602 270.111 114.828 270.855 114.264C271.599 113.688 272.463 113.4 273.447 113.4C274.431 113.4 275.295 113.688 276.039 114.264C276.783 114.828 277.353 115.602 277.749 116.586C278.157 117.558 278.361 118.644 278.361 119.844C278.361 121.044 278.157 122.136 277.749 123.12C277.353 124.092 276.777 124.866 276.021 125.442C275.277 126.006 274.419 126.288 273.447 126.288ZM273.447 124.83C274.131 124.83 274.725 124.614 275.229 124.182C275.733 123.738 276.123 123.138 276.399 122.382C276.675 121.626 276.813 120.78 276.813 119.844C276.813 118.908 276.675 118.062 276.399 117.306C276.123 116.55 275.733 115.956 275.229 115.524C274.725 115.08 274.131 114.858 273.447 114.858C272.763 114.858 272.169 115.08 271.665 115.524C271.161 115.956 270.771 116.55 270.495 117.306C270.219 118.062 270.081 118.908 270.081 119.844C270.081 120.78 270.219 121.626 270.495 122.382C270.771 123.138 271.161 123.738 271.665 124.182C272.169 124.614 272.763 124.83 273.447 124.83ZM284.508 126.288C283.536 126.288 282.672 126.006 281.916 125.442C281.172 124.866 280.596 124.092 280.188 123.12C279.792 122.136 279.594 121.044 279.594 119.844C279.594 118.644 279.792 117.558 280.188 116.586C280.596 115.602 281.172 114.828 281.916 114.264C282.66 113.688 283.524 113.4 284.508 113.4C285.492 113.4 286.356 113.688 287.1 114.264C287.844 114.828 288.414 115.602 288.81 116.586C289.218 117.558 289.422 118.644 289.422 119.844C289.422 121.044 289.218 122.136 288.81 123.12C288.414 124.092 287.838 124.866 287.082 125.442C286.338 126.006 285.48 126.288 284.508 126.288ZM284.508 124.83C285.192 124.83 285.786 124.614 286.29 124.182C286.794 123.738 287.184 123.138 287.46 122.382C287.736 121.626 287.874 120.78 287.874 119.844C287.874 118.908 287.736 118.062 287.46 117.306C287.184 116.55 286.794 115.956 286.29 115.524C285.786 115.08 285.192 114.858 284.508 114.858C283.824 114.858 283.23 115.08 282.726 115.524C282.222 115.956 281.832 116.55 281.556 117.306C281.28 118.062 281.142 118.908 281.142 119.844C281.142 120.78 281.28 121.626 281.556 122.382C281.832 123.138 282.222 123.738 282.726 124.182C283.23 124.614 283.824 124.83 284.508 124.83Z" fill="#1E1E1E"/>
<path d="M112.198 75.5532H117.489C127.064 70.9434 125.222 66.3254 124.104 65.2074C122.963 64.066 120.717 63.4043 117.824 65.3638C114.111 67.8787 112.198 75.5532 112.198 75.5532Z" fill="#ED6500"/>
<path d="M113.754 74.3862C114.573 71.8584 116.252 67.8391 118.48 66.3301C119.507 65.6345 120.477 65.2821 121.365 65.2821C122.378 65.2821 123 65.7524 123.28 66.0325C123.549 66.3009 124.006 67.105 123.816 68.2242C123.466 70.2817 121.128 72.4641 117.222 74.385H113.754V74.3862Z" fill="#D65600"/>
<path d="M112.198 75.5532H106.907C97.3322 70.9434 99.1737 66.3254 100.292 65.2074C101.433 64.066 103.679 63.4043 106.572 65.3638C110.285 67.8787 112.198 75.5532 112.198 75.5532Z" fill="#ED6500"/>
<path d="M110.643 74.3862C109.824 71.8584 108.145 67.8391 105.917 66.3301C104.89 65.6345 103.92 65.2821 103.032 65.2821C102.019 65.2821 101.397 65.7524 101.117 66.0325C100.848 66.3009 100.391 67.105 100.581 68.2242C100.931 70.2817 103.269 72.4641 107.175 74.385H110.643V74.3862Z" fill="#D65600"/>
<path d="M112.198 73.9404C107.768 73.9404 85.0059 78.9166 85.0059 109.095C85.0059 120.385 93.8882 121.183 112.198 121.183C130.508 121.183 139.39 120.386 139.39 109.095C139.39 78.9166 116.628 73.9404 112.198 73.9404Z" fill="#D15900"/>
<path d="M139.39 109.095C139.39 120.386 130.508 121.183 112.198 121.183C95.6341 121.183 86.7856 120.531 85.2486 112.047C91.127 116.98 105.372 116.98 112.198 116.98C119.024 116.98 134.076 113.103 131.227 95.8702C129.736 86.8548 123.329 81.9684 117.445 79.8829C112.319 78.0659 103.604 77.9457 98.4537 79.0637C104.247 74.993 110.161 73.9404 112.198 73.9404C116.629 73.9404 139.39 78.9166 139.39 109.095Z" fill="#C64709"/>
<path d="M117.074 61.6864C115.279 62.3668 113.625 62.6994 112.199 62.6994C110.773 62.6994 109.119 62.3668 107.324 61.6864C105.529 61.006 103.659 61.6759 103.85 63.8139C104.121 66.8202 106.572 71.8187 109.814 75.5532H114.585C117.827 71.8187 120.279 66.8202 120.548 63.8139C120.741 61.6759 118.869 61.006 117.074 61.6864Z" fill="#FF7900"/>
<path d="M120.547 63.8139C120.276 66.8202 117.825 71.8187 114.583 75.5532H109.812C108.451 73.9835 107.229 72.1921 106.25 70.4182C106.358 70.5198 108.812 72.1455 111.195 72.1455C113.579 72.1455 114.93 71.5001 115.948 70.4894C117.102 69.3422 118.64 66.4958 119.002 64.4663C119.362 62.438 118.184 61.781 117.096 61.6783C118.884 61.0119 120.738 61.6853 120.547 63.8139Z" fill="#F26D00"/>
<path d="M111.77 84.5324C110.808 84.5873 109.982 83.8544 109.923 82.8916C109.553 76.865 114.504 73.777 114.715 73.6486C115.542 73.1456 116.618 73.407 117.121 74.2321C117.622 75.0549 117.363 76.1274 116.544 76.6327C116.39 76.7296 113.179 78.7999 113.417 82.6768C113.477 83.642 112.743 84.4718 111.778 84.5313H111.77V84.5324Z" fill="#FFAA00"/>
<path d="M117.128 74.245C116.8 74.2345 116.466 74.3162 116.165 74.4994C115.955 74.6278 111.004 77.7169 111.373 83.7435C111.39 84.0329 111.478 84.3014 111.618 84.5336C110.723 84.5091 109.978 83.803 109.922 82.8904C109.553 76.865 114.504 73.7758 114.714 73.6463C115.54 73.1433 116.618 73.4059 117.121 74.2298C117.123 74.2345 117.125 74.2391 117.129 74.2438L117.128 74.245Z" fill="#FC8300"/>
<path d="M121.812 85.4731C121.538 85.4882 121.255 85.4404 120.988 85.3179C114.523 82.3734 114.048 75.5264 114.03 75.2369C113.973 74.2718 114.711 73.4432 115.676 73.3872H115.679C116.641 73.3323 117.466 74.0641 117.525 75.0245C117.542 75.2521 117.936 80.0813 122.439 82.1318C123.319 82.5321 123.707 83.5708 123.307 84.4507C123.028 85.0634 122.44 85.4381 121.812 85.4731Z" fill="#FFAA00"/>
<path d="M123.414 84.1356C123.389 84.2418 123.353 84.3469 123.306 84.4507C123.027 85.0623 122.439 85.4381 121.811 85.4731C121.537 85.4882 121.255 85.4392 120.987 85.3179C114.52 82.3734 114.048 75.5264 114.03 75.2358C113.984 74.4457 114.469 73.749 115.175 73.4887C115.134 73.6533 115.118 73.826 115.128 74.0046C115.146 74.2951 115.62 81.1422 122.085 84.0866C122.352 84.208 122.635 84.257 122.909 84.2418C123.083 84.2325 123.252 84.1963 123.414 84.1356Z" fill="#FC8300"/>
<path d="M122.118 73.0721H102.278C101.311 73.0721 100.528 73.8558 100.528 74.8226C100.528 75.7895 101.311 76.5732 102.278 76.5732H122.118C123.085 76.5732 123.868 75.7895 123.868 74.8226C123.868 73.8558 123.085 73.0721 122.118 73.0721Z" fill="#FFB806"/>
<path d="M123.87 74.8226C123.87 75.307 123.673 75.7434 123.356 76.0609C123.039 76.3783 122.602 76.5732 122.119 76.5732H102.279C101.312 76.5732 100.529 75.7901 100.529 74.8226C100.529 74.6184 100.564 74.4224 100.629 74.2391C100.868 74.9195 101.516 75.4062 102.279 75.4062H122.119C122.602 75.4062 123.04 75.2101 123.356 74.8938C123.539 74.7106 123.682 74.4877 123.769 74.2391C123.835 74.4224 123.87 74.6184 123.87 74.8226Z" fill="#FF9700"/>
<path d="M115.453 92.7724C116.211 93.5931 116.695 94.54 116.905 95.6132H118.925V98.0121H116.937C116.663 99.5693 115.905 100.853 114.664 101.863C113.443 102.852 112.023 103.378 110.403 103.441H109.961L109.898 103.599L117.947 111.774V111.964H113.243L105.194 103.631V100.316H109.992C110.813 100.316 111.539 100.116 112.17 99.7166C112.802 99.2958 113.243 98.7276 113.496 98.0121H102.511V95.6132H113.464C113.233 94.9398 112.823 94.3927 112.233 93.9719C111.644 93.5299 110.939 93.309 110.119 93.309H102.511V90.3735H118.925V92.7724H115.453Z" fill="white"/>
<path d="M115.453 92.7724C116.211 93.5931 116.695 94.54 116.905 95.6132H118.925V98.0121H116.937C116.663 99.5693 115.905 100.853 114.664 101.863C113.443 102.852 112.023 103.378 110.403 103.441H109.961L109.898 103.599L117.947 111.774V111.964H113.243L105.194 103.631V100.316H109.992C110.813 100.316 111.539 100.116 112.17 99.7166C112.802 99.2958 113.243 98.7276 113.496 98.0121H102.511V95.6132H113.464C113.233 94.9398 112.823 94.3927 112.233 93.9719C111.644 93.5299 110.939 93.309 110.119 93.309H102.511V90.3735H118.925V92.7724H115.453Z" fill="#FFDB08"/>
</svg>
