<svg width="512" height="188" viewBox="0 0 512 188" fill="none" xmlns="http://www.w3.org/2000/svg">
<rect x="0.734339" y="0.734339" width="510.531" height="186.531" rx="27.8995" fill="#B0E6FF" stroke="#1E1E1E" stroke-width="1.46868"/>
<circle cx="127.48" cy="89.4803" r="48.7547" fill="white" stroke="#1E1E1E" stroke-width="1.45123"/>
<path d="M216.883 71.6301C215.459 71.6301 214.179 71.2141 213.043 70.3821C211.907 69.5501 211.123 68.3821 210.691 66.8781L213.235 65.8461C213.491 66.7901 213.939 67.5661 214.579 68.1741C215.235 68.7661 216.019 69.0621 216.931 69.0621C217.779 69.0621 218.499 68.8461 219.091 68.4141C219.683 67.9661 219.979 67.3581 219.979 66.5901C219.979 65.8861 219.715 65.3101 219.187 64.8621C218.675 64.3981 217.771 63.9341 216.475 63.4701L215.395 63.0861C214.243 62.6861 213.275 62.1101 212.491 61.3581C211.707 60.6061 211.315 59.6141 211.315 58.3821C211.315 57.5341 211.547 56.7501 212.011 56.0301C212.475 55.3101 213.115 54.7421 213.931 54.3261C214.763 53.8941 215.699 53.6781 216.739 53.6781C218.243 53.6781 219.443 54.0461 220.339 54.7821C221.235 55.5021 221.835 56.3181 222.139 57.2301L219.715 58.2621C219.539 57.7181 219.203 57.2381 218.707 56.8221C218.211 56.4061 217.571 56.1981 216.787 56.1981C216.003 56.1981 215.339 56.3981 214.795 56.7981C214.267 57.1981 214.003 57.7101 214.003 58.3341C214.003 58.9261 214.243 59.4141 214.723 59.7981C215.203 60.1821 215.955 60.5501 216.979 60.9021L218.059 61.2621C219.531 61.7741 220.667 62.4461 221.467 63.2781C222.283 64.0941 222.691 65.1901 222.691 66.5661C222.691 67.6861 222.403 68.6301 221.827 69.3981C221.251 70.1501 220.515 70.7101 219.619 71.0781C218.739 71.4461 217.827 71.6301 216.883 71.6301ZM224.519 59.0061H227.039V60.6141H227.159C227.511 60.0541 228.031 59.5821 228.719 59.1981C229.407 58.8141 230.183 58.6221 231.047 58.6221C232.151 58.6221 233.151 58.9021 234.047 59.4621C234.943 60.0221 235.647 60.7981 236.159 61.7901C236.687 62.7661 236.951 63.8781 236.951 65.1261C236.951 66.3741 236.687 67.4941 236.159 68.4861C235.647 69.4621 234.943 70.2301 234.047 70.7901C233.151 71.3501 232.151 71.6301 231.047 71.6301C230.183 71.6301 229.407 71.4381 228.719 71.0541C228.031 70.6701 227.511 70.2061 227.159 69.6621H227.039L227.159 71.3661V76.4301H224.519V59.0061ZM230.663 69.2061C231.303 69.2061 231.903 69.0381 232.463 68.7021C233.023 68.3661 233.471 67.8861 233.807 67.2621C234.143 66.6381 234.311 65.9261 234.311 65.1261C234.311 64.3261 234.143 63.6221 233.807 63.0141C233.471 62.3901 233.023 61.9101 232.463 61.5741C231.903 61.2381 231.303 61.0701 230.663 61.0701C230.023 61.0701 229.423 61.2381 228.863 61.5741C228.319 61.9101 227.879 62.3901 227.543 63.0141C227.207 63.6221 227.039 64.3261 227.039 65.1261C227.039 65.9261 227.207 66.6381 227.543 67.2621C227.879 67.8861 228.319 68.3661 228.863 68.7021C229.423 69.0381 230.023 69.2061 230.663 69.2061ZM244.229 71.6301C243.029 71.6301 241.949 71.3501 240.989 70.7901C240.045 70.2301 239.301 69.4621 238.757 68.4861C238.229 67.4941 237.965 66.3821 237.965 65.1501C237.965 63.9821 238.221 62.9021 238.733 61.9101C239.261 60.9021 239.989 60.1021 240.917 59.5101C241.845 58.9181 242.901 58.6221 244.085 58.6221C245.317 58.6221 246.381 58.8941 247.277 59.4381C248.189 59.9821 248.877 60.7261 249.341 61.6701C249.821 62.6141 250.061 63.6781 250.061 64.8621C250.061 65.0861 250.037 65.3661 249.989 65.7021H240.605C240.701 66.8381 241.101 67.7181 241.805 68.3421C242.525 68.9501 243.357 69.2541 244.301 69.2541C245.053 69.2541 245.701 69.0861 246.245 68.7501C246.805 68.3981 247.253 67.9261 247.589 67.3341L249.821 68.3901C249.245 69.3981 248.493 70.1901 247.565 70.7661C246.637 71.3421 245.525 71.6301 244.229 71.6301ZM247.373 63.6861C247.341 63.2541 247.205 62.8301 246.965 62.4141C246.725 61.9821 246.357 61.6221 245.861 61.3341C245.381 61.0461 244.789 60.9021 244.085 60.9021C243.237 60.9021 242.517 61.1581 241.925 61.6701C241.349 62.1661 240.949 62.8381 240.725 63.6861H247.373ZM257.526 71.6301C256.31 71.6301 255.214 71.3501 254.238 70.7901C253.278 70.2301 252.526 69.4621 251.982 68.4861C251.454 67.4941 251.19 66.3741 251.19 65.1261C251.19 63.8781 251.454 62.7661 251.982 61.7901C252.526 60.7981 253.278 60.0221 254.238 59.4621C255.214 58.9021 256.31 58.6221 257.526 58.6221C258.87 58.6221 260.014 58.9261 260.958 59.5341C261.902 60.1421 262.574 60.9661 262.974 62.0061L260.55 63.0141C260.006 61.7181 258.974 61.0701 257.454 61.0701C256.798 61.0701 256.19 61.2381 255.63 61.5741C255.086 61.9101 254.646 62.3901 254.31 63.0141C253.99 63.6221 253.83 64.3261 253.83 65.1261C253.83 65.9261 253.99 66.6381 254.31 67.2621C254.646 67.8861 255.086 68.3661 255.63 68.7021C256.19 69.0381 256.798 69.2061 257.454 69.2061C258.222 69.2061 258.878 69.0381 259.422 68.7021C259.982 68.3501 260.406 67.8541 260.694 67.2141L263.07 68.2461C262.606 69.2861 261.902 70.1101 260.958 70.7181C260.014 71.3261 258.87 71.6301 257.526 71.6301ZM266.107 57.2301C265.611 57.2301 265.187 57.0621 264.835 56.7261C264.499 56.3741 264.331 55.9501 264.331 55.4541C264.331 54.9581 264.499 54.5421 264.835 54.2061C265.187 53.8541 265.611 53.6781 266.107 53.6781C266.603 53.6781 267.019 53.8541 267.355 54.2061C267.707 54.5421 267.883 54.9581 267.883 55.4541C267.883 55.9501 267.707 56.3741 267.355 56.7261C267.019 57.0621 266.603 57.2301 266.107 57.2301ZM264.787 59.0061H267.427V71.2461H264.787V59.0061ZM273.715 71.6301C272.835 71.6301 272.051 71.4621 271.363 71.1261C270.675 70.7741 270.139 70.2861 269.755 69.6621C269.371 69.0221 269.179 68.3021 269.179 67.5021C269.179 66.2381 269.651 65.2381 270.595 64.5021C271.555 63.7661 272.763 63.3981 274.219 63.3981C274.939 63.3981 275.587 63.4701 276.163 63.6141C276.739 63.7421 277.195 63.8861 277.531 64.0461V63.4221C277.531 62.6701 277.251 62.0621 276.691 61.5981C276.131 61.1181 275.411 60.8781 274.531 60.8781C273.907 60.8781 273.315 61.0141 272.755 61.2861C272.211 61.5581 271.771 61.9341 271.435 62.4141L269.587 60.9981C270.131 60.2461 270.835 59.6621 271.699 59.2461C272.563 58.8301 273.523 58.6221 274.579 58.6221C276.355 58.6221 277.723 59.0621 278.683 59.9421C279.643 60.8061 280.123 62.0301 280.123 63.6141V71.2461H277.531V69.7821H277.411C277.059 70.3101 276.563 70.7501 275.923 71.1021C275.283 71.4541 274.547 71.6301 273.715 71.6301ZM274.171 69.4461C274.811 69.4461 275.387 69.2941 275.899 68.9901C276.411 68.6861 276.811 68.2781 277.099 67.7661C277.387 67.2541 277.531 66.7021 277.531 66.1101C277.163 65.9021 276.731 65.7341 276.235 65.6061C275.755 65.4781 275.251 65.4141 274.723 65.4141C273.731 65.4141 273.003 65.6141 272.539 66.0141C272.075 66.3981 271.843 66.9021 271.843 67.5261C271.843 68.0861 272.059 68.5501 272.491 68.9181C272.923 69.2701 273.483 69.4461 274.171 69.4461ZM282.28 54.0621H284.92V71.2461H282.28V54.0621ZM300.283 71.6301C298.619 71.6301 297.099 71.2381 295.723 70.4541C294.347 69.6701 293.267 68.5901 292.483 67.2141C291.699 65.8381 291.307 64.3181 291.307 62.6541C291.307 60.9901 291.699 59.4701 292.483 58.0941C293.267 56.7181 294.347 55.6381 295.723 54.8541C297.099 54.0701 298.619 53.6781 300.283 53.6781C301.579 53.6781 302.755 53.9181 303.811 54.3981C304.883 54.8781 305.827 55.5741 306.643 56.4861L304.723 58.3341C304.131 57.6301 303.475 57.1101 302.755 56.7741C302.035 56.4221 301.211 56.2461 300.283 56.2461C299.131 56.2461 298.075 56.5101 297.115 57.0381C296.171 57.5661 295.419 58.3181 294.859 59.2941C294.299 60.2541 294.019 61.3741 294.019 62.6541C294.019 63.9341 294.299 65.0621 294.859 66.0381C295.419 66.9981 296.171 67.7421 297.115 68.2701C298.075 68.7981 299.131 69.0621 300.283 69.0621C302.203 69.0621 303.835 68.2621 305.179 66.6621L307.123 68.5341C306.291 69.5101 305.291 70.2701 304.123 70.8141C302.955 71.3581 301.675 71.6301 300.283 71.6301ZM312.343 71.6301C311.463 71.6301 310.679 71.4621 309.991 71.1261C309.303 70.7741 308.767 70.2861 308.383 69.6621C307.999 69.0221 307.807 68.3021 307.807 67.5021C307.807 66.2381 308.279 65.2381 309.223 64.5021C310.183 63.7661 311.391 63.3981 312.847 63.3981C313.567 63.3981 314.215 63.4701 314.791 63.6141C315.367 63.7421 315.823 63.8861 316.159 64.0461V63.4221C316.159 62.6701 315.879 62.0621 315.319 61.5981C314.759 61.1181 314.039 60.8781 313.159 60.8781C312.535 60.8781 311.943 61.0141 311.383 61.2861C310.839 61.5581 310.399 61.9341 310.063 62.4141L308.215 60.9981C308.759 60.2461 309.463 59.6621 310.327 59.2461C311.191 58.8301 312.151 58.6221 313.207 58.6221C314.983 58.6221 316.351 59.0621 317.311 59.9421C318.271 60.8061 318.751 62.0301 318.751 63.6141V71.2461H316.159V69.7821H316.039C315.687 70.3101 315.191 70.7501 314.551 71.1021C313.911 71.4541 313.175 71.6301 312.343 71.6301ZM312.799 69.4461C313.439 69.4461 314.015 69.2941 314.527 68.9901C315.039 68.6861 315.439 68.2781 315.727 67.7661C316.015 67.2541 316.159 66.7021 316.159 66.1101C315.791 65.9021 315.359 65.7341 314.863 65.6061C314.383 65.4781 313.879 65.4141 313.351 65.4141C312.359 65.4141 311.631 65.6141 311.167 66.0141C310.703 66.3981 310.471 66.9021 310.471 67.5261C310.471 68.0861 310.687 68.5501 311.119 68.9181C311.551 69.2701 312.111 69.4461 312.799 69.4461ZM325.69 71.4381C325.146 71.4381 324.634 71.3501 324.154 71.1741C323.674 70.9981 323.282 70.7661 322.978 70.4781C322.29 69.7901 321.946 68.8541 321.946 67.6701V61.3341H319.81V59.0061H321.946V55.5501H324.586V59.0061H327.562V61.3341H324.586V67.0941C324.586 67.7501 324.714 68.2141 324.97 68.4861C325.21 68.8061 325.626 68.9661 326.218 68.9661C326.49 68.9661 326.73 68.9341 326.938 68.8701C327.146 68.7901 327.37 68.6701 327.61 68.5101V71.0781C327.082 71.3181 326.442 71.4381 325.69 71.4381ZM334.476 71.6301C333.276 71.6301 332.196 71.3501 331.236 70.7901C330.292 70.2301 329.548 69.4621 329.004 68.4861C328.476 67.4941 328.212 66.3821 328.212 65.1501C328.212 63.9821 328.468 62.9021 328.98 61.9101C329.508 60.9021 330.236 60.1021 331.164 59.5101C332.092 58.9181 333.148 58.6221 334.332 58.6221C335.564 58.6221 336.628 58.8941 337.524 59.4381C338.436 59.9821 339.124 60.7261 339.588 61.6701C340.068 62.6141 340.308 63.6781 340.308 64.8621C340.308 65.0861 340.284 65.3661 340.236 65.7021H330.852C330.948 66.8381 331.348 67.7181 332.052 68.3421C332.772 68.9501 333.604 69.2541 334.548 69.2541C335.3 69.2541 335.948 69.0861 336.492 68.7501C337.052 68.3981 337.5 67.9261 337.836 67.3341L340.068 68.3901C339.492 69.3981 338.74 70.1901 337.812 70.7661C336.884 71.3421 335.772 71.6301 334.476 71.6301ZM337.62 63.6861C337.588 63.2541 337.452 62.8301 337.212 62.4141C336.972 61.9821 336.604 61.6221 336.108 61.3341C335.628 61.0461 335.036 60.9021 334.332 60.9021C333.484 60.9021 332.764 61.1581 332.172 61.6701C331.596 62.1661 331.196 62.8381 330.972 63.6861H337.62ZM347.629 76.8141C346.125 76.8141 344.877 76.4701 343.885 75.7821C342.909 75.0941 342.253 74.2781 341.917 73.3341L344.389 72.3021C344.645 72.9421 345.053 73.4541 345.613 73.8381C346.189 74.2381 346.861 74.4381 347.629 74.4381C348.749 74.4381 349.621 74.1021 350.245 73.4301C350.885 72.7741 351.205 71.8461 351.205 70.6461V69.5181H351.061C350.661 70.0941 350.125 70.5501 349.453 70.8861C348.797 71.2061 348.037 71.3661 347.173 71.3661C346.149 71.3661 345.197 71.1021 344.317 70.5741C343.437 70.0461 342.733 69.3021 342.205 68.3421C341.693 67.3661 341.437 66.2541 341.437 65.0061C341.437 63.7581 341.693 62.6541 342.205 61.6941C342.733 60.7181 343.437 59.9661 344.317 59.4381C345.197 58.8941 346.149 58.6221 347.173 58.6221C348.021 58.6221 348.781 58.7901 349.453 59.1261C350.125 59.4621 350.661 59.9181 351.061 60.4941H351.205V59.0061H353.725V70.5741C353.725 71.9021 353.469 73.0301 352.957 73.9581C352.445 74.9021 351.725 75.6141 350.797 76.0941C349.885 76.5741 348.829 76.8141 347.629 76.8141ZM347.653 68.9661C348.293 68.9661 348.885 68.8141 349.429 68.5101C349.973 68.1901 350.405 67.7341 350.725 67.1421C351.045 66.5341 351.205 65.8221 351.205 65.0061C351.205 63.7581 350.861 62.7901 350.173 62.1021C349.501 61.3981 348.661 61.0461 347.653 61.0461C346.997 61.0461 346.397 61.2061 345.853 61.5261C345.309 61.8301 344.877 62.2781 344.557 62.8701C344.237 63.4621 344.077 64.1741 344.077 65.0061C344.077 65.8381 344.237 66.5501 344.557 67.1421C344.877 67.7341 345.309 68.1901 345.853 68.5101C346.397 68.8141 346.997 68.9661 347.653 68.9661ZM361.726 71.6301C360.494 71.6301 359.39 71.3501 358.414 70.7901C357.438 70.2141 356.678 69.4301 356.134 68.4381C355.59 67.4461 355.318 66.3421 355.318 65.1261C355.318 63.9101 355.59 62.8061 356.134 61.8141C356.678 60.8221 357.438 60.0461 358.414 59.4861C359.39 58.9101 360.494 58.6221 361.726 58.6221C362.958 58.6221 364.062 58.9101 365.038 59.4861C366.014 60.0621 366.774 60.8461 367.318 61.8381C367.862 62.8301 368.134 63.9261 368.134 65.1261C368.134 66.3421 367.862 67.4461 367.318 68.4381C366.774 69.4301 366.014 70.2141 365.038 70.7901C364.062 71.3501 362.958 71.6301 361.726 71.6301ZM361.726 69.2061C362.398 69.2061 363.022 69.0461 363.598 68.7261C364.174 68.3901 364.63 67.9181 364.966 67.3101C365.318 66.6861 365.494 65.9581 365.494 65.1261C365.494 64.2941 365.318 63.5741 364.966 62.9661C364.63 62.3581 364.174 61.8941 363.598 61.5741C363.022 61.2381 362.398 61.0701 361.726 61.0701C361.054 61.0701 360.43 61.2381 359.854 61.5741C359.278 61.8941 358.814 62.3581 358.462 62.9661C358.126 63.5741 357.958 64.2941 357.958 65.1261C357.958 65.9581 358.126 66.6861 358.462 67.3101C358.814 67.9181 359.278 68.3901 359.854 68.7261C360.43 69.0461 361.054 69.2061 361.726 69.2061ZM369.614 59.0061H372.134V60.8061H372.254C372.526 60.1821 372.998 59.6701 373.67 59.2701C374.342 58.8541 375.054 58.6461 375.806 58.6461C376.398 58.6461 376.894 58.7261 377.294 58.8861V61.6221C376.59 61.3661 375.958 61.2381 375.398 61.2381C374.79 61.2381 374.246 61.3981 373.766 61.7181C373.302 62.0381 372.934 62.4701 372.662 63.0141C372.39 63.5421 372.254 64.1261 372.254 64.7661V71.2461H369.614V59.0061ZM382.88 70.5741L377.792 59.0061H380.744L384.2 67.3341H384.296L387.656 59.0061H390.56L383 76.4301H380.216L382.88 70.5741ZM396.086 68.7501C396.598 68.2381 397.606 67.2301 399.11 65.7261C400.614 64.2061 401.614 63.1741 402.11 62.6301C402.782 61.9101 403.238 61.3261 403.478 60.8781C403.734 60.4301 403.862 59.8941 403.862 59.2701C403.862 58.6461 403.622 58.1021 403.142 57.6381C402.662 57.1741 402.014 56.9421 401.198 56.9421C400.446 56.9421 399.83 57.1661 399.35 57.6141C398.886 58.0461 398.582 58.5501 398.438 59.1261L396.038 58.1421C396.198 57.5661 396.494 56.9981 396.926 56.4381C397.374 55.8781 397.966 55.4061 398.702 55.0221C399.438 54.6381 400.286 54.4461 401.246 54.4461C402.286 54.4461 403.206 54.6621 404.006 55.0941C404.822 55.5101 405.446 56.0861 405.878 56.8221C406.326 57.5421 406.55 58.3421 406.55 59.2221C406.55 60.1661 406.302 61.0781 405.806 61.9581C405.326 62.8221 404.71 63.6301 403.958 64.3821C403.638 64.6861 402.83 65.4861 401.534 66.7821C400.222 68.0941 399.566 68.7501 399.566 68.7501L399.614 68.8461H406.766V71.2461H396.086V68.7501Z" fill="#1E1E1E"/>
<rect x="214.384" y="99.933" width="101.336" height="38.6677" rx="7.00018" fill="#1E1E1E" stroke="#1E1E1E" stroke-width="0.666684"/>
<rect x="210.333" y="96.3333" width="101.336" height="38.6677" rx="7.00018" fill="white" stroke="#1E1E1E" stroke-width="0.666684"/>
<path d="M233.558 110.948H231.488C232.016 111.44 232.34 111.998 232.46 112.622H233.558V113.9H232.478C232.37 114.488 232.124 115.016 231.74 115.484C231.368 115.952 230.9 116.318 230.336 116.582C229.784 116.834 229.184 116.96 228.536 116.96H228.032L227.996 117.014L232.856 121.928V122H230.768L225.998 117.086V115.556H228.536C229.088 115.556 229.58 115.406 230.012 115.106C230.444 114.806 230.732 114.404 230.876 113.9H224.468V112.622H230.876C230.732 112.154 230.462 111.758 230.066 111.434C229.67 111.11 229.196 110.948 228.644 110.948H224.468V109.688H233.558V110.948ZM242.055 122.288C241.479 122.288 240.909 122.168 240.345 121.928C239.781 121.676 239.283 121.304 238.851 120.812C238.419 120.308 238.113 119.69 237.933 118.958L239.283 118.418C239.463 119.15 239.793 119.738 240.273 120.182C240.765 120.614 241.347 120.83 242.019 120.83C242.823 120.83 243.477 120.584 243.981 120.092C244.485 119.6 244.737 118.958 244.737 118.166C244.737 117.386 244.485 116.744 243.981 116.24C243.489 115.724 242.847 115.466 242.055 115.466C241.623 115.466 241.215 115.568 240.831 115.772C240.447 115.964 240.135 116.234 239.895 116.582L238.329 115.898L239.139 109.688H245.511V111.146H240.399L239.913 114.872L239.985 114.89C240.621 114.35 241.401 114.08 242.325 114.08C243.033 114.08 243.687 114.254 244.287 114.602C244.899 114.95 245.385 115.436 245.745 116.06C246.105 116.684 246.285 117.38 246.285 118.148C246.285 118.916 246.099 119.618 245.727 120.254C245.367 120.878 244.863 121.376 244.215 121.748C243.567 122.108 242.847 122.288 242.055 122.288ZM252.522 122.288C251.55 122.288 250.686 122.006 249.93 121.442C249.186 120.866 248.61 120.092 248.202 119.12C247.806 118.136 247.608 117.044 247.608 115.844C247.608 114.644 247.806 113.558 248.202 112.586C248.61 111.602 249.186 110.828 249.93 110.264C250.674 109.688 251.538 109.4 252.522 109.4C253.506 109.4 254.37 109.688 255.114 110.264C255.858 110.828 256.428 111.602 256.824 112.586C257.232 113.558 257.436 114.644 257.436 115.844C257.436 117.044 257.232 118.136 256.824 119.12C256.428 120.092 255.852 120.866 255.096 121.442C254.352 122.006 253.494 122.288 252.522 122.288ZM252.522 120.83C253.206 120.83 253.8 120.614 254.304 120.182C254.808 119.738 255.198 119.138 255.474 118.382C255.75 117.626 255.888 116.78 255.888 115.844C255.888 114.908 255.75 114.062 255.474 113.306C255.198 112.55 254.808 111.956 254.304 111.524C253.8 111.08 253.206 110.858 252.522 110.858C251.838 110.858 251.244 111.08 250.74 111.524C250.236 111.956 249.846 112.55 249.57 113.306C249.294 114.062 249.156 114.908 249.156 115.844C249.156 116.78 249.294 117.626 249.57 118.382C249.846 119.138 250.236 119.738 250.74 120.182C251.244 120.614 251.838 120.83 252.522 120.83ZM258.705 123.494L259.659 122C259.443 121.964 259.251 121.85 259.083 121.658C258.915 121.466 258.831 121.232 258.831 120.956C258.831 120.644 258.939 120.38 259.155 120.164C259.383 119.936 259.659 119.822 259.983 119.822C260.307 119.822 260.577 119.936 260.793 120.164C261.021 120.38 261.135 120.644 261.135 120.956C261.135 121.16 261.093 121.358 261.009 121.55C260.925 121.73 260.799 121.94 260.631 122.18L259.443 123.98L258.705 123.494ZM267.385 122.288C266.413 122.288 265.549 122.006 264.793 121.442C264.049 120.866 263.473 120.092 263.065 119.12C262.669 118.136 262.471 117.044 262.471 115.844C262.471 114.644 262.669 113.558 263.065 112.586C263.473 111.602 264.049 110.828 264.793 110.264C265.537 109.688 266.401 109.4 267.385 109.4C268.369 109.4 269.233 109.688 269.977 110.264C270.721 110.828 271.291 111.602 271.687 112.586C272.095 113.558 272.299 114.644 272.299 115.844C272.299 117.044 272.095 118.136 271.687 119.12C271.291 120.092 270.715 120.866 269.959 121.442C269.215 122.006 268.357 122.288 267.385 122.288ZM267.385 120.83C268.069 120.83 268.663 120.614 269.167 120.182C269.671 119.738 270.061 119.138 270.337 118.382C270.613 117.626 270.751 116.78 270.751 115.844C270.751 114.908 270.613 114.062 270.337 113.306C270.061 112.55 269.671 111.956 269.167 111.524C268.663 111.08 268.069 110.858 267.385 110.858C266.701 110.858 266.107 111.08 265.603 111.524C265.099 111.956 264.709 112.55 264.433 113.306C264.157 114.062 264.019 114.908 264.019 115.844C264.019 116.78 264.157 117.626 264.433 118.382C264.709 119.138 265.099 119.738 265.603 120.182C266.107 120.614 266.701 120.83 267.385 120.83ZM278.447 122.288C277.475 122.288 276.611 122.006 275.855 121.442C275.111 120.866 274.535 120.092 274.127 119.12C273.731 118.136 273.533 117.044 273.533 115.844C273.533 114.644 273.731 113.558 274.127 112.586C274.535 111.602 275.111 110.828 275.855 110.264C276.599 109.688 277.463 109.4 278.447 109.4C279.431 109.4 280.295 109.688 281.039 110.264C281.783 110.828 282.353 111.602 282.749 112.586C283.157 113.558 283.361 114.644 283.361 115.844C283.361 117.044 283.157 118.136 282.749 119.12C282.353 120.092 281.777 120.866 281.021 121.442C280.277 122.006 279.419 122.288 278.447 122.288ZM278.447 120.83C279.131 120.83 279.725 120.614 280.229 120.182C280.733 119.738 281.123 119.138 281.399 118.382C281.675 117.626 281.813 116.78 281.813 115.844C281.813 114.908 281.675 114.062 281.399 113.306C281.123 112.55 280.733 111.956 280.229 111.524C279.725 111.08 279.131 110.858 278.447 110.858C277.763 110.858 277.169 111.08 276.665 111.524C276.161 111.956 275.771 112.55 275.495 113.306C275.219 114.062 275.081 114.908 275.081 115.844C275.081 116.78 275.219 117.626 275.495 118.382C275.771 119.138 276.161 119.738 276.665 120.182C277.169 120.614 277.763 120.83 278.447 120.83ZM289.508 122.288C288.536 122.288 287.672 122.006 286.916 121.442C286.172 120.866 285.596 120.092 285.188 119.12C284.792 118.136 284.594 117.044 284.594 115.844C284.594 114.644 284.792 113.558 285.188 112.586C285.596 111.602 286.172 110.828 286.916 110.264C287.66 109.688 288.524 109.4 289.508 109.4C290.492 109.4 291.356 109.688 292.1 110.264C292.844 110.828 293.414 111.602 293.81 112.586C294.218 113.558 294.422 114.644 294.422 115.844C294.422 117.044 294.218 118.136 293.81 119.12C293.414 120.092 292.838 120.866 292.082 121.442C291.338 122.006 290.48 122.288 289.508 122.288ZM289.508 120.83C290.192 120.83 290.786 120.614 291.29 120.182C291.794 119.738 292.184 119.138 292.46 118.382C292.736 117.626 292.874 116.78 292.874 115.844C292.874 114.908 292.736 114.062 292.46 113.306C292.184 112.55 291.794 111.956 291.29 111.524C290.786 111.08 290.192 110.858 289.508 110.858C288.824 110.858 288.23 111.08 287.726 111.524C287.222 111.956 286.832 112.55 286.556 113.306C286.28 114.062 286.142 114.908 286.142 115.844C286.142 116.78 286.28 117.626 286.556 118.382C286.832 119.138 287.222 119.738 287.726 120.182C288.23 120.614 288.824 120.83 289.508 120.83Z" fill="#1E1E1E"/>
<path d="M129.188 70.0405H134.583C144.346 65.34 142.468 60.6312 141.328 59.4912C140.165 58.3273 137.875 57.6526 134.925 59.6506C131.138 62.2151 129.188 70.0405 129.188 70.0405Z" fill="#ED6500"/>
<path d="M130.774 68.8505C131.61 66.273 133.322 62.1746 135.594 60.6359C136.641 59.9267 137.63 59.5673 138.535 59.5673C139.568 59.5673 140.203 60.0469 140.488 60.3325C140.762 60.6062 141.228 61.4261 141.034 62.5673C140.677 64.6653 138.294 66.8906 134.311 68.8493H130.774V68.8505Z" fill="#D65600"/>
<path d="M129.188 70.0405H123.792C114.03 65.34 115.908 60.6312 117.048 59.4912C118.211 58.3273 120.501 57.6526 123.451 59.6506C127.238 62.2151 129.188 70.0405 129.188 70.0405Z" fill="#ED6500"/>
<path d="M127.603 68.8505C126.767 66.273 125.055 62.1746 122.783 60.6359C121.736 59.9267 120.747 59.5673 119.842 59.5673C118.809 59.5673 118.174 60.0469 117.889 60.3325C117.615 60.6062 117.149 61.4261 117.343 62.5673C117.7 64.6653 120.083 66.8906 124.066 68.8493H127.603V68.8505Z" fill="#D65600"/>
<path d="M129.188 68.3959C124.671 68.3959 101.461 73.4701 101.461 104.242C101.461 115.754 110.518 116.568 129.188 116.568C147.858 116.568 156.915 115.756 156.915 104.242C156.915 73.4701 133.705 68.3959 129.188 68.3959Z" fill="#D15900"/>
<path d="M156.915 104.242C156.915 115.756 147.858 116.568 129.188 116.568C112.298 116.568 103.276 115.903 101.708 107.252C107.702 112.282 122.228 112.282 129.188 112.282C136.148 112.282 151.497 108.329 148.591 90.7572C147.071 81.5645 140.538 76.5819 134.538 74.4554C129.312 72.6026 120.425 72.48 115.173 73.62C121.08 69.4693 127.111 68.3959 129.188 68.3959C133.706 68.3959 156.915 73.4701 156.915 104.242Z" fill="#C64709"/>
<path d="M134.16 55.9009C132.33 56.5947 130.643 56.9338 129.189 56.9338C127.735 56.9338 126.049 56.5947 124.219 55.9009C122.388 55.2072 120.481 55.8902 120.676 58.0703C120.952 61.1357 123.451 66.2325 126.757 70.0405H131.622C134.927 66.2325 137.428 61.1357 137.702 58.0703C137.899 55.8902 135.99 55.2072 134.16 55.9009Z" fill="#FF7900"/>
<path d="M137.701 58.0703C137.425 61.1357 134.926 66.2325 131.62 70.0405H126.756C125.367 68.44 124.121 66.6133 123.123 64.8045C123.233 64.908 125.736 66.5657 128.166 66.5657C130.596 66.5657 131.974 65.9076 133.011 64.8771C134.188 63.7073 135.757 60.8049 136.126 58.7355C136.493 56.6673 135.291 55.9973 134.182 55.8926C136.005 55.2131 137.896 55.8997 137.701 58.0703Z" fill="#F26D00"/>
<path d="M128.751 79.1964C127.771 79.2523 126.928 78.505 126.869 77.5232C126.491 71.3781 131.539 68.2293 131.755 68.0984C132.597 67.5855 133.694 67.8521 134.207 68.6934C134.719 69.5324 134.455 70.626 133.62 71.1413C133.462 71.24 130.189 73.3511 130.432 77.3043C130.492 78.2884 129.744 79.1345 128.76 79.1952H128.751V79.1964Z" fill="#FFAA00"/>
<path d="M134.215 68.7065C133.88 68.6958 133.54 68.7791 133.233 68.9659C133.019 69.0968 127.971 72.2468 128.347 78.3919C128.364 78.6871 128.454 78.9608 128.597 79.1976C127.684 79.1726 126.925 78.4526 126.867 77.522C126.491 71.3781 131.539 68.2281 131.754 68.096C132.596 67.5832 133.694 67.8509 134.207 68.691C134.21 68.6958 134.212 68.7006 134.216 68.7053L134.215 68.7065Z" fill="#FC8300"/>
<path d="M138.991 80.1555C138.712 80.171 138.424 80.1222 138.151 79.9972C131.558 76.9949 131.074 70.0131 131.056 69.718C130.998 68.7339 131.75 67.889 132.734 67.8319H132.738C133.718 67.7759 134.56 68.5221 134.62 69.5014C134.637 69.7335 135.039 74.6577 139.63 76.7485C140.527 77.1567 140.924 78.2158 140.516 79.1131C140.231 79.7378 139.631 80.1198 138.991 80.1555Z" fill="#FFAA00"/>
<path d="M140.625 78.7918C140.599 78.9001 140.562 79.0072 140.514 79.1131C140.23 79.7366 139.63 80.1198 138.99 80.1555C138.71 80.171 138.424 80.121 138.15 79.9972C131.556 76.9949 131.074 70.0131 131.056 69.7168C131.009 68.9112 131.504 68.2008 132.224 67.9354C132.182 68.1032 132.165 68.2793 132.176 68.4614C132.194 68.7577 132.677 75.7394 139.27 78.7418C139.542 78.8656 139.83 78.9155 140.11 78.9001C140.287 78.8905 140.46 78.8537 140.625 78.7918Z" fill="#FC8300"/>
<path d="M139.303 67.5106H119.073C118.087 67.5106 117.288 68.3097 117.288 69.2956C117.288 70.2814 118.087 71.0806 119.073 71.0806H139.303C140.289 71.0806 141.088 70.2814 141.088 69.2956C141.088 68.3097 140.289 67.5106 139.303 67.5106Z" fill="#FFB806"/>
<path d="M141.089 69.2956C141.089 69.7894 140.889 70.2345 140.566 70.5582C140.242 70.8818 139.797 71.0806 139.304 71.0806H119.074C118.088 71.0806 117.289 70.2821 117.289 69.2956C117.289 69.0873 117.325 68.8874 117.391 68.7006C117.635 69.3943 118.296 69.8906 119.074 69.8906H139.304C139.797 69.8906 140.243 69.6907 140.566 69.3682C140.752 69.1813 140.898 68.954 140.987 68.7006C141.053 68.8874 141.089 69.0873 141.089 69.2956Z" fill="#FF9700"/>
<path d="M132.507 87.5984C133.28 88.4353 133.773 89.4008 133.988 90.4952H136.048V92.9413H134.02C133.741 94.5291 132.968 95.838 131.702 96.8679C130.458 97.8764 129.01 98.4128 127.357 98.4772H126.907L126.842 98.6381L135.05 106.974V107.167H130.254L122.047 98.6703V95.2908H126.939C127.776 95.2908 128.516 95.087 129.16 94.6793C129.803 94.2502 130.254 93.6708 130.512 92.9413H119.311V90.4952H130.479C130.243 89.8085 129.825 89.2506 129.224 88.8215C128.623 88.3709 127.905 88.1456 127.068 88.1456H119.311V85.1523H136.048V87.5984H132.507Z" fill="white"/>
<path d="M132.507 87.5984C133.28 88.4353 133.773 89.4008 133.988 90.4952H136.048V92.9413H134.02C133.741 94.5291 132.968 95.838 131.702 96.8679C130.458 97.8764 129.01 98.4128 127.357 98.4772H126.907L126.842 98.6381L135.05 106.974V107.167H130.254L122.047 98.6703V95.2908H126.939C127.776 95.2908 128.516 95.087 129.16 94.6793C129.803 94.2502 130.254 93.6708 130.512 92.9413H119.311V90.4952H130.479C130.243 89.8085 129.825 89.2506 129.224 88.8215C128.623 88.3709 127.905 88.1456 127.068 88.1456H119.311V85.1523H136.048V87.5984H132.507Z" fill="#FFDB08"/>
</svg>
