<svg width="345" height="160" viewBox="0 0 345 160" fill="none" xmlns="http://www.w3.org/2000/svg">
<rect x="0.5" y="0.5" width="343.803" height="158.894" rx="17.5" fill="white" stroke="#1E1E1E"/>
<path d="M156.978 62.1578C157.433 61.7032 158.335 60.7938 159.684 59.4298C161.034 58.0512 161.972 57.0758 162.5 56.5038C163.248 55.6972 163.754 55.0665 164.018 54.6118C164.282 54.1572 164.414 53.6072 164.414 52.9618C164.414 52.5218 164.297 52.1112 164.062 51.7298C163.842 51.3338 163.512 51.0185 163.072 50.7838C162.647 50.5345 162.134 50.4098 161.532 50.4098C160.74 50.4098 160.102 50.6445 159.618 51.1138C159.149 51.5685 158.841 52.0672 158.694 52.6098L156.978 51.9278C157.125 51.4585 157.389 50.9745 157.77 50.4758C158.152 49.9625 158.665 49.5298 159.31 49.1778C159.956 48.8112 160.718 48.6278 161.598 48.6278C162.522 48.6278 163.336 48.8258 164.04 49.2218C164.759 49.6178 165.316 50.1458 165.712 50.8058C166.108 51.4658 166.306 52.1772 166.306 52.9398C166.306 54.4798 165.5 56.0712 163.886 57.7138L159.376 62.2458H166.482V64.0278H156.978V62.1578ZM168.273 52.8078H170.055V54.4578H170.143C170.451 53.9005 170.942 53.4312 171.617 53.0498C172.292 52.6538 173.01 52.4558 173.773 52.4558C175.122 52.4558 176.149 52.8518 176.853 53.6438C177.572 54.4212 177.931 55.4845 177.931 56.8338V64.0278H176.061V57.1198C176.061 56.0785 175.812 55.3232 175.313 54.8538C174.814 54.3845 174.132 54.1498 173.267 54.1498C172.666 54.1498 172.123 54.3185 171.639 54.6558C171.17 54.9932 170.803 55.4405 170.539 55.9978C170.275 56.5405 170.143 57.1125 170.143 57.7138V64.0278H168.273V52.8078ZM184.697 64.3798C183.7 64.3798 182.79 64.1232 181.969 63.6098C181.162 63.0965 180.524 62.3925 180.055 61.4978C179.586 60.5885 179.351 59.5618 179.351 58.4178C179.351 57.2885 179.586 56.2692 180.055 55.3598C180.524 54.4505 181.162 53.7392 181.969 53.2258C182.79 52.7125 183.7 52.4558 184.697 52.4558C185.562 52.4558 186.332 52.6538 187.007 53.0498C187.682 53.4312 188.195 53.9078 188.547 54.4798H188.635L188.547 52.9178V48.2758H190.417V64.0278H188.635V62.3778H188.547C188.195 62.9352 187.682 63.4118 187.007 63.8078C186.332 64.1892 185.562 64.3798 184.697 64.3798ZM184.917 62.6858C185.577 62.6858 186.186 62.5098 186.743 62.1578C187.315 61.8058 187.77 61.3072 188.107 60.6618C188.459 60.0165 188.635 59.2685 188.635 58.4178C188.635 57.5672 188.459 56.8192 188.107 56.1738C187.77 55.5285 187.315 55.0298 186.743 54.6778C186.186 54.3258 185.577 54.1498 184.917 54.1498C184.272 54.1498 183.663 54.3258 183.091 54.6778C182.519 55.0298 182.057 55.5358 181.705 56.1958C181.368 56.8412 181.199 57.5818 181.199 58.4178C181.199 59.2538 181.368 60.0018 181.705 60.6618C182.057 61.3072 182.519 61.8058 183.091 62.1578C183.663 62.5098 184.272 62.6858 184.917 62.6858ZM197.347 48.2758H202.671C203.536 48.2758 204.343 48.4738 205.091 48.8698C205.839 49.2658 206.433 49.8232 206.873 50.5418C207.327 51.2458 207.555 52.0452 207.555 52.9398C207.555 53.6732 207.386 54.3552 207.049 54.9858C206.726 55.6165 206.271 56.1445 205.685 56.5698C205.113 56.9952 204.475 57.2812 203.771 57.4278L203.727 57.4938L208.171 63.9398V64.0278H205.971L201.681 57.6038H199.195V64.0278H197.347V48.2758ZM202.561 55.8658C203.103 55.8658 203.609 55.7412 204.079 55.4918C204.563 55.2425 204.944 54.8978 205.223 54.4578C205.516 54.0032 205.663 53.4972 205.663 52.9398C205.663 52.4558 205.538 51.9938 205.289 51.5538C205.039 51.1138 204.687 50.7545 204.233 50.4758C203.793 50.1972 203.279 50.0578 202.693 50.0578H199.195V55.8658H202.561ZM213.058 64.3798C211.709 64.3798 210.675 63.9838 209.956 63.1918C209.252 62.3998 208.9 61.2925 208.9 59.8698V52.8078H210.77V59.5838C210.77 60.6545 211.012 61.4392 211.496 61.9378C211.98 62.4365 212.633 62.6858 213.454 62.6858C214.085 62.6858 214.642 62.5172 215.126 62.1798C215.625 61.8425 216.006 61.4025 216.27 60.8598C216.549 60.3172 216.688 59.7452 216.688 59.1438V52.8078H218.558V64.0278H216.776V62.3998H216.688C216.38 62.9572 215.889 63.4265 215.214 63.8078C214.54 64.1892 213.821 64.3798 213.058 64.3798ZM220.66 52.8078H222.442V54.4578H222.53C222.838 53.9005 223.33 53.4312 224.004 53.0498C224.679 52.6538 225.398 52.4558 226.16 52.4558C227.51 52.4558 228.536 52.8518 229.24 53.6438C229.959 54.4212 230.318 55.4845 230.318 56.8338V64.0278H228.448V57.1198C228.448 56.0785 228.199 55.3232 227.7 54.8538C227.202 54.3845 226.52 54.1498 225.654 54.1498C225.053 54.1498 224.51 54.3185 224.026 54.6558C223.557 54.9932 223.19 55.4405 222.926 55.9978C222.662 56.5405 222.53 57.1125 222.53 57.7138V64.0278H220.66V52.8078ZM232.332 52.8078H234.114V54.4578H234.202C234.51 53.9005 235.002 53.4312 235.676 53.0498C236.351 52.6538 237.07 52.4558 237.832 52.4558C239.182 52.4558 240.208 52.8518 240.912 53.6438C241.631 54.4212 241.99 55.4845 241.99 56.8338V64.0278H240.12V57.1198C240.12 56.0785 239.871 55.3232 239.372 54.8538C238.874 54.3845 238.192 54.1498 237.326 54.1498C236.725 54.1498 236.182 54.3185 235.698 54.6558C235.229 54.9932 234.862 55.4405 234.598 55.9978C234.334 56.5405 234.202 57.1125 234.202 57.7138V64.0278H232.332V52.8078ZM248.998 64.3798C247.928 64.3798 246.967 64.1232 246.116 63.6098C245.266 63.0965 244.598 62.3925 244.114 61.4978C243.645 60.5885 243.41 59.5692 243.41 58.4398C243.41 57.3545 243.63 56.3572 244.07 55.4478C244.525 54.5385 245.163 53.8125 245.984 53.2698C246.806 52.7272 247.759 52.4558 248.844 52.4558C249.944 52.4558 250.898 52.7052 251.704 53.2038C252.511 53.6878 253.127 54.3625 253.552 55.2278C253.992 56.0932 254.212 57.0832 254.212 58.1978C254.212 58.4178 254.19 58.6085 254.146 58.7698H245.28C245.324 59.6205 245.53 60.3392 245.896 60.9258C246.263 61.5125 246.725 61.9525 247.282 62.2458C247.854 62.5392 248.448 62.6858 249.064 62.6858C250.502 62.6858 251.609 62.0112 252.386 60.6618L253.97 61.4318C253.486 62.3412 252.826 63.0598 251.99 63.5878C251.169 64.1158 250.172 64.3798 248.998 64.3798ZM252.232 57.2298C252.203 56.7605 252.071 56.2912 251.836 55.8218C251.602 55.3525 251.228 54.9565 250.714 54.6338C250.216 54.3112 249.585 54.1498 248.822 54.1498C247.942 54.1498 247.194 54.4358 246.578 55.0078C245.977 55.5652 245.581 56.3058 245.39 57.2298H252.232ZM255.741 52.8078H257.523V54.6118H257.611C257.831 53.9958 258.256 53.4898 258.887 53.0938C259.518 52.6832 260.178 52.4778 260.867 52.4778C261.38 52.4778 261.82 52.5512 262.187 52.6978V54.7218C261.718 54.4872 261.19 54.3698 260.603 54.3698C260.06 54.3698 259.562 54.5238 259.107 54.8318C258.652 55.1398 258.286 55.5578 258.007 56.0858C257.743 56.5992 257.611 57.1565 257.611 57.7578V64.0278H255.741V52.8078ZM271.854 64.3798C270.505 64.3798 269.471 63.9838 268.752 63.1918C268.048 62.3998 267.696 61.2925 267.696 59.8698V52.8078H269.566V59.5838C269.566 60.6545 269.808 61.4392 270.292 61.9378C270.776 62.4365 271.429 62.6858 272.25 62.6858C272.881 62.6858 273.438 62.5172 273.922 62.1798C274.421 61.8425 274.802 61.4025 275.066 60.8598C275.345 60.3172 275.484 59.7452 275.484 59.1438V52.8078H277.354V64.0278H275.572V62.3998H275.484C275.176 62.9572 274.685 63.4265 274.01 63.8078C273.336 64.1892 272.617 64.3798 271.854 64.3798ZM279.368 52.8078H281.15V54.4798H281.238C281.576 53.9078 282.082 53.4312 282.756 53.0498C283.446 52.6538 284.216 52.4558 285.066 52.4558C286.064 52.4558 286.973 52.7125 287.794 53.2258C288.616 53.7392 289.261 54.4505 289.73 55.3598C290.2 56.2692 290.434 57.2885 290.434 58.4178C290.434 59.5618 290.2 60.5885 289.73 61.4978C289.261 62.3925 288.616 63.0965 287.794 63.6098C286.973 64.1232 286.064 64.3798 285.066 64.3798C284.216 64.3798 283.446 64.1892 282.756 63.8078C282.082 63.4118 281.576 62.9352 281.238 62.3778H281.15L281.238 63.9178V68.7798H279.368V52.8078ZM284.846 62.6858C285.492 62.6858 286.1 62.5098 286.672 62.1578C287.244 61.8058 287.699 61.3072 288.036 60.6618C288.388 60.0018 288.564 59.2538 288.564 58.4178C288.564 57.5818 288.388 56.8412 288.036 56.1958C287.699 55.5358 287.244 55.0298 286.672 54.6778C286.1 54.3258 285.492 54.1498 284.846 54.1498C284.201 54.1498 283.592 54.3258 283.02 54.6778C282.448 55.0298 281.994 55.5285 281.656 56.1738C281.319 56.8192 281.15 57.5672 281.15 58.4178C281.15 59.2685 281.319 60.0165 281.656 60.6618C281.994 61.3072 282.448 61.8058 283.02 62.1578C283.592 62.5098 284.201 62.6858 284.846 62.6858Z" fill="#1E1E1E"/>
<rect x="155.988" y="79.9531" width="155.752" height="45.4375" rx="7.44504" fill="#4285F4"/>
<path d="M185.836 95.7959C186.349 96.3532 186.686 97.0572 186.848 97.9079H188.256V99.5799H186.848C186.672 100.651 186.18 101.531 185.374 102.22C184.567 102.909 183.628 103.305 182.558 103.408H182.404L182.382 103.584L187.684 108.996V109.172H183.878L178.334 103.474V100.9H181.942C182.44 100.9 182.88 100.783 183.262 100.548C183.658 100.313 183.936 99.9905 184.098 99.5799H176.53V97.9079H184.098C183.922 97.5119 183.65 97.1965 183.284 96.9619C182.917 96.7125 182.477 96.5879 181.964 96.5879H176.53V94.1239H188.256V95.7959H185.836ZM189.332 106.554C189.816 106.07 190.747 105.139 192.126 103.76C193.519 102.367 194.414 101.457 194.81 101.032C195.338 100.46 195.697 99.9832 195.888 99.6019C196.093 99.2205 196.196 98.7879 196.196 98.3039C196.196 97.7905 196.005 97.3579 195.624 97.0059C195.242 96.6539 194.736 96.4779 194.106 96.4779C193.49 96.4779 192.991 96.6539 192.61 97.0059C192.228 97.3579 191.957 97.7979 191.796 98.3259L189.2 97.2479C189.361 96.6759 189.654 96.1259 190.08 95.5979C190.52 95.0552 191.084 94.6152 191.774 94.2779C192.463 93.9405 193.255 93.7719 194.15 93.7719C195.147 93.7719 196.02 93.9699 196.768 94.3659C197.516 94.7472 198.095 95.2752 198.506 95.9499C198.916 96.6099 199.122 97.3505 199.122 98.1719C199.122 99.7999 198.33 101.391 196.746 102.946C196.1 103.577 194.905 104.765 193.16 106.51L193.226 106.642H199.32V109.172H189.332V106.554ZM200.896 111.13L202.216 109.128C201.879 108.996 201.593 108.776 201.358 108.468C201.138 108.16 201.028 107.801 201.028 107.39C201.028 106.862 201.212 106.415 201.578 106.048C201.96 105.681 202.414 105.498 202.942 105.498C203.47 105.498 203.918 105.681 204.284 106.048C204.666 106.415 204.856 106.862 204.856 107.39C204.856 107.654 204.812 107.889 204.724 108.094C204.636 108.299 204.49 108.556 204.284 108.864L202.194 111.988L200.896 111.13ZM212.844 109.524C211.583 109.524 210.475 109.187 209.522 108.512C208.569 107.823 207.828 106.884 207.3 105.696C206.787 104.493 206.53 103.144 206.53 101.648C206.53 100.152 206.787 98.8099 207.3 97.6219C207.828 96.4192 208.569 95.4805 209.522 94.8059C210.475 94.1165 211.583 93.7719 212.844 93.7719C214.105 93.7719 215.213 94.1165 216.166 94.8059C217.119 95.4805 217.853 96.4192 218.366 97.6219C218.894 98.8099 219.158 100.152 219.158 101.648C219.158 103.144 218.894 104.493 218.366 105.696C217.853 106.884 217.119 107.823 216.166 108.512C215.213 109.187 214.105 109.524 212.844 109.524ZM212.844 106.818C213.548 106.818 214.157 106.598 214.67 106.158C215.198 105.703 215.594 105.087 215.858 104.31C216.137 103.518 216.276 102.631 216.276 101.648C216.276 100.123 215.968 98.8832 215.352 97.9299C214.736 96.9619 213.9 96.4779 212.844 96.4779C211.803 96.4779 210.974 96.9619 210.358 97.9299C209.742 98.8979 209.434 100.137 209.434 101.648C209.434 102.631 209.566 103.518 209.83 104.31C210.109 105.087 210.505 105.703 211.018 106.158C211.546 106.598 212.155 106.818 212.844 106.818ZM227.03 109.524C225.769 109.524 224.661 109.187 223.708 108.512C222.755 107.823 222.014 106.884 221.486 105.696C220.973 104.493 220.716 103.144 220.716 101.648C220.716 100.152 220.973 98.8099 221.486 97.6219C222.014 96.4192 222.755 95.4805 223.708 94.8059C224.661 94.1165 225.769 93.7719 227.03 93.7719C228.291 93.7719 229.399 94.1165 230.352 94.8059C231.305 95.4805 232.039 96.4192 232.552 97.6219C233.08 98.8099 233.344 100.152 233.344 101.648C233.344 103.144 233.08 104.493 232.552 105.696C232.039 106.884 231.305 107.823 230.352 108.512C229.399 109.187 228.291 109.524 227.03 109.524ZM227.03 106.818C227.734 106.818 228.343 106.598 228.856 106.158C229.384 105.703 229.78 105.087 230.044 104.31C230.323 103.518 230.462 102.631 230.462 101.648C230.462 100.123 230.154 98.8832 229.538 97.9299C228.922 96.9619 228.086 96.4779 227.03 96.4779C225.989 96.4779 225.16 96.9619 224.544 97.9299C223.928 98.8979 223.62 100.137 223.62 101.648C223.62 102.631 223.752 103.518 224.016 104.31C224.295 105.087 224.691 105.703 225.204 106.158C225.732 106.598 226.341 106.818 227.03 106.818ZM234.946 111.13L236.266 109.128C235.928 108.996 235.642 108.776 235.408 108.468C235.188 108.16 235.078 107.801 235.078 107.39C235.078 106.862 235.261 106.415 235.628 106.048C236.009 105.681 236.464 105.498 236.992 105.498C237.52 105.498 237.967 105.681 238.334 106.048C238.715 106.415 238.906 106.862 238.906 107.39C238.906 107.654 238.862 107.889 238.774 108.094C238.686 108.299 238.539 108.556 238.334 108.864L236.244 111.988L234.946 111.13ZM246.893 109.524C245.632 109.524 244.525 109.187 243.571 108.512C242.618 107.823 241.877 106.884 241.349 105.696C240.836 104.493 240.579 103.144 240.579 101.648C240.579 100.152 240.836 98.8099 241.349 97.6219C241.877 96.4192 242.618 95.4805 243.571 94.8059C244.525 94.1165 245.632 93.7719 246.893 93.7719C248.155 93.7719 249.262 94.1165 250.215 94.8059C251.169 95.4805 251.902 96.4192 252.415 97.6219C252.943 98.8099 253.207 100.152 253.207 101.648C253.207 103.144 252.943 104.493 252.415 105.696C251.902 106.884 251.169 107.823 250.215 108.512C249.262 109.187 248.155 109.524 246.893 109.524ZM246.893 106.818C247.597 106.818 248.206 106.598 248.719 106.158C249.247 105.703 249.643 105.087 249.907 104.31C250.186 103.518 250.325 102.631 250.325 101.648C250.325 100.123 250.017 98.8832 249.401 97.9299C248.785 96.9619 247.949 96.4779 246.893 96.4779C245.852 96.4779 245.023 96.9619 244.407 97.9299C243.791 98.8979 243.483 100.137 243.483 101.648C243.483 102.631 243.615 103.518 243.879 104.31C244.158 105.087 244.554 105.703 245.067 106.158C245.595 106.598 246.204 106.818 246.893 106.818ZM261.079 109.524C259.818 109.524 258.71 109.187 257.757 108.512C256.804 107.823 256.063 106.884 255.535 105.696C255.022 104.493 254.765 103.144 254.765 101.648C254.765 100.152 255.022 98.8099 255.535 97.6219C256.063 96.4192 256.804 95.4805 257.757 94.8059C258.71 94.1165 259.818 93.7719 261.079 93.7719C262.34 93.7719 263.448 94.1165 264.401 94.8059C265.354 95.4805 266.088 96.4192 266.601 97.6219C267.129 98.8099 267.393 100.152 267.393 101.648C267.393 103.144 267.129 104.493 266.601 105.696C266.088 106.884 265.354 107.823 264.401 108.512C263.448 109.187 262.34 109.524 261.079 109.524ZM261.079 106.818C261.783 106.818 262.392 106.598 262.905 106.158C263.433 105.703 263.829 105.087 264.093 104.31C264.372 103.518 264.511 102.631 264.511 101.648C264.511 100.123 264.203 98.8832 263.587 97.9299C262.971 96.9619 262.135 96.4779 261.079 96.4779C260.038 96.4779 259.209 96.9619 258.593 97.9299C257.977 98.8979 257.669 100.137 257.669 101.648C257.669 102.631 257.801 103.518 258.065 104.31C258.344 105.087 258.74 105.703 259.253 106.158C259.781 106.598 260.39 106.818 261.079 106.818ZM275.265 109.524C274.004 109.524 272.896 109.187 271.943 108.512C270.99 107.823 270.249 106.884 269.721 105.696C269.208 104.493 268.951 103.144 268.951 101.648C268.951 100.152 269.208 98.8099 269.721 97.6219C270.249 96.4192 270.99 95.4805 271.943 94.8059C272.896 94.1165 274.004 93.7719 275.265 93.7719C276.526 93.7719 277.634 94.1165 278.587 94.8059C279.54 95.4805 280.274 96.4192 280.787 97.6219C281.315 98.8099 281.579 100.152 281.579 101.648C281.579 103.144 281.315 104.493 280.787 105.696C280.274 106.884 279.54 107.823 278.587 108.512C277.634 109.187 276.526 109.524 275.265 109.524ZM275.265 106.818C275.969 106.818 276.578 106.598 277.091 106.158C277.619 105.703 278.015 105.087 278.279 104.31C278.558 103.518 278.697 102.631 278.697 101.648C278.697 100.123 278.389 98.8832 277.773 97.9299C277.157 96.9619 276.321 96.4779 275.265 96.4779C274.224 96.4779 273.395 96.9619 272.779 97.9299C272.163 98.8979 271.855 100.137 271.855 101.648C271.855 102.631 271.987 103.518 272.251 104.31C272.53 105.087 272.926 105.703 273.439 106.158C273.967 106.598 274.576 106.818 275.265 106.818Z" fill="white"/>
<ellipse cx="85.9836" cy="79.9471" rx="50.0871" ry="49.1277" fill="#DF881B" fill-opacity="0.27"/>
<path d="M79.348 97.395H95.1935C96.646 97.395 97.8344 98.5834 97.8344 100.036V104.658H76.707V100.036C76.707 98.5834 77.8954 97.395 79.348 97.395Z" fill="url(#paint0_linear_188_92)"/>
<path d="M75.061 104.659H99.4895C101.497 104.659 103.121 106.283 103.121 108.29C103.121 110.298 101.497 111.922 99.4895 111.922H75.061C73.0539 111.922 71.4297 110.298 71.4297 108.29C71.4297 106.283 73.0539 104.659 75.061 104.659Z" fill="url(#paint1_linear_188_92)"/>
<path d="M101.685 62.0736C104.92 58.8385 109.977 58.2839 112.658 58.2443C113.728 58.2311 114.507 59.0102 114.493 60.0797C114.441 62.7471 113.899 67.8044 110.664 71.0528C107.429 74.3011 102.372 74.8425 99.6911 74.8821C98.6215 74.8953 97.8424 74.1162 97.8556 73.0467C97.9085 70.3793 98.4498 65.3088 101.685 62.0736Z" fill="url(#paint2_linear_188_92)"/>
<path d="M104.75 68.437C108.725 66.1526 113.742 66.9448 116.344 67.5919C117.387 67.856 117.928 68.8067 117.638 69.8366C116.898 72.3983 115.05 77.1388 111.075 79.4232C107.1 81.7076 102.083 80.9153 99.4814 80.2683C98.4382 80.0042 97.8968 79.0535 98.1873 78.0235C98.9268 75.4618 100.789 70.7214 104.75 68.437Z" fill="url(#paint3_linear_188_92)"/>
<path d="M106.521 74.0632C111.051 73.3501 115.461 75.8854 117.64 77.4171C118.524 78.0378 118.696 79.1205 118.036 79.9788C116.425 82.1048 113.005 85.8681 108.476 86.5811C103.947 87.2942 99.5362 84.7589 97.3574 83.2272C96.4727 82.6066 96.3011 81.5238 96.9613 80.6655C98.5723 78.5395 101.992 74.7762 106.521 74.0632Z" fill="url(#paint4_linear_188_92)"/>
<path d="M103.86 79.255C108.177 80.7868 110.858 85.1047 112.046 87.4947C112.522 88.4586 112.165 89.4886 111.188 89.9376C108.758 91.0467 103.952 92.7369 99.6341 91.2052C95.3162 89.6735 92.6356 85.3424 91.4472 82.9655C90.9719 82.0016 91.3284 80.9584 92.3055 80.5227C94.7352 79.4003 99.5417 77.7233 103.86 79.255Z" fill="url(#paint5_linear_188_92)"/>
<path d="M72.8536 62.0736C69.6184 58.8385 64.5611 58.2839 61.8805 58.2443C60.811 58.2311 60.0319 59.0102 60.0451 60.0797C60.0979 62.7471 60.6393 67.8044 63.8744 71.0528C67.1096 74.3011 72.1669 74.8425 74.8475 74.8821C75.917 74.8953 76.6961 74.1162 76.6829 73.0467C76.6301 70.3793 76.0887 65.3088 72.8536 62.0736Z" fill="url(#paint6_linear_188_92)"/>
<path d="M69.7938 68.437C65.8192 66.1526 60.7882 66.9448 58.2001 67.5919C57.157 67.856 56.6156 68.8067 56.9061 69.8366C57.6455 72.3983 59.4942 77.1388 63.4688 79.4232C67.4433 81.7076 72.4743 80.9153 75.0624 80.2683C76.1056 80.0042 76.6602 79.0535 76.3565 78.0235C75.6038 75.4618 73.7551 70.7214 69.7938 68.437Z" fill="url(#paint7_linear_188_92)"/>
<path d="M68.0167 74.0632C63.5008 73.3501 59.0904 75.8854 56.8985 77.4171C56.0137 78.0378 55.8421 79.1205 56.5023 79.9788C58.1133 82.1048 61.5333 85.8681 66.0625 86.5811C70.5916 87.2942 75.002 84.7589 77.1807 83.2272C78.0654 82.6066 78.2239 81.5238 77.5901 80.6655C75.9659 78.5395 72.5459 74.7762 68.0167 74.0632Z" fill="url(#paint8_linear_188_92)"/>
<path d="M70.686 79.255C66.3681 80.7868 63.6876 85.1047 62.4991 87.4947C62.0238 88.4586 62.3935 89.4886 63.3706 89.9376C65.8003 91.0467 70.6068 92.7369 74.9247 91.2052C79.2426 89.6735 81.9231 85.3424 83.1115 82.9655C83.5869 82.0016 83.2304 80.9584 82.24 80.5227C79.8104 79.4003 75.0039 77.7233 70.686 79.255Z" fill="url(#paint9_linear_188_92)"/>
<path d="M84.772 51.5616L72.5973 56.5529C70.1149 57.5697 68.5039 59.9861 68.5039 62.6667V78.6706C68.5039 93.0637 81.0615 97.606 85.6435 98.7813C86.7263 99.0586 87.8487 99.0586 88.9314 98.7813C93.5134 97.606 106.071 93.0637 106.071 78.6706V62.6667C106.071 59.9861 104.447 57.5697 101.978 56.5529L89.7897 51.5616C88.1788 50.9013 86.3829 50.9013 84.772 51.5616Z" fill="url(#paint10_linear_188_92)"/>
<path d="M87.2722 95.6795C86.9949 95.6795 86.7176 95.6399 86.4535 95.5739C84.486 95.0721 80.6831 93.8176 77.448 91.1371C73.6979 88.0208 71.7832 83.8218 71.7832 78.672V62.668C71.7832 61.3211 72.5887 60.1195 73.8299 59.6177L86.0046 54.6264C86.4007 54.4679 86.8233 54.3755 87.259 54.3755C87.6948 54.3755 88.1173 54.4547 88.5134 54.6264L100.688 59.6177C101.929 60.1327 102.735 61.3211 102.735 62.668V78.672C102.735 83.835 100.833 88.0208 97.07 91.1371C93.8349 93.8176 90.0452 95.0721 88.0645 95.5739C87.8268 95.6399 87.5495 95.6795 87.2722 95.6795Z" fill="url(#paint11_linear_188_92)"/>
<defs>
<linearGradient id="paint0_linear_188_92" x1="87.2707" y1="104.66" x2="87.2707" y2="97.3977" gradientUnits="userSpaceOnUse">
<stop stop-color="#994311"/>
<stop offset="1" stop-color="#CC6C35"/>
</linearGradient>
<linearGradient id="paint1_linear_188_92" x1="87.2752" y1="111.924" x2="87.2752" y2="104.662" gradientUnits="userSpaceOnUse">
<stop stop-color="#FF7100"/>
<stop offset="1" stop-color="#FCA543"/>
</linearGradient>
<linearGradient id="paint2_linear_188_92" x1="98.3744" y1="74.321" x2="113.993" y2="58.702" gradientUnits="userSpaceOnUse">
<stop offset="0.5" stop-color="#FF6200"/>
<stop offset="1" stop-color="#FCAB51"/>
</linearGradient>
<linearGradient id="paint3_linear_188_92" x1="100.518" y1="81.1775" x2="113.509" y2="64.9455" gradientUnits="userSpaceOnUse">
<stop offset="0.5" stop-color="#FF6200"/>
<stop offset="1" stop-color="#FCAB51"/>
</linearGradient>
<linearGradient id="paint4_linear_188_92" x1="99.3078" y1="84.0605" x2="117.825" y2="72.6429" gradientUnits="userSpaceOnUse">
<stop offset="0.5" stop-color="#FF6200"/>
<stop offset="1" stop-color="#FCAB51"/>
</linearGradient>
<linearGradient id="paint5_linear_188_92" x1="92.3685" y1="79.6704" x2="110.028" y2="91.8516" gradientUnits="userSpaceOnUse">
<stop offset="0.5" stop-color="#FF6200"/>
<stop offset="1" stop-color="#FCAB51"/>
</linearGradient>
<linearGradient id="paint6_linear_188_92" x1="76.1641" y1="74.3202" x2="60.5451" y2="58.7012" gradientUnits="userSpaceOnUse">
<stop offset="0.5" stop-color="#FF6200"/>
<stop offset="1" stop-color="#FCAB51"/>
</linearGradient>
<linearGradient id="paint7_linear_188_92" x1="74.0268" y1="81.1757" x2="61.036" y2="64.9436" gradientUnits="userSpaceOnUse">
<stop offset="0.5" stop-color="#FF6200"/>
<stop offset="1" stop-color="#FCAB51"/>
</linearGradient>
<linearGradient id="paint8_linear_188_92" x1="75.2311" y1="84.0592" x2="56.7137" y2="72.6416" gradientUnits="userSpaceOnUse">
<stop offset="0.5" stop-color="#FF6200"/>
<stop offset="1" stop-color="#FCAB51"/>
</linearGradient>
<linearGradient id="paint9_linear_188_92" x1="82.1787" y1="79.669" x2="64.5195" y2="91.8501" gradientUnits="userSpaceOnUse">
<stop offset="0.5" stop-color="#FF6200"/>
<stop offset="1" stop-color="#FCAB51"/>
</linearGradient>
<linearGradient id="paint10_linear_188_92" x1="87.2795" y1="98.9826" x2="87.2795" y2="51.0697" gradientUnits="userSpaceOnUse">
<stop stop-color="#FF9900"/>
<stop offset="1" stop-color="#FFC13D"/>
</linearGradient>
<linearGradient id="paint11_linear_188_92" x1="87.2722" y1="95.6821" x2="87.2722" y2="54.3728" gradientUnits="userSpaceOnUse">
<stop stop-color="#FF6200"/>
<stop offset="1" stop-color="#FF9900"/>
</linearGradient>
</defs>
</svg>
