<svg width="873" height="411" viewBox="0 0 873 411" fill="none" xmlns="http://www.w3.org/2000/svg">
<rect x="0.726316" y="0.726316" width="871.264" height="409.547" rx="34.8632" fill="#B0E6FF" stroke="#1E1E1E" stroke-width="1.45263"/>
<rect x="200.451" y="40.2137" width="623.117" height="71.5117" rx="11.7473" fill="white" stroke="#1E1E1E" stroke-width="1.46841"/>
<path d="M386.578 82.3933C384.914 82.3933 383.394 82.0013 382.018 81.2173C380.642 80.4333 379.562 79.3533 378.778 77.9773C377.994 76.6013 377.602 75.0813 377.602 73.4173C377.602 71.7533 377.994 70.2333 378.778 68.8573C379.562 67.4813 380.642 66.4013 382.018 65.6173C383.394 64.8333 384.914 64.4413 386.578 64.4413C387.874 64.4413 389.05 64.6813 390.106 65.1613C391.178 65.6413 392.122 66.3373 392.938 67.2493L391.018 69.0973C390.426 68.3933 389.77 67.8733 389.05 67.5373C388.33 67.1853 387.506 67.0093 386.578 67.0093C385.426 67.0093 384.37 67.2733 383.41 67.8013C382.466 68.3293 381.714 69.0813 381.154 70.0573C380.594 71.0173 380.314 72.1373 380.314 73.4173C380.314 74.6973 380.594 75.8253 381.154 76.8013C381.714 77.7613 382.466 78.5053 383.41 79.0333C384.37 79.5613 385.426 79.8253 386.578 79.8253C388.498 79.8253 390.13 79.0253 391.474 77.4253L393.418 79.2973C392.586 80.2733 391.586 81.0333 390.418 81.5773C389.25 82.1213 387.97 82.3933 386.578 82.3933ZM398.638 82.3933C397.758 82.3933 396.974 82.2253 396.286 81.8893C395.598 81.5373 395.062 81.0493 394.678 80.4253C394.294 79.7853 394.102 79.0653 394.102 78.2653C394.102 77.0013 394.574 76.0013 395.518 75.2653C396.478 74.5293 397.686 74.1613 399.142 74.1613C399.862 74.1613 400.51 74.2333 401.086 74.3773C401.662 74.5053 402.118 74.6493 402.454 74.8093V74.1853C402.454 73.4333 402.174 72.8253 401.614 72.3613C401.054 71.8813 400.334 71.6413 399.454 71.6413C398.83 71.6413 398.238 71.7773 397.678 72.0493C397.134 72.3213 396.694 72.6973 396.358 73.1773L394.51 71.7613C395.054 71.0093 395.758 70.4253 396.622 70.0093C397.486 69.5933 398.446 69.3853 399.502 69.3853C401.278 69.3853 402.646 69.8253 403.606 70.7053C404.566 71.5693 405.046 72.7933 405.046 74.3773V82.0093H402.454V80.5453H402.334C401.982 81.0733 401.486 81.5133 400.846 81.8653C400.206 82.2173 399.47 82.3933 398.638 82.3933ZM399.094 80.2093C399.734 80.2093 400.31 80.0573 400.822 79.7533C401.334 79.4493 401.734 79.0413 402.022 78.5293C402.31 78.0173 402.454 77.4653 402.454 76.8733C402.086 76.6653 401.654 76.4973 401.158 76.3693C400.678 76.2413 400.174 76.1773 399.646 76.1773C398.654 76.1773 397.926 76.3773 397.462 76.7773C396.998 77.1613 396.766 77.6653 396.766 78.2893C396.766 78.8493 396.982 79.3133 397.414 79.6813C397.846 80.0333 398.406 80.2093 399.094 80.2093ZM411.55 82.3933C410.142 82.3933 408.99 82.0893 408.094 81.4813C407.198 80.8573 406.566 80.0653 406.198 79.1053L408.55 78.0733C408.838 78.7133 409.238 79.2013 409.75 79.5373C410.278 79.8733 410.878 80.0413 411.55 80.0413C412.206 80.0413 412.758 79.9293 413.206 79.7053C413.654 79.4653 413.878 79.1133 413.878 78.6493C413.878 78.2013 413.686 77.8493 413.302 77.5933C412.918 77.3373 412.326 77.1133 411.526 76.9213L410.062 76.5613C409.086 76.3213 408.278 75.8973 407.638 75.2893C406.998 74.6813 406.678 73.9133 406.678 72.9853C406.678 72.2653 406.886 71.6333 407.302 71.0893C407.734 70.5453 408.31 70.1293 409.03 69.8413C409.75 69.5373 410.534 69.3853 411.382 69.3853C412.518 69.3853 413.518 69.6173 414.382 70.0813C415.246 70.5293 415.87 71.1853 416.254 72.0493L413.95 73.0573C413.486 72.1133 412.638 71.6413 411.406 71.6413C410.814 71.6413 410.318 71.7613 409.918 72.0013C409.518 72.2413 409.318 72.5533 409.318 72.9373C409.318 73.3053 409.47 73.6093 409.774 73.8493C410.078 74.0733 410.526 74.2653 411.118 74.4253L412.918 74.8813C414.118 75.1853 415.022 75.6493 415.63 76.2733C416.254 76.8813 416.566 77.6333 416.566 78.5293C416.566 79.2973 416.342 79.9773 415.894 80.5693C415.462 81.1453 414.862 81.5933 414.094 81.9133C413.326 82.2333 412.478 82.3933 411.55 82.3933ZM418.132 64.8253H420.772V69.5053L420.652 71.3773H420.772C421.124 70.8013 421.644 70.3293 422.332 69.9613C423.036 69.5773 423.788 69.3853 424.588 69.3853C426.076 69.3853 427.212 69.8253 427.996 70.7053C428.78 71.5693 429.172 72.7533 429.172 74.2573V82.0093H426.532V74.6173C426.532 73.6893 426.284 72.9933 425.788 72.5293C425.308 72.0653 424.676 71.8333 423.892 71.8333C423.3 71.8333 422.764 72.0013 422.284 72.3373C421.82 72.6733 421.452 73.1213 421.18 73.6813C420.908 74.2253 420.772 74.8093 420.772 75.4333V82.0093H418.132V64.8253ZM436.788 64.8253H442.74C443.748 64.8253 444.676 65.0493 445.524 65.4973C446.388 65.9453 447.068 66.5693 447.564 67.3693C448.076 68.1693 448.332 69.0733 448.332 70.0813C448.332 71.0893 448.076 71.9933 447.564 72.7933C447.068 73.5933 446.388 74.2173 445.524 74.6653C444.676 75.1133 443.748 75.3373 442.74 75.3373H439.476V82.0093H436.788V64.8253ZM442.788 72.7933C443.38 72.7933 443.892 72.6653 444.324 72.4093C444.756 72.1373 445.084 71.7933 445.308 71.3773C445.532 70.9613 445.644 70.5293 445.644 70.0813C445.644 69.6333 445.532 69.2013 445.308 68.7853C445.084 68.3693 444.756 68.0333 444.324 67.7773C443.892 67.5213 443.38 67.3933 442.788 67.3933H439.476V72.7933H442.788ZM449.909 69.7693H452.429V71.5693H452.549C452.821 70.9453 453.293 70.4333 453.965 70.0333C454.637 69.6173 455.349 69.4093 456.101 69.4093C456.693 69.4093 457.189 69.4893 457.589 69.6493V72.3853C456.885 72.1293 456.253 72.0013 455.693 72.0013C455.085 72.0013 454.541 72.1613 454.061 72.4813C453.597 72.8013 453.229 73.2333 452.957 73.7773C452.685 74.3053 452.549 74.8893 452.549 75.5293V82.0093H449.909V69.7693ZM460.404 67.9933C459.908 67.9933 459.484 67.8253 459.132 67.4893C458.796 67.1373 458.628 66.7133 458.628 66.2173C458.628 65.7213 458.796 65.3053 459.132 64.9693C459.484 64.6173 459.908 64.4413 460.404 64.4413C460.9 64.4413 461.316 64.6173 461.652 64.9693C462.004 65.3053 462.18 65.7213 462.18 66.2173C462.18 66.7133 462.004 67.1373 461.652 67.4893C461.316 67.8253 460.9 67.9933 460.404 67.9933ZM459.084 69.7693H461.724V82.0093H459.084V69.7693ZM463.666 79.8013L470.434 72.0973H463.858V69.7693H473.674V72.0013L466.906 79.7053H473.866V82.0093H463.666V79.8013ZM480.951 82.3933C479.751 82.3933 478.671 82.1133 477.711 81.5533C476.767 80.9933 476.023 80.2253 475.479 79.2493C474.951 78.2573 474.687 77.1453 474.687 75.9133C474.687 74.7453 474.943 73.6653 475.455 72.6733C475.983 71.6653 476.711 70.8653 477.639 70.2733C478.567 69.6813 479.623 69.3853 480.807 69.3853C482.039 69.3853 483.103 69.6573 483.999 70.2013C484.911 70.7453 485.599 71.4893 486.063 72.4333C486.543 73.3773 486.783 74.4413 486.783 75.6253C486.783 75.8493 486.759 76.1293 486.711 76.4653H477.327C477.423 77.6013 477.823 78.4813 478.527 79.1053C479.247 79.7133 480.079 80.0173 481.023 80.0173C481.775 80.0173 482.423 79.8493 482.967 79.5133C483.527 79.1613 483.975 78.6893 484.311 78.0973L486.543 79.1533C485.967 80.1613 485.215 80.9533 484.287 81.5293C483.359 82.1053 482.247 82.3933 480.951 82.3933ZM484.095 74.4493C484.063 74.0173 483.927 73.5933 483.687 73.1773C483.447 72.7453 483.079 72.3853 482.583 72.0973C482.103 71.8093 481.511 71.6653 480.807 71.6653C479.959 71.6653 479.239 71.9213 478.647 72.4333C478.071 72.9293 477.671 73.6013 477.447 74.4493H484.095ZM492.004 69.7693H494.86L497.332 78.5293H497.428L500.188 69.7693H502.9L505.636 78.5293H505.732L508.204 69.7693H511.012L507.1 82.0093H504.316L501.508 73.2253H501.436L498.652 82.0093H495.916L492.004 69.7693ZM517.489 82.3933C516.257 82.3933 515.153 82.1133 514.177 81.5533C513.201 80.9773 512.441 80.1933 511.897 79.2013C511.353 78.2093 511.081 77.1053 511.081 75.8893C511.081 74.6733 511.353 73.5693 511.897 72.5773C512.441 71.5853 513.201 70.8093 514.177 70.2493C515.153 69.6733 516.257 69.3853 517.489 69.3853C518.721 69.3853 519.825 69.6733 520.801 70.2493C521.777 70.8253 522.537 71.6093 523.081 72.6013C523.625 73.5933 523.897 74.6893 523.897 75.8893C523.897 77.1053 523.625 78.2093 523.081 79.2013C522.537 80.1933 521.777 80.9773 520.801 81.5533C519.825 82.1133 518.721 82.3933 517.489 82.3933ZM517.489 79.9693C518.161 79.9693 518.785 79.8093 519.361 79.4893C519.937 79.1533 520.393 78.6813 520.729 78.0733C521.081 77.4493 521.257 76.7213 521.257 75.8893C521.257 75.0573 521.081 74.3373 520.729 73.7293C520.393 73.1213 519.937 72.6573 519.361 72.3373C518.785 72.0013 518.161 71.8333 517.489 71.8333C516.817 71.8333 516.193 72.0013 515.617 72.3373C515.041 72.6573 514.577 73.1213 514.225 73.7293C513.889 74.3373 513.721 75.0573 513.721 75.8893C513.721 76.7213 513.889 77.4493 514.225 78.0733C514.577 78.6813 515.041 79.1533 515.617 79.4893C516.193 79.8093 516.817 79.9693 517.489 79.9693ZM525.377 69.7693H527.897V71.5693H528.017C528.337 70.9133 528.833 70.3933 529.505 70.0093C530.193 69.6253 530.937 69.4333 531.737 69.4333C532.185 69.4333 532.513 69.4653 532.721 69.5293V72.1933C532.321 72.0813 531.897 72.0253 531.449 72.0253C530.409 72.0253 529.577 72.3533 528.953 73.0093C528.329 73.6653 528.017 74.5293 528.017 75.6013V82.0093H525.377V69.7693ZM540.233 82.2013C539.689 82.2013 539.177 82.1133 538.697 81.9373C538.217 81.7613 537.825 81.5293 537.521 81.2413C536.833 80.5533 536.489 79.6173 536.489 78.4333V72.0973H534.353V69.7693H536.489V66.3133H539.129V69.7693H542.105V72.0973H539.129V77.8573C539.129 78.5133 539.257 78.9773 539.513 79.2493C539.753 79.5693 540.169 79.7293 540.761 79.7293C541.033 79.7293 541.273 79.6973 541.481 79.6333C541.689 79.5533 541.913 79.4333 542.153 79.2733V81.8413C541.625 82.0813 540.985 82.2013 540.233 82.2013ZM544.017 64.8253H546.657V69.5053L546.537 71.3773H546.657C547.009 70.8013 547.529 70.3293 548.217 69.9613C548.921 69.5773 549.673 69.3853 550.473 69.3853C551.961 69.3853 553.097 69.8253 553.881 70.7053C554.665 71.5693 555.057 72.7533 555.057 74.2573V82.0093H552.417V74.6173C552.417 73.6893 552.169 72.9933 551.673 72.5293C551.193 72.0653 550.561 71.8333 549.777 71.8333C549.185 71.8333 548.649 72.0013 548.169 72.3373C547.705 72.6733 547.337 73.1213 547.065 73.6813C546.793 74.2253 546.657 74.8093 546.657 75.4333V82.0093H544.017V64.8253ZM571.193 67.4173C571.769 68.0413 572.137 68.7613 572.297 69.5773H573.833V71.4013H572.321C572.113 72.5853 571.537 73.5613 570.593 74.3293C569.665 75.0813 568.585 75.4813 567.353 75.5293H567.017L566.969 75.6493L573.089 81.8653V82.0093H569.513L563.393 75.6733V73.1533H567.041C567.665 73.1533 568.217 73.0013 568.697 72.6973C569.177 72.3773 569.513 71.9453 569.705 71.4013H561.353V69.5773H569.681C569.505 69.0653 569.193 68.6493 568.745 68.3293C568.297 67.9933 567.761 67.8253 567.137 67.8253H561.353V65.5933H573.833V67.4173H571.193ZM578.878 69.1693L576.19 71.1133L574.846 69.0733L579.67 65.5933H581.518V82.0093H578.878V69.1693ZM590.857 82.3933C589.513 82.3933 588.329 82.0173 587.305 81.2653C586.281 80.4973 585.489 79.4653 584.929 78.1693C584.385 76.8573 584.113 75.4013 584.113 73.8013C584.113 72.1853 584.385 70.7293 584.929 69.4333C585.489 68.1213 586.281 67.0893 587.305 66.3373C588.329 65.5853 589.513 65.2093 590.857 65.2093C592.201 65.2093 593.377 65.5853 594.385 66.3373C595.409 67.0893 596.193 68.1213 596.737 69.4333C597.297 70.7293 597.577 72.1853 597.577 73.8013C597.577 75.4013 597.297 76.8573 596.737 78.1693C596.193 79.4653 595.409 80.4973 594.385 81.2653C593.361 82.0173 592.185 82.3933 590.857 82.3933ZM590.857 79.8973C591.673 79.8973 592.385 79.6333 592.993 79.1053C593.617 78.5613 594.089 77.8333 594.409 76.9213C594.745 75.9933 594.913 74.9533 594.913 73.8013C594.913 72.6493 594.745 71.6093 594.409 70.6813C594.089 69.7533 593.617 69.0253 592.993 68.4973C592.385 67.9693 591.673 67.7053 590.857 67.7053C590.025 67.7053 589.305 67.9693 588.697 68.4973C588.089 69.0253 587.617 69.7533 587.281 70.6813C586.961 71.6093 586.801 72.6493 586.801 73.8013C586.801 74.9533 586.961 75.9933 587.281 76.9213C587.617 77.8333 588.089 78.5613 588.697 79.1053C589.305 79.6333 590.025 79.8973 590.857 79.8973ZM599.332 84.0733L600.7 81.9853C600.364 81.8893 600.068 81.6893 599.812 81.3853C599.572 81.0813 599.452 80.7213 599.452 80.3053C599.452 79.7933 599.628 79.3613 599.98 79.0093C600.348 78.6573 600.788 78.4813 601.3 78.4813C601.812 78.4813 602.244 78.6573 602.596 79.0093C602.964 79.3613 603.148 79.7933 603.148 80.3053C603.148 80.5933 603.092 80.8653 602.98 81.1213C602.868 81.3773 602.7 81.6733 602.476 82.0093L600.556 84.8653L599.332 84.0733ZM611.706 82.3933C610.362 82.3933 609.178 82.0173 608.154 81.2653C607.13 80.4973 606.338 79.4653 605.778 78.1693C605.234 76.8573 604.962 75.4013 604.962 73.8013C604.962 72.1853 605.234 70.7293 605.778 69.4333C606.338 68.1213 607.13 67.0893 608.154 66.3373C609.178 65.5853 610.362 65.2093 611.706 65.2093C613.05 65.2093 614.226 65.5853 615.234 66.3373C616.258 67.0893 617.042 68.1213 617.586 69.4333C618.146 70.7293 618.426 72.1853 618.426 73.8013C618.426 75.4013 618.146 76.8573 617.586 78.1693C617.042 79.4653 616.258 80.4973 615.234 81.2653C614.21 82.0173 613.034 82.3933 611.706 82.3933ZM611.706 79.8973C612.522 79.8973 613.234 79.6333 613.842 79.1053C614.466 78.5613 614.938 77.8333 615.258 76.9213C615.594 75.9933 615.762 74.9533 615.762 73.8013C615.762 72.6493 615.594 71.6093 615.258 70.6813C614.938 69.7533 614.466 69.0253 613.842 68.4973C613.234 67.9693 612.522 67.7053 611.706 67.7053C610.874 67.7053 610.154 67.9693 609.546 68.4973C608.938 69.0253 608.466 69.7533 608.13 70.6813C607.81 71.6093 607.65 72.6493 607.65 73.8013C607.65 74.9533 607.81 75.9933 608.13 76.9213C608.466 77.8333 608.938 78.5613 609.546 79.1053C610.154 79.6333 610.874 79.8973 611.706 79.8973ZM626.877 82.3933C625.533 82.3933 624.349 82.0173 623.325 81.2653C622.301 80.4973 621.509 79.4653 620.949 78.1693C620.405 76.8573 620.133 75.4013 620.133 73.8013C620.133 72.1853 620.405 70.7293 620.949 69.4333C621.509 68.1213 622.301 67.0893 623.325 66.3373C624.349 65.5853 625.533 65.2093 626.877 65.2093C628.221 65.2093 629.397 65.5853 630.405 66.3373C631.429 67.0893 632.213 68.1213 632.757 69.4333C633.317 70.7293 633.597 72.1853 633.597 73.8013C633.597 75.4013 633.317 76.8573 632.757 78.1693C632.213 79.4653 631.429 80.4973 630.405 81.2653C629.381 82.0173 628.205 82.3933 626.877 82.3933ZM626.877 79.8973C627.693 79.8973 628.405 79.6333 629.013 79.1053C629.637 78.5613 630.109 77.8333 630.429 76.9213C630.765 75.9933 630.933 74.9533 630.933 73.8013C630.933 72.6493 630.765 71.6093 630.429 70.6813C630.109 69.7533 629.637 69.0253 629.013 68.4973C628.405 67.9693 627.693 67.7053 626.877 67.7053C626.045 67.7053 625.325 67.9693 624.717 68.4973C624.109 69.0253 623.637 69.7533 623.301 70.6813C622.981 71.6093 622.821 72.6493 622.821 73.8013C622.821 74.9533 622.981 75.9933 623.301 76.9213C623.637 77.8333 624.109 78.5613 624.717 79.1053C625.325 79.6333 626.045 79.8973 626.877 79.8973ZM635.351 84.0733L636.719 81.9853C636.383 81.8893 636.087 81.6893 635.831 81.3853C635.591 81.0813 635.471 80.7213 635.471 80.3053C635.471 79.7933 635.647 79.3613 635.999 79.0093C636.367 78.6573 636.807 78.4813 637.319 78.4813C637.831 78.4813 638.263 78.6573 638.615 79.0093C638.983 79.3613 639.167 79.7933 639.167 80.3053C639.167 80.5933 639.111 80.8653 638.999 81.1213C638.887 81.3773 638.719 81.6733 638.495 82.0093L636.575 84.8653L635.351 84.0733ZM647.726 82.3933C646.382 82.3933 645.198 82.0173 644.174 81.2653C643.15 80.4973 642.358 79.4653 641.798 78.1693C641.254 76.8573 640.982 75.4013 640.982 73.8013C640.982 72.1853 641.254 70.7293 641.798 69.4333C642.358 68.1213 643.15 67.0893 644.174 66.3373C645.198 65.5853 646.382 65.2093 647.726 65.2093C649.07 65.2093 650.246 65.5853 651.254 66.3373C652.278 67.0893 653.062 68.1213 653.606 69.4333C654.166 70.7293 654.446 72.1853 654.446 73.8013C654.446 75.4013 654.166 76.8573 653.606 78.1693C653.062 79.4653 652.278 80.4973 651.254 81.2653C650.23 82.0173 649.054 82.3933 647.726 82.3933ZM647.726 79.8973C648.542 79.8973 649.254 79.6333 649.862 79.1053C650.486 78.5613 650.958 77.8333 651.278 76.9213C651.614 75.9933 651.782 74.9533 651.782 73.8013C651.782 72.6493 651.614 71.6093 651.278 70.6813C650.958 69.7533 650.486 69.0253 649.862 68.4973C649.254 67.9693 648.542 67.7053 647.726 67.7053C646.894 67.7053 646.174 67.9693 645.566 68.4973C644.958 69.0253 644.486 69.7533 644.15 70.6813C643.83 71.6093 643.67 72.6493 643.67 73.8013C643.67 74.9533 643.83 75.9933 644.15 76.9213C644.486 77.8333 644.958 78.5613 645.566 79.1053C646.174 79.6333 646.894 79.8973 647.726 79.8973ZM662.896 82.3933C661.552 82.3933 660.368 82.0173 659.344 81.2653C658.32 80.4973 657.528 79.4653 656.968 78.1693C656.424 76.8573 656.152 75.4013 656.152 73.8013C656.152 72.1853 656.424 70.7293 656.968 69.4333C657.528 68.1213 658.32 67.0893 659.344 66.3373C660.368 65.5853 661.552 65.2093 662.896 65.2093C664.24 65.2093 665.416 65.5853 666.424 66.3373C667.448 67.0893 668.232 68.1213 668.776 69.4333C669.336 70.7293 669.616 72.1853 669.616 73.8013C669.616 75.4013 669.336 76.8573 668.776 78.1693C668.232 79.4653 667.448 80.4973 666.424 81.2653C665.4 82.0173 664.224 82.3933 662.896 82.3933ZM662.896 79.8973C663.712 79.8973 664.424 79.6333 665.032 79.1053C665.656 78.5613 666.128 77.8333 666.448 76.9213C666.784 75.9933 666.952 74.9533 666.952 73.8013C666.952 72.6493 666.784 71.6093 666.448 70.6813C666.128 69.7533 665.656 69.0253 665.032 68.4973C664.424 67.9693 663.712 67.7053 662.896 67.7053C662.064 67.7053 661.344 67.9693 660.736 68.4973C660.128 69.0253 659.656 69.7533 659.32 70.6813C659 71.6093 658.84 72.6493 658.84 73.8013C658.84 74.9533 659 75.9933 659.32 76.9213C659.656 77.8333 660.128 78.5613 660.736 79.1053C661.344 79.6333 662.064 79.8973 662.896 79.8973ZM678.067 82.3933C676.723 82.3933 675.539 82.0173 674.515 81.2653C673.491 80.4973 672.699 79.4653 672.139 78.1693C671.595 76.8573 671.323 75.4013 671.323 73.8013C671.323 72.1853 671.595 70.7293 672.139 69.4333C672.699 68.1213 673.491 67.0893 674.515 66.3373C675.539 65.5853 676.723 65.2093 678.067 65.2093C679.411 65.2093 680.587 65.5853 681.595 66.3373C682.619 67.0893 683.403 68.1213 683.947 69.4333C684.507 70.7293 684.787 72.1853 684.787 73.8013C684.787 75.4013 684.507 76.8573 683.947 78.1693C683.403 79.4653 682.619 80.4973 681.595 81.2653C680.571 82.0173 679.395 82.3933 678.067 82.3933ZM678.067 79.8973C678.883 79.8973 679.595 79.6333 680.203 79.1053C680.827 78.5613 681.299 77.8333 681.619 76.9213C681.955 75.9933 682.123 74.9533 682.123 73.8013C682.123 72.6493 681.955 71.6093 681.619 70.6813C681.299 69.7533 680.827 69.0253 680.203 68.4973C679.595 67.9693 678.883 67.7053 678.067 67.7053C677.235 67.7053 676.515 67.9693 675.907 68.4973C675.299 69.0253 674.827 69.7533 674.491 70.6813C674.171 71.6093 674.011 72.6493 674.011 73.8013C674.011 74.9533 674.171 75.9933 674.491 76.9213C674.827 77.8333 675.299 78.5613 675.907 79.1053C676.515 79.6333 677.235 79.8973 678.067 79.8973ZM693.166 64.8253H695.71L688.582 82.0093H686.038L693.166 64.8253ZM697.242 73.4413H705.138V75.6973H697.242V73.4413Z" fill="#1E1E1E"/>
<path d="M346.485 60.8147C346.51 59.712 346.465 59.015 346.465 59.015L334.967 59.0093H334.851L323.347 59.015C323.347 59.015 323.304 59.712 323.329 60.8147H315.717V61.9924C315.717 62.2606 315.765 68.6018 319.94 72.0752C321.755 73.5481 324.056 74.3225 326.412 74.2536C326.804 74.2536 327.196 74.2296 327.6 74.1959C328.856 75.9278 330.603 77.2589 332.625 78.0231V83.1953H327.078V86.4302H325.245V88.2472H344.579V86.4302H342.739V83.1904H337.189V78.0241C339.211 77.2595 340.959 75.9285 342.214 74.1969C342.62 74.2296 343.018 74.2527 343.406 74.2527C345.762 74.3213 348.063 73.5466 349.878 72.0732C354.052 68.5998 354.101 62.2596 354.101 61.9905V60.8147H346.485ZM321.615 70.3188C319.23 68.3412 318.529 64.9515 318.316 63.1701H323.477C323.682 65.7351 324.33 68.2474 325.394 70.5995C325.611 71.0455 325.839 71.4695 326.073 71.8839C324.448 71.8766 322.875 71.3243 321.615 70.3188ZM348.204 70.3188C346.945 71.3251 345.371 71.8775 343.746 71.8839C343.979 71.4705 344.208 71.0455 344.425 70.5995C345.489 68.2475 346.136 65.7351 346.34 63.1701H351.501C351.293 64.9534 350.59 68.3393 348.204 70.3188Z" fill="#1E1E1E"/>
<rect x="197.404" y="136.231" width="626.391" height="235.459" rx="27.2816" fill="white" stroke="#1E1E1E" stroke-width="2.00785"/>
<path d="M79.8352 236.039C79.7776 232.35 79.7683 228.66 79.8067 224.97C79.8113 223.249 79.8397 221.509 79.7828 219.79C79.759 219.071 79.5478 219.076 79.2301 218.528C79.5562 218.209 82.0257 218.099 82.615 218.098C94.427 218.078 106.272 218.085 118.083 218.086L190.626 217.999C190.691 217.999 190.757 218 190.822 218.003C190.931 223.492 191.1 230.46 190.863 235.906C192.398 235.92 193.953 235.85 195.468 235.915C209.637 236.518 222.999 245.963 226.533 259.669C226.795 260.68 227.388 263.603 227.92 264.362V274.021C226.818 275.872 226.111 280.863 224.902 283.293C218.321 296.521 205.053 303.541 190.214 301.893C187.629 312.044 182.71 319.248 173.5 324.704C163.211 330.801 156.531 328.87 145.482 329.316C145.61 332.267 145.634 335.402 145.576 338.359C145.48 343.228 145.774 348.287 145.53 353.128C148.192 353.089 150.853 353.062 153.514 353.052C158.799 353.029 163.45 352.82 167.528 356.685C171.652 360.594 171.418 365.511 171.236 370.667L208.527 370.718C212.882 370.718 217.26 370.805 221.609 370.598C222.073 370.576 222.593 370.713 223.005 370.927C223.946 372.173 222.682 372.584 221.594 372.568C219.151 372.533 216.708 372.463 214.267 372.454L194.616 372.443L106.265 372.352C101.967 372.356 73.1619 372.795 71.9238 372.308C71.5728 372.17 71.3519 371.976 71.1206 371.69L71.0453 371.298C71.6688 370.675 72.5725 370.663 73.4628 370.667C82.0776 370.693 90.8308 370.825 99.4344 370.667C99.6668 365.036 98.3543 361.068 103.174 356.636C107.346 352.799 112.137 352.982 117.467 353.039C119.763 353.062 122.379 352.965 124.666 353.066C124.774 353.07 124.883 353.077 124.992 353.084C124.875 345.284 124.975 337.094 124.981 329.261C114.691 329.258 106.259 330.322 96.9936 324.642C87.7974 319.004 83.0675 312.22 80.4014 301.973C74.5134 302.11 70.7814 302.439 64.9533 300.355C54.4314 296.591 45.7148 287.805 43.5234 276.866C43.4068 276.269 43.1818 275.326 42.8203 274.842V263.031C43.1621 262.597 44.7117 257.052 45.3354 255.714C51.9115 241.609 64.4892 235.444 79.8352 236.039ZM57.2461 294.044C61.5358 297.534 68.9051 299.982 74.4651 300.24C76.2376 300.322 78.5909 300.093 80.0649 300.232C79.6908 294.96 79.7971 289.672 79.7974 284.385L79.8011 262.4L79.7956 246.768C79.7929 244.441 79.6611 240.333 79.895 238.196C77.313 237.961 76.9163 237.678 74.1866 237.934C49.8162 240.084 36.3541 265.898 49.6347 286.082C51.2162 288.485 53.497 291.079 55.7498 292.901C56.2405 293.292 56.7394 293.673 57.2461 294.044ZM190.565 300.1C191.666 300.113 192.703 300.26 193.781 300.287C201.506 300.481 210.315 297.33 215.835 292.06L215.91 291.987C236.995 271.862 223.783 239.114 194.666 237.819C194.174 237.797 193.218 237.811 192.741 237.892L190.863 238.222C191.139 251.298 190.921 265 190.927 278.125L190.934 290.409C190.938 293.173 191.018 297.455 190.565 300.1Z" fill="black"/>
<path d="M81.5621 219.944L188.992 219.93L188.996 292.552C188.952 306.354 183.991 316.546 171.479 323.537C162.215 328.712 153.747 327.686 143.645 327.641C143.837 330.162 143.701 334.397 143.699 337.017L143.703 355.052C149.01 354.904 159.519 354.144 163.934 356.486C169.946 360.52 169.616 364.128 169.627 370.534C147.03 370.818 123.789 370.583 101.151 370.557C101.127 369.596 101.111 368.634 101.104 367.674C101.067 352.069 115.732 354.978 126.807 354.942C126.548 351.929 126.691 345.769 126.707 342.544C126.73 338.073 126.524 332.001 126.817 327.674L119.323 327.678C116.636 327.676 113.686 327.791 111.034 327.434C97.0075 325.543 85.6073 315.511 82.3648 301.963C81.2589 297.342 81.5461 292.122 81.55 287.355L81.556 272.906L81.5621 219.944Z" fill="#FFD427"/>
<path d="M135.258 238.138C136.069 238.955 144.527 256.497 145.462 258.523C146.207 258.611 147.005 258.733 147.749 258.852C154.643 259.949 161.596 260.628 168.481 261.777C164.011 265.228 160.052 270.01 155.748 273.728C154.396 274.897 153.227 276.342 151.794 277.459C152.718 283.365 153.757 289.222 154.842 295.103C155.128 296.655 155.351 298.21 155.807 299.725C154.449 299.247 152.083 297.881 150.682 297.188C145.496 294.623 140.362 291.957 135.283 289.191C135.519 289.16 116.642 298.855 114.815 299.747C115.248 298.274 115.554 295.747 115.863 294.132C116.915 288.637 117.771 283.099 118.77 277.589C115.46 274.201 112.04 270.971 108.564 267.754C106.395 265.748 104.681 263.578 102.197 261.786C103.804 261.581 105.581 261.129 107.154 261.009C112.925 260.565 119.353 258.988 125.034 258.576C127.847 252.027 132.36 244.899 135.258 238.138Z" fill="black"/>
<path d="M135.275 242.407C136.064 243.282 138.896 249.72 139.845 251.317C141.364 253.874 142.894 257.527 144.255 260.246C144.858 260.378 145.417 260.451 146.032 260.507C152.089 261.061 158.219 262.329 164.26 262.885C163.469 263.51 162.825 264.249 162.102 264.941C158.041 268.833 153.874 273.055 149.73 276.827C150.273 278.704 150.41 280.533 150.765 282.431C151.634 287.073 152.222 291.784 153.039 296.427C148.901 294.117 144.636 292.017 140.472 289.744C138.8 288.832 136.968 288.048 135.329 287.086C129.598 290.014 123.003 293.795 117.339 296.395C118.856 290.705 119.361 282.808 120.96 276.848C118.561 274.822 116.472 272.613 114.207 270.443C111.567 267.914 108.923 265.524 106.393 262.891C113.009 262.121 119.478 261.006 126.145 260.365C127.112 258.926 127.851 256.987 128.711 255.466C131.13 251.189 133.059 246.747 135.275 242.407Z" fill="white"/>
<path d="M185.618 174.608C186.289 174.708 186.561 175.08 186.722 175.698C186.594 176.416 186.569 176.347 186.007 176.951C184.139 178.956 182.182 180.904 180.283 182.883L171.957 191.708C171.071 192.637 168.954 195.377 168.297 195.926C168.097 195.804 167.899 195.679 167.705 195.549C167.149 195.173 167.061 195.038 166.959 194.481C167.884 193.207 172.086 188.942 173.368 187.558L180.391 180.061C182.019 178.302 183.841 176.168 185.618 174.608Z" fill="black"/>
<path d="M84.7595 174.812C85.8291 174.917 88.6352 178.476 89.493 179.387L98.2924 188.768C99.4159 189.962 103.129 193.444 103.646 194.644C103.483 195.307 103.434 195.191 102.888 195.755C102.322 195.67 101.98 195.444 101.603 195.031C98.087 191.191 94.3421 187.391 90.8901 183.519C89.3111 181.747 84.8524 177.655 83.9043 175.788C84.0706 175.209 84.1863 175.275 84.7595 174.812Z" fill="black"/>
<path d="M134.766 151.673H135.892C136.341 153.804 136.146 194.286 135.904 195.059L135.517 195.223C135.384 195.19 135.045 195.135 134.996 195.052C134.452 194.143 134.721 191.131 134.721 190.127L134.716 179.687C134.711 170.511 134.563 160.796 134.766 151.673Z" fill="black"/>
<path d="M306.723 271.886H308.227L310.307 280.302L310.499 281.085H310.563L310.803 280.302L313.363 271.886H314.771L317.218 280.302L317.458 281.085H317.522L319.778 271.886H321.282L318.194 283.341H316.786L314.355 275.054L314.099 274.158H314.035L313.763 275.054L311.235 283.341H309.827L306.723 271.886ZM322.575 273.678C322.308 273.678 322.079 273.582 321.887 273.39C321.695 273.198 321.599 272.969 321.599 272.702C321.599 272.435 321.695 272.211 321.887 272.03C322.079 271.838 322.308 271.742 322.575 271.742C322.842 271.742 323.071 271.838 323.263 272.03C323.455 272.211 323.551 272.435 323.551 272.702C323.551 272.969 323.455 273.198 323.263 273.39C323.082 273.582 322.852 273.678 322.575 273.678ZM321.903 275.182H323.247V283.341H321.903V275.182ZM324.904 275.182H326.2V276.382H326.264C326.488 275.976 326.845 275.635 327.336 275.358C327.827 275.07 328.349 274.926 328.904 274.926C329.885 274.926 330.632 275.214 331.144 275.79C331.666 276.355 331.928 277.128 331.928 278.11V283.341H330.568V278.318C330.568 277.56 330.386 277.011 330.024 276.67C329.661 276.328 329.165 276.158 328.536 276.158C328.099 276.158 327.704 276.28 327.352 276.526C327.011 276.771 326.744 277.096 326.552 277.502C326.36 277.896 326.264 278.312 326.264 278.75V283.341H324.904V275.182ZM333.392 275.182H334.688V276.382H334.752C334.976 275.976 335.334 275.635 335.824 275.358C336.315 275.07 336.837 274.926 337.392 274.926C338.373 274.926 339.12 275.214 339.632 275.79C340.155 276.355 340.416 277.128 340.416 278.11V283.341H339.056V278.318C339.056 277.56 338.875 277.011 338.512 276.67C338.149 276.328 337.653 276.158 337.024 276.158C336.587 276.158 336.192 276.28 335.84 276.526C335.499 276.771 335.232 277.096 335.04 277.502C334.848 277.896 334.752 278.312 334.752 278.75V283.341H333.392V275.182ZM345.512 283.597C344.734 283.597 344.035 283.411 343.416 283.037C342.798 282.664 342.312 282.152 341.96 281.501C341.619 280.84 341.449 280.099 341.449 279.278C341.449 278.488 341.608 277.763 341.928 277.102C342.259 276.44 342.723 275.912 343.32 275.518C343.918 275.123 344.611 274.926 345.4 274.926C346.2 274.926 346.893 275.107 347.48 275.47C348.067 275.822 348.515 276.312 348.824 276.942C349.144 277.571 349.304 278.291 349.304 279.102C349.304 279.262 349.288 279.4 349.256 279.518H342.808C342.84 280.136 342.99 280.659 343.256 281.085C343.523 281.512 343.859 281.832 344.264 282.045C344.68 282.259 345.112 282.365 345.56 282.365C346.605 282.365 347.411 281.875 347.976 280.893L349.128 281.453C348.776 282.115 348.296 282.637 347.688 283.021C347.091 283.405 346.365 283.597 345.512 283.597ZM347.864 278.398C347.843 278.056 347.747 277.715 347.576 277.374C347.405 277.032 347.133 276.744 346.76 276.51C346.397 276.275 345.939 276.158 345.384 276.158C344.744 276.158 344.2 276.366 343.752 276.782C343.315 277.187 343.027 277.726 342.888 278.398H347.864ZM350.416 275.182H351.711V276.494H351.775C351.935 276.046 352.245 275.678 352.703 275.39C353.162 275.091 353.642 274.942 354.143 274.942C354.517 274.942 354.837 274.995 355.103 275.102V276.574C354.762 276.403 354.378 276.318 353.951 276.318C353.557 276.318 353.194 276.43 352.863 276.654C352.533 276.878 352.266 277.182 352.063 277.566C351.871 277.939 351.775 278.344 351.775 278.782V283.341H350.416V275.182ZM358.47 283.597C357.596 283.597 356.865 283.395 356.279 282.989C355.692 282.573 355.276 282.045 355.031 281.405L356.247 280.861C356.449 281.352 356.748 281.731 357.143 281.997C357.548 282.264 357.99 282.397 358.47 282.397C358.982 282.397 359.42 282.296 359.782 282.093C360.145 281.88 360.326 281.581 360.326 281.197C360.326 280.856 360.182 280.584 359.894 280.382C359.606 280.168 359.153 279.987 358.534 279.838L357.543 279.582C356.892 279.422 356.359 279.15 355.943 278.766C355.527 278.382 355.319 277.886 355.319 277.278C355.319 276.808 355.457 276.398 355.735 276.046C356.023 275.683 356.401 275.406 356.871 275.214C357.34 275.022 357.846 274.926 358.39 274.926C359.105 274.926 359.74 275.081 360.294 275.39C360.86 275.699 361.26 276.131 361.494 276.686L360.31 277.23C359.948 276.504 359.302 276.142 358.374 276.142C357.926 276.142 357.532 276.248 357.191 276.462C356.86 276.664 356.695 276.926 356.695 277.246C356.695 277.544 356.812 277.79 357.047 277.982C357.281 278.163 357.633 278.312 358.102 278.43L359.286 278.734C360.086 278.936 360.689 279.24 361.094 279.646C361.5 280.04 361.702 280.526 361.702 281.101C361.702 281.603 361.558 282.045 361.27 282.429C360.982 282.803 360.593 283.091 360.102 283.293C359.612 283.496 359.068 283.597 358.47 283.597Z" fill="#1E1E1E"/>
<path d="M468.816 274.942L466.897 276.317L466.193 275.278L469.312 273.038H470.176V283.981H468.816V274.942ZM474.926 284.237C474.052 284.237 473.321 284.034 472.734 283.629C472.148 283.213 471.732 282.685 471.486 282.045L472.702 281.501C472.905 281.992 473.204 282.37 473.598 282.637C474.004 282.904 474.446 283.037 474.926 283.037C475.438 283.037 475.875 282.936 476.238 282.733C476.601 282.52 476.782 282.221 476.782 281.837C476.782 281.496 476.638 281.224 476.35 281.021C476.062 280.808 475.609 280.627 474.99 280.477L473.998 280.221C473.348 280.061 472.814 279.789 472.398 279.405C471.982 279.021 471.774 278.525 471.774 277.917C471.774 277.448 471.913 277.037 472.19 276.685C472.478 276.323 472.857 276.046 473.326 275.854C473.796 275.662 474.302 275.566 474.846 275.566C475.561 275.566 476.195 275.72 476.75 276.03C477.315 276.339 477.715 276.771 477.95 277.325L476.766 277.869C476.403 277.144 475.758 276.781 474.83 276.781C474.382 276.781 473.988 276.888 473.646 277.101C473.316 277.304 473.15 277.565 473.15 277.885C473.15 278.184 473.268 278.429 473.502 278.621C473.737 278.803 474.089 278.952 474.558 279.069L475.742 279.373C476.542 279.576 477.145 279.88 477.55 280.285C477.955 280.68 478.158 281.165 478.158 281.741C478.158 282.242 478.014 282.685 477.726 283.069C477.438 283.442 477.049 283.73 476.558 283.933C476.067 284.136 475.523 284.237 474.926 284.237ZM482.218 284.109C481.887 284.109 481.578 284.056 481.29 283.949C481.013 283.842 480.778 283.698 480.586 283.517C480.373 283.314 480.213 283.08 480.106 282.813C479.999 282.546 479.946 282.221 479.946 281.837V277.053H478.522V275.822H479.946V273.518H481.306V275.822H483.29V277.053H481.306V281.501C481.306 281.949 481.391 282.28 481.562 282.493C481.765 282.728 482.058 282.845 482.442 282.845C482.751 282.845 483.05 282.754 483.338 282.573V283.901C483.178 283.976 483.013 284.029 482.842 284.061C482.682 284.093 482.474 284.109 482.218 284.109ZM487.972 272.526H491.843C492.473 272.526 493.059 272.67 493.603 272.958C494.147 273.246 494.579 273.651 494.899 274.174C495.23 274.686 495.395 275.267 495.395 275.918C495.395 276.451 495.273 276.947 495.027 277.405C494.793 277.864 494.462 278.248 494.035 278.557C493.619 278.867 493.155 279.075 492.643 279.181L492.611 279.229L495.843 283.917V283.981H494.243L491.124 279.309H489.316V283.981H487.972V272.526ZM491.763 278.045C492.158 278.045 492.526 277.955 492.867 277.773C493.219 277.592 493.497 277.341 493.699 277.021C493.913 276.691 494.019 276.323 494.019 275.918C494.019 275.566 493.929 275.23 493.747 274.91C493.566 274.59 493.31 274.328 492.979 274.126C492.659 273.923 492.286 273.822 491.859 273.822H489.316V278.045H491.763ZM499.398 284.237C498.416 284.237 497.664 283.949 497.142 283.373C496.63 282.797 496.374 281.992 496.374 280.957V275.822H497.734V280.749C497.734 281.528 497.91 282.098 498.262 282.461C498.614 282.824 499.088 283.005 499.686 283.005C500.144 283.005 500.55 282.882 500.902 282.637C501.264 282.392 501.542 282.072 501.734 281.677C501.936 281.282 502.038 280.867 502.038 280.429V275.822H503.397V283.981H502.101V282.797H502.038C501.814 283.202 501.456 283.544 500.966 283.821C500.475 284.098 499.952 284.237 499.398 284.237ZM504.926 275.822H506.222V277.021H506.286C506.51 276.616 506.867 276.275 507.358 275.998C507.849 275.71 508.371 275.566 508.926 275.566C509.907 275.566 510.654 275.854 511.166 276.429C511.688 276.995 511.95 277.768 511.95 278.749V283.981H510.59V278.957C510.59 278.2 510.408 277.651 510.046 277.309C509.683 276.968 509.187 276.797 508.558 276.797C508.121 276.797 507.726 276.92 507.374 277.165C507.033 277.411 506.766 277.736 506.574 278.141C506.382 278.536 506.286 278.952 506.286 279.389V283.981H504.926V275.822ZM513.414 275.822H514.71V277.021H514.774C514.998 276.616 515.355 276.275 515.846 275.998C516.337 275.71 516.859 275.566 517.414 275.566C518.395 275.566 519.142 275.854 519.654 276.429C520.176 276.995 520.438 277.768 520.438 278.749V283.981H519.078V278.957C519.078 278.2 518.897 277.651 518.534 277.309C518.171 276.968 517.675 276.797 517.046 276.797C516.609 276.797 516.214 276.92 515.862 277.165C515.521 277.411 515.254 277.736 515.062 278.141C514.87 278.536 514.774 278.952 514.774 279.389V283.981H513.414V275.822ZM525.534 284.237C524.756 284.237 524.057 284.05 523.438 283.677C522.82 283.304 522.334 282.792 521.982 282.141C521.641 281.48 521.47 280.739 521.47 279.917C521.47 279.128 521.63 278.403 521.95 277.741C522.281 277.08 522.745 276.552 523.342 276.157C523.94 275.763 524.633 275.566 525.422 275.566C526.222 275.566 526.915 275.747 527.502 276.11C528.089 276.461 528.537 276.952 528.846 277.581C529.166 278.211 529.326 278.931 529.326 279.741C529.326 279.901 529.31 280.04 529.278 280.157H522.83C522.862 280.776 523.012 281.298 523.278 281.725C523.545 282.152 523.881 282.472 524.286 282.685C524.702 282.898 525.134 283.005 525.582 283.005C526.627 283.005 527.433 282.514 527.998 281.533L529.15 282.093C528.798 282.754 528.318 283.277 527.71 283.661C527.113 284.045 526.387 284.237 525.534 284.237ZM527.886 279.037C527.865 278.696 527.769 278.355 527.598 278.013C527.427 277.672 527.155 277.384 526.782 277.149C526.419 276.915 525.961 276.797 525.406 276.797C524.766 276.797 524.222 277.005 523.774 277.421C523.337 277.827 523.049 278.365 522.91 279.037H527.886ZM530.437 275.822H531.733V277.133H531.797C531.957 276.685 532.267 276.317 532.725 276.03C533.184 275.731 533.664 275.582 534.165 275.582C534.538 275.582 534.858 275.635 535.125 275.742V277.213C534.784 277.043 534.4 276.957 533.973 276.957C533.579 276.957 533.216 277.069 532.885 277.293C532.555 277.517 532.288 277.821 532.085 278.205C531.893 278.579 531.797 278.984 531.797 279.421V283.981H530.437V275.822ZM542.155 284.237C541.174 284.237 540.422 283.949 539.9 283.373C539.388 282.797 539.132 281.992 539.132 280.957V275.822H540.491V280.749C540.491 281.528 540.667 282.098 541.019 282.461C541.371 282.824 541.846 283.005 542.443 283.005C542.902 283.005 543.307 282.882 543.659 282.637C544.022 282.392 544.299 282.072 544.491 281.677C544.694 281.282 544.795 280.867 544.795 280.429V275.822H546.155V283.981H544.859V282.797H544.795C544.571 283.202 544.214 283.544 543.723 283.821C543.233 284.098 542.71 284.237 542.155 284.237ZM547.62 275.822H548.916V277.037H548.98C549.225 276.621 549.593 276.275 550.084 275.998C550.585 275.71 551.145 275.566 551.763 275.566C552.489 275.566 553.15 275.752 553.747 276.125C554.345 276.499 554.814 277.016 555.155 277.677C555.497 278.339 555.667 279.08 555.667 279.901C555.667 280.733 555.497 281.48 555.155 282.141C554.814 282.792 554.345 283.304 553.747 283.677C553.15 284.05 552.489 284.237 551.763 284.237C551.145 284.237 550.585 284.098 550.084 283.821C549.593 283.533 549.225 283.186 548.98 282.781H548.916L548.98 283.901V287.437H547.62V275.822ZM551.603 283.005C552.073 283.005 552.515 282.877 552.931 282.621C553.347 282.365 553.678 282.002 553.923 281.533C554.179 281.053 554.307 280.509 554.307 279.901C554.307 279.293 554.179 278.755 553.923 278.285C553.678 277.805 553.347 277.437 552.931 277.181C552.515 276.925 552.073 276.797 551.603 276.797C551.134 276.797 550.692 276.925 550.276 277.181C549.86 277.437 549.529 277.8 549.284 278.269C549.038 278.739 548.916 279.283 548.916 279.901C548.916 280.52 549.038 281.064 549.284 281.533C549.529 282.002 549.86 282.365 550.276 282.621C550.692 282.877 551.134 283.005 551.603 283.005Z" fill="#1E1E1E"/>
<path d="M633.732 285.337C634.072 284.997 634.746 284.317 635.755 283.298C636.764 282.267 637.465 281.538 637.86 281.111C638.419 280.508 638.797 280.036 638.995 279.696C639.192 279.356 639.291 278.945 639.291 278.463C639.291 278.134 639.203 277.827 639.028 277.542C638.863 277.246 638.616 277.01 638.288 276.835C637.97 276.649 637.586 276.555 637.136 276.555C636.544 276.555 636.067 276.731 635.706 277.082C635.355 277.421 635.125 277.794 635.015 278.2L633.732 277.69C633.842 277.339 634.039 276.977 634.324 276.605C634.609 276.221 634.993 275.898 635.475 275.634C635.958 275.36 636.528 275.223 637.186 275.223C637.876 275.223 638.485 275.371 639.011 275.667C639.548 275.963 639.965 276.358 640.261 276.851C640.557 277.345 640.705 277.876 640.705 278.447C640.705 279.598 640.102 280.787 638.896 282.015L635.525 285.403H640.836V286.735H633.732V285.337ZM642.175 278.348H643.507V279.581H643.573C643.803 279.165 644.17 278.814 644.675 278.529C645.179 278.233 645.716 278.085 646.286 278.085C647.295 278.085 648.062 278.381 648.589 278.973C649.126 279.554 649.394 280.349 649.394 281.357V286.735H647.997V281.571C647.997 280.793 647.81 280.228 647.437 279.877C647.065 279.526 646.555 279.351 645.908 279.351C645.459 279.351 645.053 279.477 644.691 279.729C644.34 279.981 644.066 280.316 643.869 280.732C643.671 281.138 643.573 281.566 643.573 282.015V286.735H642.175V278.348ZM654.452 286.998C653.706 286.998 653.027 286.806 652.413 286.422C651.81 286.039 651.333 285.512 650.982 284.844C650.631 284.164 650.456 283.397 650.456 282.541C650.456 281.697 650.631 280.935 650.982 280.255C651.333 279.576 651.81 279.044 652.413 278.66C653.027 278.277 653.706 278.085 654.452 278.085C655.099 278.085 655.674 278.233 656.179 278.529C656.683 278.814 657.067 279.17 657.33 279.598H657.396L657.33 278.43V274.96H658.728V286.735H657.396V285.501H657.33C657.067 285.918 656.683 286.274 656.179 286.57C655.674 286.855 655.099 286.998 654.452 286.998ZM654.616 285.732C655.11 285.732 655.565 285.6 655.981 285.337C656.409 285.074 656.749 284.701 657.001 284.219C657.264 283.736 657.396 283.177 657.396 282.541C657.396 281.905 657.264 281.346 657.001 280.864C656.749 280.382 656.409 280.009 655.981 279.746C655.565 279.483 655.11 279.351 654.616 279.351C654.134 279.351 653.679 279.483 653.252 279.746C652.824 280.009 652.479 280.387 652.215 280.88C651.963 281.363 651.837 281.916 651.837 282.541C651.837 283.166 651.963 283.725 652.215 284.219C652.479 284.701 652.824 285.074 653.252 285.337C653.679 285.6 654.134 285.732 654.616 285.732ZM663.908 274.96H667.887C668.534 274.96 669.137 275.108 669.696 275.404C670.255 275.7 670.699 276.117 671.028 276.654C671.368 277.18 671.538 277.778 671.538 278.447C671.538 278.995 671.412 279.505 671.16 279.976C670.919 280.447 670.579 280.842 670.14 281.16C669.713 281.478 669.236 281.692 668.71 281.801L668.677 281.851L671.999 286.669V286.735H670.354L667.147 281.933H665.289V286.735H663.908V274.96ZM667.805 280.634C668.211 280.634 668.589 280.541 668.94 280.354C669.302 280.168 669.587 279.91 669.795 279.581C670.014 279.241 670.124 278.863 670.124 278.447C670.124 278.085 670.031 277.739 669.844 277.41C669.658 277.082 669.395 276.813 669.055 276.605C668.726 276.396 668.342 276.292 667.904 276.292H665.289V280.634H667.805ZM675.652 286.998C674.644 286.998 673.871 286.702 673.334 286.11C672.807 285.518 672.544 284.69 672.544 283.627V278.348H673.942V283.413C673.942 284.213 674.123 284.8 674.485 285.173C674.846 285.545 675.334 285.732 675.948 285.732C676.42 285.732 676.836 285.606 677.198 285.353C677.571 285.101 677.856 284.772 678.053 284.367C678.262 283.961 678.366 283.534 678.366 283.084V278.348H679.764V286.735H678.432V285.518H678.366C678.136 285.935 677.768 286.285 677.264 286.57C676.76 286.855 676.222 286.998 675.652 286.998ZM681.335 278.348H682.667V279.581H682.733C682.963 279.165 683.33 278.814 683.834 278.529C684.339 278.233 684.876 278.085 685.446 278.085C686.455 278.085 687.222 278.381 687.748 278.973C688.286 279.554 688.554 280.349 688.554 281.357V286.735H687.156V281.571C687.156 280.793 686.97 280.228 686.597 279.877C686.225 279.526 685.715 279.351 685.068 279.351C684.618 279.351 684.213 279.477 683.851 279.729C683.5 279.981 683.226 280.316 683.029 280.732C682.831 281.138 682.733 281.566 682.733 282.015V286.735H681.335V278.348ZM690.06 278.348H691.392V279.581H691.458C691.688 279.165 692.055 278.814 692.559 278.529C693.064 278.233 693.601 278.085 694.171 278.085C695.18 278.085 695.947 278.381 696.473 278.973C697.011 279.554 697.279 280.349 697.279 281.357V286.735H695.881V281.571C695.881 280.793 695.695 280.228 695.322 279.877C694.949 279.526 694.44 279.351 693.793 279.351C693.343 279.351 692.938 279.477 692.576 279.729C692.225 279.981 691.951 280.316 691.754 280.732C691.556 281.138 691.458 281.566 691.458 282.015V286.735H690.06V278.348ZM702.518 286.998C701.717 286.998 700.999 286.806 700.363 286.422C699.727 286.039 699.229 285.512 698.867 284.844C698.516 284.164 698.341 283.402 698.341 282.558C698.341 281.747 698.505 281.001 698.834 280.321C699.174 279.642 699.651 279.099 700.265 278.693C700.879 278.288 701.591 278.085 702.403 278.085C703.225 278.085 703.937 278.271 704.54 278.644C705.143 279.006 705.604 279.51 705.922 280.157C706.251 280.804 706.415 281.544 706.415 282.377C706.415 282.541 706.399 282.684 706.366 282.804H699.738C699.771 283.44 699.925 283.978 700.199 284.416C700.473 284.855 700.818 285.184 701.235 285.403C701.663 285.622 702.107 285.732 702.567 285.732C703.641 285.732 704.469 285.227 705.05 284.219L706.234 284.794C705.872 285.474 705.379 286.011 704.754 286.406C704.14 286.801 703.395 286.998 702.518 286.998ZM704.935 281.653C704.913 281.303 704.814 280.952 704.639 280.601C704.464 280.25 704.184 279.954 703.8 279.713C703.428 279.472 702.956 279.351 702.386 279.351C701.728 279.351 701.169 279.565 700.709 279.992C700.259 280.409 699.963 280.963 699.821 281.653H704.935ZM707.558 278.348H708.89V279.696H708.956C709.12 279.236 709.438 278.858 709.909 278.562C710.381 278.255 710.874 278.101 711.389 278.101C711.773 278.101 712.102 278.156 712.376 278.266V279.779C712.025 279.603 711.631 279.515 711.192 279.515C710.786 279.515 710.414 279.631 710.074 279.861C709.734 280.091 709.46 280.404 709.252 280.798C709.054 281.182 708.956 281.599 708.956 282.048V286.735H707.558V278.348ZM719.602 286.998C718.594 286.998 717.821 286.702 717.284 286.11C716.757 285.518 716.494 284.69 716.494 283.627V278.348H717.892V283.413C717.892 284.213 718.073 284.8 718.435 285.173C718.797 285.545 719.284 285.732 719.898 285.732C720.37 285.732 720.786 285.606 721.148 285.353C721.521 285.101 721.806 284.772 722.003 284.367C722.212 283.961 722.316 283.534 722.316 283.084V278.348H723.714V286.735H722.382V285.518H722.316C722.086 285.935 721.718 286.285 721.214 286.57C720.71 286.855 720.173 286.998 719.602 286.998ZM725.219 278.348H726.551V279.598H726.617C726.869 279.17 727.247 278.814 727.752 278.529C728.267 278.233 728.843 278.085 729.478 278.085C730.224 278.085 730.904 278.277 731.518 278.66C732.132 279.044 732.614 279.576 732.965 280.255C733.316 280.935 733.491 281.697 733.491 282.541C733.491 283.397 733.316 284.164 732.965 284.844C732.614 285.512 732.132 286.039 731.518 286.422C730.904 286.806 730.224 286.998 729.478 286.998C728.843 286.998 728.267 286.855 727.752 286.57C727.247 286.274 726.869 285.918 726.617 285.501H726.551L726.617 286.653V290.287H725.219V278.348ZM729.314 285.732C729.796 285.732 730.251 285.6 730.679 285.337C731.107 285.074 731.446 284.701 731.699 284.219C731.962 283.725 732.093 283.166 732.093 282.541C732.093 281.916 731.962 281.363 731.699 280.88C731.446 280.387 731.107 280.009 730.679 279.746C730.251 279.483 729.796 279.351 729.314 279.351C728.832 279.351 728.377 279.483 727.949 279.746C727.522 280.009 727.182 280.382 726.929 280.864C726.677 281.346 726.551 281.905 726.551 282.541C726.551 283.177 726.677 283.736 726.929 284.219C727.182 284.701 727.522 285.074 727.949 285.337C728.377 285.6 728.832 285.732 729.314 285.732Z" fill="#1E1E1E"/>
<ellipse cx="334.889" cy="217.124" rx="40.5743" ry="39.7971" fill="#FFDB34" fill-opacity="0.45"/>
<ellipse cx="509.928" cy="217.124" rx="40.5743" ry="39.7971" fill="#D9D9D9" fill-opacity="0.32"/>
<ellipse cx="682.955" cy="217.124" rx="40.5743" ry="39.7971" fill="#DF881B" fill-opacity="0.27"/>
<rect x="276.877" y="297.705" width="117.364" height="32.8902" rx="5.92023" fill="#4285F4"/>
<rect x="450.576" y="297.705" width="119.376" height="32.8902" rx="3.94682" fill="#4285F4"/>
<rect x="623.604" y="297.705" width="121.388" height="32.8902" rx="4.60462" fill="#4285F4"/>
<path d="M301.861 308.587H299.791C300.319 309.079 300.643 309.637 300.763 310.261H301.861V311.539H300.781C300.673 312.127 300.427 312.655 300.043 313.123C299.671 313.591 299.203 313.957 298.639 314.221C298.087 314.473 297.487 314.599 296.839 314.599H296.335L296.299 314.653L301.159 319.567V319.639H299.071L294.301 314.725V313.195H296.839C297.391 313.195 297.883 313.045 298.315 312.745C298.747 312.445 299.035 312.043 299.179 311.539H292.771V310.261H299.179C299.035 309.793 298.765 309.397 298.369 309.073C297.973 308.749 297.499 308.587 296.947 308.587H292.771V307.327H301.861V308.587ZM308.496 316.993H302.592V315.841L308.352 307.327H310.008V315.553H311.592V316.993H310.008V319.639H308.496V316.993ZM308.496 315.553V309.559H308.424L304.338 315.553H308.496ZM312.813 321.133L313.767 319.639C313.551 319.603 313.359 319.489 313.191 319.297C313.023 319.105 312.939 318.871 312.939 318.595C312.939 318.283 313.047 318.019 313.263 317.803C313.491 317.575 313.767 317.461 314.091 317.461C314.415 317.461 314.685 317.575 314.901 317.803C315.129 318.019 315.243 318.283 315.243 318.595C315.243 318.799 315.201 318.997 315.117 319.189C315.033 319.369 314.907 319.579 314.739 319.819L313.551 321.619L312.813 321.133ZM321.492 319.927C320.52 319.927 319.656 319.645 318.9 319.081C318.156 318.505 317.58 317.731 317.172 316.759C316.776 315.775 316.578 314.683 316.578 313.483C316.578 312.283 316.776 311.197 317.172 310.225C317.58 309.241 318.156 308.467 318.9 307.903C319.644 307.327 320.508 307.039 321.492 307.039C322.476 307.039 323.34 307.327 324.084 307.903C324.828 308.467 325.398 309.241 325.794 310.225C326.202 311.197 326.406 312.283 326.406 313.483C326.406 314.683 326.202 315.775 325.794 316.759C325.398 317.731 324.822 318.505 324.066 319.081C323.322 319.645 322.464 319.927 321.492 319.927ZM321.492 318.469C322.176 318.469 322.77 318.253 323.274 317.821C323.778 317.377 324.168 316.777 324.444 316.021C324.72 315.265 324.858 314.419 324.858 313.483C324.858 312.547 324.72 311.701 324.444 310.945C324.168 310.189 323.778 309.595 323.274 309.163C322.77 308.719 322.176 308.497 321.492 308.497C320.808 308.497 320.214 308.719 319.71 309.163C319.206 309.595 318.816 310.189 318.54 310.945C318.264 311.701 318.126 312.547 318.126 313.483C318.126 314.419 318.264 315.265 318.54 316.021C318.816 316.777 319.206 317.377 319.71 317.821C320.214 318.253 320.808 318.469 321.492 318.469ZM332.554 319.927C331.582 319.927 330.718 319.645 329.962 319.081C329.218 318.505 328.642 317.731 328.234 316.759C327.838 315.775 327.64 314.683 327.64 313.483C327.64 312.283 327.838 311.197 328.234 310.225C328.642 309.241 329.218 308.467 329.962 307.903C330.706 307.327 331.57 307.039 332.554 307.039C333.538 307.039 334.402 307.327 335.146 307.903C335.89 308.467 336.46 309.241 336.856 310.225C337.264 311.197 337.468 312.283 337.468 313.483C337.468 314.683 337.264 315.775 336.856 316.759C336.46 317.731 335.884 318.505 335.128 319.081C334.384 319.645 333.526 319.927 332.554 319.927ZM332.554 318.469C333.238 318.469 333.832 318.253 334.336 317.821C334.84 317.377 335.23 316.777 335.506 316.021C335.782 315.265 335.92 314.419 335.92 313.483C335.92 312.547 335.782 311.701 335.506 310.945C335.23 310.189 334.84 309.595 334.336 309.163C333.832 308.719 333.238 308.497 332.554 308.497C331.87 308.497 331.276 308.719 330.772 309.163C330.268 309.595 329.878 310.189 329.602 310.945C329.326 311.701 329.188 312.547 329.188 313.483C329.188 314.419 329.326 315.265 329.602 316.021C329.878 316.777 330.268 317.377 330.772 317.821C331.276 318.253 331.87 318.469 332.554 318.469ZM338.738 321.133L339.692 319.639C339.476 319.603 339.284 319.489 339.116 319.297C338.948 319.105 338.864 318.871 338.864 318.595C338.864 318.283 338.972 318.019 339.188 317.803C339.416 317.575 339.692 317.461 340.016 317.461C340.34 317.461 340.61 317.575 340.826 317.803C341.054 318.019 341.168 318.283 341.168 318.595C341.168 318.799 341.126 318.997 341.042 319.189C340.958 319.369 340.832 319.579 340.664 319.819L339.476 321.619L338.738 321.133ZM347.417 319.927C346.445 319.927 345.581 319.645 344.825 319.081C344.081 318.505 343.505 317.731 343.097 316.759C342.701 315.775 342.503 314.683 342.503 313.483C342.503 312.283 342.701 311.197 343.097 310.225C343.505 309.241 344.081 308.467 344.825 307.903C345.569 307.327 346.433 307.039 347.417 307.039C348.401 307.039 349.265 307.327 350.009 307.903C350.753 308.467 351.323 309.241 351.719 310.225C352.127 311.197 352.331 312.283 352.331 313.483C352.331 314.683 352.127 315.775 351.719 316.759C351.323 317.731 350.747 318.505 349.991 319.081C349.247 319.645 348.389 319.927 347.417 319.927ZM347.417 318.469C348.101 318.469 348.695 318.253 349.199 317.821C349.703 317.377 350.093 316.777 350.369 316.021C350.645 315.265 350.783 314.419 350.783 313.483C350.783 312.547 350.645 311.701 350.369 310.945C350.093 310.189 349.703 309.595 349.199 309.163C348.695 308.719 348.101 308.497 347.417 308.497C346.733 308.497 346.139 308.719 345.635 309.163C345.131 309.595 344.741 310.189 344.465 310.945C344.189 311.701 344.051 312.547 344.051 313.483C344.051 314.419 344.189 315.265 344.465 316.021C344.741 316.777 345.131 317.377 345.635 317.821C346.139 318.253 346.733 318.469 347.417 318.469ZM358.479 319.927C357.507 319.927 356.643 319.645 355.887 319.081C355.143 318.505 354.567 317.731 354.159 316.759C353.763 315.775 353.565 314.683 353.565 313.483C353.565 312.283 353.763 311.197 354.159 310.225C354.567 309.241 355.143 308.467 355.887 307.903C356.631 307.327 357.495 307.039 358.479 307.039C359.463 307.039 360.327 307.327 361.071 307.903C361.815 308.467 362.385 309.241 362.781 310.225C363.189 311.197 363.393 312.283 363.393 313.483C363.393 314.683 363.189 315.775 362.781 316.759C362.385 317.731 361.809 318.505 361.053 319.081C360.309 319.645 359.451 319.927 358.479 319.927ZM358.479 318.469C359.163 318.469 359.757 318.253 360.261 317.821C360.765 317.377 361.155 316.777 361.431 316.021C361.707 315.265 361.845 314.419 361.845 313.483C361.845 312.547 361.707 311.701 361.431 310.945C361.155 310.189 360.765 309.595 360.261 309.163C359.757 308.719 359.163 308.497 358.479 308.497C357.795 308.497 357.201 308.719 356.697 309.163C356.193 309.595 355.803 310.189 355.527 310.945C355.251 311.701 355.113 312.547 355.113 313.483C355.113 314.419 355.251 315.265 355.527 316.021C355.803 316.777 356.193 317.377 356.697 317.821C357.201 318.253 357.795 318.469 358.479 318.469ZM369.54 319.927C368.568 319.927 367.704 319.645 366.948 319.081C366.204 318.505 365.628 317.731 365.22 316.759C364.824 315.775 364.626 314.683 364.626 313.483C364.626 312.283 364.824 311.197 365.22 310.225C365.628 309.241 366.204 308.467 366.948 307.903C367.692 307.327 368.556 307.039 369.54 307.039C370.524 307.039 371.388 307.327 372.132 307.903C372.876 308.467 373.446 309.241 373.842 310.225C374.25 311.197 374.454 312.283 374.454 313.483C374.454 314.683 374.25 315.775 373.842 316.759C373.446 317.731 372.87 318.505 372.114 319.081C371.37 319.645 370.512 319.927 369.54 319.927ZM369.54 318.469C370.224 318.469 370.818 318.253 371.322 317.821C371.826 317.377 372.216 316.777 372.492 316.021C372.768 315.265 372.906 314.419 372.906 313.483C372.906 312.547 372.768 311.701 372.492 310.945C372.216 310.189 371.826 309.595 371.322 309.163C370.818 308.719 370.224 308.497 369.54 308.497C368.856 308.497 368.262 308.719 367.758 309.163C367.254 309.595 366.864 310.189 366.588 310.945C366.312 311.701 366.174 312.547 366.174 313.483C366.174 314.419 366.312 315.265 366.588 316.021C366.864 316.777 367.254 317.377 367.758 317.821C368.262 318.253 368.856 318.469 369.54 318.469Z" fill="white"/>
<path d="M477.574 308.258H475.504C476.032 308.75 476.356 309.308 476.476 309.932H477.574V311.21H476.494C476.386 311.798 476.14 312.326 475.756 312.794C475.384 313.262 474.916 313.628 474.352 313.892C473.8 314.144 473.2 314.27 472.552 314.27H472.048L472.012 314.324L476.872 319.238V319.31H474.784L470.014 314.396V312.866H472.552C473.104 312.866 473.596 312.716 474.028 312.416C474.46 312.116 474.748 311.714 474.892 311.21H468.484V309.932H474.892C474.748 309.464 474.478 309.068 474.082 308.744C473.686 308.42 473.212 308.258 472.66 308.258H468.484V306.998H477.574V308.258ZM482.193 319.598C481.677 319.598 481.149 319.49 480.609 319.274C480.069 319.058 479.577 318.722 479.133 318.266C478.701 317.798 478.389 317.216 478.197 316.52L479.583 315.944C479.775 316.64 480.099 317.18 480.555 317.564C481.023 317.948 481.569 318.14 482.193 318.14C482.649 318.14 483.075 318.044 483.471 317.852C483.867 317.648 484.179 317.372 484.407 317.024C484.647 316.664 484.767 316.268 484.767 315.836C484.767 315.416 484.647 315.032 484.407 314.684C484.179 314.336 483.861 314.066 483.453 313.874C483.057 313.67 482.619 313.568 482.139 313.568H481.077V312.146H482.031C482.691 312.146 483.243 311.96 483.687 311.588C484.131 311.204 484.353 310.7 484.353 310.076C484.353 309.5 484.137 309.038 483.705 308.69C483.273 308.342 482.739 308.168 482.103 308.168C481.479 308.168 480.987 308.33 480.627 308.654C480.279 308.978 480.027 309.374 479.871 309.842L478.467 309.248C478.683 308.6 479.097 308.018 479.709 307.502C480.333 306.974 481.131 306.71 482.103 306.71C482.823 306.71 483.471 306.854 484.047 307.142C484.623 307.43 485.073 307.832 485.397 308.348C485.733 308.864 485.901 309.44 485.901 310.076C485.901 310.712 485.739 311.252 485.415 311.696C485.091 312.14 484.689 312.488 484.209 312.74V312.812C484.821 313.064 485.325 313.454 485.721 313.982C486.117 314.498 486.315 315.11 486.315 315.818C486.315 316.538 486.129 317.186 485.757 317.762C485.397 318.338 484.899 318.788 484.263 319.112C483.639 319.436 482.949 319.598 482.193 319.598ZM487.33 320.804L488.284 319.31C488.068 319.274 487.876 319.16 487.708 318.968C487.54 318.776 487.456 318.542 487.456 318.266C487.456 317.954 487.564 317.69 487.78 317.474C488.008 317.246 488.284 317.132 488.608 317.132C488.932 317.132 489.202 317.246 489.418 317.474C489.646 317.69 489.76 317.954 489.76 318.266C489.76 318.47 489.718 318.668 489.634 318.86C489.55 319.04 489.424 319.25 489.256 319.49L488.068 321.29L487.33 320.804ZM496.01 319.598C495.038 319.598 494.174 319.316 493.418 318.752C492.674 318.176 492.098 317.402 491.69 316.43C491.294 315.446 491.096 314.354 491.096 313.154C491.096 311.954 491.294 310.868 491.69 309.896C492.098 308.912 492.674 308.138 493.418 307.574C494.162 306.998 495.026 306.71 496.01 306.71C496.994 306.71 497.858 306.998 498.602 307.574C499.346 308.138 499.916 308.912 500.312 309.896C500.72 310.868 500.924 311.954 500.924 313.154C500.924 314.354 500.72 315.446 500.312 316.43C499.916 317.402 499.34 318.176 498.584 318.752C497.84 319.316 496.982 319.598 496.01 319.598ZM496.01 318.14C496.694 318.14 497.288 317.924 497.792 317.492C498.296 317.048 498.686 316.448 498.962 315.692C499.238 314.936 499.376 314.09 499.376 313.154C499.376 312.218 499.238 311.372 498.962 310.616C498.686 309.86 498.296 309.266 497.792 308.834C497.288 308.39 496.694 308.168 496.01 308.168C495.326 308.168 494.732 308.39 494.228 308.834C493.724 309.266 493.334 309.86 493.058 310.616C492.782 311.372 492.644 312.218 492.644 313.154C492.644 314.09 492.782 314.936 493.058 315.692C493.334 316.448 493.724 317.048 494.228 317.492C494.732 317.924 495.326 318.14 496.01 318.14ZM507.072 319.598C506.1 319.598 505.236 319.316 504.48 318.752C503.736 318.176 503.16 317.402 502.752 316.43C502.356 315.446 502.158 314.354 502.158 313.154C502.158 311.954 502.356 310.868 502.752 309.896C503.16 308.912 503.736 308.138 504.48 307.574C505.224 306.998 506.088 306.71 507.072 306.71C508.056 306.71 508.92 306.998 509.664 307.574C510.408 308.138 510.978 308.912 511.374 309.896C511.782 310.868 511.986 311.954 511.986 313.154C511.986 314.354 511.782 315.446 511.374 316.43C510.978 317.402 510.402 318.176 509.646 318.752C508.902 319.316 508.044 319.598 507.072 319.598ZM507.072 318.14C507.756 318.14 508.35 317.924 508.854 317.492C509.358 317.048 509.748 316.448 510.024 315.692C510.3 314.936 510.438 314.09 510.438 313.154C510.438 312.218 510.3 311.372 510.024 310.616C509.748 309.86 509.358 309.266 508.854 308.834C508.35 308.39 507.756 308.168 507.072 308.168C506.388 308.168 505.794 308.39 505.29 308.834C504.786 309.266 504.396 309.86 504.12 310.616C503.844 311.372 503.706 312.218 503.706 313.154C503.706 314.09 503.844 314.936 504.12 315.692C504.396 316.448 504.786 317.048 505.29 317.492C505.794 317.924 506.388 318.14 507.072 318.14ZM513.255 320.804L514.209 319.31C513.993 319.274 513.801 319.16 513.633 318.968C513.465 318.776 513.381 318.542 513.381 318.266C513.381 317.954 513.489 317.69 513.705 317.474C513.933 317.246 514.209 317.132 514.533 317.132C514.857 317.132 515.127 317.246 515.343 317.474C515.571 317.69 515.685 317.954 515.685 318.266C515.685 318.47 515.643 318.668 515.559 318.86C515.475 319.04 515.349 319.25 515.181 319.49L513.993 321.29L513.255 320.804ZM521.935 319.598C520.963 319.598 520.099 319.316 519.343 318.752C518.599 318.176 518.023 317.402 517.615 316.43C517.219 315.446 517.021 314.354 517.021 313.154C517.021 311.954 517.219 310.868 517.615 309.896C518.023 308.912 518.599 308.138 519.343 307.574C520.087 306.998 520.951 306.71 521.935 306.71C522.919 306.71 523.783 306.998 524.527 307.574C525.271 308.138 525.841 308.912 526.237 309.896C526.645 310.868 526.849 311.954 526.849 313.154C526.849 314.354 526.645 315.446 526.237 316.43C525.841 317.402 525.265 318.176 524.509 318.752C523.765 319.316 522.907 319.598 521.935 319.598ZM521.935 318.14C522.619 318.14 523.213 317.924 523.717 317.492C524.221 317.048 524.611 316.448 524.887 315.692C525.163 314.936 525.301 314.09 525.301 313.154C525.301 312.218 525.163 311.372 524.887 310.616C524.611 309.86 524.221 309.266 523.717 308.834C523.213 308.39 522.619 308.168 521.935 308.168C521.251 308.168 520.657 308.39 520.153 308.834C519.649 309.266 519.259 309.86 518.983 310.616C518.707 311.372 518.569 312.218 518.569 313.154C518.569 314.09 518.707 314.936 518.983 315.692C519.259 316.448 519.649 317.048 520.153 317.492C520.657 317.924 521.251 318.14 521.935 318.14ZM532.996 319.598C532.024 319.598 531.16 319.316 530.404 318.752C529.66 318.176 529.084 317.402 528.676 316.43C528.28 315.446 528.082 314.354 528.082 313.154C528.082 311.954 528.28 310.868 528.676 309.896C529.084 308.912 529.66 308.138 530.404 307.574C531.148 306.998 532.012 306.71 532.996 306.71C533.98 306.71 534.844 306.998 535.588 307.574C536.332 308.138 536.902 308.912 537.298 309.896C537.706 310.868 537.91 311.954 537.91 313.154C537.91 314.354 537.706 315.446 537.298 316.43C536.902 317.402 536.326 318.176 535.57 318.752C534.826 319.316 533.968 319.598 532.996 319.598ZM532.996 318.14C533.68 318.14 534.274 317.924 534.778 317.492C535.282 317.048 535.672 316.448 535.948 315.692C536.224 314.936 536.362 314.09 536.362 313.154C536.362 312.218 536.224 311.372 535.948 310.616C535.672 309.86 535.282 309.266 534.778 308.834C534.274 308.39 533.68 308.168 532.996 308.168C532.312 308.168 531.718 308.39 531.214 308.834C530.71 309.266 530.32 309.86 530.044 310.616C529.768 311.372 529.63 312.218 529.63 313.154C529.63 314.09 529.768 314.936 530.044 315.692C530.32 316.448 530.71 317.048 531.214 317.492C531.718 317.924 532.312 318.14 532.996 318.14ZM544.058 319.598C543.086 319.598 542.222 319.316 541.466 318.752C540.722 318.176 540.146 317.402 539.738 316.43C539.342 315.446 539.144 314.354 539.144 313.154C539.144 311.954 539.342 310.868 539.738 309.896C540.146 308.912 540.722 308.138 541.466 307.574C542.21 306.998 543.074 306.71 544.058 306.71C545.042 306.71 545.906 306.998 546.65 307.574C547.394 308.138 547.964 308.912 548.36 309.896C548.768 310.868 548.972 311.954 548.972 313.154C548.972 314.354 548.768 315.446 548.36 316.43C547.964 317.402 547.388 318.176 546.632 318.752C545.888 319.316 545.03 319.598 544.058 319.598ZM544.058 318.14C544.742 318.14 545.336 317.924 545.84 317.492C546.344 317.048 546.734 316.448 547.01 315.692C547.286 314.936 547.424 314.09 547.424 313.154C547.424 312.218 547.286 311.372 547.01 310.616C546.734 309.86 546.344 309.266 545.84 308.834C545.336 308.39 544.742 308.168 544.058 308.168C543.374 308.168 542.78 308.39 542.276 308.834C541.772 309.266 541.382 309.86 541.106 310.616C540.83 311.372 540.692 312.218 540.692 313.154C540.692 314.09 540.83 314.936 541.106 315.692C541.382 316.448 541.772 317.048 542.276 317.492C542.78 317.924 543.374 318.14 544.058 318.14Z" fill="white"/>
<path d="M651.939 308.258H649.869C650.397 308.75 650.721 309.308 650.841 309.932H651.939V311.21H650.859C650.751 311.798 650.505 312.326 650.121 312.794C649.749 313.262 649.281 313.628 648.717 313.892C648.165 314.144 647.565 314.27 646.917 314.27H646.413L646.377 314.324L651.237 319.238V319.31H649.149L644.379 314.396V312.866H646.917C647.469 312.866 647.961 312.716 648.393 312.416C648.825 312.116 649.113 311.714 649.257 311.21H642.849V309.932H649.257C649.113 309.464 648.843 309.068 648.447 308.744C648.051 308.42 647.577 308.258 647.025 308.258H642.849V306.998H651.939V308.258ZM652.67 317.78C653.042 317.408 653.78 316.664 654.884 315.548C655.988 314.42 656.756 313.622 657.188 313.154C657.8 312.494 658.214 311.978 658.43 311.606C658.646 311.234 658.754 310.784 658.754 310.256C658.754 309.896 658.658 309.56 658.466 309.248C658.286 308.924 658.016 308.666 657.656 308.474C657.308 308.27 656.888 308.168 656.396 308.168C655.748 308.168 655.226 308.36 654.83 308.744C654.446 309.116 654.194 309.524 654.074 309.968L652.67 309.41C652.79 309.026 653.006 308.63 653.318 308.222C653.63 307.802 654.05 307.448 654.578 307.16C655.106 306.86 655.73 306.71 656.45 306.71C657.206 306.71 657.872 306.872 658.448 307.196C659.036 307.52 659.492 307.952 659.816 308.492C660.14 309.032 660.302 309.614 660.302 310.238C660.302 311.498 659.642 312.8 658.322 314.144L654.632 317.852H660.446V319.31H652.67V317.78ZM661.695 320.804L662.649 319.31C662.433 319.274 662.241 319.16 662.073 318.968C661.905 318.776 661.821 318.542 661.821 318.266C661.821 317.954 661.929 317.69 662.145 317.474C662.373 317.246 662.649 317.132 662.973 317.132C663.297 317.132 663.567 317.246 663.783 317.474C664.011 317.69 664.125 317.954 664.125 318.266C664.125 318.47 664.083 318.668 663.999 318.86C663.915 319.04 663.789 319.25 663.621 319.49L662.433 321.29L661.695 320.804ZM670.375 319.598C669.403 319.598 668.539 319.316 667.783 318.752C667.039 318.176 666.463 317.402 666.055 316.43C665.659 315.446 665.461 314.354 665.461 313.154C665.461 311.954 665.659 310.868 666.055 309.896C666.463 308.912 667.039 308.138 667.783 307.574C668.527 306.998 669.391 306.71 670.375 306.71C671.359 306.71 672.223 306.998 672.967 307.574C673.711 308.138 674.281 308.912 674.677 309.896C675.085 310.868 675.289 311.954 675.289 313.154C675.289 314.354 675.085 315.446 674.677 316.43C674.281 317.402 673.705 318.176 672.949 318.752C672.205 319.316 671.347 319.598 670.375 319.598ZM670.375 318.14C671.059 318.14 671.653 317.924 672.157 317.492C672.661 317.048 673.051 316.448 673.327 315.692C673.603 314.936 673.741 314.09 673.741 313.154C673.741 312.218 673.603 311.372 673.327 310.616C673.051 309.86 672.661 309.266 672.157 308.834C671.653 308.39 671.059 308.168 670.375 308.168C669.691 308.168 669.097 308.39 668.593 308.834C668.089 309.266 667.699 309.86 667.423 310.616C667.147 311.372 667.009 312.218 667.009 313.154C667.009 314.09 667.147 314.936 667.423 315.692C667.699 316.448 668.089 317.048 668.593 317.492C669.097 317.924 669.691 318.14 670.375 318.14ZM681.437 319.598C680.465 319.598 679.601 319.316 678.845 318.752C678.101 318.176 677.525 317.402 677.117 316.43C676.721 315.446 676.523 314.354 676.523 313.154C676.523 311.954 676.721 310.868 677.117 309.896C677.525 308.912 678.101 308.138 678.845 307.574C679.589 306.998 680.453 306.71 681.437 306.71C682.421 306.71 683.285 306.998 684.029 307.574C684.773 308.138 685.343 308.912 685.739 309.896C686.147 310.868 686.351 311.954 686.351 313.154C686.351 314.354 686.147 315.446 685.739 316.43C685.343 317.402 684.767 318.176 684.011 318.752C683.267 319.316 682.409 319.598 681.437 319.598ZM681.437 318.14C682.121 318.14 682.715 317.924 683.219 317.492C683.723 317.048 684.113 316.448 684.389 315.692C684.665 314.936 684.803 314.09 684.803 313.154C684.803 312.218 684.665 311.372 684.389 310.616C684.113 309.86 683.723 309.266 683.219 308.834C682.715 308.39 682.121 308.168 681.437 308.168C680.753 308.168 680.159 308.39 679.655 308.834C679.151 309.266 678.761 309.86 678.485 310.616C678.209 311.372 678.071 312.218 678.071 313.154C678.071 314.09 678.209 314.936 678.485 315.692C678.761 316.448 679.151 317.048 679.655 317.492C680.159 317.924 680.753 318.14 681.437 318.14ZM687.62 320.804L688.574 319.31C688.358 319.274 688.166 319.16 687.998 318.968C687.83 318.776 687.746 318.542 687.746 318.266C687.746 317.954 687.854 317.69 688.07 317.474C688.298 317.246 688.574 317.132 688.898 317.132C689.222 317.132 689.492 317.246 689.708 317.474C689.936 317.69 690.05 317.954 690.05 318.266C690.05 318.47 690.008 318.668 689.924 318.86C689.84 319.04 689.714 319.25 689.546 319.49L688.358 321.29L687.62 320.804ZM696.3 319.598C695.328 319.598 694.464 319.316 693.708 318.752C692.964 318.176 692.388 317.402 691.98 316.43C691.584 315.446 691.386 314.354 691.386 313.154C691.386 311.954 691.584 310.868 691.98 309.896C692.388 308.912 692.964 308.138 693.708 307.574C694.452 306.998 695.316 306.71 696.3 306.71C697.284 306.71 698.148 306.998 698.892 307.574C699.636 308.138 700.206 308.912 700.602 309.896C701.01 310.868 701.214 311.954 701.214 313.154C701.214 314.354 701.01 315.446 700.602 316.43C700.206 317.402 699.63 318.176 698.874 318.752C698.13 319.316 697.272 319.598 696.3 319.598ZM696.3 318.14C696.984 318.14 697.578 317.924 698.082 317.492C698.586 317.048 698.976 316.448 699.252 315.692C699.528 314.936 699.666 314.09 699.666 313.154C699.666 312.218 699.528 311.372 699.252 310.616C698.976 309.86 698.586 309.266 698.082 308.834C697.578 308.39 696.984 308.168 696.3 308.168C695.616 308.168 695.022 308.39 694.518 308.834C694.014 309.266 693.624 309.86 693.348 310.616C693.072 311.372 692.934 312.218 692.934 313.154C692.934 314.09 693.072 314.936 693.348 315.692C693.624 316.448 694.014 317.048 694.518 317.492C695.022 317.924 695.616 318.14 696.3 318.14ZM707.362 319.598C706.39 319.598 705.526 319.316 704.77 318.752C704.026 318.176 703.45 317.402 703.042 316.43C702.646 315.446 702.448 314.354 702.448 313.154C702.448 311.954 702.646 310.868 703.042 309.896C703.45 308.912 704.026 308.138 704.77 307.574C705.514 306.998 706.378 306.71 707.362 306.71C708.346 306.71 709.21 306.998 709.954 307.574C710.698 308.138 711.268 308.912 711.664 309.896C712.072 310.868 712.276 311.954 712.276 313.154C712.276 314.354 712.072 315.446 711.664 316.43C711.268 317.402 710.692 318.176 709.936 318.752C709.192 319.316 708.334 319.598 707.362 319.598ZM707.362 318.14C708.046 318.14 708.64 317.924 709.144 317.492C709.648 317.048 710.038 316.448 710.314 315.692C710.59 314.936 710.728 314.09 710.728 313.154C710.728 312.218 710.59 311.372 710.314 310.616C710.038 309.86 709.648 309.266 709.144 308.834C708.64 308.39 708.046 308.168 707.362 308.168C706.678 308.168 706.084 308.39 705.58 308.834C705.076 309.266 704.686 309.86 704.41 310.616C704.134 311.372 703.996 312.218 703.996 313.154C703.996 314.09 704.134 314.936 704.41 315.692C704.686 316.448 705.076 317.048 705.58 317.492C706.084 317.924 706.678 318.14 707.362 318.14ZM718.423 319.598C717.451 319.598 716.587 319.316 715.831 318.752C715.087 318.176 714.511 317.402 714.103 316.43C713.707 315.446 713.509 314.354 713.509 313.154C713.509 311.954 713.707 310.868 714.103 309.896C714.511 308.912 715.087 308.138 715.831 307.574C716.575 306.998 717.439 306.71 718.423 306.71C719.407 306.71 720.271 306.998 721.015 307.574C721.759 308.138 722.329 308.912 722.725 309.896C723.133 310.868 723.337 311.954 723.337 313.154C723.337 314.354 723.133 315.446 722.725 316.43C722.329 317.402 721.753 318.176 720.997 318.752C720.253 319.316 719.395 319.598 718.423 319.598ZM718.423 318.14C719.107 318.14 719.701 317.924 720.205 317.492C720.709 317.048 721.099 316.448 721.375 315.692C721.651 314.936 721.789 314.09 721.789 313.154C721.789 312.218 721.651 311.372 721.375 310.616C721.099 309.86 720.709 309.266 720.205 308.834C719.701 308.39 719.107 308.168 718.423 308.168C717.739 308.168 717.145 308.39 716.641 308.834C716.137 309.266 715.747 309.86 715.471 310.616C715.195 311.372 715.057 312.218 715.057 313.154C715.057 314.09 715.195 314.936 715.471 315.692C715.747 316.448 716.137 317.048 716.641 317.492C717.145 317.924 717.739 318.14 718.423 318.14Z" fill="white"/>
<path d="M522.844 202.538C525.531 199.851 529.73 199.391 531.956 199.358C532.844 199.347 533.491 199.994 533.48 200.882C533.448 203.097 532.987 207.297 530.3 209.994C527.614 212.681 523.414 213.141 521.188 213.174C520.3 213.185 519.653 212.538 519.664 211.65C519.697 209.424 520.147 205.224 522.844 202.538Z" fill="url(#paint0_linear_415_11)"/>
<path d="M524.29 207.823C527.59 205.926 531.757 206.584 533.917 207.121C534.784 207.34 535.233 208.13 534.992 208.985C534.378 211.112 532.843 215.049 529.542 216.946C526.242 218.843 522.075 218.185 519.915 217.648C519.048 217.428 518.599 216.639 518.84 215.784C519.454 213.656 520.989 209.72 524.29 207.823Z" fill="url(#paint1_linear_415_11)"/>
<path d="M525.748 212.494C529.509 211.902 533.172 214.008 534.981 215.28C535.716 215.795 535.858 216.694 535.31 217.407C533.972 219.172 531.132 222.297 527.371 222.889C523.61 223.482 519.948 221.376 518.138 220.104C517.404 219.589 517.261 218.69 517.809 217.977C519.147 216.212 521.987 213.086 525.748 212.494Z" fill="url(#paint2_linear_415_11)"/>
<path d="M523.534 216.804C527.119 218.076 529.345 221.673 530.332 223.646C530.727 224.447 530.42 225.302 529.619 225.675C527.602 226.596 523.61 227.989 520.025 226.728C516.439 225.456 514.213 221.859 513.226 219.885C512.831 219.085 513.128 218.23 513.939 217.857C515.957 216.925 519.948 215.532 523.534 216.804Z" fill="url(#paint3_linear_415_11)"/>
<path d="M499.093 202.538C496.407 199.851 492.207 199.391 489.981 199.358C489.093 199.347 488.446 199.994 488.457 200.882C488.501 203.097 488.951 207.297 491.637 209.994C494.324 212.692 498.523 213.141 500.749 213.174C501.637 213.185 502.284 212.538 502.273 211.65C502.24 209.424 501.791 205.224 499.093 202.538Z" fill="url(#paint4_linear_415_11)"/>
<path d="M497.657 207.823C494.357 205.926 490.179 206.584 488.03 207.121C487.164 207.34 486.714 208.13 486.955 208.985C487.569 211.112 489.105 215.049 492.405 216.946C495.706 218.843 499.883 218.185 502.033 217.648C502.899 217.428 503.359 216.639 503.107 215.784C502.482 213.656 500.947 209.72 497.657 207.823Z" fill="url(#paint5_linear_415_11)"/>
<path d="M496.187 212.494C492.437 211.902 488.775 214.008 486.955 215.28C486.22 215.795 486.077 216.694 486.626 217.407C487.964 219.172 490.804 222.297 494.565 222.889C498.326 223.482 501.988 221.376 503.797 220.104C504.532 219.589 504.664 218.69 504.137 217.977C502.789 216.212 499.949 213.086 496.187 212.494Z" fill="url(#paint6_linear_415_11)"/>
<path d="M498.403 216.804C494.818 218.076 492.592 221.673 491.605 223.646C491.21 224.447 491.517 225.302 492.329 225.675C494.346 226.596 498.337 227.989 501.923 226.728C505.509 225.456 507.735 221.859 508.722 219.885C509.116 219.085 508.82 218.23 507.998 217.857C505.98 216.925 501.989 215.532 498.403 216.804Z" fill="url(#paint7_linear_415_11)"/>
<path d="M517.824 231.092H504.117L506.31 223.964H515.631L517.824 231.092Z" fill="url(#paint8_linear_415_11)"/>
<path d="M500.55 231.092H521.384C522.591 231.092 523.577 232.079 523.577 233.285V237.123H498.357V233.285C498.357 232.079 499.344 231.092 500.55 231.092Z" fill="url(#paint9_linear_415_11)"/>
<path d="M496.986 237.123H524.948C526.614 237.123 527.963 238.472 527.963 240.138C527.963 241.805 526.614 243.154 524.948 243.154H496.986C495.319 243.154 493.971 241.805 493.971 240.138C493.971 238.483 495.319 237.123 496.986 237.123Z" fill="url(#paint10_linear_415_11)"/>
<path d="M496.715 199.358H525.224V212.79C525.224 220.663 518.843 227.045 510.97 227.045C503.108 227.045 496.715 220.663 496.715 212.79V199.358Z" fill="url(#paint11_linear_415_11)"/>
<path d="M496.439 192.23H525.497C527.459 192.23 529.06 193.831 529.06 195.794C529.06 197.757 527.459 199.358 525.497 199.358H496.439C494.476 199.358 492.875 197.757 492.875 195.783C492.875 193.82 494.476 192.23 496.439 192.23Z" fill="url(#paint12_linear_415_11)"/>
<path d="M329.108 228.82H341.812C342.977 228.82 343.93 229.773 343.93 230.938V234.643H326.99V230.938C326.99 229.773 327.943 228.82 329.108 228.82Z" fill="url(#paint13_linear_415_11)"/>
<path d="M325.667 234.644H345.254C346.863 234.644 348.165 235.946 348.165 237.556C348.165 239.165 346.863 240.467 345.254 240.467H325.667C324.058 240.467 322.756 239.165 322.756 237.556C322.756 235.946 324.058 234.644 325.667 234.644Z" fill="url(#paint14_linear_415_11)"/>
<path d="M347.024 200.499C349.617 197.905 353.672 197.461 355.822 197.429C356.679 197.418 357.304 198.043 357.293 198.9C357.251 201.039 356.817 205.094 354.223 207.698C351.629 210.303 347.574 210.737 345.425 210.769C344.567 210.779 343.943 210.155 343.953 209.297C343.996 207.159 344.43 203.093 347.024 200.499Z" fill="url(#paint15_linear_415_11)"/>
<path d="M349.477 205.602C352.663 203.77 356.687 204.406 358.772 204.925C359.609 205.136 360.043 205.899 359.81 206.724C359.217 208.778 357.735 212.579 354.548 214.411C351.361 216.242 347.338 215.607 345.252 215.088C344.416 214.877 343.982 214.114 344.215 213.288C344.808 211.235 346.301 207.434 349.477 205.602Z" fill="url(#paint16_linear_415_11)"/>
<path d="M350.897 210.113C354.528 209.542 358.064 211.574 359.811 212.803C360.52 213.3 360.658 214.168 360.129 214.856C358.837 216.561 356.095 219.578 352.464 220.15C348.832 220.722 345.296 218.689 343.549 217.461C342.84 216.963 342.702 216.095 343.231 215.407C344.523 213.702 347.265 210.685 350.897 210.113Z" fill="url(#paint17_linear_415_11)"/>
<path d="M348.758 214.273C352.22 215.501 354.369 218.963 355.322 220.879C355.703 221.652 355.418 222.478 354.634 222.838C352.686 223.727 348.832 225.082 345.37 223.854C341.908 222.626 339.759 219.154 338.806 217.248C338.425 216.475 338.711 215.639 339.494 215.289C341.442 214.389 345.296 213.045 348.758 214.273Z" fill="url(#paint18_linear_415_11)"/>
<path d="M323.899 200.499C321.305 197.905 317.25 197.461 315.101 197.429C314.243 197.418 313.618 198.043 313.629 198.9C313.671 201.039 314.105 205.094 316.699 207.698C319.293 210.303 323.348 210.737 325.497 210.769C326.355 210.779 326.98 210.155 326.969 209.297C326.927 207.159 326.493 203.093 323.899 200.499Z" fill="url(#paint19_linear_415_11)"/>
<path d="M321.443 205.602C318.256 203.77 314.222 204.406 312.147 204.925C311.311 205.136 310.876 205.899 311.109 206.724C311.702 208.778 313.184 212.579 316.371 214.411C319.558 216.242 323.592 215.607 325.667 215.088C326.503 214.877 326.948 214.114 326.704 213.288C326.101 211.235 324.619 207.434 321.443 205.602Z" fill="url(#paint20_linear_415_11)"/>
<path d="M320.024 210.113C316.403 209.542 312.867 211.574 311.11 212.803C310.4 213.3 310.263 214.168 310.792 214.856C312.084 216.561 314.826 219.578 318.457 220.15C322.089 220.722 325.625 218.689 327.372 217.461C328.081 216.963 328.208 216.095 327.7 215.407C326.398 213.702 323.656 210.685 320.024 210.113Z" fill="url(#paint21_linear_415_11)"/>
<path d="M322.163 214.273C318.701 215.501 316.552 218.963 315.599 220.879C315.218 221.652 315.514 222.478 316.298 222.838C318.246 223.727 322.099 225.082 325.562 223.854C329.024 222.626 331.173 219.154 332.126 217.248C332.507 216.475 332.221 215.639 331.427 215.289C329.479 214.389 325.625 213.045 322.163 214.273Z" fill="url(#paint22_linear_415_11)"/>
<path d="M333.45 192.072L323.688 196.074C321.698 196.889 320.406 198.827 320.406 200.976V213.807C320.406 225.348 330.475 228.99 334.149 229.932C335.017 230.154 335.917 230.154 336.785 229.932C340.459 228.99 350.527 225.348 350.527 213.807V200.976C350.527 198.827 349.225 196.889 347.245 196.074L337.473 192.072C336.181 191.542 334.741 191.542 333.45 192.072Z" fill="url(#paint23_linear_415_11)"/>
<path d="M335.462 227.445C335.24 227.445 335.017 227.413 334.805 227.36C333.228 226.958 330.179 225.952 327.585 223.803C324.578 221.304 323.043 217.938 323.043 213.809V200.977C323.043 199.897 323.689 198.934 324.684 198.531L334.445 194.529C334.763 194.402 335.102 194.328 335.451 194.328C335.801 194.328 336.139 194.392 336.457 194.529L346.219 198.531C347.214 198.944 347.86 199.897 347.86 200.977V213.809C347.86 217.948 346.335 221.304 343.318 223.803C340.724 225.952 337.685 226.958 336.097 227.36C335.907 227.413 335.684 227.445 335.462 227.445Z" fill="url(#paint24_linear_415_11)"/>
<path d="M677.577 231.259H690.413C691.59 231.259 692.552 232.222 692.552 233.399V237.142H675.438V233.399C675.438 232.222 676.4 231.259 677.577 231.259Z" fill="url(#paint25_linear_415_11)"/>
<path d="M674.102 237.143H693.891C695.517 237.143 696.832 238.458 696.832 240.084C696.832 241.71 695.517 243.026 693.891 243.026H674.102C672.476 243.026 671.16 241.71 671.16 240.084C671.16 238.458 672.476 237.143 674.102 237.143Z" fill="url(#paint26_linear_415_11)"/>
<path d="M695.674 202.645C698.295 200.024 702.392 199.575 704.563 199.543C705.43 199.532 706.061 200.164 706.05 201.03C706.007 203.191 705.569 207.288 702.948 209.919C700.328 212.55 696.231 212.989 694.059 213.021C693.193 213.032 692.562 212.401 692.572 211.534C692.615 209.373 693.054 205.266 695.674 202.645Z" fill="url(#paint27_linear_415_11)"/>
<path d="M698.157 207.801C701.376 205.951 705.441 206.592 707.548 207.117C708.394 207.331 708.832 208.101 708.597 208.935C707.998 211.01 706.5 214.85 703.28 216.701C700.061 218.551 695.996 217.91 693.889 217.385C693.044 217.172 692.605 216.401 692.84 215.567C693.439 213.492 694.948 209.652 698.157 207.801Z" fill="url(#paint28_linear_415_11)"/>
<path d="M699.591 212.358C703.26 211.78 706.832 213.834 708.597 215.075C709.314 215.578 709.453 216.455 708.918 217.15C707.613 218.872 704.843 221.921 701.174 222.499C697.505 223.076 693.932 221.022 692.167 219.782C691.45 219.279 691.311 218.402 691.846 217.706C693.151 215.984 695.922 212.936 699.591 212.358Z" fill="url(#paint29_linear_415_11)"/>
<path d="M697.431 216.562C700.929 217.803 703.1 221.301 704.063 223.237C704.448 224.018 704.159 224.852 703.368 225.216C701.4 226.114 697.506 227.483 694.008 226.243C690.51 225.002 688.339 221.493 687.376 219.568C686.991 218.787 687.28 217.942 688.072 217.589C690.04 216.68 693.933 215.321 697.431 216.562Z" fill="url(#paint30_linear_415_11)"/>
<path d="M672.315 202.645C669.695 200.024 665.598 199.575 663.426 199.543C662.56 199.532 661.929 200.164 661.94 201.03C661.982 203.191 662.421 207.288 665.042 209.919C667.662 212.55 671.759 212.989 673.931 213.021C674.797 213.032 675.428 212.401 675.417 211.534C675.375 209.373 674.936 205.266 672.315 202.645Z" fill="url(#paint31_linear_415_11)"/>
<path d="M669.831 207.801C666.612 205.951 662.536 206.592 660.44 207.117C659.594 207.331 659.156 208.101 659.391 208.935C659.99 211.01 661.488 214.85 664.708 216.701C667.927 218.551 672.003 217.91 674.099 217.385C674.944 217.172 675.394 216.401 675.148 215.567C674.538 213.492 673.04 209.652 669.831 207.801Z" fill="url(#paint32_linear_415_11)"/>
<path d="M668.398 212.358C664.74 211.78 661.167 213.834 659.392 215.075C658.675 215.578 658.536 216.455 659.071 217.15C660.376 218.872 663.146 221.921 666.815 222.499C670.484 223.076 674.057 221.022 675.822 219.782C676.538 219.279 676.667 218.402 676.153 217.706C674.838 215.984 672.067 212.936 668.398 212.358Z" fill="url(#paint33_linear_415_11)"/>
<path d="M670.559 216.562C667.061 217.803 664.889 221.301 663.927 223.237C663.542 224.018 663.841 224.852 664.633 225.216C666.601 226.114 670.495 227.483 673.992 226.243C677.49 225.002 679.662 221.493 680.624 219.568C681.009 218.787 680.721 217.942 679.918 217.589C677.95 216.68 674.057 215.321 670.559 216.562Z" fill="url(#paint34_linear_415_11)"/>
<path d="M681.965 194.131L672.103 198.174C670.092 198.998 668.787 200.955 668.787 203.127V216.091C668.787 227.75 678.96 231.43 682.671 232.382C683.549 232.607 684.458 232.607 685.335 232.382C689.047 231.43 699.219 227.75 699.219 216.091V203.127C699.219 200.955 697.904 198.998 695.903 198.174L686.03 194.131C684.725 193.596 683.27 193.596 681.965 194.131Z" fill="url(#paint35_linear_415_11)"/>
<path d="M683.996 229.869C683.772 229.869 683.547 229.836 683.333 229.783C681.739 229.376 678.659 228.36 676.038 226.189C673 223.664 671.449 220.263 671.449 216.091V203.127C671.449 202.036 672.102 201.062 673.107 200.656L682.97 196.612C683.29 196.484 683.633 196.409 683.986 196.409C684.339 196.409 684.681 196.473 685.002 196.612L694.864 200.656C695.87 201.073 696.522 202.036 696.522 203.127V216.091C696.522 220.274 694.982 223.664 691.933 226.189C689.313 228.36 686.243 229.376 684.638 229.783C684.446 229.836 684.221 229.869 683.996 229.869Z" fill="url(#paint36_linear_415_11)"/>
<defs>
<linearGradient id="paint0_linear_415_11" x1="520.086" y1="212.708" x2="533.057" y2="199.737" gradientUnits="userSpaceOnUse">
<stop offset="0.5" stop-color="#A6A6A6"/>
<stop offset="1" stop-color="#E6E6E6"/>
</linearGradient>
<linearGradient id="paint1_linear_415_11" x1="520.765" y1="218.403" x2="531.554" y2="204.924" gradientUnits="userSpaceOnUse">
<stop offset="0.5" stop-color="#A6A6A6"/>
<stop offset="1" stop-color="#E6E6E6"/>
</linearGradient>
<linearGradient id="paint2_linear_415_11" x1="519.759" y1="220.796" x2="535.136" y2="211.314" gradientUnits="userSpaceOnUse">
<stop offset="0.5" stop-color="#A6A6A6"/>
<stop offset="1" stop-color="#E6E6E6"/>
</linearGradient>
<linearGradient id="paint3_linear_415_11" x1="513.992" y1="217.149" x2="528.657" y2="227.265" gradientUnits="userSpaceOnUse">
<stop offset="0.5" stop-color="#A6A6A6"/>
<stop offset="1" stop-color="#E6E6E6"/>
</linearGradient>
<linearGradient id="paint4_linear_415_11" x1="501.852" y1="212.707" x2="488.882" y2="199.736" gradientUnits="userSpaceOnUse">
<stop offset="0.5" stop-color="#A6A6A6"/>
<stop offset="1" stop-color="#E6E6E6"/>
</linearGradient>
<linearGradient id="paint5_linear_415_11" x1="501.173" y1="218.401" x2="490.383" y2="204.922" gradientUnits="userSpaceOnUse">
<stop offset="0.5" stop-color="#A6A6A6"/>
<stop offset="1" stop-color="#E6E6E6"/>
</linearGradient>
<linearGradient id="paint6_linear_415_11" x1="502.178" y1="220.794" x2="486.801" y2="211.312" gradientUnits="userSpaceOnUse">
<stop offset="0.5" stop-color="#A6A6A6"/>
<stop offset="1" stop-color="#E6E6E6"/>
</linearGradient>
<linearGradient id="paint7_linear_415_11" x1="507.947" y1="217.147" x2="493.283" y2="227.262" gradientUnits="userSpaceOnUse">
<stop offset="0.5" stop-color="#A6A6A6"/>
<stop offset="1" stop-color="#E6E6E6"/>
</linearGradient>
<linearGradient id="paint8_linear_415_11" x1="510.97" y1="223.97" x2="510.97" y2="231.097" gradientUnits="userSpaceOnUse">
<stop stop-color="#616161"/>
<stop offset="0.8" stop-color="#C2C2C2"/>
</linearGradient>
<linearGradient id="paint9_linear_415_11" x1="510.967" y1="237.128" x2="510.967" y2="231.097" gradientUnits="userSpaceOnUse">
<stop stop-color="#616161"/>
<stop offset="1" stop-color="#9C9C9C"/>
</linearGradient>
<linearGradient id="paint10_linear_415_11" x1="510.967" y1="243.159" x2="510.967" y2="237.129" gradientUnits="userSpaceOnUse">
<stop stop-color="#ADADAD"/>
<stop offset="1" stop-color="#E6E6E6"/>
</linearGradient>
<linearGradient id="paint11_linear_415_11" x1="510.97" y1="199.352" x2="510.97" y2="227.04" gradientUnits="userSpaceOnUse">
<stop stop-color="#B3B3B3"/>
<stop offset="0.2" stop-color="#C7C7C7"/>
<stop offset="0.43" stop-color="#D8D8D8"/>
<stop offset="0.68" stop-color="#E2E2E2"/>
<stop offset="1" stop-color="#E6E6E6"/>
</linearGradient>
<linearGradient id="paint12_linear_415_11" x1="510.968" y1="199.352" x2="510.968" y2="192.225" gradientUnits="userSpaceOnUse">
<stop stop-color="#B6B6B6"/>
<stop offset="1" stop-color="#EDEDED"/>
</linearGradient>
<linearGradient id="paint13_linear_415_11" x1="335.46" y1="234.645" x2="335.46" y2="228.822" gradientUnits="userSpaceOnUse">
<stop stop-color="#3D5969"/>
<stop offset="1" stop-color="#698999"/>
</linearGradient>
<linearGradient id="paint14_linear_415_11" x1="335.461" y1="240.469" x2="335.461" y2="234.646" gradientUnits="userSpaceOnUse">
<stop stop-color="#FF9900"/>
<stop offset="1" stop-color="#FCD34F"/>
</linearGradient>
<linearGradient id="paint15_linear_415_11" x1="344.369" y1="210.319" x2="356.892" y2="197.796" gradientUnits="userSpaceOnUse">
<stop offset="0.5" stop-color="#F27A00"/>
<stop offset="1" stop-color="#FCD34F"/>
</linearGradient>
<linearGradient id="paint16_linear_415_11" x1="346.084" y1="215.817" x2="356.5" y2="202.803" gradientUnits="userSpaceOnUse">
<stop offset="0.5" stop-color="#F27A00"/>
<stop offset="1" stop-color="#FCD34F"/>
</linearGradient>
<linearGradient id="paint17_linear_415_11" x1="345.113" y1="218.129" x2="359.96" y2="208.975" gradientUnits="userSpaceOnUse">
<stop offset="0.5" stop-color="#F27A00"/>
<stop offset="1" stop-color="#FCD34F"/>
</linearGradient>
<linearGradient id="paint18_linear_415_11" x1="339.545" y1="214.606" x2="353.704" y2="224.373" gradientUnits="userSpaceOnUse">
<stop offset="0.5" stop-color="#F27A00"/>
<stop offset="1" stop-color="#FCD34F"/>
</linearGradient>
<linearGradient id="paint19_linear_415_11" x1="326.553" y1="210.318" x2="314.03" y2="197.795" gradientUnits="userSpaceOnUse">
<stop offset="0.5" stop-color="#F27A00"/>
<stop offset="1" stop-color="#FCD34F"/>
</linearGradient>
<linearGradient id="paint20_linear_415_11" x1="324.836" y1="215.816" x2="314.421" y2="202.801" gradientUnits="userSpaceOnUse">
<stop offset="0.5" stop-color="#F27A00"/>
<stop offset="1" stop-color="#FCD34F"/>
</linearGradient>
<linearGradient id="paint21_linear_415_11" x1="325.808" y1="218.128" x2="310.961" y2="208.974" gradientUnits="userSpaceOnUse">
<stop offset="0.5" stop-color="#F27A00"/>
<stop offset="1" stop-color="#FCD34F"/>
</linearGradient>
<linearGradient id="paint22_linear_415_11" x1="331.378" y1="214.605" x2="317.219" y2="224.371" gradientUnits="userSpaceOnUse">
<stop offset="0.5" stop-color="#F27A00"/>
<stop offset="1" stop-color="#FCD34F"/>
</linearGradient>
<linearGradient id="paint23_linear_415_11" x1="335.46" y1="230.093" x2="335.46" y2="191.677" gradientUnits="userSpaceOnUse">
<stop stop-color="#FFBF00"/>
<stop offset="1" stop-color="#FFDF3D"/>
</linearGradient>
<linearGradient id="paint24_linear_415_11" x1="335.462" y1="227.447" x2="335.462" y2="194.326" gradientUnits="userSpaceOnUse">
<stop stop-color="#FF8C00"/>
<stop offset="1" stop-color="#FCC000"/>
</linearGradient>
<linearGradient id="paint25_linear_415_11" x1="683.995" y1="237.145" x2="683.995" y2="231.261" gradientUnits="userSpaceOnUse">
<stop stop-color="#994311"/>
<stop offset="1" stop-color="#CC6C35"/>
</linearGradient>
<linearGradient id="paint26_linear_415_11" x1="683.996" y1="243.028" x2="683.996" y2="237.145" gradientUnits="userSpaceOnUse">
<stop stop-color="#FF7100"/>
<stop offset="1" stop-color="#FCA543"/>
</linearGradient>
<linearGradient id="paint27_linear_415_11" x1="692.993" y1="212.566" x2="705.645" y2="199.914" gradientUnits="userSpaceOnUse">
<stop offset="0.5" stop-color="#FF6200"/>
<stop offset="1" stop-color="#FCAB51"/>
</linearGradient>
<linearGradient id="paint28_linear_415_11" x1="694.729" y1="218.122" x2="705.252" y2="204.973" gradientUnits="userSpaceOnUse">
<stop offset="0.5" stop-color="#FF6200"/>
<stop offset="1" stop-color="#FCAB51"/>
</linearGradient>
<linearGradient id="paint29_linear_415_11" x1="693.747" y1="220.457" x2="708.747" y2="211.207" gradientUnits="userSpaceOnUse">
<stop offset="0.5" stop-color="#FF6200"/>
<stop offset="1" stop-color="#FCAB51"/>
</linearGradient>
<linearGradient id="paint30_linear_415_11" x1="688.123" y1="216.899" x2="702.428" y2="226.766" gradientUnits="userSpaceOnUse">
<stop offset="0.5" stop-color="#FF6200"/>
<stop offset="1" stop-color="#FCAB51"/>
</linearGradient>
<linearGradient id="paint31_linear_415_11" x1="674.997" y1="212.566" x2="662.345" y2="199.913" gradientUnits="userSpaceOnUse">
<stop offset="0.5" stop-color="#FF6200"/>
<stop offset="1" stop-color="#FCAB51"/>
</linearGradient>
<linearGradient id="paint32_linear_415_11" x1="673.26" y1="218.121" x2="662.737" y2="204.971" gradientUnits="userSpaceOnUse">
<stop offset="0.5" stop-color="#FF6200"/>
<stop offset="1" stop-color="#FCAB51"/>
</linearGradient>
<linearGradient id="paint33_linear_415_11" x1="674.242" y1="220.456" x2="659.242" y2="211.206" gradientUnits="userSpaceOnUse">
<stop offset="0.5" stop-color="#FF6200"/>
<stop offset="1" stop-color="#FCAB51"/>
</linearGradient>
<linearGradient id="paint34_linear_415_11" x1="679.869" y1="216.897" x2="665.563" y2="226.765" gradientUnits="userSpaceOnUse">
<stop offset="0.5" stop-color="#FF6200"/>
<stop offset="1" stop-color="#FCAB51"/>
</linearGradient>
<linearGradient id="paint35_linear_415_11" x1="683.997" y1="232.545" x2="683.997" y2="193.732" gradientUnits="userSpaceOnUse">
<stop stop-color="#FF9900"/>
<stop offset="1" stop-color="#FFC13D"/>
</linearGradient>
<linearGradient id="paint36_linear_415_11" x1="683.996" y1="229.871" x2="683.996" y2="196.407" gradientUnits="userSpaceOnUse">
<stop stop-color="#FF6200"/>
<stop offset="1" stop-color="#FF9900"/>
</linearGradient>
</defs>
</svg>
