<svg width="165" height="229" viewBox="0 0 165 229" fill="none" xmlns="http://www.w3.org/2000/svg">
<rect x="0.482114" y="0.482114" width="163.832" height="227.11" rx="18.3168" fill="white" stroke="#1E1E1E" stroke-width="0.964227"/>
<path d="M82.6431 47.7706H86.3936C93.1801 44.5031 91.8747 41.2298 91.0823 40.4374C90.2733 39.6284 88.6817 39.1593 86.6311 40.5482C83.9989 42.3308 82.6431 47.7706 82.6431 47.7706Z" fill="#ED6500"/>
<path d="M83.7458 46.9434C84.3265 45.1516 85.5168 42.3027 87.0959 41.2331C87.8239 40.7401 88.5113 40.4903 89.1408 40.4903C89.8588 40.4903 90.2997 40.8237 90.4983 41.0222C90.6885 41.2125 91.0128 41.7824 90.8779 42.5757C90.6298 44.0341 88.9729 45.5809 86.2042 46.9425H83.7458V46.9434Z" fill="#D65600"/>
<path d="M82.6431 47.7706H78.8925C72.1061 44.5031 73.4114 41.2298 74.2039 40.4374C75.0129 39.6284 76.6045 39.1593 78.6551 40.5482C81.2873 42.3308 82.6431 47.7706 82.6431 47.7706Z" fill="#ED6500"/>
<path d="M81.5412 46.9434C80.9605 45.1516 79.7702 42.3027 78.1911 41.2331C77.4631 40.7401 76.7757 40.4903 76.1462 40.4903C75.4282 40.4903 74.9873 40.8237 74.7887 41.0222C74.5985 41.2125 74.2742 41.7824 74.4091 42.5757C74.6572 44.0341 76.3141 45.5809 79.0828 46.9425H81.5412V46.9434Z" fill="#D65600"/>
<path d="M82.6431 46.6274C79.503 46.6274 63.3691 50.1546 63.3691 71.5454C63.3691 79.5478 69.665 80.1136 82.6431 80.1136C95.6212 80.1136 101.917 79.5486 101.917 71.5454C101.917 50.1546 85.7832 46.6274 82.6431 46.6274Z" fill="#D15900"/>
<path d="M101.917 71.5454C101.917 79.5486 95.6212 80.1136 82.6431 80.1136C70.9025 80.1136 64.6306 79.6512 63.5412 73.6374C67.7078 77.134 77.8047 77.134 82.6431 77.134C87.4814 77.134 98.1508 74.386 96.1307 62.1714C95.0744 55.7813 90.533 52.3177 86.3622 50.8395C82.7291 49.5515 76.5515 49.4663 72.9011 50.2588C77.0073 47.3735 81.1996 46.6274 82.6431 46.6274C85.784 46.6274 101.917 50.1546 101.917 71.5454Z" fill="#C64709"/>
<path d="M86.0992 37.9417C84.8269 38.4239 83.6548 38.6597 82.6439 38.6597C81.6331 38.6597 80.4609 38.4239 79.1887 37.9417C77.9164 37.4594 76.5904 37.9342 76.7261 39.4497C76.918 41.5806 78.6551 45.1235 80.9531 47.7706H84.3347C86.6327 45.1235 88.3707 41.5806 88.5618 39.4497C88.6982 37.9342 87.3714 37.4594 86.0992 37.9417Z" fill="#FF7900"/>
<path d="M88.5609 39.4497C88.369 41.5806 86.6319 45.1235 84.3339 47.7706H80.9523C79.9869 46.658 79.1208 45.3882 78.4268 44.1309C78.5037 44.2028 80.2434 45.3551 81.9325 45.3551C83.6217 45.3551 84.5796 44.8977 85.3009 44.1813C86.119 43.3682 87.2093 41.3506 87.4657 39.9121C87.7213 38.4744 86.8858 38.0087 86.1149 37.9359C87.3822 37.4636 88.6966 37.9409 88.5609 39.4497Z" fill="#F26D00"/>
<path d="M82.3395 54.1351C81.6579 54.174 81.0722 53.6545 81.0309 52.9721C80.7686 48.7004 84.2777 46.5116 84.4274 46.4206C85.013 46.064 85.7757 46.2493 86.1322 46.8342C86.4879 47.4174 86.3043 48.1776 85.7236 48.5357C85.6144 48.6044 83.3388 50.0719 83.5075 52.8198C83.5497 53.504 83.0294 54.0921 82.3453 54.1343H82.3395V54.1351Z" fill="#FFAA00"/>
<path d="M86.1372 46.8433C85.9048 46.8358 85.6682 46.8937 85.4548 47.0236C85.3059 47.1146 81.7969 49.3042 82.0583 53.5759C82.0707 53.7811 82.1327 53.9713 82.232 54.1359C81.5975 54.1186 81.0697 53.6181 81.03 52.9712C80.7686 48.7004 84.2777 46.5107 84.4265 46.4189C85.0122 46.0624 85.7757 46.2485 86.1322 46.8325C86.1339 46.8358 86.1356 46.8391 86.138 46.8424L86.1372 46.8433Z" fill="#FC8300"/>
<path d="M89.4576 54.8018C89.2632 54.8126 89.063 54.7787 88.8736 54.6918C84.2909 52.6048 83.9542 47.7515 83.9418 47.5464C83.9013 46.8623 84.4241 46.275 85.1082 46.2353H85.1106C85.7923 46.1964 86.3771 46.7151 86.4193 47.3958C86.4309 47.5571 86.7105 50.9801 89.9018 52.4335C90.5256 52.7173 90.801 53.4535 90.5173 54.0772C90.3196 54.5115 89.9027 54.777 89.4576 54.8018Z" fill="#FFAA00"/>
<path d="M90.5934 53.8539C90.5752 53.9291 90.5495 54.0036 90.5165 54.0772C90.3188 54.5107 89.9018 54.777 89.4568 54.8018C89.2624 54.8126 89.063 54.7778 88.8728 54.6918C84.2892 52.6048 83.9542 47.7515 83.9418 47.5456C83.9087 46.9855 84.2528 46.4917 84.7533 46.3072C84.7243 46.4239 84.7128 46.5463 84.7202 46.6729C84.7326 46.8788 85.0685 51.7321 89.6512 53.8191C89.8406 53.9051 90.0408 53.9399 90.2352 53.9291C90.3585 53.9225 90.4784 53.8969 90.5934 53.8539Z" fill="#FC8300"/>
<path d="M89.6744 46.0119H75.6118C74.9265 46.0119 74.371 46.5675 74.371 47.2527C74.371 47.938 74.9265 48.4936 75.6118 48.4936H89.6744C90.3596 48.4936 90.9152 47.938 90.9152 47.2527C90.9152 46.5675 90.3596 46.0119 89.6744 46.0119Z" fill="#FFB806"/>
<path d="M90.916 47.2527C90.916 47.596 90.777 47.9054 90.552 48.1304C90.327 48.3554 90.0176 48.4936 89.6752 48.4936H75.6126C74.9269 48.4936 74.3718 47.9385 74.3718 47.2527C74.3718 47.108 74.3967 46.969 74.443 46.8391C74.6126 47.3214 75.0717 47.6663 75.6126 47.6663H89.6752C90.0176 47.6663 90.3278 47.5274 90.552 47.3032C90.6819 47.1733 90.7828 47.0153 90.8449 46.8391C90.8912 46.969 90.916 47.108 90.916 47.2527Z" fill="#FF9700"/>
<path d="M84.9503 59.9757C85.4873 60.5574 85.8303 61.2286 85.9795 61.9893H87.4114V63.6896H86.0019C85.808 64.7934 85.271 65.7032 84.391 66.4192C83.5259 67.1202 82.5191 67.4931 81.3706 67.5378H81.0574L81.0126 67.6497L86.7178 73.4444V73.5786H83.3842L77.679 67.6721V65.3229H81.0797C81.6614 65.3229 82.176 65.1812 82.6235 64.8978C83.071 64.5995 83.3842 64.1968 83.5632 63.6896H75.7773V61.9893H83.5408C83.3767 61.512 83.0859 61.1242 82.6682 60.8258C82.2506 60.5126 81.7509 60.356 81.1692 60.356H75.7773V58.2753H87.4114V59.9757H84.9503Z" fill="white"/>
<path d="M84.9503 59.9757C85.4873 60.5574 85.8303 61.2286 85.9795 61.9893H87.4114V63.6896H86.0019C85.808 64.7934 85.271 65.7032 84.391 66.4192C83.5259 67.1202 82.5191 67.4931 81.3706 67.5378H81.0574L81.0126 67.6497L86.7178 73.4444V73.5786H83.3842L77.679 67.6721V65.3229H81.0797C81.6614 65.3229 82.176 65.1812 82.6235 64.8978C83.071 64.5995 83.3842 64.1968 83.5632 63.6896H75.7773V61.9893H83.5408C83.3767 61.512 83.0859 61.1242 82.6682 60.8258C82.2506 60.5126 81.7509 60.356 81.1692 60.356H75.7773V58.2753H87.4114V59.9757H84.9503Z" fill="#FFDB08"/>
<path d="M53.2052 120.045C51.8999 120.045 50.7265 119.664 49.6852 118.901C48.6439 118.138 47.9252 117.068 47.5292 115.689L49.8612 114.743C50.0959 115.608 50.5065 116.32 51.0932 116.877C51.6945 117.42 52.4132 117.691 53.2492 117.691C54.0265 117.691 54.6865 117.493 55.2292 117.097C55.7719 116.686 56.0432 116.129 56.0432 115.425C56.0432 114.78 55.8012 114.252 55.3172 113.841C54.8479 113.416 54.0192 112.99 52.8312 112.565L51.8412 112.213C50.7852 111.846 49.8979 111.318 49.1792 110.629C48.4605 109.94 48.1012 109.03 48.1012 107.901C48.1012 107.124 48.3139 106.405 48.7392 105.745C49.1645 105.085 49.7512 104.564 50.4992 104.183C51.2619 103.787 52.1199 103.589 53.0732 103.589C54.4519 103.589 55.5519 103.926 56.3732 104.601C57.1945 105.261 57.7445 106.009 58.0232 106.845L55.8012 107.791C55.6399 107.292 55.3319 106.852 54.8772 106.471C54.4225 106.09 53.8359 105.899 53.1172 105.899C52.3985 105.899 51.7899 106.082 51.2912 106.449C50.8072 106.816 50.5652 107.285 50.5652 107.857C50.5652 108.4 50.7852 108.847 51.2252 109.199C51.6652 109.551 52.3545 109.888 53.2932 110.211L54.2832 110.541C55.6325 111.01 56.6739 111.626 57.4072 112.389C58.1552 113.137 58.5292 114.142 58.5292 115.403C58.5292 116.43 58.2652 117.295 57.7372 117.999C57.2092 118.688 56.5345 119.202 55.7132 119.539C54.9065 119.876 54.0705 120.045 53.2052 120.045ZM60.2045 108.473H62.5145V109.947H62.6245C62.9471 109.434 63.4238 109.001 64.0545 108.649C64.6851 108.297 65.3965 108.121 66.1885 108.121C67.2005 108.121 68.1171 108.378 68.9385 108.891C69.7598 109.404 70.4051 110.116 70.8745 111.025C71.3585 111.92 71.6005 112.939 71.6005 114.083C71.6005 115.227 71.3585 116.254 70.8745 117.163C70.4051 118.058 69.7598 118.762 68.9385 119.275C68.1171 119.788 67.2005 120.045 66.1885 120.045C65.3965 120.045 64.6851 119.869 64.0545 119.517C63.4238 119.165 62.9471 118.74 62.6245 118.241H62.5145L62.6245 119.803V124.445H60.2045V108.473ZM65.8365 117.823C66.4231 117.823 66.9731 117.669 67.4865 117.361C67.9998 117.053 68.4105 116.613 68.7185 116.041C69.0265 115.469 69.1805 114.816 69.1805 114.083C69.1805 113.35 69.0265 112.704 68.7185 112.147C68.4105 111.575 67.9998 111.135 67.4865 110.827C66.9731 110.519 66.4231 110.365 65.8365 110.365C65.2498 110.365 64.6998 110.519 64.1865 110.827C63.6878 111.135 63.2845 111.575 62.9765 112.147C62.6685 112.704 62.5145 113.35 62.5145 114.083C62.5145 114.816 62.6685 115.469 62.9765 116.041C63.2845 116.613 63.6878 117.053 64.1865 117.361C64.6998 117.669 65.2498 117.823 65.8365 117.823ZM78.2721 120.045C77.1721 120.045 76.1821 119.788 75.3021 119.275C74.4368 118.762 73.7548 118.058 73.2561 117.163C72.7721 116.254 72.5301 115.234 72.5301 114.105C72.5301 113.034 72.7648 112.044 73.2341 111.135C73.7181 110.211 74.3855 109.478 75.2361 108.935C76.0868 108.392 77.0548 108.121 78.1401 108.121C79.2695 108.121 80.2448 108.37 81.0661 108.869C81.9021 109.368 82.5328 110.05 82.9581 110.915C83.3981 111.78 83.6181 112.756 83.6181 113.841C83.6181 114.046 83.5961 114.303 83.5521 114.611H74.9501C75.0381 115.652 75.4048 116.459 76.0501 117.031C76.7101 117.588 77.4728 117.867 78.3381 117.867C79.0275 117.867 79.6215 117.713 80.1201 117.405C80.6335 117.082 81.0441 116.65 81.3521 116.107L83.3981 117.075C82.8701 117.999 82.1808 118.725 81.3301 119.253C80.4795 119.781 79.4601 120.045 78.2721 120.045ZM81.1541 112.763C81.1248 112.367 81.0001 111.978 80.7801 111.597C80.5601 111.201 80.2228 110.871 79.7681 110.607C79.3281 110.343 78.7855 110.211 78.1401 110.211C77.3628 110.211 76.7028 110.446 76.1601 110.915C75.6321 111.37 75.2655 111.986 75.0601 112.763H81.1541ZM90.4613 120.045C89.3467 120.045 88.342 119.788 87.4473 119.275C86.5673 118.762 85.878 118.058 85.3793 117.163C84.8953 116.254 84.6533 115.227 84.6533 114.083C84.6533 112.939 84.8953 111.92 85.3793 111.025C85.878 110.116 86.5673 109.404 87.4473 108.891C88.342 108.378 89.3467 108.121 90.4613 108.121C91.6933 108.121 92.742 108.4 93.6073 108.957C94.4727 109.514 95.0887 110.27 95.4553 111.223L93.2333 112.147C92.7347 110.959 91.7887 110.365 90.3953 110.365C89.794 110.365 89.2367 110.519 88.7233 110.827C88.2247 111.135 87.8213 111.575 87.5133 112.147C87.22 112.704 87.0733 113.35 87.0733 114.083C87.0733 114.816 87.22 115.469 87.5133 116.041C87.8213 116.613 88.2247 117.053 88.7233 117.361C89.2367 117.669 89.794 117.823 90.3953 117.823C91.0993 117.823 91.7007 117.669 92.1993 117.361C92.7127 117.038 93.1013 116.584 93.3653 115.997L95.5433 116.943C95.118 117.896 94.4727 118.652 93.6073 119.209C92.742 119.766 91.6933 120.045 90.4613 120.045ZM98.3274 106.845C97.8727 106.845 97.484 106.691 97.1614 106.383C96.8534 106.06 96.6994 105.672 96.6994 105.217C96.6994 104.762 96.8534 104.381 97.1614 104.073C97.484 103.75 97.8727 103.589 98.3274 103.589C98.782 103.589 99.1634 103.75 99.4714 104.073C99.794 104.381 99.9554 104.762 99.9554 105.217C99.9554 105.672 99.794 106.06 99.4714 106.383C99.1634 106.691 98.782 106.845 98.3274 106.845ZM97.1174 108.473H99.5374V119.693H97.1174V108.473ZM105.301 120.045C104.495 120.045 103.776 119.891 103.145 119.583C102.515 119.26 102.023 118.813 101.671 118.241C101.319 117.654 101.143 116.994 101.143 116.261C101.143 115.102 101.576 114.186 102.441 113.511C103.321 112.836 104.429 112.499 105.763 112.499C106.423 112.499 107.017 112.565 107.545 112.697C108.073 112.814 108.491 112.946 108.799 113.093V112.521C108.799 111.832 108.543 111.274 108.029 110.849C107.516 110.409 106.856 110.189 106.049 110.189C105.477 110.189 104.935 110.314 104.421 110.563C103.923 110.812 103.519 111.157 103.211 111.597L101.517 110.299C102.016 109.61 102.661 109.074 103.453 108.693C104.245 108.312 105.125 108.121 106.093 108.121C107.721 108.121 108.975 108.524 109.855 109.331C110.735 110.123 111.175 111.245 111.175 112.697V119.693H108.799V118.351H108.689C108.367 118.835 107.912 119.238 107.325 119.561C106.739 119.884 106.064 120.045 105.301 120.045ZM105.719 118.043C106.306 118.043 106.834 117.904 107.303 117.625C107.773 117.346 108.139 116.972 108.403 116.503C108.667 116.034 108.799 115.528 108.799 114.985C108.462 114.794 108.066 114.64 107.611 114.523C107.171 114.406 106.709 114.347 106.225 114.347C105.316 114.347 104.649 114.53 104.223 114.897C103.798 115.249 103.585 115.711 103.585 116.283C103.585 116.796 103.783 117.222 104.179 117.559C104.575 117.882 105.089 118.043 105.719 118.043ZM113.153 103.941H115.573V119.693H113.153V103.941ZM37.1934 148.045C35.6681 148.045 34.2747 147.686 33.0134 146.967C31.7521 146.248 30.7621 145.258 30.0434 143.997C29.3247 142.736 28.9654 141.342 28.9654 139.817C28.9654 138.292 29.3247 136.898 30.0434 135.637C30.7621 134.376 31.7521 133.386 33.0134 132.667C34.2747 131.948 35.6681 131.589 37.1934 131.589C38.3814 131.589 39.4594 131.809 40.4274 132.249C41.4101 132.689 42.2754 133.327 43.0234 134.163L41.2634 135.857C40.7207 135.212 40.1194 134.735 39.4594 134.427C38.7994 134.104 38.0441 133.943 37.1934 133.943C36.1374 133.943 35.1694 134.185 34.2894 134.669C33.4241 135.153 32.7347 135.842 32.2214 136.737C31.7081 137.617 31.4514 138.644 31.4514 139.817C31.4514 140.99 31.7081 142.024 32.2214 142.919C32.7347 143.799 33.4241 144.481 34.2894 144.965C35.1694 145.449 36.1374 145.691 37.1934 145.691C38.9534 145.691 40.4494 144.958 41.6814 143.491L43.4634 145.207C42.7007 146.102 41.7841 146.798 40.7134 147.297C39.6427 147.796 38.4694 148.045 37.1934 148.045ZM48.2487 148.045C47.4421 148.045 46.7234 147.891 46.0927 147.583C45.4621 147.26 44.9707 146.813 44.6187 146.241C44.2667 145.654 44.0907 144.994 44.0907 144.261C44.0907 143.102 44.5234 142.186 45.3887 141.511C46.2687 140.836 47.3761 140.499 48.7107 140.499C49.3707 140.499 49.9647 140.565 50.4927 140.697C51.0207 140.814 51.4387 140.946 51.7467 141.093V140.521C51.7467 139.832 51.4901 139.274 50.9767 138.849C50.4634 138.409 49.8034 138.189 48.9967 138.189C48.4247 138.189 47.8821 138.314 47.3687 138.563C46.8701 138.812 46.4667 139.157 46.1587 139.597L44.4647 138.299C44.9634 137.61 45.6087 137.074 46.4007 136.693C47.1927 136.312 48.0727 136.121 49.0407 136.121C50.6687 136.121 51.9227 136.524 52.8027 137.331C53.6827 138.123 54.1227 139.245 54.1227 140.697V147.693H51.7467V146.351H51.6367C51.3141 146.835 50.8594 147.238 50.2727 147.561C49.6861 147.884 49.0114 148.045 48.2487 148.045ZM48.6667 146.043C49.2534 146.043 49.7814 145.904 50.2507 145.625C50.7201 145.346 51.0867 144.972 51.3507 144.503C51.6147 144.034 51.7467 143.528 51.7467 142.985C51.4094 142.794 51.0134 142.64 50.5587 142.523C50.1187 142.406 49.6567 142.347 49.1727 142.347C48.2634 142.347 47.5961 142.53 47.1707 142.897C46.7454 143.249 46.5327 143.711 46.5327 144.283C46.5327 144.796 46.7307 145.222 47.1267 145.559C47.5227 145.882 48.0361 146.043 48.6667 146.043ZM60.4832 147.869C59.9845 147.869 59.5152 147.788 59.0752 147.627C58.6352 147.466 58.2758 147.253 57.9972 146.989C57.3665 146.358 57.0512 145.5 57.0512 144.415V138.607H55.0931V136.473H57.0512V133.305H59.4712V136.473H62.1992V138.607H59.4712V143.887C59.4712 144.488 59.5885 144.914 59.8232 145.163C60.0432 145.456 60.4245 145.603 60.9672 145.603C61.2165 145.603 61.4365 145.574 61.6272 145.515C61.8178 145.442 62.0232 145.332 62.2432 145.185V147.539C61.7592 147.759 61.1725 147.869 60.4832 147.869ZM68.5367 148.045C67.4367 148.045 66.4467 147.788 65.5667 147.275C64.7014 146.762 64.0194 146.058 63.5207 145.163C63.0367 144.254 62.7947 143.234 62.7947 142.105C62.7947 141.034 63.0294 140.044 63.4987 139.135C63.9827 138.211 64.65 137.478 65.5007 136.935C66.3514 136.392 67.3194 136.121 68.4047 136.121C69.534 136.121 70.5094 136.37 71.3307 136.869C72.1667 137.368 72.7974 138.05 73.2227 138.915C73.6627 139.78 73.8827 140.756 73.8827 141.841C73.8827 142.046 73.8607 142.303 73.8167 142.611H65.2147C65.3027 143.652 65.6694 144.459 66.3147 145.031C66.9747 145.588 67.7374 145.867 68.6027 145.867C69.292 145.867 69.886 145.713 70.3847 145.405C70.898 145.082 71.3087 144.65 71.6167 144.107L73.6627 145.075C73.1347 145.999 72.4454 146.725 71.5947 147.253C70.744 147.781 69.7247 148.045 68.5367 148.045ZM71.4187 140.763C71.3894 140.367 71.2647 139.978 71.0447 139.597C70.8247 139.201 70.4874 138.871 70.0327 138.607C69.5927 138.343 69.05 138.211 68.4047 138.211C67.6274 138.211 66.9674 138.446 66.4247 138.915C65.8967 139.37 65.53 139.986 65.3247 140.763H71.4187ZM80.5939 152.797C79.2152 152.797 78.0712 152.482 77.1619 151.851C76.2672 151.22 75.6659 150.472 75.3579 149.607L77.6239 148.661C77.8586 149.248 78.2326 149.717 78.7459 150.069C79.2739 150.436 79.8899 150.619 80.5939 150.619C81.6206 150.619 82.4199 150.311 82.9919 149.695C83.5786 149.094 83.8719 148.243 83.8719 147.143V146.109H83.7399C83.3732 146.637 82.8819 147.055 82.2659 147.363C81.6646 147.656 80.9679 147.803 80.1759 147.803C79.2372 147.803 78.3646 147.561 77.5579 147.077C76.7512 146.593 76.1059 145.911 75.6219 145.031C75.1526 144.136 74.9179 143.117 74.9179 141.973C74.9179 140.829 75.1526 139.817 75.6219 138.937C76.1059 138.042 76.7512 137.353 77.5579 136.869C78.3646 136.37 79.2372 136.121 80.1759 136.121C80.9532 136.121 81.6499 136.275 82.2659 136.583C82.8819 136.891 83.3732 137.309 83.7399 137.837H83.8719V136.473H86.1819V147.077C86.1819 148.294 85.9472 149.328 85.4779 150.179C85.0086 151.044 84.3486 151.697 83.4979 152.137C82.6619 152.577 81.6939 152.797 80.5939 152.797ZM80.6159 145.603C81.2026 145.603 81.7452 145.464 82.2439 145.185C82.7426 144.892 83.1386 144.474 83.4319 143.931C83.7252 143.374 83.8719 142.721 83.8719 141.973C83.8719 140.829 83.5566 139.942 82.9259 139.311C82.3099 138.666 81.5399 138.343 80.6159 138.343C80.0146 138.343 79.4646 138.49 78.9659 138.783C78.4672 139.062 78.0712 139.472 77.7779 140.015C77.4846 140.558 77.3379 141.21 77.3379 141.973C77.3379 142.736 77.4846 143.388 77.7779 143.931C78.0712 144.474 78.4672 144.892 78.9659 145.185C79.4646 145.464 80.0146 145.603 80.6159 145.603ZM93.5167 148.045C92.3873 148.045 91.3753 147.788 90.4807 147.275C89.586 146.747 88.8893 146.028 88.3907 145.119C87.892 144.21 87.6427 143.198 87.6427 142.083C87.6427 140.968 87.892 139.956 88.3907 139.047C88.8893 138.138 89.586 137.426 90.4807 136.913C91.3753 136.385 92.3873 136.121 93.5167 136.121C94.646 136.121 95.658 136.385 96.5527 136.913C97.4473 137.441 98.144 138.16 98.6427 139.069C99.1413 139.978 99.3907 140.983 99.3907 142.083C99.3907 143.198 99.1413 144.21 98.6427 145.119C98.144 146.028 97.4473 146.747 96.5527 147.275C95.658 147.788 94.646 148.045 93.5167 148.045ZM93.5167 145.823C94.1327 145.823 94.7047 145.676 95.2327 145.383C95.7607 145.075 96.1787 144.642 96.4867 144.085C96.8093 143.513 96.9707 142.846 96.9707 142.083C96.9707 141.32 96.8093 140.66 96.4867 140.103C96.1787 139.546 95.7607 139.12 95.2327 138.827C94.7047 138.519 94.1327 138.365 93.5167 138.365C92.9007 138.365 92.3287 138.519 91.8007 138.827C91.2727 139.12 90.8473 139.546 90.5247 140.103C90.2167 140.66 90.0627 141.32 90.0627 142.083C90.0627 142.846 90.2167 143.513 90.5247 144.085C90.8473 144.642 91.2727 145.075 91.8007 145.383C92.3287 145.676 92.9007 145.823 93.5167 145.823ZM100.747 136.473H103.057V138.123H103.167C103.416 137.551 103.849 137.082 104.465 136.715C105.081 136.334 105.734 136.143 106.423 136.143C106.966 136.143 107.42 136.216 107.787 136.363V138.871C107.142 138.636 106.562 138.519 106.049 138.519C105.492 138.519 104.993 138.666 104.553 138.959C104.128 139.252 103.79 139.648 103.541 140.147C103.292 140.631 103.167 141.166 103.167 141.753V147.693H100.747V136.473ZM112.908 147.077L108.244 136.473H110.95L114.118 144.107H114.206L117.286 136.473H119.948L113.018 152.445H110.466L112.908 147.077ZM125.013 145.405C125.482 144.936 126.406 144.012 127.785 142.633C129.163 141.24 130.08 140.294 130.535 139.795C131.151 139.135 131.569 138.6 131.789 138.189C132.023 137.778 132.141 137.287 132.141 136.715C132.141 136.143 131.921 135.644 131.481 135.219C131.041 134.794 130.447 134.581 129.699 134.581C129.009 134.581 128.445 134.786 128.005 135.197C127.579 135.593 127.301 136.055 127.169 136.583L124.969 135.681C125.115 135.153 125.387 134.632 125.783 134.119C126.193 133.606 126.736 133.173 127.411 132.821C128.085 132.469 128.863 132.293 129.743 132.293C130.696 132.293 131.539 132.491 132.273 132.887C133.021 133.268 133.593 133.796 133.989 134.471C134.399 135.131 134.605 135.864 134.605 136.671C134.605 137.536 134.377 138.372 133.923 139.179C133.483 139.971 132.918 140.712 132.229 141.401C131.935 141.68 131.195 142.413 130.007 143.601L128.203 145.405L128.247 145.493H134.803V147.693H125.013V145.405Z" fill="#1E1E1E"/>
<rect x="10.8653" y="176.635" width="145.546" height="43.0529" rx="7.79406" fill="#1E1E1E" stroke="#1E1E1E" stroke-width="0.742292"/>
<rect x="8.8731" y="174.925" width="145.546" height="43.0529" rx="7.79406" fill="white" stroke="#1E1E1E" stroke-width="0.742292"/>
<path d="M45.0465 191.829C45.5598 192.386 45.8972 193.09 46.0585 193.941H47.4665V195.613H46.0585C45.8825 196.683 45.3912 197.563 44.5845 198.253C43.7778 198.942 42.8392 199.338 41.7685 199.441H41.6145L41.5925 199.617L46.8945 205.029V205.205H43.0885L37.5445 199.507V196.933H41.1525C41.6512 196.933 42.0912 196.815 42.4725 196.581C42.8685 196.346 43.1472 196.023 43.3085 195.613H35.7405V193.941H43.3085C43.1325 193.545 42.8612 193.229 42.4945 192.995C42.1278 192.745 41.6878 192.621 41.1745 192.621H35.7405V190.157H47.4665V191.829H45.0465ZM58.2528 205.557C57.4608 205.557 56.6982 205.41 55.9648 205.117C55.2315 204.809 54.5862 204.354 54.0288 203.753C53.4862 203.137 53.1122 202.381 52.9068 201.487L55.5028 200.475C55.6788 201.223 56.0015 201.817 56.4708 202.257C56.9402 202.682 57.5268 202.895 58.2308 202.895C58.9348 202.895 59.5215 202.66 59.9908 202.191C60.4602 201.721 60.6948 201.127 60.6948 200.409C60.6948 199.705 60.4602 199.118 59.9908 198.649C59.5362 198.165 58.9495 197.923 58.2308 197.923C57.7908 197.923 57.3875 198.018 57.0208 198.209C56.6688 198.385 56.3682 198.627 56.1188 198.935L53.3248 197.681L54.1828 190.157H62.6748V192.687H56.5808L56.0308 196.207L56.2068 196.251C56.9402 195.649 57.8128 195.349 58.8248 195.349C59.6608 195.349 60.4382 195.561 61.1568 195.987C61.8902 196.412 62.4768 197.013 62.9168 197.791C63.3568 198.553 63.5768 199.426 63.5768 200.409C63.5768 201.406 63.3495 202.293 62.8948 203.071C62.4402 203.848 61.8095 204.457 61.0028 204.897C60.1962 205.337 59.2795 205.557 58.2528 205.557ZM71.5395 205.557C70.2781 205.557 69.1708 205.219 68.2175 204.545C67.2641 203.855 66.5235 202.917 65.9955 201.729C65.4821 200.526 65.2255 199.177 65.2255 197.681C65.2255 196.185 65.4821 194.843 65.9955 193.655C66.5235 192.452 67.2641 191.513 68.2175 190.839C69.1708 190.149 70.2781 189.805 71.5395 189.805C72.8008 189.805 73.9081 190.149 74.8615 190.839C75.8148 191.513 76.5481 192.452 77.0615 193.655C77.5895 194.843 77.8535 196.185 77.8535 197.681C77.8535 199.177 77.5895 200.526 77.0615 201.729C76.5481 202.917 75.8148 203.855 74.8615 204.545C73.9081 205.219 72.8008 205.557 71.5395 205.557ZM71.5395 202.851C72.2435 202.851 72.8521 202.631 73.3655 202.191C73.8935 201.736 74.2895 201.12 74.5535 200.343C74.8321 199.551 74.9715 198.663 74.9715 197.681C74.9715 196.155 74.6635 194.916 74.0475 193.963C73.4315 192.995 72.5955 192.511 71.5395 192.511C70.4981 192.511 69.6695 192.995 69.0535 193.963C68.4375 194.931 68.1295 196.17 68.1295 197.681C68.1295 198.663 68.2615 199.551 68.5255 200.343C68.8041 201.12 69.2001 201.736 69.7135 202.191C70.2415 202.631 70.8501 202.851 71.5395 202.851ZM79.4552 207.163L80.7752 205.161C80.4378 205.029 80.1518 204.809 79.9172 204.501C79.6972 204.193 79.5872 203.833 79.5872 203.423C79.5872 202.895 79.7705 202.447 80.1372 202.081C80.5185 201.714 80.9732 201.531 81.5012 201.531C82.0292 201.531 82.4765 201.714 82.8432 202.081C83.2245 202.447 83.4152 202.895 83.4152 203.423C83.4152 203.687 83.3712 203.921 83.2832 204.127C83.1952 204.332 83.0485 204.589 82.8432 204.897L80.7532 208.021L79.4552 207.163ZM91.4031 205.557C90.1417 205.557 89.0344 205.219 88.0811 204.545C87.1277 203.855 86.3871 202.917 85.8591 201.729C85.3457 200.526 85.0891 199.177 85.0891 197.681C85.0891 196.185 85.3457 194.843 85.8591 193.655C86.3871 192.452 87.1277 191.513 88.0811 190.839C89.0344 190.149 90.1417 189.805 91.4031 189.805C92.6644 189.805 93.7717 190.149 94.7251 190.839C95.6784 191.513 96.4117 192.452 96.9251 193.655C97.4531 194.843 97.7171 196.185 97.7171 197.681C97.7171 199.177 97.4531 200.526 96.9251 201.729C96.4117 202.917 95.6784 203.855 94.7251 204.545C93.7717 205.219 92.6644 205.557 91.4031 205.557ZM91.4031 202.851C92.1071 202.851 92.7157 202.631 93.2291 202.191C93.7571 201.736 94.1531 201.12 94.4171 200.343C94.6957 199.551 94.8351 198.663 94.8351 197.681C94.8351 196.155 94.5271 194.916 93.9111 193.963C93.2951 192.995 92.4591 192.511 91.4031 192.511C90.3617 192.511 89.5331 192.995 88.9171 193.963C88.3011 194.931 87.9931 196.17 87.9931 197.681C87.9931 198.663 88.1251 199.551 88.3891 200.343C88.6677 201.12 89.0637 201.736 89.5771 202.191C90.1051 202.631 90.7137 202.851 91.4031 202.851ZM105.589 205.557C104.327 205.557 103.22 205.219 102.267 204.545C101.313 203.855 100.573 202.917 100.045 201.729C99.5314 200.526 99.2748 199.177 99.2748 197.681C99.2748 196.185 99.5314 194.843 100.045 193.655C100.573 192.452 101.313 191.513 102.267 190.839C103.22 190.149 104.327 189.805 105.589 189.805C106.85 189.805 107.957 190.149 108.911 190.839C109.864 191.513 110.597 192.452 111.111 193.655C111.639 194.843 111.903 196.185 111.903 197.681C111.903 199.177 111.639 200.526 111.111 201.729C110.597 202.917 109.864 203.855 108.911 204.545C107.957 205.219 106.85 205.557 105.589 205.557ZM105.589 202.851C106.293 202.851 106.901 202.631 107.415 202.191C107.943 201.736 108.339 201.12 108.603 200.343C108.881 199.551 109.021 198.663 109.021 197.681C109.021 196.155 108.713 194.916 108.097 193.963C107.481 192.995 106.645 192.511 105.589 192.511C104.547 192.511 103.719 192.995 103.103 193.963C102.487 194.931 102.179 196.17 102.179 197.681C102.179 198.663 102.311 199.551 102.575 200.343C102.853 201.12 103.249 201.736 103.763 202.191C104.291 202.631 104.899 202.851 105.589 202.851ZM119.774 205.557C118.513 205.557 117.406 205.219 116.452 204.545C115.499 203.855 114.758 202.917 114.23 201.729C113.717 200.526 113.46 199.177 113.46 197.681C113.46 196.185 113.717 194.843 114.23 193.655C114.758 192.452 115.499 191.513 116.452 190.839C117.406 190.149 118.513 189.805 119.774 189.805C121.036 189.805 122.143 190.149 123.096 190.839C124.05 191.513 124.783 192.452 125.296 193.655C125.824 194.843 126.088 196.185 126.088 197.681C126.088 199.177 125.824 200.526 125.296 201.729C124.783 202.917 124.05 203.855 123.096 204.545C122.143 205.219 121.036 205.557 119.774 205.557ZM119.774 202.851C120.478 202.851 121.087 202.631 121.6 202.191C122.128 201.736 122.524 201.12 122.788 200.343C123.067 199.551 123.206 198.663 123.206 197.681C123.206 196.155 122.898 194.916 122.282 193.963C121.666 192.995 120.83 192.511 119.774 192.511C118.733 192.511 117.904 192.995 117.288 193.963C116.672 194.931 116.364 196.17 116.364 197.681C116.364 198.663 116.496 199.551 116.76 200.343C117.039 201.12 117.435 201.736 117.948 202.191C118.476 202.631 119.085 202.851 119.774 202.851Z" fill="#1E1E1E"/>
</svg>
