<svg width="345" height="160" viewBox="0 0 345 160" fill="none" xmlns="http://www.w3.org/2000/svg">
<rect x="0.5" y="0.5" width="343.803" height="158.894" rx="17.5" fill="white" stroke="#1E1E1E"/>
<path d="M156.362 48.2758H158.43L161.29 59.8478L161.554 60.9258H161.642L161.972 59.8478L165.492 48.2758H167.428L170.794 59.8478L171.124 60.9258H171.212L174.314 48.2758H176.382L172.136 64.0278H170.2L166.856 52.6318L166.504 51.3998H166.416L166.042 52.6318L162.566 64.0278H160.63L156.362 48.2758ZM178.16 50.7398C177.793 50.7398 177.478 50.6078 177.214 50.3438C176.95 50.0798 176.818 49.7645 176.818 49.3978C176.818 49.0312 176.95 48.7232 177.214 48.4738C177.478 48.2098 177.793 48.0778 178.16 48.0778C178.527 48.0778 178.842 48.2098 179.106 48.4738C179.37 48.7232 179.502 49.0312 179.502 49.3978C179.502 49.7645 179.37 50.0798 179.106 50.3438C178.857 50.6078 178.541 50.7398 178.16 50.7398ZM177.236 52.8078H179.084V64.0278H177.236V52.8078ZM181.363 52.8078H183.145V54.4578H183.233C183.541 53.9005 184.032 53.4312 184.707 53.0498C185.382 52.6538 186.1 52.4558 186.863 52.4558C188.212 52.4558 189.239 52.8518 189.943 53.6438C190.662 54.4212 191.021 55.4845 191.021 56.8338V64.0278H189.151V57.1198C189.151 56.0785 188.902 55.3232 188.403 54.8538C187.904 54.3845 187.222 54.1498 186.357 54.1498C185.756 54.1498 185.213 54.3185 184.729 54.6558C184.26 54.9932 183.893 55.4405 183.629 55.9978C183.365 56.5405 183.233 57.1125 183.233 57.7138V64.0278H181.363V52.8078ZM193.035 52.8078H194.817V54.4578H194.905C195.213 53.9005 195.704 53.4312 196.379 53.0498C197.054 52.6538 197.772 52.4558 198.535 52.4558C199.884 52.4558 200.911 52.8518 201.615 53.6438C202.334 54.4212 202.693 55.4845 202.693 56.8338V64.0278H200.823V57.1198C200.823 56.0785 200.574 55.3232 200.075 54.8538C199.576 54.3845 198.894 54.1498 198.029 54.1498C197.428 54.1498 196.885 54.3185 196.401 54.6558C195.932 54.9932 195.565 55.4405 195.301 55.9978C195.037 56.5405 194.905 57.1125 194.905 57.7138V64.0278H193.035V52.8078ZM209.701 64.3798C208.63 64.3798 207.67 64.1232 206.819 63.6098C205.968 63.0965 205.301 62.3925 204.817 61.4978C204.348 60.5885 204.113 59.5692 204.113 58.4398C204.113 57.3545 204.333 56.3572 204.773 55.4478C205.228 54.5385 205.866 53.8125 206.687 53.2698C207.508 52.7272 208.462 52.4558 209.547 52.4558C210.647 52.4558 211.6 52.7052 212.407 53.2038C213.214 53.6878 213.83 54.3625 214.255 55.2278C214.695 56.0932 214.915 57.0832 214.915 58.1978C214.915 58.4178 214.893 58.6085 214.849 58.7698H205.983C206.027 59.6205 206.232 60.3392 206.599 60.9258C206.966 61.5125 207.428 61.9525 207.985 62.2458C208.557 62.5392 209.151 62.6858 209.767 62.6858C211.204 62.6858 212.312 62.0112 213.089 60.6618L214.673 61.4318C214.189 62.3412 213.529 63.0598 212.693 63.5878C211.872 64.1158 210.874 64.3798 209.701 64.3798ZM212.935 57.2298C212.906 56.7605 212.774 56.2912 212.539 55.8218C212.304 55.3525 211.93 54.9565 211.417 54.6338C210.918 54.3112 210.288 54.1498 209.525 54.1498C208.645 54.1498 207.897 54.4358 207.281 55.0078C206.68 55.5652 206.284 56.3058 206.093 57.2298H212.935ZM216.443 52.8078H218.225V54.6118H218.313C218.533 53.9958 218.959 53.4898 219.589 53.0938C220.22 52.6832 220.88 52.4778 221.569 52.4778C222.083 52.4778 222.523 52.5512 222.889 52.6978V54.7218C222.42 54.4872 221.892 54.3698 221.305 54.3698C220.763 54.3698 220.264 54.5238 219.809 54.8318C219.355 55.1398 218.988 55.5578 218.709 56.0858C218.445 56.5992 218.313 57.1565 218.313 57.7578V64.0278H216.443V52.8078ZM227.52 64.3798C226.317 64.3798 225.312 64.1012 224.506 63.5438C223.699 62.9718 223.127 62.2458 222.79 61.3658L224.462 60.6178C224.74 61.2925 225.151 61.8132 225.694 62.1798C226.251 62.5465 226.86 62.7298 227.52 62.7298C228.224 62.7298 228.825 62.5905 229.324 62.3118C229.822 62.0185 230.072 61.6078 230.072 61.0798C230.072 60.6105 229.874 60.2365 229.478 59.9578C229.082 59.6645 228.458 59.4152 227.608 59.2098L226.244 58.8578C225.349 58.6378 224.616 58.2638 224.044 57.7358C223.472 57.2078 223.186 56.5258 223.186 55.6898C223.186 55.0445 223.376 54.4798 223.758 53.9958C224.154 53.4972 224.674 53.1158 225.32 52.8518C225.965 52.5878 226.662 52.4558 227.41 52.4558C228.392 52.4558 229.265 52.6685 230.028 53.0938C230.805 53.5192 231.355 54.1132 231.678 54.8758L230.05 55.6238C229.551 54.6265 228.664 54.1278 227.388 54.1278C226.772 54.1278 226.229 54.2745 225.76 54.5678C225.305 54.8465 225.078 55.2058 225.078 55.6458C225.078 56.0565 225.239 56.3938 225.562 56.6578C225.884 56.9072 226.368 57.1125 227.014 57.2738L228.642 57.6918C229.742 57.9705 230.57 58.3885 231.128 58.9458C231.685 59.4885 231.964 60.1558 231.964 60.9478C231.964 61.6372 231.766 62.2458 231.37 62.7738C230.974 63.2872 230.438 63.6832 229.764 63.9618C229.089 64.2405 228.341 64.3798 227.52 64.3798Z" fill="#1E1E1E"/>
<rect x="155.988" y="79.9531" width="155.752" height="45.4375" rx="7.44504" fill="#4285F4"/>
<path d="M185.836 95.7959C186.349 96.3532 186.686 97.0572 186.848 97.9079H188.256V99.5799H186.848C186.672 100.651 186.18 101.531 185.374 102.22C184.567 102.909 183.628 103.305 182.558 103.408H182.404L182.382 103.584L187.684 108.996V109.172H183.878L178.334 103.474V100.9H181.942C182.44 100.9 182.88 100.783 183.262 100.548C183.658 100.313 183.936 99.9905 184.098 99.5799H176.53V97.9079H184.098C183.922 97.5119 183.65 97.1965 183.284 96.9619C182.917 96.7125 182.477 96.5879 181.964 96.5879H176.53V94.1239H188.256V95.7959H185.836ZM196.13 106.4H189.2V104.068L195.888 94.1239H199.012V103.716H200.882V106.4H199.012V109.172H196.13V106.4ZM196.13 103.716V98.4139H195.954L192.39 103.716H196.13ZM202.443 111.13L203.763 109.128C203.426 108.996 203.14 108.776 202.905 108.468C202.685 108.16 202.575 107.801 202.575 107.39C202.575 106.862 202.758 106.415 203.125 106.048C203.506 105.681 203.961 105.498 204.489 105.498C205.017 105.498 205.464 105.681 205.831 106.048C206.212 106.415 206.403 106.862 206.403 107.39C206.403 107.654 206.359 107.889 206.271 108.094C206.183 108.299 206.036 108.556 205.831 108.864L203.741 111.988L202.443 111.13ZM214.391 109.524C213.13 109.524 212.022 109.187 211.069 108.512C210.116 107.823 209.375 106.884 208.847 105.696C208.334 104.493 208.077 103.144 208.077 101.648C208.077 100.152 208.334 98.8099 208.847 97.6219C209.375 96.4192 210.116 95.4805 211.069 94.8059C212.022 94.1165 213.13 93.7719 214.391 93.7719C215.652 93.7719 216.76 94.1165 217.713 94.8059C218.666 95.4805 219.4 96.4192 219.913 97.6219C220.441 98.8099 220.705 100.152 220.705 101.648C220.705 103.144 220.441 104.493 219.913 105.696C219.4 106.884 218.666 107.823 217.713 108.512C216.76 109.187 215.652 109.524 214.391 109.524ZM214.391 106.818C215.095 106.818 215.704 106.598 216.217 106.158C216.745 105.703 217.141 105.087 217.405 104.31C217.684 103.518 217.823 102.631 217.823 101.648C217.823 100.123 217.515 98.8832 216.899 97.9299C216.283 96.9619 215.447 96.4779 214.391 96.4779C213.35 96.4779 212.521 96.9619 211.905 97.9299C211.289 98.8979 210.981 100.137 210.981 101.648C210.981 102.631 211.113 103.518 211.377 104.31C211.656 105.087 212.052 105.703 212.565 106.158C213.093 106.598 213.702 106.818 214.391 106.818ZM228.577 109.524C227.315 109.524 226.208 109.187 225.255 108.512C224.301 107.823 223.561 106.884 223.033 105.696C222.519 104.493 222.263 103.144 222.263 101.648C222.263 100.152 222.519 98.8099 223.033 97.6219C223.561 96.4192 224.301 95.4805 225.255 94.8059C226.208 94.1165 227.315 93.7719 228.577 93.7719C229.838 93.7719 230.945 94.1165 231.899 94.8059C232.852 95.4805 233.585 96.4192 234.099 97.6219C234.627 98.8099 234.891 100.152 234.891 101.648C234.891 103.144 234.627 104.493 234.099 105.696C233.585 106.884 232.852 107.823 231.899 108.512C230.945 109.187 229.838 109.524 228.577 109.524ZM228.577 106.818C229.281 106.818 229.889 106.598 230.403 106.158C230.931 105.703 231.327 105.087 231.591 104.31C231.869 103.518 232.009 102.631 232.009 101.648C232.009 100.123 231.701 98.8832 231.085 97.9299C230.469 96.9619 229.633 96.4779 228.577 96.4779C227.535 96.4779 226.707 96.9619 226.091 97.9299C225.475 98.8979 225.167 100.137 225.167 101.648C225.167 102.631 225.299 103.518 225.563 104.31C225.841 105.087 226.237 105.703 226.751 106.158C227.279 106.598 227.887 106.818 228.577 106.818ZM236.492 111.13L237.812 109.128C237.475 108.996 237.189 108.776 236.954 108.468C236.734 108.16 236.624 107.801 236.624 107.39C236.624 106.862 236.808 106.415 237.174 106.048C237.556 105.681 238.01 105.498 238.538 105.498C239.066 105.498 239.514 105.681 239.88 106.048C240.262 106.415 240.452 106.862 240.452 107.39C240.452 107.654 240.408 107.889 240.32 108.094C240.232 108.299 240.086 108.556 239.88 108.864L237.79 111.988L236.492 111.13ZM248.44 109.524C247.179 109.524 246.072 109.187 245.118 108.512C244.165 107.823 243.424 106.884 242.896 105.696C242.383 104.493 242.126 103.144 242.126 101.648C242.126 100.152 242.383 98.8099 242.896 97.6219C243.424 96.4192 244.165 95.4805 245.118 94.8059C246.072 94.1165 247.179 93.7719 248.44 93.7719C249.702 93.7719 250.809 94.1165 251.762 94.8059C252.716 95.4805 253.449 96.4192 253.962 97.6219C254.49 98.8099 254.754 100.152 254.754 101.648C254.754 103.144 254.49 104.493 253.962 105.696C253.449 106.884 252.716 107.823 251.762 108.512C250.809 109.187 249.702 109.524 248.44 109.524ZM248.44 106.818C249.144 106.818 249.753 106.598 250.266 106.158C250.794 105.703 251.19 105.087 251.454 104.31C251.733 103.518 251.872 102.631 251.872 101.648C251.872 100.123 251.564 98.8832 250.948 97.9299C250.332 96.9619 249.496 96.4779 248.44 96.4779C247.399 96.4779 246.57 96.9619 245.954 97.9299C245.338 98.8979 245.03 100.137 245.03 101.648C245.03 102.631 245.162 103.518 245.426 104.31C245.705 105.087 246.101 105.703 246.614 106.158C247.142 106.598 247.751 106.818 248.44 106.818ZM262.626 109.524C261.365 109.524 260.257 109.187 259.304 108.512C258.351 107.823 257.61 106.884 257.082 105.696C256.569 104.493 256.312 103.144 256.312 101.648C256.312 100.152 256.569 98.8099 257.082 97.6219C257.61 96.4192 258.351 95.4805 259.304 94.8059C260.257 94.1165 261.365 93.7719 262.626 93.7719C263.887 93.7719 264.995 94.1165 265.948 94.8059C266.901 95.4805 267.635 96.4192 268.148 97.6219C268.676 98.8099 268.94 100.152 268.94 101.648C268.94 103.144 268.676 104.493 268.148 105.696C267.635 106.884 266.901 107.823 265.948 108.512C264.995 109.187 263.887 109.524 262.626 109.524ZM262.626 106.818C263.33 106.818 263.939 106.598 264.452 106.158C264.98 105.703 265.376 105.087 265.64 104.31C265.919 103.518 266.058 102.631 266.058 101.648C266.058 100.123 265.75 98.8832 265.134 97.9299C264.518 96.9619 263.682 96.4779 262.626 96.4779C261.585 96.4779 260.756 96.9619 260.14 97.9299C259.524 98.8979 259.216 100.137 259.216 101.648C259.216 102.631 259.348 103.518 259.612 104.31C259.891 105.087 260.287 105.703 260.8 106.158C261.328 106.598 261.937 106.818 262.626 106.818ZM276.812 109.524C275.55 109.524 274.443 109.187 273.49 108.512C272.536 107.823 271.796 106.884 271.268 105.696C270.754 104.493 270.498 103.144 270.498 101.648C270.498 100.152 270.754 98.8099 271.268 97.6219C271.796 96.4192 272.536 95.4805 273.49 94.8059C274.443 94.1165 275.55 93.7719 276.812 93.7719C278.073 93.7719 279.18 94.1165 280.134 94.8059C281.087 95.4805 281.82 96.4192 282.334 97.6219C282.862 98.8099 283.126 100.152 283.126 101.648C283.126 103.144 282.862 104.493 282.334 105.696C281.82 106.884 281.087 107.823 280.134 108.512C279.18 109.187 278.073 109.524 276.812 109.524ZM276.812 106.818C277.516 106.818 278.124 106.598 278.638 106.158C279.166 105.703 279.562 105.087 279.826 104.31C280.104 103.518 280.244 102.631 280.244 101.648C280.244 100.123 279.936 98.8832 279.32 97.9299C278.704 96.9619 277.868 96.4779 276.812 96.4779C275.77 96.4779 274.942 96.9619 274.326 97.9299C273.71 98.8979 273.402 100.137 273.402 101.648C273.402 102.631 273.534 103.518 273.798 104.31C274.076 105.087 274.472 105.703 274.986 106.158C275.514 106.598 276.122 106.818 276.812 106.818Z" fill="white"/>
<ellipse cx="85.9758" cy="82.722" rx="51.0246" ry="50.0472" fill="#FFDB34" fill-opacity="0.45"/>
<path d="M77.9831 98.7554H93.9601C95.4246 98.7554 96.6229 99.9536 96.6229 101.418V106.078H75.3203V101.418C75.3203 99.9536 76.5186 98.7554 77.9831 98.7554Z" fill="url(#paint0_linear_188_46)"/>
<path d="M73.6614 106.078H98.2925C100.316 106.078 101.954 107.716 101.954 109.74C101.954 111.763 100.316 113.401 98.2925 113.401H73.6614C71.6376 113.401 70 111.763 70 109.74C70 107.716 71.6376 106.078 73.6614 106.078Z" fill="url(#paint1_linear_188_46)"/>
<path d="M100.518 63.1391C103.779 59.8771 108.879 59.3179 111.582 59.278C112.66 59.2647 113.446 60.0502 113.432 61.1287C113.379 63.8181 112.833 68.9174 109.571 72.1927C106.309 75.468 101.21 76.0138 98.5071 76.0538C97.4286 76.0671 96.6431 75.2816 96.6564 74.2031C96.7097 71.5137 97.2556 66.4011 100.518 63.1391Z" fill="url(#paint2_linear_188_46)"/>
<path d="M103.6 69.5594C107.608 67.2561 112.667 68.0549 115.29 68.7073C116.342 68.9736 116.887 69.9322 116.595 70.9707C115.849 73.5537 113.985 78.3334 109.977 80.6368C105.97 82.9401 100.911 82.1413 98.2877 81.4889C97.2358 81.2226 96.69 80.264 96.9829 79.2255C97.7285 76.6426 99.6058 71.8628 103.6 69.5594Z" fill="url(#paint3_linear_188_46)"/>
<path d="M105.393 75.2297C109.96 74.5108 114.407 77.0671 116.604 78.6115C117.496 79.2373 117.669 80.329 117.003 81.1945C115.379 83.338 111.93 87.1326 107.364 87.8515C102.797 88.5705 98.3499 86.0142 96.1531 84.4697C95.2611 83.844 95.088 82.7522 95.7537 81.8868C97.378 79.7432 100.826 75.9487 105.393 75.2297Z" fill="url(#paint4_linear_188_46)"/>
<path d="M102.704 80.4623C107.058 82.0067 109.761 86.3604 110.959 88.7703C111.439 89.7422 111.079 90.7807 110.094 91.2334C107.644 92.3518 102.798 94.056 98.4439 92.5116C94.0902 90.9671 91.3875 86.6001 90.1892 84.2035C89.7099 83.2316 90.0694 82.1798 91.0546 81.7404C93.5044 80.6087 98.3507 78.9178 102.704 80.4623Z" fill="url(#paint5_linear_188_46)"/>
<path d="M71.4363 63.1391C68.1744 59.8771 63.0751 59.3179 60.3723 59.278C59.2939 59.2647 58.5083 60.0502 58.5217 61.1287C58.5749 63.8181 59.1208 68.9174 62.3827 72.1927C65.6447 75.468 70.744 76.0138 73.4468 76.0538C74.5252 76.0671 75.3108 75.2816 75.2974 74.2031C75.2442 71.5137 74.6983 66.4011 71.4363 63.1391Z" fill="url(#paint6_linear_188_46)"/>
<path d="M68.3466 69.5594C64.3391 67.2561 59.2664 68.0549 56.6568 68.7073C55.605 68.9736 55.0591 69.9322 55.352 70.9707C56.0976 73.5537 57.9616 78.3334 61.9691 80.6368C65.9767 82.9401 71.0494 82.1413 73.6589 81.4889C74.7108 81.2226 75.2699 80.264 74.9637 79.2255C74.2048 76.6426 72.3408 71.8628 68.3466 69.5594Z" fill="url(#paint7_linear_188_46)"/>
<path d="M66.5589 75.2297C62.0055 74.5108 57.5586 77.0671 55.3484 78.6115C54.4564 79.2373 54.2833 80.329 54.949 81.1945C56.5733 83.338 60.0217 87.1326 64.5884 87.8515C69.1552 88.5705 73.6021 86.0142 75.7989 84.4697C76.691 83.844 76.8507 82.7522 76.2116 81.8868C74.574 79.7432 71.1257 75.9487 66.5589 75.2297Z" fill="url(#paint8_linear_188_46)"/>
<path d="M69.2517 80.4623C64.898 82.0067 62.1952 86.3604 60.9969 88.7703C60.5176 89.7422 60.8904 90.7807 61.8757 91.2334C64.3255 92.3518 69.1718 94.056 73.5255 92.5116C77.8792 90.9671 80.582 86.6001 81.7803 84.2035C82.2596 83.2316 81.9001 82.1798 80.9016 81.7404C78.4518 80.6087 73.6054 78.9178 69.2517 80.4623Z" fill="url(#paint9_linear_188_46)"/>
<path d="M83.4479 52.5422L71.1723 57.575C68.6692 58.6002 67.0449 61.0367 67.0449 63.7394V79.8761C67.0449 94.3885 79.7066 98.9686 84.3266 100.154C85.4184 100.433 86.5501 100.433 87.6419 100.154C92.2619 98.9686 104.924 94.3885 104.924 79.8761V63.7394C104.924 61.0367 103.286 58.6002 100.796 57.575L88.5073 52.5422C86.883 51.8765 85.0722 51.8765 83.4479 52.5422Z" fill="url(#paint10_linear_188_46)"/>
<path d="M85.9768 97.0245C85.6972 97.0245 85.4176 96.9846 85.1514 96.918C83.1676 96.412 79.3331 95.1472 76.0711 92.4444C72.2899 89.3023 70.3594 85.0684 70.3594 79.8759V63.7392C70.3594 62.3812 71.1715 61.1696 72.4231 60.6636L84.6987 55.6309C85.0981 55.4711 85.5242 55.3779 85.9635 55.3779C86.4029 55.3779 86.8289 55.4578 87.2284 55.6309L99.504 60.6636C100.756 61.1829 101.568 62.3812 101.568 63.7392V79.8759C101.568 85.0817 99.6504 89.3023 95.8559 92.4444C92.594 95.1472 88.7728 96.412 86.7757 96.918C86.536 96.9846 86.2564 97.0245 85.9768 97.0245Z" fill="url(#paint11_linear_188_46)"/>
<defs>
<linearGradient id="paint0_linear_188_46" x1="85.9716" y1="106.081" x2="85.9716" y2="98.758" gradientUnits="userSpaceOnUse">
<stop stop-color="#3D5969"/>
<stop offset="1" stop-color="#698999"/>
</linearGradient>
<linearGradient id="paint1_linear_188_46" x1="85.9769" y1="113.404" x2="85.9769" y2="106.081" gradientUnits="userSpaceOnUse">
<stop stop-color="#FF9900"/>
<stop offset="1" stop-color="#FCD34F"/>
</linearGradient>
<linearGradient id="paint2_linear_188_46" x1="97.1795" y1="75.488" x2="112.928" y2="59.7395" gradientUnits="userSpaceOnUse">
<stop offset="0.5" stop-color="#F27A00"/>
<stop offset="1" stop-color="#FCD34F"/>
</linearGradient>
<linearGradient id="paint3_linear_188_46" x1="99.333" y1="82.4056" x2="112.432" y2="66.0391" gradientUnits="userSpaceOnUse">
<stop offset="0.5" stop-color="#F27A00"/>
<stop offset="1" stop-color="#FCD34F"/>
</linearGradient>
<linearGradient id="paint4_linear_188_46" x1="98.1196" y1="85.3099" x2="116.791" y2="73.7976" gradientUnits="userSpaceOnUse">
<stop offset="0.5" stop-color="#F27A00"/>
<stop offset="1" stop-color="#FCD34F"/>
</linearGradient>
<linearGradient id="paint5_linear_188_46" x1="91.1181" y1="80.8811" x2="108.924" y2="93.1633" gradientUnits="userSpaceOnUse">
<stop offset="0.5" stop-color="#F27A00"/>
<stop offset="1" stop-color="#FCD34F"/>
</linearGradient>
<linearGradient id="paint6_linear_188_46" x1="74.7744" y1="75.4873" x2="59.0258" y2="59.7387" gradientUnits="userSpaceOnUse">
<stop offset="0.5" stop-color="#F27A00"/>
<stop offset="1" stop-color="#FCD34F"/>
</linearGradient>
<linearGradient id="paint7_linear_188_46" x1="72.6147" y1="82.4038" x2="59.5162" y2="66.0371" gradientUnits="userSpaceOnUse">
<stop offset="0.5" stop-color="#F27A00"/>
<stop offset="1" stop-color="#FCD34F"/>
</linearGradient>
<linearGradient id="paint8_linear_188_46" x1="73.8331" y1="85.3087" x2="55.1621" y2="73.7964" gradientUnits="userSpaceOnUse">
<stop offset="0.5" stop-color="#F27A00"/>
<stop offset="1" stop-color="#FCD34F"/>
</linearGradient>
<linearGradient id="paint9_linear_188_46" x1="80.8397" y1="80.8797" x2="63.034" y2="93.1618" gradientUnits="userSpaceOnUse">
<stop offset="0.5" stop-color="#F27A00"/>
<stop offset="1" stop-color="#FCD34F"/>
</linearGradient>
<linearGradient id="paint10_linear_188_46" x1="85.9763" y1="100.357" x2="85.9763" y2="52.0463" gradientUnits="userSpaceOnUse">
<stop stop-color="#FFBF00"/>
<stop offset="1" stop-color="#FFDF3D"/>
</linearGradient>
<linearGradient id="paint11_linear_188_46" x1="85.9768" y1="97.0272" x2="85.9768" y2="55.3753" gradientUnits="userSpaceOnUse">
<stop stop-color="#FF8C00"/>
<stop offset="1" stop-color="#FCC000"/>
</linearGradient>
</defs>
</svg>
