<svg xmlns="http://www.w3.org/2000/svg" width="373" height="911" fill="none"><path stroke="#D9D9D9" stroke-width="11" d="M75 44.254v828"/><path fill="#4285F4" stroke="#1E1E1E" stroke-linejoin="round" stroke-miterlimit="10" stroke-width="2.508" d="M108 58.245V20.25L74.5 1.254 41 20.25v37.995L74.5 77.24z"/><path fill="#fff" stroke="#1E1E1E" stroke-miterlimit="10" stroke-width="2.508" d="m70.103 27.721 2.551-4.732c.624-1.16 2.312-1.183 2.968-.038l2.68 4.663c2.01 3.497 5 6.355 8.611 8.235l4.819 2.507a1.647 1.647 0 0 1 .038 2.915l-4.748 2.632a21.2 21.2 0 0 0-8.384 8.458l-2.552 4.733c-.624 1.16-2.311 1.182-2.968.037l-2.68-4.663c-2.01-3.497-5-6.355-8.611-8.235l-4.818-2.506a1.647 1.647 0 0 1-.039-2.915l4.748-2.632a21.2 21.2 0 0 0 8.385-8.459Z"/><path fill="#FFD427" stroke="#1E1E1E" stroke-linecap="round" stroke-linejoin="round" stroke-width="2.571" d="M74.39 193.035c20.65 0 37.39-16.74 37.39-37.391 0-20.65-16.74-37.39-37.39-37.39S37 134.994 37 155.644s16.74 37.391 37.39 37.391"/><path stroke="#1E1E1E" stroke-linejoin="round" stroke-width="1.714" d="M86.817 140.316H62.611a3.55 3.55 0 0 0-3.548 3.548v24.206a3.55 3.55 0 0 0 3.548 3.549h24.206a3.55 3.55 0 0 0 3.548-3.549v-24.206a3.55 3.55 0 0 0-3.548-3.548Z"/><path stroke="#1E1E1E" stroke-linejoin="round" stroke-width="1.714" d="M84.388 144.875H65.04a1.42 1.42 0 0 0-1.419 1.42v19.347c0 .784.636 1.42 1.42 1.42h19.347a1.42 1.42 0 0 0 1.42-1.42v-19.347a1.42 1.42 0 0 0-1.42-1.42ZM74.715 140.316v-7.062M80.422 140.316v-7.062M69.008 140.316v-7.062M90.367 155.969h7.064M90.367 161.673h7.064M90.367 150.263h7.064M52 155.969h7.062M52 161.673h7.062M52 150.263h7.062M74.715 171.619v7.063M69.008 171.619v7.063M80.422 171.62v7.062"/><path fill="#34A853" stroke="#1E1E1E" stroke-linecap="round" stroke-linejoin="round" stroke-width="2.476" d="M75 306.254c19.882 0 36-16.118 36-36s-16.118-36-36-36-36 16.118-36 36 16.118 36 36 36"/><path stroke="#1E1E1E" stroke-linecap="round" stroke-linejoin="round" stroke-width="2.476" d="M68.307 286.038c-.392-.248-16.108-15.041-16.108-15.041l16.108-15.286M82.148 255.711c.393.248 16.108 15.041 16.108 15.041l-16.108 15.286"/><path fill="#FFD427" stroke="#1E1E1E" stroke-linecap="round" stroke-linejoin="round" stroke-width="2.571" d="M76.39 664.035c20.65 0 37.39-16.74 37.39-37.391 0-20.65-16.74-37.39-37.39-37.39S39 605.994 39 626.644s16.74 37.391 37.39 37.391"/><path stroke="#1E1E1E" stroke-linejoin="round" stroke-width="2" d="M86.6 632.573c-3.614 6.726-10.97 9.77-16.43 6.798-5.461-2.972-6.958-10.838-3.344-17.564M66.828 621.807c3.614-6.727 10.97-9.77 16.43-6.799 5.461 2.972 6.958 10.838 3.344 17.564"/><path stroke="#1E1E1E" stroke-linejoin="round" stroke-width="2" d="M91.78 635.227c-.936 1.739-2.837 2.524-4.25 1.757s-1.799-2.801-.863-4.54M79.993 646.165c-4.427 1.743-9.162 1.719-13.213-.485-8.289-4.514-10.559-16.449-5.074-26.66"/><path stroke="#1E1E1E" stroke-linejoin="round" stroke-width="2" d="M61.71 619.018c5.486-10.211 16.653-14.832 24.942-10.319 8.288 4.513 10.558 16.448 5.074 26.659"/><g stroke="#1E1E1E" stroke-linejoin="round" clip-path="url(#a)"><path fill="#4285F4" stroke-linecap="round" stroke-width="2.647" d="M74.838 544.694c21.256 0 38.487-17.231 38.487-38.487 0-21.255-17.231-38.486-38.487-38.486-21.255 0-38.486 17.231-38.486 38.486 0 21.256 17.23 38.487 38.486 38.487"/><path stroke-width="1.818" d="m90.373 521.973-30.85-30.85M59.523 521.973l30.85-30.85M74.95 528.361v-43.628M53.137 506.546h43.628"/></g><g stroke="#1E1E1E" stroke-linecap="round" stroke-linejoin="round" stroke-width="2.538" clip-path="url(#b)"><path fill="#EA4335" d="M78.18 428.345c20.386 0 36.911-16.526 36.911-36.911s-16.525-36.911-36.91-36.911c-20.386 0-36.911 16.526-36.911 36.911s16.525 36.911 36.91 36.911"/><path d="M74.46 406.983c-.401-.254-16.515-15.422-16.515-15.422l16.516-15.673M83.258 391.434c6.205 0 11.238 4.109 11.238 9.182 0 5.072-5.03 9.182-11.238 9.182M83.258 373.07c6.205 0 11.238 4.11 11.238 9.182s-5.03 9.182-11.238 9.182"/></g><path fill="#34A853" stroke="#1E1E1E" stroke-linecap="round" stroke-linejoin="round" stroke-width="2.473" d="M75.952 784.159c19.856 0 35.952-16.097 35.952-35.953 0-19.855-16.096-35.952-35.952-35.952S40 728.351 40 748.206c0 19.856 16.096 35.953 35.952 35.953"/><path stroke="#1E1E1E" stroke-linejoin="round" stroke-width="1.5" d="M76.272 770.575c5.53 0 10.014-9.527 10.014-21.279s-4.484-21.278-10.014-21.278-10.014 9.526-10.014 21.278 4.483 21.279 10.014 21.279Z"/><path stroke="#1E1E1E" stroke-linejoin="round" stroke-width="1.5" d="M80.946 758.167c10.395-5.483 16.73-13.893 14.15-18.785s-13.1-4.412-23.494 1.07-16.73 13.893-14.149 18.785c2.58 4.892 13.099 4.413 23.493-1.07Z"/><path stroke="#1E1E1E" stroke-linejoin="round" stroke-width="1.5" d="M95.08 759.215c2.58-4.892-3.755-13.302-14.15-18.785s-20.912-5.962-23.493-1.07 3.755 13.302 14.15 18.785 20.912 5.962 23.493 1.07Z"/><g stroke="#1E1E1E" stroke-linejoin="round" clip-path="url(#c)"><path fill="#EA4335" stroke-linecap="round" stroke-width="2.538" d="M74.18 908.345c20.386 0 36.911-16.526 36.911-36.911s-16.525-36.911-36.91-36.911c-20.386 0-36.911 16.526-36.911 36.911s16.525 36.911 36.91 36.911"/><path stroke-width="1.792" d="M74.5 893.254c11.874 0 21.5-9.626 21.5-21.5s-9.626-21.5-21.5-21.5-21.5 9.626-21.5 21.5 9.626 21.5 21.5 21.5Z"/><path stroke-width="1.792" d="M74.497 893.254c4.948 0 8.959-9.626 8.959-21.5s-4.011-21.5-8.959-21.5-8.958 9.626-8.958 21.5 4.01 21.5 8.958 21.5ZM54.79 863.692h39.416M54.79 879.817h39.416"/></g><path fill="#4285F4" d="M149.007 20.218h5.481q1.47 0 2.604.61 1.155.608 1.785 1.7.63 1.071.63 2.436 0 1.449-.924 2.583a5.16 5.16 0 0 1-2.289 1.617l-.021.147 4.032 5.775v.168h-3.255l-3.885-5.649h-1.323v5.65h-2.835zm5.46 6.783q.966 0 1.575-.588t.609-1.49a2.04 2.04 0 0 0-.588-1.47q-.567-.61-1.554-.61h-2.667v4.158zm12.286 8.59q-1.596 0-2.877-.736a5.36 5.36 0 0 1-2.016-2.016q-.714-1.301-.714-2.919a5.8 5.8 0 0 1 .714-2.835 5.5 5.5 0 0 1 1.974-2.1q1.26-.777 2.814-.777 1.659 0 2.856.714a4.6 4.6 0 0 1 1.806 1.953q.63 1.239.63 2.751 0 .483-.063.924h-8.043q.21 1.281 1.008 1.953.819.651 1.953.651.945 0 1.617-.399.693-.42 1.092-1.113l2.226 1.092q-1.638 2.856-4.977 2.856m2.541-6.994a2 2 0 0 0-.378-.987 2.34 2.34 0 0 0-.903-.819q-.567-.336-1.344-.336-.987 0-1.701.588-.693.567-1.008 1.554zm9.802 11.53q-2.037 0-3.381-.925-1.344-.903-1.806-2.184l2.583-1.05q.336.798 1.029 1.26t1.575.462q1.302 0 2.058-.798.777-.798.777-2.268v-.84h-.168q-.504.714-1.323 1.092t-1.869.378a4.85 4.85 0 0 1-2.478-.672q-1.134-.693-1.827-1.932-.693-1.26-.693-2.919t.693-2.898q.693-1.26 1.827-1.932a4.73 4.73 0 0 1 2.478-.693q1.05 0 1.869.378t1.323 1.092h.168v-1.134h2.646v9.975q0 1.722-.672 2.982a4.62 4.62 0 0 1-1.911 1.932q-1.239.693-2.898.693m.042-7.372q1.155 0 1.974-.798.819-.819.819-2.226 0-1.449-.819-2.226-.798-.798-1.974-.798t-1.995.798-.819 2.226.819 2.226 1.995.798m9.682-9.387q-.735 0-1.26-.525t-.525-1.26.525-1.239q.525-.525 1.26-.525t1.239.525q.525.505.525 1.24t-.525 1.26a1.65 1.65 0 0 1-1.239.524m-1.386 1.176h2.751v10.71h-2.751zm9.71 11.046q-1.953 0-3.171-.798-1.197-.798-1.68-2.079l2.457-1.07q.336.755.945 1.154.63.378 1.449.378.756 0 1.26-.23.504-.253.504-.799a.83.83 0 0 0-.462-.777q-.462-.273-1.386-.483l-1.26-.273q-1.302-.315-2.163-1.134-.861-.84-.861-2.079 0-.924.546-1.659.567-.735 1.512-1.134a5.5 5.5 0 0 1 2.121-.399q3.318 0 4.431 2.331l-2.352 1.03q-.63-1.135-2.016-1.135-.714 0-1.134.273-.42.252-.42.651 0 .756 1.428 1.134l1.575.378q1.596.399 2.394 1.218.819.819.819 2.016a2.93 2.93 0 0 1-.609 1.827q-.588.777-1.638 1.218-1.029.441-2.289.441m11.088-.168a4.5 4.5 0 0 1-1.47-.23q-.672-.253-1.092-.673-.987-.945-.987-2.688v-4.935h-1.869v-2.352h1.869V21.52h2.751v3.024h2.625v2.352h-2.625v4.431q0 .819.357 1.176.294.336 1.008.336.399 0 .651-.105.273-.105.693-.357v2.688a5.2 5.2 0 0 1-1.911.357m4.115-10.878h2.583v1.428h.168q.399-.756 1.239-1.239a3.5 3.5 0 0 1 1.848-.504q.735 0 1.344.231v2.751q-.567-.21-.966-.294a3 3 0 0 0-.819-.105q-1.218 0-1.932.882t-.714 2.226v5.334h-2.751zm11.91 11.046q-1.701 0-2.793-.987-1.092-1.008-1.092-2.625 0-1.071.567-1.89t1.554-1.26q.987-.44 2.184-.44 1.659 0 2.835.482v-.462q0-.882-.672-1.428-.651-.546-1.764-.546a3.25 3.25 0 0 0-1.47.357 3.35 3.35 0 0 0-1.155.903l-1.764-1.386a5.2 5.2 0 0 1 1.953-1.554 6 6 0 0 1 2.562-.546q2.457 0 3.738 1.134t1.281 3.318v6.594h-2.709v-1.092h-.168q-.483.63-1.281 1.03-.777.398-1.806.398m.651-2.142q1.197 0 1.89-.756.714-.777.714-1.806a5.2 5.2 0 0 0-2.247-.504q-2.142 0-2.142 1.596 0 .651.462 1.071.462.4 1.323.4m12.301 1.974a4.5 4.5 0 0 1-1.47-.23q-.672-.253-1.092-.673-.987-.945-.987-2.688v-4.935h-1.869v-2.352h1.869V21.52h2.751v3.024h2.625v2.352h-2.625v4.431q0 .819.357 1.176.294.336 1.008.336.399 0 .651-.105.273-.105.693-.357v2.688a5.2 5.2 0 0 1-1.911.357m5.772-12.054q-.735 0-1.26-.525t-.525-1.26.525-1.239q.525-.525 1.26-.525t1.239.525q.525.505.525 1.24t-.525 1.26a1.65 1.65 0 0 1-1.239.524m-1.386 1.176h2.751v10.71h-2.751zm10.657 11.046q-1.659 0-2.961-.735a5.47 5.47 0 0 1-2.037-2.037q-.714-1.301-.714-2.919 0-1.596.714-2.898a5.3 5.3 0 0 1 2.037-2.037q1.302-.756 2.961-.756 1.638 0 2.94.756a5.13 5.13 0 0 1 2.016 2.037q.735 1.302.735 2.898 0 1.617-.735 2.92a5.3 5.3 0 0 1-2.016 2.036q-1.302.735-2.94.735m0-2.54q.798 0 1.47-.379a2.77 2.77 0 0 0 1.071-1.092q.399-.714.399-1.68 0-.945-.399-1.659a2.77 2.77 0 0 0-1.071-1.092 2.95 2.95 0 0 0-1.47-.378q-.798 0-1.47.378a2.9 2.9 0 0 0-1.092 1.092q-.399.715-.399 1.66t.399 1.68q.42.713 1.092 1.091t1.47.378m7.591-8.506h2.583v1.344h.168a3.3 3.3 0 0 1 1.365-1.218 4.06 4.06 0 0 1 1.911-.462q1.932 0 2.94 1.176t1.008 3.213v6.657h-2.751v-6.32q0-1.03-.525-1.597t-1.47-.567q-1.113 0-1.806.861-.672.861-.672 2.163v5.46h-2.751zm16.543 11.046q-1.953 0-3.171-.798-1.197-.798-1.68-2.079l2.457-1.07q.336.755.945 1.154.63.378 1.449.378.756 0 1.26-.23.504-.253.504-.799a.83.83 0 0 0-.462-.777q-.462-.273-1.386-.483l-1.26-.273q-1.302-.315-2.163-1.134-.861-.84-.861-2.079 0-.924.546-1.659.567-.735 1.512-1.134a5.5 5.5 0 0 1 2.121-.399q3.318 0 4.431 2.331l-2.352 1.03q-.63-1.135-2.016-1.135-.714 0-1.134.273-.42.252-.42.651 0 .756 1.428 1.134l1.575.378q1.596.399 2.394 1.218.819.819.819 2.016a2.93 2.93 0 0 1-.609 1.827q-.588.777-1.638 1.218-1.029.441-2.289.441"/><path fill="#1E1E1E" d="M149.881 59.017q-1.12 0-2-.512a3.7 3.7 0 0 1-1.36-1.392 3.73 3.73 0 0 1-.48-1.84q0-.943.368-1.776.368-.848 1.088-1.904l2.768-4.064 1.392.96-2.496 3.472.064.064q.431-.255 1.088-.256.832 0 1.6.464.784.465 1.264 1.28.496.8.496 1.808t-.528 1.856a3.75 3.75 0 0 1-1.392 1.344q-.864.496-1.872.496m-.016-1.648q.543 0 1.024-.256.48-.271.752-.736.288-.464.288-1.04t-.288-1.04a1.96 1.96 0 0 0-.768-.736 1.96 1.96 0 0 0-1.008-.272q-.544 0-1.024.272-.48.256-.768.736-.288.464-.288 1.04t.272 1.04q.288.465.768.736.48.256 1.04.256m8.917 1.52a3 3 0 0 1-1.024-.176 2.25 2.25 0 0 1-.784-.464q-.688-.687-.688-1.872v-4.224h-1.424v-1.552h1.424v-2.304h1.76v2.304h1.984v1.552h-1.984v3.84q0 .657.256.928.24.32.832.32.272 0 .48-.064.208-.08.448-.24v1.712q-.528.24-1.28.24m3-11.584h1.76v3.12l-.08 1.248h.08q.351-.576 1.04-.944a3.1 3.1 0 0 1 1.504-.384q1.488 0 2.272.88.784.864.784 2.368v5.168h-1.76v-4.928q0-.927-.496-1.392-.48-.464-1.264-.464-.592 0-1.072.336a2.34 2.34 0 0 0-.736.896 2.6 2.6 0 0 0-.272 1.168v4.384h-1.76zm13.397 0h2.432l3.296 8.688h.096l3.296-8.688h2.432v11.456h-1.776v-6.416l.096-2.064h-.096l-3.28 8.48h-1.44l-3.28-8.48h-.096l.096 2.064v6.416h-1.776zm16.21 11.712q-.88 0-1.568-.336a2.64 2.64 0 0 1-1.072-.976 2.75 2.75 0 0 1-.384-1.44q0-1.263.944-2 .96-.736 2.416-.736.72 0 1.296.144a4.4 4.4 0 0 1 .912.288v-.416q0-.751-.56-1.216-.561-.48-1.44-.48-.624 0-1.184.272a2.3 2.3 0 0 0-.88.752l-1.232-.944q.543-.751 1.408-1.168a4.4 4.4 0 0 1 1.92-.416q1.776 0 2.736.88.96.864.96 2.448v5.088h-1.728v-.976h-.08a2.8 2.8 0 0 1-.992.88q-.64.352-1.472.352m.304-1.456q.639 0 1.152-.304.512-.303.8-.816t.288-1.104a3.6 3.6 0 0 0-.864-.336 4 4 0 0 0-1.008-.128q-.993 0-1.456.4-.464.384-.464 1.008 0 .56.432.928.432.352 1.12.352m5.886-6.96h1.68v1.2h.08q.272-.624.944-1.024a2.66 2.66 0 0 1 1.424-.416q.591 0 .992.16v1.824q-.705-.256-1.264-.256-.608 0-1.088.32-.465.321-.736.864a2.5 2.5 0 0 0-.272 1.168v4.32h-1.76zm10.202 2.448h5.264v1.504h-5.264zm10.792 4.048 2.016-2.016a89 89 0 0 0 2-2.064q.672-.72.912-1.168.255-.447.256-1.072 0-.623-.48-1.088-.48-.464-1.296-.464-.753 0-1.232.448-.464.432-.608 1.008l-1.6-.656q.16-.576.592-1.136a3.6 3.6 0 0 1 1.184-.944q.736-.384 1.696-.384 1.04 0 1.84.432.816.417 1.248 1.152.448.72.448 1.6 0 .945-.496 1.824a7.3 7.3 0 0 1-1.232 1.616q-.32.304-1.616 1.6l-1.312 1.312.032.064h4.768v1.6h-7.12zm12.479 1.92q-1.088 0-1.968-.432a3.43 3.43 0 0 1-1.36-1.184 3.04 3.04 0 0 1-.496-1.68 2.7 2.7 0 0 1 .48-1.584q.496-.704 1.248-1.088v-.096a3.5 3.5 0 0 1-.976-.992 2.4 2.4 0 0 1-.384-1.312q0-.864.432-1.568a3.06 3.06 0 0 1 1.232-1.12 3.95 3.95 0 0 1 1.792-.4q.993 0 1.776.4.8.4 1.232 1.12.448.704.448 1.568 0 .705-.384 1.312a3.5 3.5 0 0 1-.976.992v.096q.753.384 1.232 1.088.496.688.496 1.584 0 .912-.496 1.68-.495.753-1.376 1.184-.864.432-1.952.432m0-6.768q.736 0 1.216-.416.496-.431.496-1.136 0-.687-.48-1.088-.48-.416-1.232-.416t-1.232.416q-.48.4-.48 1.088 0 .704.48 1.136.497.416 1.232.416m0 5.104q.88 0 1.456-.48.592-.495.592-1.28 0-.768-.592-1.264-.576-.496-1.456-.496t-1.472.496q-.576.496-.576 1.264 0 .785.576 1.28.593.48 1.472.48m8.933 1.536q-.543 0-1.024-.176a2.25 2.25 0 0 1-.784-.464q-.688-.687-.688-1.872v-4.224h-1.424v-1.552h1.424v-2.304h1.76v2.304h1.984v1.552h-1.984v3.84q0 .657.256.928.24.32.832.32.273 0 .48-.064.208-.08.448-.24v1.712q-.528.24-1.28.24m3-11.584h1.76v3.12l-.08 1.248h.08q.352-.576 1.04-.944a3.1 3.1 0 0 1 1.504-.384q1.488 0 2.272.88.784.864.784 2.368v5.168h-1.76v-4.928q0-.927-.496-1.392-.48-.464-1.264-.464-.592 0-1.072.336a2.35 2.35 0 0 0-.736.896 2.6 2.6 0 0 0-.272 1.168v4.384h-1.76zm16.145 0h2.048l4.304 11.456h-1.984l-1.024-2.928h-4.624l-1.04 2.928h-1.984zm2.736 6.864-1.216-3.408-.448-1.328h-.096l-.448 1.328-1.216 3.408zm4.899-3.568h1.68v1.072h.08q.351-.56 1.04-.944a3.1 3.1 0 0 1 1.552-.384q1.103 0 2 .56.895.56 1.408 1.552.528.976.528 2.224t-.528 2.24a3.9 3.9 0 0 1-1.408 1.536 3.7 3.7 0 0 1-2 .56 3.1 3.1 0 0 1-1.552-.384q-.689-.384-1.04-.928h-.08l.08 1.136v3.376h-1.76zm4.096 6.8q.639 0 1.2-.336a2.44 2.44 0 0 0 .896-.96q.336-.623.336-1.424t-.336-1.408a2.44 2.44 0 0 0-.896-.96 2.3 2.3 0 0 0-1.2-.336q-.64 0-1.2.336a2.5 2.5 0 0 0-.88.96q-.336.609-.336 1.408 0 .8.336 1.424t.88.96q.56.336 1.2.336m5.718-6.8h1.68v1.2h.08q.272-.624.944-1.024a2.66 2.66 0 0 1 1.424-.416q.591 0 .992.16v1.824q-.705-.256-1.264-.256-.608 0-1.088.32-.465.321-.736.864a2.5 2.5 0 0 0-.272 1.168v4.32h-1.76zm9.962 6.496 2.016-2.016a85 85 0 0 0 2-2.064q.672-.72.912-1.168.256-.447.256-1.072 0-.623-.48-1.088-.48-.464-1.296-.464-.752 0-1.232.448a2.03 2.03 0 0 0-.608 1.008l-1.6-.656a3.3 3.3 0 0 1 .592-1.136 3.7 3.7 0 0 1 1.184-.944q.736-.384 1.696-.384 1.04 0 1.84.432.816.417 1.248 1.152.448.72.448 1.6 0 .945-.496 1.824a7.3 7.3 0 0 1-1.232 1.616 131 131 0 0 0-1.616 1.6l-1.312 1.312.032.064h4.768v1.6h-7.12zm13.216 1.92q-1.344 0-2.368-.752-1.024-.768-1.584-2.064-.544-1.311-.544-2.912 0-1.616.544-2.912.56-1.311 1.584-2.064 1.024-.752 2.368-.752t2.352.752q1.024.753 1.568 2.064.56 1.296.56 2.912 0 1.6-.56 2.912-.544 1.296-1.568 2.064-1.024.753-2.352.752m0-1.664q.816 0 1.424-.528.624-.544.944-1.456.336-.928.336-2.08t-.336-2.08q-.32-.927-.944-1.456a2.1 2.1 0 0 0-1.424-.528q-.833 0-1.44.528-.608.529-.944 1.456-.32.928-.32 2.08t.32 2.08q.336.912.944 1.456.607.528 1.44.528m5.909-.256 2.016-2.016a85 85 0 0 0 2-2.064q.672-.72.912-1.168.256-.447.256-1.072 0-.623-.48-1.088-.48-.464-1.296-.464-.752 0-1.232.448a2.03 2.03 0 0 0-.608 1.008l-1.6-.656a3.3 3.3 0 0 1 .592-1.136 3.7 3.7 0 0 1 1.184-.944q.736-.384 1.696-.384 1.04 0 1.84.432.816.417 1.248 1.152.448.72.448 1.6 0 .945-.496 1.824a7.3 7.3 0 0 1-1.232 1.616 131 131 0 0 0-1.616 1.6l-1.312 1.312.032.064h4.768v1.6h-7.12zm12.496 1.92q-1.12 0-2-.512a3.7 3.7 0 0 1-1.36-1.392 3.73 3.73 0 0 1-.48-1.84q0-.943.368-1.776.368-.848 1.088-1.904l2.768-4.064 1.392.96-2.496 3.472.064.064q.432-.255 1.088-.256a3.05 3.05 0 0 1 1.6.464q.784.465 1.264 1.28.496.8.496 1.808t-.528 1.856a3.74 3.74 0 0 1-1.392 1.344q-.864.496-1.872.496m-.016-1.648q.544 0 1.024-.256.48-.271.752-.736.288-.464.288-1.04t-.288-1.04a1.96 1.96 0 0 0-.768-.736 1.96 1.96 0 0 0-1.008-.272q-.544 0-1.024.272-.48.256-.768.736-.288.464-.288 1.04t.272 1.04q.288.465.768.736.48.256 1.04.256"/><path fill="#F9AB00" d="M147.034 137.218h5.292q1.428 0 2.604.609a4.47 4.47 0 0 1 1.848 1.68q.672 1.071.672 2.457t-.672 2.478a4.6 4.6 0 0 1-1.848 1.701q-1.176.588-2.604.588h-2.457v5.523h-2.835zm5.376 6.825q1.05 0 1.638-.609.609-.609.609-1.47t-.609-1.449q-.588-.609-1.638-.609h-2.541v4.137zm7.063-2.499h2.583v1.428h.168q.399-.756 1.239-1.239a3.5 3.5 0 0 1 1.848-.504q.735 0 1.344.231v2.751q-.567-.21-.966-.294a3 3 0 0 0-.819-.105q-1.218 0-1.932.882t-.714 2.226v5.334h-2.751zm13.45 11.046q-1.659 0-2.961-.735a5.47 5.47 0 0 1-2.037-2.037q-.714-1.302-.714-2.919 0-1.596.714-2.898a5.3 5.3 0 0 1 2.037-2.037q1.302-.756 2.961-.756 1.638 0 2.94.756a5.13 5.13 0 0 1 2.016 2.037q.735 1.302.735 2.898 0 1.617-.735 2.919a5.3 5.3 0 0 1-2.016 2.037q-1.302.735-2.94.735m0-2.541q.798 0 1.47-.378a2.77 2.77 0 0 0 1.071-1.092q.399-.714.399-1.68 0-.945-.399-1.659a2.77 2.77 0 0 0-1.071-1.092 2.95 2.95 0 0 0-1.47-.378q-.798 0-1.47.378a2.9 2.9 0 0 0-1.092 1.092q-.399.714-.399 1.659t.399 1.68q.42.714 1.092 1.092t1.47.378m12.15 2.373a4.5 4.5 0 0 1-1.47-.231q-.672-.252-1.092-.672-.987-.945-.987-2.688v-4.935h-1.869v-2.352h1.869v-3.024h2.751v3.024h2.625v2.352h-2.625v4.431q0 .819.357 1.176.294.336 1.008.336.399 0 .651-.105.273-.105.693-.357v2.688a5.2 5.2 0 0 1-1.911.357m8.871.168q-1.659 0-2.961-.735a5.47 5.47 0 0 1-2.037-2.037q-.714-1.302-.714-2.919 0-1.596.714-2.898a5.3 5.3 0 0 1 2.037-2.037q1.302-.756 2.961-.756 1.638 0 2.94.756a5.13 5.13 0 0 1 2.016 2.037q.735 1.302.735 2.898 0 1.617-.735 2.919a5.3 5.3 0 0 1-2.016 2.037q-1.302.735-2.94.735m0-2.541q.798 0 1.47-.378a2.77 2.77 0 0 0 1.071-1.092q.399-.714.399-1.68 0-.945-.399-1.659a2.77 2.77 0 0 0-1.071-1.092 2.95 2.95 0 0 0-1.47-.378q-.798 0-1.47.378a2.9 2.9 0 0 0-1.092 1.092q-.399.714-.399 1.659t.399 1.68q.42.714 1.092 1.092t1.47.378m12.15 2.373a4.5 4.5 0 0 1-1.47-.231q-.672-.252-1.092-.672-.987-.945-.987-2.688v-4.935h-1.869v-2.352h1.869v-3.024h2.751v3.024h2.625v2.352h-2.625v4.431q0 .819.357 1.176.294.336 1.008.336.399 0 .651-.105.273-.105.693-.357v2.688a5.2 5.2 0 0 1-1.911.357m7.557-.672-4.515-10.206h3.129l2.772 6.657h.168l2.667-6.657h3.066l-6.615 15.246h-2.961zm8.717-10.206h2.583v1.302h.168q.441-.693 1.281-1.155.84-.483 1.932-.483 1.449 0 2.625.735 1.197.714 1.869 2.016t.672 2.94q0 1.659-.672 2.961a5.1 5.1 0 0 1-1.869 2.016q-1.176.714-2.625.714-1.092 0-1.953-.462-.84-.462-1.26-1.155h-.168l.168 1.512v4.305h-2.751zm5.481 8.505a2.8 2.8 0 0 0 1.449-.399 2.9 2.9 0 0 0 1.071-1.113q.399-.714.399-1.638t-.399-1.638a2.77 2.77 0 0 0-1.071-1.092 2.79 2.79 0 0 0-2.877 0 2.77 2.77 0 0 0-1.071 1.092q-.399.714-.399 1.638t.399 1.638 1.071 1.113 1.428.399m12.788 2.541q-1.596 0-2.877-.735a5.36 5.36 0 0 1-2.016-2.016q-.714-1.302-.714-2.919a5.8 5.8 0 0 1 .714-2.835 5.5 5.5 0 0 1 1.974-2.1q1.26-.777 2.814-.777 1.659 0 2.856.714a4.6 4.6 0 0 1 1.806 1.953q.63 1.239.63 2.751 0 .483-.063.924h-8.043q.21 1.281 1.008 1.953.819.651 1.953.651.945 0 1.617-.399.693-.42 1.092-1.113l2.226 1.092q-1.638 2.856-4.977 2.856m2.541-6.993a2 2 0 0 0-.378-.987 2.34 2.34 0 0 0-.903-.819q-.567-.336-1.344-.336-.987 0-1.701.588-.693.567-1.008 1.554zm13.966 6.993q-1.974 0-3.486-1.113t-2.121-3.15l2.667-1.05q.315 1.197 1.071 1.911t1.89.714q.945 0 1.617-.462.672-.483.672-1.323t-.651-1.365q-.63-.546-2.268-1.155l-.924-.336a6.44 6.44 0 0 1-2.478-1.533q-1.029-1.05-1.029-2.625 0-1.176.609-2.142t1.722-1.512q1.113-.567 2.52-.567 2.037 0 3.213.966 1.176.945 1.617 2.226l-2.499 1.05a2.4 2.4 0 0 0-.819-1.155q-.567-.483-1.47-.483-.924 0-1.533.441-.588.42-.588 1.113 0 .672.567 1.155.567.462 1.869.903l.945.315q1.953.672 2.982 1.785 1.05 1.092 1.05 2.877 0 1.47-.756 2.499a4.65 4.65 0 0 1-1.953 1.512 6.1 6.1 0 0 1-2.436.504m11.008 0q-1.932 0-2.94-1.197t-1.008-3.339v-6.51h2.751v6.174q0 1.092.525 1.722.525.609 1.386.609 1.176 0 1.869-.861t.693-2.184v-5.46h2.751v10.71h-2.583v-1.344h-.168q-.483.777-1.365 1.239a4.1 4.1 0 0 1-1.911.441m14.672 0q-1.092 0-1.953-.462-.84-.462-1.26-1.155h-.168v1.281h-2.583v-15.036h2.751v4.116l-.168 1.512h.168q.441-.693 1.281-1.155.84-.483 1.932-.483 1.449 0 2.625.735 1.197.714 1.869 2.016t.672 2.94q0 1.659-.672 2.961a5.1 5.1 0 0 1-1.869 2.016q-1.176.714-2.625.714m-.483-2.541a2.8 2.8 0 0 0 1.449-.399 2.9 2.9 0 0 0 1.071-1.113q.399-.714.399-1.638t-.399-1.638a2.77 2.77 0 0 0-1.071-1.092 2.79 2.79 0 0 0-2.877 0 2.77 2.77 0 0 0-1.071 1.092q-.399.714-.399 1.638t.399 1.638 1.071 1.113 1.428.399m7.664-8.505h2.583v1.344h.168a3.5 3.5 0 0 1 1.344-1.218 4 4 0 0 1 1.911-.462q1.134 0 1.974.546.84.525 1.197 1.344.525-.84 1.428-1.365.924-.525 2.163-.525 1.827 0 2.772 1.134.966 1.113.966 3.024v6.888h-2.73v-6.384q0-1.008-.483-1.554-.462-.546-1.302-.546-1.071 0-1.722.861-.63.84-.63 2.226v5.397h-2.751v-6.384q0-1.008-.504-1.554-.483-.546-1.386-.546-1.008 0-1.638.861-.609.84-.609 2.226v5.397h-2.751zm20.688-1.176q-.735 0-1.26-.525t-.525-1.26.525-1.239q.525-.525 1.26-.525t1.239.525q.525.504.525 1.239t-.525 1.26a1.65 1.65 0 0 1-1.239.525m-1.386 1.176h2.751v10.71h-2.751zm9.71 11.046q-1.953 0-3.171-.798-1.197-.798-1.68-2.079l2.457-1.071q.336.756.945 1.155.63.378 1.449.378.756 0 1.26-.231.504-.252.504-.798a.83.83 0 0 0-.462-.777q-.462-.273-1.386-.483l-1.26-.273q-1.302-.315-2.163-1.134-.861-.84-.861-2.079 0-.924.546-1.659.567-.735 1.512-1.134a5.5 5.5 0 0 1 2.121-.399q3.318 0 4.431 2.331l-2.352 1.029q-.63-1.134-2.016-1.134-.714 0-1.134.273-.42.252-.42.651 0 .756 1.428 1.134l1.575.378q1.596.399 2.394 1.218.819.819.819 2.016a2.93 2.93 0 0 1-.609 1.827q-.588.777-1.638 1.218-1.029.441-2.289.441m10.602 0q-1.953 0-3.171-.798-1.197-.798-1.68-2.079l2.457-1.071q.336.756.945 1.155.63.378 1.449.378.756 0 1.26-.231.504-.252.504-.798a.83.83 0 0 0-.462-.777q-.462-.273-1.386-.483l-1.26-.273q-1.302-.315-2.163-1.134-.861-.84-.861-2.079 0-.924.546-1.659.567-.735 1.512-1.134a5.5 5.5 0 0 1 2.121-.399q3.318 0 4.431 2.331l-2.352 1.029q-.63-1.134-2.016-1.134-.714 0-1.134.273-.42.252-.42.651 0 .756 1.428 1.134l1.575.378q1.596.399 2.394 1.218.819.819.819 2.016a2.93 2.93 0 0 1-.609 1.827q-.588.777-1.638 1.218-1.029.441-2.289.441m7.98-12.222q-.735 0-1.26-.525t-.525-1.26.525-1.239q.525-.525 1.26-.525t1.239.525q.525.504.525 1.239t-.525 1.26a1.65 1.65 0 0 1-1.239.525m-1.386 1.176h2.751v10.71h-2.751zm10.657 11.046q-1.659 0-2.961-.735a5.47 5.47 0 0 1-2.037-2.037q-.714-1.302-.714-2.919 0-1.596.714-2.898a5.3 5.3 0 0 1 2.037-2.037q1.302-.756 2.961-.756 1.638 0 2.94.756a5.13 5.13 0 0 1 2.016 2.037q.735 1.302.735 2.898 0 1.617-.735 2.919a5.3 5.3 0 0 1-2.016 2.037q-1.302.735-2.94.735m0-2.541q.798 0 1.47-.378a2.77 2.77 0 0 0 1.071-1.092q.399-.714.399-1.68 0-.945-.399-1.659a2.77 2.77 0 0 0-1.071-1.092 2.95 2.95 0 0 0-1.47-.378q-.798 0-1.47.378a2.9 2.9 0 0 0-1.092 1.092q-.399.714-.399 1.659t.399 1.68q.42.714 1.092 1.092t1.47.378m7.591-8.505h2.583v1.344h.168a3.3 3.3 0 0 1 1.365-1.218 4.06 4.06 0 0 1 1.911-.462q1.932 0 2.94 1.176t1.008 3.213v6.657h-2.751v-6.321q0-1.029-.525-1.596t-1.47-.567q-1.113 0-1.806.861-.672.861-.672 2.163v5.46h-2.751z"/><path fill="#1E1E1E" d="m149.561 164.694-1.792 1.296-.896-1.36 3.216-2.32h1.232v10.944h-1.76zm7.553 8.816a4.04 4.04 0 0 1-2.288-.704q-1.056-.72-1.456-2.096l1.632-.672q.225.849.768 1.312.561.465 1.344.464.8 0 1.376-.48.576-.495.576-1.248 0-.768-.608-1.248-.608-.496-1.52-.496h-.944v-1.616h.848q.784 0 1.312-.416.544-.432.544-1.168 0-.656-.48-1.04-.48-.4-1.216-.4-.72 0-1.152.384-.416.384-.608.944l-1.616-.672q.32-.912 1.184-1.6.864-.704 2.208-.704.993 0 1.776.384.801.385 1.248 1.072.448.672.448 1.52 0 .864-.416 1.472a2.9 2.9 0 0 1-1.024.912v.096q.8.337 1.312 1.024t.512 1.648-.496 1.712q-.48.753-1.344 1.184-.848.432-1.92.432m8.844-.128q-.544 0-1.024-.176a2.25 2.25 0 0 1-.784-.464q-.688-.687-.688-1.872v-4.224h-1.424v-1.552h1.424v-2.304h1.76v2.304h1.984v1.552h-1.984v3.84q0 .657.256.928.24.32.832.32.272 0 .48-.064.208-.08.448-.24v1.712q-.528.24-1.28.24m3-11.584h1.76v3.12l-.08 1.248h.08q.351-.575 1.04-.944a3.1 3.1 0 0 1 1.504-.384q1.488 0 2.272.88.783.865.784 2.368v5.168h-1.76v-4.928q0-.927-.496-1.392-.48-.464-1.264-.464-.592 0-1.072.336-.465.336-.736.896a2.6 2.6 0 0 0-.272 1.168v4.384h-1.76zm13.397 0h2.432l3.296 8.688h.096l3.296-8.688h2.432v11.456h-1.776v-6.416l.096-2.064h-.096l-3.28 8.48h-1.44l-3.28-8.48h-.096l.096 2.064v6.416h-1.776zm16.209 11.712q-.88 0-1.568-.336a2.64 2.64 0 0 1-1.072-.976 2.74 2.74 0 0 1-.384-1.44q0-1.263.944-2 .96-.736 2.416-.736.72 0 1.296.144.576.129.912.288v-.416q0-.751-.56-1.216-.56-.48-1.44-.48-.623 0-1.184.272a2.33 2.33 0 0 0-.88.752l-1.232-.944q.544-.751 1.408-1.168a4.4 4.4 0 0 1 1.92-.416q1.776 0 2.736.88.96.864.96 2.448v5.088h-1.728v-.976h-.08a2.75 2.75 0 0 1-.992.88q-.64.352-1.472.352m.304-1.456q.64 0 1.152-.304a2.16 2.16 0 0 0 .8-.816q.288-.511.288-1.104a3.6 3.6 0 0 0-.864-.336 4 4 0 0 0-1.008-.128q-.991 0-1.456.4a1.25 1.25 0 0 0-.464 1.008q0 .56.432.928.433.352 1.12.352m5.886-6.96h1.68v1.2h.08q.273-.624.944-1.024a2.67 2.67 0 0 1 1.424-.416q.593 0 .992.16v1.824q-.703-.255-1.264-.256a1.9 1.9 0 0 0-1.088.32 2.26 2.26 0 0 0-.736.864 2.5 2.5 0 0 0-.272 1.168v4.32h-1.76zm10.203 2.448h5.264v1.504h-5.264zm10.791 4.048 2.016-2.016a84 84 0 0 0 2-2.064q.672-.72.912-1.168.256-.447.256-1.072 0-.624-.48-1.088t-1.296-.464q-.752 0-1.232.448a2.03 2.03 0 0 0-.608 1.008l-1.6-.656q.16-.576.592-1.136a3.7 3.7 0 0 1 1.184-.944q.736-.384 1.696-.384 1.04 0 1.84.432.816.417 1.248 1.152.448.72.448 1.6a3.66 3.66 0 0 1-.496 1.824 7.3 7.3 0 0 1-1.232 1.616 134 134 0 0 0-1.616 1.6l-1.312 1.312.032.064h4.768v1.6h-7.12zm12.48 1.92q-1.087 0-1.968-.432a3.4 3.4 0 0 1-1.36-1.184 3.03 3.03 0 0 1-.496-1.68q0-.895.48-1.584a3.4 3.4 0 0 1 1.248-1.088v-.096a3.4 3.4 0 0 1-.976-.992 2.4 2.4 0 0 1-.384-1.312q0-.863.432-1.568.448-.72 1.232-1.12a3.96 3.96 0 0 1 1.792-.4q.991 0 1.776.4.8.4 1.232 1.12.448.704.448 1.568 0 .705-.384 1.312a3.4 3.4 0 0 1-.976.992v.096q.752.384 1.232 1.088.496.689.496 1.584 0 .912-.496 1.68-.496.753-1.376 1.184-.864.432-1.952.432m0-6.768q.736 0 1.216-.416.496-.431.496-1.136 0-.687-.48-1.088-.48-.416-1.232-.416t-1.232.416q-.48.4-.48 1.088 0 .704.48 1.136.496.417 1.232.416m0 5.104q.88 0 1.456-.48a1.59 1.59 0 0 0 .592-1.28q0-.768-.592-1.264-.576-.496-1.456-.496t-1.472.496a1.6 1.6 0 0 0-.576 1.264q0 .785.576 1.28.592.48 1.472.48m8.933 1.536q-.544 0-1.024-.176a2.25 2.25 0 0 1-.784-.464q-.688-.687-.688-1.872v-4.224h-1.424v-1.552h1.424v-2.304h1.76v2.304h1.984v1.552h-1.984v3.84q0 .657.256.928.24.32.832.32.272 0 .48-.064.208-.08.448-.24v1.712q-.528.24-1.28.24m3-11.584h1.76v3.12l-.08 1.248h.08q.351-.575 1.04-.944a3.1 3.1 0 0 1 1.504-.384q1.488 0 2.272.88.784.865.784 2.368v5.168h-1.76v-4.928q0-.927-.496-1.392-.48-.464-1.264-.464-.592 0-1.072.336-.465.336-.736.896a2.6 2.6 0 0 0-.272 1.168v4.384h-1.76zm16.145 0h2.048l4.304 11.456h-1.984l-1.024-2.928h-4.624l-1.04 2.928h-1.984zm2.736 6.864-1.216-3.408-.448-1.328h-.096l-.448 1.328-1.216 3.408zm4.898-3.568h1.68v1.072h.08q.353-.56 1.04-.944a3.13 3.13 0 0 1 1.552-.384q1.104 0 2 .56a3.9 3.9 0 0 1 1.408 1.552q.528.976.528 2.224t-.528 2.24a3.9 3.9 0 0 1-1.408 1.536 3.7 3.7 0 0 1-2 .56 3.13 3.13 0 0 1-1.552-.384q-.687-.384-1.04-.928h-.08l.08 1.136v3.376h-1.76zm4.096 6.8q.64 0 1.2-.336t.896-.96.336-1.424-.336-1.408a2.43 2.43 0 0 0-.896-.96 2.3 2.3 0 0 0-1.2-.336q-.639 0-1.2.336a2.5 2.5 0 0 0-.88.96q-.336.609-.336 1.408 0 .8.336 1.424.337.624.88.96.561.336 1.2.336m5.718-6.8h1.68v1.2h.08q.272-.624.944-1.024a2.67 2.67 0 0 1 1.424-.416q.593 0 .992.16v1.824q-.703-.255-1.264-.256a1.9 1.9 0 0 0-1.088.32 2.26 2.26 0 0 0-.736.864 2.5 2.5 0 0 0-.272 1.168v4.32h-1.76zm9.963 6.496 2.016-2.016a84 84 0 0 0 2-2.064q.672-.72.912-1.168.256-.447.256-1.072 0-.624-.48-1.088t-1.296-.464q-.752 0-1.232.448a2.03 2.03 0 0 0-.608 1.008l-1.6-.656q.16-.576.592-1.136a3.7 3.7 0 0 1 1.184-.944q.736-.384 1.696-.384 1.04 0 1.84.432.816.417 1.248 1.152.448.72.448 1.6a3.66 3.66 0 0 1-.496 1.824 7.3 7.3 0 0 1-1.232 1.616 134 134 0 0 0-1.616 1.6l-1.312 1.312.032.064h4.768v1.6h-7.12zm13.216 1.92q-1.345 0-2.368-.752-1.025-.768-1.584-2.064-.544-1.311-.544-2.912 0-1.616.544-2.912.56-1.311 1.584-2.064 1.023-.752 2.368-.752t2.352.752q1.023.753 1.568 2.064.56 1.296.56 2.912 0 1.6-.56 2.912-.545 1.296-1.568 2.064-1.024.753-2.352.752m0-1.664q.815 0 1.424-.528.623-.544.944-1.456.336-.927.336-2.08 0-1.152-.336-2.08-.32-.928-.944-1.456a2.1 2.1 0 0 0-1.424-.528q-.832 0-1.44.528t-.944 1.456q-.32.928-.32 2.08t.32 2.08q.336.912.944 1.456.608.528 1.44.528m5.909-.256 2.016-2.016a84 84 0 0 0 2-2.064q.672-.72.912-1.168.256-.447.256-1.072 0-.624-.48-1.088t-1.296-.464q-.752 0-1.232.448a2.03 2.03 0 0 0-.608 1.008l-1.6-.656q.16-.576.592-1.136a3.7 3.7 0 0 1 1.184-.944q.736-.384 1.696-.384 1.04 0 1.84.432.816.417 1.248 1.152.448.72.448 1.6a3.66 3.66 0 0 1-.496 1.824 7.3 7.3 0 0 1-1.232 1.616 134 134 0 0 0-1.616 1.6l-1.312 1.312.032.064h4.768v1.6h-7.12zm12.496 1.92q-1.12 0-2-.512a3.7 3.7 0 0 1-1.36-1.392 3.73 3.73 0 0 1-.48-1.84q0-.944.368-1.776.368-.848 1.088-1.904l2.768-4.064 1.392.96-2.496 3.472.064.064q.431-.255 1.088-.256.832 0 1.6.464.784.464 1.264 1.28.495.8.496 1.808 0 1.008-.528 1.856a3.74 3.74 0 0 1-1.392 1.344q-.864.496-1.872.496m-.016-1.648q.543 0 1.024-.256.48-.271.752-.736.288-.464.288-1.04t-.288-1.04a1.96 1.96 0 0 0-.768-.736 1.97 1.97 0 0 0-1.008-.272q-.544 0-1.024.272a1.96 1.96 0 0 0-.768.736q-.288.465-.288 1.04 0 .576.272 1.04.288.465.768.736.48.256 1.04.256"/><path fill="#EA4335" d="M147.767 365.906h-4.2v-2.688h11.235v2.688h-4.2v12.348h-2.835zm12.365 12.684q-1.659 0-2.961-.735a5.47 5.47 0 0 1-2.037-2.037q-.714-1.302-.714-2.919 0-1.596.714-2.898a5.3 5.3 0 0 1 2.037-2.037q1.302-.756 2.961-.756 1.638 0 2.94.756a5.13 5.13 0 0 1 2.016 2.037q.735 1.302.735 2.898 0 1.617-.735 2.919a5.3 5.3 0 0 1-2.016 2.037q-1.302.735-2.94.735m0-2.541q.798 0 1.47-.378a2.77 2.77 0 0 0 1.071-1.092q.399-.714.399-1.68 0-.945-.399-1.659a2.77 2.77 0 0 0-1.071-1.092 2.95 2.95 0 0 0-1.47-.378q-.798 0-1.47.378a2.9 2.9 0 0 0-1.092 1.092q-.399.714-.399 1.659t.399 1.68q.42.714 1.092 1.092t1.47.378m7.609-8.505h2.583v1.302h.168q.441-.693 1.281-1.155.84-.483 1.932-.483 1.449 0 2.625.735 1.197.714 1.869 2.016t.672 2.94q0 1.659-.672 2.961a5.1 5.1 0 0 1-1.869 2.016q-1.176.714-2.625.714-1.092 0-1.953-.462-.84-.462-1.26-1.155h-.168l.168 1.512v4.305h-2.751zm5.481 8.505a2.8 2.8 0 0 0 1.449-.399 2.9 2.9 0 0 0 1.071-1.113q.399-.714.399-1.638t-.399-1.638a2.77 2.77 0 0 0-1.071-1.092 2.79 2.79 0 0 0-2.877 0 2.77 2.77 0 0 0-1.071 1.092q-.399.714-.399 1.638t.399 1.638 1.071 1.113 1.428.399m15.862-8.568-2.163 1.575-1.386-2.121 4.221-3.045h2.079v14.364h-2.751zm11.668 11.109q-1.806 0-3.171-.966-1.365-.987-2.121-2.688-.735-1.722-.735-3.864t.735-3.843q.756-1.722 2.121-2.688 1.365-.987 3.171-.987t3.171.987q1.365.966 2.1 2.688.756 1.701.756 3.843t-.756 3.864q-.735 1.701-2.1 2.688-1.365.966-3.171.966m0-2.583q1.008 0 1.743-.63.756-.651 1.134-1.764.399-1.134.399-2.541 0-2.184-.882-3.549-.882-1.386-2.394-1.386-1.491 0-2.373 1.386t-.882 3.549q0 1.407.378 2.541.399 1.113 1.134 1.764.756.63 1.743.63m14.171 2.583q-1.806 0-3.171-.966-1.365-.987-2.121-2.688-.735-1.722-.735-3.864t.735-3.843q.756-1.722 2.121-2.688 1.365-.987 3.171-.987t3.171.987q1.365.966 2.1 2.688.756 1.701.756 3.843t-.756 3.864q-.735 1.701-2.1 2.688-1.365.966-3.171.966m0-2.583q1.008 0 1.743-.63.756-.651 1.134-1.764.399-1.134.399-2.541 0-2.184-.882-3.549-.882-1.386-2.394-1.386-1.491 0-2.373 1.386t-.882 3.549q0 1.407.378 2.541.399 1.113 1.134 1.764.756.63 1.743.63m15.942-10.101h-4.2v-2.688H237.9v2.688h-4.2v12.348h-2.835zm12.26 12.684q-1.596 0-2.877-.735a5.36 5.36 0 0 1-2.016-2.016q-.714-1.302-.714-2.919a5.8 5.8 0 0 1 .714-2.835 5.5 5.5 0 0 1 1.974-2.1q1.26-.777 2.814-.777 1.659 0 2.856.714a4.6 4.6 0 0 1 1.806 1.953q.63 1.239.63 2.751 0 .483-.063.924h-8.043q.21 1.281 1.008 1.953.819.651 1.953.651.945 0 1.617-.399.693-.42 1.092-1.113l2.226 1.092q-1.638 2.856-4.977 2.856m2.541-6.993a2 2 0 0 0-.378-.987 2.34 2.34 0 0 0-.903-.819q-.567-.336-1.344-.336-.987 0-1.701.588-.693.567-1.008 1.554zm8.143 6.993q-1.701 0-2.793-.987-1.092-1.008-1.092-2.625 0-1.071.567-1.89t1.554-1.26 2.184-.441q1.659 0 2.835.483v-.462q0-.882-.672-1.428-.651-.546-1.764-.546a3.25 3.25 0 0 0-1.47.357 3.35 3.35 0 0 0-1.155.903l-1.764-1.386a5.2 5.2 0 0 1 1.953-1.554 6 6 0 0 1 2.562-.546q2.457 0 3.738 1.134t1.281 3.318v6.594h-2.709v-1.092h-.168q-.483.63-1.281 1.029-.777.399-1.806.399m.651-2.142q1.197 0 1.89-.756.714-.777.714-1.806a5.2 5.2 0 0 0-2.247-.504q-2.142 0-2.142 1.596 0 .651.462 1.071.462.399 1.323.399m7.845-8.904h2.583v1.344h.168a3.5 3.5 0 0 1 1.344-1.218 4 4 0 0 1 1.911-.462q1.134 0 1.974.546.84.525 1.197 1.344.525-.84 1.428-1.365.924-.525 2.163-.525 1.827 0 2.772 1.134.966 1.113.966 3.024v6.888h-2.73v-6.384q0-1.008-.483-1.554-.462-.546-1.302-.546-1.071 0-1.722.861-.63.84-.63 2.226v5.397h-2.751v-6.384q0-1.008-.504-1.554-.483-.546-1.386-.546-1.008 0-1.638.861-.609.84-.609 2.226v5.397h-2.751zm-113.362 15.674h3.255l5.649 15.036h-3.129l-1.26-3.591h-5.754l-1.26 3.591h-3.129zm3.591 8.841-1.323-3.78-.546-1.806h-.168l-.546 1.806-1.344 3.78zm6.965-4.515h2.583v1.344h.168a3.3 3.3 0 0 1 1.365-1.218 4.06 4.06 0 0 1 1.911-.462q1.932 0 2.94 1.176t1.008 3.213v6.657h-2.751v-6.321q0-1.029-.525-1.596t-1.47-.567q-1.113 0-1.806.861-.672.861-.672 2.163v5.46h-2.751zm12.572 0h2.583v1.344h.168a3.3 3.3 0 0 1 1.365-1.218 4.06 4.06 0 0 1 1.911-.462q1.932 0 2.94 1.176t1.008 3.213v6.657h-2.751v-6.321q0-1.029-.525-1.596t-1.47-.567q-1.113 0-1.806.861-.672.861-.672 2.163v5.46h-2.751zm17.695 11.046q-1.659 0-2.961-.735a5.47 5.47 0 0 1-2.037-2.037q-.714-1.302-.714-2.919 0-1.596.714-2.898a5.3 5.3 0 0 1 2.037-2.037q1.302-.756 2.961-.756 1.638 0 2.94.756a5.13 5.13 0 0 1 2.016 2.037q.735 1.302.735 2.898 0 1.617-.735 2.919a5.3 5.3 0 0 1-2.016 2.037q-1.302.735-2.94.735m0-2.541q.798 0 1.47-.378a2.77 2.77 0 0 0 1.071-1.092q.399-.714.399-1.68 0-.945-.399-1.659a2.77 2.77 0 0 0-1.071-1.092 2.95 2.95 0 0 0-1.47-.378q-.798 0-1.47.378a2.9 2.9 0 0 0-1.092 1.092q-.399.714-.399 1.659t.399 1.68q.42.714 1.092 1.092t1.47.378m11.557 2.541q-1.932 0-2.94-1.197t-1.008-3.339v-6.51h2.751v6.174q0 1.092.525 1.722.525.609 1.386.609 1.176 0 1.869-.861t.693-2.184v-5.46h2.751v10.71h-2.583v-1.344h-.168q-.483.777-1.365 1.239a4.1 4.1 0 0 1-1.911.441m8.708-11.046h2.583v1.344h.168a3.3 3.3 0 0 1 1.365-1.218 4.06 4.06 0 0 1 1.911-.462q1.932 0 2.94 1.176t1.008 3.213v6.657h-2.751v-6.321q0-1.029-.525-1.596t-1.47-.567q-1.113 0-1.806.861-.672.861-.672 2.163v5.46h-2.751zm17.611 11.046q-1.617 0-2.898-.714a5.3 5.3 0 0 1-2.016-2.037q-.714-1.302-.714-2.94t.714-2.919a5.3 5.3 0 0 1 2.016-2.037q1.281-.735 2.898-.735 1.785 0 3.066.777a4.3 4.3 0 0 1 1.848 2.163l-2.52 1.05q-.672-1.428-2.394-1.428-1.26 0-2.079.861-.798.861-.798 2.268 0 1.428.798 2.289.819.861 2.079.861 1.743 0 2.52-1.512l2.499 1.092q-.693 1.407-1.974 2.184t-3.045.777m11.914 0q-1.596 0-2.877-.735a5.36 5.36 0 0 1-2.016-2.016q-.714-1.302-.714-2.919a5.8 5.8 0 0 1 .714-2.835 5.5 5.5 0 0 1 1.974-2.1q1.26-.777 2.814-.777 1.659 0 2.856.714a4.6 4.6 0 0 1 1.806 1.953q.63 1.239.63 2.751 0 .483-.063.924h-8.043q.21 1.281 1.008 1.953.819.651 1.953.651.945 0 1.617-.399.693-.42 1.092-1.113l2.226 1.092q-1.638 2.856-4.977 2.856m2.541-6.993a2 2 0 0 0-.378-.987 2.34 2.34 0 0 0-.903-.819q-.567-.336-1.344-.336-.987 0-1.701.588-.693.567-1.008 1.554zm4.766-4.053h2.583v1.344h.168a3.5 3.5 0 0 1 1.344-1.218 4 4 0 0 1 1.911-.462q1.134 0 1.974.546.84.525 1.197 1.344.525-.84 1.428-1.365.924-.525 2.163-.525 1.827 0 2.772 1.134.966 1.113.966 3.024v6.888h-2.73v-6.384q0-1.008-.483-1.554-.462-.546-1.302-.546-1.071 0-1.722.861-.63.84-.63 2.226v5.397h-2.751v-6.384q0-1.008-.504-1.554-.483-.546-1.386-.546-1.008 0-1.638.861-.609.84-.609 2.226v5.397h-2.751zm24.152 11.046q-1.596 0-2.877-.735a5.36 5.36 0 0 1-2.016-2.016q-.714-1.302-.714-2.919a5.8 5.8 0 0 1 .714-2.835 5.5 5.5 0 0 1 1.974-2.1q1.26-.777 2.814-.777 1.659 0 2.856.714a4.6 4.6 0 0 1 1.806 1.953q.63 1.239.63 2.751 0 .483-.063.924h-8.043q.21 1.281 1.008 1.953.819.651 1.953.651.945 0 1.617-.399.693-.42 1.092-1.113l2.226 1.092q-1.638 2.856-4.977 2.856m2.541-6.993a2 2 0 0 0-.378-.987 2.34 2.34 0 0 0-.903-.819q-.567-.336-1.344-.336-.987 0-1.701.588-.693.567-1.008 1.554zm4.766-4.053h2.583v1.344h.168a3.3 3.3 0 0 1 1.365-1.218 4.06 4.06 0 0 1 1.911-.462q1.932 0 2.94 1.176t1.008 3.213v6.657h-2.751v-6.321q0-1.029-.525-1.596t-1.47-.567q-1.113 0-1.806.861-.672.861-.672 2.163v5.46h-2.751zm16.7 10.878a4.5 4.5 0 0 1-1.47-.231q-.672-.252-1.092-.672-.987-.945-.987-2.688v-4.935h-1.869v-2.352h1.869v-3.024h2.751v3.024h2.625v2.352h-2.625v4.431q0 .819.357 1.176.294.336 1.008.336.399 0 .651-.105.273-.105.693-.357v2.688a5.2 5.2 0 0 1-1.911.357"/><path fill="#1E1E1E" d="m143.507 416.192 2.016-2.016a92 92 0 0 0 2-2.064q.672-.72.912-1.168.255-.448.256-1.072 0-.624-.48-1.088t-1.296-.464q-.753 0-1.232.448-.464.432-.608 1.008l-1.6-.656a3.3 3.3 0 0 1 .592-1.136q.447-.56 1.184-.944t1.696-.384q1.04 0 1.84.432.816.416 1.248 1.152.448.72.448 1.6 0 .944-.496 1.824a7.3 7.3 0 0 1-1.232 1.616q-.32.303-1.616 1.6l-1.312 1.312.032.064h4.768v1.6h-7.12zm10.671.992 2.496-3.472-.064-.064q-.432.255-1.088.256-.831 0-1.616-.464a3.8 3.8 0 0 1-1.264-1.264 3.53 3.53 0 0 1-.48-1.824q0-1.008.512-1.856a3.9 3.9 0 0 1 1.392-1.344 3.8 3.8 0 0 1 1.888-.496q1.12 0 2 .528.88.512 1.36 1.376t.48 1.84q0 .943-.368 1.792-.368.832-1.088 1.888l-2.768 4.064zm1.792-4.8a2.15 2.15 0 0 0 1.024-.256q.48-.273.768-.736.288-.48.288-1.056t-.288-1.04a1.87 1.87 0 0 0-.752-.72 2.07 2.07 0 0 0-1.04-.272q-.543 0-1.024.272-.48.255-.768.72a2 2 0 0 0-.272 1.04q0 .576.288 1.056.288.463.752.736.48.255 1.024.256m8.934 5.6q-.544 0-1.024-.176a2.3 2.3 0 0 1-.784-.464q-.688-.689-.688-1.872v-4.224h-1.424v-1.552h1.424v-2.304h1.76v2.304h1.984v1.552h-1.984v3.84q0 .655.256.928.24.32.832.32.272 0 .48-.064.208-.081.448-.24v1.712q-.528.24-1.28.24m2.999-11.584h1.76v3.12l-.08 1.248h.08q.353-.576 1.04-.944.705-.384 1.504-.384 1.488 0 2.272.88.784.864.784 2.368v5.168h-1.76v-4.928q0-.929-.496-1.392-.48-.465-1.264-.464-.591 0-1.072.336a2.35 2.35 0 0 0-.736.896 2.6 2.6 0 0 0-.272 1.168v4.384h-1.76zm13.398 0h2.432l3.296 8.688h.096l3.296-8.688h2.432v11.456h-1.776v-6.416l.096-2.064h-.096l-3.28 8.48h-1.44l-3.28-8.48h-.096l.096 2.064v6.416h-1.776zm16.209 11.712q-.88 0-1.568-.336a2.65 2.65 0 0 1-1.072-.976 2.75 2.75 0 0 1-.384-1.44q0-1.265.944-2 .96-.736 2.416-.736.72 0 1.296.144.576.127.912.288v-.416q0-.753-.56-1.216-.56-.48-1.44-.48-.624 0-1.184.272a2.3 2.3 0 0 0-.88.752l-1.232-.944a3.67 3.67 0 0 1 1.408-1.168 4.36 4.36 0 0 1 1.92-.416q1.776 0 2.736.88.96.864.96 2.448v5.088h-1.728v-.976h-.08q-.351.528-.992.88-.64.351-1.472.352m.304-1.456q.64 0 1.152-.304t.8-.816q.288-.513.288-1.104a3.5 3.5 0 0 0-.864-.336 3.9 3.9 0 0 0-1.008-.128q-.991 0-1.456.4a1.25 1.25 0 0 0-.464 1.008q0 .56.432.928.433.351 1.12.352m8.226.752-3.392-7.712h1.968l2.304 5.552h.064l2.24-5.552h1.936l-5.04 11.616h-1.856zm9.764-1.216 2.016-2.016a92 92 0 0 0 2-2.064q.672-.72.912-1.168.255-.448.256-1.072 0-.624-.48-1.088t-1.296-.464q-.753 0-1.232.448-.464.432-.608 1.008l-1.6-.656a3.3 3.3 0 0 1 .592-1.136q.447-.56 1.184-.944t1.696-.384q1.04 0 1.84.432.816.416 1.248 1.152.448.72.448 1.6 0 .944-.496 1.824a7.3 7.3 0 0 1-1.232 1.616q-.32.303-1.616 1.6l-1.312 1.312.032.064h4.768v1.6h-7.12zm13.215 1.92q-1.344 0-2.368-.752-1.025-.768-1.584-2.064-.544-1.313-.544-2.912 0-1.616.544-2.912.56-1.312 1.584-2.064t2.368-.752 2.352.752q1.024.751 1.568 2.064.56 1.295.56 2.912 0 1.6-.56 2.912-.544 1.296-1.568 2.064-1.024.752-2.352.752m0-1.664q.816 0 1.424-.528.624-.544.944-1.456.336-.928.336-2.08t-.336-2.08q-.32-.928-.944-1.456a2.1 2.1 0 0 0-1.424-.528q-.832 0-1.44.528t-.944 1.456q-.32.928-.32 2.08t.32 2.08q.336.912.944 1.456.608.528 1.44.528m5.91-.256 2.016-2.016a92 92 0 0 0 2-2.064q.672-.72.912-1.168.255-.448.256-1.072 0-.624-.48-1.088t-1.296-.464q-.753 0-1.232.448-.464.432-.608 1.008l-1.6-.656a3.3 3.3 0 0 1 .592-1.136q.447-.56 1.184-.944t1.696-.384q1.04 0 1.84.432.816.416 1.248 1.152.448.72.448 1.6 0 .944-.496 1.824a7.3 7.3 0 0 1-1.232 1.616q-.32.303-1.616 1.6l-1.312 1.312.032.064h4.768v1.6h-7.12zm12.495 1.92q-1.12 0-2-.512a3.7 3.7 0 0 1-1.36-1.392 3.73 3.73 0 0 1-.48-1.84q0-.945.368-1.776.368-.849 1.088-1.904l2.768-4.064 1.392.96-2.496 3.472.064.064q.432-.256 1.088-.256.832 0 1.6.464.784.464 1.264 1.28.496.8.496 1.808t-.528 1.856a3.74 3.74 0 0 1-1.392 1.344q-.864.495-1.872.496m-.016-1.648a2.15 2.15 0 0 0 1.024-.256q.48-.273.752-.736.288-.465.288-1.04 0-.576-.288-1.04a1.95 1.95 0 0 0-.768-.736 1.95 1.95 0 0 0-1.008-.272q-.544 0-1.024.272-.48.255-.768.736a1.93 1.93 0 0 0-.288 1.04q0 .576.272 1.04.288.463.768.736.48.255 1.04.256"/><path fill="#4285F4" d="M142.781 486.218h2.835v12.348h6.363v2.688h-9.198zm12.742 3.15q-.735 0-1.26-.525t-.525-1.26.525-1.239q.525-.525 1.26-.525t1.239.525q.525.504.525 1.239t-.525 1.26a1.65 1.65 0 0 1-1.239.525m-1.386 1.176h2.751v10.71h-2.751zm4.439 0h3.129l2.709 6.972h.168l2.751-6.972h3.087l-4.578 10.71h-2.73zm18.049 11.046q-1.596 0-2.877-.735a5.36 5.36 0 0 1-2.016-2.016q-.714-1.302-.714-2.919a5.8 5.8 0 0 1 .714-2.835 5.5 5.5 0 0 1 1.974-2.1q1.26-.777 2.814-.777 1.659 0 2.856.714a4.6 4.6 0 0 1 1.806 1.953q.63 1.239.63 2.751 0 .483-.063.924h-8.043q.21 1.281 1.008 1.953.819.651 1.953.651.945 0 1.617-.399.693-.42 1.092-1.113l2.226 1.092q-1.638 2.856-4.977 2.856m2.541-6.993a2 2 0 0 0-.378-.987 2.34 2.34 0 0 0-.903-.819q-.567-.336-1.344-.336-.987 0-1.701.588-.693.567-1.008 1.554zm10.065-8.379h5.292q1.428 0 2.604.609a4.47 4.47 0 0 1 1.848 1.68q.672 1.071.672 2.457t-.672 2.478a4.6 4.6 0 0 1-1.848 1.701q-1.176.588-2.604.588h-2.457v5.523h-2.835zm5.376 6.825q1.05 0 1.638-.609.609-.609.609-1.47t-.609-1.449q-.588-.609-1.638-.609h-2.541v4.137zm7.064-2.499h2.583v1.428h.168q.399-.756 1.239-1.239a3.5 3.5 0 0 1 1.848-.504q.735 0 1.344.231v2.751q-.567-.21-.966-.294a3 3 0 0 0-.819-.105q-1.218 0-1.932.882t-.714 2.226v5.334h-2.751zm13.45 11.046q-1.659 0-2.961-.735a5.47 5.47 0 0 1-2.037-2.037q-.714-1.302-.714-2.919 0-1.596.714-2.898a5.3 5.3 0 0 1 2.037-2.037q1.302-.756 2.961-.756 1.638 0 2.94.756a5.13 5.13 0 0 1 2.016 2.037q.735 1.302.735 2.898 0 1.617-.735 2.919a5.3 5.3 0 0 1-2.016 2.037q-1.302.735-2.94.735m0-2.541q.798 0 1.47-.378a2.77 2.77 0 0 0 1.071-1.092q.399-.714.399-1.68 0-.945-.399-1.659a2.77 2.77 0 0 0-1.071-1.092 2.95 2.95 0 0 0-1.47-.378q-.798 0-1.47.378a2.9 2.9 0 0 0-1.092 1.092q-.399.714-.399 1.659t.399 1.68q.42.714 1.092 1.092t1.47.378m12.395 2.541a5.07 5.07 0 0 1-2.646-.714 5.3 5.3 0 0 1-1.869-2.016q-.672-1.302-.672-2.961 0-1.638.672-2.94.693-1.302 1.869-2.016a4.96 4.96 0 0 1 2.646-.735q1.092 0 1.932.483.84.462 1.281 1.155h.168l-.168-1.512v-4.116h2.73v15.036h-2.562v-1.281h-.168q-.42.693-1.281 1.155-.84.462-1.932.462m.462-2.541a2.8 2.8 0 0 0 1.449-.399 2.9 2.9 0 0 0 1.071-1.113q.399-.714.399-1.638t-.399-1.638a2.77 2.77 0 0 0-1.071-1.092 2.79 2.79 0 0 0-2.877 0 2.77 2.77 0 0 0-1.071 1.092q-.399.714-.399 1.638t.399 1.638 1.071 1.113 1.428.399m12.051 2.541q-1.932 0-2.94-1.197t-1.008-3.339v-6.51h2.751v6.174q0 1.092.525 1.722.525.609 1.386.609 1.176 0 1.869-.861t.693-2.184v-5.46h2.751v10.71h-2.583v-1.344h-.168q-.483.777-1.365 1.239a4.1 4.1 0 0 1-1.911.441m13.645 0q-1.617 0-2.898-.714a5.3 5.3 0 0 1-2.016-2.037q-.714-1.302-.714-2.94t.714-2.919a5.3 5.3 0 0 1 2.016-2.037q1.281-.735 2.898-.735 1.785 0 3.066.777a4.3 4.3 0 0 1 1.848 2.163l-2.52 1.05q-.672-1.428-2.394-1.428-1.26 0-2.079.861-.798.861-.798 2.268 0 1.428.798 2.289.819.861 2.079.861 1.743 0 2.52-1.512l2.499 1.092q-.693 1.407-1.974 2.184t-3.045.777m11.557-.168a4.5 4.5 0 0 1-1.47-.231q-.672-.252-1.092-.672-.987-.945-.987-2.688v-4.935h-1.869v-2.352h1.869v-3.024h2.751v3.024h2.625v2.352h-2.625v4.431q0 .819.357 1.176.294.336 1.008.336.399 0 .651-.105.273-.105.693-.357v2.688a5.2 5.2 0 0 1-1.911.357m9.415-15.204h2.835v6.006h6.321v-6.006h2.835v15.036h-2.835v-6.342h-6.321v6.342h-2.835zm20.189 15.372q-1.659 0-2.961-.735a5.47 5.47 0 0 1-2.037-2.037q-.714-1.302-.714-2.919 0-1.596.714-2.898a5.3 5.3 0 0 1 2.037-2.037q1.302-.756 2.961-.756 1.638 0 2.94.756a5.13 5.13 0 0 1 2.016 2.037q.735 1.302.735 2.898 0 1.617-.735 2.919a5.3 5.3 0 0 1-2.016 2.037q-1.302.735-2.94.735m0-2.541q.798 0 1.47-.378a2.77 2.77 0 0 0 1.071-1.092q.399-.714.399-1.68 0-.945-.399-1.659a2.77 2.77 0 0 0-1.071-1.092 2.95 2.95 0 0 0-1.47-.378q-.798 0-1.47.378a2.9 2.9 0 0 0-1.092 1.092q-.399.714-.399 1.659t.399 1.68q.42.714 1.092 1.092t1.47.378m11.767 2.541q-1.953 0-3.171-.798-1.197-.798-1.68-2.079l2.457-1.071q.336.756.945 1.155.63.378 1.449.378.756 0 1.26-.231.504-.252.504-.798a.83.83 0 0 0-.462-.777q-.462-.273-1.386-.483l-1.26-.273q-1.302-.315-2.163-1.134-.861-.84-.861-2.079 0-.924.546-1.659.567-.735 1.512-1.134a5.5 5.5 0 0 1 2.121-.399q3.318 0 4.431 2.331l-2.352 1.029q-.63-1.134-2.016-1.134-.714 0-1.134.273-.42.252-.42.651 0 .756 1.428 1.134l1.575.378q1.596.399 2.394 1.218.819.819.819 2.016a2.93 2.93 0 0 1-.609 1.827q-.588.777-1.638 1.218-1.029.441-2.289.441m11.088-.168a4.5 4.5 0 0 1-1.47-.231q-.672-.252-1.092-.672-.987-.945-.987-2.688v-4.935h-1.869v-2.352h1.869v-3.024h2.751v3.024h2.625v2.352h-2.625v4.431q0 .819.357 1.176.294.336 1.008.336.399 0 .651-.105.273-.105.693-.357v2.688a5.2 5.2 0 0 1-1.911.357m5.772-12.054q-.735 0-1.26-.525t-.525-1.26.525-1.239q.525-.525 1.26-.525t1.239.525q.525.504.525 1.239t-.525 1.26a1.65 1.65 0 0 1-1.239.525m-1.386 1.176h2.751v10.71h-2.751zm5.636 0h2.583v1.344h.168a3.3 3.3 0 0 1 1.365-1.218 4.06 4.06 0 0 1 1.911-.462q1.932 0 2.94 1.176t1.008 3.213v6.657h-2.751v-6.321q0-1.029-.525-1.596t-1.47-.567q-1.113 0-1.806.861-.672.861-.672 2.163v5.46h-2.751zm17.403 15.582q-2.037 0-3.381-.924-1.344-.903-1.806-2.184l2.583-1.05q.336.798 1.029 1.26t1.575.462q1.302 0 2.058-.798.777-.798.777-2.268v-.84h-.168q-.504.714-1.323 1.092t-1.869.378a4.85 4.85 0 0 1-2.478-.672q-1.134-.693-1.827-1.932-.693-1.26-.693-2.919t.693-2.898q.693-1.26 1.827-1.932a4.73 4.73 0 0 1 2.478-.693q1.05 0 1.869.378t1.323 1.092h.168v-1.134h2.646v9.975q0 1.722-.672 2.982a4.62 4.62 0 0 1-1.911 1.932q-1.239.693-2.898.693m.042-7.371q1.155 0 1.974-.798.819-.819.819-2.226 0-1.449-.819-2.226-.798-.798-1.974-.798t-1.995.798-.819 2.226.819 2.226 1.995.798"/><path fill="#1E1E1E" d="M146.614 522.573a4.05 4.05 0 0 1-2.288-.704q-1.056-.72-1.456-2.096l1.632-.672q.225.847.768 1.312.561.464 1.344.464.8 0 1.376-.48.576-.496.576-1.248 0-.768-.608-1.248-.608-.496-1.52-.496h-.944v-1.616h.848q.784 0 1.312-.416.544-.433.544-1.168 0-.657-.48-1.04-.48-.4-1.216-.4-.72 0-1.152.384-.416.384-.608.944l-1.616-.672q.32-.912 1.184-1.6.864-.705 2.208-.704.993 0 1.776.384.801.384 1.248 1.072.448.671.448 1.52 0 .864-.416 1.472a2.9 2.9 0 0 1-1.024.912v.096q.8.336 1.312 1.024t.512 1.648-.496 1.712a3.3 3.3 0 0 1-1.344 1.184q-.848.432-1.92.432m9.772 0q-1.344 0-2.368-.752-1.025-.768-1.584-2.064-.544-1.313-.544-2.912 0-1.616.544-2.912.56-1.312 1.584-2.064t2.368-.752 2.352.752q1.024.751 1.568 2.064.56 1.295.56 2.912 0 1.6-.56 2.912-.544 1.296-1.568 2.064-1.024.752-2.352.752m0-1.664q.816 0 1.424-.528.624-.544.944-1.456.336-.928.336-2.08t-.336-2.08q-.32-.928-.944-1.456a2.1 2.1 0 0 0-1.424-.528q-.833 0-1.44.528-.608.528-.944 1.456-.32.928-.32 2.08t.32 2.08q.336.912.944 1.456.607.528 1.44.528m9.666 1.536q-.544 0-1.024-.176a2.3 2.3 0 0 1-.784-.464q-.688-.688-.688-1.872v-4.224h-1.424v-1.552h1.424v-2.304h1.76v2.304h1.984v1.552h-1.984v3.84q0 .655.256.928.24.32.832.32.272 0 .48-.064.208-.081.448-.24v1.712q-.528.24-1.28.24m2.999-11.584h1.76v3.12l-.08 1.248h.08q.353-.576 1.04-.944.705-.384 1.504-.384 1.488 0 2.272.88.784.864.784 2.368v5.168h-1.76v-4.928q0-.928-.496-1.392-.48-.464-1.264-.464-.591 0-1.072.336a2.35 2.35 0 0 0-.736.896 2.6 2.6 0 0 0-.272 1.168v4.384h-1.76zm13.398 0h2.432l3.296 8.688h.096l3.296-8.688h2.432v11.456h-1.776v-6.416l.096-2.064h-.096l-3.28 8.48h-1.44l-3.28-8.48h-.096l.096 2.064v6.416h-1.776zm16.209 11.712q-.88 0-1.568-.336a2.65 2.65 0 0 1-1.072-.976 2.75 2.75 0 0 1-.384-1.44q0-1.265.944-2 .96-.736 2.416-.736.72 0 1.296.144.576.128.912.288v-.416q0-.753-.56-1.216-.56-.48-1.44-.48-.624 0-1.184.272a2.3 2.3 0 0 0-.88.752l-1.232-.944a3.67 3.67 0 0 1 1.408-1.168 4.36 4.36 0 0 1 1.92-.416q1.776 0 2.736.88.96.864.96 2.448v5.088h-1.728v-.976h-.08q-.351.528-.992.88-.64.352-1.472.352m.304-1.456q.64 0 1.152-.304.513-.305.8-.816.288-.513.288-1.104a3.5 3.5 0 0 0-.864-.336 3.9 3.9 0 0 0-1.008-.128q-.991 0-1.456.4a1.25 1.25 0 0 0-.464 1.008q0 .56.432.928.433.351 1.12.352m8.226.752-3.392-7.712h1.968l2.304 5.552h.064l2.24-5.552h1.936l-5.04 11.616h-1.856zm10.004-5.264h5.264v1.504h-5.264zm12.775 5.04 2.496-3.472-.064-.064q-.432.255-1.088.256-.832 0-1.616-.464a3.8 3.8 0 0 1-1.264-1.264 3.53 3.53 0 0 1-.48-1.824q0-1.008.512-1.856a3.9 3.9 0 0 1 1.392-1.344 3.8 3.8 0 0 1 1.888-.496q1.12 0 2 .528.88.512 1.36 1.376t.48 1.84q0 .943-.368 1.792-.368.832-1.088 1.888l-2.768 4.064zm1.792-4.8a2.15 2.15 0 0 0 1.024-.256q.48-.273.768-.736.288-.48.288-1.056t-.288-1.04a1.87 1.87 0 0 0-.752-.72 2.07 2.07 0 0 0-1.04-.272q-.544 0-1.024.272-.48.255-.768.72a2 2 0 0 0-.272 1.04q0 .576.288 1.056.288.463.752.736.48.255 1.024.256m8.933 5.6q-.544 0-1.024-.176a2.3 2.3 0 0 1-.784-.464q-.687-.688-.688-1.872v-4.224h-1.424v-1.552h1.424v-2.304h1.76v2.304h1.984v1.552h-1.984v3.84q0 .655.256.928.24.32.832.32.273 0 .48-.064.208-.081.448-.24v1.712q-.527.24-1.28.24m3-11.584h1.76v3.12l-.08 1.248h.08q.352-.576 1.04-.944a3.1 3.1 0 0 1 1.504-.384q1.488 0 2.272.88.784.864.784 2.368v5.168h-1.76v-4.928q0-.928-.496-1.392-.48-.464-1.264-.464-.592 0-1.072.336a2.34 2.34 0 0 0-.736.896 2.6 2.6 0 0 0-.272 1.168v4.384h-1.76zm15.228 11.712q-1.311 0-2.288-.704-.975-.72-1.376-2l1.664-.688q.497 1.68 2 1.68.833 0 1.328-.56.496-.576.496-1.504v-7.936h1.776v7.872q0 1.215-.464 2.08a3.16 3.16 0 0 1-1.28 1.312q-.815.447-1.856.448m8.56 0q-1.488 0-2.272-.88-.768-.896-.768-2.48v-5.056h1.76v4.816q0 .991.464 1.488.48.495 1.248.496.624 0 1.104-.32.48-.337.736-.88.256-.544.256-1.168v-4.432h1.76v8.16h-1.664v-1.056h-.096q-.335.576-1.04.944a3.2 3.2 0 0 1-1.488.368m6.337-8.416h1.68v1.072h.08q.352-.576 1.04-.944a3.06 3.06 0 0 1 1.488-.384q1.488 0 2.256.88.784.864.784 2.368v5.168h-1.76v-4.928q0-.96-.48-1.408-.464-.448-1.296-.448-.592 0-1.056.336a2.1 2.1 0 0 0-.72.864 2.7 2.7 0 0 0-.256 1.168v4.416h-1.76zm12.806 6.496 2.016-2.016a88 88 0 0 0 2-2.064q.672-.72.912-1.168.256-.448.256-1.072t-.48-1.088-1.296-.464q-.752 0-1.232.448a2.03 2.03 0 0 0-.608 1.008l-1.6-.656q.16-.576.592-1.136a3.65 3.65 0 0 1 1.184-.944q.736-.384 1.696-.384 1.04 0 1.84.432.816.415 1.248 1.152.448.72.448 1.6 0 .943-.496 1.824a7.3 7.3 0 0 1-1.232 1.616q-.32.303-1.616 1.6l-1.312 1.312.032.064h4.768v1.6h-7.12zm13.216 1.92q-1.344 0-2.368-.752-1.024-.768-1.584-2.064-.544-1.313-.544-2.912 0-1.616.544-2.912.56-1.312 1.584-2.064t2.368-.752 2.352.752q1.024.751 1.568 2.064.56 1.295.56 2.912 0 1.6-.56 2.912-.544 1.296-1.568 2.064-1.024.752-2.352.752m0-1.664q.816 0 1.424-.528.624-.544.944-1.456.336-.928.336-2.08t-.336-2.08q-.32-.928-.944-1.456a2.1 2.1 0 0 0-1.424-.528q-.833 0-1.44.528-.608.528-.944 1.456-.32.928-.32 2.08t.32 2.08q.336.912.944 1.456.607.528 1.44.528m5.909-.256 2.016-2.016a88 88 0 0 0 2-2.064q.672-.72.912-1.168.256-.448.256-1.072t-.48-1.088-1.296-.464q-.752 0-1.232.448a2.03 2.03 0 0 0-.608 1.008l-1.6-.656q.16-.576.592-1.136a3.65 3.65 0 0 1 1.184-.944q.736-.384 1.696-.384 1.04 0 1.84.432.816.415 1.248 1.152.448.72.448 1.6 0 .943-.496 1.824a7.3 7.3 0 0 1-1.232 1.616q-.32.303-1.616 1.6l-1.312 1.312.032.064h4.768v1.6h-7.12zm12.496 1.92q-1.12 0-2-.512a3.7 3.7 0 0 1-1.36-1.392 3.73 3.73 0 0 1-.48-1.84q0-.945.368-1.776.368-.849 1.088-1.904l2.768-4.064 1.392.96-2.496 3.472.064.064q.432-.256 1.088-.256.832 0 1.6.464.784.464 1.264 1.28.496.8.496 1.808 0 1.007-.528 1.856a3.74 3.74 0 0 1-1.392 1.344q-.864.495-1.872.496m-.016-1.648a2.15 2.15 0 0 0 1.024-.256q.48-.273.752-.736.288-.464.288-1.04t-.288-1.04a1.95 1.95 0 0 0-.768-.736 1.95 1.95 0 0 0-1.008-.272q-.544 0-1.024.272-.48.255-.768.736a1.93 1.93 0 0 0-.288 1.04q0 .576.272 1.04.288.463.768.736.48.255 1.04.256"/><path fill="#F9AB00" d="M141.726 605.218h2.835v15.036h-2.835zm5.877 4.326h2.583v1.344h.168a3.3 3.3 0 0 1 1.365-1.218 4.06 4.06 0 0 1 1.911-.462q1.932 0 2.94 1.176t1.008 3.213v6.657h-2.751v-6.321q0-1.029-.525-1.596t-1.47-.567q-1.113 0-1.806.861-.672.861-.672 2.163v5.46h-2.751zm17.17 11.046a5.07 5.07 0 0 1-2.646-.714 5.3 5.3 0 0 1-1.869-2.016q-.672-1.302-.672-2.961 0-1.638.672-2.94.693-1.302 1.869-2.016a4.96 4.96 0 0 1 2.646-.735q1.092 0 1.932.483.84.462 1.281 1.155h.168l-.168-1.512v-4.116h2.73v15.036h-2.562v-1.281h-.168q-.42.693-1.281 1.155-.84.462-1.932.462m.462-2.541a2.8 2.8 0 0 0 1.449-.399 2.9 2.9 0 0 0 1.071-1.113q.399-.714.399-1.638t-.399-1.638a2.77 2.77 0 0 0-1.071-1.092 2.79 2.79 0 0 0-2.877 0 2.77 2.77 0 0 0-1.071 1.092q-.399.714-.399 1.638t.399 1.638 1.071 1.113 1.428.399m12.051 2.541q-1.932 0-2.94-1.197t-1.008-3.339v-6.51h2.751v6.174q0 1.092.525 1.722.525.609 1.386.609 1.176 0 1.869-.861t.693-2.184v-5.46h2.751v10.71h-2.583v-1.344h-.168q-.483.777-1.365 1.239a4.1 4.1 0 0 1-1.911.441m13.645 0q-1.617 0-2.898-.714a5.3 5.3 0 0 1-2.016-2.037q-.714-1.302-.714-2.94t.714-2.919a5.3 5.3 0 0 1 2.016-2.037q1.281-.735 2.898-.735 1.785 0 3.066.777a4.3 4.3 0 0 1 1.848 2.163l-2.52 1.05q-.672-1.428-2.394-1.428-1.26 0-2.079.861-.798.861-.798 2.268 0 1.428.798 2.289.819.861 2.079.861 1.743 0 2.52-1.512l2.499 1.092q-.693 1.407-1.974 2.184t-3.045.777m11.557-.168a4.5 4.5 0 0 1-1.47-.231q-.672-.252-1.092-.672-.987-.945-.987-2.688v-4.935h-1.869v-2.352h1.869v-3.024h2.751v3.024h2.625v2.352h-2.625v4.431q0 .819.357 1.176.294.336 1.008.336.399 0 .651-.105.273-.105.693-.357v2.688a5.2 5.2 0 0 1-1.911.357m5.772-12.054q-.735 0-1.26-.525t-.525-1.26.525-1.239q.525-.525 1.26-.525t1.239.525q.525.504.525 1.239t-.525 1.26a1.65 1.65 0 0 1-1.239.525m-1.386 1.176h2.751v10.71h-2.751zm10.657 11.046q-1.659 0-2.961-.735a5.47 5.47 0 0 1-2.037-2.037q-.714-1.302-.714-2.919 0-1.596.714-2.898a5.3 5.3 0 0 1 2.037-2.037q1.302-.756 2.961-.756 1.638 0 2.94.756a5.13 5.13 0 0 1 2.016 2.037q.735 1.302.735 2.898 0 1.617-.735 2.919a5.3 5.3 0 0 1-2.016 2.037q-1.302.735-2.94.735m0-2.541q.798 0 1.47-.378a2.77 2.77 0 0 0 1.071-1.092q.399-.714.399-1.68 0-.945-.399-1.659a2.77 2.77 0 0 0-1.071-1.092 2.95 2.95 0 0 0-1.47-.378q-.798 0-1.47.378a2.9 2.9 0 0 0-1.092 1.092q-.399.714-.399 1.659t.399 1.68q.42.714 1.092 1.092t1.47.378m7.591-8.505h2.583v1.344h.168a3.3 3.3 0 0 1 1.365-1.218 4.06 4.06 0 0 1 1.911-.462q1.932 0 2.94 1.176t1.008 3.213v6.657h-2.751v-6.321q0-1.029-.525-1.596t-1.47-.567q-1.113 0-1.806.861-.672.861-.672 2.163v5.46h-2.751zm21.772 11.046q-1.974 0-3.486-1.113t-2.121-3.15l2.667-1.05q.315 1.197 1.071 1.911t1.89.714q.945 0 1.617-.462.672-.483.672-1.323t-.651-1.365q-.63-.546-2.268-1.155l-.924-.336a6.44 6.44 0 0 1-2.478-1.533q-1.029-1.05-1.029-2.625 0-1.176.609-2.142t1.722-1.512q1.113-.567 2.52-.567 2.037 0 3.213.966 1.176.945 1.617 2.226l-2.499 1.05a2.4 2.4 0 0 0-.819-1.155q-.567-.483-1.47-.483-.924 0-1.533.441-.588.42-.588 1.113 0 .672.567 1.155.567.462 1.869.903l.945.315q1.953.672 2.982 1.785 1.05 1.092 1.05 2.877 0 1.47-.756 2.499a4.65 4.65 0 0 1-1.953 1.512 6.1 6.1 0 0 1-2.436.504m12.471 0q-1.596 0-2.877-.735a5.36 5.36 0 0 1-2.016-2.016q-.714-1.302-.714-2.919a5.8 5.8 0 0 1 .714-2.835 5.5 5.5 0 0 1 1.974-2.1q1.26-.777 2.814-.777 1.659 0 2.856.714a4.6 4.6 0 0 1 1.806 1.953q.63 1.239.63 2.751 0 .483-.063.924h-8.043q.21 1.281 1.008 1.953.819.651 1.953.651.945 0 1.617-.399.693-.42 1.092-1.113l2.226 1.092q-1.638 2.856-4.977 2.856m2.541-6.993a2 2 0 0 0-.378-.987 2.34 2.34 0 0 0-.903-.819q-.567-.336-1.344-.336-.987 0-1.701.588-.693.567-1.008 1.554zm8.942 6.993q-1.953 0-3.171-.798-1.197-.798-1.68-2.079l2.457-1.071q.336.756.945 1.155.63.378 1.449.378.756 0 1.26-.231.504-.252.504-.798a.83.83 0 0 0-.462-.777q-.462-.273-1.386-.483l-1.26-.273q-1.302-.315-2.163-1.134-.861-.84-.861-2.079 0-.924.546-1.659.567-.735 1.512-1.134a5.5 5.5 0 0 1 2.121-.399q3.318 0 4.431 2.331l-2.352 1.029q-.63-1.134-2.016-1.134-.714 0-1.134.273-.42.252-.42.651 0 .756 1.428 1.134l1.575.378q1.596.399 2.394 1.218.819.819.819 2.016a2.93 2.93 0 0 1-.609 1.827q-.588.777-1.638 1.218-1.029.441-2.289.441m10.602 0q-1.953 0-3.171-.798-1.197-.798-1.68-2.079l2.457-1.071q.336.756.945 1.155.63.378 1.449.378.756 0 1.26-.231.504-.252.504-.798a.83.83 0 0 0-.462-.777q-.462-.273-1.386-.483l-1.26-.273q-1.302-.315-2.163-1.134-.861-.84-.861-2.079 0-.924.546-1.659.567-.735 1.512-1.134a5.5 5.5 0 0 1 2.121-.399q3.318 0 4.431 2.331l-2.352 1.029q-.63-1.134-2.016-1.134-.714 0-1.134.273-.42.252-.42.651 0 .756 1.428 1.134l1.575.378q1.596.399 2.394 1.218.819.819.819 2.016a2.93 2.93 0 0 1-.609 1.827q-.588.777-1.638 1.218-1.029.441-2.289.441m7.98-12.222q-.735 0-1.26-.525t-.525-1.26.525-1.239q.525-.525 1.26-.525t1.239.525q.525.504.525 1.239t-.525 1.26a1.65 1.65 0 0 1-1.239.525m-1.386 1.176h2.751v10.71h-2.751zm10.657 11.046q-1.659 0-2.961-.735a5.47 5.47 0 0 1-2.037-2.037q-.714-1.302-.714-2.919 0-1.596.714-2.898a5.3 5.3 0 0 1 2.037-2.037q1.302-.756 2.961-.756 1.638 0 2.94.756a5.13 5.13 0 0 1 2.016 2.037q.735 1.302.735 2.898 0 1.617-.735 2.919a5.3 5.3 0 0 1-2.016 2.037q-1.302.735-2.94.735m0-2.541q.798 0 1.47-.378a2.77 2.77 0 0 0 1.071-1.092q.399-.714.399-1.68 0-.945-.399-1.659a2.77 2.77 0 0 0-1.071-1.092 2.95 2.95 0 0 0-1.47-.378q-.798 0-1.47.378a2.9 2.9 0 0 0-1.092 1.092q-.399.714-.399 1.659t.399 1.68q.42.714 1.092 1.092t1.47.378m7.591-8.505h2.583v1.344h.168a3.3 3.3 0 0 1 1.365-1.218 4.06 4.06 0 0 1 1.911-.462q1.932 0 2.94 1.176t1.008 3.213v6.657h-2.751v-6.321q0-1.029-.525-1.596t-1.47-.567q-1.113 0-1.806.861-.672.861-.672 2.163v5.46h-2.751z"/><path fill="#1E1E1E" d="m143.631 629.694-1.792 1.296-.896-1.36 3.216-2.32h1.232v10.944h-1.76zm7.17 8.816q-1.409 0-2.304-.608-.897-.624-1.264-1.584l1.568-.688q.287.64.8.976.528.336 1.2.336.656 0 1.104-.224.448-.24.448-.704a.8.8 0 0 0-.384-.704q-.384-.255-1.184-.448l-.976-.24q-.977-.24-1.616-.848-.64-.607-.64-1.536 0-.72.416-1.264.432-.543 1.152-.832a4 4 0 0 1 1.568-.304q1.136 0 2 .464.864.448 1.248 1.312l-1.536.672q-.465-.944-1.696-.944-.593 0-.992.24-.4.24-.4.624 0 .369.304.608.303.225.896.384l1.2.304q1.2.304 1.808.928.624.609.624 1.504 0 .768-.448 1.36-.432.576-1.2.896a4.4 4.4 0 0 1-1.696.32m8.133-.128q-.543 0-1.024-.176a2.25 2.25 0 0 1-.784-.464q-.687-.687-.688-1.872v-4.224h-1.424v-1.552h1.424v-2.304h1.76v2.304h1.984v1.552h-1.984v3.84q0 .657.256.928.24.32.832.32.273 0 .48-.064.208-.08.448-.24v1.712q-.527.24-1.28.24m8.791.128q-1.312 0-2.288-.704-.976-.72-1.376-2l1.664-.688q.496 1.68 2 1.68.832 0 1.328-.56.496-.576.496-1.504v-7.936h1.776v7.872q0 1.216-.464 2.08a3.16 3.16 0 0 1-1.28 1.312q-.816.448-1.856.448m8.56 0q-1.488 0-2.272-.88-.768-.896-.768-2.48v-5.056h1.76v4.816q0 .993.464 1.488.48.496 1.248.496.624 0 1.104-.32.48-.336.736-.88.256-.543.256-1.168v-4.432h1.76v8.16h-1.664v-1.056h-.096q-.336.576-1.04.944a3.16 3.16 0 0 1-1.488.368m6.337-8.416h1.68v1.072h.08q.351-.576 1.04-.944a3.06 3.06 0 0 1 1.488-.384q1.488 0 2.256.88.783.865.784 2.368v5.168h-1.76v-4.928q0-.96-.48-1.408-.465-.447-1.296-.448-.593 0-1.056.336-.465.321-.72.864a2.7 2.7 0 0 0-.256 1.168v4.416h-1.76zm13.04 8.416q-1.2 0-2.16-.56a4.04 4.04 0 0 1-1.488-1.536q-.528-.991-.528-2.224 0-1.167.512-2.16a4.14 4.14 0 0 1 1.456-1.6q.928-.591 2.112-.592 1.232 0 2.128.544a3.5 3.5 0 0 1 1.376 1.488q.48.945.48 2.128 0 .225-.048.56h-6.256q.096 1.137.8 1.76a2.5 2.5 0 0 0 1.664.608q.751 0 1.296-.336a2.6 2.6 0 0 0 .896-.944l1.488.704a4.4 4.4 0 0 1-1.504 1.584q-.928.576-2.224.576m2.096-5.296a2 2 0 0 0-.272-.848 1.9 1.9 0 0 0-.736-.72q-.48-.288-1.184-.288-.847 0-1.44.512-.576.497-.8 1.344zm6.889 3.376 2.016-2.016a86 86 0 0 0 2-2.064q.672-.72.912-1.168.256-.447.256-1.072 0-.624-.48-1.088t-1.296-.464q-.752 0-1.232.448a2.03 2.03 0 0 0-.608 1.008l-1.6-.656q.16-.575.592-1.136a3.65 3.65 0 0 1 1.184-.944q.736-.384 1.696-.384 1.04 0 1.84.432.816.417 1.248 1.152.448.72.448 1.6a3.66 3.66 0 0 1-.496 1.824 7.3 7.3 0 0 1-1.232 1.616 134 134 0 0 0-1.616 1.6l-1.312 1.312.032.064h4.768v1.6h-7.12zm13.215 1.92q-1.344 0-2.368-.752-1.023-.768-1.584-2.064-.543-1.311-.544-2.912 0-1.616.544-2.912.561-1.311 1.584-2.064 1.024-.752 2.368-.752t2.352.752q1.025.753 1.568 2.064.56 1.296.56 2.912 0 1.6-.56 2.912-.543 1.296-1.568 2.064-1.023.752-2.352.752m0-1.664q.816 0 1.424-.528.624-.543.944-1.456.336-.928.336-2.08t-.336-2.08q-.32-.928-.944-1.456a2.1 2.1 0 0 0-1.424-.528q-.831 0-1.44.528-.608.529-.944 1.456-.32.928-.32 2.08t.32 2.08q.336.913.944 1.456.609.528 1.44.528m5.91-.256 2.016-2.016a86 86 0 0 0 2-2.064q.672-.72.912-1.168.256-.447.256-1.072 0-.624-.48-1.088t-1.296-.464q-.752 0-1.232.448a2.03 2.03 0 0 0-.608 1.008l-1.6-.656q.16-.575.592-1.136a3.65 3.65 0 0 1 1.184-.944q.736-.384 1.696-.384 1.04 0 1.84.432.816.417 1.248 1.152.448.72.448 1.6a3.66 3.66 0 0 1-.496 1.824 7.3 7.3 0 0 1-1.232 1.616 134 134 0 0 0-1.616 1.6l-1.312 1.312.032.064h4.768v1.6h-7.12zm12.495 1.92q-1.12 0-2-.512a3.7 3.7 0 0 1-1.36-1.392 3.73 3.73 0 0 1-.48-1.84q0-.943.368-1.776.369-.848 1.088-1.904l2.768-4.064 1.392.96-2.496 3.472.064.064q.432-.255 1.088-.256.832 0 1.6.464.784.464 1.264 1.28a3.36 3.36 0 0 1 .496 1.808q0 1.008-.528 1.856a3.7 3.7 0 0 1-1.392 1.344q-.864.496-1.872.496m-.016-1.648a2.14 2.14 0 0 0 1.024-.256q.48-.271.752-.736.288-.464.288-1.04 0-.575-.288-1.04a1.96 1.96 0 0 0-.768-.736 1.96 1.96 0 0 0-1.008-.272 2.05 2.05 0 0 0-1.024.272 1.96 1.96 0 0 0-.768.736q-.288.464-.288 1.04t.272 1.04q.288.465.768.736.48.256 1.04.256"/><path fill="#34A853" d="M144.767 719.906h-4.2v-2.688h11.235v2.688h-4.2v12.348h-2.835zm12.365 12.684q-1.659 0-2.961-.735a5.47 5.47 0 0 1-2.037-2.037q-.714-1.302-.714-2.919 0-1.596.714-2.898a5.3 5.3 0 0 1 2.037-2.037q1.302-.756 2.961-.756 1.638 0 2.94.756a5.13 5.13 0 0 1 2.016 2.037q.735 1.302.735 2.898 0 1.617-.735 2.919a5.3 5.3 0 0 1-2.016 2.037q-1.302.735-2.94.735m0-2.541q.798 0 1.47-.378a2.77 2.77 0 0 0 1.071-1.092q.399-.714.399-1.68 0-.945-.399-1.659a2.77 2.77 0 0 0-1.071-1.092 2.95 2.95 0 0 0-1.47-.378q-.798 0-1.47.378a2.9 2.9 0 0 0-1.092 1.092q-.399.714-.399 1.659t.399 1.68q.42.714 1.092 1.092t1.47.378m7.609-8.505h2.583v1.302h.168q.441-.693 1.281-1.155.84-.483 1.932-.483 1.449 0 2.625.735 1.197.714 1.869 2.016t.672 2.94q0 1.659-.672 2.961a5.1 5.1 0 0 1-1.869 2.016q-1.176.714-2.625.714-1.092 0-1.953-.462-.84-.462-1.26-1.155h-.168l.168 1.512v4.305h-2.751zm5.481 8.505a2.8 2.8 0 0 0 1.449-.399 2.9 2.9 0 0 0 1.071-1.113q.399-.714.399-1.638t-.399-1.638a2.77 2.77 0 0 0-1.071-1.092 2.79 2.79 0 0 0-2.877 0 2.77 2.77 0 0 0-1.071 1.092q-.399.714-.399 1.638t.399 1.638 1.071 1.113 1.428.399m15.862-8.568-2.163 1.575-1.386-2.121 4.221-3.045h2.079v14.364h-2.751zm11.668 11.109q-1.806 0-3.171-.966-1.365-.987-2.121-2.688-.735-1.722-.735-3.864t.735-3.843q.756-1.722 2.121-2.688 1.365-.987 3.171-.987t3.171.987q1.365.966 2.1 2.688.756 1.701.756 3.843t-.756 3.864q-.735 1.701-2.1 2.688-1.365.966-3.171.966m0-2.583q1.008 0 1.743-.63.756-.651 1.134-1.764.399-1.134.399-2.541 0-2.184-.882-3.549-.882-1.386-2.394-1.386-1.491 0-2.373 1.386t-.882 3.549q0 1.407.378 2.541.399 1.113 1.134 1.764.756.63 1.743.63m13.738-12.789h9.534v2.688h-6.699v3.654h6.027v2.688h-6.027v6.006h-2.835zm13.009 3.15q-.735 0-1.26-.525t-.525-1.26.525-1.239q.525-.525 1.26-.525t1.239.525q.525.504.525 1.239t-.525 1.26a1.65 1.65 0 0 1-1.239.525m-1.386 1.176h2.751v10.71h-2.751zm5.635 0h2.583v1.344h.168a3.3 3.3 0 0 1 1.365-1.218 4.06 4.06 0 0 1 1.911-.462q1.932 0 2.94 1.176t1.008 3.213v6.657h-2.751v-6.321q0-1.029-.525-1.596t-1.47-.567q-1.113 0-1.806.861-.672.861-.672 2.163v5.46h-2.751zm15.745 11.046q-1.701 0-2.793-.987-1.092-1.008-1.092-2.625 0-1.071.567-1.89t1.554-1.26 2.184-.441q1.659 0 2.835.483v-.462q0-.882-.672-1.428-.651-.546-1.764-.546a3.25 3.25 0 0 0-1.47.357 3.35 3.35 0 0 0-1.155.903l-1.764-1.386a5.2 5.2 0 0 1 1.953-1.554 6 6 0 0 1 2.562-.546q2.457 0 3.738 1.134t1.281 3.318v6.594h-2.709v-1.092h-.168q-.483.63-1.281 1.029-.777.399-1.806.399m.651-2.142q1.197 0 1.89-.756.714-.777.714-1.806a5.2 5.2 0 0 0-2.247-.504q-2.142 0-2.142 1.596 0 .651.462 1.071.462.399 1.323.399m7.845-13.23h2.751v15.036h-2.751zm7.009 3.15q-.735 0-1.26-.525t-.525-1.26.525-1.239q.525-.525 1.26-.525t1.239.525q.525.504.525 1.239t-.525 1.26a1.65 1.65 0 0 1-1.239.525m-1.386 1.176h2.751v10.71h-2.751zm9.709 11.046q-1.953 0-3.171-.798-1.197-.798-1.68-2.079l2.457-1.071q.336.756.945 1.155.63.378 1.449.378.756 0 1.26-.231.504-.252.504-.798a.83.83 0 0 0-.462-.777q-.462-.273-1.386-.483l-1.26-.273q-1.302-.315-2.163-1.134-.861-.84-.861-2.079 0-.924.546-1.659.567-.735 1.512-1.134a5.5 5.5 0 0 1 2.121-.399q3.318 0 4.431 2.331l-2.352 1.029q-.63-1.134-2.016-1.134-.714 0-1.134.273-.42.252-.42.651 0 .756 1.428 1.134l1.575.378q1.596.399 2.394 1.218.819.819.819 2.016a2.93 2.93 0 0 1-.609 1.827q-.588.777-1.638 1.218-1.029.441-2.289.441m11.088-.168a4.5 4.5 0 0 1-1.47-.231q-.672-.252-1.092-.672-.987-.945-.987-2.688v-4.935h-1.869v-2.352h1.869v-3.024h2.751v3.024h2.625v2.352h-2.625v4.431q0 .819.357 1.176.294.336 1.008.336.399 0 .651-.105.273-.105.693-.357v2.688a5.2 5.2 0 0 1-1.911.357m8.395.168q-1.953 0-3.171-.798-1.197-.798-1.68-2.079l2.457-1.071q.336.756.945 1.155.63.378 1.449.378.756 0 1.26-.231.504-.252.504-.798a.83.83 0 0 0-.462-.777q-.462-.273-1.386-.483l-1.26-.273q-1.302-.315-2.163-1.134-.861-.84-.861-2.079 0-.924.546-1.659.567-.735 1.512-1.134a5.5 5.5 0 0 1 2.121-.399q3.318 0 4.431 2.331l-2.352 1.029q-.63-1.134-2.016-1.134-.714 0-1.134.273-.42.252-.42.651 0 .756 1.428 1.134l1.575.378q1.596.399 2.394 1.218.819.819.819 2.016a2.93 2.93 0 0 1-.609 1.827q-.588.777-1.638 1.218-1.029.441-2.289.441m-141.861 5.628h3.255l5.649 15.036h-3.129l-1.26-3.591h-5.754l-1.26 3.591h-3.129zm3.591 8.841-1.323-3.78-.546-1.806h-.168l-.546 1.806-1.344 3.78zm6.965-4.515h2.583v1.344h.168a3.3 3.3 0 0 1 1.365-1.218 4.06 4.06 0 0 1 1.911-.462q1.932 0 2.94 1.176t1.008 3.213v6.657h-2.751v-6.321q0-1.029-.525-1.596t-1.47-.567q-1.113 0-1.806.861-.672.861-.672 2.163v5.46h-2.751zm12.572 0h2.583v1.344h.168a3.3 3.3 0 0 1 1.365-1.218 4.06 4.06 0 0 1 1.911-.462q1.932 0 2.94 1.176t1.008 3.213v6.657h-2.751v-6.321q0-1.029-.525-1.596t-1.47-.567q-1.113 0-1.806.861-.672.861-.672 2.163v5.46h-2.751zm17.695 11.046q-1.659 0-2.961-.735a5.47 5.47 0 0 1-2.037-2.037q-.714-1.302-.714-2.919 0-1.596.714-2.898a5.3 5.3 0 0 1 2.037-2.037q1.302-.756 2.961-.756 1.638 0 2.94.756a5.13 5.13 0 0 1 2.016 2.037q.735 1.302.735 2.898 0 1.617-.735 2.919a5.3 5.3 0 0 1-2.016 2.037q-1.302.735-2.94.735m0-2.541q.798 0 1.47-.378a2.77 2.77 0 0 0 1.071-1.092q.399-.714.399-1.68 0-.945-.399-1.659a2.77 2.77 0 0 0-1.071-1.092 2.95 2.95 0 0 0-1.47-.378q-.798 0-1.47.378a2.9 2.9 0 0 0-1.092 1.092q-.399.714-.399 1.659t.399 1.68q.42.714 1.092 1.092t1.47.378m11.557 2.541q-1.932 0-2.94-1.197t-1.008-3.339v-6.51h2.751v6.174q0 1.092.525 1.722.525.609 1.386.609 1.176 0 1.869-.861t.693-2.184v-5.46h2.751v10.71h-2.583v-1.344h-.168q-.483.777-1.365 1.239a4.1 4.1 0 0 1-1.911.441m8.708-11.046h2.583v1.344h.168a3.3 3.3 0 0 1 1.365-1.218 4.06 4.06 0 0 1 1.911-.462q1.932 0 2.94 1.176t1.008 3.213v6.657h-2.751v-6.321q0-1.029-.525-1.596t-1.47-.567q-1.113 0-1.806.861-.672.861-.672 2.163v5.46h-2.751zm17.611 11.046q-1.617 0-2.898-.714a5.3 5.3 0 0 1-2.016-2.037q-.714-1.302-.714-2.94t.714-2.919a5.3 5.3 0 0 1 2.016-2.037q1.281-.735 2.898-.735 1.785 0 3.066.777a4.3 4.3 0 0 1 1.848 2.163l-2.52 1.05q-.672-1.428-2.394-1.428-1.26 0-2.079.861-.798.861-.798 2.268 0 1.428.798 2.289.819.861 2.079.861 1.743 0 2.52-1.512l2.499 1.092q-.693 1.407-1.974 2.184t-3.045.777m11.914 0q-1.596 0-2.877-.735a5.36 5.36 0 0 1-2.016-2.016q-.714-1.302-.714-2.919a5.8 5.8 0 0 1 .714-2.835 5.5 5.5 0 0 1 1.974-2.1q1.26-.777 2.814-.777 1.659 0 2.856.714a4.6 4.6 0 0 1 1.806 1.953q.63 1.239.63 2.751 0 .483-.063.924h-8.043q.21 1.281 1.008 1.953.819.651 1.953.651.945 0 1.617-.399.693-.42 1.092-1.113l2.226 1.092q-1.638 2.856-4.977 2.856m2.541-6.993a2 2 0 0 0-.378-.987 2.34 2.34 0 0 0-.903-.819q-.567-.336-1.344-.336-.987 0-1.701.588-.693.567-1.008 1.554zm4.766-4.053h2.583v1.344h.168a3.5 3.5 0 0 1 1.344-1.218 4 4 0 0 1 1.911-.462q1.134 0 1.974.546.84.525 1.197 1.344.525-.84 1.428-1.365.924-.525 2.163-.525 1.827 0 2.772 1.134.966 1.113.966 3.024v6.888h-2.73v-6.384q0-1.008-.483-1.554-.462-.546-1.302-.546-1.071 0-1.722.861-.63.84-.63 2.226v5.397h-2.751v-6.384q0-1.008-.504-1.554-.483-.546-1.386-.546-1.008 0-1.638.861-.609.84-.609 2.226v5.397h-2.751zm24.152 11.046q-1.596 0-2.877-.735a5.36 5.36 0 0 1-2.016-2.016q-.714-1.302-.714-2.919a5.8 5.8 0 0 1 .714-2.835 5.5 5.5 0 0 1 1.974-2.1q1.26-.777 2.814-.777 1.659 0 2.856.714a4.6 4.6 0 0 1 1.806 1.953q.63 1.239.63 2.751 0 .483-.063.924h-8.043q.21 1.281 1.008 1.953.819.651 1.953.651.945 0 1.617-.399.693-.42 1.092-1.113l2.226 1.092q-1.638 2.856-4.977 2.856m2.541-6.993a2 2 0 0 0-.378-.987 2.34 2.34 0 0 0-.903-.819q-.567-.336-1.344-.336-.987 0-1.701.588-.693.567-1.008 1.554zm4.766-4.053h2.583v1.344h.168a3.3 3.3 0 0 1 1.365-1.218 4.06 4.06 0 0 1 1.911-.462q1.932 0 2.94 1.176t1.008 3.213v6.657h-2.751v-6.321q0-1.029-.525-1.596t-1.47-.567q-1.113 0-1.806.861-.672.861-.672 2.163v5.46h-2.751zm16.7 10.878a4.5 4.5 0 0 1-1.47-.231q-.672-.252-1.092-.672-.987-.945-.987-2.688v-4.935h-1.869v-2.352h1.869v-3.024h2.751v3.024h2.625v2.352h-2.625v4.431q0 .819.357 1.176.294.336 1.008.336.399 0 .651-.105.273-.105.693-.357v2.688a5.2 5.2 0 0 1-1.911.357"/><path fill="#1E1E1E" d="m140.795 773.59 2.016-2.016a84 84 0 0 0 2-2.064q.672-.72.912-1.168.256-.447.256-1.072 0-.624-.48-1.088t-1.296-.464q-.752 0-1.232.448a2.03 2.03 0 0 0-.608 1.008l-1.6-.656q.16-.576.592-1.136a3.7 3.7 0 0 1 1.184-.944q.736-.384 1.696-.384 1.04 0 1.84.432.816.417 1.248 1.152.448.72.448 1.6a3.66 3.66 0 0 1-.496 1.824 7.3 7.3 0 0 1-1.232 1.616 134 134 0 0 0-1.616 1.6l-1.312 1.312.032.064h4.768v1.6h-7.12zm13.216 1.92q-1.344 0-2.368-.752-1.025-.768-1.584-2.064-.544-1.311-.544-2.912 0-1.616.544-2.912.56-1.311 1.584-2.064 1.024-.752 2.368-.752t2.352.752q1.024.753 1.568 2.064.56 1.296.56 2.912 0 1.6-.56 2.912-.544 1.296-1.568 2.064-1.024.752-2.352.752m0-1.664q.816 0 1.424-.528.624-.543.944-1.456.336-.928.336-2.08t-.336-2.08q-.32-.928-.944-1.456a2.1 2.1 0 0 0-1.424-.528q-.833 0-1.44.528-.608.529-.944 1.456-.32.928-.32 2.08t.32 2.08q.336.913.944 1.456.607.528 1.44.528m9.666 1.536q-.544 0-1.024-.176a2.2 2.2 0 0 1-.784-.464q-.688-.687-.688-1.872v-4.224h-1.424v-1.552h1.424v-2.304h1.76v2.304h1.984v1.552h-1.984v3.84q0 .657.256.928.24.32.832.32.272 0 .48-.064a2.3 2.3 0 0 0 .448-.24v1.712q-.528.24-1.28.24m2.999-11.584h1.76v3.12l-.08 1.248h.08q.353-.576 1.04-.944.705-.384 1.504-.384 1.488 0 2.272.88.784.865.784 2.368v5.168h-1.76v-4.928q0-.927-.496-1.392-.48-.464-1.264-.464-.591 0-1.072.336a2.36 2.36 0 0 0-.736.896 2.6 2.6 0 0 0-.272 1.168v4.384h-1.76zm15.229 11.712q-1.313 0-2.288-.704-.977-.72-1.376-2l1.664-.688q.495 1.68 2 1.68.831 0 1.328-.56.495-.576.496-1.504v-7.936h1.776v7.872q0 1.216-.464 2.08a3.16 3.16 0 0 1-1.28 1.312q-.816.448-1.856.448m8.56 0q-1.488 0-2.272-.88-.768-.896-.768-2.48v-5.056h1.76v4.816q0 .993.464 1.488.48.496 1.248.496.624 0 1.104-.32.48-.336.736-.88.256-.543.256-1.168v-4.432h1.76v8.16h-1.664v-1.056h-.096q-.336.576-1.04.944a3.16 3.16 0 0 1-1.488.368m6.336-8.416h1.68v1.072h.08q.353-.576 1.04-.944.705-.384 1.488-.384 1.488 0 2.256.88.784.865.784 2.368v5.168h-1.76v-4.928q0-.96-.48-1.408-.464-.448-1.296-.448-.591 0-1.056.336a2.14 2.14 0 0 0-.72.864 2.7 2.7 0 0 0-.256 1.168v4.416h-1.76zm13.041 8.416q-1.2 0-2.16-.56a4.04 4.04 0 0 1-1.488-1.536q-.528-.991-.528-2.224 0-1.167.512-2.16a4.14 4.14 0 0 1 1.456-1.6q.929-.591 2.112-.592 1.232 0 2.128.544a3.5 3.5 0 0 1 1.376 1.488q.48.945.48 2.128 0 .225-.048.56h-6.256q.096 1.137.8 1.76a2.5 2.5 0 0 0 1.664.608q.752 0 1.296-.336a2.6 2.6 0 0 0 .896-.944l1.488.704a4.4 4.4 0 0 1-1.504 1.584q-.928.576-2.224.576m2.096-5.296a2 2 0 0 0-.272-.848 1.9 1.9 0 0 0-.736-.72q-.48-.288-1.184-.288-.847 0-1.44.512-.576.497-.8 1.344zm6.889 3.376 2.016-2.016a88 88 0 0 0 2-2.064q.672-.72.912-1.168.256-.447.256-1.072 0-.624-.48-1.088t-1.296-.464q-.752 0-1.232.448-.464.432-.608 1.008l-1.6-.656a3.3 3.3 0 0 1 .592-1.136 3.6 3.6 0 0 1 1.184-.944q.736-.384 1.696-.384 1.04 0 1.84.432.816.417 1.248 1.152.447.72.448 1.6a3.67 3.67 0 0 1-.496 1.824 7.3 7.3 0 0 1-1.232 1.616q-.32.304-1.616 1.6l-1.312 1.312.032.064h4.768v1.6h-7.12zm13.215 1.92q-1.344 0-2.368-.752-1.024-.768-1.584-2.064-.544-1.311-.544-2.912 0-1.616.544-2.912.56-1.311 1.584-2.064 1.024-.752 2.368-.752t2.352.752q1.024.753 1.568 2.064.56 1.296.56 2.912 0 1.6-.56 2.912-.544 1.296-1.568 2.064-1.025.752-2.352.752m0-1.664q.816 0 1.424-.528.624-.543.944-1.456.336-.928.336-2.08t-.336-2.08q-.32-.928-.944-1.456a2.1 2.1 0 0 0-1.424-.528q-.833 0-1.44.528-.608.529-.944 1.456-.32.928-.32 2.08t.32 2.08q.336.913.944 1.456.607.528 1.44.528m5.91-.256 2.016-2.016a88 88 0 0 0 2-2.064q.672-.72.912-1.168.256-.447.256-1.072 0-.624-.48-1.088t-1.296-.464q-.752 0-1.232.448-.464.432-.608 1.008l-1.6-.656a3.3 3.3 0 0 1 .592-1.136 3.6 3.6 0 0 1 1.184-.944q.736-.384 1.696-.384 1.04 0 1.84.432.816.417 1.248 1.152.447.72.448 1.6a3.67 3.67 0 0 1-.496 1.824 7.3 7.3 0 0 1-1.232 1.616q-.32.304-1.616 1.6l-1.312 1.312.032.064h4.768v1.6h-7.12zm12.495 1.92q-1.12 0-2-.512a3.7 3.7 0 0 1-1.36-1.392 3.73 3.73 0 0 1-.48-1.84q0-.943.368-1.776.368-.848 1.088-1.904l2.768-4.064 1.392.96-2.496 3.472.064.064q.432-.255 1.088-.256.832 0 1.6.464.784.464 1.264 1.28a3.36 3.36 0 0 1 .496 1.808q0 1.008-.528 1.856a3.7 3.7 0 0 1-1.392 1.344q-.864.496-1.872.496m-.016-1.648a2.14 2.14 0 0 0 1.024-.256q.48-.271.752-.736.288-.464.288-1.04 0-.575-.288-1.04a1.96 1.96 0 0 0-.768-.736 1.96 1.96 0 0 0-1.008-.272q-.544 0-1.024.272a1.96 1.96 0 0 0-.768.736q-.288.464-.288 1.04t.272 1.04q.288.465.768.736.48.256 1.04.256"/><path fill="#EA4335" d="M148.904 866.59q-2.163 0-3.99-1.008a7.8 7.8 0 0 1-2.877-2.814q-1.071-1.806-1.071-4.032t1.071-4.011a7.6 7.6 0 0 1 2.877-2.814q1.827-1.029 3.99-1.029 1.764 0 3.213.63 1.47.609 2.52 1.743l-1.953 1.911a5.1 5.1 0 0 0-1.68-1.197q-.903-.399-2.121-.399-1.386 0-2.541.651a4.73 4.73 0 0 0-1.848 1.827q-.672 1.176-.672 2.688t.693 2.709a4.9 4.9 0 0 0 1.848 1.827 5.34 5.34 0 0 0 2.562.63q2.1 0 3.444-1.239.42-.378.735-.966a4.8 4.8 0 0 0 .462-1.281h-4.725v-2.415h7.371q.147.588.147 1.323 0 1.491-.462 2.772a6.1 6.1 0 0 1-1.365 2.247 6.8 6.8 0 0 1-2.436 1.68q-1.428.567-3.192.567m9.379-11.046h2.583v1.428h.168q.399-.756 1.239-1.239a3.5 3.5 0 0 1 1.848-.504q.735 0 1.344.231v2.751q-.567-.21-.966-.294a3 3 0 0 0-.819-.105q-1.218 0-1.932.882t-.714 2.226v5.334h-2.751zm11.91 11.046q-1.701 0-2.793-.987-1.092-1.008-1.092-2.625 0-1.071.567-1.89t1.554-1.26 2.184-.441q1.659 0 2.835.483v-.462q0-.882-.672-1.428-.651-.546-1.764-.546a3.25 3.25 0 0 0-1.47.357 3.35 3.35 0 0 0-1.155.903l-1.764-1.386a5.2 5.2 0 0 1 1.953-1.554 6 6 0 0 1 2.562-.546q2.457 0 3.738 1.134t1.281 3.318v6.594h-2.709v-1.092h-.168q-.483.63-1.281 1.029-.777.399-1.806.399m.651-2.142q1.197 0 1.89-.756.714-.777.714-1.806a5.2 5.2 0 0 0-2.247-.504q-2.142 0-2.142 1.596 0 .651.462 1.071.462.399 1.323.399m7.845-8.904h2.583v1.344h.168a3.3 3.3 0 0 1 1.365-1.218 4.06 4.06 0 0 1 1.911-.462q1.932 0 2.94 1.176t1.008 3.213v6.657h-2.751v-6.321q0-1.029-.525-1.596t-1.47-.567q-1.113 0-1.806.861-.672.861-.672 2.163v5.46h-2.751zm17.17 11.046a5.07 5.07 0 0 1-2.646-.714 5.3 5.3 0 0 1-1.869-2.016q-.672-1.302-.672-2.961 0-1.638.672-2.94.693-1.302 1.869-2.016a4.96 4.96 0 0 1 2.646-.735q1.092 0 1.932.483.84.462 1.281 1.155h.168l-.168-1.512v-4.116h2.73v15.036h-2.562v-1.281h-.168q-.42.693-1.281 1.155-.84.462-1.932.462m.462-2.541a2.8 2.8 0 0 0 1.449-.399 2.9 2.9 0 0 0 1.071-1.113q.399-.714.399-1.638t-.399-1.638a2.77 2.77 0 0 0-1.071-1.092 2.79 2.79 0 0 0-2.877 0 2.77 2.77 0 0 0-1.071 1.092q-.399.714-.399 1.638t.399 1.638 1.071 1.113 1.428.399m13.487-12.831h9.534v2.688h-6.699v3.654h6.027v2.688h-6.027v6.006h-2.835zm13.009 3.15q-.735 0-1.26-.525t-.525-1.26.525-1.239q.525-.525 1.26-.525t1.239.525q.525.504.525 1.239t-.525 1.26a1.65 1.65 0 0 1-1.239.525m-1.386 1.176h2.751v10.71h-2.751zm5.636 0h2.583v1.344h.168a3.3 3.3 0 0 1 1.365-1.218 4.06 4.06 0 0 1 1.911-.462q1.932 0 2.94 1.176t1.008 3.213v6.657h-2.751v-6.321q0-1.029-.525-1.596t-1.47-.567q-1.113 0-1.806.861-.672.861-.672 2.163v5.46h-2.751zm15.744 11.046q-1.701 0-2.793-.987-1.092-1.008-1.092-2.625 0-1.071.567-1.89t1.554-1.26 2.184-.441q1.659 0 2.835.483v-.462q0-.882-.672-1.428-.651-.546-1.764-.546a3.25 3.25 0 0 0-1.47.357 3.35 3.35 0 0 0-1.155.903l-1.764-1.386a5.2 5.2 0 0 1 1.953-1.554 6 6 0 0 1 2.562-.546q2.457 0 3.738 1.134t1.281 3.318v6.594h-2.709v-1.092h-.168q-.483.63-1.281 1.029-.777.399-1.806.399m.651-2.142q1.197 0 1.89-.756.714-.777.714-1.806a5.2 5.2 0 0 0-2.247-.504q-2.142 0-2.142 1.596 0 .651.462 1.071.462.399 1.323.399m7.845-13.23h2.751v15.036h-2.751zm10.371 15.372q-1.596 0-2.877-.735a5.36 5.36 0 0 1-2.016-2.016q-.714-1.302-.714-2.919a5.8 5.8 0 0 1 .714-2.835 5.5 5.5 0 0 1 1.974-2.1q1.26-.777 2.814-.777 1.659 0 2.856.714a4.6 4.6 0 0 1 1.806 1.953q.63 1.239.63 2.751 0 .483-.063.924h-8.043q.21 1.281 1.008 1.953.819.651 1.953.651.945 0 1.617-.399.693-.42 1.092-1.113l2.226 1.092q-1.638 2.856-4.977 2.856m2.541-6.993a2 2 0 0 0-.378-.987 2.34 2.34 0 0 0-.903-.819q-.567-.336-1.344-.336-.987 0-1.701.588-.693.567-1.008 1.554zm13.384 9.513q-1.491-1.659-2.604-4.2a13.7 13.7 0 0 1-1.092-5.418q0-2.856 1.092-5.397 1.113-2.562 2.604-4.221l2.079 1.428q-3.024 3.759-3.024 8.19t3.024 8.19zm2.8-17.892h3.066l3.108 9.072.546 1.911h.168l.588-1.911 3.234-9.072h3.066l-5.481 15.036h-2.982zm16.55 3.15q-.735 0-1.26-.525t-.525-1.26.525-1.239q.525-.525 1.26-.525t1.239.525q.525.504.525 1.239t-.525 1.26a1.65 1.65 0 0 1-1.239.525m-1.386 1.176h2.751v10.71h-2.751zm5.635 0h2.583v1.428h.168q.42-.777 1.281-1.239a3.7 3.7 0 0 1 1.848-.483q.714 0 1.008.126v2.688q-.525-.21-1.302-.21-1.302 0-2.079.84-.756.84-.756 2.289v5.271h-2.751zm13.734 10.878a4.5 4.5 0 0 1-1.47-.231q-.672-.252-1.092-.672-.987-.945-.987-2.688v-4.935h-1.869v-2.352h1.869v-3.024h2.751v3.024h2.625v2.352h-2.625v4.431q0 .819.357 1.176.294.336 1.008.336.399 0 .651-.105.273-.105.693-.357v2.688a5.2 5.2 0 0 1-1.911.357m7.972.168q-1.932 0-2.94-1.197t-1.008-3.339v-6.51h2.751v6.174q0 1.092.525 1.722.525.609 1.386.609 1.176 0 1.869-.861t.693-2.184v-5.46h2.751v10.71h-2.583v-1.344h-.168q-.483.777-1.365 1.239a4.1 4.1 0 0 1-1.911.441m11.881 0q-1.701 0-2.793-.987-1.092-1.008-1.092-2.625 0-1.071.567-1.89t1.554-1.26 2.184-.441q1.659 0 2.835.483v-.462q0-.882-.672-1.428-.651-.546-1.764-.546a3.25 3.25 0 0 0-1.47.357 3.35 3.35 0 0 0-1.155.903l-1.764-1.386a5.2 5.2 0 0 1 1.953-1.554 6 6 0 0 1 2.562-.546q2.457 0 3.738 1.134t1.281 3.318v6.594h-2.709v-1.092h-.168q-.483.63-1.281 1.029-.777.399-1.806.399m.651-2.142q1.197 0 1.89-.756.714-.777.714-1.806a5.2 5.2 0 0 0-2.247-.504q-2.142 0-2.142 1.596 0 .651.462 1.071.462.399 1.323.399m7.844-13.23h2.751v15.036h-2.751zm4.532 16.464q3.024-3.759 3.024-8.19t-3.024-8.19l2.079-1.428q1.491 1.659 2.583 4.221a13.3 13.3 0 0 1 1.113 5.397q0 2.856-1.113 5.418-1.092 2.541-2.583 4.2z"/><path fill="#1E1E1E" d="M141.476 875.798h1.792v9.744h4.912v1.712h-6.704zm10.788 11.712q-.88 0-1.568-.336a2.63 2.63 0 0 1-1.072-.976 2.74 2.74 0 0 1-.384-1.44q0-1.263.944-2 .96-.736 2.416-.736.72 0 1.296.144.576.129.912.288v-.416q0-.751-.56-1.216-.561-.48-1.44-.48a2.7 2.7 0 0 0-1.184.272 2.3 2.3 0 0 0-.88.752l-1.232-.944q.543-.751 1.408-1.168a4.4 4.4 0 0 1 1.92-.416q1.776 0 2.736.88.96.864.96 2.448v5.088h-1.728v-.976h-.08a2.76 2.76 0 0 1-.992.88q-.64.352-1.472.352m.304-1.456q.639 0 1.152-.304.512-.303.8-.816.288-.511.288-1.104a3.6 3.6 0 0 0-.864-.336 4 4 0 0 0-1.008-.128q-.993 0-1.456.4-.464.384-.464 1.008 0 .56.432.928.432.352 1.12.352m8.784 1.456q-1.408 0-2.304-.608-.897-.624-1.264-1.584l1.568-.688q.288.64.8.976.528.336 1.2.336.656 0 1.104-.224.447-.24.448-.704a.8.8 0 0 0-.384-.704q-.384-.255-1.184-.448l-.976-.24q-.977-.24-1.616-.848-.64-.607-.64-1.536 0-.72.416-1.264.432-.543 1.152-.832a4 4 0 0 1 1.568-.304q1.136 0 2 .464.864.448 1.248 1.312l-1.536.672q-.465-.944-1.696-.944-.593 0-.992.24-.4.24-.4.624 0 .368.304.608.303.225.896.384l1.2.304q1.2.304 1.808.928.624.609.624 1.504 0 .768-.448 1.36-.432.576-1.2.896a4.4 4.4 0 0 1-1.696.32m8.133-.128q-.543 0-1.024-.176a2.25 2.25 0 0 1-.784-.464q-.687-.687-.688-1.872v-4.224h-1.424v-1.552h1.424v-2.304h1.76v2.304h1.984v1.552h-1.984v3.84q0 .657.256.928.24.32.832.32.273 0 .48-.064.208-.08.448-.24v1.712q-.528.24-1.28.24m5.76-8.288h1.904l1.648 5.84h.064l1.84-5.84h1.808l1.824 5.84h.064l1.648-5.84h1.872l-2.608 8.16h-1.856l-1.872-5.856h-.048l-1.856 5.856h-1.824zm17.374 8.416q-1.2 0-2.16-.56a4.04 4.04 0 0 1-1.488-1.536q-.528-.991-.528-2.224 0-1.167.512-2.16a4.14 4.14 0 0 1 1.456-1.6q.928-.591 2.112-.592 1.233 0 2.128.544a3.5 3.5 0 0 1 1.376 1.488q.48.945.48 2.128 0 .225-.048.56h-6.256q.096 1.137.8 1.76a2.5 2.5 0 0 0 1.664.608q.753 0 1.296-.336.56-.351.896-.944l1.488.704a4.4 4.4 0 0 1-1.504 1.584q-.928.576-2.224.576m2.096-5.296a2 2 0 0 0-.272-.848 1.9 1.9 0 0 0-.736-.72q-.48-.288-1.184-.288-.847 0-1.44.512-.576.497-.8 1.344zm7.201 5.296q-1.2 0-2.16-.56a4.04 4.04 0 0 1-1.488-1.536q-.528-.991-.528-2.224 0-1.167.512-2.16a4.14 4.14 0 0 1 1.456-1.6q.929-.591 2.112-.592 1.232 0 2.128.544a3.5 3.5 0 0 1 1.376 1.488q.48.945.48 2.128 0 .225-.048.56H199.5q.096 1.137.8 1.76a2.5 2.5 0 0 0 1.664.608q.752 0 1.296-.336a2.6 2.6 0 0 0 .896-.944l1.488.704a4.4 4.4 0 0 1-1.504 1.584q-.928.576-2.224.576m2.096-5.296a2 2 0 0 0-.272-.848 1.9 1.9 0 0 0-.736-.72q-.48-.288-1.184-.288-.847 0-1.44.512-.576.497-.8 1.344zm3.395-6.416h1.76v6.672h.048l3.344-3.376h2.208v.096l-3.168 3.152 3.264 4.816v.096h-2.096l-2.4-3.696-1.2 1.168v2.528h-1.76zm16.121 11.712q-1.233 0-2.208-.56a4.04 4.04 0 0 1-1.52-1.568q-.544-.991-.544-2.208 0-1.215.544-2.208a3.94 3.94 0 0 1 1.52-1.552q.975-.576 2.208-.576 1.231 0 2.208.576a4.06 4.06 0 0 1 1.52 1.568q.544.993.544 2.192a4.5 4.5 0 0 1-.544 2.208 4.05 4.05 0 0 1-1.52 1.568q-.977.56-2.208.56m0-1.616a2.5 2.5 0 0 0 1.248-.32q.576-.336.912-.944.352-.624.352-1.456 0-.831-.352-1.44a2.3 2.3 0 0 0-.912-.928 2.43 2.43 0 0 0-1.248-.336q-.672 0-1.248.336a2.43 2.43 0 0 0-.928.928q-.336.609-.336 1.44 0 .832.336 1.456.352.608.928.944.576.32 1.248.32m6.572-5.248h-1.488v-1.552h1.488v-.64q0-1.28.8-2.032t2.048-.752q.72 0 1.248.176v1.728a5 5 0 0 0-.544-.176 1.8 1.8 0 0 0-.56-.08q-.528 0-.88.336-.352.337-.352.928v.512h2.048v1.552h-2.048v6.608h-1.76zm11.332 6.864q-1.312 0-2.288-.704-.976-.72-1.376-2l1.664-.688q.496 1.68 2 1.68.832 0 1.328-.56.496-.576.496-1.504v-7.936h1.776v7.872q0 1.216-.464 2.08a3.16 3.16 0 0 1-1.28 1.312q-.816.448-1.856.448m8.56 0q-1.488 0-2.272-.88-.768-.896-.768-2.48v-5.056h1.76v4.816q0 .993.464 1.488.48.496 1.248.496.624 0 1.104-.32.48-.336.736-.88.256-.543.256-1.168v-4.432h1.76v8.16h-1.664v-1.056h-.096q-.335.576-1.04.944a3.16 3.16 0 0 1-1.488.368m6.337-8.416h1.68v1.072h.08q.351-.576 1.04-.944a3.06 3.06 0 0 1 1.488-.384q1.488 0 2.256.88.784.865.784 2.368v5.168h-1.76v-4.928q0-.96-.48-1.408-.465-.448-1.296-.448-.593 0-1.056.336-.465.321-.72.864a2.7 2.7 0 0 0-.256 1.168v4.416h-1.76zm13.04 8.416q-1.2 0-2.16-.56a4.04 4.04 0 0 1-1.488-1.536q-.528-.991-.528-2.224 0-1.167.512-2.16a4.14 4.14 0 0 1 1.456-1.6q.929-.591 2.112-.592 1.233 0 2.128.544a3.5 3.5 0 0 1 1.376 1.488q.48.945.48 2.128 0 .225-.048.56h-6.256q.096 1.137.8 1.76a2.5 2.5 0 0 0 1.664.608q.753 0 1.296-.336.56-.351.896-.944l1.488.704a4.4 4.4 0 0 1-1.504 1.584q-.927.576-2.224.576m2.096-5.296a2 2 0 0 0-.272-.848 1.9 1.9 0 0 0-.736-.72q-.48-.288-1.184-.288-.848 0-1.44.512-.575.497-.8 1.344z"/><path fill="#34A853" d="M145.566 251.218h5.292q1.428 0 2.604.609a4.47 4.47 0 0 1 1.848 1.68q.672 1.071.672 2.457t-.672 2.478a4.6 4.6 0 0 1-1.848 1.701q-1.176.588-2.604.588h-2.457v5.523h-2.835zm5.376 6.825q1.05 0 1.638-.609.609-.609.609-1.47t-.609-1.449q-.588-.609-1.638-.609h-2.541v4.137zm7.063-2.499h2.583v1.428h.168q.399-.756 1.239-1.239a3.5 3.5 0 0 1 1.848-.504q.735 0 1.344.231v2.751q-.567-.21-.966-.294a3 3 0 0 0-.819-.105q-1.218 0-1.932.882t-.714 2.226v5.334h-2.751zm13.45 11.046q-1.659 0-2.961-.735a5.47 5.47 0 0 1-2.037-2.037q-.714-1.302-.714-2.919 0-1.596.714-2.898a5.3 5.3 0 0 1 2.037-2.037q1.302-.756 2.961-.756 1.638 0 2.94.756a5.13 5.13 0 0 1 2.016 2.037q.735 1.302.735 2.898 0 1.617-.735 2.919a5.3 5.3 0 0 1-2.016 2.037q-1.302.735-2.94.735m0-2.541q.798 0 1.47-.378a2.77 2.77 0 0 0 1.071-1.092q.399-.714.399-1.68 0-.945-.399-1.659a2.77 2.77 0 0 0-1.071-1.092 2.95 2.95 0 0 0-1.47-.378q-.798 0-1.47.378a2.9 2.9 0 0 0-1.092 1.092q-.399.714-.399 1.659t.399 1.68q.42.714 1.092 1.092t1.47.378m12.151 2.373a4.5 4.5 0 0 1-1.47-.231q-.672-.252-1.092-.672-.987-.945-.987-2.688v-4.935h-1.869v-2.352h1.869v-3.024h2.751v3.024h2.625v2.352h-2.625v4.431q0 .819.357 1.176.294.336 1.008.336.399 0 .651-.105.273-.105.693-.357v2.688a5.2 5.2 0 0 1-1.911.357m8.87.168q-1.659 0-2.961-.735a5.47 5.47 0 0 1-2.037-2.037q-.714-1.302-.714-2.919 0-1.596.714-2.898a5.3 5.3 0 0 1 2.037-2.037q1.302-.756 2.961-.756 1.638 0 2.94.756a5.13 5.13 0 0 1 2.016 2.037q.735 1.302.735 2.898 0 1.617-.735 2.919a5.3 5.3 0 0 1-2.016 2.037q-1.302.735-2.94.735m0-2.541q.798 0 1.47-.378a2.77 2.77 0 0 0 1.071-1.092q.399-.714.399-1.68 0-.945-.399-1.659a2.77 2.77 0 0 0-1.071-1.092 2.95 2.95 0 0 0-1.47-.378q-.798 0-1.47.378a2.9 2.9 0 0 0-1.092 1.092q-.399.714-.399 1.659t.399 1.68q.42.714 1.092 1.092t1.47.378m12.15 2.373a4.5 4.5 0 0 1-1.47-.231q-.672-.252-1.092-.672-.987-.945-.987-2.688v-4.935h-1.869v-2.352h1.869v-3.024h2.751v3.024h2.625v2.352h-2.625v4.431q0 .819.357 1.176.294.336 1.008.336.399 0 .651-.105.273-.105.693-.357v2.688a5.2 5.2 0 0 1-1.911.357m7.557-.672-4.515-10.206h3.129l2.772 6.657h.168l2.667-6.657h3.066l-6.615 15.246h-2.961zm8.718-10.206h2.583v1.302h.168q.441-.693 1.281-1.155.84-.483 1.932-.483 1.449 0 2.625.735 1.197.714 1.869 2.016t.672 2.94q0 1.659-.672 2.961a5.1 5.1 0 0 1-1.869 2.016q-1.176.714-2.625.714-1.092 0-1.953-.462-.84-.462-1.26-1.155h-.168l.168 1.512v4.305h-2.751zm5.481 8.505a2.8 2.8 0 0 0 1.449-.399 2.9 2.9 0 0 0 1.071-1.113q.399-.714.399-1.638t-.399-1.638a2.77 2.77 0 0 0-1.071-1.092 2.79 2.79 0 0 0-2.877 0 2.77 2.77 0 0 0-1.071 1.092q-.399.714-.399 1.638t.399 1.638 1.071 1.113 1.428.399m12.788 2.541q-1.596 0-2.877-.735a5.36 5.36 0 0 1-2.016-2.016q-.714-1.302-.714-2.919a5.8 5.8 0 0 1 .714-2.835 5.5 5.5 0 0 1 1.974-2.1q1.26-.777 2.814-.777 1.659 0 2.856.714a4.6 4.6 0 0 1 1.806 1.953q.63 1.239.63 2.751 0 .483-.063.924h-8.043q.21 1.281 1.008 1.953.819.651 1.953.651.945 0 1.617-.399.693-.42 1.092-1.113l2.226 1.092q-1.638 2.856-4.977 2.856m2.541-6.993a2 2 0 0 0-.378-.987 2.34 2.34 0 0 0-.903-.819q-.567-.336-1.344-.336-.987 0-1.701.588-.693.567-1.008 1.554zm10.065-8.379h9.534v2.688h-6.699v3.486h6.027v2.688h-6.027v3.486h6.699v2.688h-9.534zm10.463 4.326h3.129l2.709 6.972h.168l2.751-6.972h3.087l-4.578 10.71h-2.73zm16.408 11.046q-1.701 0-2.793-.987-1.092-1.008-1.092-2.625 0-1.071.567-1.89t1.554-1.26 2.184-.441q1.659 0 2.835.483v-.462q0-.882-.672-1.428-.651-.546-1.764-.546a3.25 3.25 0 0 0-1.47.357 3.35 3.35 0 0 0-1.155.903l-1.764-1.386a5.2 5.2 0 0 1 1.953-1.554 6 6 0 0 1 2.562-.546q2.457 0 3.738 1.134t1.281 3.318v6.594h-2.709v-1.092h-.168q-.483.63-1.281 1.029-.777.399-1.806.399m.651-2.142q1.197 0 1.89-.756.714-.777.714-1.806a5.2 5.2 0 0 0-2.247-.504q-2.142 0-2.142 1.596 0 .651.462 1.071.462.399 1.323.399m7.845-13.23h2.751v15.036h-2.751zm9.319 15.372q-1.932 0-2.94-1.197t-1.008-3.339v-6.51h2.751v6.174q0 1.092.525 1.722.525.609 1.386.609 1.176 0 1.869-.861t.693-2.184v-5.46h2.751v10.71h-2.583v-1.344h-.168q-.483.777-1.365 1.239a4.1 4.1 0 0 1-1.911.441m11.881 0q-1.701 0-2.793-.987-1.092-1.008-1.092-2.625 0-1.071.567-1.89t1.554-1.26 2.184-.441q1.659 0 2.835.483v-.462q0-.882-.672-1.428-.651-.546-1.764-.546a3.25 3.25 0 0 0-1.47.357 3.35 3.35 0 0 0-1.155.903l-1.764-1.386a5.2 5.2 0 0 1 1.953-1.554 6 6 0 0 1 2.562-.546q2.457 0 3.738 1.134t1.281 3.318v6.594h-2.709v-1.092h-.168q-.483.63-1.281 1.029-.777.399-1.806.399m.651-2.142q1.197 0 1.89-.756.714-.777.714-1.806a5.2 5.2 0 0 0-2.247-.504q-2.142 0-2.142 1.596 0 .651.462 1.071.462.399 1.323.399m12.301 1.974a4.5 4.5 0 0 1-1.47-.231q-.672-.252-1.092-.672-.987-.945-.987-2.688v-4.935h-1.869v-2.352h1.869v-3.024h2.751v3.024h2.625v2.352h-2.625v4.431q0 .819.357 1.176.294.336 1.008.336.399 0 .651-.105.273-.105.693-.357v2.688a5.2 5.2 0 0 1-1.911.357m5.772-12.054q-.735 0-1.26-.525t-.525-1.26.525-1.239q.525-.525 1.26-.525t1.239.525q.525.504.525 1.239t-.525 1.26a1.65 1.65 0 0 1-1.239.525m-1.386 1.176h2.751v10.71h-2.751zm10.657 11.046q-1.659 0-2.961-.735a5.47 5.47 0 0 1-2.037-2.037q-.714-1.302-.714-2.919 0-1.596.714-2.898a5.3 5.3 0 0 1 2.037-2.037q1.302-.756 2.961-.756 1.638 0 2.94.756a5.13 5.13 0 0 1 2.016 2.037q.735 1.302.735 2.898 0 1.617-.735 2.919a5.3 5.3 0 0 1-2.016 2.037q-1.302.735-2.94.735m0-2.541q.798 0 1.47-.378a2.77 2.77 0 0 0 1.071-1.092q.399-.714.399-1.68 0-.945-.399-1.659a2.77 2.77 0 0 0-1.071-1.092 2.95 2.95 0 0 0-1.47-.378q-.798 0-1.47.378a2.9 2.9 0 0 0-1.092 1.092q-.399.714-.399 1.659t.399 1.68q.42.714 1.092 1.092t1.47.378m7.591-8.505h2.583v1.344h.168a3.3 3.3 0 0 1 1.365-1.218 4.06 4.06 0 0 1 1.911-.462q1.932 0 2.94 1.176t1.008 3.213v6.657h-2.751v-6.321q0-1.029-.525-1.596t-1.47-.567q-1.113 0-1.806.861-.672.861-.672 2.163v5.46h-2.751z"/><path fill="#1E1E1E" d="m146.159 285.59 2.016-2.016a88 88 0 0 0 2-2.064q.672-.72.912-1.168.256-.447.256-1.072 0-.624-.48-1.088t-1.296-.464q-.752 0-1.232.448-.464.432-.608 1.008l-1.6-.656a3.3 3.3 0 0 1 .592-1.136 3.6 3.6 0 0 1 1.184-.944q.736-.384 1.696-.384 1.04 0 1.84.432.816.417 1.248 1.152.448.72.448 1.6a3.67 3.67 0 0 1-.496 1.824 7.3 7.3 0 0 1-1.232 1.616q-.32.304-1.616 1.6l-1.312 1.312.032.064h4.768v1.6h-7.12zm10.671.992 2.496-3.472-.064-.064q-.432.256-1.088.256a3.13 3.13 0 0 1-1.616-.464 3.76 3.76 0 0 1-1.264-1.264 3.53 3.53 0 0 1-.48-1.824q0-1.008.512-1.856a3.9 3.9 0 0 1 1.392-1.344 3.8 3.8 0 0 1 1.888-.496q1.12 0 2 .528.88.512 1.36 1.376t.48 1.84q0 .945-.368 1.792-.368.832-1.088 1.888l-2.768 4.064zm1.792-4.8a2.14 2.14 0 0 0 1.024-.256 2.014 2.014 0 0 0 1.056-1.792q0-.575-.288-1.04a1.9 1.9 0 0 0-.752-.72 2.1 2.1 0 0 0-1.04-.272q-.544 0-1.024.272-.48.257-.768.72-.272.464-.272 1.04t.288 1.056q.288.465.752.736.48.256 1.024.256m8.934 5.6q-.544 0-1.024-.176a2.2 2.2 0 0 1-.784-.464q-.688-.687-.688-1.872v-4.224h-1.424v-1.552h1.424v-2.304h1.76v2.304h1.984v1.552h-1.984v3.84q0 .657.256.928.24.32.832.32.272 0 .48-.064a2.3 2.3 0 0 0 .448-.24v1.712q-.528.24-1.28.24m2.999-11.584h1.76v3.12l-.08 1.248h.08q.353-.575 1.04-.944.705-.384 1.504-.384 1.488 0 2.272.88.784.864.784 2.368v5.168h-1.76v-4.928q0-.927-.496-1.392-.48-.464-1.264-.464-.591 0-1.072.336a2.36 2.36 0 0 0-.736.896 2.6 2.6 0 0 0-.272 1.168v4.384h-1.76zm16.145 0h2.048l4.304 11.456h-1.984l-1.024-2.928h-4.624l-1.04 2.928h-1.984zm2.736 6.864-1.216-3.408-.448-1.328h-.096l-.448 1.328-1.216 3.408zm4.899-3.568h1.68v1.072h.08q.352-.56 1.04-.944a3.13 3.13 0 0 1 1.552-.384q1.104 0 2 .56a3.9 3.9 0 0 1 1.408 1.552q.528.976.528 2.224t-.528 2.24a3.9 3.9 0 0 1-1.408 1.536 3.7 3.7 0 0 1-2 .56 3.13 3.13 0 0 1-1.552-.384q-.688-.384-1.04-.928h-.08l.08 1.136v3.376h-1.76zm4.096 6.8q.64 0 1.2-.336a2.44 2.44 0 0 0 .896-.96q.336-.623.336-1.424t-.336-1.408a2.44 2.44 0 0 0-.896-.96 2.3 2.3 0 0 0-1.2-.336q-.64 0-1.2.336a2.5 2.5 0 0 0-.88.96q-.336.609-.336 1.408 0 .8.336 1.424t.88.96q.56.336 1.2.336m5.718-6.8h1.68v1.2h.08q.272-.624.944-1.024a2.67 2.67 0 0 1 1.424-.416q.592 0 .992.16v1.824q-.704-.256-1.264-.256a1.9 1.9 0 0 0-1.088.32 2.26 2.26 0 0 0-.736.864 2.5 2.5 0 0 0-.272 1.168v4.32h-1.76zm10.203 2.448h5.264v1.504h-5.264zm10.791 4.048 2.016-2.016a86 86 0 0 0 2-2.064q.672-.72.912-1.168.256-.447.256-1.072 0-.624-.48-1.088t-1.296-.464q-.752 0-1.232.448a2.03 2.03 0 0 0-.608 1.008l-1.6-.656q.16-.576.592-1.136a3.65 3.65 0 0 1 1.184-.944q.736-.384 1.696-.384 1.04 0 1.84.432.816.417 1.248 1.152.448.72.448 1.6a3.66 3.66 0 0 1-.496 1.824 7.3 7.3 0 0 1-1.232 1.616 134 134 0 0 0-1.616 1.6l-1.312 1.312.032.064h4.768v1.6h-7.12zm12.48 1.92q-1.089 0-1.968-.432a3.4 3.4 0 0 1-1.36-1.184 3.03 3.03 0 0 1-.496-1.68q0-.895.48-1.584.495-.704 1.248-1.088v-.096a3.4 3.4 0 0 1-.976-.992 2.4 2.4 0 0 1-.384-1.312q0-.864.432-1.568.447-.72 1.232-1.12.8-.4 1.792-.4.991 0 1.776.4.8.4 1.232 1.12.448.704.448 1.568 0 .705-.384 1.312a3.5 3.5 0 0 1-.976.992v.096q.752.384 1.232 1.088.496.689.496 1.584a3.04 3.04 0 0 1-.496 1.68q-.497.753-1.376 1.184-.864.432-1.952.432m0-6.768q.735 0 1.216-.416.495-.432.496-1.136 0-.687-.48-1.088-.48-.416-1.232-.416t-1.232.416q-.48.4-.48 1.088 0 .704.48 1.136.495.417 1.232.416m0 5.104q.88 0 1.456-.48.591-.495.592-1.28 0-.768-.592-1.264-.577-.495-1.456-.496-.88 0-1.472.496a1.6 1.6 0 0 0-.576 1.264q0 .785.576 1.28.591.48 1.472.48m8.933 1.536q-.544 0-1.024-.176a2.2 2.2 0 0 1-.784-.464q-.688-.687-.688-1.872v-4.224h-1.424v-1.552h1.424v-2.304h1.76v2.304h1.984v1.552h-1.984v3.84q0 .657.256.928.24.32.832.32.272 0 .48-.064a2.3 2.3 0 0 0 .448-.24v1.712q-.528.24-1.28.24m2.999-11.584h1.76v3.12l-.08 1.248h.08q.353-.575 1.04-.944.705-.384 1.504-.384 1.488 0 2.272.88.784.864.784 2.368v5.168h-1.76v-4.928q0-.927-.496-1.392-.48-.464-1.264-.464-.591 0-1.072.336a2.36 2.36 0 0 0-.736.896 2.6 2.6 0 0 0-.272 1.168v4.384h-1.76zm13.398 0h2.432l3.296 8.688h.096l3.296-8.688h2.432v11.456h-1.776v-6.416l.096-2.064h-.096l-3.28 8.48h-1.44l-3.28-8.48h-.096l.096 2.064v6.416h-1.776zm16.209 11.712q-.88 0-1.568-.336a2.63 2.63 0 0 1-1.072-.976 2.74 2.74 0 0 1-.384-1.44q0-1.263.944-2 .96-.736 2.416-.736.72 0 1.296.144.576.129.912.288v-.416q0-.751-.56-1.216-.56-.48-1.44-.48a2.7 2.7 0 0 0-1.184.272 2.3 2.3 0 0 0-.88.752l-1.232-.944q.544-.751 1.408-1.168a4.4 4.4 0 0 1 1.92-.416q1.776 0 2.736.88.96.864.96 2.448v5.088h-1.728v-.976h-.08a2.75 2.75 0 0 1-.992.88q-.64.352-1.472.352m.304-1.456q.64 0 1.152-.304.512-.303.8-.816t.288-1.104a3.6 3.6 0 0 0-.864-.336 4 4 0 0 0-1.008-.128q-.992 0-1.456.4a1.25 1.25 0 0 0-.464 1.008q0 .56.432.928.432.352 1.12.352m8.226.752-3.392-7.712h1.968l2.304 5.552h.064l2.24-5.552h1.936l-5.04 11.616h-1.856zm9.764-1.216 2.016-2.016a88 88 0 0 0 2-2.064q.672-.72.912-1.168.255-.447.256-1.072 0-.624-.48-1.088t-1.296-.464q-.752 0-1.232.448-.464.432-.608 1.008l-1.6-.656a3.3 3.3 0 0 1 .592-1.136 3.6 3.6 0 0 1 1.184-.944q.735-.384 1.696-.384 1.04 0 1.84.432.816.417 1.248 1.152.447.72.448 1.6a3.67 3.67 0 0 1-.496 1.824 7.3 7.3 0 0 1-1.232 1.616q-.32.304-1.616 1.6l-1.312 1.312.032.064h4.768v1.6h-7.12zm13.215 1.92q-1.344 0-2.368-.752-1.024-.768-1.584-2.064-.544-1.311-.544-2.912 0-1.616.544-2.912.56-1.311 1.584-2.064 1.024-.752 2.368-.752t2.352.752q1.024.753 1.568 2.064.56 1.296.56 2.912 0 1.6-.56 2.912-.544 1.296-1.568 2.064-1.024.752-2.352.752m0-1.664q.816 0 1.424-.528.624-.543.944-1.456.336-.927.336-2.08 0-1.152-.336-2.08-.32-.928-.944-1.456a2.1 2.1 0 0 0-1.424-.528q-.833 0-1.44.528-.608.529-.944 1.456-.32.928-.32 2.08t.32 2.08q.336.912.944 1.456.607.528 1.44.528m5.91-.256 2.016-2.016a88 88 0 0 0 2-2.064q.672-.72.912-1.168.255-.447.256-1.072 0-.624-.48-1.088t-1.296-.464q-.752 0-1.232.448-.464.432-.608 1.008l-1.6-.656a3.3 3.3 0 0 1 .592-1.136 3.6 3.6 0 0 1 1.184-.944q.735-.384 1.696-.384 1.04 0 1.84.432.816.417 1.248 1.152.447.72.448 1.6a3.67 3.67 0 0 1-.496 1.824 7.3 7.3 0 0 1-1.232 1.616q-.32.304-1.616 1.6l-1.312 1.312.032.064h4.768v1.6h-7.12zm12.495 1.92q-1.12 0-2-.512a3.7 3.7 0 0 1-1.36-1.392 3.73 3.73 0 0 1-.48-1.84q0-.944.368-1.776.368-.848 1.088-1.904l2.768-4.064 1.392.96-2.496 3.472.064.064q.432-.255 1.088-.256.832 0 1.6.464.784.464 1.264 1.28a3.36 3.36 0 0 1 .496 1.808q0 1.008-.528 1.856a3.7 3.7 0 0 1-1.392 1.344q-.864.496-1.872.496m-.016-1.648a2.14 2.14 0 0 0 1.024-.256q.48-.271.752-.736.288-.464.288-1.04 0-.575-.288-1.04a1.96 1.96 0 0 0-.768-.736 1.96 1.96 0 0 0-1.008-.272q-.544 0-1.024.272a1.96 1.96 0 0 0-.768.736q-.288.464-.288 1.04t.272 1.04q.288.465.768.736.48.256 1.04.256"/><defs><clipPath id="a"><path fill="#fff" d="M35.031 466.397h80.287v80.287H35.031z"/></clipPath><clipPath id="b"><path fill="#fff" d="M40 353.254h77v77H40z"/></clipPath><clipPath id="c"><path fill="#fff" d="M36 833.254h77v77H36z"/></clipPath></defs></svg>