<svg width="22" height="23" viewBox="0 0 22 23" fill="none" xmlns="http://www.w3.org/2000/svg">
<path d="M21.5427 16.8938C21.5427 20.0517 16.811 22.5251 10.7714 22.5251C4.73177 22.5251 0 20.0517 0 16.8938C0 13.736 4.73177 11.2626 10.7714 11.2626C16.811 11.2626 21.5427 13.736 21.5427 16.8938ZM10.7714 9.52987C11.7478 9.52987 12.7023 9.25041 13.5142 8.72683C14.326 8.20325 14.9588 7.45907 15.3325 6.58839C15.7061 5.71772 15.8039 4.75965 15.6134 3.83534C15.4229 2.91104 14.9527 2.06201 14.2623 1.39562C13.5718 0.729231 12.6922 0.275415 11.7345 0.091559C10.7768 -0.092297 9.78421 0.00206459 8.88211 0.362711C7.98001 0.723357 7.20898 1.33409 6.66651 2.11768C6.12404 2.90127 5.83449 3.82252 5.83449 4.76493C5.83606 6.02821 6.3567 7.23931 7.2822 8.13258C8.20771 9.02585 9.46251 9.52835 10.7714 9.52987Z" fill="#1E1E1E"/>
</svg>
