<svg width="58" height="57" viewBox="0 0 58 57" fill="none" xmlns="http://www.w3.org/2000/svg">
<path d="M25.2123 45.9471C28.5532 45.9471 31.2615 43.2387 31.2615 39.8979C31.2615 36.557 28.5532 33.8486 25.2123 33.8486C21.8714 33.8486 19.1631 36.557 19.1631 39.8979C19.1631 43.2387 21.8714 45.9471 25.2123 45.9471Z" fill="#404049"/>
<path d="M25.2192 46.8822C22.3645 46.8822 19.6797 45.1191 18.6493 42.2854C17.332 38.6679 19.2038 34.6522 22.8222 33.3331C26.4461 32.0195 30.4582 33.8903 31.7755 37.5078C33.0927 41.1253 31.2201 45.1411 27.6017 46.4602C26.8151 46.7452 26.0113 46.8822 25.2192 46.8822ZM25.2055 34.7819C24.6264 34.7819 24.0372 34.8824 23.4626 35.0907C20.8134 36.0553 19.4422 38.9968 20.4069 41.646C21.3716 44.2952 24.3149 45.6636 26.9613 44.7026C29.6105 43.7379 30.9807 40.7964 30.0179 38.1473C29.2615 36.0736 27.2947 34.7819 25.2055 34.7819Z" fill="#131319"/>
<path d="M29.3251 54.1994L26.9112 55.0779C25.9714 55.42 24.9184 55.1108 24.3128 54.3149L11.6689 37.7002L22.2859 33.8359L30.6006 51.0606C31.1884 52.2782 30.5955 53.737 29.3251 54.1994Z" fill="#DEDEEA"/>
<path opacity="0.1" d="M26.674 42.9336C23.1192 43.6258 20.9302 46.4883 20.1444 48.8458L17.3005 45.1039L11.6689 37.695L22.2772 33.8408L26.5618 42.6904L26.674 42.9336Z" fill="black"/>
<path d="M26.1188 56.1598C25.134 56.1598 24.1867 55.7067 23.5646 54.8845L10.9299 38.266C10.75 38.0285 10.6933 37.7216 10.7774 37.4366C10.8605 37.1497 11.0752 36.9232 11.3547 36.8209L21.9624 32.9604C22.4127 32.7996 22.917 33.0006 23.1243 33.4318L31.4464 50.6495C31.4464 50.6495 31.4464 50.6514 31.4482 50.6532C31.841 51.4717 31.8684 52.4272 31.5231 53.2731C31.1796 54.1135 30.4981 54.7731 29.6522 55.08L27.2287 55.9625C26.8642 56.0958 26.4888 56.1598 26.1188 56.1598ZM13.1872 38.1436L25.0546 53.7536C25.4145 54.2287 26.0302 54.4059 26.5902 54.2049L29.0128 53.3225C29.3681 53.1927 29.6449 52.9242 29.7911 52.5661C29.9363 52.2098 29.9263 51.8079 29.7619 51.4644L21.8071 35.0067L13.1872 38.1436Z" fill="#131319"/>
<path d="M33.3896 4.71387C27.6654 11.91 19.1417 17.6628 11.9873 20.9725L15.7727 31.3727L19.5581 41.773C27.1661 39.7096 37.3934 38.6376 46.404 40.4707C44.7777 33.3309 43.2412 27.7737 41.1847 22.1235C39.1282 16.4734 36.7331 11.2287 33.3896 4.71387Z" fill="#F0F0FC"/>
<path d="M15.7946 43.1428L19.5575 41.7732L11.9867 20.9727L8.22382 22.3423C2.47992 24.4329 -0.481655 30.784 1.60896 36.5279C3.69956 42.2718 10.0507 45.2334 15.7946 43.1428Z" fill="#F9AB00"/>
<path opacity="0.1" d="M46.4166 40.4648C37.3991 38.6313 27.1654 39.7164 19.5697 41.7744L15.8094 43.1401C14.5558 43.5891 13.2837 43.8136 12.0115 43.8136C7.50276 43.8136 3.25588 41.026 1.60951 36.5359C0.225095 32.682 1.08562 28.5662 3.55517 25.6289C6.23048 30.6801 11.2631 33.6736 17.0816 34.9458C25.8559 36.8728 36.4636 34.8335 43.6851 29.8196C44.6393 33.0749 45.5185 36.5359 46.4166 40.4648Z" fill="black"/>
<path d="M12.0225 44.7467C7.11697 44.7467 2.50193 41.7157 0.730642 36.8467C-0.366483 33.834 -0.223975 30.5746 1.13076 27.6687C2.4855 24.7629 4.89166 22.5595 7.90441 21.4633L11.6671 20.0939C12.1495 19.9167 12.6894 20.1679 12.8657 20.653L20.4368 41.4526C20.614 41.9386 20.3637 42.4739 19.8777 42.6511L16.115 44.0214C14.7648 44.5129 13.3818 44.7467 12.0225 44.7467ZM11.4278 22.1712L8.54386 23.2209C6.00066 24.1463 3.96993 26.0071 2.82623 28.4598C1.68252 30.9126 1.56285 33.6641 2.48823 36.2073C4.39837 41.4544 10.2256 44.1749 15.4755 42.2638L18.3595 41.2133L11.4278 22.1712Z" fill="#131319"/>
<path d="M19.5583 42.7078C19.1737 42.7078 18.8166 42.4702 18.6795 42.0921L11.1084 21.2924C10.9421 20.8357 11.1532 20.3278 11.5944 20.1241C19.8589 16.301 27.7333 10.3222 32.658 4.13132C32.8553 3.88285 33.1714 3.75039 33.4838 3.78328C33.7999 3.81433 34.0776 4.00435 34.2237 4.28662C37.7572 11.1735 40.1031 16.4125 42.0635 21.804C44.0257 27.1946 45.5969 32.7158 47.3161 40.2632C47.3874 40.5738 47.296 40.8972 47.0731 41.1256C46.8521 41.3521 46.5268 41.4526 46.2181 41.3887C38.4716 39.8101 28.5947 40.2925 19.8031 42.6749C19.7218 42.6968 19.6387 42.7078 19.5583 42.7078ZM13.1583 21.455L20.1457 40.6505C28.4595 38.5221 37.6366 38.027 45.173 39.2912C43.5945 32.5258 42.1183 27.423 40.3059 22.4435C38.4935 17.4639 36.3449 12.6068 33.2043 6.4096C28.2458 12.2195 20.8966 17.7416 13.1583 21.455Z" fill="#131319"/>
<path d="M50.0122 42.1555C48.5478 42.6885 46.9287 41.9335 46.3957 40.4691L33.3848 4.72201C32.8518 3.25765 33.6068 1.63849 35.0712 1.1055C36.5356 0.572519 38.1547 1.32755 38.6877 2.79191L51.6986 38.539C52.2316 40.0033 51.4765 41.6225 50.0122 42.1555Z" fill="#F9AB00"/>
<path d="M49.0445 43.2616C48.5037 43.2616 47.9647 43.1447 47.4587 42.9072C46.5488 42.4833 45.86 41.7306 45.5184 40.7879L32.5064 5.04148C31.7993 3.0948 32.806 0.935266 34.7518 0.226388C36.6975 -0.481583 38.8589 0.526928 39.5678 2.47087L52.5779 38.2191C52.9214 39.1618 52.8776 40.1831 52.4519 41.093C52.028 42.0028 51.2753 42.6916 50.3325 43.0333C49.9123 43.1867 49.4775 43.2616 49.0445 43.2616ZM36.0343 1.87069C35.8206 1.87069 35.6032 1.90723 35.3912 1.98396C34.4156 2.34023 33.9095 3.42456 34.264 4.40292L47.2759 40.1484C47.4477 40.6216 47.7948 40.9998 48.2498 41.2135C48.7065 41.4237 49.2162 41.4492 49.6931 41.2757C50.1663 41.1039 50.5445 40.7568 50.7582 40.3019C50.9702 39.8451 50.9921 39.3317 50.8204 38.8585L37.8102 3.11124C37.5307 2.34663 36.8053 1.87069 36.0343 1.87069Z" fill="#131319"/>
<path d="M48.3558 12.8806C48.1694 12.8806 47.9831 12.8258 47.8205 12.7125C47.3966 12.4165 47.2925 11.8337 47.5884 11.4099L49.8667 8.14407C50.1645 7.7202 50.751 7.61972 51.1694 7.91204C51.5933 8.20802 51.6974 8.79084 51.4014 9.21471L49.1231 12.4805C48.9404 12.7408 48.6499 12.8806 48.3558 12.8806ZM57.9677 26.5951C58.1029 26.0963 57.8069 25.5829 57.3081 25.4477L53.4641 24.4099C52.9745 24.2793 52.4519 24.5707 52.3186 25.0695C52.1834 25.5683 52.4793 26.0817 52.9781 26.2169L56.8222 27.2546C56.9025 27.2765 56.9848 27.2866 57.0651 27.2866C57.4781 27.2866 57.8562 27.0125 57.9677 26.5951ZM51.1091 19.5081L54.8691 18.1397C55.3551 17.9633 55.6054 17.4262 55.4281 16.9411C55.2509 16.4561 54.7156 16.2049 54.2296 16.3821L50.4696 17.7505C49.9836 17.9268 49.7333 18.4639 49.9106 18.949C50.0494 19.329 50.4075 19.5647 50.7894 19.5647C50.8953 19.5647 51.0031 19.5464 51.1091 19.5081Z" fill="#131319"/>
</svg>
