<svg width="60" height="146" viewBox="0 0 60 146" fill="none" xmlns="http://www.w3.org/2000/svg">
<path d="M55.9717 56.4498H48.5526C45.9093 56.4498 43.7626 54.3077 43.7626 51.6597V25.1279C43.7626 11.9022 33.043 1.18262 19.8172 1.18262H3.09715C2.03796 1.18262 1.18213 2.03848 1.18213 3.09768V29.9652C1.18213 31.0244 2.03796 31.8803 3.09715 31.8803H15.3677C18.011 31.8803 20.1577 34.0223 20.1577 36.6703V109.324C20.1577 111.967 18.0157 114.114 15.3677 114.114H3.09715C2.03796 114.114 1.18213 114.97 1.18213 116.029V142.897C1.18213 143.956 2.03796 144.812 3.09715 144.812H19.8172C33.043 144.812 43.7626 134.092 43.7626 120.867V93.1385C43.7626 90.4952 45.9046 88.3485 48.5526 88.3485H55.9717C57.0309 88.3485 57.8867 87.4926 57.8867 86.4334V58.3695C57.8867 57.3103 57.0309 56.4545 55.9717 56.4545V56.4498Z" fill="#C3ECF6" stroke="#1E1E1E" stroke-width="2.36427" stroke-linejoin="round"/>
</svg>
