<svg width="45" height="45" viewBox="0 0 45 45" fill="none" xmlns="http://www.w3.org/2000/svg">
<path d="M33.3797 33.3795C39.5247 27.2345 39.5247 17.2714 33.3797 11.1264C27.2346 4.98135 17.2716 4.98135 11.1266 11.1264C4.98153 17.2714 4.98153 27.2345 11.1266 33.3795C17.2716 39.5245 27.2346 39.5245 33.3797 33.3795Z" fill="white"/>
<path d="M25.2792 11.3589C26.2039 11.3233 27.3393 11.3277 28.2639 11.3604C29.0075 11.3856 28.9867 11.914 28.9808 12.4839V14.6686C28.9838 15.9168 28.8947 15.9391 27.7682 15.9376H26.2039C25.8135 15.9376 25.3149 15.896 24.9394 15.9895C23.7995 16.273 23.6407 17.1724 23.6377 18.1446V19.2874C23.6422 19.5382 23.6555 19.7876 23.6377 20.0384H25.1887C25.4989 20.0384 25.9902 19.9998 26.2796 20.0725C26.9757 20.2462 27.3319 20.828 27.3363 21.5241V22.5541C27.3363 22.8732 27.3734 23.2398 27.2933 23.5485C27.0232 24.5904 26.1312 24.4999 25.3149 24.4999H23.6377V31.7709C23.6377 32.3972 23.8114 33.1289 22.9357 33.169H20.8015C19.2268 33.169 19.2965 33.1527 19.2965 31.71V24.4984C18.4861 24.4687 17.6698 24.5281 16.858 24.4969C16.2539 24.4731 15.73 24.0323 15.5845 23.4491C15.5014 23.1196 15.5192 21.6651 15.5445 21.2376C15.6009 20.2595 16.4201 20.0295 17.2171 20.0354H18.7578C18.9373 20.0354 19.1184 20.025 19.2965 20.0369V18.1668C19.2965 17.6815 19.2772 17.2051 19.3306 16.7198C19.6646 13.6208 22.3064 11.6171 25.2778 11.3574L25.2792 11.3589Z" fill="#1E1E1E"/>
</svg>
