<svg width="234" height="26" viewBox="0 0 234 26" fill="none" xmlns="http://www.w3.org/2000/svg">
<path d="M90.3589 1.4919C91.1706 1.4919 91.8343 1.62939 92.3525 1.90437L91.7444 3.87416C91.3557 3.6785 90.9168 3.58332 90.4303 3.58332C89.8777 3.58332 89.4282 3.77368 89.0792 4.15442C88.7302 4.53516 88.5557 5.04281 88.5557 5.67473V7.18182H91.6704V9.22564H88.5557V19.101H86.3189V9.22564H84.082V7.18182H86.3189V5.45528C86.3189 4.27076 86.697 3.31363 87.4505 2.58388C88.204 1.85413 89.1744 1.48926 90.3563 1.48926L90.3589 1.4919Z" fill="white"/>
<path d="M92.1973 13.1442C92.1973 11.3119 92.7737 9.79421 93.9238 8.59647C95.0925 7.39609 96.5599 6.7959 98.3261 6.7959C100.092 6.7959 101.554 7.39609 102.705 8.59647C103.873 9.79685 104.455 11.3119 104.455 13.1442C104.455 14.9765 103.871 16.51 102.705 17.6919C101.552 18.8923 100.092 19.4925 98.3261 19.4925C96.5599 19.4925 95.0898 18.8923 93.9238 17.6919C92.771 16.4915 92.1973 14.9765 92.1973 13.1442ZM94.4341 13.1442C94.4341 14.4265 94.8069 15.463 95.5525 16.2588C96.2981 17.0547 97.2235 17.4513 98.3261 17.4513C99.4286 17.4513 100.354 17.0547 101.1 16.2588C101.845 15.4656 102.218 14.4265 102.218 13.1442C102.218 11.8618 101.845 10.8492 101.1 10.056C100.338 9.24426 99.4128 8.83972 98.3261 8.83972C97.2394 8.83972 96.314 9.24426 95.5525 10.056C94.8069 10.8518 94.4341 11.8803 94.4341 13.1442Z" fill="white"/>
<path d="M108.284 19.1021H106.047V7.18287H108.189V9.12887H108.286C108.514 8.49695 108.979 7.95757 109.685 7.51073C110.391 7.06389 111.084 6.8418 111.766 6.8418C112.448 6.8418 112.966 6.93962 113.421 7.13264L112.739 9.29809C112.464 9.18439 112.025 9.12887 111.425 9.12887C110.581 9.12887 109.846 9.46995 109.222 10.1495C108.598 10.8316 108.286 11.6248 108.286 12.5344V19.1021H108.284Z" fill="white"/>
<path d="M120.616 19.1036V1.6875H125.944C128.604 1.6875 130.74 2.49128 132.353 4.0962C133.966 5.70111 134.772 7.8031 134.772 10.3969C134.772 12.9907 133.966 15.1112 132.353 16.7108C130.74 18.3078 128.604 19.1063 125.944 19.1063H120.616V19.1036ZM122.853 3.82651V16.962H125.941C127.969 16.962 129.566 16.3829 130.732 15.2222C131.901 14.0641 132.483 12.4539 132.483 10.3942C132.483 8.33455 131.898 6.7455 130.732 5.57684C129.564 4.40819 127.967 3.82651 125.941 3.82651H122.853Z" fill="white"/>
<path d="M142.038 19.4925C140.287 19.4925 138.844 18.8923 137.707 17.6919C136.572 16.4915 136.004 14.9765 136.004 13.1442C136.004 11.3119 136.554 9.81536 137.659 8.60705C138.762 7.39873 140.174 6.7959 141.892 6.7959C143.611 6.7959 145.068 7.36701 146.112 8.51187C147.156 9.65672 147.68 11.2564 147.68 13.316L147.656 13.5593H138.291C138.323 14.7279 138.711 15.6666 139.46 16.3804C140.205 17.0943 141.096 17.4513 142.135 17.4513C143.563 17.4513 144.682 16.7374 145.493 15.3096L147.487 16.2826C146.953 17.2873 146.21 18.0753 145.261 18.6411C144.311 19.2069 143.238 19.4925 142.038 19.4925ZM138.463 11.7085H145.298C145.232 10.8809 144.896 10.1961 144.288 9.65408C143.679 9.11205 142.865 8.83972 141.842 8.83972C140.998 8.83972 140.274 9.09883 139.666 9.61706C139.058 10.1353 138.656 10.8333 138.463 11.7085Z" fill="white"/>
<path d="M154.608 19.1028H152.371L147.554 7.18359H149.986L153.49 16.4271H153.537L157.088 7.18359H159.473L154.608 19.1028Z" fill="white"/>
<path d="M165.353 19.4925C163.603 19.4925 162.159 18.8923 161.022 17.6919C159.888 16.4915 159.319 14.9765 159.319 13.1442C159.319 11.3119 159.869 9.81536 160.974 8.60705C162.077 7.39873 163.489 6.7959 165.208 6.7959C166.926 6.7959 168.383 7.36701 169.427 8.51187C170.472 9.65672 170.995 11.2564 170.995 13.316L170.972 13.5593H161.606C161.638 14.7279 162.027 15.6666 162.775 16.3804C163.521 17.0943 164.412 17.4513 165.451 17.4513C166.879 17.4513 167.997 16.7374 168.809 15.3096L170.802 16.2826C170.268 17.2873 169.525 18.0753 168.576 18.6411C167.627 19.2069 166.553 19.4925 165.353 19.4925ZM161.778 11.7085H168.613C168.547 10.8809 168.211 10.1961 167.603 9.65408C166.995 9.11205 166.181 8.83972 165.157 8.83972C164.314 8.83972 163.589 9.09883 162.981 9.61706C162.373 10.1353 161.971 10.8333 161.778 11.7085Z" fill="white"/>
<path d="M174.82 1.68652V19.1026H172.583V1.68652H174.82Z" fill="white"/>
<path d="M176.439 13.1442C176.439 11.3119 177.016 9.79421 178.166 8.59647C179.335 7.39609 180.802 6.7959 182.568 6.7959C184.334 6.7959 185.797 7.39609 186.947 8.59647C188.115 9.79685 188.697 11.3119 188.697 13.1442C188.697 14.9765 188.113 16.51 186.947 17.6919C185.794 18.8923 184.334 19.4925 182.568 19.4925C180.802 19.4925 179.332 18.8923 178.166 17.6919C177.013 16.4915 176.439 14.9765 176.439 13.1442ZM178.676 13.1442C178.676 14.4265 179.049 15.463 179.795 16.2588C180.54 17.0547 181.466 17.4513 182.568 17.4513C183.671 17.4513 184.596 17.0547 185.342 16.2588C186.087 15.4656 186.46 14.4265 186.46 13.1442C186.46 11.8618 186.087 10.8492 185.342 10.056C184.58 9.24426 183.655 8.83972 182.568 8.83972C181.482 8.83972 180.556 9.24426 179.795 10.056C179.049 10.8518 178.676 11.8803 178.676 13.1442Z" fill="white"/>
<path d="M196.543 19.4925C195.668 19.4925 194.869 19.3047 194.148 18.9319C193.426 18.5591 192.871 18.0647 192.482 17.4486H192.384L192.482 19.1038V24.3574H190.245V7.18457H192.387V8.83972H192.485C192.873 8.22366 193.429 7.72923 194.15 7.35643C194.872 6.98362 195.671 6.7959 196.546 6.7959C198.119 6.7959 199.449 7.41196 200.536 8.64407C201.654 9.89204 202.215 11.3938 202.215 13.1442C202.215 14.8945 201.654 16.4122 200.536 17.6443C199.449 18.8764 198.119 19.4925 196.546 19.4925H196.543ZM196.178 17.4486C197.249 17.4486 198.148 17.0441 198.878 16.2324C199.608 15.4392 199.972 14.408 199.972 13.1442C199.972 11.8803 199.608 10.865 198.878 10.056C198.148 9.24426 197.249 8.83972 196.178 8.83972C195.107 8.83972 194.185 9.24426 193.455 10.056C192.741 10.8677 192.384 11.8962 192.384 13.1442C192.384 14.3921 192.741 15.4471 193.455 16.2588C194.185 17.0547 195.092 17.4513 196.178 17.4513V17.4486Z" fill="white"/>
<path d="M209.222 19.4925C207.472 19.4925 206.028 18.8923 204.891 17.6919C203.757 16.4915 203.188 14.9765 203.188 13.1442C203.188 11.3119 203.738 9.81536 204.844 8.60705C205.946 7.39873 207.358 6.7959 209.077 6.7959C210.795 6.7959 212.252 7.36701 213.297 8.51187C214.341 9.65672 214.864 11.2564 214.864 13.316L214.841 13.5593H205.476C205.507 14.7279 205.896 15.6666 206.644 16.3804C207.39 17.0943 208.281 17.4513 209.32 17.4513C210.748 17.4513 211.866 16.7374 212.678 15.3096L214.671 16.2826C214.137 17.2873 213.394 18.0753 212.445 18.6411C211.496 19.2069 210.422 19.4925 209.222 19.4925ZM205.647 11.7085H212.482C212.416 10.8809 212.08 10.1961 211.472 9.65408C210.864 9.11205 210.05 8.83972 209.026 8.83972C208.183 8.83972 207.459 9.09883 206.85 9.61706C206.242 10.1353 205.84 10.8333 205.647 11.7085Z" fill="white"/>
<path d="M218.706 19.1021H216.469V7.18287H218.61V9.12887H218.708C218.936 8.49695 219.401 7.95757 220.107 7.51073C220.813 7.06389 221.506 6.8418 222.188 6.8418C222.87 6.8418 223.388 6.93962 223.843 7.13264L223.161 9.29809C222.886 9.18439 222.447 9.12887 221.847 9.12887C221.003 9.12887 220.268 9.46995 219.644 10.1495C219.02 10.8316 218.708 11.6248 218.708 12.5344V19.1021H218.706Z" fill="white"/>
<path d="M233.851 15.7949C233.851 16.834 233.397 17.7091 232.49 18.423C231.58 19.1369 230.438 19.4938 229.06 19.4938C227.86 19.4938 226.805 19.1818 225.898 18.5579C224.989 17.9339 224.341 17.1116 223.952 16.0883L225.946 15.237C226.237 15.9509 226.662 16.5061 227.223 16.9027C227.783 17.2993 228.394 17.4976 229.06 17.4976C229.774 17.4976 230.369 17.3443 230.848 17.0349C231.326 16.7282 231.564 16.3633 231.564 15.9403C231.564 15.1788 230.98 14.6183 229.814 14.2613L227.77 13.751C225.451 13.1667 224.291 12.0483 224.291 10.3931C224.291 9.30645 224.732 8.43393 225.615 7.77821C226.498 7.12249 227.63 6.79199 229.008 6.79199C230.062 6.79199 231.014 7.04318 231.866 7.54554C232.717 8.0479 233.312 8.72212 233.653 9.56556L231.659 10.3931C231.432 9.89077 231.065 9.49682 230.552 9.21391C230.041 8.931 229.47 8.78822 228.836 8.78822C228.251 8.78822 227.728 8.93365 227.268 9.22713C226.805 9.51797 226.575 9.87491 226.575 10.298C226.575 10.9801 227.215 11.4666 228.497 11.7574L230.298 12.2202C232.664 12.8045 233.849 13.9969 233.849 15.7949H233.851Z" fill="white"/>
<path d="M9.98115 19.6926C4.55828 19.6926 0 15.2718 0 9.84631C0 4.42079 4.55828 0 9.98115 0C12.9821 0 15.1158 1.17659 16.7234 2.71276L14.8276 4.60852C13.6748 3.52711 12.1149 2.68632 9.98115 2.68632C6.02306 2.68632 2.92692 5.88029 2.92692 9.84366C2.92692 13.807 6.02306 16.9984 9.98115 16.9984C12.5485 16.9984 14.0133 15.9672 14.9493 15.0286C15.716 14.2592 16.221 13.1566 16.414 11.6416H9.91241V8.95263H19.029C19.1242 9.43384 19.1717 10.0102 19.1717 10.6342C19.1717 12.6516 18.6191 15.1502 16.845 16.927C15.1185 18.7275 12.9107 19.6873 9.98115 19.6873V19.6926Z" fill="white"/>
<path d="M32.8288 13.3569C32.8288 17.0083 29.9759 19.6973 26.4779 19.6973C22.9798 19.6973 20.127 17.0083 20.127 13.3569C20.127 9.70556 22.9798 7.0166 26.4779 7.0166C29.9759 7.0166 32.8288 9.68177 32.8288 13.3569ZM30.0473 13.3569C30.0473 11.0752 28.3921 9.51519 26.4752 9.51519C24.5583 9.51519 22.9032 11.0752 22.9032 13.3569C22.9032 15.6387 24.5583 17.1987 26.4752 17.1987C28.3921 17.1987 30.0473 15.6149 30.0473 13.3569Z" fill="white"/>
<path d="M46.653 13.3569C46.653 17.0083 43.8001 19.6973 40.3021 19.6973C36.8041 19.6973 33.9512 17.0083 33.9512 13.3569C33.9512 9.70556 36.8041 7.0166 40.3021 7.0166C43.8001 7.0166 46.653 9.68177 46.653 13.3569ZM43.8715 13.3569C43.8715 11.0752 42.2164 9.51519 40.2995 9.51519C38.3825 9.51519 36.7274 11.0752 36.7274 13.3569C36.7274 15.6387 38.3825 17.1987 40.2995 17.1987C42.2164 17.1987 43.8715 15.6149 43.8715 13.3569Z" fill="white"/>
<path d="M59.8786 7.39998V18.7825C59.8786 23.465 57.1183 25.3872 53.8556 25.3872C50.7832 25.3872 48.935 23.3222 48.2397 21.6406L50.6642 20.6333C51.0952 21.6671 52.1528 22.8913 53.8556 22.8913C55.9443 22.8913 57.2399 21.5957 57.2399 19.1685V18.2563H57.1447C56.5207 19.0257 55.3203 19.6973 53.808 19.6973C50.6404 19.6973 47.7373 16.9369 47.7373 13.3807C47.7373 9.82454 50.6404 7.0166 53.808 7.0166C55.3203 7.0166 56.5207 7.68818 57.1447 8.43379H57.2399V7.39998H59.8786ZM57.4303 13.3807C57.4303 11.1466 55.9417 9.51519 54.0459 9.51519C52.1502 9.51519 50.5188 11.1492 50.5188 13.3807C50.5188 15.6123 52.1264 17.1987 54.0459 17.1987C55.9655 17.1987 57.4303 15.5885 57.4303 13.3807Z" fill="white"/>
<path d="M64.6631 0.673828V19.3088H61.8789V0.673828H64.6631Z" fill="white"/>
<path d="M75.4543 15.4457L77.6144 16.8867C76.9191 17.9205 75.2375 19.6973 72.3343 19.6973C68.7358 19.6973 66.0469 16.9105 66.0469 13.3569C66.0469 9.58658 68.7596 7.0166 72.0223 7.0166C75.2851 7.0166 76.9164 9.63417 77.4452 11.0514L77.7334 11.7705L69.262 15.2765C69.9098 16.5483 70.9171 17.1987 72.3343 17.1987C73.7515 17.1987 74.7351 16.5033 75.4543 15.4457ZM68.8072 13.1639L74.4707 10.8108C74.1587 10.0176 73.2227 9.46496 72.1202 9.46496C70.7056 9.46496 68.7358 10.7129 68.8099 13.1639H68.8072Z" fill="white"/>
</svg>
