<svg width="45" height="45" viewBox="0 0 45 45" fill="none" xmlns="http://www.w3.org/2000/svg">
<path d="M33.3797 33.3795C39.5247 27.2345 39.5247 17.2714 33.3797 11.1264C27.2346 4.98135 17.2716 4.98135 11.1266 11.1264C4.98153 17.2714 4.98153 27.2345 11.1266 33.3795C17.2716 39.5245 27.2346 39.5245 33.3797 33.3795Z" fill="white"/>
<path d="M27.0083 13.2155H27.1063C29.0031 13.1977 30.6936 14.4014 31.1329 16.2848C31.2872 16.9438 31.2487 17.6132 31.2487 18.2855L31.2516 27.3361C31.2516 29.1616 29.8224 30.8343 28.0577 31.2113C27.5308 31.3241 26.9623 31.2914 26.4265 31.2914H17.5422C17.2647 31.2914 16.9842 31.3003 16.7081 31.2647C14.9286 31.0421 13.434 29.4955 13.2692 27.7101C13.2485 27.48 13.2544 27.2455 13.2544 27.014V17.6666C13.2544 17.208 13.2351 16.7494 13.336 16.2982C13.6714 14.7977 14.881 13.6311 16.3786 13.3016C16.9337 13.1799 17.5051 13.2126 18.0706 13.2141H27.0098L27.0083 13.2155ZM27.3289 29.6306C28.4183 29.5416 29.3816 28.7327 29.5418 27.6314C29.576 27.3999 29.5671 27.1609 29.5686 26.9279V17.6725C29.5686 17.4425 29.5819 17.211 29.5626 16.9809C29.478 15.9821 28.6855 15.0901 27.6822 14.9431C27.2577 14.8808 26.7115 14.9134 26.2752 14.9134H17.9058C17.6535 14.9134 17.3982 14.9045 17.1459 14.9134C15.9823 15.0589 15.0711 15.7342 14.9241 16.975C14.8944 17.2258 14.9048 17.4826 14.9048 17.7334V26.8893C14.9048 27.1179 14.8944 27.3509 14.9241 27.578C15.0577 28.605 15.8888 29.4481 16.9099 29.6009C17.3225 29.6618 17.7648 29.6306 18.1819 29.6291H24.9854C25.7661 29.6291 26.5482 29.638 27.3289 29.6291V29.6306Z" fill="#1E1E1E"/>
<path d="M21.9999 18.0393C24.3197 17.9057 26.31 19.6764 26.4465 21.9976C26.5831 24.3174 24.8139 26.3092 22.4942 26.4487C20.1699 26.5882 18.1752 24.8146 18.0386 22.4919C17.9021 20.1676 19.6772 18.1744 21.9999 18.0408V18.0393ZM22.4333 24.7731C23.8358 24.6677 24.8866 23.4462 24.7798 22.0436C24.6744 20.6411 23.4515 19.5918 22.0504 19.6971C20.6493 19.8025 19.5985 21.0255 19.7039 22.4266C19.8093 23.8276 21.0307 24.8784 22.4318 24.7731H22.4333Z" fill="#1E1E1E"/>
<path d="M26.9921 16.0745C27.703 15.9736 28.3605 16.4708 28.4555 17.1832C28.5505 17.8956 28.0473 18.5487 27.3349 18.6377C26.6299 18.7268 25.9858 18.2296 25.8923 17.5261C25.7988 16.8226 26.2886 16.174 26.9921 16.0745Z" fill="#1E1E1E"/>
</svg>
