<svg width="65" height="46" viewBox="0 0 65 46" fill="none" xmlns="http://www.w3.org/2000/svg">
<path d="M39.0244 37.9493L45.623 27.6156C42.9691 27.1766 40.6037 25.7743 38.5396 23.4088C36.4689 21.0498 35.44 18.1732 35.44 14.7789C35.44 10.9455 36.803 7.6626 39.5355 4.93012C42.2614 2.20419 45.623 0.834673 49.6005 0.834674C53.578 0.834674 56.9396 2.19764 59.6721 4.93012C62.9222 8.18027 64.2392 12.2167 63.6167 17.033C63.3939 18.7629 62.9091 20.4535 62.1817 22.0393C61.1464 24.313 59.613 26.9014 57.5686 29.8239L48.2506 43.9384C47.4905 45.0917 45.9441 45.4128 44.7842 44.6658L39.7649 41.4091C38.6051 40.6555 38.2709 39.1091 39.0113 37.9493L39.0244 37.9493Z" fill="#34A853" stroke="#1E1E1E" stroke-width="1.66868" stroke-miterlimit="10"/>
<path d="M4.4189 37.9493L11.0175 27.6156C8.36368 27.1766 5.99811 25.7743 3.93401 23.4088C1.86335 21.0498 0.834584 18.1732 0.834584 14.7789C0.834584 10.9455 2.19755 7.6626 4.93003 4.93012C7.65596 2.20419 11.0175 0.834673 14.995 0.834674C18.9725 0.834674 22.334 2.19764 25.0665 4.93012C28.3167 8.18027 29.6338 12.2167 29.0113 17.033C28.7885 18.7629 28.3035 20.4535 27.5762 22.0393C26.5408 24.313 25.0076 26.9014 22.9631 29.8239L13.6451 43.9384C12.885 45.0917 11.3386 45.4128 10.1788 44.6658L5.15936 41.4091C3.99953 40.6555 3.66532 39.1091 4.40578 37.9493L4.4189 37.9493Z" fill="#34A853" stroke="#1E1E1E" stroke-width="1.66868" stroke-miterlimit="10"/>
</svg>
