<svg width="45" height="45" viewBox="0 0 45 45" fill="none" xmlns="http://www.w3.org/2000/svg">
<path d="M33.3828 33.3825C39.5284 27.2369 39.5284 17.2729 33.3828 11.1273C27.2372 4.98168 17.2732 4.98167 11.1276 11.1273C4.982 17.2729 4.982 27.2369 11.1276 33.3825C17.2732 39.5281 27.2372 39.5281 33.3828 33.3825Z" fill="white"/>
<path d="M17.9422 29.8306C17.9422 30.0369 17.8784 30.0918 17.681 30.0903C16.7786 30.0829 15.8748 30.0873 14.9709 30.0873C14.769 30.0873 14.6676 29.9884 14.6667 29.7905C14.6667 26.7361 14.6667 23.6801 14.6667 20.6257C14.6667 20.3615 14.6711 20.0973 14.6652 19.8331C14.6622 19.6921 14.7112 19.6402 14.8566 19.6402C15.8184 19.6446 16.7816 19.6461 17.7434 19.6387C17.9511 19.6372 17.9393 19.7559 17.9378 19.894C17.9378 21.5533 17.9378 23.2126 17.9378 24.8734C17.9378 26.5342 17.9348 28.1787 17.9422 29.8306Z" fill="#1E1E1E"/>
<path d="M18.1673 16.2837C18.1673 17.3152 17.3331 18.1567 16.3105 18.1537C15.2865 18.1537 14.4375 17.3077 14.4375 16.2926C14.4375 15.2403 15.2776 14.4091 16.3328 14.4151C17.3465 14.421 18.1658 15.2551 18.1658 16.2822L18.1673 16.2837Z" fill="#1E1E1E"/>
<path d="M30.07 29.8608C30.07 30.0255 30.0359 30.0938 29.8518 30.0909C28.9406 30.082 28.0293 30.0805 27.1195 30.0909C26.9102 30.0923 26.8657 30.0181 26.8657 29.8237C26.8731 28.01 26.8746 26.1949 26.8731 24.3797C26.8731 23.8424 26.7544 23.3393 26.3596 22.9475C25.8386 22.4295 25.193 22.3404 24.5014 22.4562C23.4387 22.6343 22.989 23.4343 22.8792 24.2847C22.8628 24.4153 22.8658 24.5489 22.8658 24.681C22.8658 26.3923 22.8628 28.105 22.8702 29.8163C22.8702 30.0256 22.8153 30.0938 22.6001 30.0909C21.7037 30.0805 20.8072 30.0834 19.9108 30.0909C19.7282 30.0923 19.6748 30.0359 19.6748 29.8534C19.6793 26.5258 19.6807 23.1968 19.6748 19.8693C19.6748 19.6793 19.7416 19.6363 19.9167 19.6378C20.7612 19.6452 21.6072 19.6467 22.4517 19.6378C22.6447 19.6363 22.6892 19.7105 22.6847 19.8826C22.6758 20.27 22.6818 20.6574 22.6818 21.0922C23.2413 20.3739 23.9359 19.9034 24.7641 19.66C26.3714 19.188 27.8408 19.4582 29.0192 20.6871C29.7019 21.398 30.0478 22.3197 30.0582 23.3141C30.0819 25.4958 30.0641 27.6776 30.0685 29.8593L30.07 29.8608Z" fill="#1E1E1E"/>
</svg>
