<svg width="60" height="146" viewBox="0 0 60 146" fill="none" xmlns="http://www.w3.org/2000/svg">
<path d="M3.09721 89.5448H10.5163C13.1595 89.5448 15.3063 91.6868 15.3063 94.3348V120.867C15.3063 134.092 26.0259 144.812 39.2516 144.812H55.9717C57.0309 144.812 57.8868 143.956 57.8868 142.897V116.029C57.8868 114.97 57.0309 114.114 55.9717 114.114H43.7011C41.0579 114.114 38.9111 111.972 38.9111 109.324V36.6703C38.9111 34.027 41.0532 31.8803 43.7011 31.8803H55.9717C57.0309 31.8803 57.8868 31.0244 57.8868 29.9652V3.09768C57.8868 2.03848 57.0309 1.18262 55.9717 1.18262H39.2516C26.0259 1.18262 15.3063 11.9022 15.3063 25.1279V52.8561C15.3063 55.4993 13.1642 57.6461 10.5163 57.6461H3.09721C2.03802 57.6461 1.18213 58.5019 1.18213 59.5611V87.625C1.18213 88.6842 2.03802 89.5401 3.09721 89.5401V89.5448Z" fill="#F8D8D8" stroke="#1E1E1E" stroke-width="2.36427" stroke-linejoin="round"/>
</svg>
