<svg width="94" height="94" viewBox="0 0 94 94" fill="none" xmlns="http://www.w3.org/2000/svg">
<g clip-path="url(#clip0_541_525)">
<path d="M68.8608 76.6856H86.0761C89.5335 76.6856 92.3363 73.8828 92.3363 70.4255V14.0843C92.3363 10.627 89.5335 7.82422 86.0761 7.82422H7.82458C4.36721 7.82422 1.56445 10.627 1.56445 14.0843V70.4255C1.56445 73.8828 4.36721 76.6856 7.82458 76.6856H56.3405" fill="white"/>
<path d="M86.076 7.82422H81.3809C84.8382 7.82422 87.641 10.627 87.641 14.0843V70.4255C87.641 73.8828 84.8382 76.6856 81.3809 76.6856H86.076C89.5333 76.6856 92.3361 73.8828 92.3361 70.4255V14.0843C92.3361 10.627 89.5333 7.82422 86.076 7.82422Z" fill="#BFBFBF"/>
<path d="M59.471 64.1656H17.2152C13.7578 64.1656 10.9551 61.3628 10.9551 57.9055V26.6049C10.9551 23.1475 13.7578 20.3447 17.2152 20.3447H59.471V64.1656Z" fill="#F5F5F5"/>
<path d="M54.7754 20.3447H59.4705V64.1656H54.7754V20.3447Z" fill="#CFD8DC"/>
<path d="M85.4347 34.492C85.8491 34.9324 86.0788 35.515 86.0764 36.1196C86.0789 37.0552 85.5343 37.9058 84.6835 38.295C83.8295 38.6912 83.2809 39.5447 83.275 40.4861C83.2723 40.7701 83.3255 41.052 83.4315 41.3155C83.5347 41.5799 83.5878 41.8612 83.588 42.145C83.5814 43.4345 82.5603 44.4901 81.2717 44.5395C80.0207 44.5854 79.017 45.589 78.9711 46.8401C78.9573 47.4568 78.6982 48.0426 78.2512 48.4677C77.8054 48.9087 77.2037 49.1562 76.5766 49.1563C76.2928 49.1561 76.0116 49.1031 75.7472 48.9998C75.4836 48.8939 75.2018 48.8407 74.9177 48.8433C73.9763 48.8492 73.1229 49.3979 72.7267 50.2519C72.3375 51.1026 71.4868 51.6473 70.5513 51.6447C69.9466 51.6471 69.364 51.4175 68.9236 51.0031C68.031 50.1658 66.6478 50.1455 65.731 50.9561C65.7153 50.9718 65.684 50.9874 65.6684 51.0031C65.228 51.4175 64.6454 51.6471 64.0407 51.6447C63.1052 51.6473 62.2546 51.1026 61.8654 50.2519C61.4692 49.3979 60.6157 48.8492 59.6743 48.8433C59.3902 48.8407 59.1084 48.8939 58.8448 48.9998C58.5805 49.1031 58.2992 49.1561 58.0154 49.1563C57.3883 49.1562 56.7866 48.9087 56.3408 48.4677C55.8938 48.0426 55.6347 47.4568 55.6209 46.8401C55.575 45.589 54.5714 44.5854 53.3203 44.5395C52.0317 44.4901 51.0106 43.4345 51.004 42.145C51.0042 41.8612 51.0573 41.5799 51.1605 41.3155C51.2665 41.052 51.3197 40.7701 51.317 40.4861C51.3112 39.5447 50.7625 38.6912 49.9085 38.295C49.0578 37.9058 48.5131 37.0552 48.5156 36.1196C48.5133 35.515 48.7429 34.9324 49.1573 34.492C50.0129 33.5756 50.0129 32.1532 49.1573 31.2367C48.7429 30.7964 48.5133 30.2138 48.5156 29.6091C48.5131 28.6736 49.0578 27.8229 49.9085 27.4337C50.7625 27.0375 51.3112 26.1841 51.317 25.2427C51.3197 24.9586 51.2665 24.6768 51.1605 24.4132C51.0573 24.1488 51.0042 23.8675 51.004 23.5837C51.0106 22.2942 52.0317 21.2387 53.3203 21.1892C54.5714 21.1434 55.575 20.1397 55.6209 18.8886C55.6703 17.6001 56.7259 16.579 58.0154 16.5724C58.2992 16.5726 58.5805 16.6257 58.8448 16.7289C59.1084 16.8349 59.3902 16.8881 59.6743 16.8854C60.6157 16.8795 61.4692 16.3309 61.8654 15.4769C62.2546 14.6261 63.1052 14.0815 64.0407 14.084C64.6454 14.0816 65.228 14.3113 65.6684 14.7257C66.5848 15.5812 68.0072 15.5812 68.9236 14.7257C69.4859 14.2038 70.2641 13.9828 71.0167 14.1315C71.7693 14.2802 72.4051 14.7804 72.7267 15.4769C73.1229 16.3309 73.9763 16.8795 74.9177 16.8854C75.2018 16.8881 75.4836 16.8349 75.7472 16.7289C76.0116 16.6257 76.2928 16.5726 76.5766 16.5724C77.8662 16.579 78.9217 17.6001 78.9711 18.8886C79.017 20.1397 80.0207 21.1434 81.2717 21.1892C82.5603 21.2387 83.5814 22.2942 83.588 23.5837C83.5878 23.8675 83.5347 24.1488 83.4315 24.4132C83.3255 24.6768 83.2723 24.9586 83.275 25.2427C83.2809 26.1841 83.8295 27.0375 84.6835 27.4337C85.5343 27.8229 86.0789 28.6736 86.0764 29.6091C86.0788 30.2138 85.8491 30.7964 85.4347 31.2367C84.5792 32.1532 84.5792 33.5756 85.4347 34.492Z" fill="#EA4335"/>
<path d="M84.7932 32.8652C84.798 32.2619 85.0267 31.6819 85.4348 31.2376C85.8492 30.7972 86.0789 30.2146 86.0765 29.6099C86.079 28.6744 85.5344 27.8238 84.6836 27.4346C83.8296 27.0384 83.281 26.1849 83.2751 25.2435C83.2724 24.9594 83.3256 24.6776 83.4316 24.414C83.5348 24.1497 83.5879 23.8684 83.5881 23.5846C83.5815 22.2951 82.5604 21.2395 81.2718 21.1901C80.0208 21.1442 79.0171 20.1406 78.9712 18.8895C78.9218 17.6009 77.8663 16.5798 76.5767 16.5732C76.2929 16.5734 76.0117 16.6265 75.7473 16.7297C75.4837 16.8357 75.2019 16.8889 74.9178 16.8862C73.9764 16.8804 73.123 16.3317 72.7268 15.4777C72.4052 14.7812 71.7694 14.281 71.0168 14.1323C70.2642 13.9837 69.486 14.2046 68.9237 14.7265C68.6279 14.9825 68.2746 15.1635 67.894 15.2539C67.9441 15.3259 67.99 15.4006 68.0317 15.4777C68.4279 16.3317 69.2813 16.8804 70.2227 16.8862C70.5068 16.8889 70.7886 16.8357 71.0522 16.7297C71.3166 16.6265 71.5978 16.5734 71.8817 16.5732C73.1712 16.5798 74.2267 17.6009 74.2762 18.8895C74.322 20.1406 75.3257 21.1442 76.5767 21.1901C77.8653 21.2395 78.8864 22.2951 78.893 23.5846C78.8928 23.8684 78.8397 24.1497 78.7365 24.414C78.6305 24.6776 78.5773 24.9594 78.58 25.2435C78.5859 26.1849 79.1345 27.0384 79.9885 27.4346C80.8393 27.8238 81.3839 28.6744 81.3814 29.6099C81.3838 30.2146 81.1541 30.7972 80.7397 31.2376C79.8842 32.154 79.8842 33.5764 80.7397 34.4928C81.1541 34.9332 81.3838 35.5158 81.3814 36.1205C81.3839 37.056 80.8393 37.9067 79.9885 38.2959C79.1345 38.692 78.5859 39.5455 78.58 40.4869C78.5773 40.771 78.6305 41.0528 78.7365 41.3164C78.8397 41.5808 78.8928 41.862 78.893 42.1458C78.8864 43.4354 77.8653 44.4909 76.5767 44.5403C75.3257 44.5862 74.322 45.5899 74.2762 46.8409C74.2623 47.4577 74.0032 48.0434 73.5562 48.4686C73.1104 48.9096 72.5087 49.157 71.8817 49.1572C71.5978 49.157 71.3166 49.1039 71.0522 49.0007C70.7886 48.8947 70.5068 48.8415 70.2227 48.8442C69.2813 48.8501 68.4279 49.3987 68.0317 50.2527C67.9879 50.3294 67.9398 50.4036 67.8877 50.4749C68.2709 50.5646 68.6265 50.7461 68.9237 51.0039C69.3641 51.4183 69.9467 51.648 70.5514 51.6456C71.4869 51.6481 72.3376 51.1035 72.7268 50.2527C73.123 49.3987 73.9764 48.8501 74.9178 48.8442C75.2019 48.8415 75.4837 48.8947 75.7473 49.0007C76.0117 49.1039 76.2929 49.157 76.5767 49.1572C77.2038 49.157 77.8055 48.9096 78.2513 48.4686C78.6983 48.0434 78.9574 47.4577 78.9712 46.8409C79.0171 45.5899 80.0208 44.5862 81.2718 44.5403C82.5604 44.4909 83.5815 43.4354 83.5881 42.1458C83.5879 41.862 83.5348 41.5808 83.4316 41.3164C83.3256 41.0528 83.2724 40.771 83.2751 40.4869C83.281 39.5455 83.8296 38.692 84.6836 38.2959C85.5344 37.9067 86.079 37.056 86.0765 36.1205C86.0789 35.5158 85.8492 34.9332 85.4348 34.4928C85.0267 34.0485 84.798 33.4685 84.7932 32.8652Z" fill="#E6392A"/>
<path d="M67.296 43.8206C73.3464 43.8206 78.2513 38.9158 78.2513 32.8654C78.2513 26.815 73.3464 21.9102 67.296 21.9102C61.2456 21.9102 56.3408 26.815 56.3408 32.8654C56.3408 38.9158 61.2456 43.8206 67.296 43.8206Z" fill="#FBBD05"/>
<path d="M67.2958 21.9102C66.5063 21.9114 65.7192 21.998 64.9482 22.1684C69.9664 23.2777 73.5389 27.7261 73.5389 32.8654C73.5389 38.0047 69.9664 42.4531 64.9482 43.5624C69.0504 44.4691 73.3098 42.9501 75.9125 39.6522C78.5152 36.3543 79.0026 31.8585 77.1673 28.0794C75.3319 24.3003 71.497 21.9037 67.2958 21.9102Z" fill="#FBBD05"/>
<path d="M68.8611 67.2961V86.0764L62.6009 79.8163L56.3408 86.0764V48.4688C56.7866 48.9098 57.3883 49.1572 58.0154 49.1574C58.2992 49.1572 58.5805 49.1041 58.8449 49.0009C59.1084 48.8949 59.3903 48.8417 59.6743 48.8444C60.6157 48.8502 61.4692 49.3989 61.8654 50.2529C62.2546 51.1036 63.1052 51.6483 64.0408 51.6458C64.6455 51.6481 65.228 51.4185 65.6684 51.0041C65.6841 50.9885 65.7154 50.9728 65.731 50.9571V70.4261L68.8611 67.2961Z" fill="#EA4335"/>
<path d="M78.2507 48.4688V70.4261L71.9906 64.166L65.7305 70.4261V50.9571C66.6473 50.1465 68.0305 50.1668 68.9231 51.0041C69.3635 51.4185 69.9461 51.6481 70.5508 51.6458C71.4863 51.6483 72.337 51.1036 72.7262 50.2529C73.1223 49.3989 73.9758 48.8502 74.9172 48.8444C75.2013 48.8417 75.4831 48.8949 75.7467 49.0009C76.011 49.1041 76.2923 49.1572 76.5761 49.1574C77.2032 49.1572 77.8049 48.9098 78.2507 48.4688Z" fill="#EA4335"/>
<path d="M76.5762 49.1574C76.2924 49.1572 76.0111 49.1041 75.7467 49.0009C75.4831 48.8949 75.2013 48.8417 74.9172 48.8444C74.4291 48.8501 73.9543 49.004 73.5557 49.2857V65.731L78.2508 70.4261V48.4688C77.805 48.9098 77.2032 49.1572 76.5762 49.1574Z" fill="#E6392A"/>
<path d="M86.0767 6.25977H7.82515C3.50559 6.26494 0.00517418 9.76535 0 14.0849V70.426C0.00517418 74.7456 3.50559 78.246 7.82515 78.2512H54.7761V86.0763C54.7762 86.7092 55.1575 87.2798 55.7422 87.5219C56.327 87.7641 57 87.6303 57.4476 87.1828L62.6012 82.0292L67.7549 87.1828C68.2025 87.6303 68.8755 87.7641 69.4602 87.5219C70.045 87.2798 70.4263 86.7092 70.4264 86.0763V78.2512H86.0767C90.3963 78.246 93.8967 74.7456 93.9019 70.426V14.0849C93.8967 9.76535 90.3963 6.26494 86.0767 6.25977ZM50.5662 36.8796C50.3242 36.768 50.1503 36.5474 50.0983 36.2861C50.0463 36.0248 50.1225 35.7544 50.3032 35.5587C51.7036 34.0367 51.7036 31.6954 50.3032 30.1734C50.1219 29.9775 50.0456 29.7065 50.0979 29.4447C50.1503 29.1829 50.325 28.9621 50.5677 28.851C52.4424 27.9786 53.3373 25.8162 52.6273 23.8742C52.5349 23.6242 52.5678 23.345 52.7158 23.1233C52.8638 22.9016 53.109 22.7642 53.3754 22.7536C55.4422 22.6668 57.0978 21.0111 57.1847 18.9443C57.195 18.6776 57.3327 18.432 57.5548 18.2839C57.7769 18.1358 58.0566 18.1032 58.3068 18.1963C60.2492 18.902 62.409 18.0076 63.2836 16.1351C63.3943 15.8927 63.6147 15.7183 63.876 15.6662C64.1373 15.6141 64.4078 15.6907 64.6029 15.8722C66.1254 17.2728 68.4673 17.2728 69.9897 15.8722C70.1854 15.6909 70.4562 15.6145 70.7178 15.6669C70.9794 15.7192 71.1999 15.894 71.3106 16.1367C72.1835 18.01 74.3443 18.9045 76.2859 18.1963C76.5361 18.1032 76.8158 18.1358 77.0379 18.2839C77.26 18.432 77.3976 18.6776 77.408 18.9443C77.4958 21.014 79.1553 22.6708 81.2251 22.7552C81.4914 22.7652 81.7366 22.9023 81.8847 23.1238C82.0328 23.3453 82.0657 23.6243 81.9732 23.8742C81.2626 25.8167 82.1584 27.9797 84.0343 28.851C84.2762 28.9626 84.4501 29.1832 84.5022 29.4445C84.5542 29.7058 84.478 29.9762 84.2973 30.1719C82.8969 31.6939 82.8969 34.0352 84.2973 35.5571C84.4786 35.7531 84.5549 36.0241 84.5026 36.2859C84.4502 36.5477 84.2755 36.7684 84.0328 36.8796C82.158 37.752 81.2632 39.9143 81.9732 41.8564C82.0656 42.1064 82.0327 42.3856 81.8847 42.6073C81.7367 42.829 81.4915 42.9664 81.2251 42.977C79.1524 43.0601 77.4912 44.7214 77.408 46.7941C77.3976 47.0608 77.26 47.3064 77.0379 47.4545C76.8158 47.6026 76.5361 47.6352 76.2859 47.5422C74.3435 46.8356 72.1831 47.7303 71.3091 49.6033C71.2025 49.848 70.9814 50.0239 70.7191 50.0728C70.4571 50.1276 70.1848 50.051 69.9897 49.8678C68.467 48.468 66.1257 48.468 64.6029 49.8678C64.4077 50.0508 64.1356 50.1273 63.8736 50.0728C63.6109 50.0238 63.3894 49.848 63.282 49.6033C62.4097 47.7294 60.2484 46.8347 58.3068 47.5437C58.0566 47.6367 57.7769 47.6042 57.5548 47.4561C57.3327 47.308 57.195 47.0624 57.1847 46.7956C57.1016 44.7224 55.4408 43.0602 53.3676 42.9754C53.1013 42.9654 52.856 42.8283 52.7079 42.6068C52.5599 42.3853 52.527 42.1063 52.6195 41.8564C53.3311 39.916 52.439 37.7537 50.5662 36.8796ZM67.7564 66.1879L67.2963 66.648V51.9368C67.5058 51.9362 67.7077 52.015 67.8613 52.1574C68.5866 52.8372 69.5434 53.2155 70.5375 53.2154C70.8034 53.2149 71.0686 53.1887 71.3294 53.1371C72.5748 52.894 73.6249 52.0621 74.1465 50.9054C74.3298 50.5108 74.7852 50.3229 75.1935 50.4735C75.6697 50.6422 76.1739 50.7181 76.6787 50.6973V66.648L73.0901 63.0594C72.4789 62.4485 71.4883 62.4485 70.8771 63.0594L67.7564 66.1879ZM67.2963 82.2984L63.7077 78.7097C63.0966 78.0988 62.1059 78.0988 61.4948 78.7097L57.9061 82.2984V50.6941C58.411 50.7151 58.9151 50.6392 59.3914 50.4703C59.7988 50.3189 60.2541 50.5064 60.4368 50.9007C60.9598 52.0604 62.014 52.8934 63.2632 53.134C63.5605 53.1928 63.8634 53.2185 64.1663 53.2107V70.426C64.1664 71.0589 64.5477 71.6294 65.1324 71.8716C65.7172 72.1138 66.3902 71.98 66.8378 71.5325L67.2963 71.074V82.2984ZM90.7718 70.426C90.7718 73.0191 88.6697 75.1211 86.0767 75.1211H70.4264V67.9439L71.9914 66.3789L77.1451 71.5325C77.5927 71.98 78.2657 72.1138 78.8504 71.8716C79.4351 71.6294 79.8164 71.0589 79.8166 70.426V48.9961C80.2534 48.3827 80.5029 47.6559 80.5349 46.9036C80.554 46.4695 80.9021 46.1221 81.3362 46.1039C82.605 46.055 83.7735 45.401 84.4787 44.3452C85.184 43.2893 85.3405 41.9595 84.8998 40.7687C84.7504 40.3614 84.9382 39.9075 85.3317 39.7248C86.4861 39.1945 87.3162 38.1429 87.564 36.897C87.8118 35.6511 87.4473 34.3619 86.5838 33.4303C86.2896 33.1104 86.2896 32.6186 86.5838 32.2988C87.4473 31.3674 87.8119 30.0784 87.564 28.8327C87.3162 27.587 86.486 26.5357 85.3317 26.0058C84.937 25.8242 84.7482 25.3697 84.8982 24.9619C85.339 23.7711 85.1824 22.4413 84.4771 21.3854C83.7719 20.3296 82.6034 19.6756 81.3347 19.6267C80.9005 19.6084 80.5525 19.2611 80.5334 18.827C80.4859 17.5577 79.8327 16.3883 78.7769 15.6822C77.7211 14.9762 76.3908 14.8193 75.1997 15.2603C74.7923 15.4141 74.3353 15.226 74.1543 14.8299C73.624 13.6756 72.5724 12.8454 71.3265 12.5976C70.0806 12.3498 68.7914 12.7143 67.8597 13.5779C67.5404 13.8718 67.0491 13.8718 66.7298 13.5779C65.7984 12.7143 64.5094 12.3498 63.2637 12.5976C62.018 12.8454 60.9667 13.6756 60.4368 14.8299C60.2551 15.2262 59.7981 15.4148 59.3898 15.2618C58.1987 14.8208 56.8684 14.9778 55.8126 15.6838C54.7568 16.3898 54.1036 17.5593 54.0562 18.8285C54.0371 19.2626 53.689 19.61 53.2549 19.6283C51.9861 19.6772 50.8176 20.3311 50.1124 21.387C49.4071 22.4428 49.2506 23.7727 49.6913 24.9635C49.8407 25.3708 49.6529 25.8247 49.2593 26.0073C48.105 26.5376 47.2749 27.5892 47.0271 28.8351C46.7793 30.081 47.1438 31.3702 48.0073 32.3019C48.3015 32.6217 48.3015 33.1136 48.0073 33.4334C47.1438 34.3648 46.7792 35.6538 47.0271 36.8995C47.2749 38.1452 48.1051 39.1965 49.2593 39.7264C49.6541 39.9079 49.8429 40.3625 49.6929 40.7703C49.2521 41.961 49.4087 43.2909 50.1139 44.3467C50.8192 45.4026 51.9877 46.0565 53.2564 46.1055C53.6906 46.1237 54.0386 46.4711 54.0577 46.9052C54.09 47.6569 54.3396 48.3832 54.7761 48.9961V75.1211H7.82515C5.23213 75.1211 3.13006 73.0191 3.13006 70.426V14.0849C3.13006 11.4919 5.23213 9.38983 7.82515 9.38983H86.0767C88.6697 9.38983 90.7718 11.4919 90.7718 14.0849V70.426Z" fill="#1E1E1E"/>
<path d="M17.2158 62.6011C14.6228 62.6011 12.5207 60.4991 12.5207 57.906V26.6054C12.5207 24.0124 14.6228 21.9103 17.2158 21.9103H45.3863C46.2507 21.9103 46.9514 21.2096 46.9514 20.3453C46.9514 19.481 46.2507 18.7803 45.3863 18.7803H17.2158C12.8962 18.7854 9.3958 22.2859 9.39062 26.6054V57.906C9.3958 62.2256 12.8962 65.726 17.2158 65.7312H46.9514C47.8157 65.7312 48.5164 65.0305 48.5164 64.1662C48.5164 63.3018 47.8157 62.6011 46.9514 62.6011H17.2158Z" fill="#1E1E1E"/>
<path d="M18.7809 43.8205H40.6913C41.5556 43.8205 42.2563 43.1198 42.2563 42.2555C42.2563 41.3911 41.5556 40.6904 40.6913 40.6904H18.7809C17.9165 40.6904 17.2158 41.3911 17.2158 42.2555C17.2158 43.1198 17.9165 43.8205 18.7809 43.8205Z" fill="#1E1E1E"/>
<path d="M18.7809 37.5607H40.6913C41.5556 37.5607 42.2563 36.86 42.2563 35.9957C42.2563 35.1314 41.5556 34.4307 40.6913 34.4307H18.7809C17.9165 34.4307 17.2158 35.1314 17.2158 35.9957C17.2158 36.86 17.9165 37.5607 18.7809 37.5607Z" fill="#1E1E1E"/>
<path d="M18.7809 31.3H40.6913C41.5556 31.3 42.2563 30.5993 42.2563 29.735C42.2563 28.8706 41.5556 28.1699 40.6913 28.1699H18.7809C17.9165 28.1699 17.2158 28.8706 17.2158 29.735C17.2158 30.5993 17.9165 31.3 18.7809 31.3Z" fill="#1E1E1E"/>
<path d="M17.3457 58.5318C17.5947 59.1024 18.1582 59.4711 18.7808 59.4708C18.9963 59.4718 19.2095 59.4276 19.4068 59.3409C20.8557 58.8026 22.1873 57.9902 23.3288 56.948C23.7525 56.5251 24.123 56.0521 24.4321 55.5395C25.0298 56.2113 25.7321 56.7821 26.512 57.2297C27.5998 57.9409 28.9535 58.1139 30.1852 57.6992C30.6573 57.5159 31.0843 57.233 31.4372 56.8698C32.1454 57.3123 32.9256 57.6274 33.7425 57.8009L34.9256 58.0811C37.3407 58.7885 39.8499 59.121 42.3658 59.0671C42.9235 59.0268 43.4174 58.6921 43.6614 58.1889C43.9054 57.6858 43.8625 57.0907 43.5488 56.6278C43.235 56.1649 42.6982 55.9046 42.1404 55.9448C39.9451 55.9735 37.7581 55.6674 35.655 55.0371L34.4452 54.7507C32.985 54.4142 32.6094 53.8258 32.4545 53.411C32.1817 52.6829 31.4158 52.2654 30.656 52.4307C29.8962 52.5961 29.3731 53.2943 29.4277 54.0699C29.4452 54.3505 29.3123 54.6193 29.0787 54.7757C28.713 54.8222 28.3435 54.727 28.0458 54.5097C26.7801 53.7217 25.8283 52.5176 25.3539 51.1042C25.0846 50.3764 24.3227 49.9558 23.5634 50.1159C22.8041 50.2759 22.2767 50.9682 22.324 51.7427C22.3504 52.8623 21.9118 53.9427 21.1127 54.7272C20.2437 55.4872 19.2406 56.0785 18.1548 56.4707C17.774 56.6366 17.4748 56.947 17.3231 57.3336C17.1713 57.7202 17.1794 58.1512 17.3457 58.5318Z" fill="#1E1E1E"/>
<path d="M67.2956 45.3852C74.2104 45.3852 79.8159 39.7797 79.8159 32.865C79.8159 25.9502 74.2104 20.3447 67.2956 20.3447C60.3809 20.3447 54.7754 25.9502 54.7754 32.865C54.7832 39.7765 60.3841 45.3775 67.2956 45.3852ZM67.2956 23.4748C72.4817 23.4748 76.6858 27.6789 76.6858 32.865C76.6858 38.051 72.4817 42.2552 67.2956 42.2552C62.1096 42.2552 57.9055 38.051 57.9055 32.865C57.9106 27.6811 62.1117 23.48 67.2956 23.4748Z" fill="#1E1E1E"/>
</g>
<defs>
<clipPath id="clip0_541_525">
<rect width="93.9019" height="93.9019" fill="white"/>
</clipPath>
</defs>
</svg>
