<svg width="111" height="111" viewBox="0 0 111 111" fill="none" xmlns="http://www.w3.org/2000/svg">
<g clip-path="url(#clip0_541_583)">
<path d="M57.9067 107.068C86.279 107.068 109.279 83.9546 109.279 55.4434C109.279 26.9322 86.279 3.81934 57.9067 3.81934C29.5345 3.81934 6.53418 26.9322 6.53418 55.4434C6.53418 83.9546 29.5345 107.068 57.9067 107.068Z" fill="#C9F0FF"/>
<path d="M57.9063 3.81934C56.8147 3.81934 55.7309 3.85379 54.6562 3.92117C81.5144 5.60622 102.779 28.0291 102.779 55.4432C102.779 82.8573 81.5144 105.281 54.6562 106.965C55.7309 107.033 56.8147 107.067 57.9063 107.067C86.2786 107.067 109.279 83.9543 109.279 55.4432C109.279 26.9321 86.2786 3.81934 57.9063 3.81934Z" fill="#B5EAFF"/>
<path d="M30.1166 10.8009C29.2367 10.6209 28.3785 11.1875 28.1984 12.0665C28.1161 12.4682 28.1899 12.8654 28.378 13.1958C29.4133 12.4639 30.4765 11.7695 31.5659 11.1143C31.0845 11.0057 30.6017 10.9004 30.1166 10.8009Z" fill="#3498AC"/>
<path d="M6.24442 48.7109C6.34366 49.0875 6.56726 49.3982 6.85934 49.6107C6.96615 48.6561 7.09919 47.7095 7.25714 46.7715C6.47756 47.056 6.02883 47.8925 6.24442 48.7109Z" fill="#3498AC"/>
<path d="M27.4278 97.8006C27.4282 97.9493 27.4486 98.1003 27.4922 98.2502C27.5056 98.2964 27.521 98.3414 27.5381 98.3854C27.5383 98.3869 27.5387 98.3887 27.539 98.3902C27.69 99.1663 28.3701 99.7052 29.1324 99.7052C29.2353 99.7052 29.3397 99.6954 29.4446 99.6748C29.8393 99.5981 30.1722 99.3843 30.4044 99.0924C30.4181 99.0883 30.4317 99.084 30.4454 99.0799C29.3562 98.3861 28.2943 97.6526 27.2627 96.8809C27.3158 97.1877 27.3706 97.494 27.4278 97.8006Z" fill="#3498AC"/>
<path d="M86.3697 99.6738C86.4745 99.6941 86.579 99.7041 86.6819 99.7041C87.4439 99.7041 88.1243 99.1652 88.2753 98.3891C88.3732 97.886 88.4655 97.3825 88.5531 96.8789C87.5273 97.6461 86.4721 98.3755 85.3896 99.0658C85.6226 99.3704 85.9636 99.5947 86.3697 99.6738Z" fill="#3498AC"/>
<path d="M87.6155 12.0665C87.4353 11.1873 86.5766 10.6209 85.6974 10.801C85.2124 10.9004 84.7295 11.0057 84.248 11.1143C85.3375 11.7695 86.4007 12.4639 87.4359 13.1958C87.624 12.8654 87.6979 12.4682 87.6155 12.0665Z" fill="#3498AC"/>
<path d="M100.149 24.5948C100.351 23.7203 99.8063 22.8475 98.932 22.6454C98.5063 22.5472 98.0812 22.6263 97.7334 22.8337C98.4842 23.7584 99.2037 24.7094 99.8901 25.6857C99.9783 25.323 100.065 24.9592 100.149 24.5948Z" fill="#3498AC"/>
<path d="M57.9071 29.2671C60.6356 29.2671 62.8474 27.0443 62.8474 24.3025C62.8474 21.5606 60.6356 19.3379 57.9071 19.3379C55.1787 19.3379 52.9668 21.5606 52.9668 24.3025C52.9668 27.0443 55.1787 29.2671 57.9071 29.2671Z" fill="#FF815C"/>
<path d="M38.6815 51.0796C41.41 51.0796 43.6219 48.8568 43.6219 46.115C43.6219 43.3731 41.41 41.1504 38.6815 41.1504C35.9531 41.1504 33.7412 43.3731 33.7412 46.115C33.7412 48.8568 35.9531 51.0796 38.6815 51.0796Z" fill="#FF815C"/>
<path d="M83.6132 63.7514C86.3416 63.7514 88.5535 61.5287 88.5535 58.7869C88.5535 56.045 86.3416 53.8223 83.6132 53.8223C80.8847 53.8223 78.6729 56.045 78.6729 58.7869C78.6729 61.5287 80.8847 63.7514 83.6132 63.7514Z" fill="#FF815C"/>
<path d="M29.0526 102.76C26.3284 102.76 24.1123 100.533 24.1123 97.7956C24.1123 95.058 26.3284 92.8311 29.0526 92.8311C31.7768 92.8311 33.9932 95.058 33.9932 97.7956C33.9932 100.533 31.7768 102.76 29.0526 102.76Z" fill="#FF815C"/>
<path d="M87.0477 103.042C84.3235 103.042 82.1074 100.815 82.1074 98.0779C82.1074 95.3404 84.3235 93.1133 87.0477 93.1133C89.7719 93.1133 91.9883 95.3402 91.9883 98.0779C91.9883 100.815 89.7719 103.042 87.0477 103.042Z" fill="#FF815C"/>
<path d="M98.5665 29.0141C95.8423 29.0141 93.626 26.7872 93.626 24.0496C93.626 21.3119 95.8423 19.085 98.5665 19.085C101.291 19.085 103.507 21.3121 103.507 24.0496C103.507 26.787 101.291 29.0141 98.5665 29.0141Z" fill="#FF815C"/>
<path d="M86.0243 17.3569C83.3001 17.3569 81.084 15.13 81.084 12.3923C81.084 9.65468 83.3001 7.42773 86.0243 7.42773C88.7485 7.42773 90.9648 9.65468 90.9648 12.3923C90.9648 15.13 88.7483 17.3569 86.0243 17.3569Z" fill="#FF815C"/>
<path d="M29.0526 17.3569C26.3284 17.3569 24.1123 15.13 24.1123 12.3923C24.1123 9.65468 26.3284 7.42773 29.0526 7.42773C31.7768 7.42773 33.9932 9.65468 33.9932 12.3923C33.9932 15.13 31.7768 17.3569 29.0526 17.3569Z" fill="#FF815C"/>
<path d="M6.53505 53.6372C9.26351 53.6372 11.4754 51.4145 11.4754 48.6726C11.4754 45.9307 9.26351 43.708 6.53505 43.708C3.80658 43.708 1.59473 45.9307 1.59473 48.6726C1.59473 51.4145 3.80658 53.6372 6.53505 53.6372Z" fill="#FF815C"/>
<path d="M106.591 76.5103C106.623 76.4442 106.652 76.3766 106.675 76.3072C113.245 61.1444 112.071 42.5553 103.538 28.3473C108.094 22.9017 102.176 15.1033 95.7058 18.1206C94.5687 16.9586 93.3748 15.8449 92.1376 14.7919C94.5661 8.19035 86.4613 2.77487 81.4137 7.70718C66.7427 0.29897 48.4953 0.392789 33.9053 7.95787C28.7151 2.45767 19.9987 8.35502 23.141 15.256C21.3414 16.8297 19.6379 18.5297 18.0673 20.3274C16.7111 21.8796 19.1679 24.0071 20.5148 22.4657C21.976 20.7935 23.5592 19.2116 25.2315 17.7456C28.4653 20.078 33.1543 18.8898 34.9284 15.3295C40.7831 17.0147 46.3741 19.4334 51.5839 22.5377C51.1478 24.1105 51.3259 25.867 52.0742 27.319C47.7863 31.023 43.9248 35.2129 40.5716 39.8049C37.476 38.8695 34.0639 40.4352 32.7177 43.3667C25.891 43.4033 19.0431 44.1376 12.3198 45.5588C11.7262 44.4525 10.8261 43.5357 9.73495 42.9217C10.9981 37.9957 12.9989 33.3097 15.6938 28.9769C16.7677 27.2501 14.0571 25.4549 12.9341 27.2602C10.0688 31.8667 7.94069 36.8482 6.59473 42.0847C-1.19027 42.2168 -2.49723 52.9867 4.91401 55.0585C4.80481 70.3863 11.4319 85.2885 22.9237 95.44C20.5265 101.916 28.3091 107.257 33.4451 102.69C48.4339 110.66 67.3773 110.661 82.3671 102.692C87.5908 107.858 95.9573 102.087 93.0149 95.3329C98.9376 90.0693 103.539 83.6314 106.591 76.5103ZM104.543 72.8758C100.045 68.4068 95.1223 64.3526 89.8665 60.7938C90.6129 58.4557 89.9642 55.8251 88.2211 54.0991C92.6407 46.7507 96.1103 38.8712 98.5526 30.6401C99.3664 30.6429 100.149 30.4928 100.87 30.2211C108.353 42.8601 109.722 59.156 104.543 72.8758ZM29.7645 91.2461C28.3968 77.8504 30.7967 64.4863 36.7363 52.4093C40.4262 53.5607 44.4145 51.1342 45.131 47.3465C56.3362 48.7278 67.1279 52.0175 77.2556 57.1407C76.7685 59.034 77.1717 61.1216 78.332 62.6966C66.9162 77.1592 51.8474 88.0419 34.6012 94.2793C33.5562 92.6245 31.7988 91.4669 29.7645 91.2461ZM80.2981 58.7874C80.2981 56.9459 81.7853 55.4479 83.6133 55.4479C88.0113 55.631 88.01 61.9445 83.6133 62.127C81.7853 62.127 80.2981 60.6289 80.2981 58.7874ZM101.882 24.0507C101.882 25.8922 100.395 27.3902 98.5669 27.3902C94.1687 27.2072 94.1698 20.8936 98.5669 20.7111C100.395 20.7111 101.882 22.2092 101.882 24.0507ZM93.2225 20.2303C90.9765 23.3862 92.0189 27.9482 95.405 29.8239C93.0392 37.7636 89.6851 45.364 85.4182 52.4533C84.5262 52.1967 83.536 52.133 82.6188 52.2734C78.1589 42.7496 71.6693 34.1714 63.7418 27.3194C64.4908 25.8666 64.6693 24.1131 64.2325 22.5381C69.2504 19.5485 74.6254 17.1924 80.2461 15.5175C82.1142 19.1242 87.1256 20.1426 90.2368 17.4427C91.2679 18.3297 92.2661 19.2616 93.2225 20.2303ZM54.5928 24.3022C54.5928 22.4608 56.0801 20.9627 57.9081 20.9627C62.3063 21.1458 62.305 27.4591 57.9081 27.6416C56.0801 27.6416 54.5928 26.1435 54.5928 24.3022ZM86.0249 9.05314C87.8532 9.05314 89.3404 10.5512 89.3404 12.3927C89.158 16.823 82.8914 16.8219 82.7096 12.3927C82.7096 10.5512 84.1968 9.05314 86.0249 9.05314ZM29.0534 15.732C27.2253 15.732 25.7381 14.234 25.7381 12.3925C25.9205 7.96198 32.1871 7.9635 32.3689 12.3925C32.3689 14.234 30.8814 15.732 29.0534 15.732ZM35.6126 12.1433C35.5957 11.6922 35.5338 11.253 35.4306 10.8292C49.0339 3.79453 66.0281 3.67189 79.7362 10.502C79.5601 11.0911 79.4637 11.7141 79.4604 12.3591C73.5483 14.1081 67.8951 16.5786 62.6175 19.7175C60.0807 17.0934 55.7366 17.0925 53.199 19.7173C47.6992 16.446 41.7956 13.9031 35.6126 12.1433ZM54.2258 29.7548C56.4233 31.2546 59.3923 31.2548 61.59 29.755C69.1588 36.29 75.359 44.4704 79.6298 53.5544C79.3404 53.7769 79.07 54.0233 78.8212 54.29C68.1439 48.8743 56.7496 45.4309 44.9141 44.0455C44.5945 43.0783 44.0581 42.2099 43.3617 41.499C46.5381 37.184 50.1833 33.243 54.2258 29.7548ZM38.6822 42.7756C40.5103 42.7756 41.9975 44.2737 41.9975 46.1152C41.8151 50.5457 35.5485 50.5444 35.3667 46.1152C35.3669 44.2737 36.8542 42.7756 38.6822 42.7756ZM3.22008 48.673C3.22008 46.8315 4.70731 45.3334 6.53536 45.3334C10.9334 45.5165 10.9321 51.8299 6.53536 52.0123C4.70752 52.0126 3.22008 50.5145 3.22008 48.673ZM8.16386 55.0572C8.16386 55.0572 13.0999 53.9808 13.0999 48.7159C13.0999 48.7159 25.7656 46.6913 32.1381 46.6203C32.2577 48.1946 32.93 49.6153 33.9612 50.6874C27.6283 63.4279 25.074 77.5531 26.5443 91.7078C25.9112 91.9717 25.3283 92.3325 24.8131 92.771C14.2112 83.2734 8.16386 67.3602 8.16386 55.0572ZM29.0534 101.136C27.2253 101.136 25.7381 99.6375 25.7381 97.7961C25.7381 95.9546 27.2253 94.4565 29.0534 94.4565C30.8569 94.4565 32.3689 96.0187 32.3689 97.7961C32.3689 99.6375 30.8814 101.136 29.0534 101.136ZM57.9081 105.442C50.0211 105.442 42.2218 103.553 35.251 99.9673C35.534 99.1563 35.6588 98.2324 35.6038 97.3718C53.444 90.9412 69.0338 79.7031 80.8436 64.76C81.8139 65.215 82.8905 65.4239 83.9602 65.3677C84.6822 68.0473 85.2527 70.7811 85.657 73.5146C85.9666 75.6072 89.1827 75.1396 88.8722 73.0392C88.4429 70.1367 87.8352 67.2337 87.0636 64.3905C87.4521 64.1487 87.8131 63.8669 88.142 63.5516C93.5648 67.2331 98.6206 71.4592 103.201 76.1365C100.36 82.4159 96.226 88.1015 90.9732 92.7996C90.4539 92.4096 89.8747 92.0959 89.2531 91.8727C89.5724 88.8516 89.7116 85.8013 89.6647 82.7844C89.6318 80.6615 86.382 80.7113 86.4151 82.8347C86.4602 85.7346 86.3259 88.6668 86.0173 91.5709C82.1846 92.1804 79.6779 96.1546 80.734 99.8791C73.7195 103.522 65.8597 105.442 57.9081 105.442ZM87.0482 101.418C85.2202 101.418 83.7329 99.9201 83.7329 98.0786C83.9154 93.6481 90.1819 93.6496 90.3637 98.0786C90.3637 99.9201 88.8765 101.418 87.0482 101.418Z" fill="black"/>
</g>
<defs>
<clipPath id="clip0_541_583">
<rect width="110.885" height="110.885" fill="white"/>
</clipPath>
</defs>
</svg>
