<svg width="92" height="92" viewBox="0 0 92 92" fill="none" xmlns="http://www.w3.org/2000/svg">
<g clip-path="url(#clip0_541_457)">
<path d="M41.375 50.5703H26.0508V73.7712H41.375V50.5703Z" fill="#E3CD6A"/>
<path d="M52.1025 81.218H13.792V75.0883C13.7944 74.2762 14.1181 73.498 14.6923 72.9238C15.2666 72.3495 16.0447 72.0259 16.8568 72.0234H49.0377L52.1025 81.218Z" fill="#C7B459"/>
<path d="M58.2318 81.2188V88.8809C58.2318 89.2873 58.0704 89.6771 57.783 89.9644C57.4956 90.2518 57.1058 90.4133 56.6994 90.4133H10.7268C10.3203 90.4133 9.93056 90.2518 9.64317 89.9644C9.35579 89.6771 9.19434 89.2873 9.19434 88.8809V84.2836C9.19676 83.4715 9.52044 82.6933 10.0947 82.1191C10.6689 81.5449 11.4471 81.2212 12.2592 81.2188H58.2318Z" fill="#E3CD6A"/>
<path d="M56.6839 31.5068C56.6992 31.231 56.6992 30.9398 56.6992 30.6486V6.12988H10.7266V30.6486C10.7267 36.2009 12.7365 41.5655 16.3846 45.7511C20.0326 49.9367 25.0724 52.6604 30.5726 53.4189C36.0728 54.1774 41.6617 52.9195 46.3065 49.8776C50.9513 46.8356 54.3381 42.2153 55.8411 36.8703L56.6839 31.5068Z" fill="#FDE67E"/>
<path d="M56.6996 1.53223H10.727C9.03429 1.53223 7.66211 2.9044 7.66211 4.59707C7.66211 6.28974 9.03429 7.66191 10.727 7.66191H56.6996C58.3923 7.66191 59.7645 6.28974 59.7645 4.59707C59.7645 2.9044 58.3923 1.53223 56.6996 1.53223Z" fill="#E3CD6A"/>
<path d="M35.9855 18.3249L37.9271 22.4103L42.2669 23.0647C42.7429 23.1529 43.1858 23.3691 43.5479 23.6903C43.9101 24.0114 44.1779 24.4252 44.3224 24.8872C44.467 25.3491 44.4828 25.8418 44.3682 26.3121C44.2536 26.7824 44.013 27.2125 43.6721 27.5562L40.5307 30.736L41.2724 35.2275C41.3672 35.6995 41.3268 36.1887 41.1559 36.6388C40.9849 37.0888 40.6903 37.4815 40.306 37.7715C39.9217 38.0615 39.4633 38.237 38.9836 38.2779C38.5039 38.3188 38.0224 38.2235 37.5946 38.0027L33.7129 35.8819L29.8313 38.0043C29.4034 38.225 28.9219 38.3204 28.4422 38.2795C27.9625 38.2385 27.5042 38.063 27.1199 37.773C26.7355 37.483 26.441 37.0904 26.27 36.6403C26.099 36.1903 26.0586 35.7011 26.1535 35.2291L26.8952 30.7375L23.7522 27.5562C23.4114 27.2125 23.1707 26.7824 23.0561 26.3121C22.9415 25.8418 22.9574 25.3491 23.1019 24.8872C23.2464 24.4252 23.5142 24.0114 23.8764 23.6903C24.2386 23.3691 24.6815 23.1529 25.1574 23.0647L29.4972 22.4103L31.4388 18.3249C31.636 17.8871 31.9554 17.5155 32.3587 17.2548C32.762 16.9941 33.232 16.8555 33.7122 16.8555C34.1924 16.8555 34.6623 16.9941 35.0656 17.2548C35.4689 17.5155 35.7883 17.8871 35.9855 18.3249Z" fill="#E3CD6A"/>
<path d="M76.6209 45.9729C84.2309 51.5202 90.4127 63.3812 90.4127 71.2578C90.4127 81.8315 80.8075 90.4131 68.9588 90.4131C57.1101 90.4131 47.5049 81.8315 47.5049 71.2578C47.5049 63.3812 53.6867 51.5202 61.2967 45.9729L68.9588 44.4404L76.6209 45.9729Z" fill="#FDE67E"/>
<path d="M82.1842 36.7011L76.6215 45.9723H61.2973L55.7346 36.7011C55.3709 36.0942 55.1748 35.4016 55.1663 34.694C55.1578 33.9865 55.3373 33.2894 55.6863 32.6739C56.0353 32.0584 56.5415 31.5466 57.153 31.1907C57.7646 30.8347 58.4596 30.6475 59.1672 30.648H61.2973C61.2973 30.648 62.8297 26.0508 68.9594 26.0508C75.0891 26.0508 76.6215 30.648 76.6215 30.648H78.7515C79.0935 30.6466 79.4339 30.693 79.7629 30.786C80.3643 30.9405 80.9212 31.2334 81.3893 31.6413C81.8573 32.0493 82.2236 32.561 82.4588 33.1356C82.694 33.7102 82.7917 34.3318 82.744 34.9509C82.6963 35.57 82.5046 36.1693 82.1842 36.7011Z" fill="#FDE67E"/>
<path d="M42.4957 21.5509L38.9619 21.0176L37.3713 17.6677C37.0492 16.9685 36.5335 16.3762 35.8852 15.961C35.2369 15.5458 34.4832 15.3252 33.7134 15.3252C32.9435 15.3252 32.1898 15.5458 31.5415 15.961C30.8933 16.3762 30.3775 16.9685 30.0555 17.6677L28.4648 21.0176L24.9311 21.5509C24.1842 21.6657 23.4841 21.9861 22.909 22.4763C22.3339 22.9664 21.9065 23.6069 21.6747 24.3261C21.4243 25.0656 21.3843 25.86 21.5591 26.6209C21.7339 27.3818 22.1167 28.0792 22.6646 28.6352L25.2559 31.2618L24.643 34.981C24.5078 35.7582 24.5954 36.5577 24.8956 37.2872C25.1958 38.0167 25.6964 38.6463 26.3394 39.1032C26.9489 39.5391 27.6692 39.7939 28.4173 39.8381C29.1654 39.8823 29.9107 39.7141 30.5673 39.353L33.7134 37.629L36.861 39.3484C37.5179 39.7085 38.2631 39.876 39.0109 39.8318C39.7587 39.7876 40.479 39.5335 41.0889 39.0986C41.7319 38.6417 42.2325 38.0121 42.5327 37.2826C42.8329 36.5531 42.9205 35.7536 42.7853 34.9764L42.1724 31.2572L44.7637 28.6352C45.3116 28.0792 45.6944 27.3818 45.8692 26.6209C46.044 25.86 46.004 25.0656 45.7536 24.3261C45.5217 23.6067 45.0941 22.966 44.5187 22.4759C43.9433 21.9858 43.2428 21.6655 42.4957 21.5509ZM42.5815 26.4791L39.4416 29.6589C39.271 29.8311 39.1438 30.0414 39.0702 30.2723C38.9967 30.5033 38.979 30.7484 39.0186 30.9875L39.7603 35.476C39.802 35.6859 39.7822 35.9034 39.7034 36.1023C39.6246 36.3013 39.49 36.4733 39.3159 36.5977C39.1754 36.7026 39.0072 36.7642 38.8322 36.7748C38.6571 36.7854 38.4828 36.7447 38.3306 36.6575L34.4474 34.5366C34.2223 34.4137 33.9699 34.3494 33.7134 34.3494C33.4569 34.3494 33.2045 34.4137 32.9794 34.5366L29.0962 36.6575C28.9443 36.7456 28.7698 36.787 28.5945 36.7764C28.4192 36.7657 28.251 36.7036 28.1108 36.5977C27.9367 36.4733 27.8022 36.3013 27.7234 36.1023C27.6446 35.9034 27.6248 35.6859 27.6664 35.476L28.4081 30.9875C28.4477 30.7484 28.43 30.5033 28.3565 30.2723C28.283 30.0414 28.1557 29.8311 27.9852 29.6589L24.8453 26.4791C24.6961 26.3254 24.5925 26.1332 24.5463 25.924C24.5 25.7148 24.5128 25.4969 24.5832 25.2946C24.6371 25.1124 24.7411 24.949 24.8834 24.823C25.0256 24.697 25.2004 24.6135 25.3877 24.582L29.7276 23.9261C29.9757 23.8886 30.2108 23.7908 30.4123 23.6411C30.6138 23.4915 30.7754 23.2947 30.883 23.068L32.8246 18.9825C32.8975 18.8069 33.0209 18.6567 33.1791 18.5511C33.3372 18.4455 33.5232 18.3892 33.7134 18.3892C33.9036 18.3892 34.0895 18.4455 34.2477 18.5511C34.4059 18.6567 34.5293 18.8069 34.6022 18.9825L36.5438 23.068C36.6514 23.2947 36.813 23.4915 37.0145 23.6411C37.2159 23.7908 37.4511 23.8886 37.6992 23.9261L42.039 24.582C42.2264 24.6135 42.4012 24.697 42.5434 24.823C42.6856 24.949 42.7896 25.1124 42.8436 25.2946C42.914 25.4969 42.9268 25.7148 42.8805 25.924C42.8342 26.1332 42.7307 26.3254 42.5815 26.4791Z" fill="#1E1E1E"/>
<path d="M78.627 45.6049L83.4894 37.483C83.9944 36.6462 84.268 35.6902 84.2822 34.7129C84.2964 33.7356 84.0507 32.7721 83.5703 31.9209C83.0898 31.0698 82.3918 30.3615 81.5478 29.8687C80.7037 29.3758 79.7439 29.1161 78.7665 29.116H77.5865C76.7143 27.6268 75.4461 26.4087 73.923 25.5971C72.3999 24.7855 70.6815 24.4122 68.959 24.5188C68.4464 24.5233 67.9346 24.5596 67.4266 24.6276V12.2594C67.4266 10.6337 66.7808 9.07457 65.6312 7.92503C64.4817 6.77549 62.9226 6.12969 61.2969 6.12969H61.0149C61.1964 5.63892 61.2918 5.1205 61.2969 4.59727C61.2969 3.378 60.8125 2.20866 59.9504 1.34651C59.0882 0.484353 57.9189 0 56.6996 0L10.727 0C9.50768 0 8.33835 0.484353 7.4762 1.34651C6.61404 2.20866 6.12969 3.378 6.12969 4.59727C6.13477 5.1205 6.23016 5.63892 6.41165 6.12969H6.12969C4.50399 6.12969 2.94488 6.77549 1.79534 7.92503C0.645805 9.07457 0 10.6337 0 12.2594L0 27.5836C0.00243414 30.0214 0.971923 32.3586 2.6957 34.0824C4.41949 35.8062 6.75674 36.7757 9.19453 36.7781H10.0021C10.7992 39.897 12.2045 42.8277 14.1374 45.402C16.0703 47.9762 18.4927 50.1432 21.2655 51.7786C24.0383 53.414 27.1069 54.4855 30.2949 54.9315C33.483 55.3776 36.7278 55.1895 39.843 54.378V70.4914H27.5836V58.232C27.5836 57.8256 27.4221 57.4358 27.1348 57.1484C26.8474 56.8611 26.4576 56.6996 26.0512 56.6996C25.6447 56.6996 25.255 56.8611 24.9676 57.1484C24.6802 57.4358 24.5187 57.8256 24.5187 58.232V70.4914H16.8566C15.6374 70.4914 14.468 70.9758 13.6059 71.8379C12.7437 72.7001 12.2594 73.8694 12.2594 75.0887V79.6859C11.0401 79.6859 9.87077 80.1703 9.00862 81.0324C8.14646 81.8946 7.66211 83.0639 7.66211 84.2832V88.8805C7.66211 89.6933 7.98501 90.4729 8.55978 91.0476C9.13455 91.6224 9.91411 91.9453 10.727 91.9453H56.6996C57.2974 91.9447 57.882 91.7693 58.3813 91.4406C58.8807 91.112 59.273 90.6445 59.5101 90.0957C62.51 91.3189 65.7192 91.9471 68.959 91.9453C81.6336 91.9453 91.9453 82.665 91.9453 71.2576C91.9453 62.9933 85.9505 51.5951 78.627 45.6049ZM75.0059 30.791L73.6022 36.4073C73.504 36.8015 73.5663 37.2186 73.7755 37.5669C73.9847 37.9152 74.3237 38.1661 74.7178 38.2646C74.8391 38.2947 74.9637 38.3102 75.0887 38.3105C75.4302 38.3101 75.7619 38.1956 76.0309 37.9851C76.2999 37.7747 76.4909 37.4804 76.5736 37.149L77.8164 32.1809H78.7665C79.2017 32.1822 79.6287 32.2988 80.0042 32.5188C80.3797 32.7389 80.6901 33.0545 80.9039 33.4335C81.1177 33.8126 81.2273 34.2415 81.2214 34.6767C81.2155 35.1118 81.0945 35.5376 80.8705 35.9108L75.7537 44.4402H62.1642L57.0551 35.9108C56.8315 35.5382 56.7104 35.1131 56.7042 34.6786C56.698 34.2441 56.8069 33.8157 57.0198 33.4369C57.2327 33.058 57.5421 32.7423 57.9165 32.5217C58.2909 32.3011 58.7169 32.1835 59.1515 32.1809H60.0939L61.3352 37.149C61.4182 37.4819 61.6106 37.7774 61.8815 37.988C62.1524 38.1986 62.4862 38.3122 62.8293 38.3105C62.9548 38.3103 63.0799 38.2948 63.2017 38.2646C63.5958 38.1661 63.9348 37.9152 64.144 37.5669C64.3532 37.2186 64.4155 36.8015 64.3173 36.4073L62.912 30.7894C63.5063 29.7313 64.3923 28.8665 65.4645 28.2981C66.5367 27.7297 67.7497 27.4816 68.959 27.5836C70.1691 27.4764 71.3843 27.7223 72.4576 28.2915C73.5308 28.8608 74.416 29.729 75.0059 30.791ZM64.3617 12.2594V25.4612C62.6714 26.2278 61.2647 27.5063 60.3406 29.116H59.1515C58.8432 29.1196 58.5358 29.1478 58.232 29.2003V9.19453H61.2969C62.1097 9.19453 62.8893 9.51743 63.464 10.0922C64.0388 10.667 64.3617 11.4465 64.3617 12.2594ZM9.19453 4.59727C9.19453 4.19084 9.35598 3.80106 9.64337 3.51368C9.93075 3.22629 10.3205 3.06484 10.727 3.06484H56.6996C57.106 3.06484 57.4958 3.22629 57.7832 3.51368C58.0706 3.80106 58.232 4.19084 58.232 4.59727C58.232 5.00369 58.0706 5.39347 57.7832 5.68085C57.4958 5.96824 57.106 6.12969 56.6996 6.12969H10.727C10.3205 6.12969 9.93075 5.96824 9.64337 5.68085C9.35598 5.39347 9.19453 5.00369 9.19453 4.59727ZM9.19453 33.7133C7.56884 33.7133 6.00973 33.0675 4.86019 31.9179C3.71065 30.7684 3.06484 29.2093 3.06484 27.5836V12.2594C3.06484 11.4465 3.38775 10.667 3.96252 10.0922C4.53729 9.51743 5.31684 9.19453 6.12969 9.19453H9.19453V30.6484C9.20099 31.6735 9.27213 32.6972 9.40754 33.7133H9.19453ZM12.2594 30.6484V9.19453H55.1672V30.6484C55.1672 30.7113 55.1672 30.7695 55.1672 30.8323C54.8566 31.1594 54.5865 31.5226 54.3627 31.9142C53.9202 32.6854 53.6729 33.5531 53.6425 34.4417C53.612 35.3303 53.7993 36.2129 54.188 37.0126C52.6688 41.9154 49.4415 46.1107 45.0923 48.8364C40.7432 51.5622 35.5606 52.6376 30.4859 51.8673C25.4113 51.0971 20.7813 48.5322 17.4368 44.6387C14.0923 40.7452 12.2553 35.7812 12.2594 30.6484ZM42.9078 53.3482C48.8484 50.9303 53.6112 46.29 56.1832 40.4146L59.2909 45.6033C52.1882 51.4128 46.3542 62.2991 46.0079 70.4914H42.9078V53.3482ZM15.3242 75.0887C15.3242 74.6823 15.4857 74.2925 15.7731 74.0051C16.0604 73.7177 16.4502 73.5563 16.8566 73.5563H46.1259C46.395 75.6905 47.0257 77.7634 47.9909 79.6859H15.3242V75.0887ZM56.6996 88.8805H10.727V84.2832C10.727 83.8768 10.8884 83.487 11.1758 83.1996C11.4632 82.9122 11.853 82.7508 12.2594 82.7508H49.8589C51.7038 85.1923 54.0326 87.2268 56.6996 88.7272V88.8805ZM68.959 88.8805C57.9746 88.8805 49.0375 80.9747 49.0375 71.2576C49.0375 63.7028 54.9588 52.7429 61.8056 47.5051H76.1108C82.9592 52.7429 88.8805 63.7043 88.8805 71.2576C88.8805 80.9747 79.9434 88.8805 68.959 88.8805Z" fill="#1E1E1E"/>
<path d="M73.5561 61.2971C73.5561 61.7035 73.7176 62.0933 74.005 62.3807C74.2923 62.668 74.6821 62.8295 75.0885 62.8295C75.495 62.8295 75.8847 62.668 76.1721 62.3807C76.4595 62.0933 76.621 61.7035 76.621 61.2971C76.6187 59.5314 76.0079 57.8205 74.8913 56.4527C73.7747 55.0849 72.2207 54.1439 70.4913 53.7882V53.635C70.4913 53.2285 70.3298 52.8388 70.0424 52.5514C69.7551 52.264 69.3653 52.1025 68.9589 52.1025C68.5524 52.1025 68.1627 52.264 67.8753 52.5514C67.5879 52.8388 67.4264 53.2285 67.4264 53.635V53.7882C65.6944 54.1399 64.1371 55.0796 63.0186 56.4481C61.9001 57.8166 61.2891 59.5296 61.2891 61.2971C61.2891 63.0645 61.9001 64.7776 63.0186 66.146C64.1371 67.5145 65.6944 68.4542 67.4264 68.8059V77.8733C66.5329 77.5574 65.7589 76.9731 65.2102 76.2003C64.6616 75.4276 64.3652 74.5041 64.3616 73.5564C64.3616 73.15 64.2001 72.7602 63.9128 72.4729C63.6254 72.1855 63.2356 72.024 62.8292 72.024C62.4227 72.024 62.033 72.1855 61.7456 72.4729C61.4582 72.7602 61.2967 73.15 61.2967 73.5564C61.299 75.3221 61.9099 77.033 63.0264 78.4008C64.143 79.7686 65.697 80.7096 67.4264 81.0653V81.2186C67.4264 81.625 67.5879 82.0148 67.8753 82.3021C68.1627 82.5895 68.5524 82.751 68.9589 82.751C69.3653 82.751 69.7551 82.5895 70.0424 82.3021C70.3298 82.0148 70.4913 81.625 70.4913 81.2186V81.0653C72.2234 80.7136 73.7806 79.7739 74.8991 78.4054C76.0176 77.0369 76.6286 75.3239 76.6286 73.5564C76.6286 71.789 76.0176 70.0759 74.8991 68.7075C73.7806 67.339 72.2234 66.3993 70.4913 66.0476V56.9818C71.3845 57.2976 72.1584 57.8817 72.707 58.6541C73.2556 59.4265 73.5522 60.3496 73.5561 61.2971ZM64.3616 61.2971C64.3655 60.3496 64.6621 59.4265 65.2107 58.6541C65.7593 57.8817 66.5332 57.2976 67.4264 56.9818V65.6124C66.5332 65.2966 65.7593 64.7125 65.2107 63.94C64.6621 63.1676 64.3655 62.2445 64.3616 61.2971ZM73.5561 73.5564C73.5522 74.5039 73.2556 75.427 72.707 76.1994C72.1584 76.9719 71.3845 77.5559 70.4913 77.8717V69.2411C71.3845 69.5569 72.1584 70.141 72.707 70.9135C73.2556 71.6859 73.5522 72.609 73.5561 73.5564Z" fill="#1E1E1E"/>
</g>
<defs>
<clipPath id="clip0_541_457">
<rect width="91.9453" height="91.9453" fill="white"/>
</clipPath>
</defs>
</svg>
