<svg width="100" height="100" viewBox="0 0 100 100" fill="none" xmlns="http://www.w3.org/2000/svg">
<path d="M49.9063 85.0655C53.391 85.0655 56.2159 82.2406 56.2159 78.7559C56.2159 75.2712 53.391 72.4463 49.9063 72.4463C46.4216 72.4463 43.5967 75.2712 43.5967 78.7559C43.5967 82.2406 46.4216 85.0655 49.9063 85.0655Z" fill="#D8ECFE"/>
<path d="M83.0802 50.7872H81.4923C84.1503 48.8509 85.5515 45.1567 85.5515 41.6153C85.5515 37.0258 81.8176 33.2919 77.2281 33.2919C72.6387 33.2919 68.8992 37.0258 68.8992 41.6153C68.8992 45.1567 70.3014 48.8509 72.9611 50.7872H71.3706C70.6936 50.7872 70.0251 50.8533 69.3725 50.9845C66.956 47.7609 62.9603 45.648 58.4451 45.648H55.2635C56.5755 44.794 57.7338 43.6097 58.682 42.1192C60.369 39.4676 61.3365 35.9827 61.3365 32.5578C61.3365 26.2558 56.2094 21.1289 49.9076 21.1289C43.6057 21.1289 38.4786 26.256 38.4786 32.5578C38.4786 35.8498 39.4379 39.3713 41.0446 41.9781C42.0113 43.5464 43.1773 44.7731 44.507 45.6478H41.3645C36.8509 45.6478 32.8566 47.7609 30.4413 50.9849C29.7859 50.8535 29.1161 50.787 28.439 50.787H26.8511C29.5091 48.8507 30.9103 45.1566 30.9103 41.6151C30.9103 37.0256 27.1764 33.2918 22.587 33.2918C17.9975 33.2918 14.2636 37.0256 14.2636 41.6151C14.2636 45.1566 15.6648 48.8507 18.3229 50.787H16.7294C11.4146 50.787 7.09082 54.8505 7.09082 59.8455V70.0907C7.09082 70.9519 7.78909 71.6502 8.65034 71.6502C9.51158 71.6502 10.2099 70.9519 10.2099 70.0907V59.8455C10.2099 56.5705 13.1345 53.906 16.7294 53.906H28.439C28.5636 53.906 28.6868 53.9142 28.8106 53.9205C28.3022 55.2418 28.0234 56.6652 28.0234 58.1487V70.0905C28.0234 70.9517 28.7217 71.65 29.583 71.65C30.4442 71.65 31.1425 70.9517 31.1425 70.0905V58.1487C31.1425 56.5383 31.5871 55.0217 32.3692 53.6961C32.4145 53.6347 32.4548 53.569 32.4911 53.5002C34.2547 50.6755 37.5702 48.7668 41.3645 48.7668H58.4455C62.2449 48.7668 65.5645 50.6784 67.3279 53.5068C67.3628 53.5723 67.4012 53.6351 67.4443 53.6937C68.2276 55.0199 68.673 56.5373 68.673 58.1487V70.0905C68.673 70.9517 69.3713 71.65 70.2326 71.65C71.0938 71.65 71.7921 70.9517 71.7921 70.0905V58.1487C71.7921 56.665 71.5133 55.2416 71.0045 53.9203C71.1263 53.914 71.248 53.906 71.3708 53.906H83.0804C86.6753 53.906 89.6 56.5705 89.6 59.8455V70.0907C89.6 70.9519 90.2983 71.6502 91.1595 71.6502C92.0208 71.6502 92.719 70.9519 92.719 70.0907V59.8455C92.719 54.8505 88.3953 50.787 83.0804 50.787L83.0802 50.7872ZM77.2281 36.4108C80.0979 36.4108 82.4324 38.7456 82.4324 41.6151C82.4324 44.6984 80.8178 49.0409 77.2281 49.0409C73.6385 49.0409 72.0182 44.6986 72.0182 41.6151C72.0182 38.7454 74.3553 36.4108 77.2281 36.4108ZM41.5975 32.5578C41.5975 27.9757 45.3253 24.2479 49.9074 24.2479C54.4894 24.2479 58.2172 27.9757 58.2172 32.5578C58.2172 37.0248 55.9612 44.1117 49.9074 44.1117C47.3301 44.1117 45.2415 42.8432 43.6995 40.3415C42.3833 38.206 41.5973 35.2963 41.5973 32.5578H41.5975ZM22.5868 36.4108C25.4565 36.4108 27.7911 38.7456 27.7911 41.6151C27.7911 44.6984 26.1764 49.0409 22.5868 49.0409C18.9971 49.0409 17.3825 44.6986 17.3825 41.6151C17.3825 38.7454 19.7173 36.4108 22.5868 36.4108ZM17.1811 21.3349L16.5783 25.4932C16.4953 26.0659 16.7364 26.6375 17.2041 26.9779C17.6719 27.3184 18.2899 27.3718 18.8094 27.1165L22.5864 25.2606L26.3579 27.1161C26.576 27.2235 26.8115 27.2763 27.046 27.2763C27.3696 27.2763 27.6915 27.1757 27.9628 26.9786C28.4309 26.6387 28.6722 26.0675 28.5899 25.4949L27.9917 21.3351L30.9228 18.3151C31.3255 17.9001 31.4657 17.2962 31.2865 16.7463C31.1074 16.1963 30.6387 15.7905 30.0687 15.6922L25.9243 14.9774L23.9667 11.2585C23.6971 10.7464 23.1663 10.4257 22.5875 10.4255H22.5868C22.0084 10.4255 21.4774 10.7458 21.2074 11.2573L19.2445 14.9774L15.0989 15.6922C14.5287 15.7907 14.0599 16.1965 13.881 16.7468C13.702 17.2972 13.8426 17.9013 14.2459 18.3161L17.1809 21.3353L17.1811 21.3349ZM20.5311 17.9202C21.0079 17.8379 21.4197 17.5389 21.6454 17.1112L22.5854 15.3296L23.5225 17.1096C23.748 17.5383 24.1601 17.8377 24.6373 17.9202L26.6267 18.2633L25.2202 19.7125C24.8837 20.0593 24.7268 20.5423 24.7956 21.0205L25.082 23.0124L23.2753 22.1237C22.8416 21.9102 22.3331 21.91 21.8992 22.1233L20.0896 23.0124L20.3781 21.0223C20.4475 20.5431 20.2904 20.0587 19.9529 19.7115L18.5445 18.2627L20.5311 17.9202ZM44.5019 13.4391L43.8993 17.5966C43.8163 18.1693 44.0574 18.7409 44.5253 19.0812C44.7968 19.2789 45.1189 19.3797 45.4431 19.3797C45.6774 19.3797 45.9127 19.3269 46.1306 19.2198L49.9076 17.364L53.6791 19.2195C54.1982 19.475 54.8159 19.422 55.284 19.0818C55.752 18.7417 55.9934 18.1707 55.9111 17.5981L55.313 13.4391L58.2434 10.4248C58.6467 10.0099 58.7873 9.4058 58.6083 8.85549C58.4293 8.30517 57.9605 7.89931 57.3903 7.80086L53.2457 7.08602L51.2881 3.36716C51.0185 2.85505 50.4877 2.53437 49.9089 2.53418H49.9081C49.3298 2.53418 48.7987 2.85447 48.5287 3.36599L46.5659 7.08602L42.4205 7.80086C41.8501 7.89931 41.3811 8.30556 41.2023 8.85607C41.0236 9.40658 41.1645 10.0109 41.5682 10.4255L44.5023 13.4391H44.5019ZM47.8519 10.029C48.3287 9.94676 48.7405 9.64772 48.9662 9.22002L49.9062 7.43847L50.8433 9.21866C51.0688 9.64733 51.4809 9.94676 51.9581 10.029L53.9446 10.3715L52.5416 11.8149C52.2045 12.1617 52.0474 12.6451 52.1162 13.1239L52.4026 15.1156L50.5959 14.2269C50.3789 14.12 50.1432 14.0666 49.9076 14.0666C49.6719 14.0666 49.4366 14.1198 49.2198 14.2265L47.4104 15.1156L47.6989 13.1256C47.7683 12.6461 47.611 12.1613 47.2728 11.8139L45.8678 10.3711L47.8515 10.029H47.8519ZM71.8227 20.7556L71.2199 24.9185C71.1371 25.4912 71.378 26.0628 71.8459 26.4032C72.1176 26.6008 72.4395 26.7016 72.7636 26.7016C72.998 26.7016 73.2333 26.6488 73.4512 26.5418L77.2281 24.6859L80.9996 26.5414C81.519 26.7969 82.1367 26.7437 82.6044 26.4039C83.0724 26.064 83.314 25.4928 83.2315 24.9203L82.6332 20.7556L85.5636 17.7412C85.9669 17.3264 86.1075 16.7223 85.9285 16.172C85.7495 15.6216 85.2807 15.2158 84.7105 15.1173L80.5661 14.4025L78.6085 10.6836C78.3389 10.1715 77.8081 9.85085 77.2293 9.85065H77.2285C76.6502 9.85065 76.1191 10.1709 75.8491 10.6825L73.8863 14.4025L69.7407 15.1175C69.1703 15.216 68.7013 15.6222 68.5225 16.1727C68.3438 16.7232 68.4847 17.3276 68.8884 17.7424L71.8227 20.7556ZM75.1727 17.3455C75.6495 17.2632 76.0612 16.9642 76.287 16.5365L77.227 14.7549L78.1641 16.5349C78.3896 16.9636 78.8017 17.263 79.2789 17.3455L81.2654 17.6882L79.8624 19.1313C79.5253 19.4779 79.3682 19.9614 79.437 20.4402L79.724 22.4379L77.9169 21.549C77.4831 21.3355 76.9747 21.3355 76.5408 21.5486L74.7308 22.4379L75.0197 20.4419C75.0891 19.9624 74.9316 19.4777 74.5935 19.1304L73.1886 17.6876L75.1725 17.3455H75.1727ZM49.9077 69.3271C44.7089 69.3271 40.4791 73.5567 40.4791 78.7558C40.4791 83.9548 44.7087 88.1844 49.9077 88.1844C55.1068 88.1844 59.3364 83.9548 59.3364 78.7558C59.3364 73.5567 55.1068 69.3271 49.9077 69.3271ZM49.9077 85.0654C46.4287 85.0654 43.5981 82.2349 43.5981 78.7558C43.5981 75.2767 46.4287 72.4462 49.9077 72.4462C53.3868 72.4462 56.2174 75.2767 56.2174 78.7558C56.2174 82.2349 53.3868 85.0654 49.9077 85.0654ZM67.5202 75.1566L64.6711 73.8431L63.822 71.7876L64.9048 68.8444C65.1148 68.2739 64.9739 67.6333 64.544 67.2032L62.4478 65.1071V60.1496C62.4478 59.2883 61.7496 58.59 60.8883 58.59C60.0271 58.59 59.3288 59.2883 59.3288 60.1496V63.9392L56.8768 64.8414L54.815 63.9873L53.5013 61.1424C53.2463 60.5901 52.6934 60.2367 52.0854 60.2367H47.7254C47.1172 60.2367 46.5645 60.5901 46.3096 61.1424L44.9957 63.9877L42.9389 64.841L40.4818 63.937V60.1494C40.4818 59.2881 39.7836 58.5898 38.9223 58.5898C38.0611 58.5898 37.3628 59.2881 37.3628 60.1494V65.1123L35.2721 67.2031C34.842 67.6331 34.7013 68.2737 34.9112 68.8443L35.9935 71.7863L35.1403 73.8429L32.295 75.1568C31.7427 75.4118 31.3893 75.9646 31.3893 76.5726V80.9383C31.3893 81.5465 31.7427 82.0992 32.295 82.3541L35.1403 83.668L35.9935 85.7247L34.9112 88.6667C34.7013 89.2373 34.8422 89.8778 35.2721 90.3079L38.3556 93.3914C38.7855 93.8215 39.426 93.9624 39.9968 93.7523L42.9389 92.67L44.9957 93.5232L46.3096 96.3686C46.5645 96.9208 47.1174 97.2742 47.7254 97.2742H52.0854C52.6936 97.2742 53.2463 96.9208 53.5013 96.3686L54.815 93.5236L56.8768 92.6696L59.8193 93.7521C60.39 93.9622 61.0306 93.8211 61.4605 93.3912L64.544 90.3077C64.974 89.8776 65.1148 89.2371 64.9048 88.6665L63.822 85.7233L64.6711 83.6679L67.5202 82.3543C68.0728 82.0996 68.4268 81.5465 68.4268 80.9381V76.5724C68.4268 75.9638 68.0728 75.411 67.5202 75.1562V75.1566ZM65.3078 79.9402L62.8102 81.0915C62.4533 81.2561 62.1718 81.549 62.0219 81.9122L60.7066 85.0952C60.5571 85.457 60.5491 85.8619 60.6844 86.2292L61.6332 88.8078L59.96 90.481L57.3813 89.5322C57.0135 89.3967 56.6082 89.4051 56.246 89.555L53.0576 90.8757C52.6954 91.0258 52.403 91.3068 52.2384 91.6627L51.0873 94.1556H48.7227L47.5716 91.6627C47.4073 91.307 47.1152 91.0262 46.7534 90.8761L43.5705 89.5554C43.2083 89.4051 42.8024 89.3967 42.4343 89.5322L39.8557 90.481L38.1825 88.8078L39.1313 86.2292C39.2668 85.8611 39.2586 85.4554 39.1081 85.093L37.7874 81.9101C37.6373 81.5483 37.3564 81.2562 37.0008 81.0919L34.5079 79.9408V77.5703L37.0008 76.4192C37.3564 76.2549 37.6373 75.9629 37.7874 75.6011L39.1081 72.4181C39.2584 72.0557 39.2666 71.65 39.1313 71.282L38.1825 68.7033L39.8557 67.0301L42.4343 67.9789C42.8024 68.1144 43.2081 68.106 43.5705 67.9557L46.7534 66.635C47.1152 66.4849 47.4073 66.2042 47.5716 65.8484L48.7227 63.3555H51.0873L52.2384 65.8484C52.4028 66.2044 52.6954 66.4855 53.0576 66.6354L56.246 67.9561C56.6084 68.1062 57.0137 68.1144 57.3813 67.9789L59.96 67.0301L61.6332 68.7033L60.6844 71.282C60.5493 71.6494 60.5571 72.0541 60.7066 72.4159L62.0219 75.5989C62.172 75.9621 62.4535 76.2551 62.8102 76.4196L65.3078 77.5709V79.94V79.9402ZM53.5714 75.7237C54.2085 76.3036 54.2547 77.2898 53.675 77.9267L50.2544 81.6843C49.9711 81.9957 49.574 82.1791 49.1535 82.1931C49.136 82.1937 49.1186 82.1939 49.1011 82.1939C48.6991 82.1939 48.312 82.0385 48.0209 81.7592L46.2084 80.0186C45.5871 79.4219 45.5672 78.4347 46.1637 77.8134C46.7605 77.1923 47.7476 77.1723 48.3689 77.7688L49.0262 78.4L51.3686 75.8268C51.9484 75.1899 52.9348 75.1435 53.5716 75.7233L53.5714 75.7237Z" fill="#1E1E1E"/>
<path d="M22.5861 36.4111C19.7164 36.4111 17.3818 38.7459 17.3818 41.6154C17.3818 44.6988 18.9965 49.0413 22.5861 49.0413C26.1758 49.0413 27.7904 44.699 27.7904 41.6154C27.7904 38.7457 25.4557 36.4111 22.5861 36.4111Z" fill="#F6DCCD"/>
<path d="M49.9066 24.248C45.3245 24.248 41.5967 27.9759 41.5967 32.5579C41.5967 35.2963 42.3825 38.2061 43.6989 40.3417C45.2409 42.8433 47.3295 44.1118 49.9068 44.1118C55.9606 44.1118 58.2166 37.025 58.2166 32.5579C58.2166 27.9759 54.4888 24.248 49.9068 24.248H49.9066Z" fill="#F6DCCD"/>
<path d="M77.2275 36.4111C74.3549 36.4111 72.0176 38.7459 72.0176 41.6154C72.0176 44.6988 73.634 49.0413 77.2275 49.0413C80.8211 49.0413 82.4318 44.699 82.4318 41.6154C82.4318 38.7457 80.097 36.4111 77.2275 36.4111Z" fill="#F6DCCD"/>
<path d="M34.5078 79.9415L37.0007 81.0926C37.3563 81.257 37.6372 81.549 37.7873 81.9108L39.108 85.0938C39.2583 85.4562 39.2665 85.8618 39.1312 86.2299L38.1824 88.8085L39.8556 90.4817L42.4343 89.5329C42.8023 89.3975 43.2082 89.4058 43.5704 89.5561L46.7533 90.8769C47.1151 91.027 47.4072 91.3077 47.5715 91.6634L48.7226 94.1563H51.0872L52.2383 91.6634C52.4027 91.3075 52.6953 91.0264 53.0575 90.8765L56.2459 89.5557C56.6079 89.4058 57.0134 89.3975 57.3812 89.5329L59.9599 90.4817L61.6331 88.8085L60.6843 86.2299C60.5492 85.8624 60.557 85.4577 60.7065 85.0959L62.0218 81.9129C62.1719 81.5498 62.4534 81.2568 62.8101 81.0922L65.3077 79.9409V77.5718L62.8101 76.4205C62.4532 76.256 62.1717 75.963 62.0218 75.5998L60.7065 72.4168C60.557 72.055 60.549 71.6502 60.6843 71.2829L61.6331 68.7042L59.9599 67.0311L57.3812 67.9798C57.0136 68.1153 56.6083 68.1071 56.2459 67.957L53.0575 66.6363C52.6953 66.4862 52.4029 66.2053 52.2383 65.8493L51.0872 63.3564H48.7226L47.5715 65.8493C47.4072 66.2051 47.1151 66.4858 46.7533 66.6359L43.5704 67.9566C43.208 68.1069 42.8023 68.1153 42.4343 67.9798L39.8556 67.0311L38.1824 68.7042L39.1312 71.2829C39.2667 71.6509 39.2585 72.0566 39.108 72.419L37.7873 75.602C37.6372 75.9638 37.3563 76.2558 37.0007 76.4201L34.5078 77.5712V79.9417V79.9415ZM49.9077 69.3276C55.1065 69.3276 59.3363 73.5572 59.3363 78.7563C59.3363 83.9553 55.1067 88.1849 49.9077 88.1849C44.7086 88.1849 40.479 83.9553 40.479 78.7563C40.479 73.5572 44.7086 69.3276 49.9077 69.3276Z" fill="#FFC338"/>
<path d="M23.5217 17.1101L22.5847 15.3301L21.6447 17.1116C21.4189 17.5395 21.0072 17.8386 20.5304 17.9206L18.5439 18.2631L19.9524 19.7119C20.2898 20.0591 20.4469 20.5433 20.3775 21.0227L20.089 23.0128L21.8987 22.1237C22.3326 21.9105 22.841 21.9107 23.2747 22.1241L25.0814 23.0128L24.7951 21.021C24.7263 20.5428 24.8832 20.0595 25.2197 19.7129L26.6261 18.2637L24.6368 17.9206C24.1594 17.8384 23.7473 17.5389 23.5217 17.1101Z" fill="#FFE177"/>
<path d="M50.8432 9.21867L49.9061 7.43848L48.9661 9.22003C48.7404 9.64792 48.3287 9.94696 47.8519 10.029L45.8682 10.3711L47.2731 11.8139C47.6111 12.1613 47.7686 12.6459 47.6992 13.1256L47.4107 15.1156L49.2201 14.2265C49.4369 14.12 49.6724 14.0666 49.9079 14.0666C50.1434 14.0666 50.3793 14.12 50.5962 14.2269L52.4029 15.1156L52.1166 13.1239C52.0477 12.6451 52.2049 12.1617 52.5419 11.8149L53.9449 10.3715L51.9585 10.029C51.4811 9.94676 51.0692 9.64734 50.8436 9.21867H50.8432Z" fill="#FFE177"/>
<path d="M78.1637 16.5349L77.2266 14.7549L76.2867 16.5364C76.0609 16.9643 75.6492 17.2632 75.1724 17.3454L73.1885 17.6876L74.5934 19.1303C74.9314 19.4775 75.0889 19.9621 75.0195 20.4419L74.7306 22.4378L76.5407 21.5485C76.9746 21.3355 77.483 21.3355 77.9167 21.5489L79.7238 22.4378L79.4369 20.4401C79.3681 19.9613 79.5252 19.4779 79.8622 19.1313L81.2652 17.6881L79.2788 17.3454C78.8014 17.263 78.3895 16.9637 78.1639 16.5349H78.1637Z" fill="#FFE177"/>
<path d="M28.0225 70.0917V58.1499C28.0225 56.6664 28.3013 55.243 28.8097 53.9217C28.6861 53.9152 28.5627 53.9072 28.4381 53.9072H16.7285C13.1336 53.9072 10.2089 56.5717 10.2089 59.8466V70.0919C10.2089 70.9531 9.51066 71.6514 8.64941 71.6514H29.582C28.7208 71.6514 28.0225 70.9529 28.0225 70.0917Z" fill="#8AC9FE"/>
<path d="M89.5989 70.0909V59.8457C89.5989 56.5707 86.6742 53.9062 83.0793 53.9062H71.3697C71.2467 53.9062 71.1252 53.9142 71.0034 53.9205C71.5122 55.242 71.791 56.6654 71.791 58.1489V70.0907C71.791 70.952 71.0927 71.6502 70.2314 71.6502H91.1586C90.2974 71.6502 89.5991 70.952 89.5991 70.0907L89.5989 70.0909Z" fill="#8AC9FE"/>
<path d="M68.6721 70.0912V58.1494C68.6721 56.5381 68.2267 55.0207 67.4434 53.6945C67.4003 53.6358 67.3619 53.573 67.327 53.5075C65.5636 50.6792 62.244 48.7676 58.4446 48.7676H41.3636C37.5693 48.7676 34.2538 50.6762 32.4901 53.5009C32.4539 53.5697 32.4135 53.6354 32.3683 53.6968C31.5862 55.0224 31.1415 56.5392 31.1415 58.1494V70.0912C31.1415 70.9525 30.4433 71.6508 29.582 71.6508H35.9421L34.9099 68.8448C34.7 68.2742 34.8409 67.6336 35.2708 67.2036L37.3615 65.1129V60.1499C37.3615 59.2887 38.0598 58.5904 38.921 58.5904C39.7822 58.5904 40.4805 59.2887 40.4805 60.1499V63.9376L42.9375 64.8415L44.9943 63.9883L46.3082 61.1429C46.5632 60.5907 47.1161 60.2372 47.7241 60.2372H52.0841C52.6923 60.2372 53.245 60.5907 53.5 61.1429L54.8137 63.9879L56.8755 64.8419L59.3275 63.9399V60.1503C59.3275 59.2891 60.0257 58.5908 60.887 58.5908C61.7482 58.5908 62.4465 59.2891 62.4465 60.1503V65.1078L64.5427 67.204C64.9727 67.634 65.1135 68.2746 64.9035 68.8452L63.8713 71.6511H70.2316C69.3704 71.6511 68.6721 70.9529 68.6721 70.0916V70.0912Z" fill="#D8ECFE"/>
<path d="M78.1625 16.5347L77.2256 14.7549V21.3885C77.4617 21.3883 77.6979 21.4415 77.9155 21.5485L79.7226 22.4375L79.4356 20.4397C79.3668 19.9609 79.5239 19.4775 79.861 19.1309L81.264 17.6877L79.2775 17.345C78.8001 17.2626 78.3882 16.9634 78.1627 16.5345L78.1625 16.5347Z" fill="#FFD064"/>
<path d="M23.5213 17.1101L22.5842 15.3301L22.583 15.3324V21.9643C22.8197 21.9639 23.0563 22.0171 23.2743 22.1243L25.081 23.013L24.7946 21.0211C24.7258 20.543 24.8827 20.0597 25.2192 19.7131L26.6257 18.2639L24.6363 17.9208C24.1589 17.8386 23.747 17.5391 23.5214 17.1103L23.5213 17.1101Z" fill="#FFD064"/>
<path d="M50.8425 9.21867L49.9055 7.43848L49.9043 7.44062V14.067C49.9043 14.067 49.9061 14.067 49.907 14.067C50.1427 14.067 50.3784 14.1204 50.5954 14.2272L52.4021 15.116L52.1157 13.1243C52.0469 12.6455 52.204 12.1621 52.5411 11.8153L53.944 10.3719L51.9576 10.0294C51.4802 9.94715 51.0683 9.64773 50.8427 9.21905L50.8425 9.21867Z" fill="#FFD064"/>
</svg>
