<svg width="90" height="117" viewBox="0 0 90 117" fill="none" xmlns="http://www.w3.org/2000/svg">
<path d="M75.4651 33.1006H11.4227C9.64034 33.1006 8.1557 34.4666 8.00742 36.2428L1.725 111.555C1.55822 113.553 3.13516 115.267 5.14027 115.267H81.7478C83.7529 115.267 85.3298 113.553 85.163 111.555L78.8806 36.2428C78.7323 34.4666 77.2475 33.1006 75.4651 33.1006Z" fill="#EA4335"/>
<path d="M87.4481 111.555L81.1657 36.2428C81.0176 34.4666 79.5327 33.1006 77.7504 33.1006H68.6113C70.3937 33.1006 71.8785 34.4666 72.0266 36.2428L78.309 111.555C78.4756 113.553 76.8989 115.267 74.8937 115.267H84.0328C86.0381 115.267 87.6149 113.553 87.4481 111.555Z" fill="#E63628"/>
<path d="M43.8023 87.9573L34.0603 93.0791C32.8236 93.7293 31.3782 92.679 31.6145 91.302L33.4749 80.4542C33.5688 79.9072 33.3874 79.3493 32.9901 78.962L25.1086 71.2795C24.1081 70.3043 24.6601 68.6051 26.0428 68.4041L36.9348 66.8214C37.4838 66.7417 37.9583 66.3969 38.2039 65.8993L43.0751 56.0296C43.6933 54.7766 45.48 54.7766 46.0983 56.0296L50.9692 65.8993C51.2148 66.3969 51.6893 66.7417 52.2383 66.8214L63.1303 68.4041C64.513 68.6049 65.065 70.3041 64.0645 71.2795L56.183 78.962C55.7857 79.3493 55.6043 79.9072 55.6982 80.4542L57.5587 91.302C57.7949 92.679 56.3496 93.7293 55.1128 93.0791L45.3708 87.9573C44.88 87.6992 44.2933 87.6992 43.8023 87.9573Z" fill="#FFE177"/>
<path d="M30.6426 59.6861C31.0811 59.6861 31.5197 59.5189 31.8545 59.1844C32.5237 58.5149 32.5237 57.4301 31.8545 56.7609L28.9722 53.8787C28.3028 53.2097 27.218 53.2097 26.5488 53.8787C25.8796 54.5481 25.8796 55.6329 26.5488 56.3021L29.431 59.1844C29.7655 59.5189 30.2042 59.6861 30.6426 59.6861Z" fill="#1E1E1E"/>
<path d="M59.7427 59.1844L62.625 56.3021C63.2942 55.6327 63.2942 54.5479 62.625 53.8787C61.9555 53.2097 60.8707 53.2097 60.2015 53.8787L57.3193 56.7609C56.6501 57.4304 56.6501 58.5152 57.3193 59.1844C57.654 59.5189 58.0927 59.6861 58.5311 59.6861C58.9693 59.6861 59.408 59.5189 59.7427 59.1844Z" fill="#1E1E1E"/>
<path d="M19.6943 84.6613C19.0251 85.3307 19.0251 86.4156 19.6943 87.0848C20.029 87.4193 20.4677 87.5865 20.9061 87.5865C21.3446 87.5865 21.7832 87.4193 22.118 87.0848L25.0002 84.2025C25.6694 83.5331 25.6694 82.4483 25.0002 81.7791C24.3308 81.1101 23.246 81.1101 22.5765 81.7791L19.6943 84.6613Z" fill="#1E1E1E"/>
<path d="M68.2676 87.5865C68.7061 87.5865 69.1447 87.4192 69.4795 87.0848C70.1487 86.4153 70.1487 85.3305 69.4795 84.6613L66.5972 81.7791C65.9278 81.1101 64.843 81.1101 64.1738 81.7791C63.5046 82.4485 63.5046 83.5333 64.1738 84.2025L67.056 87.0848C67.3905 87.419 67.8292 87.5865 68.2676 87.5865Z" fill="#1E1E1E"/>
<path d="M24.5983 102.271C23.6518 102.271 22.8848 103.038 22.8848 103.984C22.8848 104.931 23.6518 105.698 24.5983 105.698H64.5765C65.5231 105.698 66.2901 104.931 66.2901 103.984C66.2901 103.038 65.5231 102.271 64.5765 102.271H24.5983Z" fill="#1E1E1E"/>
<path d="M23.0527 69.0223C22.6499 70.2623 22.9796 71.5973 23.9129 72.5071L31.7842 80.1793L29.926 91.0125C29.7055 92.2972 30.2237 93.5712 31.2781 94.3375C32.3325 95.1034 33.704 95.2028 34.8581 94.5964L44.5871 89.4813L45.6609 90.0461C46.4985 90.4861 47.5344 90.1642 47.9751 89.3268C48.4157 88.4892 48.0935 87.4531 47.2559 87.0126L46.1688 86.4412C45.1786 85.9205 43.9958 85.9205 43.0051 86.4412L33.3131 91.5364L35.1645 80.7443C35.3532 79.6417 34.9879 78.5171 34.1868 77.7355L26.3462 70.0925L37.1815 68.5179C38.2889 68.3575 39.2457 67.6622 39.7413 66.6583L44.5875 56.8395L49.4335 66.6585C49.9289 67.6622 50.8859 68.3572 51.9929 68.5179L62.8284 70.093L54.9875 77.736C54.1865 78.5171 53.8214 79.6417 54.0104 80.7446L55.861 91.5366L54.2631 90.6963C53.4243 90.2558 52.3891 90.578 51.9488 91.4156C51.5083 92.2534 51.8305 93.2893 52.6681 93.7298L54.3165 94.5964C54.8183 94.8601 55.3613 94.9905 55.9017 94.9905C56.6036 94.9905 57.3009 94.7705 57.8967 94.3378C58.9512 93.5715 59.4693 92.2975 59.2489 91.013L57.3907 80.1795L65.2617 72.5073C66.1952 71.5977 66.5247 70.2625 66.1221 69.0226C65.7193 67.7829 64.6679 66.8964 63.3779 66.7092L52.5006 65.1284L47.6361 55.2722C47.0594 54.1033 45.8912 53.377 44.5878 53.377C43.2843 53.377 42.1163 54.1033 41.5394 55.2719L36.6749 65.1284L25.7976 66.7092C24.5069 66.8961 23.4555 67.7826 23.0527 69.0223Z" fill="#1E1E1E"/>
<path d="M89.1555 111.412L82.8728 36.1002C82.6523 33.457 80.4021 31.3865 77.7501 31.3865H68.2007V23.6142C68.2007 10.5933 57.6074 0 44.5865 0C31.5657 0 20.9724 10.5933 20.9724 23.6142V31.3865H11.4229C8.77102 31.3865 6.52075 33.457 6.30027 36.1002L2.68006 79.4966C2.60124 80.4395 3.3022 81.268 4.24535 81.3465C4.29379 81.3507 4.34177 81.3525 4.38975 81.3525C5.27144 81.3525 6.02084 80.676 6.09533 79.7813L9.71554 36.3847C9.78911 35.5037 10.539 34.8134 11.4232 34.8134H49.6219C50.5685 34.8134 51.3355 34.0464 51.3355 33.0998C51.3355 32.1533 50.5685 31.3863 49.6219 31.3863H24.3995V23.614C24.3995 12.483 33.4552 3.42715 44.5865 3.42715C55.7179 3.42715 64.7736 12.483 64.7736 23.6142V31.3865H57.0897C56.1431 31.3865 55.3761 32.1535 55.3761 33.1001C55.3761 34.0467 56.1431 34.8137 57.0897 34.8137H77.7501C78.6341 34.8137 79.384 35.5039 79.4578 36.3849L85.7404 111.697C85.7806 112.18 85.6221 112.643 85.2937 112.999C84.9654 113.356 84.5176 113.553 84.0326 113.553H5.14052C4.6557 113.553 4.20766 113.356 3.87934 112.999C3.55101 112.643 3.39245 112.18 3.43266 111.697L5.47227 87.2495C5.5511 86.3065 4.85013 85.4781 3.90698 85.3995C2.96246 85.3159 2.1356 86.0214 2.05701 86.9646L0.0176249 111.412C-0.101411 112.841 0.386614 114.265 1.35741 115.32C2.32798 116.375 3.70683 116.98 5.14052 116.98H84.0328C85.4665 116.98 86.8453 116.375 87.8159 115.32C88.7865 114.265 89.2747 112.841 89.1555 111.412Z" fill="#1E1E1E"/>
</svg>
