<svg width="65" height="46" viewBox="0 0 65 46" fill="none" xmlns="http://www.w3.org/2000/svg">
<path d="M25.5761 7.95307L18.9776 18.2867C21.6314 18.7258 23.9969 20.128 26.061 22.4936C28.1317 24.8525 29.1605 27.7292 29.1605 31.1235C29.1605 34.9568 27.7976 38.2397 25.0651 40.9722C22.3392 43.6982 18.9775 45.0677 15 45.0677C11.0226 45.0677 7.66101 43.7047 4.92853 40.9722C1.67838 37.7221 0.361352 33.6856 0.98386 28.8694C1.20665 27.1395 1.69151 25.4488 2.41887 23.8631C3.4542 21.5893 4.98756 19.001 7.032 16.0785L16.3499 1.9639C17.1101 0.810623 18.6565 0.489529 19.8164 1.23654L24.8357 4.49326C25.9955 5.24682 26.3297 6.79324 25.5893 7.95307H25.5761Z" fill="#34A853" stroke="#1E1E1E" stroke-width="1.66868" stroke-miterlimit="10"/>
<path d="M60.1817 7.95307L53.5831 18.2867C56.2369 18.7258 58.6025 20.128 60.6666 22.4936C62.7372 24.8525 63.766 27.7292 63.766 31.1235C63.766 34.9568 62.403 38.2397 59.6706 40.9722C56.9446 43.6982 53.5831 45.0677 49.6056 45.0677C45.6281 45.0677 42.2666 43.7047 39.5341 40.9722C36.2839 37.7221 34.9668 33.6856 35.5893 28.8694C35.8121 27.1395 36.2971 25.4488 37.0244 23.8631C38.0597 21.5893 39.593 19.001 41.6375 16.0785L50.9555 1.9639C51.7156 0.810623 53.262 0.489529 54.4218 1.23654L59.4412 4.49326C60.6011 5.24682 60.9353 6.79324 60.1948 7.95307H60.1817Z" fill="#34A853" stroke="#1E1E1E" stroke-width="1.66868" stroke-miterlimit="10"/>
</svg>
