<svg width="66" height="66" viewBox="0 0 66 66" fill="none" xmlns="http://www.w3.org/2000/svg">
<path d="M52.4659 41.4274C39.8099 45.0993 34.6266 50.2826 30.9548 62.9385C30.0168 66.1681 25.4269 66.1681 24.489 62.9385C20.8171 50.2826 15.6338 45.0993 2.97783 41.4274C-0.251726 40.4894 -0.251726 35.8996 2.97783 34.9616C15.6338 31.2898 20.8171 26.1065 24.489 13.4505C25.4269 10.2209 30.0168 10.2209 30.9548 13.4505C34.6266 26.1065 39.8099 31.2898 52.4659 34.9616C55.6954 35.8996 55.6954 40.4894 52.4659 41.4274Z" fill="#4285F4" stroke="#1E1E1E" stroke-width="1.11134" stroke-linejoin="round"/>
<path d="M52.0362 23.5253C50.3898 17.8504 48.0656 15.5262 42.3907 13.8798C40.9426 13.4592 40.9426 11.4012 42.3907 10.9806C48.0656 9.33413 50.3898 7.00997 52.0362 1.33511C52.4568 -0.113006 54.5148 -0.113006 54.9354 1.33511C56.5819 7.00997 58.906 9.33413 64.5809 10.9806C66.029 11.4012 66.029 13.4592 64.5809 13.8798C58.906 15.5262 56.5819 17.8504 54.9354 23.5253C54.5148 24.9734 52.4568 24.9734 52.0362 23.5253Z" fill="#4285F4" stroke="#1E1E1E" stroke-width="0.498319" stroke-linejoin="round"/>
</svg>
