<svg id="Layer_1" enable-background="new 0 0 500 500" viewBox="0 0 500 500" xmlns="http://www.w3.org/2000/svg"><path clip-rule="evenodd" d="m395.794 90.304c2.51 2.51 2.51 6.567 0 9.077l-13.453 13.464c-1.26 1.249-2.905 1.877-4.549 1.877-1.634 0-3.278-.628-4.538-1.877-2.505-2.51-2.505-6.572 0-9.082l13.469-13.458c2.504-2.506 6.561-2.506 9.071-.001zm52.178 125.95c0 3.543-2.878 6.421-6.421 6.421h-19.041c-3.543 0-6.421-2.878-6.421-6.421s2.878-6.421 6.421-6.421h19.041c3.543 0 6.421 2.878 6.421 6.421zm-304.084-116.873c-2.504-2.51-2.504-6.567 0-9.077 2.51-2.505 6.578-2.505 9.082 0l13.458 13.458c2.51 2.51 2.51 6.572 0 9.082-1.249 1.249-2.894 1.877-4.538 1.877-1.639 0-3.283-.628-4.538-1.877zm-52.172 116.873c0-3.543 2.872-6.421 6.421-6.421h19.035c3.554 0 6.421 2.878 6.421 6.421s-2.867 6.421-6.421 6.421h-19.035c-3.549 0-6.421-2.878-6.421-6.421zm171.712-152.666v-19.036c0-3.543 2.872-6.421 6.416-6.421 3.548 0 6.421 2.878 6.421 6.421v19.035c0 3.543-2.872 6.421-6.421 6.421-3.543.001-6.416-2.877-6.416-6.42zm4.696 181.4c.319.054.627.07.936.07 3.143 0 5.88-2.299 6.34-5.496l3.9-26.749c.005-.038.005-.059.005-.087.038-.249.054-.487.06-.73 0-.016 0-.033 0-.049 0-.249-.016-.498-.043-.746-.005-.076-.016-.146-.022-.211-.027-.19-.065-.379-.114-.568-.011-.065-.027-.13-.043-.195-.13-.481-.314-.957-.557-1.406-.033-.049-.06-.103-.092-.151-.103-.184-.206-.352-.325-.514-.043-.054-.081-.103-.114-.152-.151-.2-.319-.406-.498-.584 0 0 0 0-.005-.011-.146-.151-.308-.297-.481-.444-.033-.027-.059-.043-.087-.07-.022-.016-.043-.032-.059-.049-.043-.038-.092-.059-.135-.097-.146-.108-.298-.211-.455-.314-.07-.038-.135-.076-.206-.119-.2-.114-.395-.216-.6-.303-.022-.016-.049-.027-.076-.043-.232-.092-.47-.178-.719-.249-.06-.016-.119-.032-.179-.049-.179-.043-.368-.086-.568-.119-.065-.011-.14-.027-.222-.033-.206-.033-.411-.043-.622-.043-.043-.011-.087-.011-.13-.011-.238-.011-.487.011-.725.033-.081.011-.146.022-.227.038-.189.016-.368.049-.546.092-.076.016-.146.038-.211.054-.249.065-.497.146-.746.238l-25.11 10.007c-3.294 1.309-4.895 5.041-3.586 8.336 1.309 3.3 5.052 4.896 8.336 3.586l1.466-.579-10.435 12.447c-5.247-6.388-8.406-14.562-8.406-23.465 0-20.415 16.607-37.027 37.021-37.027 20.409 0 37.026 16.612 37.026 37.027s-16.617 37.021-37.026 37.021c-6.886 0-13.345-1.899-18.873-5.187l12.36-14.746-.633 4.371c-.514 3.511 1.921 6.773 5.426 7.276zm-65.94-29.248c.011.173.027.341.027.514 0 .178-.016.352-.027.519.141 18.116 7.432 34.555 19.187 46.639l11.506-13.729c-8.006-8.855-12.896-20.582-12.896-33.429 0-27.496 22.367-49.863 49.863-49.863 27.501 0 49.868 22.367 49.868 49.863 0 27.495-22.367 49.863-49.868 49.863-10.029 0-19.371-2.986-27.193-8.098l-11.5 13.707c10.846 7.595 23.996 12.084 38.184 12.187.168-.005.341-.027.509-.027.173 0 .335.022.508.027 36.913-.276 66.87-30.232 67.156-67.145-.016-.173-.027-.341-.027-.514s.011-.341.027-.514c-.286-36.902-30.243-66.864-67.151-67.146-.168.016-.341.022-.514.022-.179 0-.346-.005-.52-.022-36.9.282-66.863 30.244-67.139 67.146zm152.018 67.378c13.891-24.569 25.883-45.79 25.883-73.907 0-60.79-49.452-110.252-110.241-110.252-60.784 0-110.247 49.463-110.247 110.252 0 28.118 12.003 49.338 25.895 73.907 2.521 4.452 5.112 9.055 7.741 13.859l19.852-23.677c-13.242-13.177-21.935-30.914-23.498-50.626h-12.831c-3.549 0-6.421-2.878-6.421-6.421s2.872-6.421 6.421-6.421h12.831c3.116-39.282 34.549-70.726 73.842-73.831v-12.841c0-3.543 2.872-6.421 6.416-6.421 3.548 0 6.421 2.878 6.421 6.421v12.842c39.288 3.105 70.727 34.549 73.837 73.831h12.836c3.548 0 6.421 2.878 6.421 6.421s-2.872 6.421-6.421 6.421h-12.836c-3.11 39.293-34.549 70.727-73.837 73.842v12.831c0 3.543-2.872 6.421-6.421 6.421-3.543 0-6.416-2.878-6.416-6.421v-12.831c-15.059-1.201-28.961-6.551-40.559-14.913l-23.184 27.658c4.744 9.401 9.364 19.603 13.475 30.903 1.185-.173 2.38-.265 3.597-.265h106.174c1.222 0 2.418.092 3.592.265 8.226-22.627 18.515-40.84 27.678-57.047zm-137.445 93.771c-6.421 0-11.646-5.42-11.646-12.079 0-6.648 5.225-12.068 11.646-12.068h106.174c6.416 0 11.652 5.42 11.652 12.068 0 6.659-5.236 12.079-11.652 12.079zm117.825 24.92c0 6.659-5.236 12.079-11.652 12.079h-106.173c-6.421 0-11.646-5.42-11.646-12.079 0-6.664 5.225-12.079 11.646-12.079h106.174c6.415 0 11.651 5.415 11.651 12.079zm-38.335 36.681c-6.448 6.691-16.065 10.537-26.403 10.537-10.337 0-19.96-3.846-26.408-10.537-3.37-3.51-5.604-7.497-6.605-11.765h66.026c-1.001 4.267-3.229 8.254-6.61 11.765zm-26.403-352.367c-67.87 0-123.089 55.213-123.089 123.088 0 31.488 12.771 54.082 27.56 80.231 3.337 5.912 6.718 11.895 10.04 18.127l-20.09 23.958h-33.278c-3.543 0-6.421 2.878-6.421 6.421v36.237h-29.848c-3.543 0-6.421 2.867-6.421 6.421v36.226h-29.848c-3.543 0-6.421 2.878-6.421 6.421s2.878 6.421 6.421 6.421h36.269c1.704 0 3.338-.676 4.544-1.877 1.201-1.206 1.877-2.84 1.877-4.544v-36.226h29.848c3.549 0 6.421-2.878 6.421-6.421v-36.237h29.854c1.899 0 3.695-.838 4.917-2.294l18.51-22.081c3.803 7.86 7.427 16.222 10.727 25.418-5.571 4.571-9.147 11.565-9.147 19.398 0 7.335 3.137 13.934 8.103 18.5-4.966 4.565-8.103 11.159-8.103 18.5 0 13.74 10.986 24.915 24.488 24.915h7.027c1.147 7.589 4.717 14.751 10.397 20.669 8.855 9.201 21.859 14.475 35.664 14.475 13.81 0 26.808-5.274 35.658-14.475 5.69-5.918 9.261-13.08 10.402-20.669h7.027c13.496 0 24.488-11.175 24.488-24.915 0-7.341-3.132-13.934-8.103-18.5 4.971-4.566 8.103-11.165 8.103-18.5 0-7.822-3.575-14.827-9.147-19.398 7.881-21.956 17.64-39.233 27.106-55.975 14.789-26.143 27.55-48.738 27.55-80.225-.002-67.877-55.215-123.089-123.085-123.089z" fill-rule="evenodd"/></svg>