<svg width="217" height="78" viewBox="0 0 217 78" fill="none" xmlns="http://www.w3.org/2000/svg">
<path d="M122.617 36.0056L87.9987 1.40978C87.4523 0.863408 86.564 0.863408 86.0176 1.40978L72.1318 15.2957C71.5854 15.842 71.5854 16.7303 72.1318 17.2767L82.1225 27.2674H1V49.7056H82.1336L71.9496 59.8896C71.4033 60.436 71.4033 61.3243 71.9496 61.8706L86.4971 75.7565C87.0435 76.3029 87.9318 76.3029 88.4781 75.7565L122.609 40.9712C122.784 40.7965 122.933 40.6107 123.063 40.4137C123.962 39.0533 123.814 37.2061 122.617 36.0093V36.0056Z" fill="#F9AB00" stroke="#1E1E1E" stroke-width="2" stroke-linejoin="round"/>
<path d="M215.371 1L191.939 76.1662H174.619L198.051 1H215.371Z" fill="#4285F4" stroke="#1E1E1E" stroke-width="2" stroke-linejoin="round"/>
<path d="M181.885 1L158.453 76.1662H141.133L164.565 1H181.885Z" fill="#4285F4" stroke="#1E1E1E" stroke-width="2" stroke-linejoin="round"/>
</svg>
