<svg width="22" height="22" viewBox="0 0 22 22" fill="none" xmlns="http://www.w3.org/2000/svg">
<g clip-path="url(#clip0_6_1404)">
<path d="M16.2202 22H5.77948C3.61803 21.9979 1.86632 20.2462 1.86426 18.0847V3.91523C1.86632 1.75373 3.61803 0.00201988 5.77953 -4.19617e-05H16.2202C18.3817 0.00201988 20.1334 1.75373 20.1355 3.91523V18.0847C20.1334 20.2462 18.3817 21.9979 16.2202 22ZM10.9998 5.28374H6.52525C6.0104 5.28374 5.59304 5.70109 5.59304 6.21594C5.59304 6.7308 6.0104 7.14815 6.52525 7.14815H10.9998C11.5147 7.14815 11.9321 6.7308 11.9321 6.21594C11.9321 5.70109 11.5147 5.28374 10.9998 5.28374ZM15.4744 10.0044H6.52525C6.0104 10.0044 5.59304 10.4218 5.59304 10.9366C5.59304 11.4515 6.0104 11.8688 6.52525 11.8688H15.4744C15.9892 11.8688 16.4066 11.4515 16.4066 10.9366C16.4066 10.4218 15.9892 10.0044 15.4744 10.0044ZM15.4744 14.8518H6.52525C6.0104 14.8518 5.59304 15.2692 5.59304 15.7841C5.59304 16.2989 6.0104 16.7163 6.52525 16.7163H15.4744C15.9892 16.7163 16.4066 16.2989 16.4066 15.7841C16.4066 15.2692 15.9892 14.8518 15.4744 14.8518Z" fill="#215C46"/>
</g>
<defs>
<clipPath id="clip0_6_1404">
<rect width="22" height="22" fill="white" transform="matrix(1 0 0 -1 0 22)"/>
</clipPath>
</defs>
</svg>
