<svg width="19" height="19" viewBox="0 0 19 19" fill="none" xmlns="http://www.w3.org/2000/svg">
<g clip-path="url(#clip0_6_1398)">
<path d="M19.0002 12.8584C19.0002 10.5006 17.6476 8.39643 15.6218 7.37288C15.5589 11.8936 11.8937 15.5587 7.37305 15.6216C8.3966 17.6474 10.5008 19 12.8586 19C13.964 19 15.039 18.7056 15.9836 18.1462L18.9734 18.9732L18.1464 15.9834C18.7058 15.0389 19.0002 13.9639 19.0002 12.8584Z" fill="#215C46"/>
<path d="M14.5098 7.25488C14.5098 3.25446 11.2553 0 7.25488 0C3.25446 0 0 3.25446 0 7.25488C0 8.55864 0.347031 9.82804 1.00601 10.9425L0.0266724 14.483L3.56728 13.5038C4.68173 14.1627 5.95113 14.5098 7.25488 14.5098C11.2553 14.5098 14.5098 11.2553 14.5098 7.25488ZM6.1416 5.56641H5.02832C5.02832 4.33861 6.02708 3.33984 7.25488 3.33984C8.48268 3.33984 9.48145 4.33861 9.48145 5.56641C9.48145 6.18958 9.21762 6.78855 8.75738 7.20951L7.81152 8.0752V8.94336H6.69824V7.58495L8.00577 6.38818C8.23944 6.17436 8.36817 5.88256 8.36817 5.56641C8.36817 4.95251 7.86878 4.45313 7.25488 4.45313C6.64098 4.45313 6.1416 4.95251 6.1416 5.56641ZM6.69824 10.0566H7.81152V11.1699H6.69824V10.0566Z" fill="#215C46"/>
</g>
<defs>
<clipPath id="clip0_6_1398">
<rect width="19" height="19" fill="white"/>
</clipPath>
</defs>
</svg>
