<svg width="22" height="22" viewBox="0 0 22 22" fill="none" xmlns="http://www.w3.org/2000/svg">
<path fill-rule="evenodd" clip-rule="evenodd" d="M9.18846 2.51756C10.2807 1.77027 11.7197 1.77027 12.8119 2.51756L18.7702 6.59432C19.6442 7.19234 20.1668 8.18315 20.1668 9.2422V16.9583C20.1668 18.7303 18.7304 20.1667 16.9585 20.1667H5.04183C3.26991 20.1667 1.8335 18.7303 1.8335 16.9583V9.2422C1.8335 8.18315 2.35611 7.19234 3.23014 6.59432L9.18846 2.51756ZM8.7085 16.0417C8.45537 16.0417 8.25016 16.2469 8.25016 16.5C8.25016 16.7531 8.45537 16.9583 8.7085 16.9583H13.2918C13.5449 16.9583 13.7502 16.7531 13.7502 16.5C13.7502 16.2469 13.5449 16.0417 13.2918 16.0417H8.7085Z" fill="#215C46"/>
</svg>
