<svg width="51" height="51" viewBox="0 0 51 51" fill="none" xmlns="http://www.w3.org/2000/svg">
<path d="M9.5625 35.0623C6.375 37.7398 5.3125 45.6873 5.3125 45.6873C5.3125 45.6873 13.26 44.6248 15.9375 41.4373C17.4462 39.6523 17.425 36.9111 15.7462 35.2536C14.9203 34.4652 13.8322 34.0097 12.691 33.9744C11.5497 33.9391 10.4356 34.3265 9.5625 35.0623Z" stroke="#E3AE25" stroke-width="1.66667" stroke-linecap="round" stroke-linejoin="round"/>
<path d="M25.5 31.875L19.125 25.5C20.2558 22.5663 21.6797 19.7542 23.375 17.1063C25.851 13.1474 29.2987 9.88777 33.3901 7.63748C37.4816 5.3872 42.0807 4.22108 46.75 4.25004C46.75 10.03 45.0925 20.1875 34 27.625C31.3159 29.3223 28.4683 30.7461 25.5 31.875Z" stroke="#E3AE25" stroke-width="1.66667" stroke-linecap="round" stroke-linejoin="round"/>
<path d="M19.125 25.5H8.5C8.5 25.5 9.66875 19.0612 12.75 17C16.1925 14.705 23.375 17 23.375 17" stroke="#E3AE25" stroke-width="1.66667" stroke-linecap="round" stroke-linejoin="round"/>
<path d="M25.5 31.875V42.5C25.5 42.5 31.9387 41.3313 34 38.25C36.295 34.8075 34 27.625 34 27.625" stroke="#E3AE25" stroke-width="1.66667" stroke-linecap="round" stroke-linejoin="round"/>
</svg>
