<svg width="47" height="47" viewBox="0 0 47 47" fill="none" xmlns="http://www.w3.org/2000/svg">
<path d="M19.5834 39.1667C19.5833 39.5306 19.6845 39.8874 19.8758 40.1969C20.0671 40.5065 20.3409 40.7567 20.6664 40.9194L24.5831 42.8777C24.8817 43.0269 25.2135 43.0973 25.547 43.0822C25.8805 43.0671 26.2047 42.967 26.4886 42.7914C26.7725 42.6158 27.0068 42.3705 27.1693 42.0789C27.3317 41.7872 27.4169 41.4588 27.4168 41.125V27.4167C27.4172 26.4461 27.778 25.5102 28.4292 24.7905L42.5743 9.14542C42.8278 8.86451 42.9945 8.51617 43.0543 8.14252C43.114 7.76887 43.0642 7.38592 42.9109 7.03996C42.7576 6.69401 42.5074 6.39988 42.1905 6.19313C41.8735 5.98639 41.5035 5.87589 41.1251 5.875H5.87511C5.49638 5.87514 5.12582 5.98509 4.80831 6.19154C4.49079 6.39799 4.23996 6.69207 4.08618 7.03818C3.9324 7.38428 3.88228 7.76755 3.94189 8.14156C4.0015 8.51556 4.16828 8.86426 4.42202 9.14542L18.571 24.7905C19.2222 25.5102 19.583 26.4461 19.5834 27.4167V39.1667Z" stroke="#E3AE25" stroke-width="2.66667" stroke-linecap="round" stroke-linejoin="round"/>
</svg>
