<svg width="82" height="84" viewBox="0 0 82 84" fill="none" xmlns="http://www.w3.org/2000/svg">
<g clip-path="url(#clip0_6_1469)">
<path d="M47.8332 57.75C49.7201 57.75 51.2498 56.183 51.2498 54.25C51.2498 52.317 49.7201 50.75 47.8332 50.75C45.9462 50.75 44.4165 52.317 44.4165 54.25C44.4165 56.183 45.9462 57.75 47.8332 57.75Z" stroke="#EC7D44" stroke-width="1.5"/>
<path d="M59.2962 57.7499C59.8265 55.922 59.9329 53.9924 59.6068 52.1149C59.2807 50.2374 58.5313 48.4638 57.4181 46.9353C56.3049 45.4068 54.8588 44.1657 53.1948 43.3107C51.5308 42.4557 49.6949 42.0105 47.8333 42.0105C45.9718 42.0105 44.1359 42.4557 42.4719 43.3107C40.8079 44.1657 39.3617 45.4068 38.2485 46.9353C37.1354 48.4638 36.3859 50.2374 36.0599 52.1149C35.7338 53.9924 35.8401 55.922 36.3704 57.7499C37.1045 60.2805 38.617 62.5004 40.6826 64.0791C42.7481 65.6577 45.2563 66.5105 47.8333 66.5105C50.4104 66.5105 52.9185 65.6577 54.9841 64.0791C57.0497 62.5004 58.5622 60.2805 59.2962 57.7499ZM47.8333 61.2499C46.4818 61.2499 45.1607 60.8394 44.0369 60.0702C42.9132 59.3011 42.0374 58.2078 41.5202 56.9287C41.003 55.6496 40.8676 54.2422 41.1313 52.8843C41.395 51.5264 42.0458 50.2792 43.0014 49.3002C43.9571 48.3212 45.1747 47.6545 46.5002 47.3844C47.8258 47.1143 49.1997 47.253 50.4483 47.7828C51.697 48.3126 52.7642 49.2098 53.515 50.3609C54.2659 51.5121 54.6667 52.8655 54.6667 54.2499C54.6667 56.1065 53.9467 57.8869 52.6652 59.1997C51.3837 60.5124 49.6456 61.2499 47.8333 61.2499Z" stroke="#EC7D44" stroke-width="1.5"/>
<path d="M25.6248 57.75C25.6248 56.0194 25.1239 54.3277 24.1853 52.8888C23.2467 51.4498 21.9127 50.3283 20.3519 49.6661C18.7911 49.0038 17.0737 48.8305 15.4168 49.1681C13.7599 49.5058 12.2379 50.3391 11.0433 51.5628C9.84873 52.7865 9.03522 54.3456 8.70563 56.043C8.37605 57.7403 8.5452 59.4996 9.1917 61.0985C9.8382 62.6973 10.933 64.0639 12.3377 65.0254C13.7423 65.9868 15.3938 66.5 17.0832 66.5C19.3486 66.5 21.5212 65.5781 23.123 63.9372C24.7249 62.2962 25.6248 60.0707 25.6248 57.75ZM17.0832 61.25C16.4074 61.25 15.7468 61.0447 15.185 60.6602C14.6231 60.2756 14.1852 59.7289 13.9266 59.0894C13.668 58.4499 13.6003 57.7461 13.7322 57.0672C13.864 56.3883 14.1894 55.7646 14.6672 55.2751C15.1451 54.7856 15.7538 54.4523 16.4166 54.3173C17.0794 54.1822 17.7664 54.2515 18.3907 54.5164C19.015 54.7813 19.5486 55.2299 19.924 55.8055C20.2995 56.3811 20.4998 57.0578 20.4998 57.75C20.4998 58.6783 20.1399 59.5685 19.4991 60.2249C18.8584 60.8813 17.9893 61.25 17.0832 61.25Z" stroke="#EC7D44" stroke-width="1.5"/>
<path d="M7.27766 50.75H1.7085V57.75H5.12516C5.12745 55.2462 5.87867 52.8032 7.27766 50.75Z" stroke="#EC7D44" stroke-width="1.5"/>
<path d="M23.2164 47.25H34.0472C35.4395 44.344 37.6775 41.9519 40.4526 40.4036C43.2277 38.8552 46.4034 38.2268 49.5418 38.605L48.9781 36.75H23.9168C23.4638 36.75 23.0292 36.5656 22.7089 36.2374C22.3885 35.9092 22.2085 35.4641 22.2085 35C22.2085 34.5359 22.3885 34.0908 22.7089 33.7626C23.0292 33.4344 23.4638 33.25 23.9168 33.25H47.8335L46.1252 28L49.5418 14H32.4585L28.1877 19.25H32.4585C33.8177 19.25 35.1213 19.8031 36.0824 20.7877C37.0435 21.7723 37.5835 23.1076 37.5835 24.5C37.5835 25.8924 37.0435 27.2277 36.0824 28.2123C35.1213 29.1969 33.8177 29.75 32.4585 29.75H10.0793L1.7085 42V47.25H10.9335C12.7895 46.1121 14.912 45.5111 17.075 45.5111C19.238 45.5111 21.3605 46.1121 23.2164 47.25Z" stroke="#EC7D44" stroke-width="1.5"/>
<path d="M75.1667 17.5C75.1667 16.5717 74.8067 15.6815 74.166 15.0251C73.5252 14.3687 72.6562 14 71.75 14H52.9584C52.9584 14.595 52.9584 14.21 51.3525 21H71.75C72.6562 21 73.5252 20.6313 74.166 19.9749C74.8067 19.3185 75.1667 18.4283 75.1667 17.5Z" stroke="#EC7D44" stroke-width="1.5"/>
<path d="M52.9582 39.3925C55.4044 40.2565 57.5888 41.7583 59.2961 43.75H66.6249L69.512 24.5H50.4982L49.6782 27.86C52.9582 38.15 53.2145 38.115 52.9582 39.3925Z" stroke="#EC7D44" stroke-width="1.5"/>
<path d="M26.8721 50.75C28.2771 52.8011 29.0344 55.2443 29.0417 57.75H32.8342C32.3216 55.4462 32.3216 53.0538 32.8342 50.75H26.8721Z" stroke="#EC7D44" stroke-width="1.5"/>
<path d="M5.12484 26.25H32.4582C32.9112 26.25 33.3458 26.0656 33.6661 25.7374C33.9865 25.4092 34.1665 24.9641 34.1665 24.5C34.1665 24.0359 33.9865 23.5908 33.6661 23.2626C33.3458 22.9344 32.9112 22.75 32.4582 22.75H5.12484C4.67176 22.75 4.23724 22.9344 3.91686 23.2626C3.59649 23.5908 3.4165 24.0359 3.4165 24.5C3.4165 24.9641 3.59649 25.4092 3.91686 25.7374C4.23724 26.0656 4.67176 26.25 5.12484 26.25Z" stroke="#EC7D44" stroke-width="1.5"/>
<path d="M80.2917 66.5H76.875C77.5921 66.5 78.291 66.2689 78.8728 65.8394C79.4545 65.4098 79.8896 64.8037 80.1163 64.1068C80.3431 63.4099 80.3501 62.6576 80.1363 61.9564C79.9224 61.2552 79.4987 60.6408 78.925 60.2L66.625 50.75H62.8325C63.3451 53.0538 63.3451 55.4462 62.8325 57.75H66.625V66.5H1.70833C1.25526 66.5 0.820734 66.6844 0.500359 67.0126C0.179985 67.3408 0 67.7859 0 68.25C0 68.7141 0.179985 69.1592 0.500359 69.4874C0.820734 69.8156 1.25526 70 1.70833 70H80.2917C80.7447 70 81.1793 69.8156 81.4996 69.4874C81.82 69.1592 82 68.7141 82 68.25C82 67.7859 81.82 67.3408 81.4996 67.0126C81.1793 66.6844 80.7447 66.5 80.2917 66.5Z" stroke="#EC7D44" stroke-width="1.5"/>
</g>
<defs>
<clipPath id="clip0_6_1469">
<rect width="82" height="84" fill="white"/>
</clipPath>
</defs>
</svg>
