<svg width="82" height="65" viewBox="0 0 82 65" fill="none" xmlns="http://www.w3.org/2000/svg">
<path d="M14.7139 19.2502L1.05127 7.39303L4.14604 3.7373L17.2911 15.1454C18.2863 12.369 20.9172 10.3803 23.9987 10.3803C27.9322 10.3803 31.1321 13.6203 31.1321 17.6028V18.0153C33.9 19.009 35.8877 21.6864 35.8877 24.8254H12.1097C12.1099 22.5827 13.1251 20.5761 14.7139 19.2502Z" stroke="#EC7D44" stroke-width="1.5"/>
<path d="M43.021 7.97266H47.7766V12.7877H43.021V7.97266Z" stroke="#EC7D44" stroke-width="1.5"/>
<path d="M21.6211 0.75H26.3767V5.56503H21.6211V0.75Z" stroke="#EC7D44" stroke-width="1.5"/>
<path d="M76.8793 37.4471C82.4418 31.8151 82.4418 22.6515 76.8793 17.0196C71.317 11.3877 62.2662 11.3877 56.7041 17.0196C51.1416 22.6515 51.1416 31.8153 56.7041 37.4471C62.2792 43.0919 71.3034 43.0929 76.8793 37.4471ZM70.1544 34.042L66.7916 30.6373L63.4289 34.042L60.0663 30.6373L63.4289 27.2326L60.0663 23.8279L63.4289 20.4232L66.7916 23.8279L70.1544 20.4232L73.5171 23.8279L70.1543 27.2326L73.5171 30.6373L70.1544 34.042Z" stroke="#EC7D44" stroke-width="1.5"/>
<path d="M69.5904 46.2868C66.8908 51.0919 63.064 55.1651 58.4281 58.1371C47.0824 65.4102 32.1192 65.1823 20.8658 56.7549C15.6958 52.8831 11.8074 47.6965 9.54053 41.6777H54.2107C58.5381 45.5527 64.1614 47.0927 69.5904 46.2868Z" stroke="#EC7D44" stroke-width="1.5"/>
<path d="M47.9318 29.6401C48.2416 32.1512 49.0388 34.6107 50.3207 36.8627H8.12109C7.61177 34.5006 7.35449 32.0826 7.35449 29.6401H47.9318Z" stroke="#EC7D44" stroke-width="1.5"/>
<path d="M40.6432 24.8251C40.6432 22.1614 39.769 19.6427 38.2568 17.6025H45.3988C46.9445 17.6025 48.4512 17.9035 49.8502 18.475C48.8391 20.4835 48.2012 22.6352 47.9306 24.8251H40.6432Z" stroke="#EC7D44" stroke-width="1.5"/>
</svg>
