<svg width="78" height="79" viewBox="0 0 78 79" fill="none" xmlns="http://www.w3.org/2000/svg">
<path d="M52.1211 10.7317V16.595L60.0344 23.1964V10.7317H52.1211Z" stroke="#EC7D44" stroke-width="1.5"/>
<path d="M25.5194 55.3803C26.4762 53.6238 27.8887 51.0822 29.5413 48.2493L28.2385 44.6844C28.1824 44.5325 28.1565 44.3708 28.1622 44.2087C28.1679 44.0466 28.205 43.8872 28.2715 43.7396C28.338 43.592 28.4325 43.4592 28.5497 43.3486C28.6669 43.238 28.8044 43.1519 28.9545 43.0952C29.1045 43.0384 29.2641 43.0122 29.4242 43.0179C29.5843 43.0237 29.7416 43.0613 29.8873 43.1286C30.033 43.196 30.1642 43.2917 30.2734 43.4104C30.3826 43.5291 30.4676 43.6684 30.5236 43.8204L31.1488 45.5263C32.5797 43.1489 34.1214 40.6925 35.6582 38.4089L34.2286 34.7058C34.1108 34.4008 34.1174 34.0609 34.247 33.7609C34.3766 33.4609 34.6186 33.2253 34.9197 33.106C35.2207 32.9867 35.5563 32.9934 35.8525 33.1246C36.1487 33.2559 36.3813 33.5009 36.4992 33.8059L37.3413 35.9858C38.5967 34.1904 39.9817 32.4918 41.4851 30.9039C41.7149 30.679 42.0228 30.5546 42.3423 30.5574C42.6619 30.5602 42.9676 30.6901 43.1935 30.9189C43.4195 31.1478 43.5477 31.4574 43.5504 31.781C43.5532 32.1047 43.4304 32.4165 43.2084 32.6493C40.8429 35.2478 38.7136 38.0571 36.8465 41.043L40.2322 41.3467C40.5554 41.3609 40.8598 41.5046 41.0784 41.7462C41.2971 41.9878 41.412 42.3074 41.3979 42.6348C41.3839 42.9621 41.242 43.2705 41.0035 43.4919C40.765 43.7133 40.4494 43.8297 40.1262 43.8154C40.09 43.8173 40.0538 43.8173 40.0177 43.8154L35.3438 43.4019C31.8472 48.9566 28.6199 54.7903 27.1684 57.4738C30.6499 56.7111 33.9445 55.2472 36.8562 53.1691C39.7679 51.091 42.2373 48.4411 44.1176 45.3769C47.6563 39.2985 48.7016 32.0573 47.0292 25.2072C47.0034 25.0963 46.9558 24.9918 46.8892 24.9C46.8226 24.8081 46.7384 24.7309 46.6416 24.6728C46.5085 24.5923 46.3566 24.5497 46.2016 24.5493C46.1247 24.5494 46.0481 24.5594 45.9737 24.5789C40.3093 26.0549 35.2459 29.2959 31.4986 33.8442C25.2282 41.5664 25.0612 50.6563 25.5194 55.3803Z" stroke="#EC7D44" stroke-width="1.5"/>
<path d="M7.05273 35.4968H13.9996C14.3228 35.4968 14.6328 35.6269 14.8614 35.8584C15.09 36.0899 15.2184 36.4038 15.2184 36.7312V63.1876H62.785V36.7312C62.785 36.4038 62.9134 36.0899 63.1419 35.8584C63.3705 35.6269 63.6805 35.4968 64.0037 35.4968H70.9506L38.9998 8.8479L7.05273 35.4968ZM47.8967 22.547C48.2732 22.7733 48.6007 23.0743 48.8595 23.4319C49.1184 23.7895 49.3033 24.1964 49.4031 24.6281C51.2252 32.1088 50.0765 40.015 46.2039 46.6469C44.1069 50.0665 41.3404 53.0147 38.0751 55.3096C34.8097 57.6046 31.1148 59.1976 27.2182 59.9905C26.9939 60.0392 26.7651 60.0636 26.5357 60.0634C25.7454 60.0658 24.9809 59.7793 24.3824 59.2566C23.784 58.734 23.3918 58.0101 23.278 57.2181C22.6405 52.846 21.9836 41.665 29.6155 32.2714C33.6857 27.3232 39.1884 23.7958 45.3459 22.1878C45.773 22.0704 46.2191 22.0418 46.6575 22.1035C47.0959 22.1652 47.5174 22.3161 47.8967 22.547Z" stroke="#EC7D44" stroke-width="1.5"/>
<path d="M15.2163 65.6565H62.7841V70.5175H15.2163V65.6565Z" stroke="#EC7D44" stroke-width="1.5"/>
</svg>
