<svg width="33" height="33" viewBox="0 0 33 33" fill="none" xmlns="http://www.w3.org/2000/svg">
<path d="M8.25 30.25V5.5C8.25 4.77065 8.53973 4.07118 9.05546 3.55546C9.57118 3.03973 10.2707 2.75 11 2.75H22C22.7293 2.75 23.4288 3.03973 23.9445 3.55546C24.4603 4.07118 24.75 4.77065 24.75 5.5V30.25H8.25Z" stroke="#E3AE25" stroke-width="1.66667" stroke-linecap="round" stroke-linejoin="round"/>
<path d="M8.25 16.5H5.5C4.77065 16.5 4.07118 16.7897 3.55546 17.3055C3.03973 17.8212 2.75 18.5207 2.75 19.25V27.5C2.75 28.2293 3.03973 28.9288 3.55546 29.4445C4.07118 29.9603 4.77065 30.25 5.5 30.25H8.25" stroke="#E3AE25" stroke-width="1.66667" stroke-linecap="round" stroke-linejoin="round"/>
<path d="M24.75 12.375H27.5C28.2293 12.375 28.9288 12.6647 29.4445 13.1805C29.9603 13.6962 30.25 14.3957 30.25 15.125V27.5C30.25 28.2293 29.9603 28.9288 29.4445 29.4445C28.9288 29.9603 28.2293 30.25 27.5 30.25H24.75" stroke="#E3AE25" stroke-width="1.66667" stroke-linecap="round" stroke-linejoin="round"/>
<path d="M13.75 8.25H19.25" stroke="#E3AE25" stroke-width="1.66667" stroke-linecap="round" stroke-linejoin="round"/>
<path d="M13.75 13.75H19.25" stroke="#E3AE25" stroke-width="1.66667" stroke-linecap="round" stroke-linejoin="round"/>
<path d="M13.75 19.25H19.25" stroke="#E3AE25" stroke-width="1.66667" stroke-linecap="round" stroke-linejoin="round"/>
<path d="M13.75 24.75H19.25" stroke="#E3AE25" stroke-width="1.66667" stroke-linecap="round" stroke-linejoin="round"/>
</svg>
