<svg width="73" height="74" viewBox="0 0 73 74" fill="none" xmlns="http://www.w3.org/2000/svg">
<path d="M26.2658 36.7501C31.917 36.7501 37.4931 32.4923 42.9429 32.4923C46.6838 32.4923 49.6731 34.762 50.7268 37.9485C51.2611 39.5642 53.2716 40.0751 54.5208 38.935C54.9069 38.5805 55.1667 38.1064 55.2597 37.5867C55.3526 37.0669 55.2735 36.5305 55.0347 36.0611C53.4594 32.9167 51.1409 30.2169 48.2862 28.2025C45.4314 26.1881 42.1292 24.922 38.6743 24.517C35.2194 24.1121 31.7195 24.5809 28.4868 25.8818C25.2542 27.1826 22.3895 29.2749 20.1484 31.972C19.8648 32.3111 19.6743 32.72 19.5959 33.1575C19.5175 33.595 19.5541 34.0457 19.702 34.4643C19.8498 34.8829 20.1038 35.2547 20.4383 35.5422C20.7727 35.8297 21.176 36.0229 21.6074 36.1023C23.2808 36.407 24.9889 36.7501 26.2658 36.7501Z" stroke="#EC7D44" stroke-width="1.5"/>
<path d="M20.7188 72.7502H1.85938C1.56515 72.7502 1.28298 72.6317 1.07493 72.4207C0.86688 72.2098 0.75 71.9236 0.75 71.6252V59.2502C0.75 55.3359 1.35794 49.7108 4.25438 45.1419C7.31098 40.3202 12.1039 37.8752 18.5 37.8752C20.0713 37.8752 24.582 39.0002 26.2656 39.0002C30.4456 39.0002 34.7428 37.2556 38.5342 35.7164C49.5309 31.2517 51.5509 43.4559 45.6797 45.7093C41.349 47.3715 33.9481 48.5318 30.4591 51.9349L49.0202 46.9817L59.6469 37.2829C61.1416 30.4038 61.5123 21.0002 70.6406 21.0002C70.801 21.0026 70.9591 21.0397 71.1041 21.1092C71.2491 21.1786 71.3778 21.2788 71.4815 21.4029C71.5852 21.527 71.6615 21.6722 71.7052 21.8287C71.7489 21.9852 71.7591 22.1493 71.735 22.3102C71.6198 23.0133 68.651 42.6665 68.097 43.1708L50.347 61.1708C49.9633 61.6629 25.8882 67.0701 25.292 67.2096C24.3056 67.4366 23.4249 67.9977 22.7952 68.8004C22.1655 69.6031 21.8244 70.5995 21.8281 71.6252C21.8281 71.9236 21.7112 72.2098 21.5032 72.4207C21.2952 72.6317 21.013 72.7502 20.7188 72.7502Z" stroke="#EC7D44" stroke-width="1.5"/>
<path d="M57.2423 2.38791C56.8817 2.26894 48.3608 -0.505025 42.6892 1.51041C39.4949 2.64554 37.4311 4.23038 36.2826 5.91704C35.1592 4.21013 33.103 2.6063 29.8956 1.46612C24.2772 -0.530759 15.8204 2.26965 15.4627 2.38974C15.303 2.44595 15.158 2.53802 15.0383 2.65907C14.9187 2.78012 14.8276 2.92701 14.7718 3.08878C14.7161 3.25054 14.6971 3.423 14.7162 3.59326C14.7354 3.76353 14.7923 3.92719 14.8826 4.07204C16.617 6.7688 22.3552 14.8921 30.6381 14.8921C32.2698 14.8921 33.8944 14.4655 35.1408 13.5703V21.1386C35.1408 21.4369 35.2576 21.7231 35.4657 21.9341C35.6737 22.145 35.9559 22.2636 36.2501 22.2636C36.5444 22.2636 36.8265 22.145 37.0346 21.9341C37.2426 21.7231 37.3595 21.4369 37.3595 21.1386V13.7016C39.9073 15.5006 44.0176 15.0316 46.9749 13.9808C52.6453 11.9656 57.6156 4.39815 57.8244 4.0771C57.9157 3.93183 57.9733 3.76746 57.9928 3.59637C58.0124 3.42527 57.9935 3.2519 57.9374 3.0893C57.8814 2.92669 57.7897 2.7791 57.6693 2.65761C57.5489 2.53613 57.4029 2.44391 57.2423 2.38791Z" stroke="#EC7D44" stroke-width="1.5"/>
</svg>
