<svg width="64" height="64" viewBox="0 0 64 64" fill="none" xmlns="http://www.w3.org/2000/svg">
<g clip-path="url(#clip0_52_645)">
<path d="M42.9968 20.5679C42.9968 20.0156 43.4446 19.5679 43.9968 19.5679H51.6187C52.1709 19.5679 52.6187 20.0156 52.6187 20.5679C52.6187 21.1201 52.1709 21.5679 51.6187 21.5679H43.9968C43.4444 21.5679 42.9968 21.1203 42.9968 20.5679ZM38.7978 19.5679H28.2317C27.6794 19.5679 27.2317 20.0156 27.2317 20.5679C27.2317 21.1201 27.6794 21.5679 28.2317 21.5679H38.7978C39.3501 21.5679 39.7978 21.1201 39.7978 20.5679C39.7978 20.0156 39.3502 19.5679 38.7978 19.5679ZM6.57518 22.8131V4C6.57518 1.79437 8.36955 0 10.5752 0H42.0752C44.2808 0 46.0752 1.79437 46.0752 4V12.2051H55.6752C57.8808 12.2051 59.6752 13.9995 59.6752 16.2051V35.0184C59.6752 35.4461 59.4031 35.8265 58.9982 35.9647C58.8922 36.001 58.7831 36.0185 58.6753 36.0185C58.3714 36.0185 58.0769 35.8797 57.8838 35.6299L52.7072 28.9307H24.1752C21.9696 28.9307 20.1752 27.1364 20.1752 24.9307V16.7255H13.5431L8.36643 23.4246C8.17343 23.6745 7.8788 23.8132 7.57493 23.8132C7.46705 23.8132 7.35818 23.7957 7.25205 23.7595C6.8473 23.6214 6.57518 23.241 6.57518 22.8131ZM42.0752 16.7255H22.1752V24.9307C22.1752 26.0335 23.0724 26.9307 24.1752 26.9307H53.1983C53.5081 26.9307 53.8002 27.0742 53.9896 27.3193L57.6752 32.0887V16.2051C57.6752 15.1024 56.7779 14.2051 55.6752 14.2051H45.7903C45.2007 15.6803 43.7582 16.7255 42.0752 16.7255ZM8.57518 19.8836L12.2607 15.1141C12.4501 14.8691 12.7423 14.7256 13.0519 14.7256H42.0752C43.1779 14.7256 44.0752 13.8285 44.0752 12.7256V4C44.0752 2.89725 43.1779 2 42.0752 2H10.5752C9.47243 2 8.57518 2.89725 8.57518 4V19.8836ZM14.6317 9.36275H22.2536C22.8058 9.36275 23.2536 8.915 23.2536 8.36275C23.2536 7.8105 22.8058 7.36275 22.2536 7.36275H14.6317C14.0794 7.36275 13.6317 7.8105 13.6317 8.36275C13.6317 8.915 14.0794 9.36275 14.6317 9.36275ZM27.4524 9.36275H38.0186C38.5708 9.36275 39.0186 8.915 39.0186 8.36275C39.0186 7.8105 38.5708 7.36275 38.0186 7.36275H27.4524C26.9002 7.36275 26.4524 7.8105 26.4524 8.36275C26.4524 8.915 26.9002 9.36275 27.4524 9.36275ZM26.8152 58.8726C27.1964 60.1037 26.9852 61.3533 26.2203 62.3909C25.4554 63.4285 24.3243 64 23.0353 64H3.96505C2.67605 64 1.54505 63.4286 0.78018 62.391C0.0153049 61.3534 -0.195945 60.1039 0.185305 58.8726C1.0468 56.0905 2.81155 53.5921 5.15443 51.8377C6.40293 50.9029 7.77468 50.197 9.22581 49.7303C7.25456 48.3686 5.95955 46.0945 5.95955 43.5228C5.95955 39.3647 9.34231 35.982 13.5003 35.982C17.6583 35.982 21.0411 39.3647 21.0411 43.5228C21.0411 46.0946 19.7461 48.3687 17.7748 49.7304C19.2258 50.197 20.5976 50.903 21.8461 51.8377C24.1888 53.5921 25.9536 56.0905 26.8152 58.8726ZM13.4989 49.0635H13.5002H13.5016C16.5562 49.0627 19.0411 46.5775 19.0411 43.5228C19.0411 40.4676 16.5554 37.982 13.5003 37.982C10.4452 37.982 7.95955 40.4675 7.95955 43.5228C7.95955 46.5774 10.4443 49.0626 13.4989 49.0635ZM24.9047 59.4642C23.3488 54.4399 18.7664 51.064 13.5016 51.0635C13.5012 51.0635 13.5007 51.0635 13.5003 51.0635C13.4998 51.0635 13.4994 51.0635 13.4989 51.0635C8.23405 51.064 3.65156 54.4399 2.0958 59.4642C1.9018 60.0909 2.0008 60.6763 2.39005 61.2043C2.7793 61.7324 3.3093 62 3.96518 62H23.0354C23.6914 62 24.2213 61.7323 24.6106 61.2043C24.9997 60.6761 25.0987 60.0907 24.9047 59.4642ZM63.2203 62.391C62.4554 63.4285 61.3244 64 60.0354 64H40.9651C39.6761 64 38.5449 63.4286 37.7801 62.391C37.0152 61.3534 36.8038 60.1037 37.1853 58.8726C38.0468 56.0905 39.8116 53.5921 42.1543 51.8377C43.4028 50.9029 44.7747 50.197 46.2258 49.7303C44.2546 48.3686 42.9596 46.0945 42.9596 43.5228C42.9596 39.3647 46.3423 35.982 50.5003 35.982C54.6583 35.982 58.0411 39.3647 58.0411 43.5228C58.0411 46.0946 56.7461 48.3687 54.7748 49.7304C56.2258 50.197 57.5976 50.903 58.8461 51.8377C61.1891 53.5921 62.9538 56.0905 63.8153 58.8726C64.1964 60.1039 63.9852 61.3534 63.2203 62.391ZM50.4989 49.0635H50.5002H50.5016C53.5562 49.0627 56.0409 46.5775 56.0409 43.5228C56.0409 40.4676 53.5554 37.982 50.5002 37.982C47.4449 37.982 44.9594 40.4675 44.9594 43.5228C44.9596 46.5774 47.4444 49.0626 50.4989 49.0635ZM61.9047 59.4641C60.3488 54.4399 55.7664 51.064 50.5016 51.0634C50.5012 51.0634 50.5007 51.0634 50.5003 51.0634C50.4998 51.0634 50.4994 51.0634 50.4989 51.0634C45.2341 51.0639 40.6517 54.4398 39.0958 59.4641C38.9017 60.0908 39.0007 60.6761 39.3901 61.2041C39.7793 61.7323 40.3093 61.9999 40.9652 61.9999H60.0354C60.6914 61.9999 61.2213 61.7321 61.6106 61.2041C61.9997 60.6761 62.0987 60.0908 61.9047 59.4641Z" fill="#215C46"/>
</g>
<defs>
<clipPath id="clip0_52_645">
<rect width="64" height="64" fill="white"/>
</clipPath>
</defs>
</svg>
