<svg width="45" height="45" viewBox="0 0 45 45" fill="none" xmlns="http://www.w3.org/2000/svg">
<path d="M23.4375 41.25H33.75C34.7446 41.25 35.6984 40.8549 36.4016 40.1516C37.1049 39.4484 37.5 38.4946 37.5 37.5V13.125L28.125 3.75H11.25C10.2554 3.75 9.30161 4.14509 8.59835 4.84835C7.89509 5.55161 7.5 6.50544 7.5 7.5V25.3125" stroke="#E3AE25" stroke-width="2.66667" stroke-linecap="round" stroke-linejoin="round"/>
<path d="M26.25 3.75V11.25C26.25 12.2446 26.6451 13.1984 27.3484 13.9017C28.0516 14.6049 29.0054 15 30 15H37.5" stroke="#E3AE25" stroke-width="2.66667" stroke-linecap="round" stroke-linejoin="round"/>
<path d="M25.0838 29.2985C25.4537 28.9287 25.747 28.4896 25.9472 28.0064C26.1473 27.5232 26.2504 27.0053 26.2504 26.4823C26.2504 25.9593 26.1473 25.4414 25.9472 24.9581C25.747 24.4749 25.4537 24.0359 25.0838 23.666C24.714 23.2962 24.2749 23.0028 23.7917 22.8027C23.3085 22.6025 22.7906 22.4995 22.2676 22.4995C21.7446 22.4995 21.2266 22.6025 20.7434 22.8027C20.2602 23.0028 19.8212 23.2962 19.4513 23.666L10.0576 33.0635C9.61179 33.5091 9.28549 34.0598 9.10883 34.6648L7.53945 40.046C7.4924 40.2074 7.48957 40.3784 7.53128 40.5412C7.57299 40.704 7.6577 40.8526 7.77654 40.9715C7.89538 41.0903 8.04398 41.175 8.20678 41.2167C8.36959 41.2584 8.54061 41.2556 8.70195 41.2085L14.0832 39.6392C14.6882 39.4625 15.2389 39.1362 15.6845 38.6904L25.0838 29.2985Z" stroke="#E3AE25" stroke-width="2.66667" stroke-linecap="round" stroke-linejoin="round"/>
</svg>
