<svg width="59" height="59" viewBox="0 0 59 59" fill="none" xmlns="http://www.w3.org/2000/svg">
<path d="M54.3906 51.625V28.5545C55.1644 27.9745 55.7361 27.1658 56.025 26.2429C56.3138 25.32 56.3051 24.3296 56.0001 23.4119C55.695 22.4942 55.1092 21.6957 54.3253 21.1294C53.5415 20.563 52.5993 20.2575 51.6323 20.2561C50.6653 20.2546 49.7222 20.5573 48.9367 21.1214C48.1512 21.6854 47.5629 22.4822 47.2552 23.399C46.9475 24.3157 46.9358 25.3061 47.2219 26.2298C47.508 27.1536 48.0774 27.964 48.8494 28.5463C47.7631 29.9452 46.5302 31.2238 45.1719 32.3604V9.21875H47.9375C48.182 9.21875 48.4165 9.12162 48.5894 8.94874C48.7622 8.77585 48.8594 8.54137 48.8594 8.29688V5.53125C48.8583 4.55358 48.4695 3.61624 47.7782 2.92493C47.0869 2.23361 46.1495 1.84477 45.1719 1.84375H13.8281C12.8505 1.84477 11.9131 2.23361 11.2218 2.92493C10.5305 3.61624 10.1417 4.55358 10.1406 5.53125V8.29688C10.1406 8.54137 10.2378 8.77585 10.4106 8.94874C10.5835 9.12162 10.818 9.21875 11.0625 9.21875H13.8281V32.3604C12.4698 31.2238 11.2369 29.9452 10.1506 28.5463C10.9225 27.964 11.4917 27.1537 11.7776 26.2301C12.0636 25.3064 12.0519 24.3162 11.7442 23.3996C11.4365 22.483 10.8483 21.6864 10.0629 21.1225C9.27746 20.5585 8.33459 20.2559 7.3677 20.2573C6.4008 20.2587 5.45884 20.5642 4.6751 21.1304C3.89136 21.6967 3.30554 22.4951 3.00051 23.4126C2.69549 24.3301 2.68673 25.3203 2.97546 26.2431C3.26418 27.1659 3.83578 27.9745 4.60938 28.5545V51.625C3.38733 51.6264 2.21576 52.1125 1.35164 52.9766C0.487531 53.8408 0.00143946 55.0123 0 56.2344C0 56.4789 0.0971259 56.7134 0.270011 56.8862C0.442896 57.0591 0.677379 57.1562 0.921875 57.1562H13.8281C14.0726 57.1562 14.3071 57.0591 14.48 56.8862C14.6529 56.7134 14.75 56.4789 14.75 56.2344C14.7486 55.0123 14.2625 53.8408 13.3984 52.9766C12.5342 52.1125 11.3627 51.6264 10.1406 51.625V36.4935C11.2998 37.4743 12.5326 38.3646 13.8281 39.1566V50.7031C13.8281 50.9476 13.9253 51.1821 14.0981 51.355C14.271 51.5279 14.5055 51.625 14.75 51.625H44.25C44.4945 51.625 44.729 51.5279 44.9019 51.355C45.0747 51.1821 45.1719 50.9476 45.1719 50.7031V39.1566C46.4674 38.3646 47.7002 37.4743 48.8594 36.4935V51.625C47.6373 51.6264 46.4658 52.1125 45.6016 52.9766C44.7375 53.8408 44.2514 55.0123 44.25 56.2344C44.25 56.4789 44.3471 56.7134 44.52 56.8862C44.6929 57.0591 44.9274 57.1562 45.1719 57.1562H58.0781C58.3226 57.1562 58.5571 57.0591 58.73 56.8862C58.9029 56.7134 59 56.4789 59 56.2344C58.9986 55.0123 58.5125 53.8408 57.6484 52.9766C56.7842 52.1125 55.6127 51.6264 54.3906 51.625ZM51.625 22.125C52.172 22.125 52.7067 22.2872 53.1615 22.5911C53.6163 22.895 53.9708 23.3269 54.1801 23.8323C54.3894 24.3376 54.4442 24.8937 54.3375 25.4302C54.2308 25.9667 53.9674 26.4594 53.5806 26.8462C53.1938 27.233 52.701 27.4964 52.1645 27.6031C51.6281 27.7098 51.072 27.6551 50.5666 27.4457C50.0613 27.2364 49.6294 26.8819 49.3255 26.4271C49.0216 25.9723 48.8594 25.4376 48.8594 24.8906C48.8602 24.1574 49.1518 23.4544 49.6703 22.9359C50.1888 22.4174 50.8918 22.1258 51.625 22.125ZM52.5469 29.4068V51.625H50.7031V29.4068C51.3114 29.5311 51.9386 29.5311 52.5469 29.4068ZM11.9844 7.375V5.53125C11.9849 5.04243 12.1794 4.57379 12.525 4.22814C12.8707 3.88249 13.3393 3.68806 13.8281 3.6875H45.1719C45.6607 3.68806 46.1293 3.88249 46.475 4.22814C46.8206 4.57379 47.0151 5.04243 47.0156 5.53125V7.375H11.9844ZM40.5625 11.0625H18.4375C18.193 11.0625 17.9585 11.1596 17.7856 11.3325C17.6128 11.5054 17.5156 11.7399 17.5156 11.9844V34.8969C16.884 34.5432 16.2711 34.1567 15.6719 33.7465V9.21875H43.3281V33.7465C42.7289 34.1567 42.116 34.5432 41.4844 34.8969V11.9844C41.4844 11.7399 41.3872 11.5054 41.2144 11.3325C41.0415 11.1596 40.807 11.0625 40.5625 11.0625ZM39.6406 12.9062V35.8231C36.4529 37.2594 32.9964 38.0022 29.5 38.0022C26.0036 38.0022 22.5471 37.2594 19.3594 35.8231V12.9062H39.6406ZM12.7482 55.3125H2.00176C2.19299 54.7736 2.54627 54.3072 3.01314 53.9771C3.48001 53.6469 4.03759 53.4694 4.60938 53.4688H10.1406C10.7124 53.4694 11.27 53.6469 11.7369 53.9771C12.2037 54.3072 12.557 54.7736 12.7482 55.3125ZM6.45312 51.625V29.4068C7.06143 29.5311 7.68857 29.5311 8.29688 29.4068V51.625H6.45312ZM7.375 27.6562C6.82801 27.6562 6.29331 27.494 5.8385 27.1902C5.3837 26.8863 5.02922 26.4543 4.8199 25.949C4.61057 25.4436 4.5558 24.8876 4.66252 24.3511C4.76923 23.8146 5.03263 23.3218 5.41941 22.935C5.80619 22.5483 6.29897 22.2849 6.83545 22.1781C7.37193 22.0714 7.92801 22.1262 8.43336 22.3355C8.93871 22.5448 9.37064 22.8993 9.67453 23.3541C9.97842 23.8089 10.1406 24.3436 10.1406 24.8906C10.1398 25.6239 9.84818 26.3268 9.3297 26.8453C8.81122 27.3638 8.10824 27.6554 7.375 27.6562ZM17.5156 49.7812H15.6719V40.2013C16.2755 40.5132 16.8922 40.7984 17.5156 41.0679V49.7812ZM39.6406 49.7812H19.3594V41.7978C25.9218 44.1117 33.0782 44.1117 39.6406 41.7978V49.7812ZM43.3281 49.7812H41.4844V41.0679C42.1078 40.7984 42.7245 40.5132 43.3281 40.2013V49.7812ZM29.5 41.6897C22.3019 41.7226 15.3681 38.9795 10.1406 34.031V31.3945C12.6118 34.0602 15.6068 36.1868 18.9381 37.6412C22.2693 39.0955 25.8651 39.8462 29.5 39.8462C33.1349 39.8462 36.7307 39.0955 40.0619 37.6412C43.3932 36.1868 46.3882 34.0602 48.8594 31.3945V34.031C43.6319 38.9795 36.6981 41.7226 29.5 41.6897ZM46.2518 55.3125C46.443 54.7736 46.7963 54.3072 47.2631 53.9771C47.73 53.6469 48.2876 53.4694 48.8594 53.4688H54.3906C54.9624 53.4694 55.52 53.6469 55.9869 53.9771C56.4537 54.3072 56.807 54.7736 56.9982 55.3125H46.2518Z" fill="#215C46"/>
</svg>
