<svg width="43" height="43" viewBox="0 0 43 43" fill="none" xmlns="http://www.w3.org/2000/svg">
<path d="M28.6668 37.625V34.0417C28.6668 32.1409 27.9118 30.3181 26.5678 28.9741C25.2238 27.6301 23.4009 26.875 21.5002 26.875H10.7502C8.84945 26.875 7.02658 27.6301 5.68256 28.9741C4.33855 30.3181 3.5835 32.1409 3.5835 34.0417V37.625" stroke="#E3AE25" stroke-width="2.66667" stroke-linecap="round" stroke-linejoin="round"/>
<path d="M16.1252 19.7083C20.0832 19.7083 23.2918 16.4997 23.2918 12.5417C23.2918 8.58363 20.0832 5.375 16.1252 5.375C12.1671 5.375 8.9585 8.58363 8.9585 12.5417C8.9585 16.4997 12.1671 19.7083 16.1252 19.7083Z" stroke="#E3AE25" stroke-width="2.66667" stroke-linecap="round" stroke-linejoin="round"/>
<path d="M28.6665 19.7083L32.2498 23.2917L39.4165 16.125" stroke="#E3AE25" stroke-width="2.66667" stroke-linecap="round" stroke-linejoin="round"/>
</svg>
