<svg width="31" height="31" viewBox="0 0 31 31" fill="none" xmlns="http://www.w3.org/2000/svg">
<path d="M19.375 27.125V16.7917C19.375 16.4491 19.2389 16.1206 18.9967 15.8783C18.7544 15.6361 18.4259 15.5 18.0833 15.5H12.9167C12.5741 15.5 12.2456 15.6361 12.0033 15.8783C11.7611 16.1206 11.625 16.4491 11.625 16.7917V27.125" stroke="#E3AE25" stroke-width="1.66667" stroke-linecap="round" stroke-linejoin="round"/>
<path d="M3.875 12.9166C3.87491 12.5409 3.95681 12.1696 4.11498 11.8287C4.27315 11.4878 4.50378 11.1855 4.79079 10.943L13.8325 3.19427C14.2987 2.80019 14.8895 2.58398 15.5 2.58398C16.1105 2.58398 16.7013 2.80019 17.1675 3.19427L26.2092 10.943C26.4962 11.1855 26.7269 11.4878 26.885 11.8287C27.0432 12.1696 27.1251 12.5409 27.125 12.9166V24.5416C27.125 25.2268 26.8528 25.8839 26.3684 26.3683C25.8839 26.8528 25.2268 27.125 24.5417 27.125H6.45833C5.77319 27.125 5.11611 26.8528 4.63164 26.3683C4.14717 25.8839 3.875 25.2268 3.875 24.5416V12.9166Z" stroke="#E3AE25" stroke-width="1.66667" stroke-linecap="round" stroke-linejoin="round"/>
</svg>
