<svg width="65" height="65" viewBox="0 0 65 65" fill="none" xmlns="http://www.w3.org/2000/svg">
<path d="M29.648 35.4165H33.5184C34.3546 35.4165 35.0351 34.736 35.0351 33.8998V30.0299C35.0351 29.1937 34.3546 28.5132 33.5184 28.5132H29.648C28.8118 28.5132 28.1313 29.1937 28.1313 30.0299V33.8998C28.1313 34.736 28.8118 35.4165 29.648 35.4165ZM29.4313 30.0299C29.4313 29.9105 29.5287 29.8132 29.648 29.8132H33.5184C33.6377 29.8132 33.7351 29.9105 33.7351 30.0299V33.8998C33.7351 34.0191 33.6377 34.1165 33.5184 34.1165H29.648C29.5287 34.1165 29.4313 34.0191 29.4313 33.8998V30.0299Z" fill="#215C46"/>
<path d="M41.2686 37.452C41.013 37.2015 40.6 37.2049 40.3495 37.4621C40.0981 37.719 40.1032 38.1303 40.3596 38.3813C42.3298 40.3081 45.4764 40.8947 48.0132 39.7943C48.3433 39.6517 48.4939 39.2687 48.3517 38.9395C48.2087 38.6098 47.8236 38.4583 47.4969 38.6018C45.436 39.4947 42.8758 39.0232 41.2686 37.452Z" fill="#215C46"/>
<path d="M20.1227 20.0957H21.4074C22.2436 20.0957 22.9241 19.4153 22.9241 18.5791V17.2943H28.2358V18.5791C28.2358 19.4153 28.9163 20.0957 29.7525 20.0957H33.622C34.4582 20.0957 35.1387 19.4153 35.1387 18.5791V16.9367H40.243V18.5791C40.243 19.4153 40.9235 20.0957 41.7597 20.0957H43.0445V25.027C42.0603 25.2742 41.111 25.6778 40.2363 26.2521C35.9833 29.0455 34.7739 34.8113 37.5389 39.1053C40.3096 43.4061 46.0098 44.6365 50.2859 41.8288C54.5396 39.035 55.7491 33.2692 52.9832 28.9757C51.0518 25.9776 47.6992 24.4589 44.3445 24.7941V20.0957H45.6292C46.4654 20.0957 47.1459 19.4153 47.1459 18.5791V14.7095C47.1459 13.8733 46.4654 13.1929 45.6292 13.1929H41.7597C40.9235 13.1929 40.243 13.8733 40.243 14.7095V15.6367H35.1387V14.7095C35.1387 13.8733 34.4582 13.1929 33.622 13.1929H29.7525C28.9163 13.1929 28.2358 13.8733 28.2358 14.7095V15.9943H22.9241V14.7095C22.9241 13.8733 22.2436 13.1929 21.4074 13.1929H17.5379C16.7017 13.1929 16.0212 13.8733 16.0212 14.7095V18.5791C16.0212 19.4153 16.7017 20.0957 17.5379 20.0957H18.8227V28.2465C18.8227 28.3422 18.8458 28.4314 18.883 28.5132H17.4346C16.5984 28.5132 15.918 29.1936 15.918 30.0298V33.8998C15.918 34.736 16.5984 35.4164 17.4346 35.4164H21.3042C22.1404 35.4164 22.8208 34.736 22.8208 33.8998V30.0298C22.8208 29.1936 22.1404 28.5132 21.3042 28.5132H20.0624C20.0995 28.4314 20.1227 28.3422 20.1227 28.2465V20.0957ZM51.8897 29.6798C54.2714 33.3759 53.232 38.3385 49.5715 40.7421C45.9108 43.1472 41.0171 42.1038 38.6324 38.4011C36.2508 34.7047 37.291 29.7421 40.9506 27.3388C41.6077 26.9071 42.3126 26.5828 43.0445 26.3659V28.5132H41.6556C40.8194 28.5132 40.1389 29.1936 40.1389 30.0298V33.8998C40.1389 34.736 40.8194 35.4164 41.6556 35.4164H45.5251C46.3613 35.4164 47.0418 34.736 47.0418 33.8998V30.0298C47.0418 29.1936 46.3613 28.5132 45.5251 28.5132H44.3445V26.1105C47.4658 25.7449 50.3024 27.2151 51.8897 29.6798ZM45.5251 29.8132C45.6445 29.8132 45.7418 29.9105 45.7418 30.0298V33.8998C45.7418 34.0191 45.6445 34.1164 45.5251 34.1164H41.6556C41.5363 34.1164 41.4389 34.0191 41.4389 33.8998V30.0298C41.4389 29.9105 41.5363 29.8132 41.6556 29.8132H45.5251ZM41.543 14.7095C41.543 14.5902 41.6404 14.4929 41.7597 14.4929H45.6292C45.7486 14.4929 45.8459 14.5902 45.8459 14.7095V18.5791C45.8459 18.6984 45.7486 18.7957 45.6292 18.7957H41.7597C41.6404 18.7957 41.543 18.6984 41.543 18.5791V14.7095ZM29.5358 14.7095C29.5358 14.5902 29.6331 14.4929 29.7525 14.4929H33.622C33.7413 14.4929 33.8387 14.5902 33.8387 14.7095V18.5791C33.8387 18.6984 33.7413 18.7957 33.622 18.7957H29.7525C29.6331 18.7957 29.5358 18.6984 29.5358 18.5791V14.7095ZM17.3212 18.5791V14.7095C17.3212 14.5902 17.4186 14.4929 17.5379 14.4929H21.4074C21.5268 14.4929 21.6241 14.5902 21.6241 14.7095V18.5791C21.6241 18.6984 21.5268 18.7957 21.4074 18.7957H17.5379C17.4186 18.7957 17.3212 18.6984 17.3212 18.5791ZM21.5208 30.0298V33.8998C21.5208 34.0191 21.4235 34.1164 21.3042 34.1164H17.4346C17.3153 34.1164 17.218 34.0191 17.218 33.8998V30.0298C17.218 29.9105 17.3153 29.8132 17.4346 29.8132H21.3042C21.4235 29.8132 21.5208 29.9105 21.5208 30.0298Z" fill="#215C46"/>
<path d="M6.8 43.3345H33.5702C33.929 43.3345 34.2202 43.0434 34.2202 42.6845C34.2202 42.3257 33.929 42.0345 33.5702 42.0345H6.8C6.03659 42.0345 5.41621 41.3617 5.41621 40.5344V7.78258C5.41621 6.95527 6.03659 6.28242 6.8 6.28242H56.8551C57.6185 6.28242 58.2389 6.95527 58.2389 7.78258V40.5344C58.2389 41.3617 57.6185 42.0345 56.8551 42.0345H56.167C55.8081 42.0345 55.517 42.3257 55.517 42.6845C55.517 43.0434 55.8081 43.3345 56.167 43.3345H56.8551C58.3345 43.3345 59.5389 42.0785 59.5389 40.5344V7.78258C59.5389 6.23841 58.3345 4.98242 56.8551 4.98242H6.8C5.32057 4.98242 4.11621 6.23841 4.11621 7.78258V40.5344C4.11621 42.0785 5.32057 43.3345 6.8 43.3345Z" fill="#215C46"/>
<path d="M21.7256 48.2672V51.799C21.7256 52.1579 22.0167 52.449 22.3756 52.449C22.7344 52.449 23.0256 52.1579 23.0256 51.799V48.2672C23.0256 47.7983 23.6722 47.3874 24.4094 47.3874H40.3445C41.0817 47.3874 41.7283 47.7983 41.7283 48.2672V51.799C41.7283 52.1579 42.0195 52.449 42.3783 52.449C42.7372 52.449 43.0283 52.1579 43.0283 51.799V48.2672C43.0283 47.0654 41.824 46.0874 40.3445 46.0874H24.4094C22.9299 46.0874 21.7256 47.0654 21.7256 48.2672Z" fill="#215C46"/>
<path d="M18.7046 55.527C18.7046 55.8858 18.9957 56.177 19.3546 56.177H45.3986C45.7575 56.177 46.0486 55.8858 46.0486 55.527C46.0486 55.1681 45.7575 54.877 45.3986 54.877H19.3546C18.9957 54.877 18.7046 55.1681 18.7046 55.527Z" fill="#215C46"/>
<path d="M54.5219 45.4164C54.5211 45.415 54.5198 45.4144 54.519 45.4131L52.6328 42.1135C52.4551 41.8016 52.0565 41.6933 51.7458 41.8714C51.4344 42.05 51.3261 42.4469 51.5038 42.7584L53.0704 45.499L50.6259 46.8998L49.0612 44.1629C48.8818 43.8515 48.4857 43.7419 48.1742 43.9213C47.8628 44.0994 47.7544 44.4964 47.9322 44.8078L55.8058 58.5806C56.573 59.9227 58.2572 60.4227 59.5636 59.6592C60.8441 58.9115 61.2665 57.2171 60.5039 55.8828L54.5233 45.4205C54.5225 45.4192 54.5226 45.4177 54.5219 45.4164ZM58.9085 58.5366C58.2627 58.9142 57.3653 58.688 56.9348 57.9356L51.2712 48.0287L53.7158 46.6279L59.3749 56.5277C59.7854 57.2459 59.5755 58.1468 58.9085 58.5366Z" fill="#215C46"/>
</svg>
