<svg width="43" height="43" viewBox="0 0 43 43" fill="none" xmlns="http://www.w3.org/2000/svg">
<path d="M10.7502 16.1248H8.06266C6.87471 16.1248 5.73542 15.6529 4.89541 14.8129C4.05541 13.9729 3.5835 12.8336 3.5835 11.6457C3.5835 10.4577 4.05541 9.31843 4.89541 8.47842C5.73542 7.63841 6.87471 7.1665 8.06266 7.1665H10.7502" stroke="#E3AE25" stroke-width="2.66667" stroke-linecap="round" stroke-linejoin="round"/>
<path d="M32.25 16.1248H34.9375C36.1254 16.1248 37.2647 15.6529 38.1047 14.8129C38.9448 13.9729 39.4167 12.8336 39.4167 11.6457C39.4167 10.4577 38.9448 9.31843 38.1047 8.47842C37.2647 7.63841 36.1254 7.1665 34.9375 7.1665H32.25" stroke="#E3AE25" stroke-width="2.66667" stroke-linecap="round" stroke-linejoin="round"/>
<path d="M7.1665 39.4165H35.8332" stroke="#E3AE25" stroke-width="2.66667" stroke-linecap="round" stroke-linejoin="round"/>
<path d="M17.9165 26.2656V30.4581C17.9165 31.4435 17.0744 32.214 16.1786 32.626C14.0644 33.5935 12.5415 36.2631 12.5415 39.4165" stroke="#E3AE25" stroke-width="2.66667" stroke-linecap="round" stroke-linejoin="round"/>
<path d="M25.0835 26.2656V30.4581C25.0835 31.4435 25.9256 32.214 26.8214 32.626C28.9356 33.5935 30.4585 36.2631 30.4585 39.4165" stroke="#E3AE25" stroke-width="2.66667" stroke-linecap="round" stroke-linejoin="round"/>
<path d="M32.25 3.5835H10.75V16.1252C10.75 18.9762 11.8826 21.7105 13.8986 23.7266C15.9146 25.7426 18.6489 26.8752 21.5 26.8752C24.3511 26.8752 27.0854 25.7426 29.1014 23.7266C31.1174 21.7105 32.25 18.9762 32.25 16.1252V3.5835Z" stroke="#E3AE25" stroke-width="2.66667" stroke-linecap="round" stroke-linejoin="round"/>
</svg>
