<svg width="49" height="49" viewBox="0 0 49 49" fill="none" xmlns="http://www.w3.org/2000/svg">
<path d="M31.5991 26.3169L34.6922 43.7241C34.7269 43.9291 34.6981 44.1398 34.6098 44.328C34.5215 44.5162 34.3778 44.6729 34.198 44.7772C34.0182 44.8816 33.8108 44.9285 33.6036 44.9118C33.3964 44.8951 33.1992 44.8155 33.0385 44.6837L25.7293 39.1978C25.3765 38.9342 24.9478 38.7917 24.5074 38.7917C24.0669 38.7917 23.6383 38.9342 23.2854 39.1978L15.964 44.6817C15.8034 44.8132 15.6064 44.8927 15.3995 44.9094C15.1925 44.9262 14.9854 44.8794 14.8057 44.7753C14.626 44.6713 14.4823 44.5149 14.3938 44.3271C14.3053 44.1393 14.2761 43.929 14.3103 43.7241L17.4013 26.3169" stroke="#E3AE25" stroke-width="2.66667" stroke-linecap="round" stroke-linejoin="round"/>
<path d="M24.5 28.5835C31.2655 28.5835 36.75 23.099 36.75 16.3335C36.75 9.56801 31.2655 4.0835 24.5 4.0835C17.7345 4.0835 12.25 9.56801 12.25 16.3335C12.25 23.099 17.7345 28.5835 24.5 28.5835Z" stroke="#E3AE25" stroke-width="2.66667" stroke-linecap="round" stroke-linejoin="round"/>
</svg>
