<svg width="30" height="30" viewBox="0 0 30 30" fill="none" xmlns="http://www.w3.org/2000/svg">
<path d="M12.5 22.5H6.25C5.25544 22.5 4.30161 22.1049 3.59835 21.4017C2.89509 20.6984 2.5 19.7446 2.5 18.75V17.5" stroke="#E3AE25" stroke-width="1.66667" stroke-linecap="round" stroke-linejoin="round"/>
<path d="M17.5 2.5C18.163 2.5 18.7989 2.76339 19.2678 3.23223C19.7366 3.70107 20 4.33696 20 5V10C20 10.663 19.7366 11.2989 19.2678 11.7678C18.7989 12.2366 18.163 12.5 17.5 12.5" stroke="#E3AE25" stroke-width="1.66667" stroke-linecap="round" stroke-linejoin="round"/>
<path d="M25 2.5C25.663 2.5 26.2989 2.76339 26.7678 3.23223C27.2366 3.70107 27.5 4.33696 27.5 5V10C27.5 10.663 27.2366 11.2989 26.7678 11.7678C26.2989 12.2366 25.663 12.5 25 12.5" stroke="#E3AE25" stroke-width="1.66667" stroke-linecap="round" stroke-linejoin="round"/>
<path d="M8.75 26.25L12.5 22.5L8.75 18.75" stroke="#E3AE25" stroke-width="1.66667" stroke-linecap="round" stroke-linejoin="round"/>
<path d="M25 17.5H20C18.6193 17.5 17.5 18.6193 17.5 20V25C17.5 26.3807 18.6193 27.5 20 27.5H25C26.3807 27.5 27.5 26.3807 27.5 25V20C27.5 18.6193 26.3807 17.5 25 17.5Z" stroke="#E3AE25" stroke-width="1.66667" stroke-linecap="round" stroke-linejoin="round"/>
<path d="M10 2.5H5C3.61929 2.5 2.5 3.61929 2.5 5V10C2.5 11.3807 3.61929 12.5 5 12.5H10C11.3807 12.5 12.5 11.3807 12.5 10V5C12.5 3.61929 11.3807 2.5 10 2.5Z" stroke="#E3AE25" stroke-width="1.66667" stroke-linecap="round" stroke-linejoin="round"/>
</svg>
