<svg width="41" height="41" viewBox="0 0 41 41" fill="none" xmlns="http://www.w3.org/2000/svg">
<path d="M11.9585 34.1665H29.0418" stroke="#E3AE25" stroke-width="1.66667" stroke-linecap="round" stroke-linejoin="round"/>
<path d="M17.0835 34.1668C26.4793 29.896 18.4502 23.2335 22.2085 17.0835" stroke="#E3AE25" stroke-width="1.66667" stroke-linecap="round" stroke-linejoin="round"/>
<path d="M16.2293 16.0583C18.1085 17.4249 19.3043 19.8166 20.1585 22.3791C16.7418 23.0624 14.1793 23.0624 11.9585 21.8666C9.9085 20.8416 8.02933 18.6208 6.8335 14.6916C11.6168 13.8374 14.3502 14.6916 16.2293 16.0583Z" stroke="#E3AE25" stroke-width="1.66667" stroke-linecap="round" stroke-linejoin="round"/>
<path d="M24.0876 10.2502C22.7852 12.2857 22.13 14.6682 22.2085 17.0835C25.4543 16.9127 27.846 16.0585 29.5543 14.6918C31.2626 12.9835 32.2876 10.7627 32.4585 6.8335C27.846 7.00433 25.6251 8.54183 24.0876 10.2502Z" stroke="#E3AE25" stroke-width="1.66667" stroke-linecap="round" stroke-linejoin="round"/>
</svg>
