<svg width="39" height="39" viewBox="0 0 39 39" fill="none" xmlns="http://www.w3.org/2000/svg">
<path d="M19.5 11.375V34.125" stroke="#E3AE25" stroke-width="2.66667" stroke-linecap="round" stroke-linejoin="round"/>
<path d="M4.875 29.25C4.44402 29.25 4.0307 29.0788 3.72595 28.774C3.4212 28.4693 3.25 28.056 3.25 27.625V6.5C3.25 6.06902 3.4212 5.6557 3.72595 5.35095C4.0307 5.0462 4.44402 4.875 4.875 4.875H13C14.7239 4.875 16.3772 5.55982 17.5962 6.77881C18.8152 7.99779 19.5 9.65109 19.5 11.375C19.5 9.65109 20.1848 7.99779 21.4038 6.77881C22.6228 5.55982 24.2761 4.875 26 4.875H34.125C34.556 4.875 34.9693 5.0462 35.274 5.35095C35.5788 5.6557 35.75 6.06902 35.75 6.5V27.625C35.75 28.056 35.5788 28.4693 35.274 28.774C34.9693 29.0788 34.556 29.25 34.125 29.25H24.375C23.0821 29.25 21.8421 29.7636 20.9279 30.6779C20.0136 31.5921 19.5 32.8321 19.5 34.125C19.5 32.8321 18.9864 31.5921 18.0721 30.6779C17.1579 29.7636 15.9179 29.25 14.625 29.25H4.875Z" stroke="#E3AE25" stroke-width="2.66667" stroke-linecap="round" stroke-linejoin="round"/>
</svg>
