<svg width="26" height="26" viewBox="0 0 26 26" fill="none" xmlns="http://www.w3.org/2000/svg">
<path d="M23.7184 10.795L13.578 0.653107C12.9799 0.056528 12.0125 0.0635866 11.4222 0.652346C10.8287 1.24745 10.8287 2.21372 11.4222 2.80806L21.5641 12.9493C22.1583 13.5434 23.1242 13.5434 23.7184 12.9493C24.3142 12.3535 24.3142 11.3907 23.7184 10.795Z" fill="#215C46"/>
<path d="M10.6697 4.21002L10.5934 4.59261C10.0558 7.28189 8.74918 9.83675 6.98193 11.9075L12.4992 17.4247C14.5696 15.6578 17.0893 14.3161 19.7787 13.7778L20.162 13.7015L10.6697 4.21002Z" fill="#215C46"/>
<path d="M5.97055 13.0503L2.19988 16.8202C1.30892 17.7111 1.30522 19.1576 2.19988 20.0522L4.35413 22.2065C5.24509 23.0975 6.69155 23.1011 7.58621 22.2065L11.3565 18.4362L5.97055 13.0503ZM6.50914 18.9752C6.21161 19.2727 5.72954 19.2727 5.43201 18.9752C5.13449 18.6776 5.13449 18.1956 5.43201 17.8981L6.50914 16.8209C6.80667 16.5234 7.28873 16.5234 7.58626 16.8209C7.88379 17.1185 7.88379 17.6005 7.58626 17.8981L6.50914 18.9752Z" fill="#215C46"/>
<path d="M14.5372 22.6118L15.5734 21.5756C16.4681 20.6811 16.4651 19.2346 15.5734 18.3444L14.8038 17.5742C14.3784 17.8599 13.9721 18.1704 13.5772 18.5017L14.4963 19.4222C14.7931 19.7175 14.7952 20.1981 14.4963 20.4986L13.443 21.5519L11.8951 20.0521L9.74072 22.2065L13.1967 25.5554C13.7865 26.1467 14.7549 26.15 15.3502 25.5546C15.9446 24.9603 15.9446 23.994 15.3502 23.3996L14.5372 22.6118Z" fill="#215C46"/>
<path d="M17.6143 0C17.1932 0 16.8525 0.340692 16.8525 0.76172V2.28516C16.8525 2.70619 17.1932 3.04688 17.6143 3.04688C18.0353 3.04688 18.376 2.70619 18.376 2.28516V0.76172C18.376 0.340692 18.0353 0 17.6143 0Z" fill="#215C46"/>
<path d="M23.708 6.09375H22.1846C21.7635 6.09375 21.4229 6.43444 21.4229 6.85547C21.4229 7.2765 21.7635 7.61719 22.1846 7.61719H23.708C24.129 7.61719 24.4697 7.2765 24.4697 6.85547C24.4697 6.43444 24.129 6.09375 23.708 6.09375Z" fill="#215C46"/>
<path d="M22.7231 1.74658C22.4256 1.44906 21.9435 1.44906 21.646 1.74658L20.1226 3.27002C19.825 3.56755 19.825 4.04962 20.1226 4.34715C20.4201 4.64468 20.9022 4.64473 21.1997 4.34715L22.7231 2.82371C23.0207 2.52618 23.0207 2.04411 22.7231 1.74658Z" fill="#215C46"/>
</svg>
