<svg width="28" height="28" viewBox="0 0 28 28" fill="none" xmlns="http://www.w3.org/2000/svg">
<path fill-rule="evenodd" clip-rule="evenodd" d="M7.32244 9.31384C7.4374 9.1133 7.46834 8.87543 7.4085 8.65216C7.34866 8.42889 7.2029 8.23837 7.00307 8.1222L5.76221 7.40579C5.55973 7.28993 5.31966 7.25877 5.09432 7.3191C4.86897 7.37943 4.67659 7.52637 4.55908 7.7279L0.999472 13.8956C0.776347 14.3429 0.858925 14.8493 1.31338 15.1118L2.55424 15.8282C2.75472 15.943 2.99247 15.9738 3.21561 15.914C3.43875 15.8542 3.62917 15.7085 3.74533 15.5088L7.32244 9.31384ZM10.7541 7.87501C10.7794 7.90381 10.7984 7.93761 10.8098 7.97422C10.8212 8.01083 10.8248 8.04943 10.8203 8.08752C10.8158 8.1256 10.8034 8.16232 10.7838 8.19528C10.7642 8.22825 10.7379 8.25672 10.7066 8.27886C10.6753 8.30099 10.6396 8.31629 10.602 8.32377C10.5644 8.33124 10.5257 8.33072 10.4883 8.32224C10.4509 8.31376 10.4157 8.2975 10.385 8.27454C10.3543 8.25157 10.3287 8.2224 10.31 8.18892L8.78697 6.03587C8.75405 5.97693 8.74409 5.90789 8.75903 5.84205C8.77396 5.7762 8.81272 5.71821 8.86785 5.67924C8.92299 5.64027 8.99058 5.62307 9.05764 5.63096C9.12469 5.63885 9.18645 5.67126 9.23103 5.72196L10.7541 7.87501ZM17.6895 8.18892C17.6452 8.24029 17.5832 8.2733 17.5159 8.28154C17.4485 8.28979 17.3804 8.27266 17.325 8.2335C17.2695 8.19435 17.2306 8.13596 17.2158 8.06969C17.201 8.00343 17.2114 7.93404 17.2449 7.87501L18.7685 5.72196C18.7872 5.68849 18.8128 5.65931 18.8435 5.63635C18.8742 5.61338 18.9094 5.59712 18.9468 5.58864C18.9842 5.58016 19.0229 5.57964 19.0605 5.58711C19.0982 5.59459 19.1338 5.60989 19.1651 5.63203C19.1964 5.65416 19.2227 5.68264 19.2423 5.7156C19.2619 5.74856 19.2743 5.78528 19.2788 5.82336C19.2833 5.86145 19.2797 5.90005 19.2683 5.93666C19.2569 5.97327 19.2379 6.00707 19.2126 6.03587L17.6895 8.18892ZM14.2732 7.38939C14.2732 7.46191 14.2444 7.53146 14.1931 7.58274C14.1419 7.63402 14.0723 7.66282 13.9998 7.66282C13.9273 7.66282 13.8577 7.63402 13.8064 7.58274C13.7552 7.53146 13.7263 7.46191 13.7263 7.38939V4.90384C13.7263 4.83132 13.7552 4.76177 13.8064 4.71049C13.8577 4.65921 13.9273 4.6304 13.9998 4.6304C14.0723 4.6304 14.1419 4.65921 14.1931 4.71049C14.2444 4.76177 14.2732 4.83132 14.2732 4.90384V7.38939ZM12.6058 17.3824C12.1503 17.1292 11.6799 17.3108 11.4092 17.7204L9.62096 20.8195C9.52084 21.0203 9.50164 21.2518 9.5673 21.4662C9.63297 21.6807 9.7785 21.8618 9.97383 21.9721C10.1692 22.0823 10.3994 22.1134 10.6169 22.0588C10.8345 22.0042 11.0228 21.8681 11.1429 21.6787C11.7346 20.6434 12.3362 19.6126 12.9323 18.5801C13.1806 18.1749 13.0154 17.6187 12.6042 17.3824H12.6058ZM8.21439 15.8288C8.69291 16.117 8.73064 16.5878 8.52174 17.045L7.39135 19.0034C7.11791 19.4206 6.64596 19.5869 6.18822 19.3386C5.70916 19.0493 5.67197 18.573 5.87869 18.1207L7.01783 16.1476C7.13562 15.9487 7.32665 15.804 7.54994 15.7444C7.77323 15.6848 8.01099 15.7151 8.21221 15.8288H8.21439ZM22.531 18.2432C22.415 18.445 22.2238 18.5928 21.9993 18.6542C21.7747 18.7157 21.535 18.6859 21.3323 18.5713L18.5274 16.9531C18.4652 16.9229 18.394 16.9173 18.3279 16.9375C18.2618 16.9577 18.2058 17.0022 18.1712 17.0619C18.1365 17.1217 18.1258 17.1924 18.1412 17.2598C18.1565 17.3272 18.1968 17.3862 18.2539 17.4251L20.3085 18.6113C20.7214 18.8847 20.8975 19.355 20.6465 19.8078C20.5304 20.0096 20.3393 20.1574 20.1147 20.2189C19.8902 20.2803 19.6504 20.2505 19.4478 20.136L17.3784 18.941C17.3473 18.9199 17.3122 18.9054 17.2753 18.8984C17.2384 18.8914 17.2004 18.8921 17.1638 18.9005C17.1271 18.9088 17.0926 18.9246 17.0624 18.9469C17.0321 18.9692 17.0068 18.9975 16.988 19.03C16.9691 19.0625 16.9572 19.0986 16.9529 19.1359C16.9486 19.1732 16.9521 19.211 16.963 19.247C16.974 19.2829 16.9923 19.3162 17.0167 19.3448C17.0411 19.3733 17.0711 19.3965 17.1049 19.413L18.4295 20.1699C18.8429 20.4433 19.0239 20.9224 18.7636 21.373C18.5306 21.7766 17.9745 21.9417 17.5698 21.6934L16.2365 20.9234C16.1742 20.8922 16.1023 20.8859 16.0355 20.9058C15.9687 20.9258 15.912 20.9705 15.8771 21.0308C15.8422 21.0912 15.8317 21.1626 15.8476 21.2305C15.8636 21.2983 15.9049 21.3575 15.9631 21.3959L16.5608 21.741C16.6654 21.7957 16.7578 21.871 16.8325 21.9624C16.9072 22.0537 16.9627 22.1592 16.9956 22.2726C17.0284 22.3859 17.0381 22.5047 17.0238 22.6219C17.0096 22.739 16.9718 22.8521 16.9128 22.9542C16.8537 23.0564 16.7746 23.1456 16.6802 23.2164C16.5858 23.2872 16.478 23.3382 16.3634 23.3662C16.2488 23.3943 16.1297 23.3989 16.0132 23.3797C15.8968 23.3606 15.7854 23.3181 15.6858 23.2548L14.0545 22.3125L14.9656 20.7348C15.0996 20.5021 15.165 20.2363 15.154 19.968C15.143 19.6997 15.0561 19.4401 14.9034 19.2192C14.7508 18.9983 14.5386 18.8253 14.2915 18.7202C14.0444 18.6151 13.7726 18.5823 13.5076 18.6255C13.6087 18.3405 13.6164 18.0307 13.5294 17.741C13.4424 17.4514 13.2654 17.1971 13.024 17.0149C12.7826 16.8328 12.4894 16.7324 12.187 16.7282C11.8846 16.7241 11.5888 16.8165 11.3425 16.992C11.2825 16.7706 11.1697 16.5672 11.0138 16.399C10.8579 16.2309 10.6635 16.103 10.4474 16.0264C10.2312 15.9499 9.99974 15.9269 9.77274 15.9594C9.54575 15.9919 9.33003 16.079 9.14408 16.2132C9.07091 15.9425 8.91913 15.6996 8.70793 15.5152C8.49672 15.3307 8.23558 15.213 7.9575 15.177C7.67942 15.1409 7.39689 15.1881 7.14563 15.3126C6.89438 15.4371 6.68566 15.6333 6.54588 15.8763L5.82018 17.1342C5.59259 16.9043 5.37667 16.6632 5.17322 16.4117C4.9233 16.1038 4.68103 15.7724 4.43221 15.406L7.52588 10.0467C8.60322 10.6159 9.604 10.8008 10.5501 10.9763C10.8946 11.0398 11.2315 11.1016 11.5585 11.1814L10.234 12.5059C10.0637 12.677 9.96812 12.9085 9.96812 13.1499C9.96812 13.3913 10.0637 13.6228 10.234 13.7938C10.9652 14.525 12.3263 14.4309 13.0482 13.7091L13.8833 12.874L14.977 12.9074C16.0003 13.9464 17.0355 14.4156 17.9395 14.5945L22.1903 17.0488C22.6038 17.3223 22.7799 17.7937 22.5288 18.2454L22.531 18.2432ZM10.4106 16.6059C10.6104 16.7232 10.7561 16.9143 10.8164 17.1379C10.8767 17.3616 10.8469 17.6 10.7333 17.8019L9.15721 20.5324C9.10145 20.6351 9.02569 20.7256 8.9344 20.7985C8.8431 20.8715 8.73813 20.9254 8.62567 20.9571C8.5132 20.9888 8.39553 20.9976 8.27959 20.9831C8.16365 20.9686 8.05179 20.931 7.95061 20.8726C7.84943 20.8141 7.76098 20.736 7.69048 20.6428C7.61998 20.5496 7.56885 20.4433 7.54012 20.33C7.51139 20.2168 7.50564 20.0989 7.5232 19.9834C7.54076 19.8679 7.58128 19.757 7.64236 19.6574L9.20588 16.9493C9.50064 16.5353 9.93049 16.3439 10.409 16.6059H10.4106ZM14.1715 19.2675C14.58 19.5142 14.7381 20.0649 14.4936 20.4624L13.3435 22.458C13.231 22.661 13.0424 22.8111 12.8192 22.8751C12.596 22.9391 12.3566 22.9118 12.1535 22.7992C11.9505 22.6867 11.8004 22.4981 11.7365 22.2749C11.6725 22.0517 11.6997 21.8123 11.8123 21.6092L12.9695 19.6055C13.2429 19.1992 13.6979 19.0099 14.1726 19.2675H14.1715ZM18.0866 14.0662C19.4778 14.3232 20.4753 13.8299 20.4797 13.8277C20.5123 13.8092 20.5485 13.7975 20.5858 13.7935C20.6231 13.7895 20.6609 13.7933 20.6967 13.8045C20.7326 13.8158 20.7657 13.8343 20.7941 13.8589C20.8224 13.8835 20.8454 13.9137 20.8616 13.9475C20.8778 13.9814 20.8869 14.0183 20.8882 14.0558C20.8895 14.0933 20.8831 14.1307 20.8693 14.1657C20.8555 14.2006 20.8347 14.2323 20.8081 14.2589C20.7816 14.2854 20.7498 14.3062 20.7149 14.3199C20.711 14.3199 20.1035 14.6224 19.1765 14.6776L22.4807 16.5845C22.525 16.6099 22.5677 16.6378 22.6087 16.6682C22.7591 16.4949 22.9045 16.3144 23.0489 16.1252C23.2217 15.8982 23.3918 15.6598 23.5652 15.406L20.4715 10.0467C20.3561 10.1079 20.2435 10.1637 20.1324 10.2151C19.941 10.3037 19.7527 10.3817 19.5675 10.4492C18.8946 10.7049 18.148 10.6852 17.4894 10.3945L16.9327 10.1582C16.4658 9.95067 15.941 9.91351 15.4495 10.0532L13.3167 10.6252C12.9284 10.7229 12.5751 10.9269 12.2963 11.2142L10.6217 12.8888C10.5541 12.9573 10.5162 13.0498 10.5162 13.1461C10.5162 13.2424 10.5541 13.3348 10.6217 13.4034C11.1402 13.9218 12.153 13.8288 12.6627 13.3186L13.5803 12.4009C13.6067 12.3749 13.6381 12.3545 13.6726 12.341C13.7071 12.3274 13.744 12.321 13.781 12.3222L15.0935 12.3616C15.1307 12.3612 15.1676 12.3684 15.202 12.3828C15.2363 12.3972 15.2673 12.4184 15.2931 12.4452C16.2545 13.4493 17.2236 13.8956 18.0849 14.0645L18.0866 14.0662ZM24.2542 15.5088C24.3704 15.7085 24.5608 15.8542 24.784 15.914C25.0071 15.9738 25.2448 15.943 25.4453 15.8282L26.6873 15.1118C27.1417 14.8493 27.2243 14.3429 27.0012 13.8956L23.4394 7.7279C23.3219 7.52637 23.1295 7.37943 22.9042 7.3191C22.6788 7.25877 22.4387 7.28993 22.2363 7.40579L20.9954 8.1222C20.7956 8.23837 20.6498 8.42889 20.59 8.65216C20.5301 8.87543 20.5611 9.1133 20.676 9.31384L24.2542 15.5088Z" fill="#215C46"/>
</svg>
