<svg width="61" height="62" viewBox="0 0 61 62" fill="none" xmlns="http://www.w3.org/2000/svg">
<path d="M36.4894 43.6093C40.1122 43.6093 43.049 40.6725 43.049 37.0497C43.049 33.4269 40.1122 30.49 36.4894 30.49C32.8665 30.49 29.9297 33.4269 29.9297 37.0497C29.9297 40.6725 32.8665 43.6093 36.4894 43.6093Z" fill="#00FFB7"/>
<path fill-rule="evenodd" clip-rule="evenodd" d="M18.0737 42.0176C18.7763 42.0177 19.3981 42.4723 19.6118 43.1416L24.6245 58.8398H25.9292C25.8333 58.4955 25.7817 58.1161 25.7817 57.7041C25.7818 56.0242 27.2636 54.8083 28.9008 54.8018L41.4428 54.7607C41.9898 54.7606 42.4309 54.3093 42.4145 53.7588C42.3986 53.2264 41.9343 52.8154 41.4018 52.8154H26.0249L29.5151 46.7979C30.1954 45.6248 31.4491 44.9023 32.8051 44.9023H40.4565C41.8968 44.9025 43.2626 45.5448 44.1811 46.6543L50.0571 55.2246C50.4603 55.8128 50.7135 56.4979 50.7505 57.21C50.8628 59.3793 49.1374 61.1738 46.9926 61.1738H6.70065C5.99797 61.1738 5.37528 60.7192 5.16159 60.0498L0.0776041 44.123C-0.254795 43.0814 0.522167 42.0176 1.61569 42.0176H18.0737ZM31.9858 17.1748C33.2943 17.4281 34.5466 17.9478 35.6596 18.7148L42.6792 23.5527C44.1956 24.5978 44.8376 26.5204 44.2524 28.2666L43.0766 31.7734C42.0006 30.4324 40.525 29.4264 38.8315 28.9365L38.8715 28.8105C39.1259 28.0065 38.7055 27.144 37.9155 26.8486L33.9555 25.3682L34.3852 28.8691C30.7431 29.8064 28.0434 33.1183 28.0434 37.0488C28.0434 39.5548 29.1421 41.8084 30.8813 43.3564C29.6383 43.8053 28.5648 44.6782 27.8842 45.8516L24.394 51.8691C24.3906 51.875 24.3867 51.8808 24.3833 51.8867L21.4077 42.5674C21.1928 41.8947 20.7903 41.3258 20.27 40.9062L20.4731 27.7627L12.8266 40.1318H6.05417L16.5766 22.1719C17.1627 21.1925 17.9081 20.3385 18.769 19.6348C20.2693 20.9978 22.261 21.8301 24.4428 21.8301C27.7368 21.83 30.5943 19.9324 31.9858 17.1748ZM24.4419 6.8252C28.0646 6.8252 31.0012 9.76212 31.0014 13.3848C31.0014 17.0076 28.0647 19.9443 24.4419 19.9443C20.8191 19.9443 17.8823 17.0075 17.8823 13.3848C17.8825 9.76215 20.8192 6.82525 24.4419 6.8252ZM49.8315 0C55.9994 2.97461e-06 60.9993 4.12268 60.9995 9.20801C60.9995 14.2933 55.9995 18.416 49.8315 18.416C45.8978 18.416 42.4393 16.739 40.4497 14.2051L37.4878 14.0801C36.8979 14.055 36.6246 13.336 37.0493 12.9258L38.9077 11.1309C38.7479 10.5108 38.6635 9.86732 38.6635 9.20801C38.6636 4.12274 43.6636 0 49.8315 0ZM45.5649 8.06055C44.9313 8.06068 44.4175 8.57433 44.4174 9.20801C44.4174 9.84172 44.9312 10.3553 45.5649 10.3555C46.1987 10.3555 46.7124 9.8418 46.7124 9.20801C46.7123 8.57425 46.1987 8.06055 45.5649 8.06055ZM49.8315 8.06055C49.1977 8.06055 48.6841 8.57425 48.684 9.20801C48.684 9.8418 49.1977 10.3555 49.8315 10.3555C50.4653 10.3555 50.979 9.8418 50.979 9.20801C50.9789 8.57425 50.4653 8.06055 49.8315 8.06055ZM54.0981 8.06055C53.4643 8.06055 52.9507 8.57425 52.9506 9.20801C52.9506 9.8418 53.4643 10.3555 54.0981 10.3555C54.7317 10.3553 55.2456 9.84167 55.2456 9.20801C55.2455 8.57438 54.7317 8.06076 54.0981 8.06055Z" fill="#00FFB7"/>
</svg>
