<svg width="58" height="51" viewBox="0 0 58 51" fill="none" xmlns="http://www.w3.org/2000/svg">
<path d="M10.7881 3.39551C14.8723 3.39573 18.1825 6.70526 18.1826 10.7891C18.1826 12.5541 17.5638 14.1744 16.5303 15.4453C15.1758 17.1151 13.1064 18.1816 10.7881 18.1816H12.2881C15.2657 18.1816 17.0116 19.2722 19.457 20.4883C22.0854 21.7954 25.3477 23.418 27.4951 24.4873L31.0879 17.3027C31.5073 16.4643 32.5272 16.1238 33.3652 16.543C34.2038 16.962 34.5441 17.9827 34.125 18.8213L29.9121 27.2451C30.1711 28.1018 30.173 29.0408 29.8662 29.9395C29.864 29.9461 29.8616 29.9533 29.8594 29.96C29.4309 31.2271 28.4706 32.248 27.2246 32.7607C25.975 33.269 24.5732 33.2146 23.374 32.6152C21.6636 31.7596 19.5497 30.7029 17.9404 29.8984V48.9697C17.9404 49.9073 17.1798 50.668 16.2422 50.668H5.33398C4.39641 50.668 3.63672 49.9073 3.63672 48.9697V39.4824C1.52507 38.7716 0 36.7729 0 34.4248V28.9707C0 26.0843 1.12315 23.3746 3.16211 21.3408C5.16234 19.3353 7.94303 18.1827 10.7871 18.1826C8.66584 18.1821 6.7526 17.288 5.40527 15.8555C4.15915 14.5329 3.39453 12.7504 3.39453 10.7891C3.39467 6.70512 6.70544 3.39551 10.7881 3.39551ZM52.6064 0C55.5517 0 57.9403 2.38778 57.9404 5.33301V25.334C57.9404 28.2793 55.5518 30.667 52.6064 30.667H44.0557L50.5625 48.3857C50.9765 49.5115 50.1283 50.6679 48.9707 50.668C48.2785 50.668 47.6284 50.2425 47.376 49.5557L40.4395 30.667H39.25L32.3828 49.5498C32.1326 50.2401 31.4816 50.6679 30.7891 50.668C29.55 50.668 28.811 49.4408 29.1934 48.3896L35.6377 30.667H33.1943C33.4705 29.7109 33.5581 28.7231 33.46 27.7432L37.1611 20.3389C38.4208 17.822 37.4011 14.7653 34.8848 13.5059C32.3735 12.2509 29.308 13.272 28.0508 15.7842L25.9746 19.9385C24.6176 19.264 23.1638 18.5408 21.8184 17.8721V5.33301C21.8185 2.38787 24.2058 0.00014507 27.1514 0H52.6064ZM41.3535 20C40.4164 20.0001 39.6562 20.7603 39.6562 21.6982C39.6565 22.6351 40.4166 23.3954 41.3535 23.3955H48.9697C49.9076 23.3955 50.6668 22.6352 50.667 21.6982C50.667 20.7602 49.9077 20 48.9697 20H41.3535ZM41.3535 13.6357C40.4164 13.6358 39.6562 14.3969 39.6562 15.334C39.6564 16.2718 40.4166 17.0312 41.3535 17.0312H48.9697C49.9076 17.0312 50.6668 16.2718 50.667 15.334C50.667 14.3969 49.9077 13.6358 48.9697 13.6357H41.3535ZM30.7891 7.27344C29.851 7.27344 29.0918 8.03357 29.0918 8.9707C29.0919 9.90771 29.8511 10.668 30.7891 10.668H48.9697C49.9076 10.6679 50.6668 9.90769 50.667 8.9707C50.667 8.03359 49.9077 7.27347 48.9697 7.27344H30.7891Z" fill="#00CCF8"/>
</svg>
