<svg width="87" height="37" viewBox="0 0 87 37" fill="none" xmlns="http://www.w3.org/2000/svg">
<circle cx="16.0597" cy="18.3041" r="16.0597" fill="#EA88BA"/>
<circle cx="41.9955" cy="18.3041" r="17.1819" fill="#DA66A1" stroke="#FFDCEA" stroke-width="2.24433"/>
<circle cx="67.9313" cy="18.3041" r="17.1819" fill="#C94588" stroke="#FFDCEA" stroke-width="2.24433"/>
<path d="M12.3443 14.5554H14.0093L15.8275 19.3687H15.904L17.7222 14.5554H19.3968V21.407H18.1145V18.029L18.1911 16.8903H18.1145L16.3729 21.407H15.3681L13.617 16.8903H13.5404L13.617 18.029V21.407H12.3443V14.5554Z" fill="white"/>
<path d="M39.28 14.5554H40.5719V17.4931H40.6485L43.1556 14.5554H44.7154V14.6319L42.237 17.4644L44.9738 21.3304V21.407H43.3948L41.347 18.4883L40.5719 19.3974V21.407H39.28V14.5554Z" fill="white"/>
<path d="M60.9074 19.3687H59.2711V20.9955H58.161V19.3687H56.5343V18.2587H58.161V16.6319H59.2711V18.2587H60.9074V19.3687ZM64.9649 20.2013H61.9506V19.1869L64.8596 14.8616H66.2185V19.0338H67.0318V20.2013H66.2185V21.407H64.9649V20.2013ZM64.9649 19.0338V16.7276H64.8883L63.3381 19.0338H64.9649ZM70.3139 21.5601C69.8546 21.5601 69.4431 21.474 69.0795 21.3017C68.7222 21.1295 68.4415 20.8934 68.2374 20.5936C68.0396 20.2938 67.9407 19.9588 67.9407 19.5888C67.9407 19.2316 68.0332 18.9158 68.2182 18.6415C68.4096 18.3608 68.6488 18.1439 68.9359 17.9907V17.9142C68.7126 17.7611 68.5276 17.5665 68.3809 17.3305C68.2342 17.0944 68.1608 16.8361 68.1608 16.5554C68.1608 16.2109 68.2533 15.8983 68.4383 15.6176C68.6233 15.3305 68.8785 15.1072 69.2039 14.9477C69.5356 14.7882 69.9056 14.7085 70.3139 14.7085C70.7222 14.7085 71.089 14.7882 71.4144 14.9477C71.7397 15.1072 71.9949 15.3305 72.1799 15.6176C72.3713 15.8983 72.467 16.2109 72.467 16.5554C72.467 16.8424 72.3936 17.104 72.2469 17.34C72.1002 17.5697 71.912 17.7611 71.6823 17.9142V17.9907C71.9694 18.1439 72.2086 18.3608 72.4 18.6415C72.5914 18.9158 72.6871 19.2316 72.6871 19.5888C72.6871 19.9588 72.585 20.2938 72.3809 20.5936C72.1831 20.8934 71.9024 21.1295 71.5388 21.3017C71.1815 21.474 70.7732 21.5601 70.3139 21.5601ZM70.3139 17.4453C70.5818 17.4453 70.8051 17.3719 70.9837 17.2252C71.1624 17.0721 71.2517 16.8743 71.2517 16.6319C71.2517 16.3895 71.1624 16.1949 70.9837 16.0482C70.8051 15.9015 70.5818 15.8281 70.3139 15.8281C70.0396 15.8281 69.8131 15.9015 69.6345 16.0482C69.4558 16.1949 69.3665 16.3895 69.3665 16.6319C69.3665 16.8743 69.4558 17.0721 69.6345 17.2252C69.8131 17.3719 70.0396 17.4453 70.3139 17.4453ZM70.3139 20.4022C70.6392 20.4022 70.904 20.3161 71.1081 20.1438C71.3187 19.9716 71.4239 19.7451 71.4239 19.4644C71.4239 19.1965 71.3187 18.9764 71.1081 18.8041C70.8976 18.6319 70.6329 18.5458 70.3139 18.5458C69.9949 18.5458 69.727 18.6319 69.5101 18.8041C69.2995 18.9764 69.1943 19.1965 69.1943 19.4644C69.1943 19.7451 69.2995 19.9716 69.5101 20.1438C69.7206 20.3161 69.9885 20.4022 70.3139 20.4022ZM76.3417 21.5601C75.7931 21.5601 75.3114 21.4134 74.8968 21.1199C74.4821 20.8201 74.1599 20.4118 73.9303 19.895C73.707 19.3719 73.5953 18.785 73.5953 18.1343C73.5953 17.4836 73.707 16.8998 73.9303 16.3831C74.1599 15.86 74.4821 15.4517 74.8968 15.1582C75.3114 14.8584 75.7931 14.7085 76.3417 14.7085C76.8904 14.7085 77.372 14.8584 77.7867 15.1582C78.2014 15.4517 78.5203 15.86 78.7436 16.3831C78.9733 16.8998 79.0881 17.4836 79.0881 18.1343C79.0881 18.785 78.9733 19.3719 78.7436 19.895C78.5203 20.4118 78.2014 20.8201 77.7867 21.1199C77.372 21.4134 76.8904 21.5601 76.3417 21.5601ZM76.3417 20.3831C76.6479 20.3831 76.9127 20.2874 77.136 20.096C77.3656 19.8982 77.5379 19.6303 77.6527 19.2922C77.7739 18.9477 77.8345 18.5617 77.8345 18.1343C77.8345 17.4708 77.7006 16.9317 77.4326 16.5171C77.1647 16.096 76.801 15.8855 76.3417 15.8855C75.8888 15.8855 75.5283 16.096 75.2604 16.5171C74.9925 16.9381 74.8585 17.4772 74.8585 18.1343C74.8585 18.5617 74.9159 18.9477 75.0307 19.2922C75.1519 19.6303 75.3242 19.8982 75.5475 20.096C75.7771 20.2874 76.0419 20.3831 76.3417 20.3831Z" fill="white"/>
</svg>
