<svg width="87" height="37" viewBox="0 0 87 37" fill="none" xmlns="http://www.w3.org/2000/svg">
<circle cx="16.0597" cy="18.3041" r="16.0597" fill="#57CAFF"/>
<circle cx="41.9955" cy="18.3041" r="17.1819" fill="#31ADE6" stroke="#D8F3FF" stroke-width="2.24433"/>
<circle cx="67.9313" cy="18.3041" r="17.1819" fill="#0D92D0" stroke="#D8F3FF" stroke-width="2.24433"/>
<path d="M8.8445 14.5554H10.1364V17.4931H10.2129L12.7201 14.5554H14.2799V14.6319L11.8014 17.4644L14.5382 21.3304V21.407H12.9593L10.9115 18.4883L10.1364 19.3974V21.407H8.8445V14.5554ZM15.3767 14.5554H17.0417L18.8599 19.3687H18.9364L20.7546 14.5554H22.4292V21.407H21.1469V18.029L21.2235 16.8903H21.1469L19.4053 21.407H18.4006L16.6494 16.8903H16.5728L16.6494 18.029V21.407H15.3767V14.5554Z" fill="white"/>
<path d="M34.7803 14.5554H36.0721V17.4931H36.1487L38.6558 14.5554H40.2156V14.6319L37.7372 17.4644L40.474 21.3304V21.407H38.8951L36.8473 18.4883L36.0721 19.3974V21.407H34.7803V14.5554ZM41.3124 14.5554H42.9775L44.7957 19.3687H44.8722L46.6904 14.5554H48.365V21.407H47.0827V18.029L47.1593 16.8903H47.0827L45.3411 21.407H44.3363L42.5852 16.8903H42.5086L42.5852 18.029V21.407H41.3124V14.5554Z" fill="white"/>
<path d="M61.4074 19.3687H59.7711V20.9955H58.661V19.3687H57.0343V18.2587H58.661V16.6319H59.7711V18.2587H61.4074V19.3687ZM64.6442 21.5601C64.0891 21.5601 63.5979 21.4134 63.1705 21.1199C62.7494 20.8264 62.4592 20.399 62.2997 19.8376L63.4863 19.3687C63.5628 19.6813 63.7 19.9237 63.8978 20.096C64.0955 20.2619 64.3443 20.3448 64.6442 20.3448C64.9185 20.3448 65.1545 20.2619 65.3523 20.096C65.5564 19.9301 65.6585 19.7196 65.6585 19.4644C65.6585 19.1901 65.5501 18.9732 65.3332 18.8137C65.1226 18.6478 64.8356 18.5649 64.4719 18.5649H63.9073V17.4262H64.4241C64.7048 17.4262 64.9408 17.356 65.1322 17.2156C65.33 17.0753 65.4288 16.8711 65.4288 16.6032C65.4288 16.3863 65.3491 16.2077 65.1896 16.0673C65.0301 15.927 64.826 15.8568 64.5772 15.8568C64.3156 15.8568 64.1051 15.927 63.9456 16.0673C63.7861 16.2077 63.6745 16.3831 63.6107 16.5936L62.4719 16.1247C62.6059 15.742 62.8515 15.4102 63.2088 15.1295C63.5724 14.8488 64.0317 14.7085 64.5867 14.7085C64.995 14.7085 65.3587 14.785 65.6776 14.9381C66.003 15.0913 66.255 15.3018 66.4336 15.5697C66.6122 15.8313 66.7016 16.1279 66.7016 16.4597C66.7016 16.8105 66.6186 17.1104 66.4528 17.3592C66.2933 17.608 66.0987 17.7898 65.869 17.9046V17.9812C66.188 18.1088 66.4464 18.3097 66.6441 18.584C66.8419 18.8584 66.9408 19.1901 66.9408 19.5792C66.9408 19.9556 66.8451 20.2938 66.6537 20.5936C66.4623 20.8934 66.1912 21.1295 65.8403 21.3017C65.4958 21.474 65.0971 21.5601 64.6442 21.5601ZM68.9916 20.9285L70.3409 19.0338L70.2835 18.9764C70.1367 19.0402 69.9709 19.0721 69.7859 19.0721C69.4541 19.0721 69.1352 18.9828 68.8289 18.8041C68.5291 18.6191 68.2835 18.3639 68.0921 18.0386C67.9071 17.7132 67.8146 17.3496 67.8146 16.9477C67.8146 16.5266 67.9199 16.1439 68.1304 15.7994C68.3473 15.4549 68.6312 15.1869 68.982 14.9956C69.3393 14.8042 69.7189 14.7085 70.1208 14.7085C70.5801 14.7085 70.9884 14.8137 71.3457 15.0243C71.7029 15.2284 71.9804 15.5059 72.1782 15.8568C72.376 16.2077 72.4748 16.5872 72.4748 16.9955C72.4748 17.4038 72.3951 17.7866 72.2356 18.1439C72.0825 18.5011 71.8528 18.8966 71.5466 19.3304L69.9677 21.5984L68.9916 20.9285ZM70.1495 18.029C70.443 18.029 70.6981 17.927 70.915 17.7228C71.1383 17.5123 71.25 17.2507 71.25 16.9381C71.25 16.6255 71.1383 16.3672 70.915 16.163C70.6981 15.9589 70.443 15.8568 70.1495 15.8568C69.8497 15.8568 69.5881 15.9589 69.3648 16.163C69.1479 16.3672 69.0395 16.6255 69.0395 16.9381C69.0395 17.2507 69.1479 17.5123 69.3648 17.7228C69.5881 17.927 69.8497 18.029 70.1495 18.029ZM75.7294 21.5601C75.27 21.5601 74.8586 21.474 74.4949 21.3017C74.1377 21.1295 73.857 20.8934 73.6528 20.5936C73.4551 20.2938 73.3562 19.9588 73.3562 19.5888C73.3562 19.2316 73.4487 18.9158 73.6337 18.6415C73.8251 18.3608 74.0643 18.1439 74.3514 17.9907V17.9142C74.1281 17.7611 73.9431 17.5665 73.7964 17.3305C73.6496 17.0944 73.5763 16.8361 73.5763 16.5554C73.5763 16.2109 73.6688 15.8983 73.8538 15.6176C74.0388 15.3305 74.294 15.1072 74.6193 14.9477C74.9511 14.7882 75.3211 14.7085 75.7294 14.7085C76.1377 14.7085 76.5045 14.7882 76.8298 14.9477C77.1552 15.1072 77.4104 15.3305 77.5954 15.6176C77.7868 15.8983 77.8825 16.2109 77.8825 16.5554C77.8825 16.8424 77.8091 17.104 77.6624 17.34C77.5156 17.5697 77.3274 17.7611 77.0978 17.9142V17.9907C77.3849 18.1439 77.6241 18.3608 77.8155 18.6415C78.0069 18.9158 78.1025 19.2316 78.1025 19.5888C78.1025 19.9588 78.0005 20.2938 77.7963 20.5936C77.5986 20.8934 77.3179 21.1295 76.9542 21.3017C76.597 21.474 76.1887 21.5601 75.7294 21.5601ZM75.7294 17.4453C75.9973 17.4453 76.2206 17.3719 76.3992 17.2252C76.5778 17.0721 76.6672 16.8743 76.6672 16.6319C76.6672 16.3895 76.5778 16.1949 76.3992 16.0482C76.2206 15.9015 75.9973 15.8281 75.7294 15.8281C75.455 15.8281 75.2286 15.9015 75.0499 16.0482C74.8713 16.1949 74.782 16.3895 74.782 16.6319C74.782 16.8743 74.8713 17.0721 75.0499 17.2252C75.2286 17.3719 75.455 17.4453 75.7294 17.4453ZM75.7294 20.4022C76.0547 20.4022 76.3195 20.3161 76.5236 20.1438C76.7341 19.9716 76.8394 19.7451 76.8394 19.4644C76.8394 19.1965 76.7341 18.9764 76.5236 18.8041C76.3131 18.6319 76.0483 18.5458 75.7294 18.5458C75.4104 18.5458 75.1424 18.6319 74.9255 18.8041C74.715 18.9764 74.6098 19.1965 74.6098 19.4644C74.6098 19.7451 74.715 19.9716 74.9255 20.1438C75.1361 20.3161 75.404 20.4022 75.7294 20.4022Z" fill="white"/>
</svg>
