<svg width="87" height="37" viewBox="0 0 87 37" fill="none" xmlns="http://www.w3.org/2000/svg">
<circle cx="16.0597" cy="18.3041" r="16.0597" fill="#EA88BA"/>
<circle cx="41.9955" cy="18.3041" r="17.1819" fill="#DA66A1" stroke="#FFDCEA" stroke-width="2.24433"/>
<circle cx="67.9313" cy="18.3041" r="17.1819" fill="#C94588" stroke="#FFDCEA" stroke-width="2.24433"/>
<path d="M10.3445 14.5554H11.8469L14.6028 19.1486H14.6794L14.6028 17.8281V14.5554H15.8851V21.407H14.5263L11.6172 16.5554H11.5407L11.6172 17.8759V21.407H10.3445V14.5554ZM17.4467 14.5554H19.8582C20.292 14.5554 20.6875 14.6479 21.0448 14.8329C21.402 15.0115 21.6827 15.2667 21.8869 15.5984C22.091 15.9238 22.1931 16.297 22.1931 16.718C22.1931 17.1391 22.091 17.5155 21.8869 17.8472C21.6827 18.1789 21.402 18.4373 21.0448 18.6223C20.6875 18.8009 20.292 18.8903 19.8582 18.8903H18.7386V21.407H17.4467V14.5554ZM19.8964 17.6654C20.2154 17.6654 20.4642 17.5729 20.6428 17.3879C20.8279 17.2029 20.9204 16.9796 20.9204 16.718C20.9204 16.4565 20.8279 16.2364 20.6428 16.0577C20.4642 15.8727 20.2154 15.7802 19.8964 15.7802H18.7386V17.6654H19.8964Z" fill="white"/>
<path d="M39.28 14.5554H41.7776C42.2242 14.5554 42.6197 14.6479 42.9642 14.8329C43.3151 15.0179 43.5862 15.2763 43.7776 15.608C43.969 15.9333 44.0647 16.3034 44.0647 16.718C44.0647 17.1582 43.9243 17.5506 43.6436 17.8951C43.3693 18.2332 43.0216 18.4788 42.6006 18.6319L42.591 18.6989L44.4283 21.3304V21.407H42.9451L41.1748 18.8328H40.5719V21.407H39.28V14.5554ZM41.7681 17.6463C42.0615 17.6463 42.3007 17.5569 42.4858 17.3783C42.6708 17.1997 42.7633 16.9732 42.7633 16.6989C42.7633 16.4373 42.674 16.214 42.4953 16.029C42.3231 15.844 42.087 15.7515 41.7872 15.7515H40.5719V17.6463H41.7681Z" fill="white"/>
<path d="M62.4074 19.3687H60.7711V20.9955H59.661V19.3687H58.0343V18.2587H59.661V16.6319H60.7711V18.2587H62.4074V19.3687ZM65.7759 21.5601C65.4314 21.5601 65.0997 21.4963 64.7807 21.3687C64.4617 21.2347 64.181 21.037 63.9386 20.7754C63.7025 20.5075 63.5399 20.1789 63.4506 19.7898L64.5797 19.3496C64.6563 19.6749 64.7966 19.9333 65.0008 20.1247C65.2049 20.3097 65.4601 20.4022 65.7663 20.4022C66.0725 20.4022 66.3277 20.3001 66.5319 20.096C66.736 19.8918 66.8381 19.6335 66.8381 19.3209C66.8381 19.0147 66.736 18.7595 66.5319 18.5553C66.3341 18.3448 66.0789 18.2395 65.7663 18.2395C65.5749 18.2395 65.3995 18.281 65.24 18.3639C65.0869 18.4405 64.9561 18.5458 64.8477 18.6797L63.6324 18.1343L64.0056 14.8616H67.6993V15.9621H65.0486L64.8094 17.4931L64.8859 17.5123C65.2049 17.2507 65.5845 17.1199 66.0247 17.1199C66.3883 17.1199 66.7264 17.2124 67.039 17.3974C67.358 17.5825 67.6132 17.844 67.8046 18.1821C67.996 18.5139 68.0917 18.8934 68.0917 19.3209C68.0917 19.7547 67.9928 20.1406 67.795 20.4788C67.5972 20.8169 67.3229 21.0816 66.9721 21.273C66.6212 21.4644 66.2225 21.5601 65.7759 21.5601ZM70.4879 16.4979L69.5022 17.2156L68.8707 16.2491L70.7941 14.8616H71.7414V21.407H70.4879V16.4979ZM73.3356 20.9764L76.0629 16.096L76.0246 16.0386H73.0198V14.8616H77.4696V16.096L74.3883 21.5601L73.3356 20.9764Z" fill="white"/>
</svg>
